<?xml version="1.0" encoding="UTF-8"?>
<svg width="500px" height="500px" viewBox="0 0 500 500" version="1.1" xmlns="http://www.w3.org/2000/svg" xmlns:xlink="http://www.w3.org/1999/xlink">
    <!-- Generator: Sketch 62 (91390) - https://sketch.com -->
    <title>04-how-to-4</title>
    <desc>Created with Sketch.</desc>
    <defs>
        <polygon id="path-1" points="0.131170646 0.72 79.058 0.72 79.058 82.8871888 0.131170646 82.8871888"></polygon>
    </defs>
    <g id="04-how-to-4" stroke="none" stroke-width="1" fill="none" fill-rule="evenodd">
        <g id="Group-300" transform="translate(34.000000, 46.000000)">
            <path d="M253.3536,374.3257 C281.3706,370.6977 307.7686,362.6447 330.7316,343.6857 C343.2576,333.3447 360.8686,320.7767 381.7446,276.0967 L374.6346,263.8797 C361.5736,293.3707 329.7926,318.7617 319.4266,325.7167 C303.2696,336.5567 289.3886,343.8427 265.3526,346.7287 L253.3536,374.3257 Z" id="Fill-1" fill="#F1D5C3"></path>
            <path d="M372.5909,250.0112 C375.3359,250.5262 368.8399,269.5952 367.0989,268.5422 C366.3589,268.0952 379.4449,270.2012 379.4449,270.2012 C379.4449,270.2012 376.3389,254.3562 375.8489,254.3562 C375.3599,254.3562 372.5909,250.0112 372.5909,250.0112" id="Fill-3" fill="#E58585"></path>
            <path d="M379.3995,270.1333 C376.8285,269.4133 369.0375,266.5333 367.0055,268.6683 C363.7565,272.0813 366.8255,272.5163 363.9135,276.2263 C361.9575,278.7193 358.6605,280.2523 357.6895,283.2673 C357.9745,283.6713 360.1095,284.9003 360.5055,284.5903 C360.9015,284.2793 362.7155,283.5893 363.0875,283.2473 C364.9195,281.5623 364.3115,279.5773 366.8035,279.7373 C372.2555,280.0863 375.5455,285.9233 374.4145,291.0443 C374.1565,292.2123 374.3765,295.8053 375.3015,296.8813 C377.0685,298.9353 377.8885,293.7363 378.6925,292.4193 C380.2865,289.8113 379.6655,287.6803 379.6285,283.3773 C379.6145,281.6003 380.2195,277.5093 380.1985,275.7323 C380.1805,274.3343 379.6325,272.0543 379.3995,270.1333" id="Fill-5" fill="#F4D9CE"></path>
            <path d="M377.8585,90.08 C391.7775,114.663 403.1585,153.937 403.4315,183.714 C403.5895,200.824 392.3765,243.587 387.1445,261.103 C386.8855,261.967 385.8465,262.3 385.1265,261.758 L372.7715,252.274 C380.9775,229.171 381.4415,199 382.6335,183.056 C384.0085,164.667 362.9375,137.925 355.6825,121.57 L377.8585,90.08 Z" id="Fill-7" fill="#E58585"></path>
            <path d="M339.4434,70.4057 C339.4434,70.4057 320.4934,59.3557 316.1354,70.1467 C292.8504,119.5567 289.8974,115.3547 286.7874,124.4007 C288.9304,128.0817 332.0894,155.8097 334.7444,155.2287 C336.3594,153.3767 357.2994,134.2077 366.0354,130.6557 C367.8204,129.9307 370.4144,127.4797 373.1314,126.6717 L384.1204,108.2587 L339.4434,70.4057 Z" id="Fill-9" fill="#E58585"></path>
            <path d="M358.709,69.728 C337.977,50.54 314.859,37.413 285.836,30.748 C260.5,24.93 204.136,25.595 187.221,26.697 L199.078,41.594 C210.832,41.222 266.338,47.797 278.109,50.687 C296.018,55.084 307.64,67.435 326.346,82.829 L358.709,69.728 Z" id="Fill-11" fill="#E58585"></path>
            <path d="M46.3038,293.6577 C46.6578,293.5977 49.4268,292.1837 49.4268,292.1837 C49.4268,292.1837 50.8408,287.7057 50.0168,287.5287 C49.1918,287.3517 42.8858,285.7017 42.8268,286.2317 C42.7678,286.7627 43.9468,292.4787 43.9468,292.4787 L44.6278,293.2617 L46.3038,293.6577 Z" id="Fill-13" fill="#E0B094"></path>
            <path d="M166.4825,372.9516 C138.4665,369.3236 112.0685,361.2716 89.1045,342.3116 C76.5795,331.9706 58.9685,319.4026 38.0915,274.7226 L45.2015,262.5056 C58.2625,291.9966 90.5655,314.3846 100.9315,321.3406 C117.0875,332.1806 134.2465,330.7876 156.7025,341.9586 L166.4825,372.9516 Z" id="Fill-15" fill="#F1D5C3"></path>
            <path d="M157.1397,341.2739 C157.1397,341.2739 117.7487,324.9189 117.2887,326.9919 C116.8277,329.0649 110.1477,360.3929 108.0747,360.6239 C106.0007,360.8539 197.3277,401.5369 208.3847,397.8509 C219.4427,394.1649 157.1397,341.2739 157.1397,341.2739" id="Fill-17" fill="#69BAC9"></path>
            <path d="M52.0577,260.8784 C51.1557,255.7424 49.7667,251.5084 49.7667,251.5084 L34.7747,266.5694 C34.7747,266.5694 34.8437,276.3574 35.0517,276.3574 C35.2607,276.3574 39.0087,278.6474 39.0087,278.6474 L52.0577,260.8784 Z" id="Fill-19" fill="#E0B094"></path>
            <path d="M134.6934,135.709 C133.6544,133.335 131.2334,127.653 130.1734,126.085 L84.1994,159.464 C83.3744,160.059 85.8394,162.074 86.0024,162.579 C102.5584,190.994 120.2414,199.341 136.0234,204.094 C136.0264,204.092 136.7974,202.742 136.7974,202.742 C130.9314,194.469 117.8994,178.713 116.0964,156.196 C130.9834,169.777 143.7304,186.971 145.8744,198.106 C145.9404,198.355 147.1734,197.637 147.4204,197.527 C151.0334,180.467 145.4344,162.131 134.6934,135.709" id="Fill-21" fill="#C7C7C7"></path>
            <path d="M269.0069,194.0493 C269.2529,194.1593 270.4859,194.8763 270.5519,194.6283 C272.6959,183.4933 285.4439,166.2993 300.3299,152.7173 C298.5279,175.2353 285.4949,190.9913 279.6299,199.2643 C279.6299,199.2643 280.4009,200.6143 280.4029,200.6153 C296.1859,195.8623 313.8679,187.5163 330.4249,159.1013 C330.5859,158.5953 333.0529,156.5813 332.2279,155.9863 L286.2529,122.6073 C285.1929,124.1753 282.7729,129.8573 281.7339,132.2313 C270.9919,158.6533 265.3939,176.9893 269.0069,194.0493" id="Fill-23" fill="#69BAC9"></path>
            <path d="M236.6631,51.8232 C237.0261,52.2462 237.5821,52.7232 238.0161,52.4232 C238.1761,52.3112 238.2651,52.1152 238.3271,51.9222 C238.7741,50.5342 238.2131,48.9672 237.4881,47.6652 C236.1921,45.3352 234.1311,43.6092 231.8291,42.2552 C227.5771,39.7552 230.3411,35.1482 231.8541,33.0992 C232.3081,32.4862 234.0421,31.3802 234.6301,30.9152 C235.5571,30.1832 237.0241,28.2352 237.9511,27.5032 C239.0841,26.6082 240.6321,27.2892 242.4151,26.4642 C242.9871,26.1992 242.9761,25.3842 242.3901,25.1522 C239.6811,24.0792 236.5991,23.0792 234.0021,22.3452 C232.0041,21.7812 229.5021,22.2962 227.6471,23.1372 C226.7031,23.5662 225.3951,24.5782 224.6501,25.3212 C224.4621,25.5092 224.2741,25.6982 224.0891,25.8882 C220.9821,29.0622 218.1881,32.5812 215.7621,36.3762 C214.9951,37.5742 214.2511,38.8402 214.0081,40.2832 C213.7261,41.9562 214.0721,43.8102 215.8721,43.8052 C217.6801,43.8002 219.4011,43.4992 221.2341,43.6882 C224.9231,44.0682 228.5631,45.3862 231.7581,47.5022 C233.5611,48.6982 235.2241,50.1492 236.6631,51.8232" id="Fill-25" fill="#E0B094"></path>
            <path d="M217.5362,33.3154 L216.6112,37.1684 C216.6112,37.1684 220.6952,38.2464 220.8492,37.6294 C221.0032,37.0134 224.9852,30.0124 224.9852,30.0124 L217.5362,33.3154 Z" id="Fill-27" fill="#E0B094"></path>
            <path d="M73.4209,79.8984 C93.2679,59.7944 122.5289,43.5104 151.0999,35.1134 C167.5159,30.2894 194.5469,27.0474 219.0319,29.6464 C219.9289,29.7414 220.5379,30.5674 220.2129,31.4094 L213.5299,48.6964 C195.9869,44.5324 167.2559,51.1584 156.1469,55.3014 C138.8679,61.7434 119.5049,71.1454 105.7529,82.5904 L73.4209,79.8984 Z" id="Fill-29" fill="#FF3434"></path>
            <path d="M27.336,244.2466 C27.792,243.7986 29.594,241.5646 29.907,241.7226 C30.221,241.8786 31.397,249.7146 31.397,249.7146 L30.77,251.0076 L27.336,244.2466 Z" id="Fill-31" fill="#F1D5C3"></path>
            <path d="M47.5215,94.5346 C47.5215,94.5346 31.5495,109.7516 40.6505,117.0066 C42.2605,118.0956 80.0885,161.4166 84.2535,160.4046 C88.3935,159.4006 130.1085,128.9476 130.3075,126.2376 C130.4875,123.8026 115.9775,93.5636 112.8545,86.2336 C112.0985,84.4606 111.0585,81.1306 111.0585,78.2966 L102.5405,58.8896 L47.5215,94.5346 Z" id="Fill-33" fill="#FF3434"></path>
            <path d="M33.7579,84.4687 C33.7579,88.7807 38.6449,91.6217 35.3979,92.7887 C30.6079,94.5117 21.8869,91.3687 23.3559,85.1687 C24.3499,80.9737 24.0479,78.3617 27.4979,78.3617 C30.9479,78.3617 33.7579,80.1577 33.7579,84.4687" id="Fill-35" fill="#E0B094"></path>
            <path d="M22.2325,11.4072 C35.3155,2.3202 36.8955,9.5912 39.2515,8.4432 C41.4195,7.3862 42.0585,1.4602 57.0805,3.0092 C72.0875,4.5552 73.1215,19.9922 74.3355,19.3062 C75.5485,18.6202 79.8465,19.2372 84.5415,26.3302 C89.2355,33.4232 84.1245,42.6682 84.1245,42.6682 C84.1245,42.6682 101.0065,55.4112 98.1425,70.9072 C95.2775,86.4032 78.3625,95.9552 78.3625,95.9552 L78.1305,96.1092 C78.1305,96.1092 62.7255,107.9452 47.3425,104.5252 C31.9615,101.1062 33.7675,85.5152 33.7675,85.5152 C33.7675,85.5152 16.3225,81.6762 11.6285,74.5832 C6.9345,67.4902 7.8295,63.7292 8.9355,62.8802 C10.0415,62.0312 -3.5465,54.6102 0.8955,40.1912 C5.3405,25.7602 11.0445,27.4882 12.8665,25.9052 C14.8425,24.1852 8.7675,19.8892 22.2465,11.3982 L22.2325,11.4072 Z" id="Fill-37" fill="#383838"></path>
            <path d="M87.6223102,62.9262 C87.6661,68.9812 80.7921,74.2232 76.1801,77.9192 C71.7041,81.7252 67.4881,85.1622 62.3621,87.7252 C57.6571,90.0772 52.2911,90.9492 47.1801,89.4162 C45.7741,89.0312 44.4461,88.4002 43.1681,87.7052 C41.2851,86.8302 39.5291,85.6022 38.2561,83.9462 C35.0501,79.8432 34.5081,74.4262 32.5451,69.7162 C31.3041,66.4722 28.5671,64.1972 28.8701,60.7282 C29.3701,55.0062 34.5721,54.4482 36.3271,55.0372 C38.4911,55.8552 40.8591,55.9542 43.1351,56.2872 C44.4761,56.4052 45.8711,56.3872 47.1801,56.0682 C48.4771,55.7512 49.6941,55.1602 50.8631,54.5112 C52.9341,53.2642 55.0331,51.9922 57.0131,50.6092 C59.6131,48.6202 60.4651,45.8042 60.7071,42.6502 C60.8851,40.9682 60.8331,39.1092 61.8481,37.6842 L61.8691,37.6732 C61.8771,37.6502 61.9061,37.6312 61.9131,37.6072 L61.9351,37.5962 C61.9491,37.5472 62.0021,37.5202 62.0221,37.4762 C62.0581,37.4592 62.0941,37.4232 62.1101,37.3882 C62.1341,37.3802 62.1571,37.3562 62.1651,37.3332 C62.2171,37.3052 62.2541,37.2482 62.3081,37.2242 L62.3181,37.2022 C63.2211,36.4782 64.4141,36.2362 65.5531,36.1282 C67.4221,35.9032 69.3401,36.3602 70.4311,37.9912 C71.3431,39.2602 71.7911,40.7952 72.4811,42.1902 C72.9841,43.1962 84.5451,48.0772 87.6223102,62.9262" id="Fill-39" fill="#E0B094"></path>
            <path d="M416.1934,70.4604 C416.1934,70.4604 363.2554,23.2464 361.9354,22.3324 C354.6514,30.1994 329.4714,57.0614 329.0834,58.1534 C329.1714,65.0224 338.6224,77.3944 342.9004,83.0214 C344.1324,84.5394 345.2404,86.3044 346.6074,87.6914 C349.0494,89.8254 351.7594,91.6514 354.4224,93.4994 C357.6484,95.6744 371.4984,102.4984 371.4984,102.4984 C385.6244,96.1964 416.1934,70.4604 416.1934,70.4604" id="Fill-41" fill="#F4D9CE"></path>
            <path d="M82.6426,76.9873 C84.0576,78.6553 75.3276,86.0603 73.9126,84.3923" id="Stroke-43" stroke="#DF715C" stroke-width="0.909"></path>
            <path d="M69.628,71.3291 L71.975,76.9941 C72.101,77.2961 72.485,77.3881 72.733,77.1731 L75.649,74.6551 C75.897,74.4401 75.862,74.0461 75.581,73.8781 L70.318,70.7321 C69.921,70.4951 69.45,70.9011 69.628,71.3291" id="Fill-45" fill="#DF715C"></path>
            <path d="M56.1875,75.3071 C57.7345,77.0981 58.1325,79.2881 57.0785,80.2001 C56.0235,81.1111 53.9145,80.3981 52.3675,78.6071 C50.8205,76.8161 50.4205,74.6261 51.4765,73.7151 C52.5315,72.8031 54.6405,73.5161 56.1875,75.3071" id="Fill-47" fill="#383838"></path>
            <path d="M60.5137,75.0927 C60.5137,75.0927 62.3957,76.3457 61.2787,79.3087" id="Stroke-49" stroke="#383838" stroke-width="0.862" stroke-linecap="round"></path>
            <path d="M75.2959,60.9819 C76.6369,62.5349 78.4659,63.1529 79.3809,62.3629 C80.2949,61.5729 79.9489,59.6729 78.6089,58.1209 C77.2679,56.5679 75.4389,55.9499 74.5239,56.7399 C73.6089,57.5299 73.9539,59.4289 75.2959,60.9819" id="Fill-51" fill="#383838"></path>
            <path d="M73.4893,64.4394 C73.4893,64.4394 74.4553,66.4824 77.5493,65.8084" id="Stroke-53" stroke="#383838" stroke-width="0.862" stroke-linecap="round"></path>
            <path d="M84.3663,160.4546 C122.8703,134.3086 122.8203,134.3556 130.4763,126.4376" id="Stroke-55" stroke="#883434" stroke-width="1.096"></path>
            <path d="M67.0127,279.4477 C67.5207,279.6767 68.1357,280.0757 67.9697,280.5767 C67.9077,280.7617 67.7447,280.9017 67.5757,281.0157 C66.3707,281.8377 64.7097,281.7397 63.2567,281.4127 C60.6557,280.8257 58.2407,279.6287 55.6147,279.1467 C52.9887,278.6657 50.2267,278.4397 48.6867,280.4707 C48.2267,281.0777 47.9427,281.7817 47.6617,282.4767 C47.2217,283.5727 46.7807,284.6677 46.3387,285.7627 C45.6067,287.5847 44.2837,291.3807 44.6047,293.3017 C42.4507,290.7407 40.0947,287.3447 38.3307,284.5407 C37.2257,282.7827 37.1327,279.6537 37.4167,277.6357 C37.5617,276.6097 38.0467,275.6537 38.5487,274.7297 C40.7957,270.5967 43.5157,266.6857 46.6497,263.0847 C47.5827,262.0107 48.5867,260.9397 49.9047,260.3007 C51.4297,259.5587 51.4857,259.1507 51.9877,260.8787 C52.4917,262.6147 54.5097,264.5677 55.2077,266.2727 C56.6127,269.7057 58.5527,273.4917 61.4847,275.9597 C63.1397,277.3537 65.0007,278.5397 67.0127,279.4477" id="Fill-57" fill="#E0B094"></path>
            <path d="M39.8575,104.3432 C26.1665,129.0532 18.6445,155.0382 18.6445,184.8182 C18.6445,202.5362 31.2395,254.3352 36.3425,270.4992 L52.5165,258.0822 C49.3535,246.7562 40.5845,199.2802 40.5845,187.1582 C40.5845,168.7182 44.4735,152.2062 54.9635,130.3692 L39.8575,104.3432 Z" id="Fill-59" fill="#FF3434"></path>
            <path d="M50.9717,241.9057 C51.0967,244.9607 49.4757,246.5187 47.2937,250.2597 C46.3927,251.8047 45.8387,257.3787 44.9317,258.9207 C43.9607,260.5707 42.5217,261.4357 41.6317,263.2877 C40.8157,264.9877 38.5767,267.8587 38.1377,269.6927 C37.7837,271.1717 38.0747,272.6817 37.6727,274.1477 C37.2717,275.6147 37.9787,277.4367 37.2907,278.5847 C35.6117,277.3617 34.4007,274.3067 33.6877,272.3557 C32.5627,269.2817 31.5137,266.1767 30.6767,263.0117 C29.4707,258.4487 28.7117,253.7807 27.9557,249.1227 C27.4487,245.9927 26.9407,242.7797 27.5767,239.6747 C28.0347,239.4607 28.8477,239.5607 29.0477,240.0247 C29.2477,240.4887 29.3817,241.4167 29.5437,241.8947 C30.3437,244.2597 30.6177,246.7877 32.9307,247.8617 C37.9917,250.2117 44.9067,246.0487 46.4507,241.0237 C46.8017,239.8787 48.7937,236.8467 50.1607,236.3577 C52.7717,235.4247 50.9097,240.3647 50.9717,241.9057" id="Fill-61" fill="#F1D5C3"></path>
            <path d="M192.7354,49.042 C195.7374,48.466 196.8964,46.574 200.0554,43.653 C201.3614,42.447 204.7964,40.143 206.0964,38.932 C207.4894,37.636 209.4284,34.505 211.0354,33.24 C212.5094,32.079 215.2644,31.382 216.9544,30.549 C218.3154,29.877 218.3934,30.177 219.6844,30.223 C221.2014,30.277 222.6604,27.081 223.6254,26.167 C222.0624,24.851 218.8844,25.802 216.8274,25.568 C213.5844,25.199 212.0634,25.059 208.7974,24.984 C204.0854,24.875 199.3724,25.216 194.6674,25.557 C191.5064,25.785 188.2664,26.034 185.3814,27.343 C185.2744,27.826 185.5534,28.575 186.0494,28.66 C186.5464,28.745 187.4784,28.661 187.9804,28.706 C190.4614,28.928 192.9834,28.613 194.5414,30.565 C197.9504,34.834 195.4254,42.344 190.8754,44.951 C189.8374,45.545 187.3264,48.124 187.1524,49.533 C186.8214,52.223 191.2204,49.332 192.7354,49.042" id="Fill-63" fill="#F1D5C3"></path>
            <path d="M369.0401,246.6323 C368.9151,249.6873 370.5361,251.2453 372.7181,254.9863 C373.6191,256.5313 373.2751,262.3423 374.4891,263.6553 C375.8841,265.1643 376.7931,267.0463 377.6831,268.8983 C378.4991,270.5983 379.3221,272.3153 379.7611,274.1493 C380.1151,275.6273 380.2141,277.1603 380.6151,278.6263 C381.0171,280.0933 376.7661,281.5563 378.0841,282.3143 C379.7641,281.0913 383.3901,275.3413 384.1031,273.3903 C385.2271,270.3163 385.2571,270.3543 386.0941,267.1893 C387.3001,262.6253 393.5201,255.9403 394.2761,251.2803 C394.7851,248.1513 393.0701,247.5063 392.4351,244.4013 C391.9771,244.1863 391.1641,244.2873 390.9641,244.7513 C390.7641,245.2153 390.6291,246.1433 390.4681,246.6213 C389.6681,248.9863 389.3941,251.5143 387.0801,252.5883 C382.0201,254.9383 375.1051,250.7743 373.5611,245.7503 C373.2091,244.6053 371.2181,241.5733 369.8511,241.0843 C367.2401,240.1513 369.1021,245.0913 369.0401,246.6323" id="Fill-65" fill="#F1D5C3"></path>
            <path d="M54.7227,137.4052 C55.4227,137.1642 97.1207,117.8112 117.4797,92.8422" id="Stroke-67" stroke="#FFFFFF" stroke-width="2.487"></path>
            <path d="M63.0196,144.8086 C63.7156,144.5636 105.1286,124.9256 125.2576,99.7296" id="Stroke-69" stroke="#FFFFFF" stroke-width="2.192"></path>
            <path d="M67.1407,152.73 C67.8357,152.48 109.2277,132.486 129.2937,106.985" id="Stroke-71" stroke="#FFFFFF" stroke-width="1.973"></path>
            <path d="M72.9629,158.9951 C73.6569,158.7421 114.9119,138.5111 134.8549,112.8131" id="Stroke-73" stroke="#FFFFFF" stroke-width="1.809"></path>
            <path d="M188.656627,96.6406 C188.6873,100.9576 186.5133,105.0306 182.9023,107.3976 C177.2613,111.0936 170.6283,110.0726 166.4053,106.1616 C166.1003,105.8796 165.6713,105.7766 165.2723,105.8956 L154.6343,109.0946 C154.6343,109.0946 152.7393,108.0756 152.3023,107.8406 C151.8643,107.6056 151.5283,107.7066 151.5283,107.7066 C151.5283,107.7066 146.7093,109.1556 146.2603,109.2906 C145.8113,109.4256 145.6553,109.7176 145.6553,109.7176 L143.1463,113.1606 L135.5273,107.8816 C135.3853,107.7836 135.3443,107.5906 135.4363,107.4436 L139.4723,100.9436 L161.7343,94.2496 C162.1353,94.1286 162.4373,93.8026 162.5353,93.3956 C163.5963,88.9666 166.9203,85.2056 171.5933,83.8006 C179.8253,81.3256 188.5883,87.2586 188.656627,96.6406" id="Fill-75" fill="#FFFFFF"></path>
            <path d="M188.656627,96.6406 C188.6873,100.9576 186.5133,105.0306 182.9023,107.3976 C177.2613,111.0936 170.6283,110.0726 166.4053,106.1616 C166.1003,105.8796 165.6713,105.7766 165.2723,105.8956 L154.6343,109.0946 C154.6343,109.0946 152.7393,108.0756 152.3023,107.8406 C151.8643,107.6056 151.5283,107.7066 151.5283,107.7066 C151.5283,107.7066 146.7093,109.1556 146.2603,109.2906 C145.8113,109.4256 145.6553,109.7176 145.6553,109.7176 L143.1463,113.1606 L135.5273,107.8816 C135.3853,107.7836 135.3443,107.5906 135.4363,107.4436 L139.4723,100.9436 L161.7343,94.2496 C162.1353,94.1286 162.4373,93.8026 162.5353,93.3956 C163.5963,88.9666 166.9203,85.2056 171.5933,83.8006 C179.8253,81.3256 188.5883,87.2586 188.656627,96.6406 Z" id="Stroke-77" stroke="#263238" stroke-width="1.754"></path>
            <g id="Group-82" transform="translate(136.000000, 98.280000)">
                <path d="M0.625,10.1848 C0.998,10.1188 18.192,4.9168 23.496,3.3108 C24.348,3.0528 24.829,2.1538 24.573,1.3018 C24.316,0.4478 23.416,-0.0362 22.562,0.2208 L3.71,5.8898" id="Fill-79" fill="#FFFFFF"></path>
                <path d="M0.625,10.1848 C0.998,10.1188 18.192,4.9168 23.496,3.3108 C24.348,3.0528 24.829,2.1538 24.573,1.3018 C24.316,0.4478 23.416,-0.0362 22.562,0.2208 L3.71,5.8898" id="Stroke-81" stroke="#263238" stroke-width="1.754" stroke-linecap="round"></path>
            </g>
            <path d="M185.0196,93.5737 C185.8196,96.2357 184.3106,99.0417 181.6496,99.8427 C178.9876,100.6427 176.1806,99.1337 175.3796,96.4717 C174.5806,93.8097 176.0886,91.0037 178.7506,90.2027 C181.4126,89.4027 184.2186,90.9117 185.0196,93.5737" id="Fill-83" fill="#FFFFFF"></path>
            <path d="M185.0196,93.5737 C185.8196,96.2357 184.3106,99.0417 181.6496,99.8427 C178.9876,100.6427 176.1806,99.1337 175.3796,96.4717 C174.5806,93.8097 176.0886,91.0037 178.7506,90.2027 C181.4126,89.4027 184.2186,90.9117 185.0196,93.5737 Z" id="Stroke-85" stroke="#263238" stroke-width="1.754" stroke-linecap="round"></path>
            <path d="M283.5635,293.7417 C280.0935,291.1727 278.1455,286.9867 278.4235,282.6787 C278.8595,275.9487 283.6625,271.2607 289.3255,270.2357 C289.7345,270.1617 290.0755,269.8797 290.2185,269.4897 L294.0545,259.0637 C294.0545,259.0637 296.0075,258.1617 296.4595,257.9537 C296.9095,257.7457 297.0315,257.4157 297.0315,257.4157 C297.0315,257.4157 298.7685,252.6927 298.9305,252.2537 C299.0915,251.8137 298.9535,251.5127 298.9535,251.5127 L297.7095,247.4387 L306.5055,244.5207 C306.6705,244.4677 306.8485,244.5517 306.9125,244.7127 L309.6815,251.8447 L301.6535,273.6607 C301.5085,274.0537 301.5875,274.4907 301.8545,274.8137 C304.7565,278.3237 305.7655,283.2397 304.0805,287.8197 C301.1115,295.8877 291.1035,299.3257 283.5635,293.7417" id="Fill-87" fill="#FFFFFF"></path>
            <path d="M283.5635,293.7417 C280.0935,291.1727 278.1455,286.9867 278.4235,282.6787 C278.8595,275.9487 283.6625,271.2607 289.3255,270.2357 C289.7345,270.1617 290.0755,269.8797 290.2185,269.4897 L294.0545,259.0637 C294.0545,259.0637 296.0075,258.1617 296.4595,257.9537 C296.9095,257.7457 297.0315,257.4157 297.0315,257.4157 C297.0315,257.4157 298.7685,252.6927 298.9305,252.2537 C299.0915,251.8137 298.9535,251.5127 298.9535,251.5127 L297.7095,247.4387 L306.5055,244.5207 C306.6705,244.4677 306.8485,244.5517 306.9125,244.7127 L309.6815,251.8447 L301.6535,273.6607 C301.5085,274.0537 301.5875,274.4907 301.8545,274.8137 C304.7565,278.3237 305.7655,283.2397 304.0805,287.8197 C301.1115,295.8877 291.1035,299.3257 283.5635,293.7417 Z" id="Stroke-89" stroke="#263238" stroke-width="1.754"></path>
            <g id="Group-94" transform="translate(297.000000, 244.280000)">
                <path d="M8.3809,0.7683 C8.2089,1.1063 2.0339,17.9753 0.1309,23.1793 C-0.1751,24.0153 0.2539,24.9403 1.0899,25.2473 C1.9259,25.5553 2.8539,25.1263 3.1619,24.2903 L9.9599,5.8153" id="Fill-91" fill="#FFFFFF"></path>
                <path d="M8.3809,0.7683 C8.2089,1.1063 2.0339,17.9753 0.1309,23.1793 C-0.1751,24.0153 0.2539,24.9403 1.0899,25.2473 C1.9259,25.5553 2.8539,25.1263 3.1619,24.2903 L9.9599,5.8153" id="Stroke-93" stroke="#263238" stroke-width="1.754" stroke-linecap="round"></path>
            </g>
            <path d="M288.2003,292.6782 C285.5923,291.7182 284.2563,288.8252 285.2163,286.2172 C286.1763,283.6092 289.0683,282.2722 291.6773,283.2322 C294.2853,284.1922 295.6213,287.0842 294.6613,289.6932 C293.7023,292.3012 290.8093,293.6382 288.2003,292.6782" id="Fill-95" fill="#FFFFFF"></path>
            <path d="M288.2003,292.6782 C285.5923,291.7182 284.2563,288.8252 285.2163,286.2172 C286.1763,283.6092 289.0683,282.2722 291.6773,283.2322 C294.2853,284.1922 295.6213,287.0842 294.6613,289.6932 C293.7023,292.3012 290.8093,293.6382 288.2003,292.6782 Z" id="Stroke-97" stroke="#263238" stroke-width="1.754" stroke-linecap="round"></path>
            <path d="M253.9864,343.0307 C253.9864,343.0307 293.3774,326.6767 293.8384,328.7497 C294.2994,330.8217 300.9784,362.1507 303.0514,362.3807 C305.1254,362.6107 219.2234,401.7547 208.1674,398.0687 C197.1094,394.3837 253.9864,343.0307 253.9864,343.0307" id="Fill-99" fill="#69BAC9"></path>
            <path d="M157.9493,371.4633 C153.1933,316.3663 179.5023,307.9223 194.2823,305.7383 C200.9373,304.7553 213.4323,304.7153 220.0953,305.6543 C234.8893,307.7413 254.8473,315.9263 256.8563,371.1413 C257.8053,397.2303 209.9073,408.7813 209.9073,408.7813 C209.9073,408.7813 160.5373,401.4503 157.9493,371.4633" id="Fill-101" fill="#FF3434"></path>
            <path d="M157.9493,371.4633 C153.1933,316.3663 179.5023,307.9223 194.2823,305.7383 C200.9373,304.7553 213.4323,304.7153 220.0953,305.6543 C234.8893,307.7413 254.8473,315.9263 256.8563,371.1413 C257.8053,397.2303 209.9073,408.7813 209.9073,408.7813 C209.9073,408.7813 160.5373,401.4503 157.9493,371.4633 Z" id="Stroke-103" stroke="#FF3434" stroke-width="0.997" stroke-linecap="round" stroke-linejoin="round"></path>
            <path d="M360.7755,54.3388 C358.7115,56.2918 356.2205,57.0098 355.2125,55.9438 C354.2035,54.8788 355.0585,52.4308 357.1235,50.4788 C359.1865,48.5268 361.6775,47.8078 362.6855,48.8738 C363.6945,49.9398 362.8385,52.3858 360.7755,54.3388" id="Fill-105" fill="#383838"></path>
            <path d="M384.4454,74.9941 C382.3814,76.9471 379.8904,77.6651 378.8824,76.5991 C377.8734,75.5331 378.7284,73.0861 380.7934,71.1341 C382.8564,69.1811 385.3474,68.4621 386.3554,69.5281 C387.3644,70.5941 386.5084,73.0411 384.4454,74.9941" id="Fill-107" fill="#383838"></path>
            <g id="Group-112" transform="translate(344.000000, 71.280000)">
                <path d="M0.4044,0.2815 C-1.6046,1.9875 12.0114,18.0145 14.0194,16.3085" id="Fill-109" fill="#E58585"></path>
                <path d="M0.4044,0.2815 C-1.6046,1.9875 12.0114,18.0145 14.0194,16.3085" id="Stroke-111" stroke="#E58585" stroke-width="1.096" stroke-linecap="round" stroke-linejoin="round"></path>
            </g>
            <path d="M362.5098,67.812 C363.4088,67.503 363.8538,68.092 363.3098,68.872 L361.3508,71.683 L359.3908,74.495 C358.8478,75.274 357.7238,75.66 357.3678,75.189 L356.0868,73.491 L354.8058,71.793 C354.4498,71.322 355.1288,70.348 356.0288,70.039 L359.2698,68.925 L362.5098,67.812 Z" id="Fill-113" fill="#E58585"></path>
            <path d="M362.5098,67.812 C363.4088,67.503 363.8538,68.092 363.3098,68.872 L361.3508,71.683 L359.3908,74.495 C358.8478,75.274 357.7238,75.66 357.3678,75.189 L356.0868,73.491 L354.8058,71.793 C354.4498,71.322 355.1288,70.348 356.0288,70.039 L359.2698,68.925 L362.5098,67.812 Z" id="Stroke-115" stroke="#E58585" stroke-width="1.096" stroke-linecap="round" stroke-linejoin="round"></path>
            <g id="Group-119" transform="translate(352.000000, 0.280000)">
                <mask id="mask-2" fill="white">
                    <use xlink:href="#path-1"></use>
                </mask>
                <g id="Clip-118"></g>
                <path d="M2.5489,27.2605 C2.5489,27.2605 -4.1991,14.1795 4.8519,3.4065 C11.5659,-4.5865 4.1399,7.5875 15.1229,9.7975 C22.3719,11.2555 33.0529,-5.9755 60.5109,13.9215 C83.7799,30.7835 85.0559,57.2925 64.8949,75.3005 C50.2109,88.4155 49.0139,80.2195 42.2779,81.6955 C40.9139,81.9935 37.5419,78.3795 37.5419,78.3795 L46.3829,67.1705 L2.5489,27.2605 Z" id="Fill-117" fill="#2B5165" mask="url(#mask-2)"></path>
            </g>
            <path d="M351.4229,39.2856 C348.3319,42.4716 343.6939,47.3766 341.1959,44.9526 C338.6989,42.5296 339.2869,33.6966 342.3779,30.5096 C345.4699,27.3236 349.9999,26.7056 352.4979,29.1286 C354.9949,31.5526 354.5149,36.0996 351.4229,39.2856" id="Fill-120" fill="#F4D9CE"></path>
            <path d="M393.1085,83.3325 C389.9455,86.4475 385.0755,91.1215 387.5165,93.6015 C389.9595,96.0805 398.7885,95.4265 401.9515,92.3115 C405.1145,89.1965 405.6985,84.6615 403.2565,82.1825 C400.8145,79.7025 396.2715,80.2175 393.1085,83.3325" id="Fill-122" fill="#F4D9CE"></path>
            <path d="M359.7208,31.102 C359.3988,31.209 354.0038,37.306 350.9058,38.635 C350.4648,38.824 350.1908,38.092 350.1908,38.092 L353.9618,31.757 C353.5228,30.238 352.4528,29.164 351.1798,28.193 L353.4158,25.514 C353.4158,25.514 355.4218,23.652 355.8518,24.368 C356.2828,25.084 359.7208,31.102 359.7208,31.102" id="Fill-124" fill="#2B5165"></path>
            <path d="M307.0401,142.727 C324.9221,156.851 330.5391,159.135 330.5391,159.135 L334.7351,155.238 C334.7351,155.238 329.0061,152.176 311.1241,138.052 L310.5631,137.609 C292.6821,123.486 288.0741,118.268 288.0741,118.268 L285.8761,123.464 C285.8761,123.464 288.5981,128.161 306.4791,142.285 L307.0401,142.727 Z" id="Fill-126" fill="#2B5165"></path>
            <path d="M309.6505,145.6684 L304.7115,141.7674 C304.5275,141.6214 304.5025,141.3624 304.6545,141.1884 L309.2325,135.9484 C309.3845,135.7734 309.6575,135.7494 309.8405,135.8944 L314.7815,139.7964 C314.9645,139.9414 314.9905,140.2004 314.8375,140.3754 L310.2595,145.6154 C310.1075,145.7904 309.8345,145.8144 309.6505,145.6684" id="Fill-128" fill="#C7C7C7"></path>
            <path d="M224.0889,25.8886 C224.3639,25.6456 219.4649,25.1436 219.4649,25.1436 L219.6099,30.1776 L220.0969,30.3296 C220.0969,30.3296 221.3639,29.7246 224.0889,25.8886" id="Fill-130" fill="#E58585"></path>
            <polygon id="Fill-132" fill="#FFFFFF" points="273.3985 106.2075 208.2165 88.6695 214.6025 64.9365 279.7845 82.4735"></polygon>
            <polygon id="Stroke-134" stroke="#000000" stroke-width="1.487" points="273.3985 106.2075 208.2165 88.6695 214.6025 64.9365 279.7845 82.4735"></polygon>
            <path d="M219.2842,81.978 C219.2172,81.87 219.2002,81.755 219.2322,81.636 C219.2432,81.597 219.4642,81.091 219.8962,80.122 C218.9282,80.553 218.4222,80.773 218.3762,80.783 C218.3082,80.795 218.2402,80.793 218.1702,80.774 C218.0012,80.729 217.8882,80.619 217.8292,80.443 C217.8072,80.363 217.8092,80.278 217.8342,80.188 C217.8792,80.02 217.9792,79.919 218.1382,79.887 L219.7852,79.708 L218.4512,78.725 C218.3332,78.608 218.2992,78.465 218.3442,78.297 C218.3682,78.207 218.4092,78.133 218.4682,78.075 C218.6062,77.952 218.7562,77.913 218.9162,77.956 C218.9842,77.974 219.0492,78.013 219.1072,78.072 C219.1422,78.102 219.4692,78.547 220.0902,79.407 C220.2032,78.351 220.2662,77.804 220.2772,77.764 C220.3092,77.645 220.3812,77.555 220.4932,77.495 C220.6052,77.434 220.7212,77.419 220.8412,77.452 C220.9592,77.484 221.0522,77.555 221.1192,77.664 C221.1852,77.772 221.2032,77.885 221.1712,78.004 C221.1602,78.044 220.9372,78.549 220.5072,79.52 C221.4742,79.088 221.9822,78.868 222.0262,78.859 C222.0872,78.832 222.1622,78.832 222.2522,78.855 C222.4112,78.898 222.5192,79.007 222.5782,79.183 C222.5972,79.273 222.5972,79.353 222.5772,79.423 C222.5322,79.592 222.4282,79.702 222.2642,79.754 L220.6182,79.933 L221.9522,80.916 C222.0692,81.033 222.1042,81.175 222.0592,81.344 C222.0402,81.414 222.0012,81.483 221.9392,81.552 C221.8012,81.674 221.6452,81.712 221.4762,81.666 C221.4082,81.648 221.3472,81.615 221.2962,81.57 C221.2622,81.539 220.9332,81.094 220.3132,80.234 C220.1982,81.29 220.1372,81.837 220.1262,81.877 C220.0942,81.997 220.0212,82.086 219.9102,82.147 C219.7972,82.207 219.6812,82.221 219.5632,82.189 C219.4432,82.157 219.3502,82.086 219.2842,81.978" id="Fill-136" fill="#000000"></path>
            <path d="M225.4952,83.6533 C225.4282,83.5443 225.4112,83.4303 225.4432,83.3113 C225.4542,83.2723 225.6752,82.7673 226.1072,81.7973 C225.1392,82.2283 224.6322,82.4483 224.5872,82.4573 C224.5192,82.4713 224.4502,82.4683 224.3812,82.4493 C224.2122,82.4043 224.0992,82.2943 224.0402,82.1183 C224.0182,82.0383 224.0202,81.9533 224.0452,81.8633 C224.0902,81.6953 224.1902,81.5943 224.3492,81.5623 L225.9962,81.3833 L224.6622,80.4013 C224.5442,80.2833 224.5102,80.1413 224.5552,79.9723 C224.5792,79.8823 224.6202,79.8093 224.6792,79.7493 C224.8172,79.6273 224.9672,79.5883 225.1262,79.6313 C225.1952,79.6503 225.2592,79.6883 225.3182,79.7463 C225.3522,79.7783 225.6802,80.2223 226.3012,81.0823 C226.4142,80.0263 226.4772,79.4793 226.4882,79.4393 C226.5202,79.3203 226.5922,79.2303 226.7042,79.1703 C226.8152,79.1103 226.9322,79.0953 227.0512,79.1273 C227.1702,79.1593 227.2632,79.2303 227.3302,79.3383 C227.3962,79.4463 227.4142,79.5613 227.3822,79.6803 C227.3712,79.7203 227.1482,80.2243 226.7182,81.1953 C227.6852,80.7633 228.1922,80.5433 228.2372,80.5343 C228.2982,80.5083 228.3732,80.5063 228.4622,80.5303 C228.6212,80.5733 228.7302,80.6833 228.7892,80.8583 C228.8082,80.9483 228.8082,81.0283 228.7882,81.0983 C228.7432,81.2673 228.6382,81.3773 228.4742,81.4293 L226.8292,81.6083 L228.1612,82.5913 C228.2782,82.7073 228.3152,82.8503 228.2702,83.0193 C228.2512,83.0893 228.2122,83.1583 228.1502,83.2273 C228.0122,83.3493 227.8562,83.3873 227.6872,83.3413 C227.6182,83.3233 227.5582,83.2903 227.5072,83.2453 C227.4722,83.2143 227.1442,82.7693 226.5242,81.9093 C226.4092,82.9653 226.3482,83.5133 226.3372,83.5523 C226.3052,83.6713 226.2322,83.7613 226.1212,83.8213 C226.0082,83.8823 225.8922,83.8963 225.7732,83.8633 C225.6542,83.8313 225.5602,83.7613 225.4952,83.6533" id="Fill-138" fill="#000000"></path>
            <path d="M231.7061,85.3286 C231.6401,85.2206 231.6221,85.1056 231.6541,84.9866 C231.6651,84.9476 231.8861,84.4426 232.3191,83.4726 C231.3511,83.9036 230.8441,84.1236 230.7981,84.1336 C230.7311,84.1466 230.6621,84.1436 230.5921,84.1256 C230.4241,84.0796 230.3101,83.9696 230.2511,83.7936 C230.2301,83.7136 230.2311,83.6286 230.2561,83.5386 C230.3011,83.3706 230.4021,83.2696 230.5611,83.2376 L232.2071,83.0586 L230.8741,82.0766 C230.7561,81.9586 230.7211,81.8166 230.7661,81.6476 C230.7901,81.5576 230.8321,81.4846 230.8901,81.4256 C231.0291,81.3036 231.1791,81.2636 231.3381,81.3066 C231.4061,81.3256 231.4711,81.3636 231.5291,81.4226 C231.5641,81.4526 231.8921,81.8976 232.5131,82.7576 C232.6251,81.7016 232.6881,81.1546 232.6991,81.1146 C232.7311,80.9956 232.8041,80.9056 232.9151,80.8456 C233.0271,80.7846 233.1431,80.7706 233.2631,80.8026 C233.3821,80.8346 233.4751,80.9056 233.5411,81.0146 C233.6071,81.1226 233.6261,81.2366 233.5941,81.3556 C233.5831,81.3956 233.3591,81.8996 232.9291,82.8706 C233.8961,82.4386 234.4041,82.2196 234.4481,82.2096 C234.5101,82.1836 234.5841,82.1826 234.6741,82.2066 C234.8331,82.2496 234.9411,82.3586 235.0011,82.5336 C235.0191,82.6246 235.0191,82.7046 235.0001,82.7736 C234.9551,82.9426 234.8501,83.0526 234.6861,83.1046 L233.0411,83.2836 L234.3741,84.2666 C234.4911,84.3836 234.5271,84.5256 234.4821,84.6946 C234.4631,84.7656 234.4231,84.8336 234.3621,84.9026 C234.2231,85.0246 234.0671,85.0626 233.8981,85.0166 C233.8301,84.9986 233.7691,84.9666 233.7181,84.9206 C233.6841,84.8906 233.3551,84.4446 232.7351,83.5856 C232.6201,84.6406 232.5601,85.1886 232.5491,85.2276 C232.5171,85.3476 232.4431,85.4366 232.3321,85.4976 C232.2201,85.5576 232.1041,85.5716 231.9851,85.5396 C231.8651,85.5076 231.7721,85.4366 231.7061,85.3286" id="Fill-140" fill="#000000"></path>
            <path d="M237.917,87.0039 C237.85,86.8949 237.833,86.7809 237.865,86.6619 C237.876,86.6229 238.097,86.1179 238.529,85.1479 C237.561,85.5789 237.055,85.7989 237.009,85.8089 C236.941,85.8219 236.873,85.8189 236.803,85.7999 C236.634,85.7549 236.521,85.6449 236.462,85.4689 C236.44,85.3889 236.442,85.3039 236.467,85.2139 C236.512,85.0459 236.612,84.9449 236.771,84.9129 L238.418,84.7339 L237.084,83.7519 C236.966,83.6339 236.932,83.4919 236.977,83.3229 C237.001,83.2329 237.042,83.1599 237.101,83.0999 C237.239,82.9779 237.389,82.9389 237.549,82.9819 C237.617,83.0009 237.682,83.0389 237.74,83.0979 C237.775,83.1289 238.102,83.5729 238.723,84.4329 C238.836,83.3769 238.899,82.8299 238.91,82.7899 C238.942,82.6709 239.014,82.5809 239.126,82.5209 C239.238,82.4609 239.354,82.4459 239.474,82.4779 C239.592,82.5099 239.685,82.5809 239.752,82.6899 C239.818,82.7979 239.836,82.9119 239.804,83.0309 C239.793,83.0709 239.57,83.5749 239.14,84.5459 C240.107,84.1139 240.615,83.8939 240.659,83.8849 C240.72,83.8589 240.795,83.8579 240.885,83.8809 C241.044,83.9239 241.152,84.0339 241.211,84.2099 C241.23,84.2989 241.23,84.3789 241.21,84.4489 C241.165,84.6179 241.061,84.7279 240.897,84.7799 L239.251,84.9599 L240.585,85.9419 C240.702,86.0589 240.737,86.2019 240.692,86.3709 C240.673,86.4399 240.634,86.5089 240.572,86.5779 C240.434,86.6999 240.278,86.7379 240.109,86.6919 C240.041,86.6739 239.98,86.6409 239.929,86.5959 C239.895,86.5649 239.566,86.1199 238.946,85.2599 C238.831,86.3159 238.77,86.8639 238.759,86.9029 C238.727,87.0229 238.654,87.1119 238.543,87.1729 C238.43,87.2329 238.314,87.2469 238.196,87.2149 C238.076,87.1829 237.983,87.1119 237.917,87.0039" id="Fill-142" fill="#000000"></path>
            <path d="M244.129,88.6792 C244.062,88.5712 244.045,88.4562 244.077,88.3372 C244.088,88.2982 244.309,87.7932 244.741,86.8242 C243.773,87.2542 243.266,87.4742 243.222,87.4842 C243.153,87.4972 243.084,87.4942 243.015,87.4762 C242.846,87.4302 242.733,87.3202 242.673,87.1442 C242.652,87.0642 242.654,86.9792 242.679,86.8892 C242.724,86.7212 242.824,86.6202 242.983,86.5882 L244.63,86.4092 L243.296,85.4272 C243.178,85.3092 243.144,85.1672 243.189,84.9982 C243.213,84.9082 243.254,84.8352 243.312,84.7762 C243.451,84.6542 243.601,84.6142 243.76,84.6572 C243.829,84.6762 243.893,84.7142 243.952,84.7732 C243.986,84.8042 244.314,85.2482 244.935,86.1092 C245.048,85.0522 245.111,84.5052 245.122,84.4652 C245.154,84.3462 245.226,84.2562 245.338,84.1962 C245.449,84.1362 245.566,84.1212 245.685,84.1542 C245.804,84.1852 245.897,84.2562 245.964,84.3652 C246.03,84.4732 246.048,84.5872 246.016,84.7062 C246.005,84.7462 245.782,85.2502 245.352,86.2212 C246.319,85.7892 246.826,85.5702 246.871,85.5602 C246.932,85.5342 247.006,85.5332 247.096,85.5572 C247.255,85.6002 247.364,85.7092 247.423,85.8852 C247.442,85.9752 247.441,86.0552 247.422,86.1242 C247.377,86.2932 247.272,86.4032 247.108,86.4552 L245.463,86.6342 L246.796,87.6172 C246.913,87.7342 246.949,87.8772 246.904,88.0462 C246.885,88.1162 246.846,88.1842 246.784,88.2532 C246.646,88.3752 246.49,88.4132 246.321,88.3672 C246.252,88.3492 246.192,88.3172 246.14,88.2712 C246.106,88.2412 245.778,87.7952 245.158,86.9362 C245.043,87.9912 244.982,88.5392 244.971,88.5782 C244.939,88.6982 244.866,88.7872 244.755,88.8482 C244.642,88.9082 244.526,88.9222 244.407,88.8902 C244.288,88.8582 244.194,88.7872 244.129,88.6792" id="Fill-144" fill="#000000"></path>
            <path d="M250.3389,90.355 C250.2729,90.246 250.2549,90.132 250.2869,90.013 C250.2979,89.973 250.5189,89.468 250.9519,88.499 C249.9839,88.93 249.4769,89.15 249.4309,89.159 C249.3639,89.172 249.2949,89.17 249.2249,89.151 C249.0569,89.106 248.9429,88.996 248.8839,88.82 C248.8629,88.74 248.8639,88.655 248.8889,88.565 C248.9339,88.397 249.0349,88.296 249.1939,88.264 L250.8399,88.085 L249.5069,87.102 C249.3889,86.985 249.3539,86.842 249.3989,86.674 C249.4229,86.584 249.4649,86.51 249.5229,86.451 C249.6619,86.329 249.8119,86.29 249.9709,86.333 C250.0389,86.351 250.1039,86.39 250.1619,86.448 C250.1969,86.479 250.5249,86.924 251.1459,87.784 C251.2579,86.728 251.3209,86.18 251.3319,86.14 C251.3639,86.021 251.4369,85.932 251.5479,85.872 C251.6599,85.811 251.7759,85.796 251.8959,85.829 C252.0149,85.861 252.1079,85.932 252.1739,86.041 C252.2399,86.149 252.2589,86.262 252.2269,86.381 C252.2159,86.421 251.9929,86.926 251.5619,87.896 C252.5289,87.465 253.0369,87.245 253.0819,87.236 C253.1429,87.209 253.2169,87.209 253.3069,87.232 C253.4659,87.275 253.5739,87.384 253.6339,87.56 C253.6519,87.65 253.6519,87.73 253.6329,87.799 C253.5879,87.968 253.4829,88.079 253.3189,88.13 L251.6739,88.31 L253.0069,89.293 C253.1239,89.409 253.1599,89.552 253.1149,89.721 C253.0959,89.791 253.0559,89.86 252.9949,89.929 C252.8559,90.051 252.6999,90.088 252.5309,90.043 C252.4629,90.025 252.4019,89.992 252.3509,89.947 C252.3169,89.916 251.9879,89.471 251.3679,88.611 C251.2539,89.667 251.1929,90.214 251.1819,90.254 C251.1499,90.374 251.0759,90.463 250.9649,90.524 C250.8529,90.584 250.7369,90.598 250.6179,90.566 C250.4979,90.533 250.4049,90.463 250.3389,90.355" id="Fill-146" fill="#000000"></path>
            <path d="M256.5499,92.0298 C256.4829,91.9218 256.4659,91.8068 256.4979,91.6878 C256.5089,91.6488 256.7299,91.1438 257.1619,90.1738 C256.1939,90.6048 255.6879,90.8248 255.6419,90.8348 C255.5739,90.8478 255.5059,90.8448 255.4359,90.8268 C255.2669,90.7808 255.1539,90.6708 255.0949,90.4948 C255.0729,90.4148 255.0749,90.3298 255.0999,90.2398 C255.1449,90.0718 255.2459,89.9708 255.4039,89.9388 L257.0509,89.7598 L255.7169,88.7778 C255.5999,88.6598 255.5649,88.5178 255.6099,88.3488 C255.6339,88.2588 255.6749,88.1858 255.7339,88.1268 C255.8719,88.0048 256.0219,87.9648 256.1819,88.0078 C256.2499,88.0268 256.3149,88.0648 256.3729,88.1238 C256.4079,88.1548 256.7349,88.5988 257.3559,89.4588 C257.4689,88.4028 257.5319,87.8558 257.5429,87.8158 C257.5749,87.6968 257.6469,87.6068 257.7589,87.5468 C257.8709,87.4868 257.9869,87.4718 258.1069,87.5048 C258.2249,87.5358 258.3179,87.6068 258.3849,87.7158 C258.4509,87.8238 258.4689,87.9378 258.4369,88.0568 C258.4259,88.0968 258.2029,88.6008 257.7729,89.5718 C258.7399,89.1398 259.2479,88.9208 259.2919,88.9108 C259.3529,88.8848 259.4279,88.8838 259.5179,88.9078 C259.6769,88.9508 259.7849,89.0598 259.8439,89.2358 C259.8629,89.3258 259.8629,89.4058 259.8429,89.4748 C259.7979,89.6438 259.6939,89.7538 259.5299,89.8058 L257.8839,89.9848 L259.2179,90.9678 C259.3349,91.0848 259.3699,91.2268 259.3249,91.3958 C259.3059,91.4668 259.2669,91.5348 259.2049,91.6038 C259.0669,91.7258 258.9109,91.7638 258.7419,91.7178 C258.6739,91.6998 258.6129,91.6678 258.5619,91.6218 C258.5279,91.5918 258.1989,91.1458 257.5789,90.2868 C257.4639,91.3418 257.4029,91.8898 257.3919,91.9288 C257.3599,92.0488 257.2869,92.1378 257.1759,92.1988 C257.0629,92.2588 256.9469,92.2728 256.8289,92.2408 C256.7089,92.2088 256.6159,92.1378 256.5499,92.0298" id="Fill-148" fill="#000000"></path>
            <path d="M262.7618,93.7055 C262.6948,93.5975 262.6778,93.4825 262.7098,93.3635 C262.7208,93.3245 262.9418,92.8185 263.3738,91.8495 C262.4058,92.2805 261.8988,92.5005 261.8548,92.5105 C261.7858,92.5225 261.7168,92.5205 261.6478,92.5015 C261.4788,92.4565 261.3658,92.3465 261.3058,92.1705 C261.2848,92.0905 261.2868,92.0055 261.3118,91.9155 C261.3568,91.7475 261.4568,91.6465 261.6158,91.6145 L263.2628,91.4355 L261.9288,90.4525 C261.8108,90.3355 261.7768,90.1925 261.8218,90.0245 C261.8458,89.9345 261.8868,89.8605 261.9448,89.8015 C262.0838,89.6795 262.2338,89.6405 262.3928,89.6835 C262.4618,89.7015 262.5258,89.7405 262.5848,89.7995 C262.6188,89.8295 262.9468,90.2745 263.5678,91.1345 C263.6808,90.0785 263.7438,89.5315 263.7548,89.4915 C263.7868,89.3725 263.8588,89.2825 263.9708,89.2225 C264.0818,89.1615 264.1988,89.1465 264.3178,89.1795 C264.4368,89.2115 264.5298,89.2825 264.5968,89.3915 C264.6628,89.4995 264.6808,89.6125 264.6488,89.7315 C264.6378,89.7715 264.4148,90.2765 263.9848,91.2475 C264.9518,90.8155 265.4588,90.5955 265.5038,90.5865 C265.5648,90.5595 265.6388,90.5595 265.7288,90.5825 C265.8878,90.6255 265.9968,90.7345 266.0558,90.9105 C266.0748,91.0005 266.0738,91.0805 266.0548,91.1505 C266.0098,91.3195 265.9048,91.4295 265.7408,91.4815 L264.0958,91.6605 L265.4288,92.6435 C265.5458,92.7605 265.5818,92.9025 265.5368,93.0715 C265.5178,93.1415 265.4788,93.2105 265.4168,93.2795 C265.2788,93.4015 265.1228,93.4395 264.9538,93.3935 C264.8848,93.3755 264.8248,93.3425 264.7728,93.2975 C264.7388,93.2665 264.4108,92.8215 263.7908,91.9615 C263.6758,93.0175 263.6148,93.5645 263.6038,93.6045 C263.5718,93.7245 263.4988,93.8135 263.3878,93.8745 C263.2748,93.9345 263.1588,93.9485 263.0398,93.9165 C262.9208,93.8845 262.8268,93.8135 262.7618,93.7055" id="Fill-150" fill="#000000"></path>
            <path d="M92.8467,185.271 L90.7747,185.973 L91.4757,188.044 L93.5587,187.343 L92.8467,185.271 Z M114.1027,203.512 C113.9057,202.943 113.2907,202.635 112.7097,202.833 L108.5557,204.236 C107.9857,204.433 107.6787,205.058 107.8757,205.628 C108.0737,206.209 108.6877,206.516 109.2677,206.319 L113.4227,204.905 C113.9927,204.708 114.2997,204.093 114.1027,203.512 L114.1027,203.512 Z M112.4037,208.731 C112.2057,208.15 111.5807,207.842 111.0107,208.041 L104.7847,210.156 C104.2027,210.353 103.9077,210.978 104.0937,211.548 C104.2907,212.118 104.9157,212.425 105.4867,212.228 L111.7127,210.112 C112.2937,209.925 112.6007,209.3 112.4037,208.731 L112.4037,208.731 Z M106.8337,205.99 C106.6477,205.409 106.0237,205.102 105.4427,205.299 L103.3697,206.001 C102.7997,206.199 102.4927,206.823 102.6907,207.393 C102.8767,207.974 103.5017,208.281 104.0717,208.083 L106.1547,207.372 C106.7247,207.185 107.0317,206.56 106.8337,205.99 L106.8337,205.99 Z M115.0997,196.234 C114.9027,195.653 114.2887,195.345 113.7077,195.542 L101.2547,199.775 C100.6847,199.972 100.3777,200.596 100.5747,201.167 C100.7617,201.748 101.3857,202.043 101.9557,201.857 L114.4197,197.625 C114.9907,197.428 115.2967,196.803 115.0997,196.234 L115.0997,196.234 Z M115.0997,196.234 C114.9027,195.653 114.2887,195.345 113.7077,195.542 L101.2547,199.775 C100.6847,199.972 100.3777,200.596 100.5747,201.167 C100.7617,201.748 101.3857,202.043 101.9557,201.857 L114.4197,197.625 C114.9907,197.428 115.2967,196.803 115.0997,196.234 L115.0997,196.234 Z M114.1027,203.512 C113.9057,202.943 113.2907,202.635 112.7097,202.833 L108.5557,204.236 C107.9857,204.433 107.6787,205.058 107.8757,205.628 C108.0737,206.209 108.6877,206.516 109.2677,206.319 L113.4227,204.905 C113.9927,204.708 114.2997,204.093 114.1027,203.512 L114.1027,203.512 Z M112.4037,208.731 C112.2057,208.15 111.5807,207.842 111.0107,208.041 L104.7847,210.156 C104.2027,210.353 103.9077,210.978 104.0937,211.548 C104.2907,212.118 104.9157,212.425 105.4867,212.228 L111.7127,210.112 C112.2937,209.925 112.6007,209.3 112.4037,208.731 L112.4037,208.731 Z M106.8337,205.99 C106.6477,205.409 106.0237,205.102 105.4427,205.299 L103.3697,206.001 C102.7997,206.199 102.4927,206.823 102.6907,207.393 C102.8767,207.974 103.5017,208.281 104.0717,208.083 L106.1547,207.372 C106.7247,207.185 107.0317,206.56 106.8337,205.99 L106.8337,205.99 Z M92.8467,185.271 L90.7747,185.973 L91.4757,188.044 L93.5587,187.343 L92.8467,185.271 Z M92.8467,185.271 L90.7747,185.973 L91.4757,188.044 L93.5587,187.343 L92.8467,185.271 Z M106.8337,205.99 C106.6477,205.409 106.0237,205.102 105.4427,205.299 L103.3697,206.001 C102.7997,206.199 102.4927,206.823 102.6907,207.393 C102.8767,207.974 103.5017,208.281 104.0717,208.083 L106.1547,207.372 C106.7247,207.185 107.0317,206.56 106.8337,205.99 L106.8337,205.99 Z M112.4037,208.731 C112.2057,208.15 111.5807,207.842 111.0107,208.041 L104.7847,210.156 C104.2027,210.353 103.9077,210.978 104.0937,211.548 C104.2907,212.118 104.9157,212.425 105.4867,212.228 L111.7127,210.112 C112.2937,209.925 112.6007,209.3 112.4037,208.731 L112.4037,208.731 Z M114.1027,203.512 C113.9057,202.943 113.2907,202.635 112.7097,202.833 L108.5557,204.236 C107.9857,204.433 107.6787,205.058 107.8757,205.628 C108.0737,206.209 108.6877,206.516 109.2677,206.319 L113.4227,204.905 C113.9927,204.708 114.2997,204.093 114.1027,203.512 L114.1027,203.512 Z M115.0997,196.234 C114.9027,195.653 114.2887,195.345 113.7077,195.542 L101.2547,199.775 C100.6847,199.972 100.3777,200.596 100.5747,201.167 C100.7617,201.748 101.3857,202.043 101.9557,201.857 L114.4197,197.625 C114.9907,197.428 115.2967,196.803 115.0997,196.234 L115.0997,196.234 Z M115.0997,196.234 C114.9027,195.653 114.2887,195.345 113.7077,195.542 L101.2547,199.775 C100.6847,199.972 100.3777,200.596 100.5747,201.167 C100.7617,201.748 101.3857,202.043 101.9557,201.857 L114.4197,197.625 C114.9907,197.428 115.2967,196.803 115.0997,196.234 L115.0997,196.234 Z M114.1027,203.512 C113.9057,202.943 113.2907,202.635 112.7097,202.833 L108.5557,204.236 C107.9857,204.433 107.6787,205.058 107.8757,205.628 C108.0737,206.209 108.6877,206.516 109.2677,206.319 L113.4227,204.905 C113.9927,204.708 114.2997,204.093 114.1027,203.512 L114.1027,203.512 Z M112.4037,208.731 C112.2057,208.15 111.5807,207.842 111.0107,208.041 L104.7847,210.156 C104.2027,210.353 103.9077,210.978 104.0937,211.548 C104.2907,212.118 104.9157,212.425 105.4867,212.228 L111.7127,210.112 C112.2937,209.925 112.6007,209.3 112.4037,208.731 L112.4037,208.731 Z M106.8337,205.99 C106.6477,205.409 106.0237,205.102 105.4427,205.299 L103.3697,206.001 C102.7997,206.199 102.4927,206.823 102.6907,207.393 C102.8767,207.974 103.5017,208.281 104.0717,208.083 L106.1547,207.372 C106.7247,207.185 107.0317,206.56 106.8337,205.99 L106.8337,205.99 Z M92.8467,185.271 L90.7747,185.973 L91.4757,188.044 L93.5587,187.343 L92.8467,185.271 Z M93.5587,187.343 L92.8467,185.271 L90.7747,185.973 L91.4757,188.044 L93.5587,187.343 Z M106.1547,207.372 C106.7247,207.185 107.0317,206.56 106.8337,205.99 C106.6477,205.409 106.0237,205.102 105.4427,205.299 L103.3697,206.001 C102.7997,206.199 102.4927,206.823 102.6907,207.393 C102.8767,207.974 103.5017,208.281 104.0717,208.083 L106.1547,207.372 Z M111.0107,208.041 L104.7847,210.156 C104.2027,210.353 103.9077,210.978 104.0937,211.548 C104.2907,212.118 104.9157,212.425 105.4867,212.228 L111.7127,210.112 C112.2937,209.925 112.6007,209.3 112.4037,208.731 C112.2057,208.15 111.5807,207.842 111.0107,208.041 L111.0107,208.041 Z M112.7097,202.833 L108.5557,204.236 C107.9857,204.433 107.6787,205.058 107.8757,205.628 C108.0737,206.209 108.6877,206.516 109.2677,206.319 L113.4227,204.905 C113.9927,204.708 114.2997,204.093 114.1027,203.512 C113.9057,202.943 113.2907,202.635 112.7097,202.833 L112.7097,202.833 Z M113.7077,195.542 L101.2547,199.775 C100.6847,199.972 100.3777,200.596 100.5747,201.167 C100.7617,201.748 101.3857,202.043 101.9557,201.857 L114.4197,197.625 C114.9907,197.428 115.2967,196.803 115.0997,196.234 C114.9027,195.653 114.2887,195.345 113.7077,195.542 L113.7077,195.542 Z M122.4667,211.087 L103.9947,217.369 C103.5457,216.843 102.7677,215.999 101.9997,215.451 C101.9667,215.451 100.5087,213.949 96.1787,215.363 C96.1677,215.341 95.8177,214.299 95.7947,214.299 C96.0587,213.982 96.3757,213.51 96.5957,213.083 C96.8037,212.831 97.4397,211.603 97.1987,209.893 C97.0997,209.3 96.6067,206.505 96.2337,205.398 C95.1157,202.11 92.6707,199.215 87.8037,200.871 C87.7817,200.881 87.6947,200.904 87.6717,200.915 C82.8157,202.57 82.6287,206.352 83.7477,209.64 C84.1197,210.748 85.4467,213.258 85.7207,213.795 C86.5757,215.297 87.8257,215.889 88.1437,215.955 C88.5717,216.164 89.1187,216.338 89.5247,216.437 C89.5247,216.492 89.8647,217.49 89.8647,217.511 C85.5677,219.024 85.3257,221.107 85.3037,221.129 C85.0307,222.028 84.9207,223.168 84.8877,223.87 L83.0237,224.495 C81.8837,224.889 80.6337,224.275 80.2507,223.125 L72.8397,201.332 C72.4457,200.191 73.0597,198.941 74.2097,198.546 L89.7777,193.263 C90.5557,195.554 93.0437,196.782 95.3347,196.003 C97.6367,195.225 98.8537,192.726 98.0757,190.434 L113.6537,185.139 C114.7927,184.756 116.0427,185.37 116.4267,186.51 L123.8367,208.314 C124.2317,209.455 123.6177,210.704 122.4667,211.087 L122.4667,211.087 Z M87.1787,223.091 C87.2007,222.478 87.3427,222.138 87.4197,221.82 C87.4197,221.809 87.5077,221.535 87.9127,221.129 C88.3297,220.723 89.0757,220.186 90.4017,219.671 C91.2897,219.364 92.4847,218.203 92.0017,216.788 C91.9367,216.613 91.8047,216.229 91.6737,215.889 C91.5527,215.549 91.4437,215.253 91.4437,215.253 C91.4437,215.22 91.1917,214.442 91.1917,214.442 C91.1917,214.442 89.7657,214.234 88.5927,213.73 C87.9237,213.477 87.3427,212.579 87.3427,212.579 C86.9157,211.767 86.0817,209.673 85.7857,208.819 C85.0637,206.681 85.3597,204.006 88.4397,202.964 C91.5307,201.912 93.3837,203.852 94.1077,205.99 C94.4037,206.845 95.0167,209.004 95.1697,209.915 C95.1697,209.915 95.2577,210.978 94.8857,211.592 C94.2607,212.699 93.2627,213.741 93.2627,213.741 L93.5477,214.541 C93.5477,214.541 93.9207,215.736 94.0407,216.097 C94.4037,217.15 95.4007,217.523 96.2667,217.523 C96.5627,217.523 96.8367,217.479 97.0667,217.402 C99.7967,216.602 100.7397,217.282 100.7497,217.292 C101.0017,217.5 101.3207,217.676 101.7147,218.147 L87.1787,223.091 Z M91.1037,183.54 C92.2547,183.156 93.4927,183.769 93.8877,184.91 L96.0037,191.147 C96.3987,192.287 95.7847,193.537 94.6327,193.92 C93.4827,194.315 92.2427,193.702 91.8487,192.55 L89.7337,186.324 C89.3497,185.183 89.9627,183.934 91.1037,183.54 L91.1037,183.54 Z M125.9097,207.602 L118.5097,185.808 C117.7317,183.517 115.2317,182.29 112.9407,183.068 L97.3737,188.363 L95.9597,184.208 C95.1817,181.917 92.6927,180.689 90.4017,181.467 C88.1107,182.246 86.8827,184.734 87.6607,187.036 L89.0757,191.18 L73.4977,196.475 C71.2057,197.253 69.9787,199.742 70.7567,202.033 L78.1677,223.836 C78.9467,226.128 81.4347,227.356 83.7367,226.578 L123.1677,213.17 C125.4707,212.392 126.6987,209.904 125.9097,207.602 L125.9097,207.602 Z M92.8467,185.271 L90.7747,185.973 L91.4757,188.044 L93.5587,187.343 L92.8467,185.271 Z M106.1547,207.372 C106.7247,207.185 107.0317,206.56 106.8337,205.99 C106.6477,205.409 106.0237,205.102 105.4427,205.299 L103.3697,206.001 C102.7997,206.199 102.4927,206.823 102.6907,207.393 C102.8767,207.974 103.5017,208.281 104.0717,208.083 L106.1547,207.372 Z M111.0107,208.041 L104.7847,210.156 C104.2027,210.353 103.9077,210.978 104.0937,211.548 C104.2907,212.118 104.9157,212.425 105.4867,212.228 L111.7127,210.112 C112.2937,209.925 112.6007,209.3 112.4037,208.731 C112.2057,208.15 111.5807,207.842 111.0107,208.041 L111.0107,208.041 Z M112.7097,202.833 L108.5557,204.236 C107.9857,204.433 107.6787,205.058 107.8757,205.628 C108.0737,206.209 108.6877,206.516 109.2677,206.319 L113.4227,204.905 C113.9927,204.708 114.2997,204.093 114.1027,203.512 C113.9057,202.943 113.2907,202.635 112.7097,202.833 L112.7097,202.833 Z M115.0997,196.234 C114.9027,195.653 114.2887,195.345 113.7077,195.542 L101.2547,199.775 C100.6847,199.972 100.3777,200.596 100.5747,201.167 C100.7617,201.748 101.3857,202.043 101.9557,201.857 L114.4197,197.625 C114.9907,197.428 115.2967,196.803 115.0997,196.234 L115.0997,196.234 Z M115.0997,196.234 C114.9027,195.653 114.2887,195.345 113.7077,195.542 L101.2547,199.775 C100.6847,199.972 100.3777,200.596 100.5747,201.167 C100.7617,201.748 101.3857,202.043 101.9557,201.857 L114.4197,197.625 C114.9907,197.428 115.2967,196.803 115.0997,196.234 L115.0997,196.234 Z M114.1027,203.512 C113.9057,202.943 113.2907,202.635 112.7097,202.833 L108.5557,204.236 C107.9857,204.433 107.6787,205.058 107.8757,205.628 C108.0737,206.209 108.6877,206.516 109.2677,206.319 L113.4227,204.905 C113.9927,204.708 114.2997,204.093 114.1027,203.512 L114.1027,203.512 Z M112.4037,208.731 C112.2057,208.15 111.5807,207.842 111.0107,208.041 L104.7847,210.156 C104.2027,210.353 103.9077,210.978 104.0937,211.548 C104.2907,212.118 104.9157,212.425 105.4867,212.228 L111.7127,210.112 C112.2937,209.925 112.6007,209.3 112.4037,208.731 L112.4037,208.731 Z M106.8337,205.99 C106.6477,205.409 106.0237,205.102 105.4427,205.299 L103.3697,206.001 C102.7997,206.199 102.4927,206.823 102.6907,207.393 C102.8767,207.974 103.5017,208.281 104.0717,208.083 L106.1547,207.372 C106.7247,207.185 107.0317,206.56 106.8337,205.99 L106.8337,205.99 Z M92.8467,185.271 L90.7747,185.973 L91.4757,188.044 L93.5587,187.343 L92.8467,185.271 Z M92.8467,185.271 L90.7747,185.973 L91.4757,188.044 L93.5587,187.343 L92.8467,185.271 Z M106.8337,205.99 C106.6477,205.409 106.0237,205.102 105.4427,205.299 L103.3697,206.001 C102.7997,206.199 102.4927,206.823 102.6907,207.393 C102.8767,207.974 103.5017,208.281 104.0717,208.083 L106.1547,207.372 C106.7247,207.185 107.0317,206.56 106.8337,205.99 L106.8337,205.99 Z M112.4037,208.731 C112.2057,208.15 111.5807,207.842 111.0107,208.041 L104.7847,210.156 C104.2027,210.353 103.9077,210.978 104.0937,211.548 C104.2907,212.118 104.9157,212.425 105.4867,212.228 L111.7127,210.112 C112.2937,209.925 112.6007,209.3 112.4037,208.731 L112.4037,208.731 Z M114.1027,203.512 C113.9057,202.943 113.2907,202.635 112.7097,202.833 L108.5557,204.236 C107.9857,204.433 107.6787,205.058 107.8757,205.628 C108.0737,206.209 108.6877,206.516 109.2677,206.319 L113.4227,204.905 C113.9927,204.708 114.2997,204.093 114.1027,203.512 L114.1027,203.512 Z M115.0997,196.234 C114.9027,195.653 114.2887,195.345 113.7077,195.542 L101.2547,199.775 C100.6847,199.972 100.3777,200.596 100.5747,201.167 C100.7617,201.748 101.3857,202.043 101.9557,201.857 L114.4197,197.625 C114.9907,197.428 115.2967,196.803 115.0997,196.234 L115.0997,196.234 Z M115.0997,196.234 C114.9027,195.653 114.2887,195.345 113.7077,195.542 L101.2547,199.775 C100.6847,199.972 100.3777,200.596 100.5747,201.167 C100.7617,201.748 101.3857,202.043 101.9557,201.857 L114.4197,197.625 C114.9907,197.428 115.2967,196.803 115.0997,196.234 L115.0997,196.234 Z M114.1027,203.512 C113.9057,202.943 113.2907,202.635 112.7097,202.833 L108.5557,204.236 C107.9857,204.433 107.6787,205.058 107.8757,205.628 C108.0737,206.209 108.6877,206.516 109.2677,206.319 L113.4227,204.905 C113.9927,204.708 114.2997,204.093 114.1027,203.512 L114.1027,203.512 Z M112.4037,208.731 C112.2057,208.15 111.5807,207.842 111.0107,208.041 L104.7847,210.156 C104.2027,210.353 103.9077,210.978 104.0937,211.548 C104.2907,212.118 104.9157,212.425 105.4867,212.228 L111.7127,210.112 C112.2937,209.925 112.6007,209.3 112.4037,208.731 L112.4037,208.731 Z M106.8337,205.99 C106.6477,205.409 106.0237,205.102 105.4427,205.299 L103.3697,206.001 C102.7997,206.199 102.4927,206.823 102.6907,207.393 C102.8767,207.974 103.5017,208.281 104.0717,208.083 L106.1547,207.372 C106.7247,207.185 107.0317,206.56 106.8337,205.99 L106.8337,205.99 Z M92.8467,185.271 L90.7747,185.973 L91.4757,188.044 L93.5587,187.343 L92.8467,185.271 Z" id="Fill-152" fill="#000000"></path>
            <path d="M91.4756,188.0444 L90.7746,185.9734 L92.8466,185.2714 L93.5586,187.3434 L91.4756,188.0444 Z M96.0036,191.1474 L93.8876,184.9094 C93.4936,183.7694 92.2546,183.1554 91.1036,183.5394 C89.9626,183.9344 89.3496,185.1834 89.7336,186.3234 L91.8486,192.5504 C92.2436,193.7014 93.4826,194.3154 94.6326,193.9204 C95.7846,193.5364 96.3986,192.2864 96.0036,191.1474 L96.0036,191.1474 Z" id="Fill-154" fill="#FFFFFF"></path>
            <path d="M91.9981,216.7895 C91.9321,216.6145 91.8011,216.2305 91.6691,215.8915 C91.5481,215.5515 91.4381,215.2555 91.4381,215.2555 C91.4381,215.2225 91.1861,214.4435 91.1861,214.4435 C91.1861,214.4435 89.7621,214.2355 88.5881,213.7305 C87.9201,213.4785 87.3391,212.5805 87.3391,212.5805 C86.9111,211.7685 86.0781,209.6755 85.7821,208.8195 C85.0591,206.6825 85.3541,204.0075 88.4351,202.9665 C91.5261,201.9135 93.3791,203.8535 94.1021,205.9915 C94.3981,206.8475 95.0131,209.0065 95.1661,209.9165 C95.1661,209.9165 95.2541,210.9795 94.8811,211.5935 C94.2561,212.7005 93.2591,213.7425 93.2591,213.7425 L93.5431,214.5425 C93.5431,214.5425 93.9161,215.7375 94.0371,216.0995 C94.3981,217.1515 95.3961,217.5235 96.2621,217.5235 C96.5581,217.5235 96.8321,217.4805 97.0621,217.4035 C99.7921,216.6035 100.7341,217.2835 100.7461,217.2945 C100.9981,217.5025 101.3151,217.6785 101.7111,218.1485 L87.1741,223.0935 C87.1961,222.4785 87.3391,222.1395 87.4151,221.8215 C87.4151,221.8105 87.5031,221.5365 87.9091,221.1315 C88.3251,220.7255 89.0701,220.1875 90.3971,219.6735 C91.2851,219.3655 92.4801,218.2035 91.9981,216.7895" id="Fill-156" fill="#FFFFFF"></path>
            <path d="M114.4161,197.6274 L101.9511,201.8584 C101.3821,202.0454 100.7571,201.7494 100.5701,201.1684 C100.3731,200.5984 100.6801,199.9744 101.2501,199.7754 L113.7031,195.5444 C114.2841,195.3474 114.8981,195.6544 115.0961,196.2354 C115.2931,196.8054 114.9861,197.4304 114.4161,197.6274 M113.4181,204.9064 L109.2641,206.3204 C108.6831,206.5184 108.0681,206.2114 107.8711,205.6304 C107.6741,205.0604 107.9801,204.4354 108.5511,204.2374 L112.7061,202.8344 C113.2871,202.6374 113.9001,202.9444 114.0981,203.5144 C114.2951,204.0954 113.9881,204.7094 113.4181,204.9064 M111.7081,210.1134 L105.4811,212.2304 C104.9111,212.4274 104.2861,212.1194 104.0891,211.5504 C103.9031,210.9804 104.1991,210.3554 104.7801,210.1574 L111.0071,208.0414 C111.5761,207.8444 112.2011,208.1514 112.3981,208.7324 C112.5961,209.3024 112.2891,209.9274 111.7081,210.1134 M102.6871,207.3954 C102.4881,206.8244 102.7961,206.2004 103.3661,206.0034 L105.4371,205.3014 C106.0191,205.1044 106.6441,205.4104 106.8301,205.9914 C107.0271,206.5624 106.7211,207.1874 106.1501,207.3734 L104.0671,208.0854 C103.4971,208.2824 102.8721,207.9764 102.6871,207.3954 M123.8331,208.3154 L116.4221,186.5124 C116.0381,185.3714 114.7891,184.7584 113.6481,185.1414 L98.0711,190.4364 C98.8501,192.7274 97.6331,195.2274 95.3301,196.0054 C93.0391,196.7834 90.5511,195.5564 89.7721,193.2644 L74.2061,198.5484 C73.0551,198.9424 72.4401,200.1924 72.8361,201.3324 L80.2461,223.1264 C80.6301,224.2764 81.8801,224.8914 83.0201,224.4964 L84.8831,223.8714 C84.9161,223.1704 85.0251,222.0294 85.3001,221.1314 C85.3211,221.1084 85.5621,219.0254 89.8601,217.5134 C89.8601,217.4914 89.5201,216.4934 89.5201,216.4394 C89.1141,216.3404 88.5661,216.1654 88.1391,215.9564 C87.8211,215.8914 86.5711,215.2994 85.7171,213.7974 C85.4421,213.2604 84.1161,210.7494 83.7431,209.6424 C82.6251,206.3544 82.8121,202.5714 87.6681,200.9164 C87.6891,200.9054 87.7771,200.8834 87.7991,200.8724 C92.6661,199.2174 95.1111,202.1104 96.2291,205.3994 C96.6021,206.5074 97.0951,209.3024 97.1941,209.8954 C97.4361,211.6054 96.7991,212.8324 96.5911,213.0844 C96.3721,213.5124 96.0541,213.9834 95.7911,214.3014 C95.8121,214.3014 96.1631,215.3434 96.1751,215.3644 C100.5051,213.9504 101.9631,215.4524 101.9951,215.4524 C102.7631,216.0004 103.5411,216.8444 103.9901,217.3704 L122.4621,211.0894 C123.6131,210.7054 124.2281,209.4564 123.8331,208.3154" id="Fill-158" fill="#FFFFFF"></path>
            <path d="M137.3653,266.6704 L129.4613,297.5624 C129.1873,298.6254 128.1013,299.2734 127.0383,298.9984 L82.2463,287.5214 C81.1823,287.2464 80.5363,286.1614 80.8093,285.0984 L88.7243,254.2064 C88.9993,253.1434 90.0733,252.5074 91.1363,252.7704 L135.9393,264.2474 C137.0033,264.5224 137.6383,265.6074 137.3653,266.6704 M136.3793,262.5044 L91.5863,251.0374 C89.5693,250.5234 87.4973,251.7394 86.9813,253.7564 L79.0673,284.6594 C78.5523,286.6764 79.7793,288.7374 81.7973,289.2644 L126.5893,300.7314 C128.6173,301.2454 130.6783,300.0284 131.1933,298.0124 L139.1083,267.1084 C139.6233,265.0914 138.4063,263.0304 136.3793,262.5044" id="Fill-160" fill="#000000"></path>
            <path d="M131.4786,278.8384 L115.8346,274.8374 L118.5096,264.4114 L134.1416,268.4134 L131.4786,278.8384 Z M127.4656,294.4824 L117.9176,292.0254 L119.6936,285.0754 L129.2526,287.5314 L127.4656,294.4824 Z M106.6156,289.1434 L108.4026,282.1924 L117.9616,284.6384 L116.1746,291.5874 L106.6156,289.1434 Z M95.3246,286.2494 L97.1116,279.2994 L106.6596,281.7434 L104.8836,288.6934 L95.3246,286.2494 Z M84.0336,283.3554 L85.8086,276.4044 L95.3686,278.8494 L93.5916,285.7994 L84.0336,283.3554 Z M89.1526,263.3704 C89.2726,262.8884 89.7666,262.6034 90.2376,262.7244 L91.1146,262.9534 C91.5856,263.0744 91.8816,263.5574 91.7616,264.0394 C91.6296,264.5224 91.1476,264.8074 90.6656,264.6864 L89.7986,264.4674 C89.3166,264.3464 89.0326,263.8534 89.1526,263.3704 L89.1526,263.3704 Z M96.9686,265.3764 C96.8476,265.8594 96.3546,266.1444 95.8826,266.0244 L94.1406,265.5734 C93.6586,265.4534 93.3736,264.9604 93.4936,264.4884 C93.6146,264.0064 94.1076,263.7104 94.5896,263.8424 L96.3226,264.2804 C96.8036,264.4114 97.0886,264.8944 96.9686,265.3764 L96.9686,265.3764 Z M90.2596,259.0294 C90.3906,258.5474 90.8736,258.2624 91.3556,258.3824 L99.1716,260.3894 C99.6546,260.5094 99.9396,260.9914 99.8186,261.4744 C99.6986,261.9564 99.2056,262.2414 98.7336,262.1204 L90.9066,260.1254 C90.4236,259.9944 90.1386,259.5124 90.2596,259.0294 L90.2596,259.0294 Z M101.3096,266.4844 C101.1896,266.9664 100.7076,267.2624 100.2246,267.1304 L99.3586,266.9114 C98.8756,266.7904 98.5806,266.2974 98.7116,265.8154 C98.8326,265.3444 99.3146,265.0474 99.7966,265.1684 L100.6636,265.3994 C101.1456,265.5194 101.4416,266.0124 101.3096,266.4844 L101.3096,266.4844 Z M106.5276,267.8214 C106.4076,268.3034 105.9146,268.5884 105.4316,268.4684 L103.6996,268.0194 C103.2166,267.8984 102.9326,267.4154 103.0526,266.9334 C103.1726,266.4504 103.6666,266.1664 104.1376,266.2864 L105.8806,266.7354 C106.3636,266.8574 106.6486,267.3394 106.5276,267.8214 L106.5276,267.8214 Z M110.0026,268.7094 C109.9366,268.9404 109.7836,269.1374 109.5856,269.2684 C109.3886,269.3784 109.1476,269.4224 108.9066,269.3564 C108.6876,269.3014 108.4796,269.1484 108.3586,268.9504 C108.2376,268.7424 108.2056,268.4894 108.2596,268.2714 C108.3256,268.0404 108.4676,267.8434 108.6766,267.7114 C109.0716,267.4824 109.6636,267.6244 109.9046,268.0294 C110.0246,268.2374 110.0576,268.4894 110.0026,268.7094 L110.0026,268.7094 Z M101.5616,261.9234 C101.6826,261.4414 102.1656,261.1554 102.6476,261.2764 L110.4626,263.2824 C110.9456,263.4034 111.2306,263.8864 111.1106,264.3684 C110.9896,264.8504 110.5066,265.1354 110.0246,265.0154 L102.2076,263.0094 C101.7266,262.8884 101.4296,262.4054 101.5616,261.9234 L101.5616,261.9234 Z M135.9396,264.2474 L91.1366,252.7704 C90.0736,252.5074 88.9996,253.1434 88.7246,254.2064 L80.8096,285.0984 C80.5366,286.1614 81.1826,287.2464 82.2466,287.5214 L127.0386,298.9984 C128.1016,299.2734 129.1876,298.6254 129.4606,297.5624 L137.3656,266.6704 C137.6386,265.6074 137.0026,264.5224 135.9396,264.2474 L135.9396,264.2474 Z" id="Fill-162" fill="#FFFFFF"></path>
            <path d="M99.8184,261.4741 C99.6984,261.9561 99.2054,262.2421 98.7334,262.1201 L90.9064,260.1251 C90.4234,259.9951 90.1384,259.5121 90.2594,259.0301 C90.3904,258.5471 90.8734,258.2621 91.3554,258.3821 L99.1724,260.3891 C99.6544,260.5091 99.9394,260.9921 99.8184,261.4741" id="Fill-164" fill="#000000"></path>
            <path d="M111.1104,264.3686 C110.9894,264.8496 110.5064,265.1356 110.0244,265.0146 L102.2084,263.0096 C101.7264,262.8886 101.4294,262.4056 101.5614,261.9236 C101.6824,261.4406 102.1654,261.1556 102.6474,261.2766 L110.4634,263.2826 C110.9454,263.4036 111.2304,263.8866 111.1104,264.3686" id="Fill-166" fill="#000000"></path>
            <path d="M91.7618,264.0395 C91.6298,264.5215 91.1478,264.8075 90.6648,264.6855 L89.7988,264.4675 C89.3168,264.3465 89.0328,263.8525 89.1528,263.3705 C89.2728,262.8885 89.7668,262.6025 90.2378,262.7245 L91.1148,262.9535 C91.5858,263.0745 91.8818,263.5575 91.7618,264.0395" id="Fill-168" fill="#000000"></path>
            <path d="M96.9688,265.3765 C96.8478,265.8585 96.3548,266.1445 95.8828,266.0235 L94.1408,265.5735 C93.6578,265.4535 93.3728,264.9605 93.4928,264.4885 C93.6148,264.0065 94.1078,263.7105 94.5898,263.8425 L96.3228,264.2805 C96.8038,264.4115 97.0888,264.8945 96.9688,265.3765" id="Fill-170" fill="#000000"></path>
            <path d="M101.3096,266.4839 C101.1896,266.9659 100.7066,267.2619 100.2246,267.1299 L99.3586,266.9119 C98.8756,266.7909 98.5806,266.2969 98.7116,265.8149 C98.8316,265.3439 99.3146,265.0469 99.7966,265.1689 L100.6636,265.3989 C101.1456,265.5189 101.4416,266.0119 101.3096,266.4839" id="Fill-172" fill="#000000"></path>
            <path d="M106.5274,267.8218 C106.4074,268.3028 105.9144,268.5888 105.4314,268.4678 L103.6994,268.0188 C103.2164,267.8978 102.9324,267.4158 103.0524,266.9328 C103.1734,266.4508 103.6674,266.1668 104.1374,266.2868 L105.8814,266.7358 C106.3634,266.8568 106.6484,267.3398 106.5274,267.8218" id="Fill-174" fill="#000000"></path>
            <path d="M110.003,268.7095 C109.937,268.9395 109.783,269.1375 109.586,269.2685 C109.389,269.3785 109.148,269.4225 108.906,269.3555 C108.688,269.3015 108.48,269.1475 108.358,268.9505 C108.237,268.7425 108.205,268.4895 108.26,268.2715 C108.325,268.0405 108.468,267.8435 108.677,267.7115 C109.071,267.4815 109.663,267.6245 109.904,268.0295 C110.024,268.2375 110.058,268.4895 110.003,268.7095" id="Fill-176" fill="#000000"></path>
            <path d="M130.1846,276.6567 L118.0166,273.5437 L119.8026,266.5937 L131.9606,269.7067 L130.1846,276.6567 Z M118.5096,264.4117 L115.8346,274.8377 L131.4786,278.8387 L134.1416,268.4137 L118.5096,264.4117 Z" id="Fill-178" fill="#000000"></path>
            <polygon id="Fill-180" fill="#FFFFFF" points="131.961 269.7065 130.185 276.6565 118.017 273.5435 119.803 266.5935"></polygon>
            <path d="M92.2989,283.6176 L86.2149,282.0606 L87.1029,278.5866 L93.1869,280.1426 L92.2989,283.6176 Z M85.8089,276.4046 L84.0329,283.3546 L93.5919,285.7996 L95.3679,278.8486 L85.8089,276.4046 Z" id="Fill-182" fill="#000000"></path>
            <polygon id="Fill-184" fill="#FFFFFF" points="93.1866 280.1431 92.2986 283.6181 86.2146 282.0611 87.1026 278.5861"></polygon>
            <path d="M103.5899,286.5122 L97.5059,284.9552 L98.4039,281.4812 L104.4779,283.0372 L103.5899,286.5122 Z M97.1109,279.2992 L95.3239,286.2492 L104.8839,288.6942 L106.6589,281.7432 L97.1109,279.2992 Z" id="Fill-186" fill="#000000"></path>
            <polygon id="Fill-188" fill="#FFFFFF" points="104.4776 283.0376 103.5896 286.5126 97.5056 284.9556 98.4046 281.4806"></polygon>
            <path d="M114.8809,289.4067 L108.8079,287.8497 L109.6959,284.3747 L115.7699,285.9307 L114.8809,289.4067 Z M108.4019,282.1927 L106.6149,289.1427 L116.1749,291.5877 L117.9619,284.6377 L108.4019,282.1927 Z" id="Fill-190" fill="#000000"></path>
            <polygon id="Fill-192" fill="#FFFFFF" points="115.7696 285.9311 114.8806 289.4071 108.8076 287.8501 109.6966 284.3741"></polygon>
            <path d="M126.1729,292.3003 L120.0999,290.7333 L120.9869,287.2573 L127.0709,288.8253 L126.1729,292.3003 Z M119.6939,285.0753 L117.9179,292.0263 L127.4659,294.4823 L129.2529,287.5313 L119.6939,285.0753 Z" id="Fill-194" fill="#000000"></path>
            <polygon id="Fill-196" fill="#FFFFFF" points="127.0713 288.8257 126.1733 292.3007 120.0993 290.7327 120.9873 287.2577"></polygon>
            <path d="M355.1729,177.7202 L372.0949,204.7462 C372.6759,205.6782 372.3959,206.9092 371.4639,207.4912 L332.2649,232.0162 C331.3319,232.5972 330.1009,232.3172 329.5199,231.3852 L312.6049,204.3512 C312.0239,203.4192 312.3039,202.2022 313.2279,201.6142 L352.4349,177.0812 C353.3669,176.5002 354.5909,176.7882 355.1729,177.7202 M351.4759,175.5622 L312.2829,200.0942 C310.5199,201.1992 309.9719,203.5392 311.0769,205.3032 L327.9999,232.3452 C329.1059,234.1092 331.4439,234.6412 333.2169,233.5432 L372.4079,209.0112 C374.1799,207.8982 374.7199,205.5662 373.6139,203.8022 L356.6929,176.7602 C355.5859,174.9952 353.2549,174.4552 351.4759,175.5622" id="Fill-198" fill="#000000"></path>
            <path d="M359.9258,190.3745 L346.2398,198.9435 L340.5348,189.8175 L354.2118,181.2565 L359.9258,190.3745 Z M368.4888,204.0665 L360.1248,209.2885 L356.3168,203.2105 L364.6868,197.9795 L368.4888,204.0665 Z M350.2428,215.4855 L346.4428,209.3985 L354.8048,204.1615 L358.6058,210.2485 L350.2428,215.4855 Z M340.3618,221.6675 L336.5608,215.5805 L344.9148,210.3525 L348.7238,216.4305 L340.3618,221.6675 Z M330.4798,227.8495 L326.6708,221.7705 L335.0328,216.5335 L338.8418,222.6115 L330.4798,227.8495 Z M319.5368,210.3605 C319.2708,209.9405 319.4048,209.3875 319.8168,209.1295 L320.5878,208.6525 C320.9998,208.3945 321.5538,208.5125 321.8208,208.9325 C322.0788,209.3605 321.9518,209.9065 321.5318,210.1725 L320.7768,210.6475 C320.3568,210.9145 319.8028,210.7805 319.5368,210.3605 L319.5368,210.3605 Z M326.3788,206.0835 C326.6458,206.5035 326.5118,207.0575 326.0998,207.3155 L324.5718,208.2685 C324.1528,208.5345 323.5988,208.4005 323.3398,207.9875 C323.0738,207.5675 323.1988,207.0065 323.6268,206.7485 L325.1398,205.7965 C325.5678,205.5375 326.1128,205.6635 326.3788,206.0835 L326.3788,206.0835 Z M317.1558,206.5655 C316.8978,206.1375 317.0238,205.5925 317.4438,205.3255 L324.2858,201.0485 C324.7058,200.7815 325.2518,200.9085 325.5188,201.3285 C325.7838,201.7485 325.6508,202.3025 325.2378,202.5605 L318.3968,206.8535 C317.9678,207.1115 317.4228,206.9855 317.1558,206.5655 L317.1558,206.5655 Z M330.1748,203.7035 C330.4408,204.1235 330.3218,204.6765 329.8948,204.9355 L329.1388,205.4115 C328.7188,205.6775 328.1568,205.5515 327.8988,205.1235 C327.6408,204.7115 327.7588,204.1575 328.1788,203.8925 L328.9428,203.4235 C329.3628,203.1565 329.9238,203.2825 330.1748,203.7035 L330.1748,203.7035 Z M334.7408,200.8465 C335.0078,201.2665 334.8738,201.8195 334.4538,202.0865 L332.9348,203.0305 C332.5148,203.2975 331.9688,203.1705 331.7018,202.7505 C331.4358,202.3305 331.5698,201.7765 331.9828,201.5195 L333.5098,200.5665 C333.9298,200.3005 334.4758,200.4265 334.7408,200.8465 L334.7408,200.8465 Z M337.7808,198.9415 C337.9028,199.1485 337.9398,199.3955 337.8988,199.6295 C337.8418,199.8485 337.7068,200.0525 337.4928,200.1825 C337.3028,200.3035 337.0478,200.3485 336.8218,200.2995 C336.5878,200.2425 336.3828,200.0935 336.2618,199.9015 C336.1398,199.6955 336.0958,199.4565 336.1438,199.2145 C336.2488,198.7705 336.7608,198.4395 337.2208,198.5445 C337.4548,198.6015 337.6598,198.7515 337.7808,198.9415 L337.7808,198.9415 Z M327.0458,200.3755 C326.7798,199.9565 326.9058,199.4105 327.3258,199.1445 L334.1688,194.8665 C334.5888,194.6005 335.1348,194.7275 335.4008,195.1465 C335.6668,195.5665 335.5398,196.1125 335.1198,196.3785 L328.2778,200.6555 C327.8578,200.9225 327.3048,200.8045 327.0458,200.3755 L327.0458,200.3755 Z M352.4348,177.0815 L313.2278,201.6135 C312.3038,202.2025 312.0238,203.4195 312.6048,204.3515 L329.5198,231.3855 C330.1008,232.3165 331.3318,232.5975 332.2648,232.0165 L371.4638,207.4905 C372.3958,206.9095 372.6758,205.6785 372.0948,204.7465 L355.1728,177.7205 C354.5908,176.7885 353.3668,176.5005 352.4348,177.0815 L352.4348,177.0815 Z" id="Fill-200" fill="#FFFFFF"></path>
            <path d="M325.5186,201.3286 C325.7846,201.7486 325.6506,202.3026 325.2386,202.5596 L318.3966,206.8526 C317.9676,207.1116 317.4226,206.9856 317.1566,206.5656 C316.8976,206.1376 317.0236,205.5926 317.4436,205.3256 L324.2866,201.0486 C324.7066,200.7816 325.2516,200.9086 325.5186,201.3286" id="Fill-202" fill="#000000"></path>
            <path d="M335.4005,195.147 C335.6675,195.567 335.5405,196.113 335.1205,196.378 L328.2775,200.656 C327.8575,200.922 327.3045,200.804 327.0465,200.376 C326.7795,199.957 326.9065,199.411 327.3265,199.144 L334.1695,194.867 C334.5885,194.6 335.1345,194.727 335.4005,195.147" id="Fill-204" fill="#000000"></path>
            <path d="M321.8204,208.9321 C322.0794,209.3611 321.9524,209.9071 321.5324,210.1721 L320.7764,210.6481 C320.3564,210.9141 319.8024,210.7811 319.5374,210.3611 C319.2704,209.9411 319.4044,209.3871 319.8164,209.1291 L320.5884,208.6531 C321.0004,208.3941 321.5534,208.5121 321.8204,208.9321" id="Fill-206" fill="#000000"></path>
            <path d="M326.379,206.0835 C326.646,206.5035 326.512,207.0575 326.1,207.3155 L324.572,208.2685 C324.152,208.5345 323.599,208.4005 323.34,207.9875 C323.074,207.5675 323.199,207.0065 323.627,206.7485 L325.14,205.7965 C325.567,205.5375 326.113,205.6635 326.379,206.0835" id="Fill-208" fill="#000000"></path>
            <path d="M330.1749,203.7036 C330.4409,204.1236 330.3219,204.6766 329.8949,204.9346 L329.1389,205.4116 C328.7189,205.6776 328.1569,205.5516 327.8989,205.1236 C327.6409,204.7116 327.7589,204.1576 328.1789,203.8916 L328.9429,203.4236 C329.3629,203.1566 329.9239,203.2826 330.1749,203.7036" id="Fill-210" fill="#000000"></path>
            <path d="M334.7413,200.8462 C335.0083,201.2662 334.8743,201.8202 334.4543,202.0862 L332.9343,203.0312 C332.5143,203.2972 331.9693,203.1702 331.7023,202.7502 C331.4353,202.3302 331.5693,201.7772 331.9823,201.5192 L333.5103,200.5672 C333.9293,200.3002 334.4753,200.4262 334.7413,200.8462" id="Fill-212" fill="#000000"></path>
            <path d="M337.7813,198.9419 C337.9023,199.1489 337.9393,199.3959 337.8983,199.6289 C337.8423,199.8479 337.7073,200.0519 337.4933,200.1819 C337.3023,200.3029 337.0483,200.3479 336.8213,200.2989 C336.5883,200.2429 336.3833,200.0929 336.2613,199.9019 C336.1393,199.6959 336.0953,199.4569 336.1433,199.2139 C336.2493,198.7699 336.7603,198.4399 337.2203,198.5449 C337.4553,198.6009 337.6603,198.7519 337.7813,198.9419" id="Fill-214" fill="#000000"></path>
            <path d="M357.4532,189.8071 L346.8072,196.4721 L343.0072,190.3851 L353.6442,183.7281 L357.4532,189.8071 Z M340.5352,189.8181 L346.2402,198.9441 L359.9262,190.3741 L354.2122,181.2561 L340.5352,189.8181 Z" id="Fill-216" fill="#000000"></path>
            <polygon id="Fill-218" fill="#FFFFFF" points="353.6446 183.728 357.4536 189.807 346.8076 196.472 343.0066 190.385"></polygon>
            <path d="M336.3702,222.0444 L331.0472,225.3774 L329.1422,222.3384 L334.4662,219.0054 L336.3702,222.0444 Z M326.6712,221.7714 L330.4792,227.8494 L338.8422,222.6114 L335.0332,216.5334 L326.6712,221.7714 Z" id="Fill-220" fill="#000000"></path>
            <polygon id="Fill-222" fill="#FFFFFF" points="334.4659 219.0054 336.3699 222.0444 331.0469 225.3774 329.1429 222.3384"></polygon>
            <path d="M346.252,215.8628 L340.929,219.1958 L339.032,216.1478 L344.348,212.8238 L346.252,215.8628 Z M336.561,215.5808 L340.361,221.6678 L348.724,216.4298 L344.915,210.3518 L336.561,215.5808 Z" id="Fill-224" fill="#000000"></path>
            <polygon id="Fill-226" fill="#FFFFFF" points="344.3477 212.8237 346.2517 215.8627 340.9287 219.1957 339.0327 216.1477"></polygon>
            <path d="M356.1339,209.6811 L350.8189,213.0061 L348.9139,209.9661 L354.2299,206.6421 L356.1339,209.6811 Z M346.4429,209.3991 L350.2429,215.4861 L358.6059,210.2481 L354.8049,204.1611 L346.4429,209.3991 Z" id="Fill-228" fill="#000000"></path>
            <polygon id="Fill-230" fill="#FFFFFF" points="354.2296 206.6421 356.1336 209.6811 350.8186 213.0061 348.9146 209.9661"></polygon>
            <path d="M366.0157,203.4995 L360.6927,206.8165 L358.7877,203.7775 L364.1197,200.4515 L366.0157,203.4995 Z M356.3167,203.2105 L360.1247,209.2885 L368.4887,204.0665 L364.6867,197.9795 L356.3167,203.2105 Z" id="Fill-232" fill="#000000"></path>
            <polygon id="Fill-234" fill="#FFFFFF" points="364.1192 200.4516 366.0152 203.4996 360.6922 206.8166 358.7882 203.7776"></polygon>
            <polygon id="Fill-236" fill="#FFFFFF" points="221.2774 234.0317 149.1944 256.1267 115.3424 145.6837 187.4254 123.5897"></polygon>
            <polygon id="Stroke-238" stroke="#000000" stroke-width="1.521" points="221.2774 234.0317 149.1944 256.1267 115.3424 145.6837 187.4254 123.5897"></polygon>
            <polygon id="Fill-240" fill="#FFFFFF" points="271.126 232.9585 198.991 254.8825 165.401 144.3595 237.536 122.4365"></polygon>
            <polygon id="Stroke-242" stroke="#000000" stroke-width="1.521" points="271.126 232.9585 198.991 254.8825 165.401 144.3595 237.536 122.4365"></polygon>
            <polygon id="Fill-244" fill="#FFFFFF" points="273.8438 250.2407 199.6868 236.6527 220.5048 123.0307 294.6628 136.6177"></polygon>
            <polygon id="Stroke-246" stroke="#000000" stroke-width="1.521" points="273.8438 250.2407 199.6868 236.6527 220.5048 123.0307 294.6628 136.6177"></polygon>
            <line x1="133.2041" y1="161.6977" x2="167.2821" y2="151.1827" id="Stroke-248" stroke="#000000" stroke-width="1.266"></line>
            <line x1="135.4063" y1="168.6147" x2="169.4843" y2="158.0997" id="Stroke-250" stroke="#000000" stroke-width="1.266"></line>
            <line x1="137.3721" y1="175.5317" x2="171.4491" y2="165.0167" id="Stroke-252" stroke="#000000" stroke-width="1.266"></line>
            <line x1="139.9249" y1="182.4487" x2="174.0029" y2="171.9337" id="Stroke-254" stroke="#000000" stroke-width="1.266"></line>
            <line x1="142.127" y1="189.3657" x2="176.205" y2="178.8507" id="Stroke-256" stroke="#000000" stroke-width="1.266"></line>
            <line x1="144.0928" y1="196.2837" x2="178.1708" y2="185.7677" id="Stroke-258" stroke="#000000" stroke-width="1.266"></line>
            <line x1="179.4805" y1="151.6572" x2="213.5575" y2="141.1412" id="Stroke-260" stroke="#000000" stroke-width="1.266"></line>
            <line x1="181.6827" y1="158.5742" x2="215.7597" y2="148.0582" id="Stroke-262" stroke="#000000" stroke-width="1.266"></line>
            <line x1="183.6475" y1="165.4907" x2="217.7255" y2="154.9757" id="Stroke-264" stroke="#000000" stroke-width="1.266"></line>
            <line x1="186.2012" y1="172.4077" x2="220.2792" y2="161.8927" id="Stroke-266" stroke="#000000" stroke-width="1.266"></line>
            <line x1="188.4034" y1="179.3247" x2="222.4814" y2="168.8097" id="Stroke-268" stroke="#000000" stroke-width="1.266"></line>
            <line x1="190.3692" y1="186.2417" x2="224.4472" y2="175.7267" id="Stroke-270" stroke="#000000" stroke-width="1.266"></line>
            <polygon id="Fill-272" fill="#FFFFFF" points="272.1172 241.9604 197.6022 230.4884 215.1782 116.3204 289.6922 127.7914"></polygon>
            <polygon id="Stroke-274" stroke="#000000" stroke-width="1.521" points="272.1172 241.9604 197.6022 230.4884 215.1782 116.3204 289.6922 127.7914"></polygon>
            <path d="M221.0879,219.103 C220.3759,219.482 219.6089,219.652 218.7899,219.61 C217.9679,219.569 217.1659,219.282 216.3819,218.749 C215.5979,218.215 215.0339,217.576 214.6939,216.828 C214.3539,216.08 214.2299,215.305 214.3209,214.504 C214.4119,213.704 214.6949,212.954 215.1689,212.257 C215.5179,211.745 215.8839,211.346 216.2679,211.062 C216.6509,210.778 217.0529,210.545 217.4749,210.364 C217.7319,210.256 217.9669,210.275 218.1799,210.419 C218.3249,210.518 218.4199,210.665 218.4659,210.858 C218.5109,211.051 218.4839,211.22 218.3859,211.366 C218.3139,211.472 218.2119,211.559 218.0809,211.626 C217.6989,211.833 217.3959,212.027 217.1669,212.205 C216.9409,212.382 216.7119,212.641 216.4819,212.98 C215.9159,213.813 215.7109,214.628 215.8679,215.428 C216.0249,216.228 216.4949,216.895 217.2789,217.427 C218.0639,217.96 218.8569,218.153 219.6569,218.004 C220.4589,217.856 221.1439,217.365 221.7089,216.532 C221.9399,216.194 222.0949,215.886 222.1769,215.609 C222.2589,215.332 222.3259,214.978 222.3789,214.547 C222.3939,214.401 222.4369,214.275 222.5099,214.168 C222.6089,214.023 222.7559,213.936 222.9519,213.907 C223.1489,213.877 223.3189,213.913 223.4649,214.011 C223.6779,214.156 223.7799,214.368 223.7759,214.647 C223.7619,215.104 223.6919,215.564 223.5699,216.026 C223.4479,216.487 223.2129,216.974 222.8639,217.487 C222.3909,218.184 221.7969,218.722 221.0879,219.103" id="Fill-276" fill="#000000"></path>
            <path d="M227.2686,207.8198 C227.3316,207.3328 227.2456,206.8348 227.0096,206.3288 C226.7736,205.8208 226.3516,205.3598 225.7416,204.9458 C225.1416,204.5378 224.5616,204.3178 224.0026,204.2848 C223.4456,204.2528 222.9546,204.3568 222.5286,204.5978 C222.1026,204.8398 221.7546,205.1588 221.4856,205.5548 C221.2086,205.9618 221.0376,206.4078 220.9686,206.8918 C220.9026,207.3778 220.9876,207.8698 221.2256,208.3718 C221.4646,208.8748 221.8846,209.3298 222.4846,209.7368 C223.0946,210.1518 223.6766,210.3778 224.2326,210.4158 C224.7876,210.4518 225.2806,210.3518 225.7086,210.1138 C226.1406,209.8768 226.4946,209.5538 226.7706,209.1468 C227.0396,208.7508 227.2066,208.3078 227.2686,207.8198 M226.1646,211.6008 C225.4626,211.9448 224.7156,212.0708 223.9236,211.9778 C223.1306,211.8848 222.3566,211.5818 221.6016,211.0678 C220.8466,210.5548 220.2806,209.9478 219.9016,209.2438 C219.5226,208.5418 219.3656,207.8008 219.4266,207.0218 C219.4896,206.2438 219.7736,205.4818 220.2806,204.7368 C220.7806,204.0008 221.3806,203.4608 222.0816,203.1158 C222.7826,202.7718 223.5306,202.6438 224.3276,202.7318 C225.1236,202.8208 225.8986,203.1208 226.6536,203.6338 C227.4086,204.1478 227.9746,204.7578 228.3496,205.4658 C228.7236,206.1738 228.8796,206.9168 228.8196,207.6958 C228.7566,208.4738 228.4756,209.2308 227.9756,209.9658 C227.4686,210.7118 226.8656,211.2568 226.1646,211.6008" id="Fill-278" fill="#000000"></path>
            <path d="M231.6211,204.0395 C231.4101,204.0805 231.2121,204.0375 231.0281,203.9125 L224.8001,199.6795 C224.6161,199.5545 224.5011,199.3845 224.4561,199.1695 C224.4101,198.9545 224.4501,198.7555 224.5751,198.5715 C224.7001,198.3885 224.8731,198.2745 225.0931,198.2325 C225.3121,198.1905 225.5151,198.2325 225.6971,198.3575 L226.2931,198.7625 C226.1371,198.1185 226.0811,197.5015 226.1301,196.9105 C226.1771,196.3195 226.3971,195.7345 226.7921,195.1535 C227.1541,194.6215 227.5951,194.2445 228.1121,194.0235 C228.6301,193.8035 229.1791,193.7365 229.7551,193.8235 C230.3321,193.9115 230.8821,194.1335 231.4051,194.4885 L235.5281,197.2915 C235.7121,197.4165 235.8231,197.5875 235.8591,197.8035 C235.8961,198.0185 235.8521,198.2195 235.7271,198.4035 C235.6021,198.5875 235.4341,198.6995 235.2231,198.7395 C235.0121,198.7805 234.8141,198.7375 234.6311,198.6125 L230.6521,195.9085 C229.4711,195.1055 228.5181,195.2365 227.7951,196.3025 C227.4661,196.7855 227.2981,197.3055 227.2901,197.8575 C227.2811,198.4115 227.3751,199.0025 227.5701,199.6305 L231.9271,202.5915 C232.1101,202.7165 232.2221,202.8875 232.2581,203.1025 C232.2951,203.3185 232.2511,203.5185 232.1261,203.7025 C232.0011,203.8875 231.8321,203.9985 231.6211,204.0395" id="Fill-280" fill="#000000"></path>
            <path d="M237.877,194.8335 C237.667,194.8745 237.469,194.8325 237.285,194.7075 L231.593,190.8385 L231.011,191.6945 C230.905,191.8505 230.759,191.9455 230.572,191.9805 C230.386,192.0175 230.215,191.9815 230.061,191.8765 C229.896,191.7655 229.798,191.6175 229.768,191.4345 C229.735,191.2495 229.773,191.0805 229.879,190.9255 L230.461,190.0685 L229.618,189.4965 C229.038,189.1025 228.632,188.6745 228.4,188.2125 C228.17,187.7515 228.083,187.2965 228.14,186.8475 C228.198,186.3975 228.351,185.9895 228.602,185.6215 C228.91,185.1665 229.293,184.8115 229.751,184.5555 C229.864,184.4925 229.989,184.4605 230.123,184.4595 C230.259,184.4595 230.379,184.4945 230.485,184.5665 C230.631,184.6665 230.723,184.8075 230.762,184.9885 C230.801,185.1705 230.771,185.3335 230.672,185.4795 C230.6,185.5855 230.51,185.6875 230.401,185.7835 C230.214,185.9955 230.11,186.1165 230.091,186.1455 C229.821,186.5435 229.712,186.9025 229.761,187.2265 C229.81,187.5505 230.075,187.8765 230.56,188.2045 L231.358,188.7475 L232.593,186.9335 C232.704,186.7685 232.849,186.6685 233.028,186.6355 C233.208,186.6015 233.379,186.6395 233.544,186.7515 C233.698,186.8565 233.796,187.0005 233.833,187.1825 C233.872,187.3645 233.836,187.5375 233.724,187.7025 L232.49,189.5175 L238.183,193.3865 C238.366,193.5115 238.478,193.6825 238.514,193.8965 C238.551,194.1135 238.508,194.3135 238.383,194.4975 C238.258,194.6815 238.089,194.7935 237.877,194.8335" id="Fill-282" fill="#000000"></path>
            <path d="M241.2715,189.8393 C241.0615,189.8803 240.8635,189.8373 240.6795,189.7123 L234.4505,185.4793 C234.2675,185.3553 234.1515,185.1843 234.1065,184.9693 C234.0615,184.7553 234.1005,184.5563 234.2255,184.3713 C234.3575,184.1783 234.5295,184.0613 234.7415,184.0213 C234.9525,183.9813 235.1545,184.0263 235.3475,184.1573 L241.5775,188.3913 C241.7605,188.5163 241.8725,188.6873 241.9085,188.9023 C241.9455,189.1183 241.9015,189.3183 241.7765,189.5033 C241.6515,189.6873 241.4835,189.7993 241.2715,189.8393 M232.1965,183.7983 C231.9525,183.8453 231.7285,183.7993 231.5265,183.6613 L231.4675,183.6213 C231.2645,183.4843 231.1385,183.2923 231.0925,183.0493 C231.0455,182.8053 231.0925,182.5803 231.2305,182.3773 L231.2905,182.2903 C231.4275,182.0873 231.6195,181.9623 231.8635,181.9163 C232.1065,181.8693 232.3305,181.9153 232.5335,182.0533 L232.5915,182.0933 C232.7935,182.2313 232.9195,182.4223 232.9665,182.6663 C233.0135,182.9103 232.9655,183.1333 232.8285,183.3363 L232.7685,183.4243 C232.6305,183.6273 232.4405,183.7523 232.1965,183.7983" id="Fill-284" fill="#000000"></path>
            <path d="M245.3936,181.0415 C245.4626,180.5145 245.4336,179.9895 245.3096,179.4655 L242.2596,177.3935 C241.7266,177.4695 241.2276,177.6375 240.7626,177.8935 C240.2966,178.1505 239.9146,178.5025 239.6116,178.9465 C239.1246,179.6635 238.9606,180.3945 239.1206,181.1395 C239.2796,181.8845 239.7736,182.5385 240.6066,183.1045 C241.4396,183.6705 242.2316,183.8905 242.9826,183.7635 C243.7326,183.6375 244.3526,183.2155 244.8386,182.4995 C245.1416,182.0545 245.3266,181.5675 245.3936,181.0415 M244.3276,184.9225 C243.6586,185.2525 242.9156,185.3855 242.1036,185.3205 C241.2916,185.2575 240.4926,184.9585 239.7076,184.4255 C238.9236,183.8935 238.3536,183.2615 237.9946,182.5285 C237.6346,181.7965 237.4876,181.0585 237.5466,180.3135 C237.6066,179.5695 237.8406,178.8965 238.2486,178.2975 C238.8936,177.3485 239.8246,176.7705 241.0396,176.5635 L237.4826,174.1455 C237.2896,174.0155 237.1736,173.8415 237.1366,173.6255 C237.0996,173.4085 237.1426,173.2085 237.2676,173.0245 C237.3926,172.8415 237.5636,172.7305 237.7806,172.6935 C237.9966,172.6565 238.1976,172.7005 238.3796,172.8245 L247.8036,179.2295 C247.9876,179.3545 248.0996,179.5235 248.1396,179.7335 C248.1796,179.9455 248.1376,180.1435 248.0126,180.3265 C247.8876,180.5115 247.7176,180.6255 247.5026,180.6705 C247.2896,180.7165 247.0896,180.6765 246.9066,180.5515 L246.5286,180.2945 C246.7836,181.5005 246.5886,182.5785 245.9446,183.5265 C245.5366,184.1275 244.9976,184.5925 244.3276,184.9225" id="Fill-286" fill="#000000"></path>
            <path d="M249.1446,169.2309 C248.6506,168.9379 248.1686,168.7919 247.7026,168.7919 C247.2346,168.7919 246.8176,168.9019 246.4496,169.1189 C246.0826,169.3359 245.7876,169.6099 245.5636,169.9389 C245.3396,170.2679 245.1956,170.6429 245.1266,171.0649 C245.0606,171.4859 245.1146,171.9119 245.2906,172.3419 C245.4626,172.7719 245.7786,173.1629 246.2336,173.5139 L249.1446,169.2309 Z M249.4486,176.1989 C248.3266,176.4049 247.1546,176.0929 245.9346,175.2639 C245.2476,174.7969 244.6996,174.2409 244.2896,173.5939 C243.8796,172.9479 243.6736,172.2419 243.669588,171.4749 C243.6676,170.7099 243.9256,169.9439 244.4456,169.1789 C244.9326,168.4619 245.5206,167.9579 246.2096,167.6609 C246.8996,167.3659 247.6146,167.2709 248.3546,167.3779 C249.0956,167.4859 249.7946,167.7619 250.4536,168.2099 C250.6366,168.3349 250.7506,168.5019 250.7946,168.7079 C250.8376,168.9139 250.7906,169.1189 250.6526,169.3219 L247.3076,174.2439 C248.0386,174.6269 248.7366,174.7339 249.4036,174.5649 C250.0706,174.3949 250.6646,173.9279 251.1836,173.1639 C251.4596,172.7569 251.6636,172.3759 251.7916,172.0179 C251.9216,171.6609 252.0126,171.2869 252.0656,170.8979 C252.0796,170.7939 252.1196,170.6939 252.1846,170.5969 C252.2906,170.4419 252.4356,170.3419 252.6206,170.2989 C252.8056,170.2539 252.9806,170.2899 253.1456,170.4009 C253.3586,170.5449 253.4526,170.7929 253.4266,171.1439 C253.3826,171.6669 253.2896,172.1469 253.1466,172.5869 C253.0026,173.0279 252.7336,173.5379 252.3376,174.1189 C251.5366,175.2989 250.5726,175.9929 249.4486,176.1989 L249.4486,176.1989 Z" id="Fill-288" fill="#000000"></path>
            <path d="M255.5401,168.8442 C255.3291,168.8852 255.1321,168.8432 254.9481,168.7182 L248.7191,164.4852 C248.5361,164.3602 248.4201,164.1902 248.3751,163.9752 C248.3301,163.7602 248.3691,163.5612 248.4941,163.3772 C248.6191,163.1942 248.7921,163.0802 249.0121,163.0382 C249.2311,162.9962 249.4341,163.0382 249.6161,163.1632 L250.2121,163.5682 C250.0561,162.9242 250.0001,162.3072 250.0491,161.7162 C250.0961,161.1252 250.3161,160.5402 250.7121,159.9592 C251.0731,159.4272 251.5141,159.0502 252.0321,158.8292 C252.5501,158.6082 253.0981,158.5422 253.6741,158.6292 C254.2511,158.7172 254.8011,158.9392 255.3241,159.2942 L259.4471,162.0972 C259.6311,162.2222 259.7421,162.3932 259.7781,162.6092 C259.8151,162.8242 259.7711,163.0252 259.6471,163.2092 C259.5221,163.3932 259.3531,163.5052 259.1421,163.5452 C258.9321,163.5862 258.7331,163.5432 258.5501,163.4182 L254.5711,160.7142 C253.3901,159.9112 252.4371,160.0422 251.7141,161.1082 C251.3851,161.5912 251.2171,162.1112 251.2091,162.6632 C251.2001,163.2172 251.2941,163.8082 251.4891,164.4362 L255.8461,167.3972 C256.0291,167.5222 256.1411,167.6932 256.1771,167.9082 C256.2141,168.1242 256.1701,168.3242 256.0451,168.5082 C255.9201,168.6932 255.7521,168.8042 255.5401,168.8442" id="Fill-290" fill="#000000"></path>
            <path d="M259.9444,158.8052 L255.4424,155.7462 L254.7424,156.7772 C254.6894,156.8542 254.6184,156.9022 254.5284,156.9182 C254.4404,156.9362 254.3574,156.9182 254.2794,156.8662 C254.1824,156.8002 254.1304,156.7002 254.1214,156.5672 L253.5324,153.2802 C253.5044,153.1342 253.5164,153.0222 253.5694,152.9442 C253.6224,152.8672 253.6954,152.8212 253.7894,152.8072 C253.8834,152.7932 253.9694,152.8132 254.0474,152.8662 L255.2094,153.6552 L256.3244,152.0142 C256.4354,151.8502 256.5804,151.7502 256.7604,151.7172 C256.9394,151.6822 257.1104,151.7212 257.2754,151.8332 C257.4294,151.9382 257.5274,152.0822 257.5654,152.2642 C257.6034,152.4462 257.5674,152.6192 257.4564,152.7842 L256.3404,154.4252 L260.7264,157.4052 C261.1034,157.6612 261.4034,157.7352 261.6284,157.6242 C261.8504,157.5152 262.0544,157.3252 262.2394,157.0542 C262.3704,156.8602 262.4724,156.6462 262.5474,156.4132 C262.5634,156.3682 262.5814,156.3202 262.6014,156.2702 C262.6214,156.2202 262.6544,156.1602 262.7004,156.0932 C262.7924,155.9572 262.9244,155.8712 263.0984,155.8342 C263.2724,155.7962 263.4324,155.8262 263.5784,155.9262 C263.8004,156.0772 263.8934,156.3032 263.8584,156.6052 C263.7764,157.1012 263.5904,157.5622 263.3014,157.9882 C262.3404,159.4012 261.2214,159.6732 259.9444,158.8052" id="Fill-292" fill="#000000"></path>
            <path d="M265.2003,154.6304 C264.9903,154.6714 264.7923,154.6294 264.6083,154.5044 L258.3793,150.2704 C258.1963,150.1464 258.0813,149.9754 258.0353,149.7614 C257.9903,149.5464 258.0303,149.3474 258.1553,149.1634 C258.2863,148.9694 258.4583,148.8534 258.6703,148.8124 C258.8823,148.7724 259.0833,148.8174 259.2763,148.9494 L265.5063,153.1824 C265.6893,153.3074 265.8013,153.4784 265.8373,153.6944 C265.8743,153.9104 265.8313,154.1104 265.7063,154.2944 C265.5813,154.4784 265.4123,154.5904 265.2003,154.6304 M256.1263,148.5894 C255.8823,148.6364 255.6573,148.5904 255.4553,148.4524 L255.3963,148.4134 C255.1933,148.2754 255.0683,148.0834 255.0223,147.8404 C254.9753,147.5964 255.0213,147.3724 255.1593,147.1694 L255.2193,147.0824 C255.3563,146.8794 255.5483,146.7544 255.7923,146.7074 C256.0353,146.6604 256.2593,146.7064 256.4623,146.8454 L256.5203,146.8844 C256.7223,147.0224 256.8483,147.2134 256.8953,147.4574 C256.9423,147.7014 256.8943,147.9244 256.7573,148.1284 L256.6973,148.2154 C256.5593,148.4184 256.3703,148.5434 256.1263,148.5894" id="Fill-294" fill="#000000"></path>
            <path d="M268.7745,146.7651 C268.8365,146.2271 268.8035,145.7171 268.6775,145.2351 L267.4585,144.4061 L266.3825,145.9881 C265.3885,147.4501 265.2755,148.4411 266.0415,148.9611 C266.3885,149.1981 266.7505,149.2701 267.1245,149.1771 C267.4985,149.0851 267.8735,148.7631 268.2485,148.2111 C268.5375,147.7861 268.7125,147.3041 268.7745,146.7651 M268.0075,150.5001 C267.5875,150.7441 267.1375,150.8601 266.6595,150.8461 C266.1795,150.8311 265.7225,150.6771 265.2875,150.3801 C264.5715,149.8941 264.1925,149.2231 264.1515,148.3671 C264.1115,147.5111 264.4615,146.5361 265.2045,145.4431 L266.3985,143.6861 L266.2825,143.6071 C265.6435,143.1721 265.0775,143.0181 264.5835,143.1421 C264.0885,143.2651 263.6145,143.6611 263.1605,144.3291 C262.9105,144.6971 262.7165,145.0431 262.5815,145.3681 C262.4445,145.6931 262.3175,146.0701 262.1965,146.4971 C262.1635,146.5871 262.1295,146.6571 262.0975,146.7051 C261.9995,146.8511 261.8595,146.9401 261.6805,146.9741 C261.5025,147.0081 261.3355,146.9731 261.1805,146.8681 C260.9195,146.6901 260.8195,146.4391 260.8845,146.1151 C261.0955,145.0561 261.4905,144.1001 262.0695,143.2481 C262.5235,142.5801 263.0425,142.1091 263.6265,141.8331 C264.2095,141.5571 264.7915,141.4571 265.3685,141.5321 C265.9475,141.6071 266.4895,141.8151 266.9925,142.1581 L271.1015,144.9501 C271.2855,145.0751 271.3955,145.2461 271.4315,145.4621 C271.4685,145.6781 271.4255,145.8781 271.3005,146.0621 C271.1755,146.2461 271.0065,146.3581 270.7955,146.3981 C270.5855,146.4391 270.3865,146.3961 270.2035,146.2711 L269.8255,146.0151 C270.0735,147.2311 269.8235,148.3911 269.0735,149.4941 C268.7845,149.9201 268.4285,150.2551 268.0075,150.5001" id="Fill-296" fill="#000000"></path>
            <path d="M273.2032,142.8554 C272.9922,142.8964 272.7942,142.8544 272.6102,142.7294 L263.1862,136.3244 C263.0052,136.1994 262.8892,136.0294 262.8442,135.8144 C262.7982,135.6004 262.8382,135.4014 262.9632,135.2174 C263.0952,135.0234 263.2662,134.9064 263.4782,134.8664 C263.6892,134.8264 263.8922,134.8724 264.0852,135.0024 L273.5092,141.4074 C273.6922,141.5324 273.8042,141.7034 273.8402,141.9194 C273.8772,142.1354 273.8332,142.3354 273.7082,142.5194 C273.5832,142.7034 273.4142,142.8154 273.2032,142.8554" id="Fill-298" fill="#000000"></path>
        </g>
    </g>
</svg>