<?xml version="1.0" encoding="UTF-8"?>
<svg width="500px" height="500px" viewBox="0 0 500 500" version="1.1" xmlns="http://www.w3.org/2000/svg" xmlns:xlink="http://www.w3.org/1999/xlink">
    <!-- Generator: Sketch 62 (91390) - https://sketch.com -->
    <title>04-how-to-1</title>
    <desc>Created with Sketch.</desc>
    <g id="04-how-to-1" stroke="none" stroke-width="1" fill="none" fill-rule="evenodd">
        <g id="Group-107" transform="translate(27.000000, 33.000000)">
            <path d="M246.9462,297.9926 C245.9252,299.0346 244.4402,299.6876 243.2992,298.7386 L116.3492,192.8656 C113.3702,190.3316 114.7072,181.6226 118.0772,178.3886 L298.8082,5.9576 C300.7942,4.0516 304.9852,3.3416 308.1602,4.3776 L429.2942,40.3376 C433.7642,41.7966 435.8852,48.5636 434.0202,51.0336 L251.0332,293.4186 C249.0532,296.0406 247.8732,297.0466 246.9462,297.9926" id="Fill-1" fill="#FFFFFF"></path>
            <path d="M246.9462,297.9926 C245.9252,299.0346 244.4402,299.6876 243.2992,298.7386 L116.3492,192.8656 C113.3702,190.3316 114.7072,181.6226 118.0772,178.3886 L298.8082,5.9576 C300.7942,4.0516 304.9852,3.3416 308.1602,4.3776 L429.2942,40.3376 C433.7642,41.7966 435.8852,48.5636 434.0202,51.0336 L251.0332,293.4186 C249.0532,296.0406 247.8732,297.0466 246.9462,297.9926 Z" id="Stroke-3" stroke="#777777" stroke-width="5.645"></path>
            <polygon id="Fill-5" fill="#777777" points="243.23 296.996 246.73 296.996 246.73 294.148 243.23 294.148"></polygon>
            <path d="M246.5668,291.3217 C245.5558,292.3587 244.0918,293.0147 242.9798,292.0887 L117.9648,187.8967 C115.0608,185.4217 115.4598,180.7667 118.7948,177.5487 L299.8398,2.8567 C301.8048,0.9607 305.9258,0.2267 309.0348,1.2227 L427.5868,39.2217 C431.9638,40.6247 434.0788,43.7757 432.2288,46.2267 L250.6158,286.7777 C248.6508,289.3807 247.4848,290.3817 246.5668,291.3217" id="Fill-7" fill="#FFFFFF"></path>
            <path d="M246.5668,291.3217 C245.5558,292.3587 244.0918,293.0147 242.9798,292.0887 L117.9648,187.8967 C115.0608,185.4217 115.4598,180.7667 118.7948,177.5487 L299.8398,2.8567 C301.8048,0.9607 305.9258,0.2267 309.0348,1.2227 L427.5868,39.2217 C431.9638,40.6247 434.0788,43.7757 432.2288,46.2267 L250.6158,286.7777 C248.6508,289.3807 247.4848,290.3817 246.5668,291.3217 Z" id="Stroke-8" stroke="#B5B5B5" stroke-width="5.555"></path>
            <path d="M385.3471,35.7275 L330.1701,17.2865 C326.7851,16.1555 325.6601,13.5765 327.6271,11.5575 L327.9241,11.2535 C329.8761,9.2505 334.2021,8.4965 337.5811,9.5755 L392.5881,27.1425 C396.5701,28.4145 398.3211,31.3245 396.4261,33.6125 L396.1371,33.9605 C394.2261,36.2685 389.3471,37.0645 385.3471,35.7275" id="Fill-9" fill="#B5B5B5"></path>
            <path d="M385.3471,35.7275 L330.1701,17.2865 C326.7851,16.1555 325.6601,13.5765 327.6271,11.5575 L327.9241,11.2535 C329.8761,9.2505 334.2021,8.4965 337.5811,9.5755 L392.5881,27.1425 C396.5701,28.4145 398.3211,31.3245 396.4261,33.6125 L396.1371,33.9605 C394.2261,36.2685 389.3471,37.0645 385.3471,35.7275 Z" id="Stroke-10" stroke="#B5B5B5" stroke-width="0.59"></path>
            <polygon id="Fill-11" fill="#B5B5B5" points="245.3774 290.1332 114.7054 182.1732 124.1414 172.1262 255.3804 278.1352"></polygon>
            <polygon id="Stroke-12" stroke="#B5B5B5" stroke-width="0.59" points="245.3774 290.1332 114.7054 182.1732 124.1414 172.1262 255.3804 278.1352"></polygon>
            <path d="M267.7411,165.2236 C263.0111,170.5846 253.9691,171.8476 247.5091,168.0676 C242.8971,165.3696 240.8011,160.8966 241.4531,156.6046 C241.5111,156.2296 241.3261,155.8646 240.9721,155.6446 L231.5921,149.8326 C231.5921,149.8326 231.3371,147.9626 231.2791,147.5326 C231.2201,147.1036 230.9301,146.9246 230.9301,146.9246 C230.9301,146.9246 226.8071,144.3886 226.4271,144.1536 C226.0471,143.9196 225.7021,143.9676 225.7021,143.9676 L221.2641,144.0836 L221.4291,135.9796 L229.6061,135.2396 L248.9321,146.7676 C249.2911,146.9816 249.7651,147.0186 250.1791,146.8666 C254.7021,145.2086 260.1261,145.4876 264.4471,148.0086 C271.0871,151.8826 272.6781,159.6296 267.7411,165.2236" id="Fill-13" fill="#FFFFFF"></path>
            <path d="M267.7411,165.2236 C263.0111,170.5846 253.9691,171.8476 247.5091,168.0676 C242.8971,165.3696 240.8011,160.8966 241.4531,156.6046 C241.5111,156.2296 241.3261,155.8646 240.9721,155.6446 L231.5921,149.8326 C231.5921,149.8326 231.3371,147.9626 231.2791,147.5326 C231.2201,147.1036 230.9301,146.9246 230.9301,146.9246 C230.9301,146.9246 226.8071,144.3886 226.4271,144.1536 C226.0471,143.9196 225.7021,143.9676 225.7021,143.9676 L221.2641,144.0836 L221.4291,135.9796 L229.6061,135.2396 L248.9321,146.7676 C249.2911,146.9816 249.7651,147.0186 250.1791,146.8666 C254.7021,145.2086 260.1261,145.4876 264.4471,148.0086 C271.0871,151.8826 272.6781,159.6296 267.7411,165.2236 Z" id="Stroke-14" stroke="#263238" stroke-width="1.111"></path>
            <g id="Group-17" transform="translate(221.000000, 136.141000)">
                <path d="M0.5522,1.1201 C0.8232,1.3321 15.4642,10.2091 20.1322,13.0371 C20.8892,13.4961 21.9752,13.3471 22.5582,12.7031 C23.1412,12.0601 22.9972,11.1691 22.2402,10.7131 L5.9962,0.9281" id="Fill-15" fill="#FFFFFF"></path>
                <path d="M0.5522,1.1201 C0.8232,1.3321 15.4642,10.2091 20.1322,13.0371 C20.8892,13.4961 21.9752,13.3471 22.5582,12.7031 C23.1412,12.0601 22.9972,11.1691 22.2402,10.7131 L5.9962,0.9281" id="Stroke-16" stroke="#263238" stroke-width="1.111" stroke-linecap="round"></path>
            </g>
            <path d="M264.9433,163.2851 C263.1093,165.4161 259.5553,165.8811 257.0333,164.3251 C254.5333,162.7801 254.0143,159.8401 255.8463,157.7561 C257.6693,155.6831 261.1523,155.2161 263.6543,156.7141 C266.1773,158.2231 266.7673,161.1661 264.9433,163.2851" id="Fill-18" fill="#FFFFFF"></path>
            <path d="M264.9433,163.2851 C263.1093,165.4161 259.5553,165.8811 257.0333,164.3251 C254.5333,162.7801 254.0143,159.8401 255.8463,157.7561 C257.6693,155.6831 261.1523,155.2161 263.6543,156.7141 C266.1773,158.2231 266.7673,161.1661 264.9433,163.2851 Z" id="Stroke-19" stroke="#263238" stroke-width="1.111" stroke-linecap="round"></path>
            <path d="M375.1298,77.6225 L336.1958,125.9595 C334.6068,127.9325 331.0368,128.4295 328.2908,127.0635 L246.3518,86.3065 C244.2468,85.2585 243.8468,83.0905 245.4438,81.4865 L289.5908,37.1465 C290.9758,35.7555 293.8198,35.2765 295.9298,36.0805 L316.0048,43.7325 C316.2948,43.8435 316.4988,44.0265 316.5738,44.2375 C317.3268,46.3545 317.9678,49.4375 318.7508,51.4985 L372.6938,72.6025 C375.3958,73.6595 376.5028,75.9175 375.1298,77.6225 Z" id="Stroke-20" stroke="#F03434" stroke-width="3.889"></path>
            <g id="Group-23" transform="translate(308.000000, 64.141000)">
                <path d="M0.916,2.4126 C2.587,0.5986 6.573,0.2066 9.811,1.5446 L14.778,3.5966 C18.097,4.9676 19.482,7.6296 17.817,9.5106" id="Fill-21" fill="#FFFFFF"></path>
                <path d="M0.916,2.4126 C2.587,0.5986 6.573,0.2066 9.811,1.5446 L14.778,3.5966 C18.097,4.9676 19.482,7.6296 17.817,9.5106" id="Stroke-22" stroke="#37B1CC" stroke-width="2.222"></path>
            </g>
            <g id="Group-26" transform="translate(305.000000, 66.141000)">
                <line x1="3.9164" y1="0.4126" x2="0.5984" y2="4.0156" id="Fill-24" fill="#FFFFFF"></line>
                <line x1="3.9164" y1="0.4126" x2="0.5984" y2="4.0156" id="Stroke-25" stroke="#37B1CC" stroke-width="2.222"></line>
            </g>
            <g id="Group-29" transform="translate(322.000000, 73.141000)">
                <line x1="3.8168" y1="0.5108" x2="0.5088" y2="4.2478" id="Fill-27" fill="#FFFFFF"></line>
                <line x1="3.8168" y1="0.5108" x2="0.5088" y2="4.2478" id="Stroke-28" stroke="#37B1CC" stroke-width="2.222"></line>
            </g>
            <path d="M311.7006,98.3949 C310.2326,98.3949 308.8056,98.0889 307.5746,97.5109 L286.1026,87.4199 C284.5836,86.7069 283.5786,85.5979 283.3466,84.3769 C283.1536,83.3679 283.4906,82.3659 284.3226,81.4799 L293.5946,71.6119 C294.8266,70.2999 297.0546,69.4859 299.4086,69.4859 C300.6956,69.4859 301.9446,69.7289 303.0196,70.1879 L324.4426,79.3469 C326.2146,80.1049 327.4086,81.3099 327.7186,82.6519 C327.9416,83.6189 327.6706,84.5769 326.9366,85.4249 L317.7076,96.0839 C316.4726,97.5089 314.1716,98.3949 311.7006,98.3949" id="Fill-30" fill="#37B1CC"></path>
            <path d="M299.4081,68.3744 C296.8281,68.3744 294.2851,69.2534 292.7841,70.8514 L283.5121,80.7194 C281.1151,83.2724 282.0431,86.7404 285.6301,88.4254 L307.1021,98.5164 C308.5271,99.1864 310.1271,99.5054 311.7001,99.5054 C314.4081,99.5054 317.0351,98.5574 318.5471,96.8114 L327.7771,86.1524 C330.0741,83.4994 328.7441,79.9784 324.8791,78.3254 L303.4561,69.1664 C302.2011,68.6304 300.7991,68.3744 299.4081,68.3744 M299.4081,70.5964 L299.4081,70.5964 C300.5461,70.5964 301.6441,70.8094 302.5831,71.2094 L324.0061,80.3684 C325.4271,80.9764 326.4101,81.9234 326.6361,82.9014 C326.7781,83.5174 326.5961,84.1214 326.0971,84.6974 L316.8671,95.3564 C315.8381,96.5454 313.8581,97.2834 311.7001,97.2834 C310.3941,97.2834 309.1311,97.0144 308.0471,96.5054 L286.5751,86.4154 C285.3821,85.8534 284.6031,85.0354 284.4371,84.1684 C284.2821,83.3534 284.7291,82.6704 285.1321,82.2414 L294.4041,72.3724 C295.4331,71.2774 297.3511,70.5964 299.4081,70.5964" id="Fill-31" fill="#37B1CC"></path>
            <path d="M309.5463,82.5502 C308.6653,83.5312 306.8053,83.8162 305.4003,83.1872 C304.0013,82.5602 303.5873,81.2662 304.4683,80.2962 C305.3473,79.3292 307.1873,79.0442 308.5863,79.6602 C309.9913,80.2782 310.4243,81.5722 309.5463,82.5502" id="Fill-32" fill="#18343A"></path>
            <path d="M301.8207,87.1503 L301.8207,87.1503 C301.3547,86.9383 301.2177,86.4963 301.5147,86.1683 L305.0887,82.2193 C305.3817,81.8953 306.0007,81.8003 306.4657,82.0073 C306.9317,82.2143 307.0737,82.6503 306.7807,82.9753 L303.2077,86.9383 C302.9117,87.2673 302.2867,87.3623 301.8207,87.1503" id="Fill-33" fill="#18343A"></path>
            <path d="M302.6528,15.5795 C302.6438,15.5535 302.6368,15.5285 302.6298,15.5025 C302.6368,15.5285 302.6448,15.5545 302.6528,15.5795" id="Fill-34" fill="#5600B7"></path>
            <path d="M302.6542,15.5844 C302.6542,15.5834 302.6532,15.5814 302.6532,15.5794 C302.6532,15.5814 302.6542,15.5834 302.6542,15.5844" id="Fill-35" fill="#5600B7"></path>
            <path d="M306.7822,17.7104 C306.7362,17.7094 306.6892,17.7074 306.6422,17.7054 C306.6892,17.7074 306.7362,17.7094 306.7822,17.7104" id="Fill-36" fill="#5600B7"></path>
            <path d="M306.7836,17.7104 L306.7826,17.7104 L306.7836,17.7104 Z" id="Fill-37" fill="#5600B7"></path>
            <path d="M302.6293,15.5024 C302.6293,15.5014 302.6293,15.5004 302.6283,15.4984 C302.6293,15.5004 302.6293,15.5014 302.6293,15.5024" id="Fill-38" fill="#5600B7"></path>
            <path d="M306.6391,17.7055 C306.6391,17.7055 306.6381,17.7055 306.6381,17.7055 C306.6391,17.7055 306.6411,17.7055 306.6421,17.7055 L306.6391,17.7055 Z" id="Fill-39" fill="#5600B7"></path>
            <path d="M307.2143,17.7094 C307.1663,17.7104 307.1173,17.7114 307.0683,17.7124 C307.1173,17.7114 307.1653,17.7104 307.2143,17.7094" id="Fill-40" fill="#5600B7"></path>
            <path d="M306.937,17.7128 L306.925,17.7128 L306.937,17.7128 Z" id="Fill-41" fill="#5600B7"></path>
            <path d="M307.0683,17.7123 C307.0243,17.7123 306.9803,17.7123 306.9373,17.7123 C306.9803,17.7123 307.0243,17.7123 307.0683,17.7123" id="Fill-42" fill="#5600B7"></path>
            <path d="M306.9247,17.7128 C306.8777,17.7128 306.8307,17.7118 306.7837,17.7108 C306.8307,17.7118 306.8777,17.7128 306.9247,17.7128" id="Fill-43" fill="#5600B7"></path>
            <path d="M259.9623,214.8442 C258.0223,214.8442 256.1793,214.2702 254.6333,213.1822 L175.3223,157.4062 C174.1743,156.5992 173.4803,155.4232 173.3653,154.0962 C173.2303,152.5212 173.9113,150.8602 175.2353,149.5372 L177.0583,147.7172 C178.6053,146.1712 180.8773,145.2482 183.1353,145.2482 C184.5503,145.2482 185.8403,145.6082 186.8673,146.2872 L266.4903,199.0222 C268.3643,200.2622 269.6223,202.1532 269.9423,204.2072 C270.2363,206.0992 269.7273,207.9762 268.5083,209.4912 L266.6353,211.8222 C265.0903,213.7422 262.6583,214.8442 259.9623,214.8442" id="Fill-44" fill="#37B1CC"></path>
            <path d="M183.1357,144.1371 C180.6747,144.1371 178.0957,145.1101 176.2727,146.9301 L174.4507,148.7511 C171.4237,151.7751 171.5027,156.0771 174.6837,158.3151 L253.9937,214.0911 C255.7807,215.3481 257.8867,215.9551 259.9617,215.9551 C262.8547,215.9551 265.6867,214.7741 267.5007,212.5181 L269.3747,210.1881 C272.4427,206.3721 271.3847,200.9291 267.1037,198.0951 L187.4807,145.3611 C186.2327,144.5341 184.7087,144.1371 183.1357,144.1371 M183.1367,146.3591 L183.1357,146.3591 C184.3317,146.3591 185.4097,146.6551 186.2547,147.2141 L265.8767,199.9481 C267.4907,201.0171 268.5737,202.6321 268.8447,204.3791 C269.0907,205.9581 268.6637,207.5261 267.6427,208.7951 L265.7697,211.1251 C264.4557,212.7581 262.2847,213.7341 259.9617,213.7341 C258.2517,213.7341 256.6307,213.2291 255.2727,212.2741 L175.9617,156.4971 C175.0747,155.8731 174.5597,155.0101 174.4727,154.0001 C174.3647,152.7541 174.9287,151.4131 176.0207,150.3231 L177.8437,148.5031 C179.1867,147.1601 181.1657,146.3591 183.1367,146.3591" id="Fill-45" fill="#37B1CC"></path>
            <text id="LOCK" font-family="WorkSans-Bold, Work Sans" font-size="1.8243" font-weight="bold" letter-spacing="-0.1747389" fill="#FFFFFF">
                <tspan x="206.7413" y="172.666116">L</tspan>
                <tspan x="207.626479" y="172.666116">OCK</tspan>
            </text>
            <path d="M105.5336,72.4306 L90.4666,121.7756 C90.0726,123.0686 88.2616,124.1086 86.4356,124.1116 L24.1786,124.237612 C22.3516,124.2416 20.5376,123.2096 20.1376,121.9176 L1.9496,63.2006 C1.0056,60.1546 2.5926,57.5766 5.5066,57.5716 L32.2996,57.5165956 C32.6746,57.5156 33.0536,57.6846 33.3506,57.9776 C36.2546,60.8416 39.8866,65.0576 42.4846,67.5406 L102.0666,67.4206 C104.8166,67.4146 106.3656,69.7066 105.5336,72.4306" id="Fill-46" fill="#F03434"></path>
            <path d="M105.5336,72.4306 L90.4666,121.7756 C90.0726,123.0686 88.2616,124.1086 86.4356,124.1116 L24.1786,124.237612 C22.3516,124.2416 20.5376,123.2096 20.1376,121.9176 L1.9496,63.2006 C1.0056,60.1546 2.5926,57.5766 5.5066,57.5716 L32.2996,57.5165956 C32.6746,57.5156 33.0536,57.6846 33.3506,57.9776 C36.2546,60.8416 39.8866,65.0576 42.4846,67.5406 L102.0666,67.4206 C104.8166,67.4146 106.3656,69.7066 105.5336,72.4306 Z" id="Stroke-47" stroke="#F03434" stroke-width="3.037"></path>
            <polygon id="Fill-48" fill="#FFFFFF" points="23.8124 39.1664 23.8124 91.6544 84.1094 91.6544 84.1094 20.5134 46.1834 20.5134"></polygon>
            <polygon id="Stroke-49" stroke="#37B1CC" stroke-width="3.037" stroke-linejoin="round" points="23.8124 39.1664 23.8124 91.6544 84.1094 91.6544 84.1094 20.5134 46.1834 20.5134"></polygon>
            <polyline id="Stroke-50" stroke="#37B1CC" stroke-width="3.037" stroke-linejoin="round" points="46.0532 20.5136 46.0532 38.9496 23.8122 38.9496"></polyline>
            <path d="M106.6786,81.3544 L91.2806,133.2384 C90.8766,134.5984 89.0266,135.6904 87.1596,135.6944 L23.5216,135.823411 C21.6556,135.8274 19.8006,134.7414 19.3916,133.3844 L0.7966,71.6434 C-0.1684,68.4404 1.4536,65.7294 4.4326,65.7244 L31.8196,65.6683958 C32.2026,65.6674 32.5906,65.8444 32.8936,66.1534 C35.8626,69.1644 39.5746,73.5984 42.2306,76.2084 L103.1346,76.0854 C105.9456,76.0804 107.5286,78.4904 106.6786,81.3544" id="Fill-51" fill="#FFFFFF"></path>
            <path d="M106.6786,81.3544 L91.2806,133.2384 C90.8766,134.5984 89.0266,135.6904 87.1596,135.6944 L23.5216,135.823411 C21.6556,135.8274 19.8006,134.7414 19.3916,133.3844 L0.7966,71.6434 C-0.1684,68.4404 1.4536,65.7294 4.4326,65.7244 L31.8196,65.6683958 C32.2026,65.6674 32.5906,65.8444 32.8936,66.1534 C35.8626,69.1644 39.5746,73.5984 42.2306,76.2084 L103.1346,76.0854 C105.9456,76.0804 107.5286,78.4904 106.6786,81.3544 Z" id="Stroke-52" stroke="#F03434" stroke-width="3.037"></path>
            <path d="M172.5419,80.9115 C172.5079,81.1355 172.2899,81.3015 172.0639,81.2735 L161.7949,80.0065 L152.0189,78.8015 C151.6759,78.7585 151.5839,78.3295 151.8719,78.1115 L163.4109,69.3635 L174.9499,60.6155 C175.2379,60.3975 175.6259,60.6005 175.5739,60.9425 L174.0949,70.6815 L172.5419,80.9115 Z" id="Fill-53" fill="#F03434"></path>
            <path d="M99.8105,47.6249 C121.6485,41.3659 145.4715,46.1389 171.2805,63.9659 C171.5485,64.1509 171.5725,64.5419 171.3235,64.7539 C167.0855,68.3539 158.3065,76.1449 157.7905,75.5039 C135.9435,48.4009 111.9815,47.1089 100.0115,48.5959 C99.4045,48.6709 99.2225,47.7939 99.8105,47.6249" id="Fill-54" fill="#F03434"></path>
            <polygon id="Fill-55" fill="#FFFFFF" points="291.183 390.097 422.47 390.097 422.47 322.462 291.183 322.462"></polygon>
            <path d="M423.0502,321.2953 L290.6012,321.2953 C290.2792,321.2953 290.0152,321.5593 290.0152,321.8813 L290.0152,390.6783 C290.0152,391.0003 290.2792,391.2643 290.6012,391.2643 L423.0502,391.2643 C423.3722,391.2643 423.6362,391.0003 423.6362,390.6783 L423.6362,321.8813 C423.6362,321.5593 423.3722,321.2953 423.0502,321.2953 L423.0502,321.2953 Z M292.3482,388.9313 L421.3022,388.9313 L421.3022,323.6293 L292.3482,323.6293 L292.3482,388.9313 Z" id="Fill-56" fill="#B5B5B5"></path>
            <g id="Group-59" transform="translate(265.000000, 429.141000)">
                <path d="M181.1391,0.9219 L182.3531,2.9639 C183.0941,4.2099 182.1171,5.7589 180.5141,5.7809 L180.4561,5.7809 L3.1721,5.7809 C1.5471,5.7749 0.4921,4.2759 1.2131,2.9979 L2.5731,0.5919" id="Fill-57" fill="#919191"></path>
                <path d="M181.1391,0.9219 L182.3531,2.9639 C183.0941,4.2099 182.1171,5.7589 180.5141,5.7809 L180.4561,5.7809 L3.1721,5.7809 C1.5471,5.7749 0.4921,4.2759 1.2131,2.9979 L2.5731,0.5919" id="Stroke-58" stroke="#919191" stroke-width="0.438"></path>
            </g>
            <path d="M443.5507,431.4194 L270.1227,431.4194 C268.1977,431.4194 266.9877,430.7964 267.4297,430.0424 L289.9057,391.3914 C290.2277,391.0204 291.6477,390.7184 293.0637,390.7184 L420.6097,390.7184 C422.0257,390.7184 423.4457,391.0204 423.7677,391.3914 L446.2437,430.0424 C446.6857,430.7964 445.4757,431.4194 443.5507,431.4194" id="Fill-60" fill="#B5B5B5"></path>
            <path d="M443.5507,431.4194 L270.1227,431.4194 C268.1977,431.4194 266.9877,430.7964 267.4297,430.0424 L289.9057,391.3914 C290.2277,391.0204 291.6477,390.7184 293.0637,390.7184 L420.6097,390.7184 C422.0257,390.7184 423.4457,391.0204 423.7677,391.3914 L446.2437,430.0424 C446.6857,430.7964 445.4757,431.4194 443.5507,431.4194 Z" id="Stroke-61" stroke="#B5B5B5" stroke-width="0.583"></path>
            <path d="M397.4135,428.391 L316.2595,428.391 C314.1735,428.391 312.7215,428.024 313.0295,427.581 L317.7585,420.768 C317.9995,420.42 319.6815,420.139 321.4985,420.139 L392.1755,420.139 C393.9915,420.139 395.6735,420.42 395.9145,420.768 L400.6445,427.581 C400.9525,428.024 399.4995,428.391 397.4135,428.391" id="Fill-62" fill="#666666"></path>
            <path d="M426.3168,416.9008 L287.8488,416.9008 C286.0218,416.9008 284.8618,416.2268 285.2668,415.4118 L294.8968,396.0158 C295.1968,395.4118 296.7088,394.9218 298.2598,394.9218 L415.8248,394.9218 C417.3768,394.9218 418.8908,395.4118 419.1918,396.0158 L428.8938,415.4118 C429.3018,416.2268 428.1438,416.9008 426.3168,416.9008" id="Fill-63" fill="#D3D3D3"></path>
            <path d="M426.3168,416.9008 L287.8488,416.9008 C286.0218,416.9008 284.8618,416.2268 285.2668,415.4118 L294.8968,396.0158 C295.1968,395.4118 296.7088,394.9218 298.2598,394.9218 L415.8248,394.9218 C417.3768,394.9218 418.8908,395.4118 419.1918,396.0158 L428.8938,415.4118 C429.3018,416.2268 428.1438,416.9008 426.3168,416.9008 Z" id="Stroke-64" stroke="#B5B5B5" stroke-width="0.583"></path>
            <line x1="290.0746" y1="411.7152" x2="424.3356" y2="411.7152" id="Stroke-65" stroke="#B5B5B5" stroke-width="0.583"></line>
            <line x1="291.3657" y1="407.0785" x2="422.7637" y2="407.0785" id="Stroke-66" stroke="#B5B5B5" stroke-width="0.583"></line>
            <line x1="292.8481" y1="402.7465" x2="421.2841" y2="402.7465" id="Stroke-67" stroke="#B5B5B5" stroke-width="0.583"></line>
            <line x1="294.1767" y1="398.6899" x2="419.9227" y2="398.6899" id="Stroke-68" stroke="#B5B5B5" stroke-width="0.583"></line>
            <path d="M377.3647,345.4486 L377.3647,372.7646 C377.3647,373.8016 376.3977,374.6486 375.2167,374.6486 L334.9317,374.6486 C333.7497,374.6486 332.7827,373.8016 332.7827,372.7646 L332.7827,341.9946 C332.7827,340.9586 333.7497,340.1106 334.9317,340.1106 L345.7977,340.1106 C345.9497,340.1106 346.0947,340.1656 346.2007,340.2616 C347.2537,341.2126 348.5937,342.6716 349.6137,343.5646 L375.2167,343.5646 C376.3977,343.5646 377.3647,344.4126 377.3647,345.4486 Z" id="Stroke-69" stroke="#F03434" stroke-width="1.826"></path>
            <g id="Group-72" transform="translate(351.000000, 350.141000)">
                <path d="M0.1264,2.752 C0.1264,1.558 1.4544,0.579 3.0764,0.579 L5.5354,0.579 C7.1584,0.579 8.4854,1.558 8.4854,2.752" id="Fill-70" fill="#FFFFFF"></path>
                <path d="M0.1264,2.752 C0.1264,1.558 1.4544,0.579 3.0764,0.579 L5.5354,0.579 C7.1584,0.579 8.4854,1.558 8.4854,2.752" id="Stroke-71" stroke="#37B1CC" stroke-width="1.044"></path>
            </g>
            <g id="Group-75" transform="translate(350.000000, 352.141000)">
                <line x1="1.1264" y1="0.752" x2="1.1264" y2="3.106" id="Fill-73" fill="#FFFFFF"></line>
                <line x1="1.1264" y1="0.752" x2="1.1264" y2="3.106" id="Stroke-74" stroke="#37B1CC" stroke-width="1.044"></line>
            </g>
            <g id="Group-78" transform="translate(358.000000, 352.141000)">
                <line x1="1.4853" y1="0.752" x2="1.4853" y2="3.106" id="Fill-76" fill="#FFFFFF"></line>
                <line x1="1.4853" y1="0.752" x2="1.4853" y2="3.106" id="Stroke-77" stroke="#37B1CC" stroke-width="1.044"></line>
            </g>
            <path d="M349.7993,366.9076 C348.3613,366.9076 347.1903,365.7366 347.1903,364.2986 L347.1903,358.3446 C347.1903,356.9056 348.3613,355.7346 349.7993,355.7346 L360.8133,355.7346 C362.2513,355.7346 363.4223,356.9056 363.4223,358.3446 L363.4223,364.2986 C363.4223,365.7366 362.2513,366.9076 360.8133,366.9076 L349.7993,366.9076 Z" id="Fill-79" fill="#37B1CC"></path>
            <path d="M360.8129,355.2133 L349.7989,355.2133 C348.0779,355.2133 346.6679,356.6213 346.6679,358.3443 L346.6679,364.2983 C346.6679,366.0203 348.0779,367.4293 349.7989,367.4293 L360.8129,367.4293 C362.5349,367.4293 363.9439,366.0203 363.9439,364.2983 L363.9439,358.3443 C363.9439,356.6213 362.5349,355.2133 360.8129,355.2133 M360.8129,356.2563 C361.9639,356.2563 362.8999,357.1923 362.8999,358.3443 L362.8999,364.2983 C362.8999,365.4483 361.9639,366.3853 360.8129,366.3853 L349.7989,366.3853 C348.6479,366.3853 347.7119,365.4483 347.7119,364.2983 L347.7119,358.3443 C347.7119,357.1923 348.6479,356.2563 349.7989,356.2563 L360.8129,356.2563" id="Fill-80" fill="#37B1CC"></path>
            <path d="M356.56,360.099 C356.56,360.706 355.998,361.199 355.306,361.199 C354.614,361.199 354.052,360.706 354.052,360.099 C354.052,359.492 354.614,358.999 355.306,358.999 C355.998,358.999 356.56,359.492 356.56,360.099" id="Fill-81" fill="#18343A"></path>
            <path d="M355.3325,363.642 L355.2795,363.642 C355.0645,363.642 354.8885,363.466 354.8885,363.25 L354.8885,360.857 C354.8885,360.642 355.0645,360.465 355.2795,360.465 L355.3325,360.465 C355.5475,360.465 355.7245,360.642 355.7245,360.857 L355.7245,363.25 C355.7245,363.466 355.5475,363.642 355.3325,363.642" id="Fill-82" fill="#18343A"></path>
            <path d="M22.663,433.766 C21.061,433.766 19.758,432.462 19.758,430.861 L19.758,325.477 C19.758,323.875 21.061,322.572 22.663,322.572 L174.882,322.572 C176.484,322.572 177.788,323.875 177.788,325.477 L177.788,430.861 C177.788,432.462 176.484,433.766 174.882,433.766 L22.663,433.766 Z" id="Fill-83" fill="#B5B5B5"></path>
            <path d="M174.8823,321.807 L22.6633,321.807 C20.6443,321.807 18.9933,323.458 18.9933,325.477 L18.9933,430.861 C18.9933,432.879 20.6443,434.531 22.6633,434.531 L174.8823,434.531 C176.9013,434.531 178.5523,432.879 178.5523,430.861 L178.5523,325.477 C178.5523,323.458 176.9013,321.807 174.8823,321.807 M174.8823,323.336 C176.0633,323.336 177.0233,324.296 177.0233,325.477 L177.0233,430.861 C177.0233,432.041 176.0633,433.001 174.8823,433.001 L22.6633,433.001 C21.4823,433.001 20.5223,432.041 20.5223,430.861 L20.5223,325.477 C20.5223,324.296 21.4823,323.336 22.6633,323.336 L174.8823,323.336" id="Fill-84" fill="#B5B5B5"></path>
            <polygon id="Fill-85" fill="#FFFFFF" points="29.499 427.386 163.258 427.386 163.258 329.348 29.499 329.348"></polygon>
            <path d="M171.1801,381.0492 C169.6801,381.0492 168.4611,379.8292 168.4611,378.3292 C168.4611,376.8302 169.6801,375.6112 171.1801,375.6112 C172.6801,375.6112 173.8991,376.8302 173.8991,378.3292 C173.8991,379.8292 172.6801,381.0492 171.1801,381.0492" id="Fill-86" fill="#B5B5B5"></path>
            <path d="M171.1801,374.8461 C169.2561,374.8461 167.6961,376.4061 167.6961,378.3291 C167.6961,380.2531 169.2561,381.8141 171.1801,381.8141 C173.1041,381.8141 174.6641,380.2531 174.6641,378.3291 C174.6641,376.4061 173.1041,374.8461 171.1801,374.8461 M171.1801,376.3751 C172.2581,376.3751 173.1351,377.2521 173.1351,378.3291 C173.1351,379.4081 172.2581,380.2841 171.1801,380.2841 C170.1021,380.2841 169.2251,379.4081 169.2251,378.3291 C169.2251,377.2521 170.1021,376.3751 171.1801,376.3751" id="Fill-87" fill="#FFFFFF"></path>
            <path d="M24.2626,377.2279 C24.9546,377.2279 25.5156,377.7889 25.5156,378.4809 C25.5156,379.1729 24.9546,379.7349 24.2626,379.7349 C23.5706,379.7349 23.0096,379.1729 23.0096,378.4809 C23.0096,377.7889 23.5706,377.2279 24.2626,377.2279" id="Fill-88" fill="#FFFFFF"></path>
            <path d="M117.9721,362.4369 L117.9721,395.2289 C117.9721,396.4719 116.9541,397.4909 115.7111,397.4909 L73.3081,397.4909 C72.0641,397.4909 71.0461,396.4719 71.0461,395.2289 L71.0461,358.2909 C71.0461,357.0469 72.0641,356.0299 73.3081,356.0299 L84.7451,356.0299 C84.9061,356.0299 85.0581,356.0959 85.1691,356.2099 C86.2781,357.3529 87.6891,359.1039 88.7621,360.1759 L115.7111,360.1759 C116.9541,360.1759 117.9721,361.1939 117.9721,362.4369 Z" id="Stroke-89" stroke="#F03434" stroke-width="2.053"></path>
            <g id="Group-92" transform="translate(90.000000, 368.141000)">
                <path d="M0.3544,3.2334 C0.3544,1.7984 1.7514,0.6254 3.4594,0.6254 L6.0474,0.6254 C7.7554,0.6254 9.1524,1.7984 9.1524,3.2334" id="Fill-90" fill="#FFFFFF"></path>
                <path d="M0.3544,3.2334 C0.3544,1.7984 1.7514,0.6254 3.4594,0.6254 L6.0474,0.6254 C7.7554,0.6254 9.1524,1.7984 9.1524,3.2334" id="Stroke-91" stroke="#37B1CC" stroke-width="1.173"></path>
            </g>
            <g id="Group-95" transform="translate(89.000000, 371.141000)">
                <line x1="1.3544" y1="0.2334" x2="1.3544" y2="3.0594" id="Fill-93" fill="#FFFFFF"></line>
                <line x1="1.3544" y1="0.2334" x2="1.3544" y2="3.0594" id="Stroke-94" stroke="#37B1CC" stroke-width="1.173"></line>
            </g>
            <g id="Group-98" transform="translate(98.000000, 371.141000)">
                <line x1="1.1533" y1="0.2334" x2="1.1533" y2="3.0594" id="Fill-96" fill="#FFFFFF"></line>
                <line x1="1.1533" y1="0.2334" x2="1.1533" y2="3.0594" id="Stroke-97" stroke="#37B1CC" stroke-width="1.173"></line>
            </g>
            <path d="M89.1816,388.2358 C87.5646,388.2358 86.2486,386.9208 86.2486,385.3028 L86.2486,377.6778 C86.2486,376.0608 87.5646,374.7458 89.1816,374.7458 L100.3266,374.7458 C101.9436,374.7458 103.2596,376.0608 103.2596,377.6778 L103.2596,385.3028 C103.2596,386.9208 101.9436,388.2358 100.3266,388.2358 L89.1816,388.2358 Z" id="Fill-99" fill="#37B1CC"></path>
            <path d="M100.3261,374.1586 L89.1811,374.1586 C87.2451,374.1586 85.6621,375.7426 85.6621,377.6786 L85.6621,385.3036 C85.6621,387.2396 87.2451,388.8226 89.1811,388.8226 L100.3261,388.8226 C102.2621,388.8226 103.8461,387.2396 103.8461,385.3036 L103.8461,377.6786 C103.8461,375.7426 102.2621,374.1586 100.3261,374.1586 M100.3261,375.3316 C101.6201,375.3316 102.6721,376.3846 102.6721,377.6786 L102.6721,385.3036 C102.6721,386.5966 101.6201,387.6496 100.3261,387.6496 L89.1811,387.6496 C87.8881,387.6496 86.8351,386.5966 86.8351,385.3036 L86.8351,377.6786 C86.8351,376.3846 87.8881,375.3316 89.1811,375.3316 L100.3261,375.3316" id="Fill-100" fill="#37B1CC"></path>
            <path d="M96.0737,380.0248 C96.0737,380.7538 95.4827,381.3438 94.7537,381.3438 C94.0247,381.3438 93.4337,380.7538 93.4337,380.0248 C93.4337,379.2958 94.0247,378.7048 94.7537,378.7048 C95.4827,378.7048 96.0737,379.2958 96.0737,380.0248" id="Fill-101" fill="#18343A"></path>
            <path d="M94.7538,384.2768 L94.7538,384.2768 C94.5118,384.2768 94.3138,384.0798 94.3138,383.8378 L94.3138,380.9048 C94.3138,380.6628 94.5118,380.4638 94.7538,380.4638 C94.9958,380.4638 95.1938,380.6628 95.1938,380.9048 L95.1938,383.8378 C95.1938,384.0798 94.9958,384.2768 94.7538,384.2768" id="Fill-102" fill="#18343A"></path>
            <path d="M368.4272,177.2997 C368.4272,177.2997 414.4972,202.8537 381.8332,294.2077" id="Stroke-103" stroke="#F03434" stroke-width="3.774" stroke-linecap="round" stroke-linejoin="round" stroke-dasharray="16.175,16.175"></path>
            <path d="M399.9814,286.476 L399.4394,285.429 C399.1094,284.791 398.3244,284.542 397.6874,284.872 L383.5644,292.201 C382.8944,292.548 382.0704,292.254 381.7734,291.561 L375.4954,276.938 C375.2114,276.278 374.4474,275.973 373.7884,276.257 L372.7044,276.723 C372.0454,277.006 371.7414,277.77 372.0244,278.429 L379.9074,296.779 C380.2044,297.472 381.0284,297.767 381.6984,297.419 L399.4254,288.226 C400.0624,287.896 400.3104,287.113 399.9814,286.476" id="Fill-104" fill="#F03434"></path>
            <path d="M97.5449,177.2997 C97.5449,177.2997 51.4749,202.8537 84.1399,294.2077" id="Stroke-105" stroke="#F03434" stroke-width="3.774" stroke-linecap="round" stroke-linejoin="round" stroke-dasharray="16.175,16.175"></path>
            <path d="M65.9911,286.476 L66.5331,285.429 C66.8631,284.791 67.6481,284.542 68.2851,284.872 L82.4081,292.201 C83.0781,292.548 83.9021,292.254 84.1991,291.561 L90.4771,276.938 C90.7611,276.278 91.5251,275.973 92.1841,276.257 L93.2681,276.723 C93.9261,277.006 94.2301,277.77 93.9481,278.429 L86.0651,296.779 C85.7671,297.472 84.9441,297.767 84.2741,297.419 L66.5471,288.226 C65.9101,287.896 65.6611,287.113 65.9911,286.476" id="Fill-106" fill="#F03434"></path>
        </g>
    </g>
</svg>