<?xml version="1.0" encoding="UTF-8"?>
<svg width="250px" height="600px" viewBox="0 0 250 600" version="1.1" xmlns="http://www.w3.org/2000/svg" xmlns:xlink="http://www.w3.org/1999/xlink">
    <!-- Generator: Sketch 62 (91390) - https://sketch.com -->
    <title>Daniela</title>
    <desc>Created with Sketch.</desc>
    <g id="Daniela" stroke="none" stroke-width="1" fill="none" fill-rule="evenodd">
        <g id="Group-Copy" transform="translate(43.000000, 69.000000)">
            <path d="M124.029574,223.341403 L121.427169,224.291567 L120.518393,219.224026 L119.058843,214.321731 L119.086381,212.269928 L119.086381,212.187305 C119.045073,211.925666 119.141459,211.608944 119.196536,211.361075 C119.582078,210.121731 120.835087,209.226649 122.129405,209.199108 C122.514947,209.185338 123.010643,209.350584 123.107028,209.777469 C123.107028,210.465993 122.611332,211.044354 122.418561,211.691567 C122.170713,212.696813 122.03302,213.74337 122.060559,214.789928 C122.088097,215.450911 122.156944,216.125666 122.473639,216.731567 C122.969335,217.612879 123.767957,218.411567 123.781726,219.499436 L123.823034,219.761075 C123.823034,219.981403 123.960727,220.4496 123.878111,220.669928 C123.795495,220.848944 123.451262,220.848944 123.299799,220.711239 L124.029574,223.341403 Z" id="Fill-15" fill="#F1D5C3"></path>
            <path d="M118.203767,321.124013 C118.318052,351.463161 117.588277,381.865652 114.732516,412.082243 C112.661608,433.342505 109.621338,454.668866 103.214464,475.086374 L95.6151662,475.350767 C95.1112084,447.685849 97.4712731,419.269062 96.5501043,391.279161 C95.4279032,359.805325 92.3353097,328.339751 86.392463,297.398833 C85.350124,291.974636 84.205892,286.550439 82.9776669,281.166177 C82.5356712,279.252079 82.081283,277.27739 81.6048638,275.370177 C81.4217316,274.732603 81.3088231,273.855423 81.0072745,273.253652 C80.5680326,272.713849 79.6330945,272.632603 79.1966065,273.260538 C76.9549581,281.587554 75.3797457,290.133521 73.7508329,298.609259 C68.0930115,329.543292 65.2606585,360.960669 64.3780439,392.382177 C63.6758076,420.049849 65.7894011,447.798767 65.7618624,475.389325 L58.2561958,475.257128 C53.3969961,460.120603 50.3663645,444.422243 48.2665404,428.664669 C45.5581114,408.612079 44.1095769,388.390111 43.2421086,368.177784 C42.191508,343.579554 42.0620762,318.8808 42.5082028,294.266046 C42.7381508,282.18657 43.1112998,270.074046 43.6827274,258.006964 C44.1550157,251.738636 45.2386627,244.634439 45.8596599,238.381259 L45.8720523,238.368866 C46.6128427,233.360538 47.4279876,228.321915 48.3849567,223.34939 L111.443021,223.119423 C113.049903,231.037456 114.262982,239.134505 115.166251,247.169587 C116.241636,254.366046 116.673993,262.058243 116.938365,269.294636 C117.683286,286.551816 118.096366,303.851685 118.203767,321.124013" id="Fill-113" fill="#F1D5C3"></path>
            <polygon id="Fill-115" fill="#F1D5C3" points="80.8471371 105.065134 71.6781343 102.600216 71.455071 127.946184 80.9517841 130.650708 81.2271709 130.649331 90.7032299 127.884216 90.3149346 102.539626 81.1638319 105.065134"></polygon>
            <path d="M71.6671188,103.154892 C71.6671188,103.154892 71.5156561,106.247744 71.5142792,106.823351 C71.5115253,107.538039 71.51841,107.90158 71.51841,107.90158 L90.389289,106.08663 L90.3796505,103.134236 L71.6671188,103.154892 Z" id="Fill-117" fill="#DF715C"></path>
            <path d="M117.854163,202.317993 C117.501668,200.77019 81.1285824,201.988879 81.1285824,201.988879 C81.1258285,201.988879 44.8147048,202.317993 44.8147048,202.317993 C40.705934,205.936879 37.1603292,354.758715 38.1792603,357.321403 C54.5427427,370.364813 107.633183,370.364813 123.998042,357.321403 C124.669986,354.632026 119.850717,213.218715 117.854163,202.317993" id="Fill-119" fill="#383838"></path>
            <polygon id="Fill-121" fill="#C7C7C7" points="72.8443973 126.648177 81.0922314 126.648177 81.1362932 204.2628 75.3118629 204.2628 70.5876027 127.422079"></polygon>
            <path d="M82.0458958,22.8423541 C119.940494,24.4424852 124.54496,41.8442557 124.006579,51.8581574 C123.658215,58.3619607 123.878524,64.8809115 124.960795,71.306223 C125.103996,72.1544852 125.244443,73.0123869 125.382136,73.8689115 C125.718108,75.9620262 124.730847,78.3691082 123.13498,80.7500262 C118.041702,88.3540918 109.18664,92.7234689 99.9033515,92.6716057 L63.2714021,92.4645836 C54.8734823,92.4163869 46.8473346,88.7451738 41.6686862,82.2675344 C39.4050069,79.4376984 37.8118944,76.4357311 38.2249745,73.8689115 C38.5003613,72.1558623 38.7908944,70.4345508 39.0759197,68.8013705 C40.0025962,63.4900918 40.1182586,58.092059 39.6597397,52.7229443 C38.81981,42.8811738 42.5526778,24.4893049 81.561215,22.8423541 L82.0458958,22.8423541 Z" id="Fill-123" fill="#69BAC9"></path>
            <path d="M81.5442788,45.2355148 C81.6599412,45.2644328 89.4024405,44.2137443 99.6247977,44.7521705 C109.848532,45.2919738 109.51256,59.2401049 109.51256,59.2401049 C109.51256,59.2401049 107.547675,93.5561705 106.881239,94.493941 C106.16248,95.5074492 99.202079,103.671974 81.5511634,103.671974 L81.5566712,103.673351 C63.9016247,103.673351 56.93847,95.5074492 56.2197105,94.495318 C55.5532745,93.5561705 53.5883899,59.2401049 53.5883899,59.2401049 C53.5883899,59.2401049 53.252418,45.2919738 63.4775291,44.7521705 C73.7040171,44.2137443 81.4478934,45.2644328 81.5649328,45.2355148 L81.5442788,45.2355148 Z" id="Fill-125" fill="#F1D5C3"></path>
            <path d="M74.6327591,71.0612459 C74.6327591,76.8668852 70.4978266,81.5736393 65.3976634,81.5736393 C60.2975003,81.5736393 56.1625678,76.8668852 56.1625678,71.0612459 C56.1625678,65.2556066 60.2975003,60.5502295 65.3976634,60.5502295 C70.4978266,60.5502295 74.6327591,65.2556066 74.6327591,71.0612459 Z" id="Stroke-127" stroke="#000000"></path>
            <path d="M67.2552849,71.0612459 C67.2552849,73.0579672 66.4236169,74.677377 65.3978011,74.677377 C64.3719854,74.677377 63.5403173,73.0579672 63.5403173,71.0612459 C63.5403173,69.0645246 64.3719854,67.4464918 65.3978011,67.4464918 C66.4236169,67.4464918 67.2552849,69.0645246 67.2552849,71.0612459" id="Fill-129" fill="#000000"></path>
            <path d="M74.6959603,69.5564066 C75.0484554,69.512341 79.015402,68.8086689 81.1276186,68.8086689" id="Stroke-131" stroke="#000000"></path>
            <path d="M87.6222027,71.0612459 C87.6222027,76.8668852 91.7571352,81.5736393 96.8572983,81.5736393 C101.957461,81.5736393 106.092394,76.8668852 106.092394,71.0612459 C106.092394,65.2556066 101.957461,60.5502295 96.8572983,60.5502295 C91.7571352,60.5502295 87.6222027,65.2556066 87.6222027,71.0612459 Z" id="Stroke-133" stroke="#000000"></path>
            <path d="M94.9996768,71.0612459 C94.9996768,73.0579672 95.8313449,74.677377 96.8571606,74.677377 C97.8829764,74.677377 98.7146444,73.0579672 98.7146444,71.0612459 C98.7146444,69.0645246 97.8829764,67.4464918 96.8571606,67.4464918 C95.8313449,67.4464918 94.9996768,69.0645246 94.9996768,71.0612459" id="Fill-135" fill="#000000"></path>
            <path d="M87.5583129,69.5564066 C87.2071948,69.512341 83.2388713,68.8086689 81.1266547,68.8086689" id="Stroke-137" stroke="#000000"></path>
            <path d="M69.1889132,86.0964197 C69.047089,86.0964197 66.6030314,86.0496 66.4625841,88.682518" id="Stroke-139" stroke="#DF715C" stroke-width="0.5" stroke-linecap="round" stroke-linejoin="round"></path>
            <path d="M93.1110743,87.7586557 C90.9988577,89.8710492 71.2563795,89.8710492 69.1427859,87.7586557" id="Stroke-141" stroke="#DF715C" stroke-width="0.5" stroke-linecap="round" stroke-linejoin="round"></path>
            <path d="M93.0660485,86.0964197 C93.2078727,86.0964197 95.6519304,86.0496 95.7923776,88.682518" id="Stroke-143" stroke="#DF715C" stroke-width="0.5" stroke-linecap="round" stroke-linejoin="round"></path>
            <path d="M55.2769239,68.7400918 C55.2769239,72.1111082 55.5784724,76.2973377 52.545087,76.2973377 C49.5117017,76.2973377 44.2917453,72.1111082 44.2917453,68.7400918 C44.2917453,65.3690754 46.7509492,62.6370098 49.7843346,62.6370098 C52.81772,62.6370098 55.2769239,65.3690754 55.2769239,68.7400918" id="Fill-145" fill="#F1D5C3"></path>
            <path d="M107.561445,68.7400918 C107.561445,72.1111082 107.259896,76.2973377 110.293282,76.2973377 C113.326667,76.2973377 118.546623,72.1111082 118.546623,68.7400918 C118.546623,65.3690754 116.087419,62.6370098 113.054034,62.6370098 C110.020649,62.6370098 107.561445,65.3690754 107.561445,68.7400918" id="Fill-147" fill="#F1D5C3"></path>
            <path d="M81.02187,22.2007869 C81.335811,22.2007869 102.576393,21.8909508 102.576393,11.815082 C102.576393,1.74059016 85.6153215,0 81.1210093,0 L81.1168785,0 C76.6225662,0 59.6614945,1.74059016 59.6614945,11.815082 C59.6614945,21.8909508 80.9034537,22.2007869 81.2160177,22.2007869 L81.02187,22.2007869 Z" id="Fill-149" fill="#69BAC9"></path>
            <path d="M108.178036,43.6749049 C107.87511,43.1667738 107.343614,42.8321508 106.746024,42.7729377 L81.7037277,40.3217902 L81.7037277,40.3204131 L81.69822,40.3204131 L81.6899584,40.3204131 L81.6899584,40.3217902 L57.577092,42.7688066 C56.972618,42.8293967 56.4369907,43.1750361 56.1381961,43.6941836 L50.2297727,53.9532 C49.5495674,55.1347082 50.3605814,56.6081508 51.7388923,56.697659 C52.4548979,56.7431016 53.1282186,56.3836918 53.4875983,55.7750361 C54.8177164,53.5276918 58.9292411,48.436741 68.1051285,50.5036918 C73.7533114,51.7760852 77.7725814,48.688741 81.69822,48.6859869 C85.7643058,48.688741 89.9322847,51.7760852 95.7856306,50.5036918 C105.337421,48.4271016 109.594901,53.5717574 110.953934,55.8039541 C111.314691,56.3988393 111.97975,56.7444787 112.683363,56.7004131 L112.796272,56.6935279 C114.191106,56.6067738 115.00212,55.1085443 114.295753,53.925659 L108.178036,43.6749049 Z" id="Fill-151" fill="#69BAC9"></path>
            <path d="M88.7953503,22.3628656 C88.7953503,23.1395213 85.3557695,23.7702098 81.1134361,23.7702098 C76.8697259,23.7702098 73.430145,23.1395213 73.430145,22.3628656 C73.430145,21.5862098 76.8697259,20.9555213 81.1134361,20.9555213 C85.3557695,20.9555213 88.7953503,21.5862098 88.7953503,22.3628656" id="Fill-153" fill="#2B5165"></path>
            <path d="M81.0911298,80.5532459 C80.1933689,80.470623 78.4281397,80.305377 78.1871762,79.9198033 C77.8512043,79.3841311 78.6346797,78.1929836 79.1014603,77.3419672 C79.5076558,76.6024918 80.3985321,75.4980984 80.8873436,74.8756721 C80.9974983,74.7352131 81.2673773,74.7338361 81.3775321,74.8742951 C81.8690975,75.4939672 82.7682353,76.5928525 83.1813155,77.3281967 C83.6536038,78.176459 84.4425869,79.3620984 84.1093689,79.8991475 C83.8711593,80.2874754 81.9847599,80.4651148 81.0911298,80.5532459" id="Fill-155" fill="#FF3434"></path>
            <path d="M23.7419707,233.885193 C25.0390425,234.597128 34.1144138,237.780866 34.3140692,236.961521 C36.0200903,229.981259 35.2889384,222.861915 35.8039117,216.008341 C35.8920354,214.835095 29.7082253,213.416734 26.6638245,212.209062 C26.1268202,219.926046 24.7195938,226.241193 23.7419707,233.885193" id="Fill-157" fill="#C7C7C7"></path>
            <path d="M24.9374247,235.685823 C-40.7257989,168.597364 41.1742292,115.74897 66.5855443,112.262282 C71.7394079,132.408511 77.7731322,148.674216 81.1397356,168.695134 C81.4825921,170.735921 81.130097,172.384249 81.1259662,174.608184 C78.5593615,184.597298 77.8433558,204.45297 76.4485218,212.779987 C74.569007,224.002938 77.5459381,224.662544 68.653699,228.847397 C61.6051744,232.164708 50.9091519,234.038872 42.6723333,235.979134 C40.9938509,236.374348 40.7818031,234.421692 40.5642475,233.22779 C38.7260408,223.169823 56.2640478,157.715921 41.0654515,154.198938 C22.015571,149.791003 8.43349507,193.515069 27.618315,211.47179 C26.1091955,219.855266 27.6155612,228.307593 24.9374247,235.685823" id="Fill-159" fill="#2B5165"></path>
            <polygon id="Fill-161" fill="#E58585" points="70.7062944 110.39583 47.5614125 118.469469 62.5810074 128.845534 56.4164744 132.916092 81.1214224 174.09537 81.1159146 167.2776"></polygon>
            <polygon id="Stroke-163" stroke="#E58585" stroke-linecap="round" stroke-linejoin="round" points="70.7062944 110.39583 47.5614125 118.469469 62.5810074 128.845534 56.4164744 132.916092 81.1214224 174.09537 81.1159146 167.2776"></polygon>
            <path d="M44.3603166,214.322007 L42.9007667,219.224302 L41.9919903,224.291843 L39.4033546,223.341679 L40.1331295,220.697744 C40.1468989,220.697744 40.1468989,220.697744 40.1606682,220.683974 C40.2570536,220.58758 40.2845923,220.28463 40.2845923,220.160695 C40.3121309,219.761351 40.2708229,219.362007 40.3396696,218.976433 C40.2570536,219.334466 40.1331295,220.367252 40.1882069,220.31217 L40.2432842,220.2984 L40.1331295,220.697744 C39.9816668,220.84922 39.6374333,220.84922 39.5548173,220.670203 C39.4584319,220.449875 39.5961253,219.981679 39.6098946,219.761351 L39.6374333,219.499711 C39.664972,218.411843 40.4498243,217.613154 40.9592899,216.731843 C41.2622153,216.125941 41.331062,215.451187 41.3586007,214.790203 C41.3999087,213.743646 41.2622153,212.697089 41.0005979,211.691843 C40.8078271,211.04463 40.3121309,210.466269 40.3121309,209.777744 C40.4222856,209.350859 40.9042125,209.185613 41.3035233,209.199384 C42.5840719,209.226925 43.850851,210.122007 44.2226232,211.361351 C44.2777006,211.60922 44.3740859,211.939711 44.3327779,212.201351 L44.3327779,212.270203 L44.3603166,214.322007 Z" id="Fill-165" fill="#F1D5C3"></path>
            <path d="M40.3391188,218.976295 C40.2702721,219.361869 40.3115802,219.761213 40.2840415,220.160557 C40.2840415,220.284492 40.2565028,220.587443 40.1601174,220.683836 C40.1463481,220.697607 40.1463481,220.697607 40.1325788,220.697607 L40.2427335,220.298262 L40.1876561,220.312033 C40.1325788,220.367115 40.2565028,219.334328 40.3391188,218.976295" id="Fill-167" fill="#F1D5C3"></path>
            <path d="M40.3391188,218.976295 C40.2702721,219.361869 40.3115802,219.761213 40.2840415,220.160557 C40.2840415,220.284492 40.2565028,220.587443 40.1601174,220.683836 C40.1463481,220.697607 40.1463481,220.697607 40.1325788,220.697607 L40.2427335,220.298262 L40.1876561,220.312033 C40.1325788,220.367115 40.2565028,219.334328 40.3391188,218.976295" id="Fill-169" fill="#F1D5C3"></path>
            <path d="M41.7086173,238.304144 C42.8101644,239.397521 43.8373571,241.037587 44.2063754,242.493128 C44.3082685,242.893849 44.1581827,244.604144 43.381592,244.21857 C42.5334007,243.79857 41.9399422,242.6928 41.1192896,242.148866 C40.4349534,241.695816 39.7506173,241.253784 39.0373655,240.848931 C38.5279,240.559751 37.9991574,240.311882 37.4910688,240.022702 C35.7244626,239.021587 30.8033008,236.175226 33.4938297,233.68139 L41.7086173,238.304144 Z" id="Fill-171" fill="#F1D5C3"></path>
            <path d="M34.1564103,230.831174 C33.6910066,231.29937 33.0149321,232.738387 33.3715579,233.268551 C34.3615734,234.741993 36.4724131,235.369928 37.9512401,236.102518 C39.8858322,237.062321 41.5904764,238.23419 43.3653442,239.41019 C44.1694735,239.940354 46.4111219,241.854452 47.1119813,240.940092 C48.4957998,239.13478 44.9212795,234.852157 44.4007984,234.334387 L34.1564103,230.831174 Z" id="Fill-173" fill="#F1D5C3"></path>
            <path d="M41.7442799,238.335679 C40.5367088,237.280859 37.7814641,235.865252 36.7102096,235.409449 C35.7367173,234.967416 34.5732081,234.218302 33.8572025,233.39758 C33.7580633,233.268138 33.6245007,233.142826 33.5845696,232.981711 C33.535,232.539679 33.7580633,232.111416 33.971488,231.738236 C34.0775119,231.550957 34.2262208,231.392597 34.3597834,231.225974 C34.4671842,231.041449 34.3391294,230.79358 34.1257046,230.77017 C33.8971336,230.745384 33.7690788,230.976728 33.6410239,231.128203 C33.4179606,231.432531 33.2320745,231.768531 33.1026427,232.12381 C32.9897342,232.447416 32.9084951,232.804072 32.9883572,233.144203 C33.0420577,233.385187 33.2114205,233.576597 33.3615063,233.765252 C34.6516934,235.263482 36.6372321,235.7964 38.347384,236.651548 C39.0248354,236.990302 39.3415302,237.07981 41.0847285,238.02722 C41.4826624,238.244793 41.7194951,238.342564 41.7442799,238.335679" id="Fill-175" fill="#E5B79E"></path>
            <path d="M33.9318323,225.82257 C33.6316607,226.187489 33.3590278,226.741062 33.1194413,227.616866 C32.856447,228.576669 33.1717648,229.813259 33.8781319,230.693193 C34.5115215,231.480866 36.4571291,231.625456 37.4443907,231.869193 C39.7782937,232.446177 42.2457592,233.299948 44.2794906,234.42362 C44.7889561,234.703161 46.8667494,236.553915 47.852634,234.774767 C48.6388633,233.357784 45.5283696,230.224997 44.250575,229.61221 L33.9318323,225.82257 Z" id="Fill-177" fill="#F1D5C3"></path>
            <path d="M44.7758752,234.753836 C44.3586643,234.552787 43.8409371,234.208525 43.5242423,234.007475 C42.7531593,233.628787 42.4970496,233.502098 41.6805278,233.159213 C40.0763998,232.500984 38.8936136,231.885443 37.2027388,231.498492 C36.2994702,231.308459 35.3383703,231.224459 34.5067022,230.798951 C34.1610918,230.630951 33.949044,230.293574 33.7686657,229.96859 C33.4588555,229.39023 33.2853619,228.723738 33.3487008,228.065508 C33.4216783,227.524328 33.6185799,226.998295 33.8540356,226.508066 C33.9793366,226.192721 34.5631565,225.724525 33.9931059,225.517967 C33.7741734,225.46977 33.6433647,225.674951 33.5387177,225.831934 C33.3404392,226.121115 33.1889765,226.446098 33.0650525,226.775213 C32.6629878,227.718492 32.5941411,228.785705 32.9879442,229.742754 L33.0306291,229.848787 C33.2178921,230.288066 33.4588555,230.72459 33.804466,231.059213 C34.3015391,231.491607 34.9624674,231.663738 35.5889723,231.813836 C36.8516207,232.050689 38.1183998,232.315082 39.3397402,232.714426 C41.3004941,233.342361 44.4027261,234.643672 44.7442058,234.748328 C44.7703675,234.752459 44.7731214,234.753836 44.7758752,234.753836" id="Fill-179" fill="#E5B79E"></path>
            <path d="M42.2774287,220.309003 C42.3297522,220.439823 42.0984273,220.328282 41.9979111,220.3572 C41.146966,220.603692 40.375883,220.563757 39.5056607,220.662905 C37.9042866,220.846052 35.6158225,220.821266 34.105326,221.392741 C33.0974104,221.774184 32.3428506,223.452807 32.689838,224.484216 C33.023056,225.470184 34.8089392,226.352872 35.7246003,226.611757 C38.708416,227.453134 41.8492022,228.704872 44.7586636,229.787233 C45.7968717,230.174184 48.1899828,231.061003 48.5094315,230.799364 C51.4051235,228.43497 44.7269941,224.901462 42.1893049,224.274905 C41.4760532,224.10002 39.8182247,223.474839 39.5717536,222.740872 L42.2774287,220.309003 Z" id="Fill-181" fill="#F1D5C3"></path>
            <path d="M41.7927479,223.882033 C41.7679631,223.872393 41.4553991,223.685115 41.4319913,223.676852 C41.104281,223.540525 40.9115103,223.579082 40.6375004,223.541902 C40.2257972,223.48682 40.0137494,223.364262 39.7177086,223.000721 C39.5455918,222.810689 39.2798436,222.458164 39.2646973,222.712918 C39.2619434,222.913967 39.3996368,223.092984 39.5194301,223.244459 C40.3111671,224.073443 40.3937831,223.75259 41.4650377,224.055541 C41.6027311,224.100984 41.6178773,224.099607 41.7541938,224.14918 C41.7720939,224.015607 41.7831094,223.982557 41.7927479,223.882033" id="Fill-183" fill="#E5B79E"></path>
            <path d="M35.1977854,226.09619 C34.6125885,225.848321 34.0452917,225.538485 33.5578571,225.128125 C33.1874619,224.826551 32.8845364,224.403797 32.9120751,223.906682 C32.9382368,223.127272 33.2989935,222.32583 33.9213676,221.843862 C34.3206785,221.59737 35.5544112,221.049305 36.0198149,220.965305 C35.8738599,220.915731 35.7444281,220.867534 35.6673198,220.846879 C35.5709344,220.820715 35.4015716,220.735338 35.2363395,220.775272 C34.7117277,220.873043 34.1967544,221.006616 33.7162045,221.239338 C32.7427122,221.87278 32.1809232,223.13278 32.3241243,224.281239 C32.5747263,225.559141 33.9874605,226.228387 35.0724844,226.711731 C37.9254914,227.583403 42.7062059,229.368059 44.2772875,229.61042 C44.2635181,229.410748 38.7902059,227.190944 35.1977854,226.09619" id="Fill-185" fill="#E5B79E"></path>
            <polygon id="Fill-187" fill="#C7C7C7" points="89.3870188 126.648177 81.1405617 126.648177 81.0951229 204.2628 86.9195533 204.2628 91.6438135 127.422079"></polygon>
            <path d="M66.5681949,458.283069 L52.2687364,458.283069 C52.2687364,458.283069 51.4948996,470.770151 49.132081,472.008118 C46.7692624,473.246085 33.6071513,478.1952 33.6071513,479.883462 L33.6071513,482.470938 L55.9933426,482.470938 C55.9933426,482.470938 57.1196745,476.283856 58.8064186,476.283856 C60.4931626,476.283856 60.3816309,482.246479 60.8305114,482.246479 L65.5561485,482.246479 C65.5561485,482.246479 67.0749066,457.776315 66.5681949,458.283069" id="Fill-189" fill="#C7C7C7"></path>
            <path d="M94.5008136,458.283069 L108.800272,458.283069 C108.800272,458.283069 109.575486,470.770151 111.938304,472.008118 C114.299746,473.246085 127.461857,478.1952 127.461857,479.883462 L127.461857,482.470938 L105.075666,482.470938 C105.075666,482.470938 103.950711,476.283856 102.26259,476.283856 C100.575846,476.283856 100.688755,482.246479 100.238497,482.246479 L95.51286,482.246479 C95.51286,482.246479 93.994102,457.776315 94.5008136,458.283069" id="Fill-191" fill="#C7C7C7"></path>
            <path d="M139.304315,233.623003 C138.00862,234.333561 128.933249,237.517298 128.732216,236.697954 C127.026195,229.719069 127.758724,222.599725 127.243751,215.746151 C127.155627,214.571528 133.33806,213.153167 136.383838,211.946872 C136.920842,219.663856 138.328069,225.977626 139.304315,233.623003" id="Fill-193" fill="#C7C7C7"></path>
            <path d="M138.108861,235.685823 C203.772085,168.597364 121.872056,115.74897 96.4607413,112.262282 C91.3068778,132.408511 85.2731534,148.674216 81.9065501,168.695134 C81.5636935,170.735921 81.9175655,172.384249 81.9203194,174.608184 C84.4869242,184.597298 85.2029298,204.45297 86.5977638,212.779987 C88.4772786,224.002938 85.5003475,224.662544 94.3925866,228.847397 C101.441111,232.164708 112.138511,234.038872 120.375329,235.979134 C122.052435,236.374348 122.265859,234.421692 122.483415,233.22779 C124.320245,223.169823 106.782238,157.715921 121.980834,154.198938 C141.030715,149.791003 154.614167,193.515069 135.427971,211.47179 C136.938467,219.855266 137.938121,227.784315 138.108861,235.685823" id="Fill-195" fill="#2B5165"></path>
            <polygon id="Fill-197" fill="#E58585" points="91.5256726 110.39583 114.669177 118.469469 99.6509595 128.845534 105.815493 132.916092 81.1105446 174.09537 81.1160523 167.2776"></polygon>
            <polygon id="Stroke-199" stroke="#E58585" stroke-linecap="round" stroke-linejoin="round" points="91.5256726 110.39583 114.669177 118.469469 99.6509595 128.845534 105.815493 132.916092 81.1105446 174.09537 81.1160523 167.2776"></polygon>
            <path d="M84.44479,172.106223 C84.44479,173.914289 82.9783554,175.380846 81.1704412,175.380846 C79.362527,175.380846 77.8960924,173.914289 77.8960924,172.106223 C77.8960924,170.298157 79.362527,168.8316 81.1704412,168.8316 C82.9783554,168.8316 84.44479,170.298157 84.44479,172.106223" id="Fill-201" fill="#69BAC9"></path>
            <path d="M121.714811,238.304144 C120.613263,239.397521 119.586071,241.037587 119.217052,242.493128 C119.115159,242.893849 119.265245,244.604144 120.041836,244.21857 C120.890027,243.79857 121.483486,242.6928 122.304138,242.148866 C122.988474,241.695816 123.672811,241.253784 124.386062,240.848931 C124.895528,240.559751 125.42427,240.311882 125.932359,240.022702 C127.698965,239.021587 132.620127,236.175226 129.929598,233.68139 L121.714811,238.304144 Z" id="Fill-203" fill="#F1D5C3"></path>
            <path d="M129.267018,230.831174 C129.732421,231.29937 130.407119,232.738387 130.05187,233.268551 C129.061854,234.741993 126.951015,235.369928 125.470811,236.102518 C123.537596,237.062321 121.832951,238.23419 120.058084,239.41019 C119.253954,239.940354 117.012306,241.854452 116.311447,240.940092 C114.927628,239.13478 118.502148,234.852157 119.022629,234.334387 L129.267018,230.831174 Z" id="Fill-205" fill="#F1D5C3"></path>
            <path d="M121.679148,238.335679 C122.886719,237.280859 125.641964,235.865252 126.713218,235.409449 C127.686711,234.967416 128.85022,234.218302 129.566225,233.39758 C129.663988,233.268138 129.798927,233.142826 129.838858,232.981711 C129.887051,232.539679 129.665365,232.111416 129.45194,231.738236 C129.345916,231.550957 129.197207,231.392597 129.063644,231.225974 C128.956244,231.041449 129.084298,230.79358 129.297723,230.77017 C129.526294,230.745384 129.654349,230.976728 129.782404,231.128203 C130.005467,231.432531 130.191353,231.768531 130.320785,232.12381 C130.433694,232.447416 130.513556,232.804072 130.435071,233.144203 C130.38137,233.385187 130.212007,233.576597 130.061922,233.765252 C128.771734,235.263482 126.786196,235.7964 125.076044,236.651548 C124.398592,236.990302 124.081898,237.07981 122.338699,238.02722 C121.940765,238.244793 121.703933,238.342564 121.679148,238.335679" id="Fill-207" fill="#E5B79E"></path>
            <path d="M129.490907,225.82257 C129.791079,226.187489 130.065088,226.741062 130.303298,227.616866 C130.566292,228.576669 130.252351,229.813259 129.544607,230.693193 C128.911218,231.480866 126.966987,231.625456 125.978349,231.869193 C123.644446,232.446177 121.178357,233.299948 119.143249,234.42362 C118.633783,234.703161 116.55599,236.553915 115.571482,234.774767 C114.783876,233.357784 117.895747,230.224997 119.172164,229.61221 L129.490907,225.82257 Z" id="Fill-209" fill="#F1D5C3"></path>
            <path d="M118.647553,234.753836 C119.064764,234.552787 119.582491,234.208525 119.899186,234.007475 C120.670268,233.628787 120.926378,233.502098 121.7429,233.159213 C123.347028,232.500984 124.528437,231.885443 126.220689,231.498492 C127.123958,231.308459 128.085058,231.224459 128.916726,230.798951 C129.262336,230.630951 129.474384,230.293574 129.654762,229.96859 C129.964572,229.39023 130.138066,228.723738 130.074727,228.065508 C130.001749,227.524328 129.804848,226.998295 129.569392,226.508066 C129.442714,226.192721 128.860271,225.724525 129.430322,225.517967 C129.649254,225.46977 129.780063,225.674951 129.88471,225.831934 C130.082989,226.121115 130.234451,226.446098 130.358375,226.775213 C130.76044,227.718492 130.829287,228.785705 130.435484,229.742754 L130.392799,229.848787 C130.205536,230.288066 129.964572,230.72459 129.618962,231.059213 C129.121889,231.491607 128.459584,231.663738 127.834456,231.813836 C126.571807,232.050689 125.305028,232.315082 124.083688,232.714426 C122.122934,233.342361 119.020702,234.643672 118.679222,234.748328 C118.65306,234.752459 118.64893,234.753836 118.647553,234.753836" id="Fill-211" fill="#E5B79E"></path>
            <path d="M121.63068,220.411869 C122.481625,220.658361 123.046168,220.563344 123.917767,220.662492 C125.519141,220.845639 127.807605,220.820852 129.318102,221.392328 C130.326017,221.77377 131.080577,223.452393 130.73359,224.483803 C130.400372,225.46977 128.614489,226.352459 127.698828,226.611344 C124.715012,227.452721 121.574226,228.704459 118.664764,229.788197 C117.626556,230.17377 115.233445,231.06059 114.913996,230.798951 C112.018304,228.434557 118.696434,224.901049 121.234123,224.275869 C121.947375,224.099607 123.605203,223.474426 123.851674,222.740459 L121.63068,220.411869 Z" id="Fill-213" fill="#F1D5C3"></path>
            <path d="M121.63068,223.882033 C121.655465,223.872393 121.968029,223.685115 121.991437,223.676852 C122.319147,223.540525 122.511918,223.579082 122.785927,223.541902 C123.197631,223.48682 123.409678,223.364262 123.705719,223.000721 C123.877836,222.810689 124.143584,222.458164 124.158731,222.712918 C124.161484,222.913967 124.023791,223.092984 123.903998,223.244459 C123.112261,224.073443 123.029645,223.75259 121.95839,224.055541 C121.820697,224.100984 121.80555,224.099607 121.669234,224.14918 C121.651334,224.015607 121.640318,223.982557 121.63068,223.882033" id="Fill-215" fill="#E5B79E"></path>
            <path d="M128.225642,226.09619 C128.810839,225.848321 129.378136,225.538485 129.865571,225.128125 C130.235966,224.826551 130.538891,224.403797 130.509976,223.906682 C130.485191,223.127272 130.124434,222.32583 129.50206,221.843862 C129.102749,221.59737 127.869017,221.049305 127.403613,220.965305 C127.549568,220.915731 127.679,220.867534 127.756108,220.846879 C127.852493,220.820715 128.021856,220.735338 128.187088,220.775272 C128.7117,220.873043 129.226673,221.006616 129.707223,221.239338 C130.680716,221.87278 131.242505,223.13278 131.099304,224.281239 C130.848702,225.559141 129.435967,226.228387 128.350943,226.711731 C125.497936,227.583403 120.717222,229.368059 119.14614,229.61042 C119.15991,229.410748 124.633222,227.190944 128.225642,226.09619" id="Fill-217" fill="#E5B79E"></path>
        </g>
    </g>
</svg>