<?xml version="1.0" encoding="UTF-8"?>
<svg width="500px" height="500px" viewBox="0 0 500 500" version="1.1" xmlns="http://www.w3.org/2000/svg" xmlns:xlink="http://www.w3.org/1999/xlink">
    <!-- Generator: Sketch 62 (91390) - https://sketch.com -->
    <title>Data integrity across organizations with consento</title>
    <desc>Created with Sketch.</desc>
    <defs>
        <polygon id="path-1" points="0.84 0.898 77.2357864 0.898 77.2357864 66.6855 0.84 66.6855"></polygon>
        <polygon id="path-3" points="0.0483 0.8124 48.1936333 0.8124 48.1936333 33 0.0483 33"></polygon>
        <polygon id="path-5" points="0.1067 -0.0007 89.0487 -0.0007 89.0487 35 0.1067 35"></polygon>
    </defs>
    <g id="Data-integrity-across-organizations-with-consento" stroke="none" stroke-width="1" fill="none" fill-rule="evenodd">
        <g id="Group-244" transform="translate(16.000000, 88.000000)">
            <path d="M191.2987,95.6546 C237.7057,99.1286 279.2867,125.4006 301.3957,165.2046 C306.3857,174.1886 301.1097,185.4226 290.8127,187.5976 L282.8107,189.2896 C276.1347,190.7006 269.3637,187.7226 266.0117,181.9626 C258.3257,168.7586 247.4637,157.4676 234.0387,148.9726 C220.5627,140.4456 205.4817,135.3526 189.8857,133.8866 C183.0997,133.2496 177.5457,128.4316 176.1687,121.9186 L174.5207,114.1236 C172.4007,104.0926 180.8277,94.8706 191.2987,95.6546" id="Fill-1" fill="#EEA8A8"></path>
            <path d="M270.3143,303.2337 C223.8383,305.6077 179.2903,284.7577 152.3643,248.0417 C146.2863,239.7547 150.1123,227.9477 160.0553,224.4977 L167.7813,221.8157 C174.2283,219.5787 181.3183,221.6837 185.3673,226.9777 C194.6483,239.1147 206.8403,248.9527 221.2243,255.6967 C235.6643,262.4667 251.2643,265.6287 266.9203,265.1257 C273.7343,264.9077 279.8483,268.9897 282.0313,275.2797 L284.6433,282.8057 C288.0043,292.4927 280.8013,302.6977 270.3143,303.2337" id="Fill-3" fill="#9ADAE6"></path>
            <path d="M186.7196,123.4925 C187.3996,125.6175 188.2966,127.7105 188.5226,129.9115 C188.7826,132.4435 188.0746,135.1135 186.2416,137.0515 C188.0666,138.1035 190.4066,137.9205 192.5606,138.1455 C194.8916,138.3905 197.2356,141.0075 199.5646,141.262582 C199.8866,141.2975 205.5306,130.1275 206.1246,129.3275 C207.2936,127.7535 208.7136,123.5585 205.7896,123.8065 C202.5026,124.0845 202.6226,120.3805 199.1896,120.2785 C197.8126,120.2375 196.4346,120.1965 195.0576,120.1565 C194.4996,120.1395 193.9286,120.1205 193.4096,119.9365 C192.9246,119.7645 192.5156,119.4585 192.0876,119.1895 C190.8156,118.3895 186.1706,115.5495 186.1556,117.2195 C186.1366,119.3345 186.2856,122.1345 186.7196,123.4925" id="Fill-5" fill="#E8C5A6"></path>
            <polygon id="Fill-7" fill="#FFFFFF" points="197.6761 133.5697 187.7881 125.9507 200.2581 98.4637 213.2951 100.3527"></polygon>
            <polygon id="Stroke-9" stroke="#919191" stroke-width="0.944" stroke-linecap="round" stroke-linejoin="round" points="197.6761 133.5697 187.7881 125.9507 200.2581 98.4637 213.2951 100.3527"></polygon>
            <polygon id="Fill-11" fill="#FFFFFF" points="197.0794 133.308 186.6264 126.496 199.6014 97.991 212.6304 100.099"></polygon>
            <polygon id="Stroke-13" stroke="#B5B5B5" stroke-width="0.734" stroke-linecap="round" stroke-linejoin="round" points="197.0794 133.308 186.6264 126.496 199.6014 97.991 212.6304 100.099"></polygon>
            <path d="M208.8778,122.0785 C208.9648,122.0005 209.0598,121.9305 209.1388,121.8425 C209.8858,121.0225 210.4488,120.0085 210.3558,118.9085 C210.3018,118.2815 210.1058,117.7145 209.6048,117.2575 C209.5298,117.1895 209.4388,117.1315 209.3508,117.0705 C209.5758,116.7775 209.7708,116.4745 209.8548,116.0985 C209.9678,115.5845 209.9648,115.4495 209.8978,114.9945 C209.8348,114.5655 209.7788,114.4035 209.5298,113.9645 C209.3688,113.6925 209.1488,113.4745 208.8698,113.3095 C208.6228,113.1025 208.5508,112.8475 208.2168,112.7745 C207.8758,112.6785 207.4738,113.9605 206.0578,114.1005 C205.0088,114.2045 199.7588,114.4385 199.1768,114.7505 C198.8778,114.8965 198.6378,115.0975 198.4568,115.3505 C198.2308,115.5765 198.0778,115.8415 197.9978,116.1445 C197.8488,116.7435 197.8808,117.4145 198.2568,117.9445 C198.6158,118.4525 199.1328,118.8625 199.7888,119.0175 C200.0998,119.0915 200.3228,119.0465 200.6418,119.0855 C200.9608,119.1245 204.8778,118.7215 205.1998,118.7195 C205.2138,118.7195 205.2278,118.7175 205.2408,118.7175 C205.2408,118.7265 205.2388,118.7365 205.2388,118.7465 C205.1858,118.7745 205.1328,118.8035 205.0778,118.8285 C204.5678,118.9875 201.9338,119.6095 201.4008,119.6885 C200.9238,119.7365 200.5668,119.9715 200.0858,119.9745 C199.4258,119.9775 199.1348,120.0375 198.6668,120.4635 C198.2218,120.8685 197.8868,121.5325 197.9158,122.1145 C197.9448,122.7185 198.1628,123.3455 198.6668,123.7655 C199.1658,124.1825 201.3818,123.9455 202.0748,123.9405 C202.5098,123.9375 202.9428,123.9125 203.3758,123.8745 C201.8908,124.3765 202.3528,124.1405 200.7888,124.3375 C200.1998,124.4115 199.5418,124.9675 199.2568,125.4095 C198.9358,125.9105 198.7988,126.6475 198.9988,127.2095 C199.1988,127.7745 199.5838,128.3195 200.1768,128.6045 C200.3808,128.6825 200.5848,128.7625 200.7888,128.8405 C201.2438,128.9515 201.6978,128.9515 202.1518,128.8405 C203.7648,128.6375 203.3678,128.8865 204.8918,128.3385 C206.5348,127.7485 208.1378,126.9345 209.2448,125.6445 C209.6818,125.1355 209.9958,124.6695 209.9958,123.9935 C209.9958,123.4215 209.7158,122.7365 209.2448,122.3425 C209.1308,122.2475 209.0068,122.1595 208.8778,122.0785" id="Fill-15" fill="#E8C5A6"></path>
            <path d="M193.6473,115.5589 C194.0773,116.8059 196.2243,117.8429 196.4323,118.2379 C196.6403,118.6319 195.2293,119.5749 194.3783,119.7029 C193.7633,119.7949 193.1493,119.5769 192.5653,119.3609 C190.4543,118.5799 188.3423,117.7999 186.2303,117.0199 C185.9873,115.1309 188.3873,112.0139 190.1013,111.3559 C192.4863,110.4399 193.0223,113.7459 193.6473,115.5589" id="Fill-17" fill="#E8C5A6"></path>
            <path d="M187.6043,134.221 C187.6043,134.221 185.7723,138.328 184.3523,143.599 C186.9093,143.063 188.9733,143.414 191.2463,144.529 C194.4003,146.075 196.5153,149.154 197.4363,152.865 C198.8353,149.47 200.1903,145.874 201.4983,142.056 C203.4273,136.425 191.4823,131.881 187.6043,134.221" id="Fill-19" fill="#FFFFFF"></path>
            <path d="M187.6043,134.221 C187.6043,134.221 185.7723,138.328 184.3523,143.599 C186.9093,143.063 188.9733,143.414 191.2463,144.529 C194.4003,146.075 196.5153,149.154 197.4363,152.865 C198.8353,149.47 200.1903,145.874 201.4983,142.056 C203.4273,136.425 191.4823,131.881 187.6043,134.221 Z" id="Stroke-21" stroke="#919191" stroke-width="0.865"></path>
            <path d="M116.0091,112.3187 C114.4811,136.3377 120.3241,164.4667 120.3241,164.4667 C120.3241,164.4667 132.1561,192.2817 158.6411,187.7197 C185.1261,183.1587 199.0871,153.0507 200.3191,146.6657 C201.2611,141.7827 191.7791,139.3987 187.2621,138.5477 C185.9701,138.3027 185.0611,139.2787 184.2401,140.4617 C180.3271,146.0997 174.3631,166.5097 159.9001,165.2917 C138.1731,163.4597 127.4731,116.4937 123.1671,115.0077" id="Fill-23" fill="#2B5165"></path>
            <path d="M55.9447,112.5462 C52.9427,114.0062 33.6597,120.6812 34.4017,125.3782 C35.1427,130.0742 40.9797,171.9032 41.2247,173.6872 C43.6677,191.4142 54.4247,243.2112 56.0557,240.8002 C57.0257,239.3662 127.6017,224.7592 127.6017,224.7592 C127.6017,224.7592 118.9497,147.8742 119.1967,146.8862 C119.4437,145.8972 126.2857,116.8702 123.1527,114.9942 C120.0177,113.1192 105.8467,109.0622 105.8467,109.0622 L98.7577,105.5142 L55.9447,112.5462 Z" id="Fill-25" fill="#2B5165"></path>
            <path d="M97.0506,106.1107 C97.0506,106.1107 102.9976,150.2257 95.6416,187.8357 C95.7256,187.9347 97.6186,186.7527 97.6186,186.7527 C97.6186,186.7527 114.9156,118.8297 114.2716,118.3547 C113.6506,117.8967 104.7596,112.9587 104.7596,112.9587 C104.7596,112.9587 112.7756,111.0767 112.3366,110.9647 C111.8866,110.8497 95.5536,103.7047 95.5536,103.7047 L97.0506,106.1107 Z" id="Fill-27" fill="#A8A8A8"></path>
            <path d="M69.1112,109.4388 L86.3822,170.6828 L97.3962,185.9818 C97.3962,185.9818 100.2232,143.5248 99.3862,127.1288 C99.3312,126.0558 98.5062,113.6558 98.5062,113.6558 L69.1112,109.4388 Z" id="Fill-29" fill="#C1B9B2"></path>
            <path d="M130.9002,60.1107 C130.9002,60.1107 137.3832,81.7197 129.0582,88.4597 C128.9752,88.5267 128.8912,88.5927 128.8082,88.6607 C117.8312,97.4237 103.3552,100.6767 89.6772,97.4847 C82.0452,95.7037 74.4532,91.9367 71.0462,84.2307 C62.9862,65.9947 74.8792,66.7877 74.8792,66.7877 C74.8792,66.7877 73.6902,57.4057 74.4832,55.9517 C75.2752,54.4987 78.0502,49.8737 78.0502,49.8737 C78.0502,49.8737 75.8042,31.5057 88.2252,30.5797 C100.6472,29.6547 124.3012,25.8227 125.4902,31.7687 C126.6792,37.7157 130.9002,60.1107 130.9002,60.1107" id="Fill-31" fill="#E8C5A6"></path>
            <path d="M100.2264,63.5023 C100.2264,65.6003 99.4304,67.2993 98.4494,67.2993 C97.4674,67.2993 96.6714,65.6003 96.6714,63.5023 C96.6714,61.4053 97.4674,59.7063 98.4494,59.7063 C99.4304,59.7063 100.2264,61.4053 100.2264,63.5023" id="Fill-33" fill="#000000"></path>
            <path d="M125.8612,61.1078 C125.8612,63.2048 125.0662,64.9048 124.0842,64.9048 C123.1022,64.9048 122.3072,63.2048 122.3072,61.1078 C122.3072,59.0108 123.1022,57.3108 124.0842,57.3108 C125.0662,57.3108 125.8612,59.0108 125.8612,61.1078" id="Fill-35" fill="#000000"></path>
            <path d="M104.6019,82.2103 C104.9149,82.4193 104.3939,85.6553 115.7729,84.6113" id="Fill-37" fill="#000000"></path>
            <path d="M110.8988,64.6224 C111.2368,64.6224 113.9328,73.5464 114.9678,73.7054 C116.0038,73.8644 112.8168,76.7324 112.8168,76.7324 L110.9848,76.6524" id="Fill-39" fill="#C16363"></path>
            <path d="M103.0648,73.7816 L90.9688,75.0796 C90.2518,75.1556 89.6608,74.6716 89.6588,74.0006 L89.6197952,54.9656 C89.6178,54.2326 90.2358,53.6356 90.9878,53.6415552 L103.6268,53.7336 C104.2748,53.7386 104.7858,54.2946 104.7648,54.9686 L104.2288,72.5316 C104.2098,73.1536 103.6878,73.7156 103.0648,73.7816 Z" id="Stroke-41" stroke="#000000"></path>
            <path d="M128.4881,69.8255 L119.2051,71.0275 C118.6571,71.0985 118.2061,70.6525 118.2051,70.0345 L118.175098,52.9555 C118.1741,52.3145 118.6331,51.7875 119.1921,51.7845 L128.6551,51.7354862 C129.1431,51.7325 129.5361,52.2185 129.530168,52.8115 L129.3691,68.6695 C129.3631,69.2435 128.9681,69.7635 128.4881,69.8255 Z" id="Stroke-43" stroke="#000000"></path>
            <path d="M104.6595,66.0697 C106.2215,65.5927 111.3405,60.9837 118.1955,64.9577" id="Stroke-45" stroke="#000000" stroke-width="1.045"></path>
            <path d="M89.472,58.3753 C88.45,58.3753 66.898,57.9493 66.898,57.9493" id="Stroke-47" stroke="#000000"></path>
            <path d="M77.2445,68.7005 C77.2445,75.1085 76.7845,80.7135 71.8245,80.7135 C66.8645,80.7135 57.9565,75.3385 57.9565,68.9295 C57.9565,62.5205 62.4595,57.5025 67.4195,57.5025 C72.3795,57.5025 77.2445,62.2915 77.2445,68.7005" id="Fill-49" fill="#E8C5A6"></path>
            <g id="Group-53" transform="translate(54.000000, 0.102000)">
                <mask id="mask-2" fill="white">
                    <use xlink:href="#path-1"></use>
                </mask>
                <g id="Clip-52"></g>
                <path d="M6.284,61.5165 C6.284,61.5165 -1.165,25.2715 1.986,22.9795 L5.138,20.6875 L0.84,17.2485 C0.84,17.2485 8.433,19.1115 8.72,18.1085 C9.006,17.1055 13.591,8.3665 13.591,8.3665 L14.88,13.0945 C14.88,13.0945 31.784,0.3435 49.119,0.9165 C66.454,1.4905 77.055,13.0945 77.055,13.0945 C77.055,13.0945 77.665,56.3185 76.644,57.7005 C75.622,59.0805 73.033,30.7985 69.606,29.8555 C65.048,28.6015 33.131,29.3975 28.445,33.7915 C23.337,38.5815 24.339,48.9125 24.051,49.7715 C23.762,50.6285 25.195,64.6675 25.195,64.6675 L20.879,66.6855 L20.103,60.5975 C20.103,60.5975 12.588,52.9205 6.284,61.5165" id="Fill-51" fill="#000000" mask="url(#mask-2)"></path>
            </g>
            <path d="M79.368,93.4505 L74.408,104.5035 C74.408,104.5035 84.845,115.5555 85.384,115.5555 C85.924,115.5555 92.942,114.6565 92.942,114.6565 C92.942,114.6565 94.657,98.6845 96.816,97.7755 C97.811,97.3565 79.368,93.4505 79.368,93.4505" id="Fill-54" fill="#E8C5A6"></path>
            <path d="M85.3841,115.556 C85.3841,115.556 85.4311,115.543 85.5191,115.523 C86.2581,115.341 89.9021,114.498 92.9421,114.657 C96.3421,114.833 95.8331,122.467 95.8331,122.467 C95.8331,122.467 95.5791,123.74 92.6951,124.333 C89.8111,124.927 83.0251,124.333 83.0251,124.333 C83.0251,124.333 83.1951,118.481 83.2791,118.226 C83.3641,117.971 85.3841,115.556 85.3841,115.556" id="Fill-56" fill="#69BAC9"></path>
            <path d="M94.8563,102.8578 C93.7773,106.8478 93.6013,109.9298 92.8893,114.6308 L98.6853,127.1288 C98.6853,127.1288 98.7583,106.4338 98.7583,105.5138 C98.7583,104.5928 94.8563,102.8578 94.8563,102.8578" id="Fill-58" fill="#C1B9B2"></path>
            <path d="M92.6947,124.3334 C93.8527,124.5984 99.0417,141.5154 99.2417,143.2394 C100.0397,150.1194 97.2827,184.5334 97.2827,184.5334 C96.8437,186.5694 89.1737,170.9844 89.6087,170.4064 C89.6507,170.3514 85.8847,126.5614 86.4627,124.5984 C87.0397,122.6354 92.6947,124.3334 92.6947,124.3334" id="Fill-60" fill="#69BAC9"></path>
            <path d="M70.5262,108.764 C70.5262,108.764 78.6392,152.532 97.3602,185.97 C97.3122,186.09 96.8502,186.271 96.8502,186.271 C96.8502,186.271 52.9382,128.15 53.6542,127.863 C54.3702,127.576 65.8212,116.841 65.8212,116.841 C65.8212,116.841 55.6672,112.368 56.0962,112.225 C56.5262,112.082 71.9032,106.25 71.9032,106.25 L70.5262,108.764 Z" id="Fill-62" fill="#A8A8A8"></path>
            <path d="M70.5262,108.764 C70.2972,110.086 81.7202,128.759 83.5932,129.243 C83.6472,129.258 83.8952,129.468 83.8952,129.468 C83.8952,129.468 77.7642,120.611 76.2552,118.331 C75.3342,116.939 70.5262,108.764 70.5262,108.764" id="Fill-64" fill="#A8A8A8"></path>
            <polygon id="Fill-66" fill="#A8A8A8" points="84.6732 124.4476 83.9652 129.4506 85.6172 124.4756"></polygon>
            <polyline id="Fill-68" fill="#A8A8A8" points="98.6854 127.1293 95.8744 121.0683 95.8234 122.0513"></polyline>
            <path d="M93.2098,124.9808 C92.8358,125.0758 86.4018,125.5128 86.4018,125.5128 C86.4018,125.5128 86.4098,124.6418 86.4798,124.5438 C86.5488,124.4478 92.4958,124.2858 92.6948,124.3338 C92.8938,124.3808 93.2098,124.9808 93.2098,124.9808" id="Fill-70" fill="#448A93"></path>
            <path d="M97.3602,185.9701 C97.8202,186.6731 104.2452,230.0441 104.2452,230.0441" id="Stroke-72" stroke="#1F3C49"></path>
            <path d="M99.7396,185.9701 C99.7396,187.2151 98.5156,188.2251 97.0066,188.2251 C95.4966,188.2251 94.2726,187.2151 94.2726,185.9701 C94.2726,184.7251 95.4966,183.7151 97.0066,183.7151 C98.5156,183.7151 99.7396,184.7251 99.7396,185.9701" id="Fill-74" fill="#353535"></path>
            <path d="M104.3973,213.7503 C104.6013,214.9793 103.5603,216.1753 102.0703,216.4233 C100.5813,216.6703 99.2083,215.8753 99.0043,214.6463 C98.7993,213.4183 99.8413,212.2213 101.3313,211.9743 C102.8203,211.7263 104.1923,212.5213 104.3973,213.7503" id="Fill-76" fill="#353535"></path>
            <path d="M72.0423,218.5638 C56.6693,220.2748 55.8103,218.0038 49.8083,218.0938" id="Stroke-78" stroke="#1F3C49"></path>
            <polygon id="Fill-80" fill="#919191" points="129.2601 262.638 207.9011 231.506 177.3801 207.814 85.0521 234.793"></polygon>
            <path d="M85.0516,234.7933 C85.0516,234.7933 84.9586,235.7093 85.0516,236.1023 C85.1756,236.6223 129.1616,264.3113 129.1616,264.3113 L129.1616,262.5763 L85.0516,234.7933 Z" id="Fill-82" fill="#666666"></path>
            <polygon id="Fill-84" fill="#666666" points="129.162 262.5765 210.725 232.2135 210.67 234.1865 129.162 264.3105"></polygon>
            <polygon id="Fill-86" fill="#D3D3D3" points="133.5916 254.5199 175.9386 237.7559 159.5036 224.9979 109.7866 239.5259"></polygon>
            <polygon id="Fill-88" fill="#666666" points="113.4002 235.9877 137.5422 228.6827 129.4782 224.4477 106.1362 230.9837"></polygon>
            <polygon id="Fill-90" fill="#B5B5B5" points="129.5189 262.1742 210.3779 231.9702 210.5259 171.8712 129.0559 193.7242"></polygon>
            <polygon id="Stroke-92" stroke="#B5B5B5" stroke-width="0.583" points="129.5189 262.1742 210.3779 231.9702 210.5259 171.8712 129.0559 193.7242"></polygon>
            <path d="M97.9373,233.7826 C98.9033,234.0006 104.4673,237.3436 113.3123,237.5126 C117.4793,237.5936 115.3773,234.6866 115.3773,234.6866 C115.3773,234.6866 107.2783,231.5196 100.7643,227.6106 L97.9373,233.7826 Z" id="Fill-94" fill="#E8C5A6"></path>
            <path d="M101.2044,221.9837 C101.2044,221.9837 110.1994,228.8097 114.8644,229.5047 C116.9594,229.8177 119.1734,230.5657 119.4864,232.2447 C119.9764,234.8707 110.3294,232.9077 110.3294,232.9077 L104.1894,230.5837 L101.2044,221.9837 Z" id="Fill-96" fill="#E8C5A6"></path>
            <path d="M110.3543,227.8334 C110.3543,227.8334 117.4233,227.3684 118.1223,227.1934 C118.8203,227.0194 120.5683,224.1304 117.2353,224.4124 C115.3293,224.5734 108.2783,223.5954 108.0033,223.4574 C108.0033,223.4574 102.3483,221.9764 99.7043,220.6244 C96.2373,218.8514 83.8963,220.8844 83.8963,220.8844 L84.3423,234.1414 C85.0403,234.1414 92.0093,232.0964 94.9403,233.6324 C97.8723,235.1674 101.5773,238.5304 106.1153,239.9274 C109.4893,240.9654 111.5563,240.5374 111.5853,239.6854 C111.6673,237.2834 108.3813,237.1284 106.6363,236.0964 C104.8063,235.0144 100.9753,233.5124 99.5643,232.0184" id="Fill-98" fill="#E8C5A6"></path>
            <path d="M110.5794,227.348 C109.6234,227.238 102.6744,224.142 99.6754,224.199" id="Stroke-100" stroke="#C49E82" stroke-width="0.75"></path>
            <path d="M111.8836,233.3168 C110.9276,233.2058 104.2026,229.0398 101.2046,229.0958" id="Stroke-102" stroke="#C49E82" stroke-width="0.75"></path>
            <path d="M109.7376,236.8226 C108.7816,236.7116 104.0376,234.3396 101.0536,233.6126" id="Stroke-104" stroke="#C49E82" stroke-width="0.75"></path>
            <path d="M82.015,218.3656 C82.015,218.3656 77.521,218.5606 72.164,219.7996 C73.771,222.2406 74.364,224.6206 74.364,227.6206 C74.364,231.7856 72.532,235.6426 69.606,238.5586 C73.269,238.2766 77.095,237.8426 81.099,237.2406 C87.004,236.3546 85.823,221.2706 82.015,218.3656" id="Fill-106" fill="#FFFFFF"></path>
            <path d="M82.015,218.3656 C82.015,218.3656 77.521,218.5606 72.164,219.7996 C73.771,222.2406 74.364,224.6206 74.364,227.6206 C74.364,231.7856 72.532,235.6426 69.606,238.5586 C73.269,238.2766 77.095,237.8426 81.099,237.2406 C87.004,236.3546 85.823,221.2706 82.015,218.3656 Z" id="Stroke-108" stroke="#919191" stroke-width="0.942"></path>
            <path d="M85.534,115.016 C85.534,115.016 84.358,129.723 83.895,129.468 C79.421,127.003 69.197,107.504 69.572,107.174 C69.938,106.852 75.732,99.773 75.732,99.773 L85.534,115.016 Z" id="Fill-110" fill="#C1B9B2"></path>
            <path d="M96.1576,98.515 C94.5846,98.467 80.2986,94.013 79.3676,93.451 C79.2516,93.38 78.6816,94.864 78.6816,94.864 L94.6026,103.704 L96.1576,98.515 Z" id="Fill-112" fill="#A87F60"></path>
            <polygon id="Fill-114" fill="#1F3C49" points="125.2069 172.8177 120.2549 150.5927 121.0659 166.2757"></polygon>
            <path d="M62.7762,65.182 C63.0072,64.951 70.0402,60.185 71.2892,68.097" id="Fill-116" fill="#A87F60"></path>
            <path d="M70.7381,110.6419 L83.8951,129.4679 L78.1101,122.4909 C75.3051,118.5779 73.6841,117.1839 72.5831,114.3109 L70.7381,110.6419 Z" id="Fill-118" fill="#A8A8A8"></path>
            <path d="M35.4071,123.0326 C35.4071,123.0326 -4.8259,179.3736 0.4831,205.5216 C6.4681,235.0056 29.9781,246.0746 71.0561,239.4036 C77.0841,238.4256 76.0061,222.2396 72.1181,219.0316 C72.1181,219.0316 26.6611,225.2326 30.0101,198.1816 C33.3601,171.1316 47.2711,165.7206 47.2711,165.7206 L35.4071,123.0326 Z" id="Fill-120" fill="#2B5165"></path>
            <path d="M35.4071,123.0326 C35.4071,123.0326 49.3401,131.8756 40.8161,170.7486" id="Stroke-122" stroke="#1F3C49"></path>
            <line x1="115.5453" y1="112.014" x2="121.0943" y2="166.264" id="Stroke-124" stroke="#1F3C49"></line>
            <path d="M204.1937,106.1136 C204.0817,105.6846 203.8607,105.3366 203.5557,105.0906 C203.4237,104.9836 203.4067,104.7736 203.5127,104.5676 L203.6407,104.3206 C203.8077,103.9996 204.1897,103.8306 204.4047,103.9866 C205.3887,104.6986 205.7567,106.0636 205.3487,107.5416 C205.2577,107.8686 204.8857,108.1016 204.6067,108.0086 L204.3917,107.9366 C204.2147,107.8776 204.1307,107.6976 204.1817,107.4906 C204.2987,107.0126 204.3057,106.5416 204.1937,106.1136" id="Fill-126" fill="#EE3434"></path>
            <path d="M200.8333,105.1341 C200.4363,105.3771 200.0833,105.6961 199.7953,106.0651 C199.6713,106.2231 199.4943,106.2991 199.3563,106.2531 L199.1933,106.1981 C198.9853,106.1281 198.9593,105.8171 199.1393,105.5711 C199.9623,104.4501 201.1873,103.6571 202.4083,103.5161 C202.6953,103.4821 202.8293,103.7661 202.6713,104.0811 L202.5493,104.3231 C202.4493,104.5251 202.2563,104.6731 202.0733,104.6931 C201.6613,104.7371 201.2383,104.8871 200.8333,105.1341" id="Fill-128" fill="#EE3434"></path>
            <path d="M198.7298,107.2025 L198.8878,107.2615 C199.0218,107.3095 199.0868,107.4675 199.0508,107.6465 C198.9708,108.0415 198.9678,108.4305 199.0458,108.7895 C199.0898,108.9955 199.1608,109.1885 199.2548,109.3635 C199.2938,109.4355 199.3368,109.5075 199.3858,109.5715 C199.3918,109.5795 199.3978,109.5865 199.4038,109.5945 C199.5608,109.7695 199.8738,109.6795 200.0108,109.4045 L200.1208,109.1855 C200.1938,109.0385 200.1978,108.8755 200.1238,108.7645 C199.9288,108.4705 199.8618,108.0705 199.9438,107.6485 C199.9808,107.4575 200.0478,107.2615 200.1478,107.0665 C200.5728,106.2355 201.4728,105.6975 202.2178,105.8665 C202.2238,105.8685 202.2298,105.8695 202.2348,105.8705 C202.2408,105.8725 202.2458,105.8735 202.2518,105.8755 C202.2568,105.8765 202.2628,105.8785 202.2688,105.8795 C202.2738,105.8815 202.2788,105.8835 202.2848,105.8845 C202.2908,105.8865 202.2958,105.8885 202.3008,105.8895 C202.3068,105.8905 202.3128,105.8925 202.3178,105.8935 L202.3338,105.8995 C202.3388,105.9015 202.3448,105.9035 202.3508,105.9055 C202.3558,105.9065 202.3608,105.9085 202.3668,105.9115 C202.3688,105.9115 202.3708,105.9125 202.3728,105.9135 C203.1028,106.1875 203.3278,107.1255 202.8738,108.0185 C202.7678,108.2285 202.6338,108.4175 202.4818,108.5805 C202.1478,108.9385 201.7278,109.1725 201.3198,109.2385 C201.1698,109.2625 201.0288,109.3745 200.9518,109.5235 L200.8358,109.7475 C200.6918,110.0255 200.8278,110.3145 201.0938,110.3145 C201.1048,110.3145 201.1158,110.3145 201.1268,110.3135 C201.2198,110.3075 201.3148,110.2925 201.4098,110.2735 C201.6418,110.2275 201.8758,110.1485 202.1068,110.0405 C202.5168,109.8475 202.8978,109.5665 203.2258,109.2185 C203.3758,109.0575 203.5948,108.9885 203.7668,109.0525 L203.9738,109.1285 C204.2428,109.2265 204.2728,109.5835 204.0358,109.8345 C203.9228,109.9545 203.8058,110.0675 203.6838,110.1755 C203.5638,110.2815 203.4398,110.3825 203.3128,110.4755 C203.1878,110.5675 203.0598,110.6535 202.9298,110.7335 C202.8008,110.8115 202.6698,110.8835 202.5388,110.9475 C202.4078,111.0115 202.2758,111.0685 202.1438,111.1185 C202.0118,111.1675 201.8798,111.2105 201.7488,111.2455 C201.6178,111.2795 201.4868,111.3075 201.3578,111.3285 C201.2288,111.3485 201.0998,111.3615 200.9738,111.3675 C200.8468,111.3725 200.7228,111.3715 200.5998,111.3625 C200.4768,111.3525 200.3558,111.3375 200.2388,111.3125 C200.1208,111.2895 200.0048,111.2585 199.8938,111.2205 C199.7578,111.1745 199.6278,111.1175 199.5048,111.0515 C199.4038,110.9965 199.3068,110.9355 199.2148,110.8695 C199.1258,110.8045 199.0408,110.7325 198.9608,110.6555 C198.8818,110.5805 198.8088,110.4995 198.7398,110.4135 C198.6728,110.3285 198.6098,110.2385 198.5528,110.1445 C198.4968,110.0525 198.4458,109.9555 198.3998,109.8535 C198.3538,109.7545 198.3138,109.6495 198.2788,109.5425 C198.2448,109.4355 198.2158,109.3255 198.1918,109.2125 C198.1678,109.0995 198.1498,108.9835 198.1378,108.8665 C198.1258,108.7485 198.1198,108.6285 198.1188,108.5065 C198.1178,108.3835 198.1228,108.2595 198.1328,108.1335 C198.1448,108.0075 198.1608,107.8795 198.1838,107.7505 C198.1928,107.6995 198.2028,107.6485 198.2128,107.5985 C198.2708,107.3285 198.5278,107.1285 198.7298,107.2025" id="Fill-130" fill="#37AFCA"></path>
            <path d="M209.3353,117.058 C209.2753,117.141 205.2323,118.704 205.2323,118.704 C205.2323,118.704 205.3223,118.936 205.4553,118.91 C205.5873,118.883 209.7373,117.385 209.7373,117.385 L209.3353,117.058 Z" id="Fill-132" fill="#C49E82"></path>
            <path d="M208.8778,122.0785 C208.8778,122.0785 203.1218,123.8605 202.8588,123.9095 L202.7808,124.0675 L202.6248,124.1125 C202.9528,124.1785 209.5498,122.6705 209.5498,122.6705 C209.3588,122.4335 209.1438,122.2265 208.8778,122.0785" id="Fill-134" fill="#C49E82"></path>
            <path d="M207.12,127.3197 C206.774,127.3627 201.626,129.1027 200.603,128.7617 C200.543,128.7417 200.302,129.2717 200.239,129.4547 C200.209,129.5387 206.549,128.6867 206.549,128.6867 L207.12,127.3197 Z" id="Fill-136" fill="#C49E82"></path>
            <path d="M343.9764,209.2718 C343.9764,209.2718 343.4434,211.1678 343.8094,211.5728 C344.1744,211.9768 344.5504,211.5358 344.6274,211.5358 C344.7054,211.5358 346.3594,210.2848 346.3594,210.2848 L343.9764,209.2718 Z" id="Fill-138" fill="#2B5165"></path>
            <path d="M355.8485,234.2396 C355.8485,234.2396 354.2845,234.7326 353.4575,233.8896 C352.6305,233.0476 352.3915,233.1266 352.6305,233.0476 C352.8695,232.9676 354.7775,231.8536 354.7775,231.8536 C354.7775,231.8536 355.7275,231.0206 355.7435,231.1326 C355.7585,231.2436 356.2245,232.8556 356.1605,232.9516 C356.0975,233.0476 355.8485,234.2396 355.8485,234.2396" id="Fill-140" fill="#2B5165"></path>
            <path d="M290.5086,180.8099 C289.7676,183.1269 288.7896,185.4089 288.5426,187.8089 C288.2586,190.5709 288.9146,191.7419 290.5666,196.2999 C288.5756,197.4479 286.4876,196.5429 284.1396,196.7889 C281.5976,197.0559 278.5456,198.6699 276.0056,198.94907 C275.6546,198.9869 269.6556,192.6379 267.7706,188.6739 C266.8526,186.7439 263.2376,180.2009 266.4256,180.4699 C270.0096,180.7739 273.1666,177.4149 276.9106,177.3049 C278.4126,177.2599 279.9146,177.2159 281.4156,177.1709 C282.0246,177.1539 282.6476,177.1329 283.2126,176.9319 C283.7426,176.7449 284.1886,176.4119 284.6546,176.1179 C286.0416,175.2459 291.1086,172.1479 291.1236,173.9689 C291.1456,176.2749 290.9826,179.3289 290.5086,180.8099" id="Fill-142" fill="#F1D5C3"></path>
            <polygon id="Fill-144" fill="#FFFFFF" points="278.5614 191.7992 289.3424 183.4902 275.7464 153.5162 261.5294 155.5762"></polygon>
            <polygon id="Stroke-146" stroke="#919191" stroke-width="0.944" stroke-linecap="round" stroke-linejoin="round" points="278.5614 191.7992 289.3424 183.4902 275.7464 153.5162 261.5294 155.5762"></polygon>
            <polygon id="Fill-148" fill="#FFFFFF" points="279.2118 191.514 290.6098 184.085 276.4608 153 262.2538 155.3"></polygon>
            <polygon id="Stroke-150" stroke="#B5B5B5" stroke-width="0.734" stroke-linecap="round" stroke-linejoin="round" points="279.2118 191.514 290.6098 184.085 276.4608 153 262.2538 155.3"></polygon>
            <path d="M266.3456,179.2679 C266.2506,179.1819 266.1476,179.1059 266.0606,179.0099 C265.2466,178.1169 264.6326,177.0099 264.7356,175.8109 C264.7926,175.1269 265.0076,174.5079 265.5536,174.0109 C265.6346,173.9369 265.7346,173.8719 265.8296,173.8059 C265.5846,173.4879 265.3716,173.1569 265.2816,172.7469 C265.1576,172.1869 265.1596,172.0389 265.2336,171.5429 C265.3026,171.0759 265.3636,170.8979 265.6346,170.4199 C265.8106,170.1229 266.0506,169.8849 266.3546,169.7049 C266.6246,169.4809 266.7026,169.2019 267.0666,169.1219 C267.4386,169.0169 267.8766,170.4139 269.4206,170.5689 C270.5646,170.6819 276.2886,170.9379 276.9246,171.2759 C277.2506,171.4359 277.5126,171.6549 277.7086,171.9319 C277.9566,172.1779 278.1226,172.4659 278.2096,172.7979 C278.3726,173.4499 278.3376,174.1809 277.9276,174.7599 C277.5356,175.3129 276.9726,175.7609 276.2566,175.9299 C275.9176,176.0099 275.6746,175.9609 275.3266,176.0029 C274.9796,176.0459 270.7066,175.6059 270.3576,175.6049 C270.3416,175.6049 270.3266,175.6019 270.3116,175.6019 C270.3126,175.6129 270.3136,175.6229 270.3146,175.6349 C270.3716,175.6649 270.4296,175.6959 270.4896,175.7239 C271.0456,175.8979 273.2426,176.7349 273.8236,176.8219 C274.3436,176.8739 275.4086,176.9689 275.9326,176.9729 C276.6536,176.9779 276.9706,177.0409 277.4816,177.5059 C277.9666,177.9489 278.3306,178.6729 278.2996,179.3069 C278.2676,179.9659 278.0306,180.6489 277.4816,181.1079 C276.9366,181.5629 274.5196,181.3029 273.7646,181.2979 C273.2896,181.2949 272.8176,181.2679 272.3466,181.2259 C273.9646,181.7739 273.4606,181.5149 275.1656,181.7309 C275.8086,181.8119 276.5276,182.4179 276.8366,182.9009 C277.1886,183.4469 277.3366,184.2509 277.1186,184.8629 C276.9006,185.4789 276.4816,186.0739 275.8336,186.3839 C275.6116,186.4699 275.3886,186.5559 275.1656,186.6409 C274.6706,186.7619 274.1756,186.7619 273.6796,186.6409 C271.9206,186.4189 272.3546,186.6919 270.6936,186.0939 C268.9006,185.4509 267.1536,184.5639 265.9466,183.1569 C265.4696,182.6009 265.1266,182.0929 265.1266,181.3559 C265.1266,180.7319 265.4316,179.9859 265.9466,179.5549 C266.0706,179.4519 266.2046,179.3559 266.3456,179.2679" id="Fill-152" fill="#F1D5C3"></path>
            <path d="M282.9539,172.1585 C282.4859,173.5185 280.1439,174.6485 279.9179,175.0795 C279.6899,175.5105 281.2289,176.5375 282.1569,176.6775 C282.8279,176.7775 283.4979,176.5395 284.1339,176.3045 C286.4359,175.4535 288.7389,174.6025 291.0419,173.7515 C291.3069,171.6925 288.6899,168.2935 286.8209,167.5745 C284.2209,166.5755 283.6349,170.1805 282.9539,172.1585" id="Fill-154" fill="#F1D5C3"></path>
            <path d="M369.3748,180.7201 C371.0408,206.9111 363.2188,222.4951 363.2188,222.4951 C363.1618,221.7071 350.1038,245.7841 321.3108,242.0221 C292.2508,238.2261 279.8768,206.7571 276.0058,199.2091 C273.5318,194.3841 288.6408,191.1851 290.4608,195.8551 C292.0118,199.8311 292.6318,201.0421 293.5258,202.3311 C297.7938,208.4801 308.4768,225.9651 324.0258,223.0121 C345.5358,218.9271 359.5038,191.7401 363.4768,186.6831" id="Fill-156" fill="#F1D5C3"></path>
            <path d="M362.9247,111.1117 C362.9247,111.1117 356.9907,181.0637 364.7317,181.0637 C366.1747,181.0637 387.8247,173.8467 387.8247,173.8467 L387.4127,116.5237 L362.9247,111.1117 Z" id="Fill-158" fill="#FF3434"></path>
            <path d="M384.9979,167.4437 C386.0939,167.2997 404.3259,164.5637 407.3039,164.5637 C410.2809,164.5637 406.7629,167.6307 406.3109,167.7207 C405.8599,167.8117 385.0969,174.4137 381.2179,174.2327 C377.3379,174.0517 375.2999,172.6737 374.8479,171.8287 C374.5259,171.2287 377.6999,170.9277 381.3939,169.6347 C384.2399,168.6387 385.8369,168.1307 384.9979,167.4437" id="Fill-160" fill="#2B5165"></path>
            <path d="M404.742,150.6488 C404.742,150.6488 396.515,156.1988 390.648,157.8898 C387.06,158.9248 385.036,159.4008 373.761,159.4008 C362.648,159.4008 356.071,142.2708 356.071,142.2708 L354.741,108.8328 L355.068,99.4128 L408.216,100.3948 L404.742,150.6488 Z" id="Fill-162" fill="#F1D5C3"></path>
            <path d="M366.8631,124.2396 C366.8631,126.3006 366.0841,127.9696 365.1231,127.9696 C364.1611,127.9696 363.3821,126.3006 363.3821,124.2396 C363.3821,122.1786 364.1611,120.5096 365.1231,120.5096 C366.0841,120.5096 366.8631,122.1786 366.8631,124.2396" id="Fill-164" fill="#000000"></path>
            <path d="M386.9579,124.2396 C386.9579,126.3006 386.1789,127.9696 385.2179,127.9696 C384.2559,127.9696 383.4769,126.3006 383.4769,124.2396 C383.4769,122.1786 384.2559,120.5096 385.2179,120.5096 C386.1789,120.5096 386.9579,122.1786 386.9579,124.2396" id="Fill-166" fill="#000000"></path>
            <path d="M374.7039,127.9457 C374.7039,127.9457 371.6839,138.3727 373.0579,139.1277 C374.4309,139.8837 375.8719,138.6567 375.8719,138.6567 L374.7039,127.9457 Z" id="Fill-168" fill="#FF3434"></path>
            <polygon id="Fill-170" fill="#F1D5C3" points="381.5311 159.4144 381.1461 180.6464 385.1421 181.9354 400.8061 179.6804 404.2401 178.1854 404.2401 150.2264 381.6631 156.7894"></polygon>
            <path d="M360.9627,99.0453 L363.0807,111.2743 L383.7537,112.7573 L386.5507,99.6093 L388.6947,112.5703 L403.3677,113.7513 C403.3677,113.7513 397.6617,175.1383 405.2037,175.4483 C412.7447,175.7603 429.8427,174.1783 433.0517,174.8003 C436.2607,175.4213 451.1607,194.1093 451.1607,194.1093 C451.1607,194.1093 452.6217,181.9363 448.7707,171.6333 C446.5847,165.7873 434.0827,156.2553 435.3537,105.4243 C435.6907,91.9313 415.9397,67.1023 394.4387,67.5673 C372.9377,68.0333 351.2207,76.4703 349.4547,92.3153 C347.6907,108.1593 351.8617,109.7133 351.8617,109.7133 L358.5427,111.1273 L360.9627,99.0453 Z" id="Fill-172" fill="#FF3434"></path>
            <path d="M383.1248,142.6224 C382.1528,143.1104 379.7698,147.5084 371.6438,147.6214" id="Stroke-174" stroke="#DF715C" stroke-width="0.5" stroke-linecap="round" stroke-linejoin="round"></path>
            <path d="M410.8631,121.8236 C411.0201,121.6286 419.0221,118.9036 418.9381,127.4316 C418.8521,135.9606 413.2961,134.8246 410.7371,135.0496 C408.1811,135.2716 410.7071,122.0176 410.8631,121.8236" id="Fill-176" fill="#F1D5C3"></path>
            <path d="M374.785,171.766 C363.014,183.19 354.489,196.077 343.973,209.27 C354.051,213.891 355.221,224.573 355.74,234.143 C355.816,235.545 369.226,222.189 368.651,220.837 C374.751,236.096 351.287,272.307 362.132,282.676 C372.975,293.045 412.078,276.634 428.479,281.792 C431.242,266.172 436.451,237.686 436.053,226.044 C435.655,214.403 432.739,218.913 431.847,210.638 C431.845,197.656 431.698,185.202 431.619,171.799 C426.26,166.79 409.341,164.861 405.262,167.442 C396.116,173.227 386.425,177.834 374.785,171.766" id="Fill-178" fill="#69BAC9"></path>
            <path d="M449.3338,197.1312 C449.3338,197.1312 486.9758,256.0142 453.8778,275.9372 C428.2268,291.3782 395.6268,284.5182 394.8108,282.3402 C393.9938,280.1632 389.3308,271.8732 390.3908,272.1242 C391.5458,272.3982 436.5208,274.5102 444.3358,257.5752 C452.4338,240.0292 431.0128,212.4002 431.0128,212.4002 L449.3338,197.1312 Z" id="Fill-180" fill="#F1D5C3"></path>
            <path d="M431.3993,171.6332 C440.7123,178.7932 455.4563,198.7272 463.3043,213.2712 C463.8833,215.3432 440.5543,219.2262 436.1693,223.3892 C430.9963,228.2982 413.5373,206.1472 413.5373,206.1472 L431.3993,171.6332 Z" id="Fill-182" fill="#69BAC9"></path>
            <path d="M365.9247,224.7669 C366.7067,223.9759 367.8807,222.7549 368.7097,221.0039 C368.7847,220.8439 369.9317,204.6509 369.9317,204.6509 L366.9267,215.4359 L365.9247,224.7669 Z" id="Fill-184" fill="#2B5165"></path>
            <path d="M401.7967,166.3392 C402.0327,166.3392 407.9647,166.5732 407.9647,166.5732 C403.9927,167.7962 403.3837,168.8932 402.1757,169.3212 L401.7967,166.3392 Z" id="Fill-186" fill="#2B5165"></path>
            <path d="M433.5643,216.7728 C433.7003,217.0948 435.7673,233.2288 435.7673,233.2288 L436.1093,227.9498 C436.1173,225.3188 435.9513,222.8598 435.5043,220.6748 L433.5643,216.7728 Z" id="Fill-188" fill="#2B5165"></path>
            <path d="M415.7538,199.3421 L417.0198,199.9991 C428.0928,212.0931 433.6368,216.4251 433.5678,216.8231 L434.0068,218.8841 C432.5548,218.1831 424.6698,213.7691 415.7538,199.3421" id="Fill-190" fill="#2B5165"></path>
            <path d="M381.5448,159.2865 C385.8218,158.8725 401.2938,154.7685 401.2938,154.7685 L401.3868,157.8915 L381.4348,162.6595 L381.5448,159.2865 Z" id="Fill-192" fill="#DF715C"></path>
            <polygon id="Fill-194" fill="#919191" points="354.9413 321.2787 269.1863 287.3307 302.4673 261.4937 403.1483 290.9147"></polygon>
            <g id="Group-198" transform="translate(355.000000, 290.102000)">
                <mask id="mask-4" fill="white">
                    <use xlink:href="#path-3"></use>
                </mask>
                <g id="Clip-197"></g>
                <path d="M48.1483,0.8124 C48.1483,0.8124 48.2503,1.8114 48.1483,2.2394 C48.0133,2.8074 0.0483,33.0004 0.0483,33.0004 L0.0483,31.1084 L48.1483,0.8124 Z" id="Fill-196" fill="#666666" mask="url(#mask-4)"></path>
            </g>
            <g id="Group-201" transform="translate(266.000000, 288.102000)">
                <mask id="mask-6" fill="white">
                    <use xlink:href="#path-5"></use>
                </mask>
                <g id="Clip-200"></g>
                <polygon id="Fill-199" fill="#666666" mask="url(#mask-6)" points="89.0487 33.1083 0.1067 -0.0007 0.1657 2.1513 89.0487 35.0003"></polygon>
            </g>
            <polygon id="Fill-202" fill="#D3D3D3" points="350.2176 312.4252 304.0396 294.1452 321.9616 280.2332 376.1766 296.0742"></polygon>
            <polygon id="Fill-204" fill="#666666" points="372.2352 292.2171 345.9102 284.2521 354.7042 279.6321 380.1562 286.7601"></polygon>
            <polygon id="Fill-206" fill="#B5B5B5" points="354.659 320.7718 266.485 287.8358 266.324 222.3008 355.163 246.1288"></polygon>
            <polygon id="Stroke-208" stroke="#B5B5B5" stroke-width="0.583" points="354.659 320.7718 266.485 287.8358 266.324 222.3008 355.163 246.1288"></polygon>
            <path d="M383.87,287.4505 C382.661,287.7215 375.707,291.9005 364.65,292.1135 C359.441,292.2145 361.802,288.8135 362.068,288.5805 C362.335,288.3465 372.193,284.6215 380.336,279.7355 L383.87,287.4505 Z" id="Fill-210" fill="#F1D5C3"></path>
            <path d="M379.786,272.7015 C379.786,272.7015 368.542,281.2335 362.71,282.1035 C360.091,282.4935 357.323,283.4295 356.932,285.5275 C356.318,288.8095 368.378,286.3565 368.378,286.3565 L376.055,283.4505 L379.786,272.7015 Z" id="Fill-212" fill="#F1D5C3"></path>
            <path d="M367.1268,279.6429 C367.1268,279.6429 359.5098,279.4319 358.6378,279.2139 C357.7648,278.9959 355.5788,275.3829 359.7458,275.7369 C362.1288,275.9389 370.9428,274.7149 371.2858,274.5429 C371.2858,274.5429 376.2078,274.4959 379.5128,272.8049 C383.8478,270.5879 390.7968,272.1789 390.7968,272.1789 L398.3738,282.7449 C397.5018,282.7449 391.2788,285.3419 387.6148,287.2619 C383.9508,289.1809 379.3198,293.3849 373.6478,295.1309 C369.4288,296.4289 366.8448,295.8939 366.8088,294.8289 C366.7048,291.8269 370.8148,291.6319 372.9948,290.3419 C375.2818,288.9899 380.0708,287.1119 381.8358,285.2449" id="Fill-214" fill="#F1D5C3"></path>
            <path d="M368.2206,280.0804 C368.6496,280.0294 369.4426,279.6534 371.2246,278.9954 C374.3706,277.8344 379.1056,276.0864 381.5906,276.0864 C381.6226,276.0864 380.1996,275.7764 380.2316,275.7774 L378.8956,275.5454 C375.7466,276.5584 375.3286,276.6034 372.0996,277.7954 C370.8696,278.2494 367.4036,279.6224 367.1026,279.6564 L368.2206,280.0804 Z" id="Fill-216" fill="#E5B79E"></path>
            <path d="M366.2694,286.7367 C366.7484,286.6797 367.8394,286.3637 369.7184,285.4137 C372.7224,283.8937 377.3194,282.2087 379.7074,282.2087 C379.7294,282.2087 379.7514,282.2097 379.7744,282.2097 L377.9594,281.8407 C375.2924,281.7827 372.5614,283.2287 369.2314,284.9137 C368.0304,285.5207 365.6764,286.7987 365.3694,286.8447 L366.2694,286.7367 Z" id="Fill-218" fill="#E5B79E"></path>
            <path d="M369.4481,291.7748 C370.0161,291.7088 370.9241,291.3198 372.9341,290.4788 C375.2041,289.5298 378.6551,287.4278 380.7471,286.9188 L379.8281,286.6368 C377.6411,287.1688 375.4171,288.5578 373.1061,289.5238 C371.6381,290.1378 368.5601,291.8648 368.1371,291.9138 L369.4481,291.7748 Z" id="Fill-220" fill="#E5B79E"></path>
            <path d="M271.3163,161.6332 C271.4383,161.1662 271.6783,160.7862 272.0113,160.5172 C272.1553,160.4022 272.1743,160.1722 272.0583,159.9482 L271.9193,159.6782 C271.7373,159.3272 271.3213,159.1442 271.0863,159.3142 C270.0123,160.0902 269.6123,161.5792 270.0563,163.1912 C270.1553,163.5472 270.5613,163.8012 270.8663,163.6992 L271.0993,163.6212 C271.2943,163.5572 271.3843,163.3612 271.3293,163.1352 C271.2013,162.6142 271.1943,162.1002 271.3163,161.6332" id="Fill-222" fill="#EE3434"></path>
            <path d="M274.9803,160.5658 C275.4143,160.8308 275.7983,161.1778 276.1123,161.5798 C276.2483,161.7528 276.4403,161.8358 276.5903,161.7858 L276.7683,161.7258 C276.9953,161.6498 277.0243,161.3088 276.8283,161.0428 C275.9293,159.8198 274.5943,158.9558 273.2633,158.7998 C272.9503,158.7638 272.8043,159.0738 272.9763,159.4178 L273.1083,159.6818 C273.2183,159.9018 273.4283,160.0628 273.6273,160.0848 C274.0773,160.1318 274.5393,160.2958 274.9803,160.5658" id="Fill-224" fill="#EE3434"></path>
            <path d="M277.2743,162.8207 L277.1013,162.8837 C276.9563,162.9377 276.8843,163.1087 276.9243,163.3057 C277.0113,163.7357 277.0143,164.1597 276.9293,164.5507 C276.8813,164.7757 276.8043,164.9877 276.7013,165.1777 C276.6593,165.2567 276.6123,165.3347 276.5583,165.4037 C276.5523,165.4127 276.5453,165.4207 276.5393,165.4277 C276.3693,165.6207 276.0273,165.5207 275.8783,165.2227 L275.7573,164.9837 C275.6773,164.8227 275.6733,164.6447 275.7533,164.5247 C275.9663,164.2037 276.0393,163.7677 275.9503,163.3067 C275.9103,163.0987 275.8373,162.8847 275.7283,162.6727 C275.2643,161.7657 274.2833,161.1787 273.4703,161.3647 C273.4643,161.3657 273.4583,161.3677 273.4523,161.3687 C273.4463,161.3707 273.4403,161.3717 273.4333,161.3737 C273.4273,161.3757 273.4213,161.3767 273.4163,161.3787 C273.4103,161.3807 273.4033,161.3827 273.3973,161.3837 L273.3793,161.3887 L273.3623,161.3947 C273.3563,161.3957 273.3503,161.3977 273.3433,161.3997 C273.3373,161.4017 273.3323,161.4047 273.3263,161.4067 L273.3083,161.4127 C273.3063,161.4137 273.3043,161.4147 273.3013,161.4157 C272.5053,161.7157 272.2603,162.7367 272.7543,163.7117 C272.8713,163.9397 273.0173,164.1457 273.1823,164.3237 C273.5463,164.7147 274.0043,164.9677 274.4503,165.0417 C274.6133,165.0667 274.7663,165.1897 274.8513,165.3527 L274.9773,165.5957 C275.1343,165.8997 274.9873,166.2147 274.6963,166.2157 C274.6843,166.2157 274.6723,166.2147 274.6613,166.2137 C274.5593,166.2077 274.4553,166.1907 274.3523,166.1707 C274.0983,166.1197 273.8423,166.0337 273.5913,165.9157 C273.1443,165.7047 272.7283,165.3987 272.3723,165.0187 C272.2083,164.8437 271.9693,164.7687 271.7823,164.8387 L271.5563,164.9217 C271.2623,165.0287 271.2293,165.4177 271.4883,165.6917 C271.6113,165.8217 271.7393,165.9457 271.8723,166.0627 C272.0033,166.1787 272.1383,166.2887 272.2763,166.3897 C272.4133,166.4907 272.5523,166.5857 272.6943,166.6717 C272.8353,166.7567 272.9773,166.8347 273.1213,166.9047 C273.2633,166.9747 273.4083,167.0367 273.5513,167.0917 C273.6953,167.1447 273.8383,167.1907 273.9823,167.2287 C274.1253,167.2667 274.2673,167.2977 274.4093,167.3197 C274.5493,167.3417 274.6893,167.3557 274.8273,167.3627 C274.9653,167.3687 275.1013,167.3667 275.2353,167.3567 C275.3693,167.3467 275.5013,167.3297 275.6283,167.3037 C275.7573,167.2777 275.8833,167.2437 276.0053,167.2027 C276.1533,167.1517 276.2953,167.0907 276.4293,167.0177 C276.5393,166.9587 276.6443,166.8917 276.7453,166.8197 C276.8423,166.7487 276.9353,166.6707 277.0223,166.5867 C277.1083,166.5047 277.1883,166.4157 277.2623,166.3227 C277.3363,166.2297 277.4043,166.1327 277.4663,166.0297 C277.5283,165.9287 277.5853,165.8227 277.6343,165.7127 C277.6843,165.6027 277.7273,165.4897 277.7653,165.3727 C277.8033,165.2567 277.8353,165.1357 277.8613,165.0127 C277.8863,164.8897 277.9063,164.7637 277.9203,164.6347 C277.9323,164.5077 277.9403,164.3757 277.9413,164.2427 C277.9423,164.1087 277.9363,163.9727 277.9243,163.8367 C277.9133,163.6977 277.8943,163.5577 277.8703,163.4187 C277.8603,163.3637 277.8493,163.3077 277.8373,163.2527 C277.7753,162.9587 277.4943,162.7407 277.2743,162.8207" id="Fill-226" fill="#37AFCA"></path>
            <path d="M270.3573,175.6048 L265.8303,173.8058 C265.6543,173.9108 265.4703,174.0768 265.2963,174.2978 L270.6193,175.9308 L270.3573,175.6048 Z" id="Fill-228" fill="#E5B79E"></path>
            <path d="M266.3456,179.2679 L272.9726,181.2799 L273.1816,181.6099 L265.7316,179.7639 C265.7316,179.7639 266.1086,179.3779 266.3456,179.2679" id="Fill-230" fill="#E5B79E"></path>
            <path d="M266.0897,183.139 C266.0607,183.336 271.7797,185.998 275.4707,186.606 C275.4877,186.609 275.7327,187.1 275.7327,187.1 C275.7327,187.1 269.6667,187.039 268.2837,185.768 C267.4467,184.998 266.0897,183.139 266.0897,183.139" id="Fill-232" fill="#E5B79E"></path>
            <path d="M235.3319,77.7084 C235.9269,76.6494 236.5729,75.6074 237.2669,74.5844 C255.0769,48.3124 294.1779,48.3124 311.9879,74.5844 C312.6819,75.6074 313.3269,76.6494 313.9229,77.7084 C313.3269,78.7664 312.6819,79.8084 311.9879,80.8314 C294.1779,107.1034 255.0769,107.1034 237.2669,80.8314 C236.5729,79.8084 235.9269,78.7664 235.3319,77.7084" id="Fill-234" fill="#FFFFFF"></path>
            <path d="M235.3319,77.7084 C235.9269,76.6494 236.5729,75.6074 237.2669,74.5844 C255.0769,48.3124 294.1779,48.3124 311.9879,74.5844 C312.6819,75.6074 313.3269,76.6494 313.9229,77.7084 C313.3269,78.7664 312.6819,79.8084 311.9879,80.8314 C294.1779,107.1034 255.0769,107.1034 237.2669,80.8314 C236.5729,79.8084 235.9269,78.7664 235.3319,77.7084 Z" id="Stroke-236" stroke="#CBCBCB" stroke-width="2"></path>
            <path d="M285.7137,77.5677 C285.7137,71.3667 280.6877,66.3397 274.4867,66.3397 C268.2857,66.3397 263.2597,71.3667 263.2597,77.5677 C263.2597,83.7677 268.2857,88.7957 274.4867,88.7957 C280.6877,88.7957 285.7137,83.7677 285.7137,77.5677 Z" id="Stroke-238" stroke="#CBCBCB" stroke-width="2"></path>
            <path d="M250.0653,101.8373 C249.9403,101.8373 249.8143,101.7893 249.7183,101.6933 C249.5263,101.5023 249.5253,101.1913 249.7163,100.9983 L298.6943,51.7733 C298.8863,51.5803 299.1983,51.5793 299.3903,51.7713 C299.5833,51.9633 299.5843,52.2743 299.3923,52.4673 L250.4153,101.6923 C250.3183,101.7893 250.1923,101.8373 250.0653,101.8373" id="Fill-240" fill="#F03434"></path>
            <path d="M299.0438,51.1283 C298.7778,51.1283 298.5278,51.2323 298.3408,51.4203 L249.3618,100.6453 C249.1758,100.8333 249.0728,101.0823 249.0728,101.3483 C249.0738,101.6123 249.1778,101.8613 249.3658,102.0483 C249.5528,102.2343 249.8018,102.3373 250.0648,102.3373 C250.3318,102.3373 250.5808,102.2333 250.7688,102.0453 L299.7468,52.8193 C300.1328,52.4323 300.1308,51.8033 299.7428,51.4163 C299.5568,51.2313 299.3078,51.1283 299.0438,51.1283 M299.0438,51.6283 C299.1688,51.6283 299.2948,51.6763 299.3908,51.7713 C299.5828,51.9633 299.5838,52.2743 299.3928,52.4673 L250.4148,101.6923 C250.3178,101.7893 250.1918,101.8373 250.0648,101.8373 C249.9398,101.8373 249.8148,101.7893 249.7188,101.6933 C249.5248,101.5023 249.5248,101.1913 249.7168,100.9983 L298.6938,51.7733 C298.7908,51.6763 298.9168,51.6283 299.0438,51.6283" id="Fill-242" fill="#F03434"></path>
        </g>
    </g>
</svg>