<?xml version="1.0" encoding="UTF-8"?>
<svg width="780px" height="500px" viewBox="0 0 780 500" version="1.1" xmlns="http://www.w3.org/2000/svg" xmlns:xlink="http://www.w3.org/1999/xlink">
    <!-- Generator: Sketch 62 (91390) - https://sketch.com -->
    <title> Human Centric</title>
    <desc>Created with Sketch.</desc>
    <defs>
        <polygon id="path-1" points="0 0.279239762 24.8939373 0.279239762 24.8939373 20.6109294 0 20.6109294"></polygon>
        <polygon id="path-3" points="0.426987715 0.147489655 207.894467 0.147489655 207.894467 74 0.426987715 74"></polygon>
        <polygon id="path-5" points="0.175705803 0.463207991 33.5311045 0.463207991 33.5311045 11.5710644 0.175705803 11.5710644"></polygon>
        <polygon id="path-7" points="0.37085 0.228977778 0.87085 0.228977778 0.87085 137.989216 0.37085 137.989216"></polygon>
    </defs>
    <g id="-Human-Centric" stroke="none" stroke-width="1" fill="none" fill-rule="evenodd">
        <g id="Group-139" transform="translate(3.000000, 7.000000)">
            <g id="Group-3" transform="translate(0.000000, 382.000000)">
                <mask id="mask-2" fill="white">
                    <use xlink:href="#path-1"></use>
                </mask>
                <g id="Clip-2"></g>
                <path d="M24.8926563,5.87325 C24.8926563,5.87325 22.1598438,-2.79575 15.1155729,1.44975 C14.6270312,1.74225 4.91765625,11.41775 2.21765625,15.40225 C1.88744792,15.89125 -0.623489583,18.86825 0.145260417,19.59175 C2.43119792,21.73725 4.55723958,19.95225 6.52859375,19.15475 C9.41296875,17.98525 25.0567188,7.59175 24.8926563,5.87325" id="Fill-1" fill="#E26666" mask="url(#mask-2)"></path>
            </g>
            <path d="M57.8782147,363.075397 C57.8782147,363.075397 59.4425864,354.291185 51.3577958,355.046001 C50.7978565,355.096683 37.9136592,359.500106 33.7408148,361.863459 C33.2296986,362.153773 29.6813823,363.710643 30.0231436,364.673108 C31.0407989,367.527042 33.7097918,366.857352 35.794434,366.989715 C38.8458741,367.181126 57.2384294,364.65687 57.8782147,363.075397" id="Fill-4" fill="#E26666"></path>
            <path d="M235,420.297286 C235,420.297286 185.835878,433.875189 131.208736,419.128658 C76.5815929,404.381617 50,365.704223 50,365.704223 L58.1426848,362 C58.1426848,362 89.6948859,391.559855 145.365596,397.298979 C201.036816,403.037084 220.430923,386.763485 220.430923,386.763485 L235,420.297286 Z" id="Fill-6" fill="#2B5165"></path>
            <path d="M150,422.921211 C155.391271,421.383421 156.623444,422.070704 167.597873,420.237264 L187,413 L167.429524,425 C159.110306,424.299371 157.071693,424.347106 150,422.921211" id="Fill-8" fill="#152F38"></path>
            <g id="Group-12" transform="translate(17.000000, 388.000000)">
                <mask id="mask-4" fill="white">
                    <use xlink:href="#path-3"></use>
                </mask>
                <g id="Clip-11"></g>
                <path d="M207.894467,57.1463724 C207.894467,57.1463724 162.79373,80.5375172 106.588757,72.2061379 C51.2438919,64.0023448 1.34331204,18.1973655 0.426987715,5.93122759 L6.8387027,0.147489655 C6.8387027,0.147489655 52.4780934,51.1421655 108.190408,44.9481103 C163.421818,38.807131 181.374211,24.687931 181.374211,24.687931 L207.894467,57.1463724 Z" id="Fill-10" fill="#2B5165" mask="url(#mask-4)"></path>
            </g>
            <path d="M347.04036,321 C304.527883,376.210781 254.899617,352.243442 247.72818,349.372679 L238,372.770606 C238,372.770606 297.664296,409.562849 354.306756,327.557768 C357.785519,322.520664 347.04036,321 347.04036,321" id="Fill-13" fill="#F1D5C3"></path>
            <path d="M303.01918,350.094188 L309.976805,349 L316,369.938734 L268,385 C268,385 270.068732,350.793477 273.00902,352.443861 C275.948797,354.094244 303.01918,350.094188 303.01918,350.094188" id="Fill-15" fill="#69BAC9"></path>
            <path d="M284.192102,380 L276,378.731955 L277.956199,371 C277.956199,371 287.897433,371.621072 287.947899,371.776473 C287.998885,371.931873 297,375.871851 297,375.871851 L284.192102,380 Z" id="Fill-17" fill="#2B5165"></path>
            <path d="M374.400939,308.471078 C374.400939,308.471078 374.189411,309.226014 374.03906,309.70426 C372.541254,314.445797 360.98757,323.117456 358.054174,324.215922 C355.115593,325.314387 351.237578,332 351.237578,332 L344,324.388982 C344,324.388982 351.107447,317.490411 350.609734,314.525591 C350.111502,311.560253 355.143071,306.936335 352.896622,301.478723 C350.650691,296.025775 354.18912,297.600933 354.18912,297.600933 C354.18912,297.600933 357.421663,300.191135 356.536149,304.496394 C356.245816,305.920772 356.650208,306.792291 356.830629,307.56018 C357.13496,308.88922 359.551461,308.096978 360.530297,307.510438 C364.05058,305.400556 362.857624,306.555499 364.195228,305.074125 C365.373149,303.769956 366.818591,301.642457 367.394071,300.773529 C367.398737,300.767311 367.398219,300.76213 367.398219,300.76213 C368.477116,298.410792 366.961683,298.78541 367.717066,297.63254 C368.111089,297.036156 368.185746,296.841334 368.954609,297.134603 C369.263088,297.25015 369.508834,297.470361 369.704808,297.763112 C369.930334,297.672955 370.194226,297.651711 370.498038,297.720624 C371.169951,297.87814 371.701363,298.5595 372.114569,299.413919 C372.209964,299.4305 372.30173,299.462625 372.399717,299.505113 C373.614448,300.035692 372.553697,302.051791 374.475596,303.506739 C375.697585,304.431626 374.400939,308.471078 374.400939,308.471078" id="Fill-19" fill="#F1D5C3"></path>
            <path d="M369,298 C368.529746,298.374556 368.70153,300.83261 368.693929,302.187722 C368.686328,303.542835 364,308 364,308" id="Stroke-21" stroke="#DF715C"></path>
            <path d="M372,299.011058 C372,299.011058 371.598532,298.879737 371.562931,299.522197 C371.52733,300.164152 372.121591,302.930974 371.457772,303.959819 C370.793953,304.988665 367,309 367,309" id="Stroke-23" stroke="#DF715C"></path>
            <path d="M374,302 C374,302 373.214512,302.835708 373.17708,303.52598 C373.139649,304.21571 372.997984,306.212726 372.300029,307.317596 C371.602073,308.423009 370,310 370,310" id="Stroke-25" stroke="#DF715C"></path>
            <path d="M357.456496,308 C357.124484,308.399891 359.647226,310.827605 356,314" id="Stroke-27" stroke="#DF715C"></path>
            <path d="M467.710067,299.482471 C467.710067,299.482471 447.9639,303.751729 442.922554,300.515091 C438.007793,297.359664 438.828799,300.112117 438.828799,300.112117 C438.828799,300.112117 438.632003,303.465947 442.987128,303.745561 C444.425682,303.838595 446.082556,305.686414 446.374674,306.412177 C446.978385,307.914076 445.748926,309.091643 444.872059,309.809182 C443.951118,310.561674 444.762899,310.207016 442.929729,310.938948 C440.862352,311.764427 435,313.678551 435,313.678551 C435,313.678551 439.11733,321.720546 444.030553,321.99245 C448.943777,322.263841 459.72089,315.142928 461.748805,312.792934 C463.776721,310.442941 469,311.050999 469,311.050999" id="Fill-29" fill="#E0B094"></path>
            <path d="M438.998796,313.878407 C439.045785,312.575255 437.708907,310.104298 436.478906,310.007551 C435.847321,309.957711 435.265489,310.143876 435.052658,310.888046 C434.505837,312.801486 438.398076,316 438.398076,316 L438.998796,313.878407 Z" id="Fill-31" fill="#E0B094"></path>
            <path d="M363.23861,352 C318.234177,404.286756 270.825698,376.717265 263.785756,373.573789 L253,396.107437 C255.197108,391.32283 321.890062,431.89221 372.992236,358.172985 C373.318737,357.701919 363.23861,352 363.23861,352" id="Fill-33" fill="#F1D5C3"></path>
            <path d="M439.599846,315.993764 C436.989881,315.88328 436.250032,314.605701 436,314 L436.218266,314.067861 C436.300756,314.187879 438.341488,316.842867 443.81555,314.529988 L444,315.052685 C442.203663,315.812054 440.752146,316.042557 439.599846,315.993764" id="Fill-35" fill="#AA5D48"></path>
            <path d="M438,317.215559 C438.463311,317.423133 440.625068,318.207128 445,317 L444.975644,317.459858 C442.961648,317.783595 440.938452,318.142061 438.808629,317.94247 L438,317.215559 Z" id="Fill-37" fill="#AA5D48"></path>
            <path d="M441,320.420409 C441.418319,320.607465 444.377159,320.567716 445,320 L444.975884,320.620091 C443.916174,320.936684 442.894493,321.060609 441.816232,320.972225 C441.566261,320.825385 441.286145,320.634588 441,320.420409" id="Fill-39" fill="#AA5D48"></path>
            <path d="M393.586569,340.513249 C391.660687,345.01313 380.537413,351.511657 377.540971,352.293293 C374.539916,353.07442 372.779564,358 372.779564,358 L363,351.790194 C363,351.790194 375.528993,336.047484 374.856626,330.140149 C374.198095,324.380485 376.300268,326.310896 376.300268,326.310896 C376.300268,326.310896 379.390494,327.603269 377.718287,331.610745 C377.165327,332.931125 378.091369,335.216455 378.607944,335.794917 C379.686704,336.991049 381.283577,336.406477 382.31109,335.938005 C383.390363,335.447127 382.717483,336.01795 384.178549,334.702663 C385.04002,333.926119 386.620494,332.361829 387.938067,331.039922 C387.05046,330.046455 386.33812,328.571785 386.697365,327.68627 C386.957702,327.034992 387.421492,326.546151 388.226591,326.674472 C389.163395,326.829271 389.903922,328.009618 390.431772,329.252598 C391.537181,330.862208 395.225464,336.667701 393.586569,340.513249" id="Fill-41" fill="#F1D5C3"></path>
            <path d="M437,275.599451 C437,275.599451 429.343662,275.255866 426.856637,277.140379 C424.369612,279.030098 410.953036,284.090172 406.189663,282.788713 C405.804277,282.684076 405.449722,282.544039 405.125998,282.377452 C405.125998,282.377452 405.120859,282.377452 405.115721,282.372246 C404.863935,282.309776 400.897027,281.284226 400.78398,279.800042 C400.598995,277.385054 398.343202,277.187232 398.553879,275.875361 C398.569295,275.771244 398.594987,275.672333 398.630957,275.583834 C398.137662,274.771723 397.849907,273.949201 398.081139,273.298471 C398.183909,273.001739 398.343202,272.798711 398.538464,272.658153 C398.394586,272.330185 398.343202,271.997012 398.410002,271.67425 C398.58471,270.867345 398.785111,270.908992 399.489083,270.89858 C400.855919,270.888169 399.73573,271.965777 402.263863,272.32498 C403.281283,272.309362 405.8608,272.246892 407.592469,271.955365 C409.545092,271.627397 407.936747,272.012109 411.579931,270.180175 C412.59735,269.669482 414.549973,268.056193 413.604492,267.077495 C413.054675,266.510059 412.551104,265.692743 411.199683,265.166953 C407.135144,263.584378 406.703511,259.445738 406.703511,259.445738 C406.703511,259.445738 407.279021,255.598624 410.63445,260.45567 C413.989879,265.312717 420.536304,263.568761 422.745852,265.599038 C424.955399,267.628794 434.502698,265.297099 434.502698,265.297099 L437,275.599451 Z" id="Fill-43" fill="#E0B094"></path>
            <path d="M749.410777,212.104015 C749.813157,211.880345 757.538456,211 757.538456,211 C757.538456,211 761.076829,234.433567 760.998726,238.465242 C760.963134,240.300148 757.545377,236.966095 757.073297,235.191585 C754.36094,225.007217 752.108799,224.107934 750.254589,221.245788 C745.992031,214.6693 749.007903,212.327684 749.410777,212.104015" id="Fill-45" fill="#69BAC9"></path>
            <g id="Group-49" transform="translate(743.000000, 176.000000)">
                <mask id="mask-6" fill="white">
                    <use xlink:href="#path-5"></use>
                </mask>
                <g id="Clip-48"></g>
                <path d="M0.186086567,9.1965 C0.0120268657,8.679 2.08450448,1.154 2.08450448,1.154 C2.08450448,1.154 28.3588925,-0.108 32.9884746,0.7795 C35.0954597,1.1825 30.5379373,4.5425 28.3934,4.748 C16.0914896,5.925 14.5817881,8.3945 10.8971015,10.0105 C2.42653433,13.723 0.359638806,9.714 0.186086567,9.1965" id="Fill-47" fill="#69BAC9" mask="url(#mask-6)"></path>
            </g>
            <g id="Group-52" transform="translate(605.000000, 0.000000)">
                <mask id="mask-8" fill="white">
                    <use xlink:href="#path-7"></use>
                </mask>
                <g id="Clip-51"></g>
                <line x1="0.62085" y1="137.989216" x2="0.62085" y2="0.228926667" id="Stroke-50" stroke="#050505" stroke-width="3" mask="url(#mask-8)"></line>
            </g>
            <path d="M644.596268,143.001511 C644.596268,143.001511 686.72135,191.310055 706.531599,191.310055 C726.342357,191.310055 744.69861,177.400876 744.69861,177.400876 L755,185.77446 C755,185.77446 727.771363,209.697589 706.545879,208.984364 C685.319884,208.271138 662.901011,201.059695 662.901011,201.059695 L633,140 L644.596268,143.001511 Z" id="Fill-53" fill="#C7C7C7"></path>
            <path d="M659,158 C659,158 682.030278,204.326336 687,206 L678.253706,204.818802 C678.253706,204.818802 664.239663,183.556214 664.637032,182.965357 C665.034922,182.375016 659,158 659,158" id="Fill-55" fill="#7B7C7C"></path>
            <path d="M587.793602,146.946121 C626.966775,119.179881 656.229606,140.115591 664.705201,171.705011 C676.611515,216.081536 707.779846,249.741124 749.249537,211.640875 C749.701378,211.225822 753.348818,225.459494 754,224.965917 C729.332759,243.680022 727.023975,244.943028 713.321031,245.908766 C670.157448,248.951299 635.593154,174.887765 629.820938,174.499227 C624.370223,174.132103 621.057576,173.358595 617.812908,177.662095 C606.931925,192.096155 582.278485,150.854964 587.793602,146.946121" id="Fill-57" fill="#C7C7C7"></path>
            <path d="M433.257775,264.119044 C498.630156,247.702376 505.02387,200.979896 506.623065,194.433723 L526.792531,192 C526.792531,192 535.658842,261.685831 437.469005,274.959152 C431.437931,275.774302 433.257775,264.119044 433.257775,264.119044" id="Fill-59" fill="#FF3434"></path>
            <path d="M565.047387,227.553266 C567.58072,228.59696 609.166879,191.9226 615.148247,175.718175 C620.182684,162.078899 601.123341,139.896815 604.229642,137 C574.563245,151.547125 531.35078,169.914806 534.054469,176.1985 C545.426332,202.624051 517,219.85833 517,219.85833 L544.845179,230 L565.047387,227.553266 Z" id="Fill-61" fill="#FF3434"></path>
            <path d="M530.493495,203.915888 C529.812401,206.237282 529.542822,208.663447 529.797084,211.083963 C530.103423,213.923048 530.374023,218.273094 530.18205,224.0509 C529.183895,233.503391 510.67488,228.881659 510.077008,228.79281 L510.077008,228.876524 C509.489348,228.79281 497.654443,229.8436 498.007754,220.42706 C498.189515,215.517723 498.626559,211.863068 499.011015,209.468745 C499.338287,207.419036 499.275999,205.327727 498.90737,203.314483 C498.465221,200.91451 498.481048,197.704618 501.45407,196.768357 C504.977992,195.660045 504.369909,197.061099 506.916609,200.632554 C508.943553,203.476775 518.175085,203.649339 520.664602,200.690075 C523.95979,196.774006 523.341496,195.257396 527.6716,196.340029 C531.585084,197.323026 531.3201,201.108131 530.493495,203.915888" id="Fill-63" fill="#E0B094"></path>
            <path d="M267.749047,372.933229 C267.749047,372.933229 282.756713,376.740204 288.864047,374.020501 C292.92308,372.212442 293.780999,370.992687 300.555832,364.403575 C304.558768,360.510309 298.9702,350.189853 298.9702,350.189853 L286.387558,327.668805 L283.164829,321 L246,346.16715 L267.749047,372.933229 Z" id="Fill-65" fill="#F1D5C3"></path>
            <path d="M285.838666,343.27576 C286.737857,344.588095 287.986734,345.304315 288.627904,344.875858 C289.26956,344.447891 289.060525,343.03653 288.161334,341.724194 C287.262143,340.412349 286.013266,339.695639 285.372096,340.124097 C284.73044,340.552554 284.939475,341.963425 285.838666,343.27576" id="Fill-67" fill="#000000"></path>
            <path d="M272.838711,352.930706 C273.737853,354.50574 274.986611,355.36495 275.627878,354.851195 C276.269601,354.336887 276.060562,352.64338 275.160963,351.069453 C274.261821,349.494973 273.013062,348.634656 272.371796,349.148964 C271.730529,349.663272 271.939569,351.356226 272.838711,352.930706" id="Fill-69" fill="#000000"></path>
            <path d="M283,349 C283,349 289.547829,354.7653 288.963038,355.95455 C288.378246,357.144868 286.885552,356.99381 286.885552,356.99381 L283,349 Z" id="Fill-71" fill="#FF3434"></path>
            <path d="M510.259674,220.219724 L508.014385,225.007517 C507.96242,225.167093 508.057526,225.364948 508.198715,225.389308 L511.683324,225.995301 C511.905892,226.034076 512.061297,225.826776 511.976486,225.599093 L510.719026,220.145156 C510.634215,219.917473 510.341053,219.969174 510.259674,220.219724" id="Fill-73" fill="#DF715C"></path>
            <path d="M521.511897,211 C520.684051,210.997522 520.006769,212.339567 520.000043,213.995286 C519.993834,215.651004 520.66025,216.997516 521.488096,217 C522.316459,217.001983 522.993223,215.659442 522.99995,214.003723 C523.006676,212.347508 522.339742,211.001989 521.511897,211" id="Fill-75" fill="#383838"></path>
            <path d="M518,217 C518,217 519.000147,218.902679 521,219" id="Stroke-77" stroke="#383838" stroke-width="1.238" stroke-linecap="round"></path>
            <path d="M504.488939,211 C505.316679,210.997467 505.994295,212.339537 505.99995,213.99518 C506.006634,215.65133 505.339301,216.997459 504.511561,217 C503.683821,217.002533 503.006719,215.659956 503.000036,214.003805 C502.99438,212.348163 503.661199,211.002541 504.488939,211" id="Fill-79" fill="#383838"></path>
            <path d="M507,217 C507,217 506,218.90235 504,219" id="Stroke-81" stroke="#383838" stroke-width="1.238" stroke-linecap="round"></path>
            <path d="M530.28595,203.176026 C529.610343,205.486415 529.342229,207.903099 529.596659,210.311606 C529.89721,213.134563 530.165831,217.465584 529.976276,223.214727 C528.985926,232.61828 510.61124,228.021521 510.018753,227.933112 L510.018753,227.937711 C509.43539,227.853902 497.689052,228.978178 498.035725,219.607331 C498.216664,214.721326 498.651526,211.086335 499.035705,208.701335 C499.359063,206.662306 499.295203,204.580861 498.92927,202.578626 C498.493901,200.194137 498.508093,196.997614 501.460896,196.063953 C504.954995,194.962673 504.353386,196.357798 506.88045,199.909491 C508.894093,202.742157 518.058122,202.914887 520.529435,199.970304 C523.801542,196.073663 523.186248,194.56151 527.486211,195.639283 C531.36905,196.619448 531.104991,200.385264 530.28595,203.176026 M548.979941,199.433206 C547.619097,194.757237 546.031192,191.770749 544.402741,189.941244 C544.309991,186.628204 543.032268,182.595628 538.825562,178.354038 C530.772002,170.233693 526.81922,175.437051 525.070143,175.385947 C523.200439,175.325134 525.338257,169.533576 514.327839,171.353882 L514.322771,171.353882 C504.437013,172.492468 505.84854,177.317659 504.298141,177.746929 C502.882052,178.134804 500.817219,175.115099 494.152885,182.525616 C487.936591,189.437363 495.004363,194.929967 491.329324,198.336525 C489.945166,199.615135 489.996356,202.905177 490.001425,204.188386 C490.005479,208.393181 491.667381,209.915043 492.268991,210.311606 C494.027698,211.473189 496.156899,212.724202 496.036273,215.958031 C495.929838,218.725285 492.884285,231.974376 495.263354,236.328393 C500.183172,245.321075 522.45489,249.703199 531.289985,242.114842 C536.77492,237.392368 540.070342,232.711799 539.505224,226.612087 C538.867123,226.220123 538.283759,225.725441 537.793652,225.132641 C539.028802,225.035033 541.903046,224.274102 545.786393,219.897088 C551.044268,213.970105 552.719854,212.257627 548.979941,199.433206" id="Fill-83" fill="#383838"></path>
            <path d="M515,233.198325 C512.329834,236.307462 505.833398,235.056043 506.003269,232" id="Stroke-85" stroke="#DF715C" stroke-width="1.5"></path>
            <path d="M467.750492,299.328995 C535.787159,286.512913 539.184299,233.662242 539.92822,226 L564.979188,227.926131 C564.979188,227.926131 568.856457,299.702912 470.768528,312.966777 C464.743172,313.781855 467.750492,299.328995 467.750492,299.328995" id="Fill-87" fill="#FF3434"></path>
            <path d="M536,221 C536,224.313654 537.790814,227 540.000241,227 C542.209186,227 544,224.313654 544,221 C544,217.686346 542.209186,215 540.000241,215 C537.790814,215 536,217.686346 536,221" id="Fill-89" fill="#E0B094"></path>
            <path d="M635,183 C635,189.074889 630.075289,194 624.000258,194 C617.924195,194 613,189.074889 613,183 C613,176.925111 617.924195,172 624.000258,172 C630.075289,172 635,176.925111 635,183" id="Fill-91" fill="#FFFFFF"></path>
            <path d="M635,183 C635,189.074889 630.075289,194 624.000258,194 C617.924195,194 613,189.074889 613,183 C613,176.925111 617.924195,172 624.000258,172 C630.075289,172 635,176.925111 635,183 Z" id="Stroke-93" stroke="#050505" stroke-width="3"></path>
            <line x1="623.5" y1="183" x2="623.5" y2="26" id="Stroke-95" stroke="#050505" stroke-width="3"></line>
            <line x1="624" y1="27" x2="606" y2="1" id="Stroke-97" stroke="#050505" stroke-width="3"></line>
            <path d="M581,148 C581,148 583.336555,172.814331 605,191" id="Stroke-99" stroke="#FFFFFF" stroke-width="3"></path>
            <path d="M572,152 C572,152 574.860794,181.773662 598,201" id="Stroke-101" stroke="#FFFFFF" stroke-width="3"></path>
            <path d="M590,209 C590,209 570.458696,198.637589 562,156" id="Stroke-103" stroke="#FFFFFF" stroke-width="3"></path>
            <path d="M581,217 C581,217 561.123903,205.845399 552,161" id="Stroke-105" stroke="#FFFFFF" stroke-width="3"></path>
            <path d="M398,272.014126 C398.560197,271.849431 400.530713,273.166106 401.671253,273.816475 C402.811302,274.467286 409,273.17806 409,273.17806" id="Stroke-107" stroke="#AA5D48"></path>
            <path d="M399,275.156201 C399,275.156201 399.090235,274.842617 399.653566,275.104075 C400.217407,275.365533 402.27038,276.966137 403.477592,276.998819 C404.685313,277.031087 410,276.391508 410,276.391508" id="Stroke-109" stroke="#AA5D48"></path>
            <path d="M400,279.027738 C400,279.027738 401.006436,278.917657 401.553465,279.136088 C402.10099,279.354865 403.7,279.970696 404.872772,279.998043 C406.04505,280.02539 408,279.757111 408,279.757111" id="Stroke-111" stroke="#AA5D48"></path>
            <path d="M414,268.000767 C414.441891,267.945521 415.023449,270.896494 419,269.724626" id="Stroke-113" stroke="#AA5D48"></path>
            <path d="M390.387079,333.244458 C391.5611,330.733037 390.763673,329.493228 390.335468,329 L390.290662,329.235564 C390.359288,329.363857 391.772084,332.415942 387,336.6038 L387.385102,337 C388.95103,335.62543 389.868695,334.352739 390.387079,333.244458" id="Fill-115" fill="#DF715C"></path>
            <path d="M392.451276,333 C392.508713,333.157134 392.518193,335.058968 389,338.762271 L389.587202,339 C390.908267,337.487961 392.041405,335.829433 393,334.033539 L392.451276,333 Z" id="Fill-117" fill="#DF715C"></path>
            <path d="M393.706648,336 C393.813377,336.454326 392.025208,339.416143 391,339.739488 L391.739175,340 C392.724741,339.152731 393.478553,338.194297 394,337.145481 L393.706648,336 Z" id="Fill-119" fill="#DF715C"></path>
            <path d="M304.868476,383.597695 L306,406.03073 L252,408 C252,408 258.030861,376.289787 262.35314,377.012157 C271.487479,378.539077 304.868476,383.597695 304.868476,383.597695" id="Fill-121" fill="#69BAC9"></path>
            <path d="M201.010132,393.555873 C201.010132,393.555873 185.390544,441.080959 225.312289,444.982631 C235.098324,445.938707 270.230088,407.106435 270.230088,407.106435 L272,378.167451 L253.457291,375 L201.010132,393.555873 Z" id="Fill-123" fill="#69BAC9"></path>
            <path d="M278,374.188646 L276.117744,379 C276.117744,379 252.405692,375.366804 253.01141,375.327716 C253.616607,375.288627 262.891952,371.87192 264.577337,372.003717 C266.262722,372.135514 278,374.188646 278,374.188646" id="Fill-125" fill="#F1D5C3"></path>
            <path d="M259.598371,372 C259.598371,372 260.568719,375.631842 265.746875,377.742937 C270.924536,379.854033 258.385558,378.667927 258.356917,378.667927 C258.327782,378.667927 253,376.251385 253,376.251385 L259.598371,372 Z" id="Fill-127" fill="#69BAC9"></path>
            <path d="M265,377 C264.618405,377.73516 258.734756,377.555708 254,381" id="Stroke-129" stroke="#2B5165" stroke-width="2"></path>
            <path d="M285,363.820084 C287.474889,364.982486 295.595432,360.21679 296,358" id="Stroke-131" stroke="#DF715C" stroke-linecap="round" stroke-linejoin="round"></path>
            <path d="M289.75445,326.806606 L285.938669,330.608718 L279.090302,324.118116 L282.991458,332.68255 L269.930688,342.636334 L262.375808,335.645241 L266.576031,344.672961 L257.355581,351.820523 C257.406703,351.873018 257.452714,351.934178 257.496679,351.988203 C258.220573,352.852087 264.346068,355.73578 265.906838,362.308437 C269.321308,376.690713 227.000077,400.628723 217.776048,403.351361 C201.930126,408.02806 164.315741,410.906146 164.004405,403.351361 C163.943058,401.857529 164.537613,398.600761 164.841792,396.492271 C164.958351,395.68445 171.846082,394.622815 171.846082,394.622815 C171.846082,394.622815 165.322343,392.82675 165.46293,392.1545 C166.555928,386.918188 168.161174,381.503492 169.720921,377.472541 C169.981134,376.800801 175.91083,375.833454 175.91083,375.833454 C175.91083,375.833454 171.000516,374.44971 171.244882,373.96094 C171.984113,372.481888 172.664553,371.486509 173.215653,371.175103 C185.664999,364.12234 217.174337,369.507475 227.528683,350.883246 C233.317281,340.471781 232.342887,328.779015 246.800323,319.675355 C261.253158,310.580868 275.759161,305.772165 283.800727,314.893155 C291.849449,324.011596 289.75445,326.806606 289.75445,326.806606" id="Fill-133" fill="#FF3434"></path>
            <path d="M256.414747,358.001263 C256.210721,357.942696 249.206154,359.912339 253.260663,365.717854 C257.316732,371.522841 260.762804,368.079527 262.698975,367.006327 C264.633584,365.933127 256.618253,358.058775 256.414747,358.001263" id="Fill-135" fill="#F1D5C3"></path>
            <path d="M265.000659,370.001492 C264.89851,369.902268 276.708881,374.785667 278,374.920791 L277.185921,377 L265.000659,370.001492 Z" id="Fill-137" fill="#DF715C"></path>
        </g>
    </g>
</svg>