<!-- by Georepublic (https://georepublic.info) - license: CC-BY-NC-SA (see: https://creativecommons.org/licenses/by-nc-sa/4.0/) -->
<svg width="388" height="752" xmlns="http://www.w3.org/2000/svg" xmlns:xlink="http://www.w3.org/1999/xlink"><defs><path id="b" d="M0 .115h326.18V696.8H0z"/><path d="M312.618 644.164c0 16.957-13.783 30.704-30.785 30.704H44.346c-17.003 0-30.786-13.747-30.786-30.704V76.144c0-16.959 13.783-30.704 30.786-30.704h237.487c17.002 0 30.785 13.745 30.785 30.703v568.021z" id="d"/><path id="f" d="M0 0h300v630.4H0z"/><path d="M45.114 12c.22.369.345.8.345 1.26v21.48c0 .46-.126.891-.345 1.26-.21.374-.52.698-.918.928L25.593 47.67c-.399.23-.835.336-1.263.331-.43.005-.865-.1-1.263-.33L4.463 36.927A2.454 2.454 0 013.545 36a2.454 2.454 0 01-.345-1.26V13.26c0-.46.126-.891.345-1.26.21-.374.52-.698.918-.928L23.067.33C23.465.1 23.9-.005 24.33 0c.428-.005.864.1 1.263.33l18.603 10.742c.399.23.709.554.918.928z" id="h"/><path id="k" d="M0 0h48v48H0z"/><path d="M41.914 12c.22.369.345.8.345 1.26v21.48c0 .46-.126.891-.345 1.26-.21.374-.52.698-.918.928L22.393 47.67c-.399.23-.835.336-1.263.331-.43.005-.865-.1-1.263-.33L1.263 36.927A2.454 2.454 0 01.345 36 2.454 2.454 0 010 34.74V13.26c0-.46.126-.891.345-1.26.21-.374.52-.698.918-.928L19.867.33C20.265.1 20.7-.005 21.13 0c.428-.005.864.1 1.263.33l18.603 10.742c.399.23.709.554.918.928z" id="m"/><path d="M24.282-.4a2.51 2.51 0 011.284.336l18.914 10.92a2.5 2.5 0 01.933.944c.223.375.35.813.35 1.28v21.84c0 .468-.127.905-.35 1.28a2.5 2.5 0 01-.933.944l-18.914 10.92a2.497 2.497 0 01-1.284.336 2.497 2.497 0 01-1.284-.336L4.084 37.144a2.495 2.495 0 01-.933-.944 2.495 2.495 0 01-.351-1.28V13.08c0-.467.128-.905.351-1.28a2.5 2.5 0 01.933-.944L22.998-.064A2.497 2.497 0 0124.282-.4zm0 2.44a2.247 2.247 0 00-1.156.303L6.104 12.17c-.365.21-.648.507-.84.85-.2.336-.316.73-.316 1.151v19.656c0 .421.115.815.316 1.152.192.342.475.64.84.85l17.022 9.828c.365.21.764.307 1.156.302.392.005.791-.092 1.155-.302L42.46 35.83c.364-.21.648-.508.84-.85.2-.337.316-.731.316-1.152V14.172c0-.42-.116-.815-.316-1.152a2.245 2.245 0 00-.84-.85L25.437 2.344a2.247 2.247 0 00-1.155-.303z" id="p"/><path id="r" d="M0 0h48v48H0z"/><path d="M45.114 12c.22.369.345.8.345 1.26v21.48c0 .46-.126.891-.345 1.26-.21.374-.52.698-.918.928L25.593 47.67c-.399.23-.835.336-1.263.331-.43.005-.865-.1-1.263-.33L4.463 36.927A2.454 2.454 0 013.545 36a2.454 2.454 0 01-.345-1.26V13.26c0-.46.126-.891.345-1.26.21-.374.52-.698.918-.928L23.067.33C23.465.1 23.9-.005 24.33 0c.428-.005.864.1 1.263.33l18.603 10.742c.399.23.709.554.918.928z" id="t"/><path d="M45.114 12c.22.369.345.8.345 1.26v21.48c0 .46-.126.891-.345 1.26-.21.374-.52.698-.918.928L25.593 47.67c-.399.23-.835.336-1.263.331-.43.005-.865-.1-1.263-.33L4.463 36.927A2.454 2.454 0 013.545 36a2.454 2.454 0 01-.345-1.26V13.26c0-.46.126-.891.345-1.26.21-.374.52-.698.918-.928L23.067.33C23.465.1 23.9-.005 24.33 0c.428-.005.864.1 1.263.33l18.603 10.742c.399.23.709.554.918.928z" id="w"/><path d="M45.114 12c.22.369.345.8.345 1.26v21.48c0 .46-.126.891-.345 1.26-.21.374-.52.698-.918.928L25.593 47.67c-.399.23-.835.336-1.263.331-.43.005-.865-.1-1.263-.33L4.463 36.927A2.454 2.454 0 013.545 36a2.454 2.454 0 01-.345-1.26V13.26c0-.46.126-.891.345-1.26.21-.374.52-.698.918-.928L23.067.33C23.465.1 23.9-.005 24.33 0c.428-.005.864.1 1.263.33l18.603 10.742c.399.23.709.554.918.928z" id="z"/><path d="M45.114 12c.22.369.345.8.345 1.26v21.48c0 .46-.126.891-.345 1.26-.21.374-.52.698-.918.928L25.593 47.67c-.399.23-.835.336-1.263.331-.43.005-.865-.1-1.263-.33L4.463 36.927A2.454 2.454 0 013.545 36a2.454 2.454 0 01-.345-1.26V13.26c0-.46.126-.891.345-1.26.21-.374.52-.698.918-.928L23.067.33C23.465.1 23.9-.005 24.33 0c.428-.005.864.1 1.263.33l18.603 10.742c.399.23.709.554.918.928z" id="C"/><path id="F" d="M0 0h300v48H0z"/><path id="H" d="M0 0h300v48H0z"/><path id="J" d="M0 0h300v1H0z"/><path id="L" d="M0 0h300.8v45.6H0z"/><path d="M9.6 4.72a1.68 1.68 0 110 3.36 1.68 1.68 0 010-3.36zm0 7.2c2.376 0 4.88 1.168 4.88 1.68v.88H4.72v-.88c0-.512 2.504-1.68 4.88-1.68zm0-8.72a3.2 3.2 0 100 6.4 3.2 3.2 0 100-6.4zm0 7.2c-2.136 0-6.4 1.072-6.4 3.2V16H16v-2.4c0-2.128-4.264-3.2-6.4-3.2z" id="N"/><path id="P" d="M0 0h19.2v19.2H0z"/><path d="M15.2 2.4H4c-.88 0-1.6.72-1.6 1.6v11.2c0 .88.72 1.6 1.6 1.6h11.2c.88 0 1.6-.72 1.6-1.6V4c0-.88-.72-1.6-1.6-1.6zm0 12.8H4V4h11.2v11.2zm-.808-8l-1.128-1.136-5.272 5.272L5.928 9.28l-1.136 1.128 3.2 3.192 6.4-6.4z" id="R"/><path id="T" d="M0 0h19.2v19.2H0z"/><path d="M17.47 5a.95.95 0 01.13.483v8.234a.95.95 0 01-.13.483.935.935 0 01-.348.356l-7.044 4.117a.921.921 0 01-.478.127.921.921 0 01-.478-.127l-7.044-4.117a.935.935 0 01-.347-.356.95.95 0 01-.131-.483V5.483A.95.95 0 011.73 5a.935.935 0 01.348-.356L9.122.527A.921.921 0 019.6.4a.921.921 0 01.478.127l7.044 4.117a.94.94 0 01.347.356z" id="V"/><path id="X" d="M0 0h300.8v1H0z"/><path d="M34.56.195v.66h-.73v-.66h-.732v.66h-.731v-.66h-.731v.66h-.731v-.66h-.732v.66h-.731v-.66h-.73v.66h-.733v-.66h-.73v.66h-.732v-.66h-.731v.66h-.73v-.66h-.732v.66h-.731v-.66h-.731v.66h-.731v-.66h-.733v.66h-.73v-.66h-.731v.66h-.732v-.66h-.73v.66h-.732v-.66h-.732v.66h-.73v-.66h-.732v.66h-.73v-.66h-.732v.66h-.732v-.66h-.73v.66h-.732v-.66h-.731v.66h-.73v-.66H9.7v.66h-.732v-.66h-.73v.66h-.732v-.66h-.731v.66h-.731v-.66h-.732v.66h-.731v-.66H3.85v.66h-.731v-.66c-.253 0-.498.029-.732.083v.577h-.73V.548a2.815 2.815 0 00-1.071.967h.338v.66H.286c-.06.211-.092.433-.092.661h.73v.66H.286c.067.235.17.457.3.661h.338v.426a3.066 3.066 0 002.195.894H34.56c.873 0 1.657-.345 2.193-.893v-.427h.34c.13-.204.232-.426.3-.66h-.64v-.66l.732-.001c0-.228-.033-.45-.093-.66h-.64v-.66h.341a2.813 2.813 0 00-1.07-.968v.307h-.732V.278a3.226 3.226 0 00-.73-.083h-.002zm.732 1.98h.73v-.66h-.73v.66zm-1.462 0h.73v-.66h-.73v.66zm-1.463 0h.731v-.66h-.731v.66zm-1.462 0h.73v-.66h-.73v.66zm-1.463 0h.731v-.66h-.731v.66zm-1.463 0h.732v-.66h-.732v.66zm-1.462 0h.731v-.66h-.73v.66zm-1.462 0h.73v-.66h-.73v.66zm-1.462 0h.73v-.66h-.73v.66zm-1.462 0h.73v-.66h-.73v.66zm-1.463 0h.73v-.66h-.73v.66zm-1.463 0h.732v-.66h-.732v.66zm-1.462 0h.731v-.66h-.731v.66zm-1.463 0h.731v-.66h-.73v.66zm-1.462 0h.731v-.66h-.73v.66zm-1.463 0h.732v-.66h-.732v.66zm-1.462 0h.73v-.66h-.73v.66zm-1.462 0h.73v-.66h-.73v.66zm-1.463 0H9.7v-.66h-.732v.66zm-1.462 0h.731v-.66h-.731v.66zm-1.462 0h.73v-.66h-.73v.66zm-1.463 0h.731v-.66h-.731v.66zm-1.462 0h.73v-.66h-.73v.66zm-1.462 0h.73v-.66h-.73v.66zm33.635 1.322h.73v-.66l-.73-.001v.66zm-1.462 0h.73v-.66l-.73-.001v.66zm-1.463 0h.731v-.66l-.731-.001v.66zm-1.462 0h.73v-.66l-.73-.001v.66zm-1.463 0h.731v-.66l-.731-.001v.66zm-1.463 0h.732v-.66l-.732-.001v.66zm-1.462 0h.731v-.66l-.73-.001v.66zm-1.462 0h.73v-.66l-.73-.001v.66zm-1.462 0h.73v-.66l-.73-.001v.66zm-1.462 0h.73v-.66l-.73-.001v.66zm-1.463 0h.73v-.66l-.73-.001v.66zm-1.463 0h.732v-.66l-.732-.001v.66zm-1.462 0h.731v-.66l-.731-.001v.66zm-1.463 0h.731v-.66l-.73-.001v.66zm-1.462 0h.731v-.66l-.73-.001v.66zm-1.463 0h.732v-.66l-.732-.001v.66zm-1.462 0h.73v-.66l-.73-.001v.66zm-1.462 0h.73v-.66l-.73-.001v.66zm-1.463 0H9.7v-.66l-.732-.001v.66zm-1.462 0h.731v-.66l-.731-.001v.66zm-1.462 0h.73v-.66l-.73-.001v.66zm-1.463 0h.731v-.66l-.731-.001v.66zm-1.462 0h.73v-.66l-.73-.001v.66zm-1.462 0h.73v-.66l-.73-.001v.66zm33.635 1.32h.73v-.66h-.73v.66zm-1.462 0h.73v-.66h-.73v.66zm-1.463 0h.731v-.66h-.731v.66zm-1.462 0h.73v-.66h-.73v.66zm-1.463 0h.731v-.66h-.731v.66zm-1.463 0h.732v-.66h-.732v.66zm-1.462 0h.731v-.66h-.73v.66zm-1.462 0h.73v-.66h-.73v.66zm-1.462 0h.73v-.66h-.73v.66zm-1.462 0h.73v-.66h-.73v.66zm-1.463 0h.73v-.66h-.73v.66zm-1.463 0h.732v-.66h-.732v.66zm-1.462 0h.731v-.66h-.731v.66zm-1.463 0h.731v-.66h-.73v.66zm-1.462 0h.731v-.66h-.73v.66zm-1.463 0h.732v-.66h-.732v.66zm-1.462 0h.73v-.66h-.73v.66zm-1.462 0h.73v-.66h-.73v.66zm-1.463 0H9.7v-.66h-.732v.66zm-1.462 0h.731v-.66h-.731v.66zm-1.462 0h.73v-.66h-.73v.66zm-1.463 0h.731v-.66h-.731v.66zm-1.462 0h.73v-.66h-.73v.66zm-1.462 0h.73v-.66h-.73v.66z" id="Z"/><path d="M2.949 0C1.32 0 0 1.074 0 2.4c0 1.326 1.32 2.4 2.949 2.4h31.703c1.628 0 2.948-1.074 2.948-2.4 0-1.326-1.32-2.4-2.948-2.4H2.949zM.589 2.4C.59 1.342 1.649.48 2.95.48h31.703c1.3 0 2.358.862 2.358 1.92 0 1.058-1.058 1.92-2.358 1.92H2.949c-1.301 0-2.36-.862-2.36-1.92z" id="ac"/><path d="M5.912.483a8.283 8.283 0 105.05 15.777 8.283 8.283 0 005.364-10.412A8.287 8.287 0 008.439.086c-.837 0-1.688.128-2.527.397" id="af"/><path d="M2.417 1.095A5.016 5.016 0 00.773 7.993a5.014 5.014 0 008.54-5.256h.001A5.01 5.01 0 005.04.35c-.896 0-1.804.24-2.623.745" id="ai"/><path d="M.1 2.774a2.734 2.734 0 005.467 0 2.734 2.734 0 00-5.467 0" id="al"/><path d="M.24 5.405v36.529c0 2.922.685 6.576 2.057 6.576.687 0 1.372-.654 1.372-1.463V1.751c0-.806-.685-1.46-1.372-1.46C.926.29.24 3.211.24 5.404" id="ao"/><path d="M2.888.29v48.22C1.163 48.51.302 44.856.3 41.934V5.405C.301 3.212 1.164.29 2.888.29z" id="aq"/><path d="M.24 5.511v83.58c0 2.934.685 6.6 2.057 6.6.687 0 1.372-.658 1.372-1.467V1.846c0-.81-.685-1.467-1.372-1.467C.926.379.24 3.312.24 5.51" id="as"/><path d="M2.888.379V95.69c-1.725 0-2.586-3.666-2.587-6.6V5.513c0-2.2.863-5.133 2.587-5.133z" id="au"/><path d="M45.114 12c.22.369.345.8.345 1.26v21.48c0 .46-.126.891-.345 1.26-.21.374-.52.698-.918.928L25.593 47.67c-.399.23-.835.336-1.263.331-.43.005-.865-.1-1.263-.33L4.463 36.927A2.454 2.454 0 013.545 36a2.454 2.454 0 01-.345-1.26V13.26c0-.46.126-.891.345-1.26.21-.374.52-.698.918-.928L23.067.33C23.465.1 23.9-.005 24.33 0c.428-.005.864.1 1.263.33l18.603 10.742c.399.23.709.554.918.928z" id="aw"/><filter x="-6.1%" y="-2.9%" width="112.2%" height="105.7%" filterUnits="objectBoundingBox" id="a"><feOffset dy="2" in="SourceAlpha" result="shadowOffsetOuter1"/><feGaussianBlur stdDeviation="4" in="shadowOffsetOuter1" result="shadowBlurOuter1"/><feColorMatrix values="0 0 0 0 0 0 0 0 0 0 0 0 0 0 0 0 0 0 0.5 0" in="shadowBlurOuter1" result="shadowMatrixOuter1"/><feMerge><feMergeNode in="shadowMatrixOuter1"/><feMergeNode in="SourceGraphic"/></feMerge></filter><filter x="-9.5%" y="-4.2%" width="118.9%" height="116.7%" filterUnits="objectBoundingBox" id="i"><feMorphology radius=".5" in="SourceAlpha" result="shadowSpreadOuter1"/><feOffset dy="2" in="shadowSpreadOuter1" result="shadowOffsetOuter1"/><feGaussianBlur stdDeviation="1.5" in="shadowOffsetOuter1" result="shadowBlurOuter1"/><feColorMatrix values="0 0 0 0 0 0 0 0 0 0 0 0 0 0 0 0 0 0 0.2 0" in="shadowBlurOuter1"/></filter><filter x="-9.5%" y="-4.2%" width="118.9%" height="116.7%" filterUnits="objectBoundingBox" id="n"><feMorphology radius=".5" in="SourceAlpha" result="shadowSpreadOuter1"/><feOffset dy="2" in="shadowSpreadOuter1" result="shadowOffsetOuter1"/><feGaussianBlur stdDeviation="1.5" in="shadowOffsetOuter1" result="shadowBlurOuter1"/><feColorMatrix values="0 0 0 0 0 0 0 0 0 0 0 0 0 0 0 0 0 0 0.2 0" in="shadowBlurOuter1"/></filter><filter x="-9.5%" y="-4.2%" width="118.9%" height="116.7%" filterUnits="objectBoundingBox" id="u"><feMorphology radius=".5" in="SourceAlpha" result="shadowSpreadOuter1"/><feOffset dy="2" in="shadowSpreadOuter1" result="shadowOffsetOuter1"/><feGaussianBlur stdDeviation="1.5" in="shadowOffsetOuter1" result="shadowBlurOuter1"/><feColorMatrix values="0 0 0 0 0 0 0 0 0 0 0 0 0 0 0 0 0 0 0.2 0" in="shadowBlurOuter1"/></filter><filter x="-9.5%" y="-4.2%" width="118.9%" height="116.7%" filterUnits="objectBoundingBox" id="x"><feMorphology radius=".5" in="SourceAlpha" result="shadowSpreadOuter1"/><feOffset dy="2" in="shadowSpreadOuter1" result="shadowOffsetOuter1"/><feGaussianBlur stdDeviation="1.5" in="shadowOffsetOuter1" result="shadowBlurOuter1"/><feColorMatrix values="0 0 0 0 0 0 0 0 0 0 0 0 0 0 0 0 0 0 0.2 0" in="shadowBlurOuter1"/></filter><filter x="-9.5%" y="-4.2%" width="118.9%" height="116.7%" filterUnits="objectBoundingBox" id="A"><feMorphology radius=".5" in="SourceAlpha" result="shadowSpreadOuter1"/><feOffset dy="2" in="shadowSpreadOuter1" result="shadowOffsetOuter1"/><feGaussianBlur stdDeviation="1.5" in="shadowOffsetOuter1" result="shadowBlurOuter1"/><feColorMatrix values="0 0 0 0 0 0 0 0 0 0 0 0 0 0 0 0 0 0 0.2 0" in="shadowBlurOuter1"/></filter><filter x="-9.5%" y="-4.2%" width="118.9%" height="116.7%" filterUnits="objectBoundingBox" id="D"><feMorphology radius=".5" in="SourceAlpha" result="shadowSpreadOuter1"/><feOffset dy="2" in="shadowSpreadOuter1" result="shadowOffsetOuter1"/><feGaussianBlur stdDeviation="1.5" in="shadowOffsetOuter1" result="shadowBlurOuter1"/><feColorMatrix values="0 0 0 0 0 0 0 0 0 0 0 0 0 0 0 0 0 0 0.2 0" in="shadowBlurOuter1"/></filter><filter x="-29.6%" y="-24%" width="159.2%" height="152.1%" filterUnits="objectBoundingBox" id="ax"><feMorphology radius=".5" in="SourceAlpha" result="shadowSpreadOuter1"/><feOffset dy="2" in="shadowSpreadOuter1" result="shadowOffsetOuter1"/><feGaussianBlur stdDeviation="1.5" in="shadowOffsetOuter1" result="shadowBlurOuter1"/><feColorMatrix values="0 0 0 0 0 0 0 0 0 0 0 0 0 0 0 0 0 0 0.2 0" in="shadowBlurOuter1" result="shadowMatrixOuter1"/><feOffset dy="1" in="SourceAlpha" result="shadowOffsetOuter2"/><feGaussianBlur stdDeviation="4" in="shadowOffsetOuter2" result="shadowBlurOuter2"/><feColorMatrix values="0 0 0 0 0 0 0 0 0 0 0 0 0 0 0 0 0 0 0.12 0" in="shadowBlurOuter2" result="shadowMatrixOuter2"/><feOffset dy="3" in="SourceAlpha" result="shadowOffsetOuter3"/><feGaussianBlur stdDeviation="2" in="shadowOffsetOuter3" result="shadowBlurOuter3"/><feColorMatrix values="0 0 0 0 0 0 0 0 0 0 0 0 0 0 0 0 0 0 0.14 0" in="shadowBlurOuter3" result="shadowMatrixOuter3"/><feMerge><feMergeNode in="shadowMatrixOuter1"/><feMergeNode in="shadowMatrixOuter2"/><feMergeNode in="shadowMatrixOuter3"/></feMerge></filter><linearGradient x1="49.999%" y1="77.677%" x2="49.999%" y2="-.109%" id="aa"><stop stop-color="#464646" offset="0%"/><stop stop-color="#141414" offset="100%"/></linearGradient><linearGradient x1="50%" y1="100.186%" x2="50%" y2="37.234%" id="ad"><stop stop-color="#464646" offset="0%"/><stop stop-color="#141414" offset="100%"/></linearGradient><linearGradient x1="65.294%" y1="97.788%" x2="46.11%" y2="37.845%" id="ag"><stop stop-color="#464646" offset="0%"/><stop stop-color="#141414" offset="100%"/></linearGradient><linearGradient x1="76.296%" y1="92.738%" x2="43.307%" y2="39.129%" id="aj"><stop stop-color="#464646" offset="0%"/><stop stop-color="#141414" offset="100%"/></linearGradient><linearGradient x1="49.999%" y1="100.19%" x2="49.999%" y2="37.231%" id="am"><stop stop-color="#464646" offset="0%"/><stop stop-color="#141414" offset="100%"/></linearGradient></defs><g fill="none" fill-rule="evenodd"><path fill="#FFF" d="M0 0h388v752H0z"/><g filter="url(#a)" transform="translate(31 26)"><path d="M280.96 696.218H44.72c-13.896-.367-22.582-3.606-22.582-3.606 6.51 4.239 14.314 6.53 22.582 6.53h236.24c7.819 0 15.239-2.355 21.501-6.74-4.679 1.989-12.725 4.18-21.501 3.816m36.35-658.452s1.317 8.127 1.317 19.095v602.437c0 8.772-1.956 17.346-1.956 17.346 2.472-5.34 3.785-11.238 3.785-17.346V54.667c0-6.068-1.09-11.79-3.147-16.901" fill="#676767"/><mask id="c" fill="#fff"><use xlink:href="#b"/></mask><path d="M326.18 651.476c0 24.628-19.058 45.324-43.98 45.324H45.445C21.257 696.8 0 679.254 0 651.476V51.286C0 20.585 16.126.116 49.11.116h225.76c35.183 0 51.31 21.93 51.31 46.786v604.575z" fill="#3D3D3F" mask="url(#c)"/><path d="M312.094 16.167c-8.664-8.828-21.617-13.494-37.46-13.494H49.35c-15.427 0-27.369 4.523-35.492 13.445C6.214 24.514 2.172 36.891 2.172 51.914v598.922c0 12.68 4.513 23.638 13.05 31.683 8.02 7.559 18.841 11.722 30.471 11.722H281.95c11.408 0 22.044-4.557 29.944-12.832 7.811-8.183 12.113-19.038 12.113-30.573V47.537c0-12.401-4.23-23.541-11.912-31.37" fill="#131313"/><path d="M323.614 652.849c0 11.017-4.115 21.381-11.585 29.186-7.534 7.873-17.671 12.206-28.547 12.206H45.636c-11.142 0-21.497-3.968-29.159-11.172-8.141-7.653-12.446-18.103-12.446-30.22V51.387c0-14.53 3.87-26.45 11.19-34.47C22.965 8.436 34.437 4.135 49.318 4.135h226.8c15.343 0 27.837 4.458 36.134 12.892 7.327 7.448 11.363 18.09 11.363 29.965v605.857zM312.409 15.465c-8.682-8.847-21.663-13.523-37.539-13.523H49.11c-15.46 0-27.426 4.533-35.568 13.473-7.66 8.413-11.71 20.818-11.71 35.872v600.189c0 12.705 4.523 23.686 13.079 31.75 8.036 7.575 18.88 11.747 30.534 11.747H282.2c11.433 0 22.09-4.568 30.008-12.86 7.828-8.2 12.138-19.08 12.138-30.637V46.9c0-12.426-4.239-23.591-11.937-31.436z" fill="#6F6F71"/><mask id="e" fill="#fff"><use xlink:href="#d"/></mask><use fill="#CB4539" xlink:href="#d"/><g mask="url(#e)"><path fill="#FFF" d="M12 44.8h300v630.4H12z"/><g transform="translate(12 44.8)"><mask id="g" fill="#fff"><use xlink:href="#f"/></mask><path fill="#FCFCFC" mask="url(#g)" d="M0 0h300v630.4H0z"/></g><g transform="translate(170.4 416)"><rect stroke="#EEE" stroke-width="2.4" fill="#FFF" x="1.2" y="25.2" width="125.6" height="101.6" rx="4"/><text font-family="Roboto-Medium, Roboto" font-size="14.4" font-weight="400" fill="#000"><tspan x="9.793" y="83">Dad&apos;s passwords</tspan></text><text font-family="Roboto-Regular, Roboto" font-size="8" letter-spacing=".667" fill="#484848"><tspan x="8.993" y="120">LAST ACCESS: 25.02.2020</tspan></text><text font-family="Roboto-Medium, Roboto" font-size="9.6" font-weight="400" letter-spacing="2" fill="#69BAC9"><tspan x="47.496" y="58">OPEN</tspan></text><g transform="translate(40)"><mask id="j" fill="#fff"><use xlink:href="#h"/></mask><use fill="#000" filter="url(#i)" xlink:href="#h"/><use fill="#FAFAFA" xlink:href="#h"/><g mask="url(#j)"><mask id="l" fill="#fff"><use xlink:href="#k"/></mask><path fill="#69BAC9" mask="url(#l)" d="M0 0h48v48H0z"/></g><g mask="url(#j)" fill="#FFF"><path d="M20.453 19.227H36.24v14.8H20.453z"/><path d="M25.387 19.227h-1.974v-1.974a4.933 4.933 0 10-9.866 0h-1.974a6.907 6.907 0 0113.814 0v1.974z" fill-rule="nonzero"/></g></g></g><g transform="translate(26.4 416)"><rect stroke="#EEE" stroke-width="2.4" fill="#FFF" x="1.2" y="25.2" width="125.6" height="101.6" rx="4"/><text font-family="Roboto-Medium, Roboto" font-size="14.4" font-weight="400" fill="#000"><tspan x="33.477" y="83">Company</tspan></text><text font-family="Roboto-Regular, Roboto" font-size="8" letter-spacing=".667" fill="#484848"><tspan x="8.993" y="120">LAST ACCESS: 02.02.2020</tspan></text><text font-family="Roboto-Medium, Roboto" font-size="9.6" font-weight="400" letter-spacing="2" fill="#DA552F"><tspan x="36.645" y="58">PENDING</tspan></text><g transform="translate(40)"><g transform="translate(3.2)"><mask id="o" fill="#fff"><use xlink:href="#m"/></mask><use fill="#000" filter="url(#n)" xlink:href="#m"/><use fill="#FAFAFA" xlink:href="#m"/><g mask="url(#o)" fill="#DA552F"><path d="M-3.2 0h48v48h-48z"/></g><g mask="url(#o)" fill="#FFF"><path d="M13.307 19.227h15.787v14.8H13.307z"/><path d="M21.2 26.133a6.907 6.907 0 110-13.813 6.907 6.907 0 010 13.813zm0-1.973a4.933 4.933 0 100-9.867 4.933 4.933 0 000 9.867z" fill-rule="nonzero"/></g></g><mask id="q" fill="#fff"><use xlink:href="#p"/></mask><use fill="#FAFAFA" xlink:href="#p"/><g mask="url(#q)"><mask id="s" fill="#fff"><use xlink:href="#r"/></mask><path fill="#69BAC9" mask="url(#s)" d="M0 0h48v48H0z"/></g></g></g><g transform="translate(170.4 272)"><rect stroke="#EEE" stroke-width="2.4" fill="#FFF" x="1.2" y="25.2" width="125.6" height="101.6" rx="4"/><text font-family="Roboto-Medium, Roboto" font-size="14.4" font-weight="400" fill="#000"><tspan x="39.517" y="83">Secrets</tspan></text><text font-family="Roboto-Regular, Roboto" font-size="8" letter-spacing=".667" fill="#484848"><tspan x="8.993" y="120">LAST ACCESS: 14.02.2020</tspan></text><text font-family="Roboto-Medium, Roboto" font-size="9.6" font-weight="400" letter-spacing="2" fill="#DA552F"><tspan x="40.748" y="58">SEALED</tspan></text><g transform="translate(40)"><mask id="v" fill="#fff"><use xlink:href="#t"/></mask><use fill="#000" filter="url(#u)" xlink:href="#t"/><use fill="#FAFAFA" xlink:href="#t"/><g mask="url(#v)" fill="#DA552F"><path d="M0 0h48v48H0z"/></g><g mask="url(#v)" fill="#FFF"><path d="M16.507 19.227h15.787v14.8H16.507z"/><path d="M24.4 26.133a6.907 6.907 0 110-13.813 6.907 6.907 0 010 13.813zm0-1.973a4.933 4.933 0 100-9.867 4.933 4.933 0 000 9.867z" fill-rule="nonzero"/></g></g></g><g transform="translate(170.4 128)"><rect stroke="#EEE" stroke-width="2.4" fill="#FFF" x="1.2" y="25.2" width="125.6" height="101.6" rx="4"/><text font-family="Roboto-Medium, Roboto" font-size="14.4" font-weight="400" fill="#000"><tspan x="40.723" y="83">H 2020</tspan></text><text font-family="Roboto-Regular, Roboto" font-size="8" letter-spacing=".667" fill="#484848"><tspan x="8.993" y="120">LAST ACCESS: 01.01.2020</tspan></text><text font-family="Roboto-Medium, Roboto" font-size="9.6" font-weight="400" letter-spacing="2" fill="#DA552F"><tspan x="40.748" y="58">SEALED</tspan></text><g transform="translate(40)"><mask id="y" fill="#fff"><use xlink:href="#w"/></mask><use fill="#000" filter="url(#x)" xlink:href="#w"/><use fill="#FAFAFA" xlink:href="#w"/><g mask="url(#y)" fill="#DA552F"><path d="M0 0h48v48H0z"/></g><g mask="url(#y)" fill="#FFF"><path d="M16.507 19.227h15.787v14.8H16.507z"/><path d="M24.4 26.133a6.907 6.907 0 110-13.813 6.907 6.907 0 010 13.813zm0-1.973a4.933 4.933 0 100-9.867 4.933 4.933 0 000 9.867z" fill-rule="nonzero"/></g></g></g><g transform="translate(26.4 272)"><rect stroke="#EEE" stroke-width="2.4" fill="#FFF" x="1.2" y="25.2" width="125.6" height="101.6" rx="4"/><text font-family="Roboto-Medium, Roboto" font-size="14.4" font-weight="400" fill="#000"><tspan x="42.822" y="83">Family</tspan></text><text font-family="Roboto-Regular, Roboto" font-size="8" letter-spacing=".667" fill="#484848"><tspan x="8.993" y="120">LAST ACCESS: 02.10.2019</tspan></text><text font-family="Roboto-Medium, Roboto" font-size="9.6" font-weight="400" letter-spacing="2" fill="#DA552F"><tspan x="40.748" y="58">SEALED</tspan></text><g transform="translate(40)"><mask id="B" fill="#fff"><use xlink:href="#z"/></mask><use fill="#000" filter="url(#A)" xlink:href="#z"/><use fill="#FAFAFA" xlink:href="#z"/><g mask="url(#B)" fill="#DA552F"><path d="M0 0h48v48H0z"/></g><g mask="url(#B)" fill="#FFF"><path d="M16.507 19.227h15.787v14.8H16.507z"/><path d="M24.4 26.133a6.907 6.907 0 110-13.813 6.907 6.907 0 010 13.813zm0-1.973a4.933 4.933 0 100-9.867 4.933 4.933 0 000 9.867z" fill-rule="nonzero"/></g></g></g><g transform="translate(26.4 128)"><rect stroke="#EEE" stroke-width="2.4" fill="#FFF" x="1.2" y="25.2" width="125.6" height="101.6" rx="4"/><text font-family="Roboto-Medium, Roboto" font-size="14.4" font-weight="400" fill="#000"><tspan x="32.602" y="83">Contracts</tspan></text><text font-family="Roboto-Regular, Roboto" font-size="8" letter-spacing=".667" fill="#484848"><tspan x="8.993" y="120">LAST ACCESS: 02.10.2019</tspan></text><text font-family="Roboto-Medium, Roboto" font-size="9.6" font-weight="400" letter-spacing="2" fill="#DA552F"><tspan x="40.748" y="58">SEALED</tspan></text><g transform="translate(40)"><mask id="E" fill="#fff"><use xlink:href="#C"/></mask><use fill="#000" filter="url(#D)" xlink:href="#C"/><use fill="#FAFAFA" xlink:href="#C"/><g mask="url(#E)" fill="#DA552F"><path d="M0 0h48v48H0z"/></g><g mask="url(#E)" fill="#FFF"><path d="M16.507 19.227h15.787v14.8H16.507z"/><path d="M24.4 26.133a6.907 6.907 0 110-13.813 6.907 6.907 0 010 13.813zm0-1.973a4.933 4.933 0 100-9.867 4.933 4.933 0 000 9.867z" fill-rule="nonzero"/></g></g></g></g><g mask="url(#e)"><g transform="translate(12 64)"><mask id="G" fill="#fff"><use xlink:href="#F"/></mask><g mask="url(#G)"><mask id="I" fill="#fff"><use xlink:href="#H"/></mask><path fill="#FFF" mask="url(#I)" d="M0 0h300v48H0z"/></g><text mask="url(#G)" font-family="Roboto-Regular, Roboto" font-size="19.2"><tspan x="106.069" y="23.722" fill="#000">Vaults</tspan></text><g mask="url(#G)"><g transform="translate(10.6 9.6)"><circle stroke="#FFF" stroke-width="1.6" fill="#FFF" cx="14.4" cy="14.4" r="14.4"/><g fill-rule="nonzero"><path d="M9.823 9.677a6.763 6.763 0 012.726-1.607 1.03 1.03 0 00.743-.977v-.539a1.015 1.015 0 00-.432-.816 1.094 1.094 0 00-.935-.156c-3.045.876-5.428 3.173-6.34 6.11a.996.996 0 00.162.908c.2.26.516.415.852.415h.557a1.06 1.06 0 001.012-.718 6.458 6.458 0 011.655-2.62zm9.287-.003a6.498 6.498 0 011.607 2.623c.135.427.53.717.979.718h.54a1.028 1.028 0 00.981-1.324 9.12 9.12 0 00-6.107-6.108 1.028 1.028 0 00-1.325.98v.535c0 .447.29.841.715.978a6.49 6.49 0 012.61 1.598z" fill="#EE3434"/><path d="M22.224 15.583h-.54a1.042 1.042 0 00-.99.731 6.586 6.586 0 01-1.53 2.57 6.746 6.746 0 01-1.363 1.097 5.454 5.454 0 01-.722.373 1.03 1.03 0 01-.946-.131 1.043 1.043 0 01-.438-.853v-.58a1.036 1.036 0 01.545-.923 4.06 4.06 0 001.96-2.284 4.058 4.058 0 00-.474-3.564 4.015 4.015 0 00-3.112-1.773h-.434a4.04 4.04 0 00-3.585 5.337 4.054 4.054 0 001.959 2.284c.338.182.548.537.545.922v.58c.002.34-.16.658-.434.855a1.032 1.032 0 01-1.024.102 6.726 6.726 0 01-2-1.436 6.598 6.598 0 01-1.531-2.57 1.042 1.042 0 00-.989-.731h-.545c-.328 0-.637.156-.833.42a1.048 1.048 0 00-.16.923 9.151 9.151 0 001.297 2.684 9.2 9.2 0 005.678 3.736 9.33 9.33 0 001.02.15 9.309 9.309 0 003.284-.298c.321-.091.638-.2.948-.327a9.207 9.207 0 003.882-2.956 9.294 9.294 0 001.526-2.995 1.048 1.048 0 00-.161-.922 1.036 1.036 0 00-.833-.42z" fill="#37AFCA"/></g></g></g><g mask="url(#G)"><g transform="translate(0 47.2)"><mask id="K" fill="#fff"><use xlink:href="#J"/></mask><g opacity=".12" mask="url(#K)" fill-opacity=".87"><path fill="#000" d="M0 0h300v1H0z"/></g></g></g></g></g><g mask="url(#e)"><path d="M13.747 624h300.8v45.6h-300.8z"/><g transform="translate(13.747 624)"><mask id="M" fill="#fff"><use xlink:href="#L"/></mask><path fill="#FFF" mask="url(#M)" d="M0 0h300.8v45.6H0z"/></g><g transform="translate(254.813 630.4)"><mask id="O" fill="#fff"><use xlink:href="#N"/></mask><g mask="url(#O)"><mask id="Q" fill="#fff"><use xlink:href="#P"/></mask><path fill="#69BAC9" mask="url(#Q)" d="M0 0h19.2v19.2H0z"/></g></g><text font-family="Roboto-Regular, Roboto" font-size="10.4" fill="#000" transform="translate(233.213 624)"><tspan x=".409" y="38.816">Relations</tspan></text><g transform="translate(154.547 630.4)"><mask id="S" fill="#fff"><use xlink:href="#R"/></mask><g mask="url(#S)"><mask id="U" fill="#fff"><use xlink:href="#T"/></mask><path fill="#69BAC9" mask="url(#U)" d="M0 0h19.2v19.2H0z"/></g></g><text font-family="Roboto-Regular, Roboto" font-size="10.4" fill="#000" transform="translate(132.947 624)"><tspan x="0" y="40.6">Consentos</tspan></text><g transform="translate(54.28 630.4)"><mask id="W" fill="#fff"><use xlink:href="#V"/></mask><use fill="#FAFAFA" xlink:href="#V"/><g mask="url(#W)" fill="#DA552F"><path d="M0 0h19.2v19.2H0z"/></g></g><text font-family="Roboto-Bold, Roboto" font-size="13" font-weight="bold" fill="#000" transform="translate(32.68 624)"><tspan x="3.267" y="38.87">Vaults</tspan></text><g transform="translate(13.747 622.1)"><mask id="Y" fill="#fff"><use xlink:href="#X"/></mask><g opacity=".12" mask="url(#Y)" fill="#000" fill-opacity=".87"><path d="M0-.5h300.8v1H0z"/></g></g></g><g transform="translate(141.6 25.6)"><mask id="ab" fill="#fff"><use xlink:href="#Z"/></mask><path d="M34.56.195v.66h-.73v-.66h-.732v.66h-.731v-.66h-.731v.66h-.731v-.66h-.732v.66h-.731v-.66h-.73v.66h-.733v-.66h-.73v.66h-.732v-.66h-.731v.66h-.73v-.66h-.732v.66h-.731v-.66h-.731v.66h-.731v-.66h-.733v.66h-.73v-.66h-.731v.66h-.732v-.66h-.73v.66h-.732v-.66h-.732v.66h-.73v-.66h-.732v.66h-.73v-.66h-.732v.66h-.732v-.66h-.73v.66h-.732v-.66h-.731v.66h-.73v-.66H9.7v.66h-.732v-.66h-.73v.66h-.732v-.66h-.731v.66h-.731v-.66h-.732v.66h-.731v-.66H3.85v.66h-.731v-.66c-.253 0-.498.029-.732.083v.577h-.73V.548a2.815 2.815 0 00-1.071.967h.338v.66H.286c-.06.211-.092.433-.092.661h.73v.66H.286c.067.235.17.457.3.661h.338v.426a3.066 3.066 0 002.195.894H34.56c.873 0 1.657-.345 2.193-.893v-.427h.34c.13-.204.232-.426.3-.66h-.64v-.66l.732-.001c0-.228-.033-.45-.093-.66h-.64v-.66h.341a2.813 2.813 0 00-1.07-.968v.307h-.732V.278a3.226 3.226 0 00-.73-.083h-.002zm.732 1.98h.73v-.66h-.73v.66zm-1.462 0h.73v-.66h-.73v.66zm-1.463 0h.731v-.66h-.731v.66zm-1.462 0h.73v-.66h-.73v.66zm-1.463 0h.731v-.66h-.731v.66zm-1.463 0h.732v-.66h-.732v.66zm-1.462 0h.731v-.66h-.73v.66zm-1.462 0h.73v-.66h-.73v.66zm-1.462 0h.73v-.66h-.73v.66zm-1.462 0h.73v-.66h-.73v.66zm-1.463 0h.73v-.66h-.73v.66zm-1.463 0h.732v-.66h-.732v.66zm-1.462 0h.731v-.66h-.731v.66zm-1.463 0h.731v-.66h-.73v.66zm-1.462 0h.731v-.66h-.73v.66zm-1.463 0h.732v-.66h-.732v.66zm-1.462 0h.73v-.66h-.73v.66zm-1.462 0h.73v-.66h-.73v.66zm-1.463 0H9.7v-.66h-.732v.66zm-1.462 0h.731v-.66h-.731v.66zm-1.462 0h.73v-.66h-.73v.66zm-1.463 0h.731v-.66h-.731v.66zm-1.462 0h.73v-.66h-.73v.66zm-1.462 0h.73v-.66h-.73v.66zm33.635 1.322h.73v-.66l-.73-.001v.66zm-1.462 0h.73v-.66l-.73-.001v.66zm-1.463 0h.731v-.66l-.731-.001v.66zm-1.462 0h.73v-.66l-.73-.001v.66zm-1.463 0h.731v-.66l-.731-.001v.66zm-1.463 0h.732v-.66l-.732-.001v.66zm-1.462 0h.731v-.66l-.73-.001v.66zm-1.462 0h.73v-.66l-.73-.001v.66zm-1.462 0h.73v-.66l-.73-.001v.66zm-1.462 0h.73v-.66l-.73-.001v.66zm-1.463 0h.73v-.66l-.73-.001v.66zm-1.463 0h.732v-.66l-.732-.001v.66zm-1.462 0h.731v-.66l-.731-.001v.66zm-1.463 0h.731v-.66l-.73-.001v.66zm-1.462 0h.731v-.66l-.73-.001v.66zm-1.463 0h.732v-.66l-.732-.001v.66zm-1.462 0h.73v-.66l-.73-.001v.66zm-1.462 0h.73v-.66l-.73-.001v.66zm-1.463 0H9.7v-.66l-.732-.001v.66zm-1.462 0h.731v-.66l-.731-.001v.66zm-1.462 0h.73v-.66l-.73-.001v.66zm-1.463 0h.731v-.66l-.731-.001v.66zm-1.462 0h.73v-.66l-.73-.001v.66zm-1.462 0h.73v-.66l-.73-.001v.66zm33.635 1.32h.73v-.66h-.73v.66zm-1.462 0h.73v-.66h-.73v.66zm-1.463 0h.731v-.66h-.731v.66zm-1.462 0h.73v-.66h-.73v.66zm-1.463 0h.731v-.66h-.731v.66zm-1.463 0h.732v-.66h-.732v.66zm-1.462 0h.731v-.66h-.73v.66zm-1.462 0h.73v-.66h-.73v.66zm-1.462 0h.73v-.66h-.73v.66zm-1.462 0h.73v-.66h-.73v.66zm-1.463 0h.73v-.66h-.73v.66zm-1.463 0h.732v-.66h-.732v.66zm-1.462 0h.731v-.66h-.731v.66zm-1.463 0h.731v-.66h-.73v.66zm-1.462 0h.731v-.66h-.73v.66zm-1.463 0h.732v-.66h-.732v.66zm-1.462 0h.73v-.66h-.73v.66zm-1.462 0h.73v-.66h-.73v.66zm-1.463 0H9.7v-.66h-.732v.66zm-1.462 0h.731v-.66h-.731v.66zm-1.462 0h.73v-.66h-.73v.66zm-1.463 0h.731v-.66h-.731v.66zm-1.462 0h.73v-.66h-.73v.66zm-1.462 0h.73v-.66h-.73v.66z" fill="url(#aa)" mask="url(#ab)"/></g><g transform="translate(141.6 26.4)"><mask id="ae" fill="#fff"><use xlink:href="#ac"/></mask><path d="M2.949 0C1.32 0 0 1.074 0 2.4c0 1.326 1.32 2.4 2.949 2.4h31.703c1.628 0 2.948-1.074 2.948-2.4 0-1.326-1.32-2.4-2.948-2.4H2.949zM.589 2.4C.59 1.342 1.649.48 2.95.48h31.703c1.3 0 2.358.862 2.358 1.92 0 1.058-1.058 1.92-2.358 1.92H2.949c-1.301 0-2.36-.862-2.36-1.92z" fill="url(#ad)" mask="url(#ae)"/></g><g transform="translate(92 19.2)"><mask id="ah" fill="#fff"><use xlink:href="#af"/></mask><path d="M5.912.483a8.283 8.283 0 105.05 15.777 8.283 8.283 0 005.364-10.412A8.287 8.287 0 008.439.086c-.837 0-1.688.128-2.527.397" fill="url(#ag)" mask="url(#ah)"/></g><path d="M105.569 24.265a5.6 5.6 0 11-9.537 5.869 5.6 5.6 0 019.537-5.869" fill="#131313"/><g transform="translate(95.2 21.6)"><mask id="ak" fill="#fff"><use xlink:href="#ai"/></mask><path d="M2.417 1.095A5.016 5.016 0 00.773 7.993a5.014 5.014 0 008.54-5.256h.001A5.01 5.01 0 005.04.35c-.896 0-1.804.24-2.623.745" fill="url(#aj)" mask="url(#ak)"/></g><g transform="translate(97.6 24.8)"><mask id="an" fill="#fff"><use xlink:href="#al"/></mask><path d="M.1 2.774a2.734 2.734 0 005.467 0 2.734 2.734 0 00-5.467 0" fill="url(#am)" mask="url(#an)"/></g><path d="M100.602 26.09c0 .536-.43.971-.961.971a.966.966 0 01-.962-.971c0-.537.43-.972.962-.972.53 0 .961.435.961.972m2.416 2.175a2.209 2.209 0 00-1.455-.555c-1.239 0-2.243 1.015-2.243 2.267 0 .052.012.1.015.15.299.105.613.175.947.175 1.287 0 2.365-.86 2.736-2.037" fill="#515054"/><g transform="translate(221.6 187.2)"><mask id="ap" fill="#fff"><use xlink:href="#ao"/></mask><path d="M.24 5.405v36.529c0 2.922.685 6.576 2.057 6.576.687 0 1.372-.654 1.372-1.463V1.751c0-.806-.685-1.46-1.372-1.46C.926.29.24 3.211.24 5.404" mask="url(#ap)"/></g><g transform="translate(220 187.2)"><mask id="ar" fill="#fff"><use xlink:href="#aq"/></mask><path d="M2.888.29C1.164.29.3 3.212.3 5.405v36.529c0 2.922.862 6.576 2.587 6.576V.29z" mask="url(#ar)"/></g><g transform="translate(221.6 282.4)"><mask id="at" fill="#fff"><use xlink:href="#as"/></mask><path d="M.24 5.511v83.58c0 2.934.685 6.6 2.057 6.6.687 0 1.372-.658 1.372-1.467V1.846c0-.81-.685-1.467-1.372-1.467C.926.379.24 3.312.24 5.51" mask="url(#at)"/></g><g transform="translate(220 282.4)"><mask id="av" fill="#fff"><use xlink:href="#au"/></mask><path d="M2.888.379C1.164.379.3 3.312.3 5.51v83.58c0 2.934.862 6.6 2.587 6.6V.379z" mask="url(#av)"/></g><g transform="translate(248 558.4)"><mask id="ay" fill="#fff"><use xlink:href="#aw"/></mask><use fill="#000" filter="url(#ax)" xlink:href="#aw"/><use fill="#FAFAFA" xlink:href="#aw"/><g mask="url(#ay)" fill="#DA552F"><path d="M0 0h48v48H0z"/></g><g mask="url(#ay)" fill="#FFF"><path d="M22.72 16.96h2.56v14.08h-2.56z"/><path d="M31.04 22.72v2.56H16.96v-2.56z"/></g></g><text font-family="Roboto-Medium, Roboto" font-size="10.773" font-weight="400" letter-spacing=".077" fill="#000" transform="translate(37 47)"><tspan x="227" y="12.539">13:37</tspan></text><text transform="translate(37 48.8)" fill="#1D1D1D" font-family="Roboto-Regular, Roboto" font-size="10.004"><tspan x="0" y="10">Telekom</tspan></text><path d="M247.572 47h17.37v13.421h-17.37z"/><path d="M258.913 49.237h-1.209v-1.119h-2.895v1.119h-1.208c-.529 0-.963.335-.963.744v8.573c0 .413.434.749.963.749h5.305c.535 0 .97-.336.97-.744v-8.578c0-.409-.435-.744-.963-.744zm-3.38 8.947V55.11h-1.447l2.895-4.194v3.075h1.447l-2.895 4.194z" fill="#595959" fill-rule="nonzero"/><g fill="#000"><path d="M207.943 50.463h1.154v6.926h-1.154zm3.847 0h1.155v6.926h-1.154zm2.694 0h1.154v6.926h-1.154z"/><path d="M210.636 50.463h3.463v1.154h-3.463zm-2.693 5.771h3.078v1.154h-3.078zm6.541 0h3.463v1.154h-3.463zm0-5.771h3.463v1.154h-3.463zm0 2.693h2.693v1.154h-2.693z"/></g><path fill="#AAA" d="M203.036 48.539l-.079 10.73h-4.198l-.05-6.387z"/><path fill="#595959" d="M198.792 52.771l.045 6.364h-6.669z"/><text font-family="RobotoCondensed-Regular, Roboto Condensed" font-size="10.773" font-style="condensed" letter-spacing=".077" fill="#000" transform="translate(37 47)"><tspan x="189.414" y="11.154">100%</tspan></text></g></g></svg>