<?xml version="1.0" encoding="UTF-8"?>
<svg width="388px" height="752px" viewBox="0 0 388 752" version="1.1" xmlns="http://www.w3.org/2000/svg" xmlns:xlink="http://www.w3.org/1999/xlink">
    <!-- Generator: Sketch 63.1 (92452) - https://sketch.com -->
    <title>illustration-00-app</title>
    <desc>Created with Sketch.</desc>
    <defs>
        <filter x="-6.1%" y="-2.9%" width="112.2%" height="105.7%" filterUnits="objectBoundingBox" id="filter-1">
            <feOffset dx="0" dy="2" in="SourceAlpha" result="shadowOffsetOuter1"></feOffset>
            <feGaussianBlur stdDeviation="4" in="shadowOffsetOuter1" result="shadowBlurOuter1"></feGaussianBlur>
            <feColorMatrix values="0 0 0 0 0   0 0 0 0 0   0 0 0 0 0  0 0 0 0.5 0" type="matrix" in="shadowBlurOuter1" result="shadowMatrixOuter1"></feColorMatrix>
            <feMerge>
                <feMergeNode in="shadowMatrixOuter1"></feMergeNode>
                <feMergeNode in="SourceGraphic"></feMergeNode>
            </feMerge>
        </filter>
        <polygon id="path-2" points="0 0.114751101 326.179175 0.114751101 326.179175 696.8 0 696.8"></polygon>
        <path d="M312.618265,644.164472 C312.618265,661.120972 298.835248,674.867852 281.832917,674.867852 L44.3458309,674.867852 C27.3427223,674.867852 13.5604823,661.120972 13.5604823,644.164472 L13.5604823,76.1434207 C13.5604823,59.1853704 27.3427223,45.4396534 44.3458309,45.4396534 L281.832917,45.4396534 C298.835248,45.4396534 312.618265,59.1853704 312.618265,76.1434207 L312.618265,644.164472 Z" id="path-4"></path>
        <rect id="path-6" x="0" y="0" width="300" height="630.4"></rect>
        <path d="M45.1141229,12.0001083 C45.3334368,12.3685971 45.4594017,12.7991226 45.4594017,13.2590687 L45.4594017,34.7409313 C45.4594017,35.2008774 45.3334368,35.6314029 45.1141229,35.9998917 C44.9046592,36.3740675 44.5947957,36.698419 44.1964706,36.9283921 L25.5926319,47.6693234 C25.1943069,47.8992964 24.7584785,48.0054703 24.3297009,48 C23.9009232,48.0054703 23.4650948,47.8992964 23.0667698,47.6693234 L4.46293109,36.9283921 C4.06460605,36.698419 3.75474253,36.3740675 3.54527879,35.9998917 C3.32596492,35.6314029 3.2,35.2008774 3.2,34.7409313 L3.2,13.2590687 C3.2,12.7991226 3.32596492,12.3685971 3.54527879,12.0001083 C3.75474253,11.6259325 4.06460605,11.301581 4.46293109,11.0716079 L23.0667698,0.330676649 C23.4650948,0.100703581 23.9009232,-0.00547033032 24.3297009,0 C24.7584785,-0.00547033032 25.1943069,0.100703581 25.5926319,0.330676649 L44.1964706,11.0716079 C44.5947957,11.301581 44.9046592,11.6259325 45.1141229,12.0001083 L45.1141229,12.0001083 Z" id="path-8"></path>
        <filter x="-9.5%" y="-4.2%" width="118.9%" height="116.7%" filterUnits="objectBoundingBox" id="filter-10">
            <feMorphology radius="0.5" operator="erode" in="SourceAlpha" result="shadowSpreadOuter1"></feMorphology>
            <feOffset dx="0" dy="2" in="shadowSpreadOuter1" result="shadowOffsetOuter1"></feOffset>
            <feGaussianBlur stdDeviation="1.5" in="shadowOffsetOuter1" result="shadowBlurOuter1"></feGaussianBlur>
            <feColorMatrix values="0 0 0 0 0   0 0 0 0 0   0 0 0 0 0  0 0 0 0.2 0" type="matrix" in="shadowBlurOuter1"></feColorMatrix>
        </filter>
        <rect id="path-11" x="0" y="0" width="48" height="48"></rect>
        <path d="M41.9141229,12.0001083 C42.1334368,12.3685971 42.2594017,12.7991226 42.2594017,13.2590687 L42.2594017,34.7409313 C42.2594017,35.2008774 42.1334368,35.6314029 41.9141229,35.9998917 C41.7046592,36.3740675 41.3947957,36.698419 40.9964706,36.9283921 L22.3926319,47.6693234 C21.9943069,47.8992964 21.5584785,48.0054703 21.1297009,48 C20.7009232,48.0054703 20.2650948,47.8992964 19.8667698,47.6693234 L1.26293109,36.9283921 C0.86460605,36.698419 0.554742527,36.3740675 0.345278788,35.9998917 C0.125964915,35.6314029 0,35.2008774 0,34.7409313 L0,13.2590687 C0,12.7991226 0.125964915,12.3685971 0.345278788,12.0001083 C0.554742527,11.6259325 0.86460605,11.301581 1.26293109,11.0716079 L19.8667698,0.330676649 C20.2650948,0.100703581 20.7009232,-0.00547033032 21.1297009,0 C21.5584785,-0.00547033032 21.9943069,0.100703581 22.3926319,0.330676649 L40.9964706,11.0716079 C41.3947957,11.301581 41.7046592,11.6259325 41.9141229,12.0001083 L41.9141229,12.0001083 Z" id="path-13"></path>
        <filter x="-9.5%" y="-4.2%" width="118.9%" height="116.7%" filterUnits="objectBoundingBox" id="filter-15">
            <feMorphology radius="0.5" operator="erode" in="SourceAlpha" result="shadowSpreadOuter1"></feMorphology>
            <feOffset dx="0" dy="2" in="shadowSpreadOuter1" result="shadowOffsetOuter1"></feOffset>
            <feGaussianBlur stdDeviation="1.5" in="shadowOffsetOuter1" result="shadowBlurOuter1"></feGaussianBlur>
            <feColorMatrix values="0 0 0 0 0   0 0 0 0 0   0 0 0 0 0  0 0 0 0.2 0" type="matrix" in="shadowBlurOuter1"></feColorMatrix>
        </filter>
        <path d="M24.2818595,-0.399795805 C24.7177834,-0.405357307 25.1608756,-0.297413846 25.5658393,-0.0636079253 L44.4797393,10.8563373 C44.8847031,11.0901433 45.1997309,11.4199006 45.4126857,11.8003126 C45.6356548,12.1749429 45.7637191,12.6126437 45.7637191,13.0802555 L45.7637191,34.9201461 C45.7637191,35.3877579 45.6356548,35.8254587 45.4126857,36.200089 C45.1997309,36.580501 44.8847031,36.9102583 44.4797393,37.1440643 L25.5658393,48.0640095 C25.1608756,48.2978154 24.7177834,48.4057589 24.2818595,48.4001974 C23.8459357,48.4057589 23.4028435,48.2978154 22.9978798,48.0640095 L4.08397976,37.1440643 C3.67901603,36.9102583 3.36398816,36.580501 3.15103339,36.200089 C2.92806431,35.8254587 2.8,35.3877579 2.8,34.9201461 L2.8,13.0802555 C2.8,12.6126437 2.92806431,12.1749429 3.15103339,11.8003126 C3.36398816,11.4199006 3.67901603,11.0901433 4.08397976,10.8563373 L22.9978798,-0.0636079253 C23.4028435,-0.297413846 23.8459357,-0.405357307 24.2818595,-0.399795805 Z M24.2818595,2.04020386 C23.8895281,2.0351985 23.4907451,2.13234762 23.1262778,2.34277295 L23.1262778,2.34277295 L6.10376774,12.1707237 C5.73930038,12.381149 5.4557753,12.6779306 5.264116,13.0203014 C5.06344384,13.3574687 4.94818595,13.7513994 4.94818595,14.1722501 L4.94818595,14.1722501 L4.94818595,33.8281515 C4.94818595,34.2490022 5.06344384,34.6429329 5.264116,34.9801002 C5.4557753,35.322471 5.73930038,35.6192526 6.10376774,35.8296779 L6.10376774,35.8296779 L23.1262778,45.6576287 C23.4907451,45.868054 23.8895281,45.9652031 24.2818595,45.9601977 C24.674191,45.9652031 25.072974,45.868054 25.4374413,45.6576287 L25.4374413,45.6576287 L42.4599514,35.8296779 C42.8244187,35.6192526 43.1079438,35.322471 43.2996031,34.9801002 C43.5002753,34.6429329 43.6155331,34.2490022 43.6155331,33.8281515 L43.6155331,33.8281515 L43.6155331,14.1722501 C43.6155331,13.7513994 43.5002753,13.3574687 43.2996031,13.0203014 C43.1079438,12.6779306 42.8244187,12.381149 42.4599514,12.1707237 L42.4599514,12.1707237 L25.4374413,2.34277295 C25.072974,2.13234762 24.674191,2.0351985 24.2818595,2.04020386 Z" id="path-16"></path>
        <rect id="path-18" x="0" y="0" width="48" height="48"></rect>
        <path d="M45.1141229,12.0001083 C45.3334368,12.3685971 45.4594017,12.7991226 45.4594017,13.2590687 L45.4594017,34.7409313 C45.4594017,35.2008774 45.3334368,35.6314029 45.1141229,35.9998917 C44.9046592,36.3740675 44.5947957,36.698419 44.1964706,36.9283921 L25.5926319,47.6693234 C25.1943069,47.8992964 24.7584785,48.0054703 24.3297009,48 C23.9009232,48.0054703 23.4650948,47.8992964 23.0667698,47.6693234 L4.46293109,36.9283921 C4.06460605,36.698419 3.75474253,36.3740675 3.54527879,35.9998917 C3.32596492,35.6314029 3.2,35.2008774 3.2,34.7409313 L3.2,13.2590687 C3.2,12.7991226 3.32596492,12.3685971 3.54527879,12.0001083 C3.75474253,11.6259325 4.06460605,11.301581 4.46293109,11.0716079 L23.0667698,0.330676649 C23.4650948,0.100703581 23.9009232,-0.00547033032 24.3297009,0 C24.7584785,-0.00547033032 25.1943069,0.100703581 25.5926319,0.330676649 L44.1964706,11.0716079 C44.5947957,11.301581 44.9046592,11.6259325 45.1141229,12.0001083 L45.1141229,12.0001083 Z" id="path-20"></path>
        <filter x="-9.5%" y="-4.2%" width="118.9%" height="116.7%" filterUnits="objectBoundingBox" id="filter-22">
            <feMorphology radius="0.5" operator="erode" in="SourceAlpha" result="shadowSpreadOuter1"></feMorphology>
            <feOffset dx="0" dy="2" in="shadowSpreadOuter1" result="shadowOffsetOuter1"></feOffset>
            <feGaussianBlur stdDeviation="1.5" in="shadowOffsetOuter1" result="shadowBlurOuter1"></feGaussianBlur>
            <feColorMatrix values="0 0 0 0 0   0 0 0 0 0   0 0 0 0 0  0 0 0 0.2 0" type="matrix" in="shadowBlurOuter1"></feColorMatrix>
        </filter>
        <path d="M45.1141229,12.0001083 C45.3334368,12.3685971 45.4594017,12.7991226 45.4594017,13.2590687 L45.4594017,34.7409313 C45.4594017,35.2008774 45.3334368,35.6314029 45.1141229,35.9998917 C44.9046592,36.3740675 44.5947957,36.698419 44.1964706,36.9283921 L25.5926319,47.6693234 C25.1943069,47.8992964 24.7584785,48.0054703 24.3297009,48 C23.9009232,48.0054703 23.4650948,47.8992964 23.0667698,47.6693234 L4.46293109,36.9283921 C4.06460605,36.698419 3.75474253,36.3740675 3.54527879,35.9998917 C3.32596492,35.6314029 3.2,35.2008774 3.2,34.7409313 L3.2,13.2590687 C3.2,12.7991226 3.32596492,12.3685971 3.54527879,12.0001083 C3.75474253,11.6259325 4.06460605,11.301581 4.46293109,11.0716079 L23.0667698,0.330676649 C23.4650948,0.100703581 23.9009232,-0.00547033032 24.3297009,0 C24.7584785,-0.00547033032 25.1943069,0.100703581 25.5926319,0.330676649 L44.1964706,11.0716079 C44.5947957,11.301581 44.9046592,11.6259325 45.1141229,12.0001083 L45.1141229,12.0001083 Z" id="path-23"></path>
        <filter x="-9.5%" y="-4.2%" width="118.9%" height="116.7%" filterUnits="objectBoundingBox" id="filter-25">
            <feMorphology radius="0.5" operator="erode" in="SourceAlpha" result="shadowSpreadOuter1"></feMorphology>
            <feOffset dx="0" dy="2" in="shadowSpreadOuter1" result="shadowOffsetOuter1"></feOffset>
            <feGaussianBlur stdDeviation="1.5" in="shadowOffsetOuter1" result="shadowBlurOuter1"></feGaussianBlur>
            <feColorMatrix values="0 0 0 0 0   0 0 0 0 0   0 0 0 0 0  0 0 0 0.2 0" type="matrix" in="shadowBlurOuter1"></feColorMatrix>
        </filter>
        <path d="M45.1141229,12.0001083 C45.3334368,12.3685971 45.4594017,12.7991226 45.4594017,13.2590687 L45.4594017,34.7409313 C45.4594017,35.2008774 45.3334368,35.6314029 45.1141229,35.9998917 C44.9046592,36.3740675 44.5947957,36.698419 44.1964706,36.9283921 L25.5926319,47.6693234 C25.1943069,47.8992964 24.7584785,48.0054703 24.3297009,48 C23.9009232,48.0054703 23.4650948,47.8992964 23.0667698,47.6693234 L4.46293109,36.9283921 C4.06460605,36.698419 3.75474253,36.3740675 3.54527879,35.9998917 C3.32596492,35.6314029 3.2,35.2008774 3.2,34.7409313 L3.2,13.2590687 C3.2,12.7991226 3.32596492,12.3685971 3.54527879,12.0001083 C3.75474253,11.6259325 4.06460605,11.301581 4.46293109,11.0716079 L23.0667698,0.330676649 C23.4650948,0.100703581 23.9009232,-0.00547033032 24.3297009,0 C24.7584785,-0.00547033032 25.1943069,0.100703581 25.5926319,0.330676649 L44.1964706,11.0716079 C44.5947957,11.301581 44.9046592,11.6259325 45.1141229,12.0001083 L45.1141229,12.0001083 Z" id="path-26"></path>
        <filter x="-9.5%" y="-4.2%" width="118.9%" height="116.7%" filterUnits="objectBoundingBox" id="filter-28">
            <feMorphology radius="0.5" operator="erode" in="SourceAlpha" result="shadowSpreadOuter1"></feMorphology>
            <feOffset dx="0" dy="2" in="shadowSpreadOuter1" result="shadowOffsetOuter1"></feOffset>
            <feGaussianBlur stdDeviation="1.5" in="shadowOffsetOuter1" result="shadowBlurOuter1"></feGaussianBlur>
            <feColorMatrix values="0 0 0 0 0   0 0 0 0 0   0 0 0 0 0  0 0 0 0.2 0" type="matrix" in="shadowBlurOuter1"></feColorMatrix>
        </filter>
        <path d="M45.1141229,12.0001083 C45.3334368,12.3685971 45.4594017,12.7991226 45.4594017,13.2590687 L45.4594017,34.7409313 C45.4594017,35.2008774 45.3334368,35.6314029 45.1141229,35.9998917 C44.9046592,36.3740675 44.5947957,36.698419 44.1964706,36.9283921 L25.5926319,47.6693234 C25.1943069,47.8992964 24.7584785,48.0054703 24.3297009,48 C23.9009232,48.0054703 23.4650948,47.8992964 23.0667698,47.6693234 L4.46293109,36.9283921 C4.06460605,36.698419 3.75474253,36.3740675 3.54527879,35.9998917 C3.32596492,35.6314029 3.2,35.2008774 3.2,34.7409313 L3.2,13.2590687 C3.2,12.7991226 3.32596492,12.3685971 3.54527879,12.0001083 C3.75474253,11.6259325 4.06460605,11.301581 4.46293109,11.0716079 L23.0667698,0.330676649 C23.4650948,0.100703581 23.9009232,-0.00547033032 24.3297009,0 C24.7584785,-0.00547033032 25.1943069,0.100703581 25.5926319,0.330676649 L44.1964706,11.0716079 C44.5947957,11.301581 44.9046592,11.6259325 45.1141229,12.0001083 L45.1141229,12.0001083 Z" id="path-29"></path>
        <filter x="-9.5%" y="-4.2%" width="118.9%" height="116.7%" filterUnits="objectBoundingBox" id="filter-31">
            <feMorphology radius="0.5" operator="erode" in="SourceAlpha" result="shadowSpreadOuter1"></feMorphology>
            <feOffset dx="0" dy="2" in="shadowSpreadOuter1" result="shadowOffsetOuter1"></feOffset>
            <feGaussianBlur stdDeviation="1.5" in="shadowOffsetOuter1" result="shadowBlurOuter1"></feGaussianBlur>
            <feColorMatrix values="0 0 0 0 0   0 0 0 0 0   0 0 0 0 0  0 0 0 0.2 0" type="matrix" in="shadowBlurOuter1"></feColorMatrix>
        </filter>
        <rect id="path-32" x="0" y="0" width="300" height="48"></rect>
        <rect id="path-34" x="0" y="0" width="300" height="48"></rect>
        <rect id="path-36" x="0" y="0" width="300" height="1"></rect>
        <rect id="path-38" x="0" y="0" width="300.8" height="45.6"></rect>
        <path d="M9.6,4.72 C10.528,4.72 11.28,5.472 11.28,6.4 C11.28,7.328 10.528,8.08 9.6,8.08 C8.672,8.08 7.92,7.328 7.92,6.4 C7.92,5.472 8.672,4.72 9.6,4.72 L9.6,4.72 Z M9.6,11.92 C11.976,11.92 14.48,13.088 14.48,13.6 L14.48,14.48 L4.72,14.48 L4.72,13.6 C4.72,13.088 7.224,11.92 9.6,11.92 L9.6,11.92 Z M9.6,3.2 C7.832,3.2 6.4,4.632 6.4,6.4 C6.4,8.168 7.832,9.6 9.6,9.6 C11.368,9.6 12.8,8.168 12.8,6.4 C12.8,4.632 11.368,3.2 9.6,3.2 Z M9.6,10.4 C7.464,10.4 3.2,11.472 3.2,13.6 L3.2,16 L16,16 L16,13.6 C16,11.472 11.736,10.4 9.6,10.4 Z" id="path-40"></path>
        <rect id="path-42" x="0" y="0" width="19.2" height="19.2"></rect>
        <path d="M15.2,2.4 L4,2.4 C3.12,2.4 2.4,3.12 2.4,4 L2.4,15.2 C2.4,16.08 3.12,16.8 4,16.8 L15.2,16.8 C16.08,16.8 16.8,16.08 16.8,15.2 L16.8,4 C16.8,3.12 16.08,2.4 15.2,2.4 Z M15.2,15.2 L4,15.2 L4,4 L15.2,4 L15.2,15.2 Z M14.392,7.2 L13.264,6.064 L7.992,11.336 L5.928,9.28 L4.792,10.408 L7.992,13.6 L14.392,7.2 Z" id="path-44"></path>
        <rect id="path-46" x="0" y="0" width="19.2" height="19.2"></rect>
        <path d="M17.4692726,5.00011852 C17.5523079,5.14137256 17.6,5.30640732 17.6,5.48272001 L17.6,13.717434 C17.6,13.8937467 17.5523079,14.0587814 17.4692726,14.2000355 C17.3899667,14.3434695 17.2726481,14.4678043 17.1218366,14.5559606 L10.0781634,18.6733176 C9.92735193,18.761474 9.7623412,18.802174 9.6,18.800077 C9.4376588,18.802174 9.27264807,18.761474 9.12183664,18.6733176 L2.07816336,14.5559606 C1.92735193,14.4678043 1.81003327,14.3434695 1.73072737,14.2000355 C1.64769208,14.0587814 1.6,13.8937467 1.6,13.717434 L1.6,5.48272001 C1.6,5.30640732 1.64769208,5.14137256 1.73072737,5.00011852 C1.81003327,4.85668446 1.92735193,4.7323497 2.07816336,4.64419336 L9.12183664,0.526836374 C9.27264807,0.438680031 9.4376588,0.397980032 9.6,0.400076992 C9.7623412,0.397980032 9.92735193,0.438680031 10.0781634,0.526836374 L17.1218366,4.64419336 C17.2726481,4.7323497 17.3899667,4.85668446 17.4692726,5.00011852 L17.4692726,5.00011852 Z" id="path-48"></path>
        <rect id="path-50" x="0" y="0" width="300.8" height="1"></rect>
        <path d="M34.5602144,0.19495 L34.5602144,0.8547 L33.829534,0.8547 L33.829534,0.19495 L33.0980784,0.19495 L33.0980784,0.8547 L32.3670103,0.8547 L32.3670103,0.19495 L31.6355546,0.19495 L31.6355546,0.8547 L30.9048742,0.8547 L30.9048742,0.19495 L30.1734186,0.19495 L30.1734186,0.8547 L29.4419629,0.8547 L29.4419629,0.19495 L28.7112825,0.19495 L28.7112825,0.8547 L27.9794392,0.8547 L27.9794392,0.19495 L27.2487588,0.19495 L27.2487588,0.8547 L26.5173031,0.8547 L26.5173031,0.19495 L25.7858474,0.19495 L25.7858474,0.8547 L25.055167,0.8547 L25.055167,0.19495 L24.3237113,0.19495 L24.3237113,0.8547 L23.5926433,0.8547 L23.5926433,0.19495 L22.8615753,0.19495 L22.8615753,0.8547 L22.1305072,0.8547 L22.1305072,0.19495 L21.3982763,0.19495 L21.3982763,0.8547 L20.6675959,0.8547 L20.6675959,0.19495 L19.9369155,0.19495 L19.9369155,0.8547 L19.2054598,0.8547 L19.2054598,0.19495 L18.4743918,0.19495 L18.4743918,0.8547 L17.7425485,0.8547 L17.7425485,0.19495 L17.0114804,0.19495 L17.0114804,0.8547 L16.2804124,0.8547 L16.2804124,0.19495 L15.5489567,0.19495 L15.5489567,0.8547 L14.8182763,0.8547 L14.8182763,0.19495 L14.0872082,0.19495 L14.0872082,0.8547 L13.3553649,0.8547 L13.3553649,0.19495 L12.6242969,0.19495 L12.6242969,0.8547 L11.8932289,0.8547 L11.8932289,0.19495 L11.1617732,0.19495 L11.1617732,0.8547 L10.4310928,0.8547 L10.4310928,0.19495 L9.70002474,0.19495 L9.70002474,0.8547 L8.96818144,0.8547 L8.96818144,0.19495 L8.2371134,0.19495 L8.2371134,0.8547 L7.50565773,0.8547 L7.50565773,0.19495 L6.77497732,0.19495 L6.77497732,0.8547 L6.04352165,0.8547 L6.04352165,0.19495 L5.31245361,0.19495 L5.31245361,0.8547 L4.58099794,0.8547 L4.58099794,0.19495 L3.84954227,0.19495 L3.84954227,0.8547 L3.11886186,0.8547 L3.11886186,0.19495 C2.86612784,0.19495 2.62114639,0.224 2.38740619,0.27825 L2.38740619,0.27825 L2.38740619,0.8547 L1.65672577,0.8547 L1.65672577,0.5481 C1.21289072,0.78015 0.842317526,1.1144 0.585707216,1.51515 L0.585707216,1.51515 L0.924494845,1.51515 L0.924494845,2.17525 L0.286457732,2.17525 C0.225987629,2.3863 0.194202062,2.60785 0.194202062,2.83605 L0.194202062,2.83605 L0.924494845,2.83605 L0.924494845,3.49685 L0.286457732,3.49685 C0.353129897,3.731 0.455076289,3.9529 0.585707216,4.1573 L0.585707216,4.1573 L0.924494845,4.1573 L0.924494845,4.58255 C1.46058557,5.131 2.24514639,5.47715 3.11886186,5.47715 L3.11886186,5.47715 L34.5613773,5.47715 C35.4343175,5.47715 36.2181031,5.1317 36.7538062,4.5836 L36.7538062,4.5836 L36.7538062,4.1573 L37.0937567,4.1573 C37.2247753,3.9529 37.326334,3.731 37.3933938,3.49685 L37.3933938,3.49685 L36.7538062,3.49685 L36.7538062,2.83605 L37.4856495,2.83605 C37.4856495,2.60785 37.4534763,2.3863 37.3933938,2.17525 L37.3933938,2.17525 L36.7538062,2.17525 L36.7538062,1.51515 L37.0941443,1.51515 C36.8371464,1.11405 36.4669608,0.7798 36.0231258,0.5481 L36.0231258,0.5481 L36.0231258,0.8547 L35.2920577,0.8547 L35.2920577,0.27825 C35.0587052,0.224 34.8137237,0.19495 34.5613773,0.19495 L34.5613773,0.19495 L34.5602144,0.19495 Z M35.2920577,2.17525 L36.0227381,2.17525 L36.0227381,1.51515 L35.2920577,1.51515 L35.2920577,2.17525 Z M33.829534,2.17525 L34.5602144,2.17525 L34.5602144,1.51515 L33.829534,1.51515 L33.829534,2.17525 Z M32.3670103,2.17525 L33.0980784,2.17525 L33.0980784,1.51515 L32.3670103,1.51515 L32.3670103,2.17525 Z M30.9048742,2.17525 L31.6355546,2.17525 L31.6355546,1.51515 L30.9048742,1.51515 L30.9048742,2.17525 Z M29.4419629,2.17525 L30.1730309,2.17525 L30.1730309,1.51515 L29.4419629,1.51515 L29.4419629,2.17525 Z M27.9794392,2.17525 L28.7108948,2.17525 L28.7108948,1.51515 L27.9794392,1.51515 L27.9794392,2.17525 Z M26.5173031,2.17525 L27.2483711,2.17525 L27.2483711,1.51515 L26.5173031,1.51515 L26.5173031,2.17525 Z M25.055167,2.17525 L25.7858474,2.17525 L25.7858474,1.51515 L25.055167,1.51515 L25.055167,2.17525 Z M23.5926433,2.17525 L24.3237113,2.17525 L24.3237113,1.51515 L23.5926433,1.51515 L23.5926433,2.17525 Z M22.1305072,2.17525 L22.8611876,2.17525 L22.8611876,1.51515 L22.1305072,1.51515 L22.1305072,2.17525 Z M20.6675959,2.17525 L21.3982763,2.17525 L21.3982763,1.51515 L20.6675959,1.51515 L20.6675959,2.17525 Z M19.2054598,2.17525 L19.9369155,2.17525 L19.9369155,1.51515 L19.2054598,1.51515 L19.2054598,2.17525 Z M17.7425485,2.17525 L18.4743918,2.17525 L18.4743918,1.51515 L17.7425485,1.51515 L17.7425485,2.17525 Z M16.2804124,2.17525 L17.0114804,2.17525 L17.0114804,1.51515 L16.2804124,1.51515 L16.2804124,2.17525 Z M14.8182763,2.17525 L15.5489567,2.17525 L15.5489567,1.51515 L14.8182763,1.51515 L14.8182763,2.17525 Z M13.3553649,2.17525 L14.0868206,2.17525 L14.0868206,1.51515 L13.3553649,1.51515 L13.3553649,2.17525 Z M11.8932289,2.17525 L12.6239093,2.17525 L12.6239093,1.51515 L11.8932289,1.51515 L11.8932289,2.17525 Z M10.4310928,2.17525 L11.1617732,2.17525 L11.1617732,1.51515 L10.4310928,1.51515 L10.4310928,2.17525 Z M8.96818144,2.17525 L9.70002474,2.17525 L9.70002474,1.51515 L8.96818144,1.51515 L8.96818144,2.17525 Z M7.50565773,2.17525 L8.2371134,2.17525 L8.2371134,1.51515 L7.50565773,1.51515 L7.50565773,2.17525 Z M6.04352165,2.17525 L6.77458969,2.17525 L6.77458969,1.51515 L6.04352165,1.51515 L6.04352165,2.17525 Z M4.58099794,2.17525 L5.31206598,2.17525 L5.31206598,1.51515 L4.58099794,1.51515 L4.58099794,2.17525 Z M3.11886186,2.17525 L3.84954227,2.17525 L3.84954227,1.51515 L3.11886186,1.51515 L3.11886186,2.17525 Z M1.65672577,2.17525 L2.38740619,2.17525 L2.38740619,1.51515 L1.65672577,1.51515 L1.65672577,2.17525 Z M35.2920577,3.49685 L36.0227381,3.49685 L36.0227381,2.83605 L35.2920577,2.83605 L35.2920577,3.49685 Z M33.829534,3.49685 L34.5602144,3.49685 L34.5602144,2.83605 L33.829534,2.83605 L33.829534,3.49685 Z M32.3670103,3.49685 L33.0980784,3.49685 L33.0980784,2.83605 L32.3670103,2.83605 L32.3670103,3.49685 Z M30.9048742,3.49685 L31.6355546,3.49685 L31.6355546,2.83605 L30.9048742,2.83605 L30.9048742,3.49685 Z M29.4419629,3.49685 L30.1730309,3.49685 L30.1730309,2.83605 L29.4419629,2.83605 L29.4419629,3.49685 Z M27.9794392,3.49685 L28.7108948,3.49685 L28.7108948,2.83605 L27.9794392,2.83605 L27.9794392,3.49685 Z M26.5173031,3.49685 L27.2483711,3.49685 L27.2483711,2.83605 L26.5173031,2.83605 L26.5173031,3.49685 Z M25.055167,3.49685 L25.7858474,3.49685 L25.7858474,2.83605 L25.055167,2.83605 L25.055167,3.49685 Z M23.5926433,3.49685 L24.3237113,3.49685 L24.3237113,2.83605 L23.5926433,2.83605 L23.5926433,3.49685 Z M22.1305072,3.49685 L22.8611876,3.49685 L22.8611876,2.83605 L22.1305072,2.83605 L22.1305072,3.49685 Z M20.6675959,3.49685 L21.3982763,3.49685 L21.3982763,2.83605 L20.6675959,2.83605 L20.6675959,3.49685 Z M19.2054598,3.49685 L19.9369155,3.49685 L19.9369155,2.83605 L19.2054598,2.83605 L19.2054598,3.49685 Z M17.7425485,3.49685 L18.4743918,3.49685 L18.4743918,2.83605 L17.7425485,2.83605 L17.7425485,3.49685 Z M16.2804124,3.49685 L17.0114804,3.49685 L17.0114804,2.83605 L16.2804124,2.83605 L16.2804124,3.49685 Z M14.8182763,3.49685 L15.5489567,3.49685 L15.5489567,2.83605 L14.8182763,2.83605 L14.8182763,3.49685 Z M13.3553649,3.49685 L14.0868206,3.49685 L14.0868206,2.83605 L13.3553649,2.83605 L13.3553649,3.49685 Z M11.8932289,3.49685 L12.6239093,3.49685 L12.6239093,2.83605 L11.8932289,2.83605 L11.8932289,3.49685 Z M10.4310928,3.49685 L11.1617732,3.49685 L11.1617732,2.83605 L10.4310928,2.83605 L10.4310928,3.49685 Z M8.96818144,3.49685 L9.70002474,3.49685 L9.70002474,2.83605 L8.96818144,2.83605 L8.96818144,3.49685 Z M7.50565773,3.49685 L8.2371134,3.49685 L8.2371134,2.83605 L7.50565773,2.83605 L7.50565773,3.49685 Z M6.04352165,3.49685 L6.77458969,3.49685 L6.77458969,2.83605 L6.04352165,2.83605 L6.04352165,3.49685 Z M4.58099794,3.49685 L5.31206598,3.49685 L5.31206598,2.83605 L4.58099794,2.83605 L4.58099794,3.49685 Z M3.11886186,3.49685 L3.84954227,3.49685 L3.84954227,2.83605 L3.11886186,2.83605 L3.11886186,3.49685 Z M1.65672577,3.49685 L2.38740619,3.49685 L2.38740619,2.83605 L1.65672577,2.83605 L1.65672577,3.49685 Z M35.2920577,4.8174 L36.0227381,4.8174 L36.0227381,4.1573 L35.2920577,4.1573 L35.2920577,4.8174 Z M33.829534,4.8174 L34.5602144,4.8174 L34.5602144,4.1573 L33.829534,4.1573 L33.829534,4.8174 Z M32.3670103,4.8174 L33.0980784,4.8174 L33.0980784,4.1573 L32.3670103,4.1573 L32.3670103,4.8174 Z M30.9048742,4.8174 L31.6355546,4.8174 L31.6355546,4.1573 L30.9048742,4.1573 L30.9048742,4.8174 Z M29.4419629,4.8174 L30.1730309,4.8174 L30.1730309,4.1573 L29.4419629,4.1573 L29.4419629,4.8174 Z M27.9794392,4.8174 L28.7108948,4.8174 L28.7108948,4.1573 L27.9794392,4.1573 L27.9794392,4.8174 Z M26.5173031,4.8174 L27.2483711,4.8174 L27.2483711,4.1573 L26.5173031,4.1573 L26.5173031,4.8174 Z M25.055167,4.8174 L25.7858474,4.8174 L25.7858474,4.1573 L25.055167,4.1573 L25.055167,4.8174 Z M23.5926433,4.8174 L24.3237113,4.8174 L24.3237113,4.1573 L23.5926433,4.1573 L23.5926433,4.8174 Z M22.1305072,4.8174 L22.8611876,4.8174 L22.8611876,4.1573 L22.1305072,4.1573 L22.1305072,4.8174 Z M20.6675959,4.8174 L21.3982763,4.8174 L21.3982763,4.1573 L20.6675959,4.1573 L20.6675959,4.8174 Z M19.2054598,4.8174 L19.9369155,4.8174 L19.9369155,4.1573 L19.2054598,4.1573 L19.2054598,4.8174 Z M17.7425485,4.8174 L18.4743918,4.8174 L18.4743918,4.1573 L17.7425485,4.1573 L17.7425485,4.8174 Z M16.2804124,4.8174 L17.0114804,4.8174 L17.0114804,4.1573 L16.2804124,4.1573 L16.2804124,4.8174 Z M14.8182763,4.8174 L15.5489567,4.8174 L15.5489567,4.1573 L14.8182763,4.1573 L14.8182763,4.8174 Z M13.3553649,4.8174 L14.0868206,4.8174 L14.0868206,4.1573 L13.3553649,4.1573 L13.3553649,4.8174 Z M11.8932289,4.8174 L12.6239093,4.8174 L12.6239093,4.1573 L11.8932289,4.1573 L11.8932289,4.8174 Z M10.4310928,4.8174 L11.1617732,4.8174 L11.1617732,4.1573 L10.4310928,4.1573 L10.4310928,4.8174 Z M8.96818144,4.8174 L9.70002474,4.8174 L9.70002474,4.1573 L8.96818144,4.1573 L8.96818144,4.8174 Z M7.50565773,4.8174 L8.2371134,4.8174 L8.2371134,4.1573 L7.50565773,4.1573 L7.50565773,4.8174 Z M6.04352165,4.8174 L6.77458969,4.8174 L6.77458969,4.1573 L6.04352165,4.1573 L6.04352165,4.8174 Z M4.58099794,4.8174 L5.31206598,4.8174 L5.31206598,4.1573 L4.58099794,4.1573 L4.58099794,4.8174 Z M3.11886186,4.8174 L3.84954227,4.8174 L3.84954227,4.1573 L3.11886186,4.1573 L3.11886186,4.8174 Z M1.65672577,4.8174 L2.38740619,4.8174 L2.38740619,4.1573 L1.65672577,4.1573 L1.65672577,4.8174 Z" id="path-52"></path>
        <linearGradient x1="49.9989816%" y1="77.6771091%" x2="49.9989816%" y2="-0.108845083%" id="linearGradient-54">
            <stop stop-color="#464646" offset="0%"></stop>
            <stop stop-color="#141414" offset="100%"></stop>
        </linearGradient>
        <path d="M2.94885868,0 C1.32024448,0 0,1.07437053 0,2.4 L0,2.4 C0,3.72562947 1.32024448,4.8 2.94885868,4.8 L2.94885868,4.8 L34.6515322,4.8 C36.2797555,4.8 37.6,3.72562947 37.6,2.4 L37.6,2.4 C37.6,1.07437053 36.2797555,0 34.6515322,0 L34.6515322,0 L2.94885868,0 Z M0.589771735,2.4 C0.589771735,1.34153194 1.64776517,0.47993639 2.94885868,0.47993639 L2.94885868,0.47993639 L34.6515322,0.47993639 C35.951844,0.47993639 37.0098374,1.34153194 37.0098374,2.4 L37.0098374,2.4 C37.0098374,3.45846806 35.951844,4.32006361 34.6515322,4.32006361 L34.6515322,4.32006361 L2.94885868,4.32006361 C1.64776517,4.32006361 0.589771735,3.45846806 0.589771735,2.4 L0.589771735,2.4 Z" id="path-55"></path>
        <linearGradient x1="49.9996795%" y1="100.18635%" x2="49.9996795%" y2="37.233798%" id="linearGradient-57">
            <stop stop-color="#464646" offset="0%"></stop>
            <stop stop-color="#141414" offset="100%"></stop>
        </linearGradient>
        <path d="M5.91207273,0.483 C1.55514545,1.87701818 -0.846872727,6.53978182 0.547527273,10.8970909 L0.547527273,10.8970909 C1.94192727,15.2528727 6.60469091,17.6548909 10.9612364,16.2601091 L10.9612364,16.2601091 C15.3174,14.8664727 17.7194182,10.2048545 16.3257818,5.84754545 L16.3257818,5.84754545 C15.1998,2.32985455 11.9444182,0.0862909091 8.43856364,0.0862909091 L8.43856364,0.0862909091 C7.60238182,0.0866727273 6.75130909,0.2142 5.91207273,0.483" id="path-58"></path>
        <linearGradient x1="65.2935888%" y1="97.7875628%" x2="46.1097158%" y2="37.8451562%" id="linearGradient-60">
            <stop stop-color="#464646" offset="0%"></stop>
            <stop stop-color="#141414" offset="100%"></stop>
        </linearGradient>
        <path d="M2.41665185,1.0946963 C0.0589333333,2.54645926 -0.676385185,5.63371852 0.773451852,7.99259259 L0.773451852,7.99259259 C2.2256,10.3499259 5.31362963,11.0856296 7.67173333,9.63425185 L7.67173333,9.63425185 C10.0294519,8.18287407 10.7659259,5.09484444 9.31416296,2.73635556 L9.31416296,2.73635556 C8.36737778,1.19754074 6.72340741,0.350133333 5.03976296,0.350133333 L5.03976296,0.350133333 C4.14382222,0.350133333 3.23594074,0.590488889 2.41665185,1.0946963" id="path-61"></path>
        <linearGradient x1="76.2958802%" y1="92.7380609%" x2="43.3073338%" y2="39.1287957%" id="linearGradient-63">
            <stop stop-color="#464646" offset="0%"></stop>
            <stop stop-color="#141414" offset="100%"></stop>
        </linearGradient>
        <path d="M0.09975,2.7741 C0.09975,4.284 1.3237,5.50795 2.8336,5.50795 L2.8336,5.50795 C4.3428,5.50795 5.5671,4.284 5.5671,2.7741 L5.5671,2.7741 C5.5671,1.2642 4.3428,0.0406 2.8336,0.0406 L2.8336,0.0406 C1.3237,0.0406 0.09975,1.2642 0.09975,2.7741" id="path-64"></path>
        <linearGradient x1="49.9986627%" y1="100.19028%" x2="49.9986627%" y2="37.2312605%" id="linearGradient-66">
            <stop stop-color="#464646" offset="0%"></stop>
            <stop stop-color="#141414" offset="100%"></stop>
        </linearGradient>
        <path d="M0.239636364,5.40479365 C0.24,7.59614603 0.239272727,39.0109524 0.239636364,41.9335302 L0.239636364,41.9335302 C0.24,44.8561079 0.925454545,48.5095238 2.29709091,48.5095238 L2.29709091,48.5095238 C2.984,48.5095238 3.66945455,47.8557587 3.66945455,47.0474603 L3.66945455,47.0474603 L3.66945455,1.75137778 C3.66945455,0.945015873 2.984,0.29047619 2.29709091,0.29047619 L2.29709091,0.29047619 C0.925818182,0.29047619 0.239272727,3.21227937 0.239636364,5.40479365" id="path-67"></path>
        <path d="M2.88777143,0.29047619 L2.88777143,48.5095238 C1.16342857,48.5095238 0.301714286,44.8561079 0.301257143,41.9335302 C0.301024,40.4430155 0.301125177,31.5417729 0.301263997,22.8856913 L0.301257143,5.40479365 C0.3008,3.21227937 1.16388571,0.29047619 2.88777143,0.29047619 L2.88777143,0.29047619 Z" id="path-69"></path>
        <path d="M0.239636364,5.51125506 C0.24,7.71187045 0.239272727,86.160583 0.239636364,89.0918866 L0.239636364,89.0918866 C0.24,92.0251336 0.925454545,95.6906235 2.29709091,95.6906235 L2.29709091,95.6906235 C2.984,95.6906235 3.66945455,95.033004 3.66945455,94.2238057 L3.66945455,94.2238057 L3.66945455,1.84615385 C3.66945455,1.03540081 2.984,0.378947368 2.29709091,0.378947368 L2.29709091,0.378947368 C0.925818182,0.378947368 0.239272727,3.31180567 0.239636364,5.51125506" id="path-71"></path>
        <path d="M2.88777143,0.378947368 L2.88777143,95.6906235 C1.16342857,95.6906235 0.301714286,92.0251336 0.301257143,89.0918866 C0.301024,87.5967236 0.301125177,66.4596846 0.301263997,45.8124613 L0.301257143,5.51125506 C0.3008,3.31219433 1.16388571,0.378947368 2.88777143,0.378947368 L2.88777143,0.378947368 Z" id="path-73"></path>
        <path d="M45.1141229,12.0001083 C45.3334368,12.3685971 45.4594017,12.7991226 45.4594017,13.2590687 L45.4594017,34.7409313 C45.4594017,35.2008774 45.3334368,35.6314029 45.1141229,35.9998917 C44.9046592,36.3740675 44.5947957,36.698419 44.1964706,36.9283921 L25.5926319,47.6693234 C25.1943069,47.8992964 24.7584785,48.0054703 24.3297009,48 C23.9009232,48.0054703 23.4650948,47.8992964 23.0667698,47.6693234 L4.46293109,36.9283921 C4.06460605,36.698419 3.75474253,36.3740675 3.54527879,35.9998917 C3.32596492,35.6314029 3.2,35.2008774 3.2,34.7409313 L3.2,13.2590687 C3.2,12.7991226 3.32596492,12.3685971 3.54527879,12.0001083 C3.75474253,11.6259325 4.06460605,11.301581 4.46293109,11.0716079 L23.0667698,0.330676649 C23.4650948,0.100703581 23.9009232,-0.00547033032 24.3297009,0 C24.7584785,-0.00547033032 25.1943069,0.100703581 25.5926319,0.330676649 L44.1964706,11.0716079 C44.5947957,11.301581 44.9046592,11.6259325 45.1141229,12.0001083 L45.1141229,12.0001083 Z" id="path-75"></path>
        <filter x="-29.6%" y="-24.0%" width="159.2%" height="152.1%" filterUnits="objectBoundingBox" id="filter-77">
            <feMorphology radius="0.5" operator="erode" in="SourceAlpha" result="shadowSpreadOuter1"></feMorphology>
            <feOffset dx="0" dy="2" in="shadowSpreadOuter1" result="shadowOffsetOuter1"></feOffset>
            <feGaussianBlur stdDeviation="1.5" in="shadowOffsetOuter1" result="shadowBlurOuter1"></feGaussianBlur>
            <feColorMatrix values="0 0 0 0 0   0 0 0 0 0   0 0 0 0 0  0 0 0 0.2 0" type="matrix" in="shadowBlurOuter1" result="shadowMatrixOuter1"></feColorMatrix>
            <feOffset dx="0" dy="1" in="SourceAlpha" result="shadowOffsetOuter2"></feOffset>
            <feGaussianBlur stdDeviation="4" in="shadowOffsetOuter2" result="shadowBlurOuter2"></feGaussianBlur>
            <feColorMatrix values="0 0 0 0 0   0 0 0 0 0   0 0 0 0 0  0 0 0 0.12 0" type="matrix" in="shadowBlurOuter2" result="shadowMatrixOuter2"></feColorMatrix>
            <feOffset dx="0" dy="3" in="SourceAlpha" result="shadowOffsetOuter3"></feOffset>
            <feGaussianBlur stdDeviation="2" in="shadowOffsetOuter3" result="shadowBlurOuter3"></feGaussianBlur>
            <feColorMatrix values="0 0 0 0 0   0 0 0 0 0   0 0 0 0 0  0 0 0 0.14 0" type="matrix" in="shadowBlurOuter3" result="shadowMatrixOuter3"></feColorMatrix>
            <feMerge>
                <feMergeNode in="shadowMatrixOuter1"></feMergeNode>
                <feMergeNode in="shadowMatrixOuter2"></feMergeNode>
                <feMergeNode in="shadowMatrixOuter3"></feMergeNode>
            </feMerge>
        </filter>
    </defs>
    <g id="illustration-00-app" stroke="none" stroke-width="1" fill="none" fill-rule="evenodd">
        <rect fill="#FFFFFF" x="0" y="0" width="388" height="752"></rect>
        <g id="Group-6" filter="url(#filter-1)" transform="translate(31.000000, 26.000000)">
            <g id="Group">
                <g id="Group-3">
                    <g id="Group-43" transform="translate(21.600000, 37.600000)" fill="#676767">
                        <path d="M259.360775,658.61759 L23.1187872,658.61759 C9.22254184,658.251329 0.537000736,655.011568 0.537000736,655.011568 C7.04660074,659.250892 14.8512191,661.541863 23.1187872,661.541863 L259.360775,661.541863 C267.179739,661.541863 274.59973,659.186942 280.862346,654.802663 C276.183219,656.790549 268.137433,658.981913 259.360775,658.61759" id="Fill-39"></path>
                        <path d="M295.709305,0.165736149 C295.709305,0.165736149 297.0272,8.29323925 297.0272,19.2605237 L297.0272,621.697642 C297.0272,630.470462 295.071101,639.043679 295.071101,639.043679 C297.543268,633.703247 298.856122,627.805865 298.856122,621.697642 L298.856122,17.0668343 C298.856122,10.9985312 297.765825,5.27672248 295.709305,0.165736149" id="Fill-41"></path>
                    </g>
                    <mask id="mask-3" fill="white">
                        <use xlink:href="#path-2"></use>
                    </mask>
                    <g id="Clip-2"></g>
                    <path d="M326.179175,651.475873 C326.179175,676.104149 307.121689,696.800039 282.199883,696.800039 L45.4452549,696.800039 C21.2566834,696.800039 -0.000116571429,679.254088 -0.000116571429,651.475873 L-0.000116571429,51.2869215 C-0.000116571429,20.5839293 16.1259863,0.114751101 49.109872,0.114751101 L274.870261,0.114751101 C310.053072,0.114751101 326.179175,22.0453491 326.179175,46.9011119 L326.179175,651.475873 Z" id="Fill-1" fill="#3D3D3F" mask="url(#mask-3)"></path>
                </g>
                <path d="M312.093849,16.1672714 C303.430261,7.33907119 290.476843,2.67306897 274.634009,2.67306897 L49.3503977,2.67306897 C33.9233349,2.67306897 21.9813691,7.19645584 13.8578949,16.1180536 C6.21352914,24.5137573 2.17238629,36.8910645 2.17238629,51.914119 L2.17238629,650.835809 C2.17238629,663.516561 6.68525486,674.473528 15.2229463,682.518894 C23.2422834,690.077895 34.0632206,694.241256 45.6931634,694.241256 L281.948866,694.241256 C293.357323,694.241256 303.992523,689.683765 311.893346,681.408587 C319.704409,673.226031 324.005895,662.3706 324.005895,650.835809 L324.005895,47.5372229 C324.005895,35.1358881 319.775518,23.995614 312.093849,16.1672714" id="Fill-4" fill="#131313"></path>
                <path d="M323.613632,652.848933 C323.613632,663.865969 319.498661,674.230384 312.028763,682.034699 C304.495141,689.907997 294.357701,694.241488 283.482363,694.241488 L45.6358491,694.241488 C34.493952,694.241488 24.138912,690.273061 16.4774491,683.068661 C8.335712,675.415875 4.03111771,664.9662 4.03111771,652.848933 L4.03111771,51.3869073 C4.03111771,36.8571934 7.900512,24.9371854 15.2215863,16.9170096 C22.963872,8.43604676 34.4356663,4.13472129 49.3171749,4.13472129 L276.117769,4.13472129 C291.460123,4.13472129 303.954249,8.59300116 312.251026,17.0266839 C319.578318,24.4752356 323.613632,35.1167435 323.613632,46.9917967 L323.613632,652.848933 Z M312.408786,15.4648908 C303.726546,6.61770105 290.746318,1.94201028 274.870455,1.94201028 L49.1100663,1.94201028 C33.6503634,1.94201028 21.6835291,6.4750857 13.5421806,15.4152855 C5.88149486,23.8284285 1.832192,36.2332512 1.832192,51.2873091 L1.832192,651.475873 C1.832192,664.181428 6.35477486,675.161647 14.9107291,683.225228 C22.9467749,690.800505 33.7906377,694.97278 45.4454491,694.97278 L282.200078,694.97278 C293.633403,694.97278 304.290363,690.405213 312.207506,682.112983 C320.035666,673.913763 324.346478,663.033142 324.346478,651.475873 L324.346478,46.9011119 C324.346478,34.4745869 320.107163,23.3098977 312.408786,15.4648908 L312.408786,15.4648908 Z" id="Fill-6" fill="#6F6F71"></path>
            </g>
            <mask id="mask-5" fill="white">
                <use xlink:href="#path-4"></use>
            </mask>
            <use id="screen" fill="#CB4539" xlink:href="#path-4"></use>
            <g id="mobile/01-Vaults/01-list" mask="url(#mask-5)">
                <g transform="translate(12.000000, 44.800000)">
                    <rect fill="#FFFFFF" x="0" y="0" width="300" height="630.4"></rect>
                    <g id="element-/-background-/-color" stroke="none" fill="none">
                        <g id="*-color-/-light-grey">
                            <mask id="mask-7" fill="white">
                                <use xlink:href="#path-6"></use>
                            </mask>
                            <g id="Background"></g>
                            <rect id="Rectangle" fill="#FCFCFC" fill-rule="evenodd" mask="url(#mask-7)" x="0" y="0" width="300" height="630.4"></rect>
                        </g>
                    </g>
                    <g id="element-/-card-/-vaults-/-Open" stroke="none" fill="none" transform="translate(158.400000, 371.200000)">
                        <rect id="Rectangle-Copy-3" stroke="#EEEEEE" stroke-width="2.4" fill="#FFFFFF" fill-rule="evenodd" x="1.2" y="25.2" width="125.6" height="101.6" rx="4"></rect>
                        <text id="Name" font-family="Roboto-Medium, Roboto" font-size="14.4" font-weight="400" line-spacing="28.8" fill="#000000">
                            <tspan x="9.79257812" y="83">Dad's passwords</tspan>
                        </text>
                        <text id="Last-access" font-family="Roboto-Regular, Roboto" font-size="8" font-weight="normal" line-spacing="12.8" letter-spacing="0.666666651" fill="#484848">
                            <tspan x="8.99348977" y="120">LAST ACCESS: 25.02.2020</tspan>
                        </text>
                        <text id="Status" font-family="Roboto-Medium, Roboto" font-size="9.6" font-weight="400" line-spacing="52.8" letter-spacing="2" fill="#69BAC9">
                            <tspan x="47.4960937" y="58">OPEN</tspan>
                        </text>
                        <g id="element-/-icon-/-vault-/-open" transform="translate(40.000000, 0.000000)">
                            <mask id="mask-9" fill="white">
                                <use xlink:href="#path-8"></use>
                            </mask>
                            <g id="Path-Copy">
                                <use fill="black" fill-opacity="1" filter="url(#filter-10)" xlink:href="#path-8"></use>
                                <use fill="#FAFAFA" fill-rule="evenodd" xlink:href="#path-8"></use>
                            </g>
                            <g id="*-color-/-light-blue" mask="url(#mask-9)">
                                <mask id="mask-12" fill="white">
                                    <use xlink:href="#path-11"></use>
                                </mask>
                                <g id="Background"></g>
                                <rect id="Rectangle" fill="#69BAC9" fill-rule="evenodd" mask="url(#mask-12)" x="0" y="0" width="48" height="48"></rect>
                            </g>
                            <g id="element-/-icon-/-lock-white-/-open" mask="url(#mask-9)">
                                <g transform="translate(9.600000, 6.400000)">
                                    <g id="atom/back-button" stroke-width="1" fill="none" fill-rule="evenodd" transform="translate(10.853333, 12.826667)">
                                        <rect id="Rectangle" fill="#FFFFFF" x="0" y="0" width="15.7866667" height="14.8"></rect>
                                    </g>
                                    <path d="M15.7866667,12.8266667 L13.8133333,12.8266667 L13.8133333,10.8533333 C13.8133333,8.12872857 11.6046048,5.92 8.88,5.92 C6.15539523,5.92 3.94666667,8.12872857 3.94666667,10.8533333 L1.97333333,10.8533333 C1.97333333,7.03888666 5.06555333,3.94666667 8.88,3.94666667 C12.6944467,3.94666667 15.7866667,7.03888666 15.7866667,10.8533333 L15.7866667,12.8266667 Z" id="Shape" fill="#FFFFFF" fill-rule="nonzero"></path>
                                </g>
                            </g>
                        </g>
                    </g>
                    <g id="element-/-card-/-vaults-/-close" stroke="none" fill="none" transform="translate(14.400000, 371.200000)">
                        <rect id="Rectangle-Copy-3" stroke="#EEEEEE" stroke-width="2.4" fill="#FFFFFF" fill-rule="evenodd" x="1.2" y="25.2" width="125.6" height="101.6" rx="4"></rect>
                        <text id="Name" font-family="Roboto-Medium, Roboto" font-size="14.4" font-weight="400" line-spacing="28.8" fill="#000000">
                            <tspan x="33.4773438" y="83">Company</tspan>
                        </text>
                        <text id="Last-access" font-family="Roboto-Regular, Roboto" font-size="8" font-weight="normal" line-spacing="12.8" letter-spacing="0.666666651" fill="#484848">
                            <tspan x="8.99348977" y="120">LAST ACCESS: 02.02.2020</tspan>
                        </text>
                        <text id="Status" font-family="Roboto-Medium, Roboto" font-size="9.6" font-weight="400" line-spacing="52.8" letter-spacing="2" fill="#DA552F">
                            <tspan x="36.6445312" y="58">PENDING</tspan>
                        </text>
                        <g id="element-/-icon-/-vault-/-request-pending" transform="translate(40.000000, 0.000000)">
                            <g id="Group" stroke-width="1" fill-rule="evenodd" transform="translate(3.200000, 0.000000)">
                                <mask id="mask-14" fill="white">
                                    <use xlink:href="#path-13"></use>
                                </mask>
                                <g id="Path-Copy">
                                    <use fill="black" fill-opacity="1" filter="url(#filter-15)" xlink:href="#path-13"></use>
                                    <use fill="#FAFAFA" fill-rule="evenodd" xlink:href="#path-13"></use>
                                </g>
                                <g id="*-color-/-coral" mask="url(#mask-14)" fill="#DA552F">
                                    <g transform="translate(-3.200000, 0.000000)" id="Rectangle">
                                        <rect x="0" y="0" width="48" height="48"></rect>
                                    </g>
                                </g>
                                <g id="element-/-icon-/-lock-white-/-close" mask="url(#mask-14)">
                                    <g transform="translate(6.400000, 6.400000)">
                                        <g id="atom/back-button" stroke-width="1" fill="none" fill-rule="evenodd" transform="translate(6.906667, 12.826667)">
                                            <rect id="Rectangle" fill="#FFFFFF" x="0" y="0" width="15.7866667" height="14.8"></rect>
                                        </g>
                                        <path d="M14.8,19.7333333 C10.9855533,19.7333333 7.89333333,16.6411133 7.89333333,12.8266667 C7.89333333,9.01221999 10.9855533,5.92 14.8,5.92 C18.6144467,5.92 21.7066667,9.01221999 21.7066667,12.8266667 C21.7066667,16.6411133 18.6144467,19.7333333 14.8,19.7333333 Z M14.8,17.76 C17.5246048,17.76 19.7333333,15.5512714 19.7333333,12.8266667 C19.7333333,10.1020619 17.5246048,7.89333333 14.8,7.89333333 C12.0753952,7.89333333 9.86666667,10.1020619 9.86666667,12.8266667 C9.86666667,15.5512714 12.0753952,17.76 14.8,17.76 Z" id="Oval" fill="#FFFFFF" fill-rule="nonzero"></path>
                                    </g>
                                </g>
                            </g>
                            <mask id="mask-17" fill="white">
                                <use xlink:href="#path-16"></use>
                            </mask>
                            <use id="Combined-Shape" fill="#FAFAFA" fill-rule="evenodd" xlink:href="#path-16"></use>
                            <g id="*-color-/-light-blue" mask="url(#mask-17)">
                                <g transform="translate(0.000000, 0.000201)">
                                    <mask id="mask-19" fill="white">
                                        <use xlink:href="#path-18"></use>
                                    </mask>
                                    <g id="Background" stroke="none" fill="none"></g>
                                    <rect id="Rectangle" stroke="none" fill="#69BAC9" fill-rule="evenodd" mask="url(#mask-19)" x="0" y="0" width="48" height="48"></rect>
                                </g>
                            </g>
                        </g>
                    </g>
                    <g id="element-/-card-/-vaults-/-close" stroke="none" fill="none" transform="translate(158.400000, 227.200000)">
                        <rect id="Rectangle-Copy-3" stroke="#EEEEEE" stroke-width="2.4" fill="#FFFFFF" fill-rule="evenodd" x="1.2" y="25.2" width="125.6" height="101.6" rx="4"></rect>
                        <text id="Name" font-family="Roboto-Medium, Roboto" font-size="14.4" font-weight="400" line-spacing="28.8" fill="#000000">
                            <tspan x="39.5171875" y="83">Secrets</tspan>
                        </text>
                        <text id="Last-access" font-family="Roboto-Regular, Roboto" font-size="8" font-weight="normal" line-spacing="12.8" letter-spacing="0.666666651" fill="#484848">
                            <tspan x="8.99348977" y="120">LAST ACCESS: 14.02.2020</tspan>
                        </text>
                        <text id="Status" font-family="Roboto-Medium, Roboto" font-size="9.6" font-weight="400" line-spacing="52.8" letter-spacing="2" fill="#DA552F">
                            <tspan x="40.7476562" y="58">SEALED</tspan>
                        </text>
                        <g id="element-/-icon-/-vault-/-closed" transform="translate(40.000000, 0.000000)">
                            <mask id="mask-21" fill="white">
                                <use xlink:href="#path-20"></use>
                            </mask>
                            <g id="Path-Copy">
                                <use fill="black" fill-opacity="1" filter="url(#filter-22)" xlink:href="#path-20"></use>
                                <use fill="#FAFAFA" fill-rule="evenodd" xlink:href="#path-20"></use>
                            </g>
                            <g id="*-color-/-coral" mask="url(#mask-21)" fill="#DA552F" fill-rule="evenodd">
                                <rect id="Rectangle" x="0" y="0" width="48" height="48"></rect>
                            </g>
                            <g id="element-/-icon-/-lock-white-/-close" mask="url(#mask-21)">
                                <g transform="translate(9.600000, 6.400000)">
                                    <g id="atom/back-button" stroke-width="1" fill="none" fill-rule="evenodd" transform="translate(6.906667, 12.826667)">
                                        <rect id="Rectangle" fill="#FFFFFF" x="0" y="0" width="15.7866667" height="14.8"></rect>
                                    </g>
                                    <path d="M14.8,19.7333333 C10.9855533,19.7333333 7.89333333,16.6411133 7.89333333,12.8266667 C7.89333333,9.01221999 10.9855533,5.92 14.8,5.92 C18.6144467,5.92 21.7066667,9.01221999 21.7066667,12.8266667 C21.7066667,16.6411133 18.6144467,19.7333333 14.8,19.7333333 Z M14.8,17.76 C17.5246048,17.76 19.7333333,15.5512714 19.7333333,12.8266667 C19.7333333,10.1020619 17.5246048,7.89333333 14.8,7.89333333 C12.0753952,7.89333333 9.86666667,10.1020619 9.86666667,12.8266667 C9.86666667,15.5512714 12.0753952,17.76 14.8,17.76 Z" id="Oval" fill="#FFFFFF" fill-rule="nonzero"></path>
                                </g>
                            </g>
                        </g>
                    </g>
                    <g id="element-/-card-/-vaults-/-close" stroke="none" fill="none" transform="translate(158.400000, 83.200000)">
                        <rect id="Rectangle-Copy-3" stroke="#EEEEEE" stroke-width="2.4" fill="#FFFFFF" fill-rule="evenodd" x="1.2" y="25.2" width="125.6" height="101.6" rx="4"></rect>
                        <text id="Name" font-family="Roboto-Medium, Roboto" font-size="14.4" font-weight="400" line-spacing="28.8" fill="#000000">
                            <tspan x="40.7230469" y="83">H 2020</tspan>
                        </text>
                        <text id="Last-access" font-family="Roboto-Regular, Roboto" font-size="8" font-weight="normal" line-spacing="12.8" letter-spacing="0.666666651" fill="#484848">
                            <tspan x="8.99348977" y="120">LAST ACCESS: 01.01.2020</tspan>
                        </text>
                        <text id="Status" font-family="Roboto-Medium, Roboto" font-size="9.6" font-weight="400" line-spacing="52.8" letter-spacing="2" fill="#DA552F">
                            <tspan x="40.7476562" y="58">SEALED</tspan>
                        </text>
                        <g id="element-/-icon-/-vault-/-closed" transform="translate(40.000000, 0.000000)">
                            <mask id="mask-24" fill="white">
                                <use xlink:href="#path-23"></use>
                            </mask>
                            <g id="Path-Copy">
                                <use fill="black" fill-opacity="1" filter="url(#filter-25)" xlink:href="#path-23"></use>
                                <use fill="#FAFAFA" fill-rule="evenodd" xlink:href="#path-23"></use>
                            </g>
                            <g id="*-color-/-coral" mask="url(#mask-24)" fill="#DA552F" fill-rule="evenodd">
                                <rect id="Rectangle" x="0" y="0" width="48" height="48"></rect>
                            </g>
                            <g id="element-/-icon-/-lock-white-/-close" mask="url(#mask-24)">
                                <g transform="translate(9.600000, 6.400000)">
                                    <g id="atom/back-button" stroke-width="1" fill="none" fill-rule="evenodd" transform="translate(6.906667, 12.826667)">
                                        <rect id="Rectangle" fill="#FFFFFF" x="0" y="0" width="15.7866667" height="14.8"></rect>
                                    </g>
                                    <path d="M14.8,19.7333333 C10.9855533,19.7333333 7.89333333,16.6411133 7.89333333,12.8266667 C7.89333333,9.01221999 10.9855533,5.92 14.8,5.92 C18.6144467,5.92 21.7066667,9.01221999 21.7066667,12.8266667 C21.7066667,16.6411133 18.6144467,19.7333333 14.8,19.7333333 Z M14.8,17.76 C17.5246048,17.76 19.7333333,15.5512714 19.7333333,12.8266667 C19.7333333,10.1020619 17.5246048,7.89333333 14.8,7.89333333 C12.0753952,7.89333333 9.86666667,10.1020619 9.86666667,12.8266667 C9.86666667,15.5512714 12.0753952,17.76 14.8,17.76 Z" id="Oval" fill="#FFFFFF" fill-rule="nonzero"></path>
                                </g>
                            </g>
                        </g>
                    </g>
                    <g id="element-/-card-/-vaults-/-close" stroke="none" fill="none" transform="translate(14.400000, 227.200000)">
                        <rect id="Rectangle-Copy-3" stroke="#EEEEEE" stroke-width="2.4" fill="#FFFFFF" fill-rule="evenodd" x="1.2" y="25.2" width="125.6" height="101.6" rx="4"></rect>
                        <text id="Name" font-family="Roboto-Medium, Roboto" font-size="14.4" font-weight="400" line-spacing="28.8" fill="#000000">
                            <tspan x="42.821875" y="83">Family</tspan>
                        </text>
                        <text id="Last-access" font-family="Roboto-Regular, Roboto" font-size="8" font-weight="normal" line-spacing="12.8" letter-spacing="0.666666651" fill="#484848">
                            <tspan x="8.99348977" y="120">LAST ACCESS: 02.10.2019</tspan>
                        </text>
                        <text id="Status" font-family="Roboto-Medium, Roboto" font-size="9.6" font-weight="400" line-spacing="52.8" letter-spacing="2" fill="#DA552F">
                            <tspan x="40.7476562" y="58">SEALED</tspan>
                        </text>
                        <g id="element-/-icon-/-vault-/-closed" transform="translate(40.000000, 0.000000)">
                            <mask id="mask-27" fill="white">
                                <use xlink:href="#path-26"></use>
                            </mask>
                            <g id="Path-Copy">
                                <use fill="black" fill-opacity="1" filter="url(#filter-28)" xlink:href="#path-26"></use>
                                <use fill="#FAFAFA" fill-rule="evenodd" xlink:href="#path-26"></use>
                            </g>
                            <g id="*-color-/-coral" mask="url(#mask-27)" fill="#DA552F" fill-rule="evenodd">
                                <rect id="Rectangle" x="0" y="0" width="48" height="48"></rect>
                            </g>
                            <g id="element-/-icon-/-lock-white-/-close" mask="url(#mask-27)">
                                <g transform="translate(9.600000, 6.400000)">
                                    <g id="atom/back-button" stroke-width="1" fill="none" fill-rule="evenodd" transform="translate(6.906667, 12.826667)">
                                        <rect id="Rectangle" fill="#FFFFFF" x="0" y="0" width="15.7866667" height="14.8"></rect>
                                    </g>
                                    <path d="M14.8,19.7333333 C10.9855533,19.7333333 7.89333333,16.6411133 7.89333333,12.8266667 C7.89333333,9.01221999 10.9855533,5.92 14.8,5.92 C18.6144467,5.92 21.7066667,9.01221999 21.7066667,12.8266667 C21.7066667,16.6411133 18.6144467,19.7333333 14.8,19.7333333 Z M14.8,17.76 C17.5246048,17.76 19.7333333,15.5512714 19.7333333,12.8266667 C19.7333333,10.1020619 17.5246048,7.89333333 14.8,7.89333333 C12.0753952,7.89333333 9.86666667,10.1020619 9.86666667,12.8266667 C9.86666667,15.5512714 12.0753952,17.76 14.8,17.76 Z" id="Oval" fill="#FFFFFF" fill-rule="nonzero"></path>
                                </g>
                            </g>
                        </g>
                    </g>
                    <g id="element-/-card-/-vaults-/-close" stroke="none" fill="none" transform="translate(14.400000, 83.200000)">
                        <rect id="Rectangle-Copy-3" stroke="#EEEEEE" stroke-width="2.4" fill="#FFFFFF" fill-rule="evenodd" x="1.2" y="25.2" width="125.6" height="101.6" rx="4"></rect>
                        <text id="Name" font-family="Roboto-Medium, Roboto" font-size="14.4" font-weight="400" line-spacing="28.8" fill="#000000">
                            <tspan x="32.6019531" y="83">Contracts</tspan>
                        </text>
                        <text id="Last-access" font-family="Roboto-Regular, Roboto" font-size="8" font-weight="normal" line-spacing="12.8" letter-spacing="0.666666651" fill="#484848">
                            <tspan x="8.99348977" y="120">LAST ACCESS: 02.10.2019</tspan>
                        </text>
                        <text id="Status" font-family="Roboto-Medium, Roboto" font-size="9.6" font-weight="400" line-spacing="52.8" letter-spacing="2" fill="#DA552F">
                            <tspan x="40.7476562" y="58">SEALED</tspan>
                        </text>
                        <g id="element-/-icon-/-vault-/-closed" transform="translate(40.000000, 0.000000)">
                            <mask id="mask-30" fill="white">
                                <use xlink:href="#path-29"></use>
                            </mask>
                            <g id="Path-Copy">
                                <use fill="black" fill-opacity="1" filter="url(#filter-31)" xlink:href="#path-29"></use>
                                <use fill="#FAFAFA" fill-rule="evenodd" xlink:href="#path-29"></use>
                            </g>
                            <g id="*-color-/-coral" mask="url(#mask-30)" fill="#DA552F" fill-rule="evenodd">
                                <rect id="Rectangle" x="0" y="0" width="48" height="48"></rect>
                            </g>
                            <g id="element-/-icon-/-lock-white-/-close" mask="url(#mask-30)">
                                <g transform="translate(9.600000, 6.400000)">
                                    <g id="atom/back-button" stroke-width="1" fill="none" fill-rule="evenodd" transform="translate(6.906667, 12.826667)">
                                        <rect id="Rectangle" fill="#FFFFFF" x="0" y="0" width="15.7866667" height="14.8"></rect>
                                    </g>
                                    <path d="M14.8,19.7333333 C10.9855533,19.7333333 7.89333333,16.6411133 7.89333333,12.8266667 C7.89333333,9.01221999 10.9855533,5.92 14.8,5.92 C18.6144467,5.92 21.7066667,9.01221999 21.7066667,12.8266667 C21.7066667,16.6411133 18.6144467,19.7333333 14.8,19.7333333 Z M14.8,17.76 C17.5246048,17.76 19.7333333,15.5512714 19.7333333,12.8266667 C19.7333333,10.1020619 17.5246048,7.89333333 14.8,7.89333333 C12.0753952,7.89333333 9.86666667,10.1020619 9.86666667,12.8266667 C9.86666667,15.5512714 12.0753952,17.76 14.8,17.76 Z" id="Oval" fill="#FFFFFF" fill-rule="nonzero"></path>
                                </g>
                            </g>
                        </g>
                    </g>
                </g>
            </g>
            <g id="element-/-navbar-/-header-/-vault" mask="url(#mask-5)">
                <g transform="translate(12.000000, 64.000000)">
                    <mask id="mask-33" fill="white">
                        <use xlink:href="#path-32"></use>
                    </mask>
                    <g id="Surface" stroke="none" fill="none"></g>
                    <g id="*-color-/-white" stroke="none" fill="none" mask="url(#mask-33)">
                        <mask id="mask-35" fill="white">
                            <use xlink:href="#path-34"></use>
                        </mask>
                        <g id="Background"></g>
                        <rect id="Rectangle" fill="#FFFFFF" fill-rule="evenodd" mask="url(#mask-35)" x="0" y="0" width="300" height="48"></rect>
                    </g>
                    <text id="Vaults" stroke="none" fill="none" mask="url(#mask-33)" font-family="Roboto-Regular, Roboto" font-size="19.2" font-weight="normal" line-spacing="14.4">
                        <tspan x="106.06875" y="23.721875" fill="#000000">Vaults</tspan>
                    </text>
                    <g id="element-/-logo" stroke="none" fill="none" mask="url(#mask-33)" fill-rule="evenodd">
                        <g transform="translate(10.600000, 9.600000)">
                            <circle id="Oval" stroke="#FFFFFF" stroke-width="1.6" fill="#FFFFFF" cx="14.4" cy="14.4" r="14.4"></circle>
                            <g id="consento_symbol" stroke="none" stroke-width="1" fill="none" transform="translate(5.538462, 5.538462)">
                                <path d="M4.28427844,4.13832899 C5.0458827,3.39907173 5.98091822,2.84800509 7.01010174,2.53185495 C7.4521325,2.39731574 7.75301354,2.00193122 7.75384615,1.55450845 L7.75384615,1.01602554 C7.75065723,0.69356275 7.59057775,0.391317444 7.32165744,0.200012074 C7.05273713,0.00870670401 6.70628256,-0.0493877662 6.3862861,0.0431663969 C3.34152296,0.919195863 0.95824756,3.21619133 0.0458649401,6.15405004 C-0.0518143897,6.46439238 0.00844425161,6.80105329 0.208335223,7.06176039 C0.408226193,7.32246749 0.724154638,7.47644727 1.06014639,7.47692308 L1.6179547,7.47692308 C2.08118907,7.4760147 2.49043694,7.1855225 2.62944711,6.75894585 C2.9562027,5.77030119 3.52366387,4.87166079 4.28427844,4.13832899 L4.28427844,4.13832899 Z" id="Path" fill="#EE3434" fill-rule="nonzero"></path>
                                <path d="M13.5722344,4.13521476 C14.3100531,4.8686556 14.8609274,5.76818156 15.1786108,6.75827613 C15.3130973,7.18525068 15.7090274,7.47601385 16.1571872,7.47692308 L16.6968433,7.47692308 C17.0219174,7.47634838 17.3275665,7.32225002 17.5210768,7.0613713 C17.714587,6.80049259 17.7731559,6.46357459 17.6790175,6.15281607 C16.7989039,3.22194557 14.5051294,0.927648719 11.571909,0.0443169914 C11.2607392,-0.0501117967 10.9231777,0.00821849598 10.6618603,0.201572533 C10.4005429,0.394926571 10.2463462,0.700458054 10.2461538,1.02527008 L10.2461538,1.55976375 C10.2467264,2.00606095 10.5356465,2.400972 10.9611982,2.5371236 C11.9463342,2.85501072 12.8414144,3.40284675 13.5722344,4.13521476 L13.5722344,4.13521476 Z" id="Path" fill="#EE3434" fill-rule="nonzero"></path>
                                <path d="M16.6858949,10.0446539 L16.1460021,10.0446539 C15.6930668,10.0460531 15.2929471,10.3415397 15.1561985,10.7756193 C14.8494059,11.7392993 14.3256263,12.6188521 13.6255931,13.3458766 C13.2203521,13.7692401 12.762052,14.1378149 12.2622273,14.4423248 C12.056056,14.5697884 11.8416868,14.6833382 11.6205364,14.7822238 C11.5932691,14.794102 11.5678196,14.8050664 11.5405523,14.8151172 C11.2227562,14.9290743 10.8696674,14.880342 10.5941809,14.6845018 C10.3186944,14.4886616 10.1553153,14.1702427 10.1562815,13.831055 L10.1562815,13.2508511 C10.1529694,12.8653934 10.3631558,12.5100648 10.7016279,12.3289209 C11.6220131,11.8482423 12.323539,11.030492 12.661239,10.0446539 C13.0667819,8.84756985 12.8913981,7.52865655 12.187317,6.48068723 C11.483236,5.43271791 10.3316814,4.77658759 9.0755869,4.70769231 L9.02923246,4.70769231 L8.98287802,4.70769231 L8.75201474,4.70769231 L8.7056603,4.70769231 L8.65839695,4.70769231 L8.64112765,4.70769231 C6.55775456,4.82730493 4.90997321,6.52620447 4.84369937,8.62292606 C4.82866082,9.10585513 4.90071783,9.58753187 5.05638444,10.0446539 C5.39337125,11.0306181 6.09469173,11.8485083 7.01508668,12.3289209 C7.35355877,12.5100648 7.56374511,12.8653934 7.56043301,13.2508511 L7.56043301,13.831055 C7.56254662,14.1698405 7.40062785,14.4884942 7.12633962,14.6853444 C6.85205139,14.8821945 6.49966516,14.9326453 6.1816157,14.8205995 C6.15556027,14.8108532 6.12920186,14.7998888 6.10254049,14.787706 C5.88314531,14.6888236 5.67058979,14.5752695 5.4663031,14.4478071 C4.96634798,14.1434848 4.50802481,13.7748914 4.10293728,13.3513589 C3.40294053,12.624146 2.87889965,11.7446766 2.571423,10.7811016 C2.43477671,10.3473419 2.03512793,10.0519318 1.58252832,10.0501361 L1.03718199,10.0501361 C0.709238277,10.050391 0.400703171,10.2064279 0.205027059,10.4709858 C0.00935094737,10.7355437 -0.0504478551,11.0775013 0.0437427599,11.3932852 C0.233033154,12.0341621 0.491808009,12.652187 0.815407817,13.2362318 C0.975528597,13.5261193 1.15120755,13.8070418 1.34166703,14.0777558 C2.49050361,15.7186853 4.13923729,16.939311 6.03891675,17.555324 C6.36078477,17.6597806 6.68819815,17.7461077 7.01963123,17.813903 C7.35657354,17.8826116 7.69702035,17.9326365 8.03942887,17.9637509 C8.45770072,18.0004384 8.87792761,18.0092902 9.29736107,17.9902484 C9.64293383,17.9738144 9.9873339,17.938125 10.3289745,17.8833447 C10.664217,17.8296529 10.9961905,17.7570508 11.3233227,17.6658825 C11.644992,17.5742238 11.9614583,17.4650265 12.2713164,17.3387755 C13.1914531,16.9687538 14.0462007,16.4519648 14.8026323,15.8083165 C15.0525019,15.5958039 15.2909721,15.3701052 15.517036,15.1321735 C15.741917,14.8937062 15.9542841,14.6436206 16.1532733,14.3829339 C16.7591488,13.591493 17.2339519,12.7069139 17.559358,11.7633364 C17.6017738,11.6415088 17.6417659,11.516331 17.6793342,11.3878029 C17.7735248,11.0720191 17.713726,10.7300615 17.5180499,10.4655036 C17.3223738,10.2009457 17.0138386,10.0449088 16.6858949,10.0446539 Z" id="Path" fill="#37AFCA" fill-rule="nonzero"></path>
                            </g>
                        </g>
                    </g>
                    <g id="DIVIDER" stroke="none" stroke-width="1" fill="none" fill-rule="evenodd" mask="url(#mask-33)">
                        <g transform="translate(0.000000, 47.200000)">
                            <mask id="mask-37" fill="white">
                                <use xlink:href="#path-36"></use>
                            </mask>
                            <g id="Surface" stroke="none" fill="none"></g>
                            <g id="-Divider-Color" opacity="0.12" stroke="none" stroke-width="1" fill="none" fill-rule="evenodd" mask="url(#mask-37)" fill-opacity="0.87">
                                <rect id="Rectangle-3" fill="#000000" x="0" y="0" width="300" height="1"></rect>
                            </g>
                        </g>
                    </g>
                </g>
            </g>
            <g id="element-/-navbar-/-bottom-nav-/-bar" mask="url(#mask-5)">
                <g transform="translate(13.746532, 624.000000)">
                    <rect id="Rectangle" x="0" y="0" width="300.8" height="45.6"></rect>
                    <g id="*-color-/-white">
                        <mask id="mask-39" fill="white">
                            <use xlink:href="#path-38"></use>
                        </mask>
                        <g id="Background"></g>
                        <rect id="Rectangle" fill="#FFFFFF" fill-rule="evenodd" mask="url(#mask-39)" x="0" y="0" width="300.8" height="45.6"></rect>
                    </g>
                    <g id="element-/-navbar-/-bottom-nav-/-Tab-/-Relations-Resting" transform="translate(219.466667, 0.000000)">
                        <g id="element-/-icon-/-relation-/-idle" transform="translate(21.600000, 6.400000)">
                            <mask id="mask-41" fill="white">
                                <use xlink:href="#path-40"></use>
                            </mask>
                            <g id="Shape" fill-rule="nonzero"></g>
                            <g id="*-color-/-light-blue" mask="url(#mask-41)">
                                <mask id="mask-43" fill="white">
                                    <use xlink:href="#path-42"></use>
                                </mask>
                                <g id="Background"></g>
                                <rect id="Rectangle" fill="#69BAC9" fill-rule="evenodd" mask="url(#mask-43)" x="0" y="0" width="19.2" height="19.2"></rect>
                            </g>
                        </g>
                        <text id="Name" font-family="Roboto-Regular, Roboto" font-size="10.4" font-weight="normal" line-spacing="11.2" fill="#000000">
                            <tspan x="0.408789062" y="38.8160156">Relations</tspan>
                        </text>
                    </g>
                    <g id="element-/-navbar-/-bottom-nav-/-Tab-/-Consentos-Resting" transform="translate(119.200000, 0.000000)">
                        <g id="element-/-icon-/-consento-/-idle" transform="translate(21.600000, 6.400000)">
                            <mask id="mask-45" fill="white">
                                <use xlink:href="#path-44"></use>
                            </mask>
                            <g id="icon/toggle/check_box_24px" fill-rule="nonzero"></g>
                            <g id="*-color-/-light-blue" mask="url(#mask-45)">
                                <mask id="mask-47" fill="white">
                                    <use xlink:href="#path-46"></use>
                                </mask>
                                <g id="Background"></g>
                                <rect id="Rectangle" fill="#69BAC9" fill-rule="evenodd" mask="url(#mask-47)" x="0" y="0" width="19.2" height="19.2"></rect>
                            </g>
                        </g>
                        <text id="Name" font-family="Roboto-Regular, Roboto" font-size="10.4" font-weight="normal" line-spacing="11.2" fill="#000000">
                            <tspan x="0" y="40.6">Consentos</tspan>
                        </text>
                    </g>
                    <g id="element-/-navbar-/-bottom-nav-/-Tab-/-Vault-Resting" transform="translate(18.933333, 0.000000)">
                        <g id="element-/-icon-/-vault-/-active" transform="translate(21.600000, 6.400000)">
                            <mask id="mask-49" fill="white">
                                <use xlink:href="#path-48"></use>
                            </mask>
                            <use id="Combined-Shape" fill="#FAFAFA" fill-rule="evenodd" xlink:href="#path-48"></use>
                            <g id="*-color-/-coral" mask="url(#mask-49)" fill="#DA552F" fill-rule="evenodd">
                                <rect id="Rectangle" x="0" y="0" width="19.2" height="19.2"></rect>
                            </g>
                        </g>
                        <text id="Name" font-family="Roboto-Bold, Roboto" font-size="13" font-weight="bold" line-spacing="14" fill="#000000">
                            <tspan x="3.26713867" y="38.8700195">Vaults</tspan>
                        </text>
                    </g>
                    <g id="DIVIDER" stroke-width="1" fill-rule="evenodd" transform="translate(0.000000, -1.900000)">
                        <mask id="mask-51" fill="white">
                            <use xlink:href="#path-50"></use>
                        </mask>
                        <g id="Surface"></g>
                        <g id="-Divider-Color" opacity="0.12" mask="url(#mask-51)" fill="#000000" fill-opacity="0.87">
                            <g transform="translate(0.000000, -0.500000)" id="Rectangle-3">
                                <rect x="0" y="0" width="300.8" height="1"></rect>
                            </g>
                        </g>
                    </g>
                </g>
            </g>
            <g id="Group-13" transform="translate(141.600000, 25.600000)">
                <mask id="mask-53" fill="white">
                    <use xlink:href="#path-52"></use>
                </mask>
                <g id="Clip-12"></g>
                <path d="M34.5602144,0.19495 L34.5602144,0.8547 L33.829534,0.8547 L33.829534,0.19495 L33.0980784,0.19495 L33.0980784,0.8547 L32.3670103,0.8547 L32.3670103,0.19495 L31.6355546,0.19495 L31.6355546,0.8547 L30.9048742,0.8547 L30.9048742,0.19495 L30.1734186,0.19495 L30.1734186,0.8547 L29.4419629,0.8547 L29.4419629,0.19495 L28.7112825,0.19495 L28.7112825,0.8547 L27.9794392,0.8547 L27.9794392,0.19495 L27.2487588,0.19495 L27.2487588,0.8547 L26.5173031,0.8547 L26.5173031,0.19495 L25.7858474,0.19495 L25.7858474,0.8547 L25.055167,0.8547 L25.055167,0.19495 L24.3237113,0.19495 L24.3237113,0.8547 L23.5926433,0.8547 L23.5926433,0.19495 L22.8615753,0.19495 L22.8615753,0.8547 L22.1305072,0.8547 L22.1305072,0.19495 L21.3982763,0.19495 L21.3982763,0.8547 L20.6675959,0.8547 L20.6675959,0.19495 L19.9369155,0.19495 L19.9369155,0.8547 L19.2054598,0.8547 L19.2054598,0.19495 L18.4743918,0.19495 L18.4743918,0.8547 L17.7425485,0.8547 L17.7425485,0.19495 L17.0114804,0.19495 L17.0114804,0.8547 L16.2804124,0.8547 L16.2804124,0.19495 L15.5489567,0.19495 L15.5489567,0.8547 L14.8182763,0.8547 L14.8182763,0.19495 L14.0872082,0.19495 L14.0872082,0.8547 L13.3553649,0.8547 L13.3553649,0.19495 L12.6242969,0.19495 L12.6242969,0.8547 L11.8932289,0.8547 L11.8932289,0.19495 L11.1617732,0.19495 L11.1617732,0.8547 L10.4310928,0.8547 L10.4310928,0.19495 L9.70002474,0.19495 L9.70002474,0.8547 L8.96818144,0.8547 L8.96818144,0.19495 L8.2371134,0.19495 L8.2371134,0.8547 L7.50565773,0.8547 L7.50565773,0.19495 L6.77497732,0.19495 L6.77497732,0.8547 L6.04352165,0.8547 L6.04352165,0.19495 L5.31245361,0.19495 L5.31245361,0.8547 L4.58099794,0.8547 L4.58099794,0.19495 L3.84954227,0.19495 L3.84954227,0.8547 L3.11886186,0.8547 L3.11886186,0.19495 C2.86612784,0.19495 2.62114639,0.224 2.38740619,0.27825 L2.38740619,0.27825 L2.38740619,0.8547 L1.65672577,0.8547 L1.65672577,0.5481 C1.21289072,0.78015 0.842317526,1.1144 0.585707216,1.51515 L0.585707216,1.51515 L0.924494845,1.51515 L0.924494845,2.17525 L0.286457732,2.17525 C0.225987629,2.3863 0.194202062,2.60785 0.194202062,2.83605 L0.194202062,2.83605 L0.924494845,2.83605 L0.924494845,3.49685 L0.286457732,3.49685 C0.353129897,3.731 0.455076289,3.9529 0.585707216,4.1573 L0.585707216,4.1573 L0.924494845,4.1573 L0.924494845,4.58255 C1.46058557,5.131 2.24514639,5.47715 3.11886186,5.47715 L3.11886186,5.47715 L34.5613773,5.47715 C35.4343175,5.47715 36.2181031,5.1317 36.7538062,4.5836 L36.7538062,4.5836 L36.7538062,4.1573 L37.0937567,4.1573 C37.2247753,3.9529 37.326334,3.731 37.3933938,3.49685 L37.3933938,3.49685 L36.7538062,3.49685 L36.7538062,2.83605 L37.4856495,2.83605 C37.4856495,2.60785 37.4534763,2.3863 37.3933938,2.17525 L37.3933938,2.17525 L36.7538062,2.17525 L36.7538062,1.51515 L37.0941443,1.51515 C36.8371464,1.11405 36.4669608,0.7798 36.0231258,0.5481 L36.0231258,0.5481 L36.0231258,0.8547 L35.2920577,0.8547 L35.2920577,0.27825 C35.0587052,0.224 34.8137237,0.19495 34.5613773,0.19495 L34.5613773,0.19495 L34.5602144,0.19495 Z M35.2920577,2.17525 L36.0227381,2.17525 L36.0227381,1.51515 L35.2920577,1.51515 L35.2920577,2.17525 Z M33.829534,2.17525 L34.5602144,2.17525 L34.5602144,1.51515 L33.829534,1.51515 L33.829534,2.17525 Z M32.3670103,2.17525 L33.0980784,2.17525 L33.0980784,1.51515 L32.3670103,1.51515 L32.3670103,2.17525 Z M30.9048742,2.17525 L31.6355546,2.17525 L31.6355546,1.51515 L30.9048742,1.51515 L30.9048742,2.17525 Z M29.4419629,2.17525 L30.1730309,2.17525 L30.1730309,1.51515 L29.4419629,1.51515 L29.4419629,2.17525 Z M27.9794392,2.17525 L28.7108948,2.17525 L28.7108948,1.51515 L27.9794392,1.51515 L27.9794392,2.17525 Z M26.5173031,2.17525 L27.2483711,2.17525 L27.2483711,1.51515 L26.5173031,1.51515 L26.5173031,2.17525 Z M25.055167,2.17525 L25.7858474,2.17525 L25.7858474,1.51515 L25.055167,1.51515 L25.055167,2.17525 Z M23.5926433,2.17525 L24.3237113,2.17525 L24.3237113,1.51515 L23.5926433,1.51515 L23.5926433,2.17525 Z M22.1305072,2.17525 L22.8611876,2.17525 L22.8611876,1.51515 L22.1305072,1.51515 L22.1305072,2.17525 Z M20.6675959,2.17525 L21.3982763,2.17525 L21.3982763,1.51515 L20.6675959,1.51515 L20.6675959,2.17525 Z M19.2054598,2.17525 L19.9369155,2.17525 L19.9369155,1.51515 L19.2054598,1.51515 L19.2054598,2.17525 Z M17.7425485,2.17525 L18.4743918,2.17525 L18.4743918,1.51515 L17.7425485,1.51515 L17.7425485,2.17525 Z M16.2804124,2.17525 L17.0114804,2.17525 L17.0114804,1.51515 L16.2804124,1.51515 L16.2804124,2.17525 Z M14.8182763,2.17525 L15.5489567,2.17525 L15.5489567,1.51515 L14.8182763,1.51515 L14.8182763,2.17525 Z M13.3553649,2.17525 L14.0868206,2.17525 L14.0868206,1.51515 L13.3553649,1.51515 L13.3553649,2.17525 Z M11.8932289,2.17525 L12.6239093,2.17525 L12.6239093,1.51515 L11.8932289,1.51515 L11.8932289,2.17525 Z M10.4310928,2.17525 L11.1617732,2.17525 L11.1617732,1.51515 L10.4310928,1.51515 L10.4310928,2.17525 Z M8.96818144,2.17525 L9.70002474,2.17525 L9.70002474,1.51515 L8.96818144,1.51515 L8.96818144,2.17525 Z M7.50565773,2.17525 L8.2371134,2.17525 L8.2371134,1.51515 L7.50565773,1.51515 L7.50565773,2.17525 Z M6.04352165,2.17525 L6.77458969,2.17525 L6.77458969,1.51515 L6.04352165,1.51515 L6.04352165,2.17525 Z M4.58099794,2.17525 L5.31206598,2.17525 L5.31206598,1.51515 L4.58099794,1.51515 L4.58099794,2.17525 Z M3.11886186,2.17525 L3.84954227,2.17525 L3.84954227,1.51515 L3.11886186,1.51515 L3.11886186,2.17525 Z M1.65672577,2.17525 L2.38740619,2.17525 L2.38740619,1.51515 L1.65672577,1.51515 L1.65672577,2.17525 Z M35.2920577,3.49685 L36.0227381,3.49685 L36.0227381,2.83605 L35.2920577,2.83605 L35.2920577,3.49685 Z M33.829534,3.49685 L34.5602144,3.49685 L34.5602144,2.83605 L33.829534,2.83605 L33.829534,3.49685 Z M32.3670103,3.49685 L33.0980784,3.49685 L33.0980784,2.83605 L32.3670103,2.83605 L32.3670103,3.49685 Z M30.9048742,3.49685 L31.6355546,3.49685 L31.6355546,2.83605 L30.9048742,2.83605 L30.9048742,3.49685 Z M29.4419629,3.49685 L30.1730309,3.49685 L30.1730309,2.83605 L29.4419629,2.83605 L29.4419629,3.49685 Z M27.9794392,3.49685 L28.7108948,3.49685 L28.7108948,2.83605 L27.9794392,2.83605 L27.9794392,3.49685 Z M26.5173031,3.49685 L27.2483711,3.49685 L27.2483711,2.83605 L26.5173031,2.83605 L26.5173031,3.49685 Z M25.055167,3.49685 L25.7858474,3.49685 L25.7858474,2.83605 L25.055167,2.83605 L25.055167,3.49685 Z M23.5926433,3.49685 L24.3237113,3.49685 L24.3237113,2.83605 L23.5926433,2.83605 L23.5926433,3.49685 Z M22.1305072,3.49685 L22.8611876,3.49685 L22.8611876,2.83605 L22.1305072,2.83605 L22.1305072,3.49685 Z M20.6675959,3.49685 L21.3982763,3.49685 L21.3982763,2.83605 L20.6675959,2.83605 L20.6675959,3.49685 Z M19.2054598,3.49685 L19.9369155,3.49685 L19.9369155,2.83605 L19.2054598,2.83605 L19.2054598,3.49685 Z M17.7425485,3.49685 L18.4743918,3.49685 L18.4743918,2.83605 L17.7425485,2.83605 L17.7425485,3.49685 Z M16.2804124,3.49685 L17.0114804,3.49685 L17.0114804,2.83605 L16.2804124,2.83605 L16.2804124,3.49685 Z M14.8182763,3.49685 L15.5489567,3.49685 L15.5489567,2.83605 L14.8182763,2.83605 L14.8182763,3.49685 Z M13.3553649,3.49685 L14.0868206,3.49685 L14.0868206,2.83605 L13.3553649,2.83605 L13.3553649,3.49685 Z M11.8932289,3.49685 L12.6239093,3.49685 L12.6239093,2.83605 L11.8932289,2.83605 L11.8932289,3.49685 Z M10.4310928,3.49685 L11.1617732,3.49685 L11.1617732,2.83605 L10.4310928,2.83605 L10.4310928,3.49685 Z M8.96818144,3.49685 L9.70002474,3.49685 L9.70002474,2.83605 L8.96818144,2.83605 L8.96818144,3.49685 Z M7.50565773,3.49685 L8.2371134,3.49685 L8.2371134,2.83605 L7.50565773,2.83605 L7.50565773,3.49685 Z M6.04352165,3.49685 L6.77458969,3.49685 L6.77458969,2.83605 L6.04352165,2.83605 L6.04352165,3.49685 Z M4.58099794,3.49685 L5.31206598,3.49685 L5.31206598,2.83605 L4.58099794,2.83605 L4.58099794,3.49685 Z M3.11886186,3.49685 L3.84954227,3.49685 L3.84954227,2.83605 L3.11886186,2.83605 L3.11886186,3.49685 Z M1.65672577,3.49685 L2.38740619,3.49685 L2.38740619,2.83605 L1.65672577,2.83605 L1.65672577,3.49685 Z M35.2920577,4.8174 L36.0227381,4.8174 L36.0227381,4.1573 L35.2920577,4.1573 L35.2920577,4.8174 Z M33.829534,4.8174 L34.5602144,4.8174 L34.5602144,4.1573 L33.829534,4.1573 L33.829534,4.8174 Z M32.3670103,4.8174 L33.0980784,4.8174 L33.0980784,4.1573 L32.3670103,4.1573 L32.3670103,4.8174 Z M30.9048742,4.8174 L31.6355546,4.8174 L31.6355546,4.1573 L30.9048742,4.1573 L30.9048742,4.8174 Z M29.4419629,4.8174 L30.1730309,4.8174 L30.1730309,4.1573 L29.4419629,4.1573 L29.4419629,4.8174 Z M27.9794392,4.8174 L28.7108948,4.8174 L28.7108948,4.1573 L27.9794392,4.1573 L27.9794392,4.8174 Z M26.5173031,4.8174 L27.2483711,4.8174 L27.2483711,4.1573 L26.5173031,4.1573 L26.5173031,4.8174 Z M25.055167,4.8174 L25.7858474,4.8174 L25.7858474,4.1573 L25.055167,4.1573 L25.055167,4.8174 Z M23.5926433,4.8174 L24.3237113,4.8174 L24.3237113,4.1573 L23.5926433,4.1573 L23.5926433,4.8174 Z M22.1305072,4.8174 L22.8611876,4.8174 L22.8611876,4.1573 L22.1305072,4.1573 L22.1305072,4.8174 Z M20.6675959,4.8174 L21.3982763,4.8174 L21.3982763,4.1573 L20.6675959,4.1573 L20.6675959,4.8174 Z M19.2054598,4.8174 L19.9369155,4.8174 L19.9369155,4.1573 L19.2054598,4.1573 L19.2054598,4.8174 Z M17.7425485,4.8174 L18.4743918,4.8174 L18.4743918,4.1573 L17.7425485,4.1573 L17.7425485,4.8174 Z M16.2804124,4.8174 L17.0114804,4.8174 L17.0114804,4.1573 L16.2804124,4.1573 L16.2804124,4.8174 Z M14.8182763,4.8174 L15.5489567,4.8174 L15.5489567,4.1573 L14.8182763,4.1573 L14.8182763,4.8174 Z M13.3553649,4.8174 L14.0868206,4.8174 L14.0868206,4.1573 L13.3553649,4.1573 L13.3553649,4.8174 Z M11.8932289,4.8174 L12.6239093,4.8174 L12.6239093,4.1573 L11.8932289,4.1573 L11.8932289,4.8174 Z M10.4310928,4.8174 L11.1617732,4.8174 L11.1617732,4.1573 L10.4310928,4.1573 L10.4310928,4.8174 Z M8.96818144,4.8174 L9.70002474,4.8174 L9.70002474,4.1573 L8.96818144,4.1573 L8.96818144,4.8174 Z M7.50565773,4.8174 L8.2371134,4.8174 L8.2371134,4.1573 L7.50565773,4.1573 L7.50565773,4.8174 Z M6.04352165,4.8174 L6.77458969,4.8174 L6.77458969,4.1573 L6.04352165,4.1573 L6.04352165,4.8174 Z M4.58099794,4.8174 L5.31206598,4.8174 L5.31206598,4.1573 L4.58099794,4.1573 L4.58099794,4.8174 Z M3.11886186,4.8174 L3.84954227,4.8174 L3.84954227,4.1573 L3.11886186,4.1573 L3.11886186,4.8174 Z M1.65672577,4.8174 L2.38740619,4.8174 L2.38740619,4.1573 L1.65672577,4.1573 L1.65672577,4.8174 Z" id="Fill-11" fill="url(#linearGradient-54)" mask="url(#mask-53)"></path>
            </g>
            <g id="Group-16" transform="translate(141.600000, 26.400000)">
                <mask id="mask-56" fill="white">
                    <use xlink:href="#path-55"></use>
                </mask>
                <g id="Clip-15"></g>
                <path d="M2.94885868,0 C1.32024448,0 0,1.07437053 0,2.4 L0,2.4 C0,3.72562947 1.32024448,4.8 2.94885868,4.8 L2.94885868,4.8 L34.6515322,4.8 C36.2797555,4.8 37.6,3.72562947 37.6,2.4 L37.6,2.4 C37.6,1.07437053 36.2797555,0 34.6515322,0 L34.6515322,0 L2.94885868,0 Z M0.589771735,2.4 C0.589771735,1.34153194 1.64776517,0.47993639 2.94885868,0.47993639 L2.94885868,0.47993639 L34.6515322,0.47993639 C35.951844,0.47993639 37.0098374,1.34153194 37.0098374,2.4 L37.0098374,2.4 C37.0098374,3.45846806 35.951844,4.32006361 34.6515322,4.32006361 L34.6515322,4.32006361 L2.94885868,4.32006361 C1.64776517,4.32006361 0.589771735,3.45846806 0.589771735,2.4 L0.589771735,2.4 Z" id="Fill-14" fill="url(#linearGradient-57)" mask="url(#mask-56)"></path>
            </g>
            <g id="Group-2" transform="translate(92.000000, 19.200000)">
                <g id="Group-19">
                    <mask id="mask-59" fill="white">
                        <use xlink:href="#path-58"></use>
                    </mask>
                    <g id="Clip-18"></g>
                    <path d="M5.91207273,0.483 C1.55514545,1.87701818 -0.846872727,6.53978182 0.547527273,10.8970909 L0.547527273,10.8970909 C1.94192727,15.2528727 6.60469091,17.6548909 10.9612364,16.2601091 L10.9612364,16.2601091 C15.3174,14.8664727 17.7194182,10.2048545 16.3257818,5.84754545 L16.3257818,5.84754545 C15.1998,2.32985455 11.9444182,0.0862909091 8.43856364,0.0862909091 L8.43856364,0.0862909091 C7.60238182,0.0866727273 6.75130909,0.2142 5.91207273,0.483" id="Fill-17" fill="url(#linearGradient-60)" mask="url(#mask-59)"></path>
                </g>
                <path d="M13.5690246,5.06518548 C15.1890199,7.69881069 14.3682542,11.1480899 11.7344658,12.7690278 C9.10147507,14.389168 5.65210564,13.56793 4.03171161,10.9347037 C2.41051995,8.3014773 3.23168443,4.85140037 5.86587163,3.23126019 C8.49886237,1.61072117 11.9486306,2.43195913 13.5690246,5.06518548" id="Fill-20" fill="#131313"></path>
                <g id="Group-24" transform="translate(3.200000, 2.400000)">
                    <mask id="mask-62" fill="white">
                        <use xlink:href="#path-61"></use>
                    </mask>
                    <g id="Clip-23"></g>
                    <path d="M2.41665185,1.0946963 C0.0589333333,2.54645926 -0.676385185,5.63371852 0.773451852,7.99259259 L0.773451852,7.99259259 C2.2256,10.3499259 5.31362963,11.0856296 7.67173333,9.63425185 L7.67173333,9.63425185 C10.0294519,8.18287407 10.7659259,5.09484444 9.31416296,2.73635556 L9.31416296,2.73635556 C8.36737778,1.19754074 6.72340741,0.350133333 5.03976296,0.350133333 L5.03976296,0.350133333 C4.14382222,0.350133333 3.23594074,0.590488889 2.41665185,1.0946963" id="Fill-22" fill="url(#linearGradient-63)" mask="url(#mask-62)"></path>
                </g>
                <g id="Group-27" transform="translate(5.600000, 5.600000)">
                    <mask id="mask-65" fill="white">
                        <use xlink:href="#path-64"></use>
                    </mask>
                    <g id="Clip-26"></g>
                    <path d="M0.09975,2.7741 C0.09975,4.284 1.3237,5.50795 2.8336,5.50795 L2.8336,5.50795 C4.3428,5.50795 5.5671,4.284 5.5671,2.7741 L5.5671,2.7741 C5.5671,1.2642 4.3428,0.0406 2.8336,0.0406 L2.8336,0.0406 C1.3237,0.0406 0.09975,1.2642 0.09975,2.7741" id="Fill-25" fill="url(#linearGradient-66)" mask="url(#mask-65)"></path>
                </g>
                <g id="Group-32" transform="translate(6.400000, 5.600000)" fill="#515054">
                    <path d="M2.20224,1.28997867 C2.20224,1.82645867 1.77171692,2.261392 1.24076308,2.261392 C0.70944,2.261392 0.279286154,1.82645867 0.279286154,1.28997867 C0.279286154,0.753125333 0.70944,0.318192 1.24076308,0.318192 C1.77171692,0.318192 2.20224,0.753125333 2.20224,1.28997867" id="Fill-28"></path>
                    <path d="M4.6176,3.46453333 C4.22510769,3.12330667 3.72073846,2.91013333 3.16283077,2.91013333 C1.92443077,2.91013333 0.920492308,3.92485333 0.920492308,5.17701333 C0.920492308,5.22928 0.931938462,5.27781333 0.935261538,5.32746667 C1.2336,5.43237333 1.54781538,5.50181333 1.88196923,5.50181333 C3.16947692,5.50181333 4.24689231,4.6424 4.6176,3.46453333" id="Fill-30"></path>
                </g>
            </g>
            <g id="Group-46" transform="translate(221.600000, 187.200000)">
                <mask id="mask-68" fill="white">
                    <use xlink:href="#path-67"></use>
                </mask>
                <g id="Clip-45"></g>
                <path d="M0.239636364,5.40479365 C0.24,7.59614603 0.239272727,39.0109524 0.239636364,41.9335302 L0.239636364,41.9335302 C0.24,44.8561079 0.925454545,48.5095238 2.29709091,48.5095238 L2.29709091,48.5095238 C2.984,48.5095238 3.66945455,47.8557587 3.66945455,47.0474603 L3.66945455,47.0474603 L3.66945455,1.75137778 C3.66945455,0.945015873 2.984,0.29047619 2.29709091,0.29047619 L2.29709091,0.29047619 C0.925818182,0.29047619 0.239272727,3.21227937 0.239636364,5.40479365" id="Fill-44" mask="url(#mask-68)"></path>
            </g>
            <g id="Group-49" transform="translate(220.000000, 187.200000)">
                <mask id="mask-70" fill="white">
                    <use xlink:href="#path-69"></use>
                </mask>
                <g id="Clip-48"></g>
                <path d="M2.88777143,0.29047619 C1.16388571,0.29047619 0.3008,3.21227937 0.301257143,5.40479365 C0.301714286,7.59653333 0.3008,39.0109524 0.301257143,41.9335302 C0.301714286,44.8561079 1.16342857,48.5095238 2.88777143,48.5095238 L2.88777143,0.29047619 Z" id="Fill-47" mask="url(#mask-70)"></path>
            </g>
            <g id="Group-52" transform="translate(221.600000, 282.400000)">
                <mask id="mask-72" fill="white">
                    <use xlink:href="#path-71"></use>
                </mask>
                <g id="Clip-51"></g>
                <path d="M0.239636364,5.51125506 C0.24,7.71187045 0.239272727,86.160583 0.239636364,89.0918866 L0.239636364,89.0918866 C0.24,92.0251336 0.925454545,95.6906235 2.29709091,95.6906235 L2.29709091,95.6906235 C2.984,95.6906235 3.66945455,95.033004 3.66945455,94.2238057 L3.66945455,94.2238057 L3.66945455,1.84615385 C3.66945455,1.03540081 2.984,0.378947368 2.29709091,0.378947368 L2.29709091,0.378947368 C0.925818182,0.378947368 0.239272727,3.31180567 0.239636364,5.51125506" id="Fill-50" mask="url(#mask-72)"></path>
            </g>
            <g id="Group-55" transform="translate(220.000000, 282.400000)">
                <mask id="mask-74" fill="white">
                    <use xlink:href="#path-73"></use>
                </mask>
                <g id="Clip-54"></g>
                <path d="M2.88777143,0.378947368 C1.16388571,0.378947368 0.3008,3.31219433 0.301257143,5.51125506 C0.301714286,7.71187045 0.3008,86.1601943 0.301257143,89.0918866 C0.301714286,92.0251336 1.16342857,95.6906235 2.88777143,95.6906235 L2.88777143,0.378947368 Z" id="Fill-53" mask="url(#mask-74)"></path>
            </g>
            <g id="element-/-button-/-FAB-/-Hexagon" transform="translate(248.000000, 558.400000)">
                <mask id="mask-76" fill="white">
                    <use xlink:href="#path-75"></use>
                </mask>
                <g id="Path-Copy">
                    <use fill="black" fill-opacity="1" filter="url(#filter-77)" xlink:href="#path-75"></use>
                    <use fill="#FAFAFA" fill-rule="evenodd" xlink:href="#path-75"></use>
                </g>
                <g id="*-color-/-coral" mask="url(#mask-76)" fill="#DA552F" fill-rule="evenodd">
                    <rect id="Rectangle" x="0" y="0" width="48" height="48"></rect>
                </g>
                <g id="element-/-icon-/-add-/-white" mask="url(#mask-76)" fill="#FFFFFF" fill-rule="evenodd">
                    <g transform="translate(14.400000, 14.400000)" id="Rectangle">
                        <rect x="8.32" y="2.56" width="2.56" height="14.08"></rect>
                        <polygon transform="translate(9.600000, 9.600000) rotate(90.000000) translate(-9.600000, -9.600000) " points="8.32 2.56 10.88 2.56 10.88 16.64 8.32 16.64"></polygon>
                    </g>
                </g>
            </g>
            <g id="Status-Bar" transform="translate(37.000000, 47.000000)">
                <text id="13:37" font-family="Roboto-Medium, Roboto" font-size="10.773" font-weight="400" line-spacing="11.5425" letter-spacing="0.0769500017" fill="#000000">
                    <tspan x="227" y="12.539">13:37</tspan>
                </text>
                <g id="DeveloperTown" transform="translate(0.000000, 1.800000)" fill="#1D1D1D" font-family="Roboto-Regular, Roboto" font-size="10.0035" font-weight="normal">
                    <text>
                        <tspan x="0" y="10">Telekom</tspan>
                    </text>
                </g>
                <g id="ic_battery_charging_full_black_24px" transform="translate(210.572000, 0.000000)">
                    <polygon id="Shape" points="0 0 17.3695641 0 17.3695641 13.4213625 0 13.4213625"></polygon>
                    <path d="M11.3408779,2.23689375 L10.1322457,2.23689375 L10.1322457,1.11844687 L7.23731836,1.11844687 L7.23731836,2.23689375 L6.02868619,2.23689375 C5.50036195,2.23689375 5.06612285,2.57242781 5.06612285,2.98066092 L5.06612285,11.5535562 C5.06612285,11.9673816 5.50036195,12.3029156 6.02868619,12.3029156 L11.3336406,12.3029156 C11.8692021,12.3029156 12.3034412,11.9673816 12.3034412,11.5591485 L12.3034412,2.98066092 C12.3034412,2.57242781 11.8692021,2.23689375 11.3408779,2.23689375 Z M7.9610502,11.1844687 L7.9610502,8.10873984 L6.51358652,8.10873984 L9.40851387,3.91456406 L9.40851387,6.99029297 L10.8559775,6.99029297 L7.9610502,11.1844687 Z" id="Shape" fill="#595959" fill-rule="nonzero"></path>
                </g>
                <g id="LTE" transform="translate(170.942750, 3.462750)" fill="#000000">
                    <rect id="Rectangle" x="0" y="0" width="1.15425" height="6.9255"></rect>
                    <rect id="Rectangle-Copy" x="3.8475" y="0" width="1.15425" height="6.9255"></rect>
                    <rect id="Rectangle-Copy-2" x="6.54075" y="0" width="1.15425" height="6.9255"></rect>
                    <rect id="Rectangle-2" x="2.69325" y="0" width="3.46275" height="1.15425"></rect>
                    <rect id="Rectangle-2-Copy" x="0" y="5.77125" width="3.078" height="1.15425"></rect>
                    <rect id="Rectangle-2-Copy-3" x="6.54075" y="5.77125" width="3.46275" height="1.15425"></rect>
                    <rect id="Rectangle-2-Copy-5" x="6.54075" y="0" width="3.46275" height="1.15425"></rect>
                    <rect id="Rectangle-2-Copy-4" x="6.54075" y="2.69325" width="2.69325" height="1.15425"></rect>
                </g>
                <polygon id="Path-5" fill="#AAAAAA" points="166.03597 1.539 165.957274 12.2691326 161.759307 12.2691326 161.70875 5.88159059"></polygon>
                <polygon id="Path-4" fill="#595959" points="161.791761 5.77125 161.836614 12.1346543 155.168 12.1346543"></polygon>
                <text id="100%" font-family="RobotoCondensed-Regular, Roboto Condensed" font-size="10.773" font-style="condensed" font-weight="normal" letter-spacing="0.0769500017" fill="#000000">
                    <tspan x="189.41353" y="11.15425">100%</tspan>
                </text>
            </g>
        </g>
    </g>
</svg>