<?xml version="1.0" encoding="UTF-8"?>
<svg width="100px" height="100px" viewBox="0 0 100 100" version="1.1" xmlns="http://www.w3.org/2000/svg" xmlns:xlink="http://www.w3.org/1999/xlink">
    <!-- Generator: Sketch 55 (78076) - https://sketchapp.com -->
    <title>logo - outlined 2</title>
    <desc>Created with Sketch.</desc>
    <g id="logo---outlined-2" stroke="none" stroke-width="1" fill="none" fill-rule="evenodd">
        <polygon id="logo-copy" stroke="#37B1CC" points="48.5381305 8 87.0762609 30.25 87.0762609 74.75 48.5381305 97 10 74.75 10 30.25"></polygon>
        <path d="M51.5381305,3 L90.0762609,25.25 L90.0762609,69.75 L51.5381305,92 L13,69.75 L13,25.25 L51.5381305,3 Z M66.9074192,51.4027549 C67.0444639,50.7748174 67.1413694,50.1355071 67.1967411,49.487941 C67.7870745,49.3465549 68.2833191,48.8945375 68.4514695,48.266992 C68.6958778,47.3548476 68.1545708,46.4172764 67.2424265,46.1728681 C67.1988936,46.1612035 67.1553029,46.1513286 67.1117324,46.1431982 C67.0517052,45.7061465 66.9726098,45.2735655 66.8749096,44.8464527 C67.3644896,44.6554348 67.7597923,44.2420325 67.9062371,43.6954929 C68.1506455,42.7833485 67.6093385,41.8457773 66.6971941,41.6013689 C66.3682744,41.5132351 66.0360483,41.5272701 65.7342106,41.6240202 C65.4239417,40.9907139 65.0682009,40.3785284 64.6689473,39.7916807 L63.9620996,40.2725746 C64.3560243,40.8515895 64.7049987,41.4566983 65.0069164,42.0833938 C64.8202625,42.2821771 64.6785828,42.528595 64.6030702,42.8104119 C64.3586619,43.7225563 64.8999689,44.6601275 65.8121132,44.9045359 C65.8815527,44.9231421 65.9511396,44.9371948 66.0205568,44.946877 C66.1180145,45.3603469 66.1969419,45.7793687 66.2568654,46.2029294 C65.7318988,46.3792713 65.302374,46.8069084 65.1483025,47.3819111 C64.9054468,48.2882611 65.4383556,49.2197159 66.3400074,49.4712935 C66.2843773,50.0927643 66.1881754,50.7059783 66.0527845,51.3078682 C65.3971102,51.4032025 64.8288374,51.877338 64.6464729,52.5579317 C64.4856872,53.1579919 64.6649398,53.7690563 65.0661132,54.1865393 C64.8310994,54.6868576 64.5662105,55.1739028 64.2724539,55.6454403 L64.998086,56.0974918 C65.292818,55.6243886 65.5601648,55.136532 65.7992179,54.6359524 C65.8178218,54.6416143 65.836589,54.6469842 65.8555159,54.6520556 C66.7676603,54.896464 67.7052315,54.355157 67.9496398,53.4430126 C68.1787498,52.5879626 67.7174274,51.7105691 66.9074192,51.4027549 Z M60.7187827,42.323892 L64.2594711,33.6457343 C62.3155541,32.1183708 60.2559585,31.1695684 58.0806228,30.7992985 C55.905287,30.4290286 54.1233898,30.2438964 52.7348776,30.2438964 C47.2733963,30.2438964 42.8417948,31.8406615 39.4399399,35.0342395 C36.038085,38.2278175 34.3371831,42.6478483 34.3371831,48.2944646 C34.3371831,53.9410808 36.038085,58.2801163 39.4399399,61.3117012 C42.8417948,64.3432862 47.2733963,65.8590559 52.7348776,65.8590559 C54.1233898,65.8590559 55.905287,65.6739237 58.0806228,65.3036538 C60.2559585,64.9333839 62.3155541,63.9845815 64.2594711,62.457218 L60.7187827,53.7790603 C59.3765543,54.4733164 58.1963366,54.9477176 57.1780944,55.2022782 C56.1598521,55.4568387 55.0953421,55.5841171 53.9845323,55.5841171 C52.272034,55.5841171 50.7446935,54.959296 49.402465,53.709635 C48.0602366,52.459974 47.3891324,50.6549353 47.3891324,48.2944646 C47.3891324,45.8877101 48.0602366,43.9901053 49.402465,42.6015931 C50.7446935,41.2130809 52.272034,40.5188352 53.9845323,40.5188352 C55.1879095,40.5188352 56.2755611,40.6461136 57.2475196,40.9006741 C58.2194782,41.1552347 59.3765543,41.6296359 60.7187827,42.323892 Z" id="logo-copy" stroke="#F9BF3B"></path>
    </g>
</svg>