<?xml version="1.0" encoding="UTF-8"?>
<svg width="100px" height="100px" viewBox="0 0 100 100" version="1.1" xmlns="http://www.w3.org/2000/svg" xmlns:xlink="http://www.w3.org/1999/xlink">
    <!-- Generator: Sketch 55 (78076) - https://sketchapp.com -->
    <title>logo - outlined</title>
    <desc>Created with Sketch.</desc>
    <g id="logo---outlined" stroke="none" stroke-width="1" fill="none" fill-rule="evenodd">
        <path d="M49.5381305,5.57735027 L11.5,27.5386751 L11.5,71.4613249 L49.5381305,93.4226497 L87.5762609,71.4613249 L87.5762609,27.5386751 L49.5381305,5.57735027 Z M65.4739682,53.1287498 C66.2783748,53.6333457 66.6882457,54.6183496 66.4326028,55.5724222 C66.1482052,56.6338082 65.1376185,57.306688 64.0786404,57.1997347 C63.8770503,57.5958478 63.6581611,57.9835435 63.4224707,58.3618734 L63.1580891,58.7862581 L61.5836876,57.8054434 L61.8480691,57.3810587 C62.0761729,57.014907 62.2863431,56.6388861 62.4780169,56.2540848 C62.1166622,55.7294822 61.9928566,55.0654091 62.16351,54.4285222 C62.3622062,53.6869778 62.9238576,53.1178121 63.62978,52.8937219 C63.7025511,52.5314885 63.7605816,52.1658494 63.8037054,51.7975231 C62.887392,51.3361088 62.3896983,50.2812089 62.6653396,49.2525015 C62.821037,48.6714309 63.2004835,48.192484 63.7045862,47.9049946 C63.6738806,47.7238798 63.6395276,47.5435566 63.6015504,47.3641144 C62.4719567,47.0154934 61.8115459,45.8325693 62.1201073,44.6810024 C62.1837054,44.4436509 62.2848785,44.2218786 62.4185703,44.0223757 C62.1602521,43.5162087 61.8698358,43.0258485 61.548701,42.5538245 L61.267451,42.1404259 L62.801096,41.0970321 L63.0823459,41.5104307 C63.4211519,42.0084287 63.7299558,42.5245634 64.007462,43.0564944 C64.2787574,43.0259094 64.5559761,43.0458916 64.8266037,43.118406 C66.0054811,43.4342853 66.7050793,44.646025 66.3892001,45.8249024 C66.2435886,46.3683317 65.9021357,46.8232388 65.4442958,47.1154052 C65.4868073,47.32557 65.5249544,47.5367498 65.5587091,47.748831 C66.6233746,48.1366799 67.2332381,49.2812436 66.9344324,50.3964015 C66.7550506,51.0658634 66.2791649,51.5974072 65.6633373,51.8588531 C65.6177251,52.2853907 65.5545372,52.7089846 65.4739682,53.1287498 Z M58.4890713,44.7680008 C57.1771306,44.0894108 56.0528659,43.6284623 55.1208399,43.3843603 C54.1922755,43.1411648 53.1469134,43.0188352 51.9845323,43.0188352 C50.412437,43.0188352 49.0129673,43.6549578 47.7619592,44.9491041 C46.5159283,46.2381016 45.8891324,48.010421 45.8891324,50.2944646 C45.8891324,52.5245988 46.5105924,54.1961118 47.7431743,55.343688 C48.9945652,56.5087761 50.4009543,57.0841171 51.9845323,57.0841171 C53.05503,57.0841171 54.0788287,56.9617064 55.0568266,56.7172069 C56.0335077,56.4730366 57.1788343,56.0126602 58.4890713,55.3349515 L58.9750441,55.0835862 L62.8648543,64.6174346 L62.5683819,64.8503772 C60.5607752,66.4277825 58.4245754,67.4118745 56.1645225,67.7965644 C53.9637059,68.1711715 52.1553182,68.3590559 50.7348776,68.3590559 C45.1562334,68.3590559 40.6056764,66.8025991 37.1072854,63.6849853 C33.591835,60.5521689 31.8371831,56.0760163 31.8371831,50.2944646 C31.8371831,44.5164224 33.5892872,39.9633356 37.0977219,36.669703 C40.5966258,33.3850178 45.1513321,31.7438964 50.7348776,31.7438964 C52.1553182,31.7438964 53.9637059,31.9317808 56.1645225,32.3063879 C58.4245754,32.6910778 60.5607752,33.6751698 62.5683819,35.2525751 L62.8648543,35.4855177 L58.9750441,45.0193661 L58.4890713,44.7680008 Z" id="logo-copy" stroke="#F03434"></path>
    </g>
</svg>