<?xml version="1.0" encoding="UTF-8"?>
<svg width="100px" height="100px" viewBox="0 0 100 100" version="1.1" xmlns="http://www.w3.org/2000/svg" xmlns:xlink="http://www.w3.org/1999/xlink">
    <g stroke="none" stroke-width="1" fill="none" fill-rule="evenodd">
        <polygon stroke="#595959" points="48.5381305 8 87.0762609 30.25 87.0762609 74.75 48.5381305 97 10 74.75 10 30.25"></polygon>
        <path d="M51.5381305,3.57735027 L13.5,25.5386751 L13.5,69.4613249 L51.5381305,91.4226497 L89.5762609,69.4613249 L89.5762609,25.5386751 L51.5381305,3.57735027 Z M67.4739682,51.1287498 C68.2783748,51.6333457 68.6882457,52.6183496 68.4326028,53.5724222 C68.1482052,54.6338082 67.1376185,55.306688 66.0786404,55.1997347 C65.8770503,55.5958478 65.6581611,55.9835435 65.4224707,56.3618734 L65.1580891,56.7862581 L63.5836876,55.8054434 L63.8480691,55.3810587 C64.0761729,55.014907 64.2863431,54.6388861 64.4780169,54.2540848 C64.1166622,53.7294822 63.9928566,53.0654091 64.16351,52.4285222 C64.3622062,51.6869778 64.9238576,51.1178121 65.62978,50.8937219 C65.7025511,50.5314885 65.7605816,50.1658494 65.8037054,49.7975231 C64.887392,49.3361088 64.3896983,48.2812089 64.6653396,47.2525015 C64.821037,46.6714309 65.2004835,46.192484 65.7045862,45.9049946 C65.6738806,45.7238798 65.6395276,45.5435566 65.6015504,45.3641144 C64.4719567,45.0154934 63.8115459,43.8325693 64.1201073,42.6810024 C64.1837054,42.4436509 64.2848785,42.2218786 64.4185703,42.0223757 C64.1602521,41.5162087 63.8698358,41.0258485 63.548701,40.5538245 L63.267451,40.1404259 L64.801096,39.0970321 L65.0823459,39.5104307 C65.4211519,40.0084287 65.7299558,40.5245634 66.007462,41.0564944 C66.2787574,41.0259094 66.5559761,41.0458916 66.8266037,41.118406 C68.0054811,41.4342853 68.7050793,42.646025 68.3892001,43.8249024 C68.2435886,44.3683317 67.9021357,44.8232388 67.4442958,45.1154052 C67.4868073,45.32557 67.5249544,45.5367498 67.5587091,45.748831 C68.6233746,46.1366799 69.2332381,47.2812436 68.9344324,48.3964015 C68.7550506,49.0658634 68.2791649,49.5974072 67.6633373,49.8588531 C67.6177251,50.2853907 67.5545372,50.7089846 67.4739682,51.1287498 Z M60.4890713,42.7680008 C59.1771306,42.0894108 58.0528659,41.6284623 57.1208399,41.3843603 C56.1922755,41.1411648 55.1469134,41.0188352 53.9845323,41.0188352 C52.412437,41.0188352 51.0129673,41.6549578 49.7619592,42.9491041 C48.5159283,44.2381016 47.8891324,46.010421 47.8891324,48.2944646 C47.8891324,50.5245988 48.5105924,52.1961118 49.7431743,53.343688 C50.9945652,54.5087761 52.4009543,55.0841171 53.9845323,55.0841171 C55.05503,55.0841171 56.0788287,54.9617064 57.0568266,54.7172069 C58.0335077,54.4730366 59.1788343,54.0126602 60.4890713,53.3349515 L60.9750441,53.0835862 L64.8648543,62.6174346 L64.5683819,62.8503772 C62.5607752,64.4277825 60.4245754,65.4118745 58.1645225,65.7965644 C55.9637059,66.1711715 54.1553182,66.3590559 52.7348776,66.3590559 C47.1562334,66.3590559 42.6056764,64.8025991 39.1072854,61.6849853 C35.591835,58.5521689 33.8371831,54.0760163 33.8371831,48.2944646 C33.8371831,42.5164224 35.5892872,37.9633356 39.0977219,34.669703 C42.5966258,31.3850178 47.1513321,29.7438964 52.7348776,29.7438964 C54.1553182,29.7438964 55.9637059,29.9317808 58.1645225,30.3063879 C60.4245754,30.6910778 62.5607752,31.6751698 64.5683819,33.2525751 L64.8648543,33.4855177 L60.9750441,43.0193661 L60.4890713,42.7680008 Z" stroke="#F03434"></path>
    </g>
</svg>