<?xml version="1.0" encoding="UTF-8"?>
<svg width="100px" height="100px" viewBox="0 0 100 100" version="1.1" xmlns="http://www.w3.org/2000/svg" xmlns:xlink="http://www.w3.org/1999/xlink">
    <!-- Generator: Sketch 55 (78076) - https://sketchapp.com -->
    <title>logo - filled</title>
    <desc>Created with Sketch.</desc>
    <g id="logo---filled" stroke="none" stroke-width="1" fill="none" fill-rule="evenodd">
        <path d="M49.5381305,5 L88.0762609,27.25 L88.0762609,71.75 L49.5381305,94 L11,71.75 L11,27.25 L49.5381305,5 Z M64.9074192,53.4027549 C65.0444639,52.7748174 65.1413694,52.1355071 65.1967411,51.487941 C65.7870745,51.3465549 66.2833191,50.8945375 66.4514695,50.266992 C66.6958778,49.3548476 66.1545708,48.4172764 65.2424265,48.1728681 C65.1988936,48.1612035 65.1553029,48.1513286 65.1117324,48.1431982 C65.0517052,47.7061465 64.9726098,47.2735655 64.8749096,46.8464527 C65.3644896,46.6554348 65.7597923,46.2420325 65.9062371,45.6954929 C66.1506455,44.7833485 65.6093385,43.8457773 64.6971941,43.6013689 C64.3682744,43.5132351 64.0360483,43.5272701 63.7342106,43.6240202 C63.4239417,42.9907139 63.0682009,42.3785284 62.6689473,41.7916807 L61.9620996,42.2725746 C62.3560243,42.8515895 62.7049987,43.4566983 63.0069164,44.0833938 C62.8202625,44.2821771 62.6785828,44.528595 62.6030702,44.8104119 C62.3586619,45.7225563 62.8999689,46.6601275 63.8121132,46.9045359 C63.8815527,46.9231421 63.9511396,46.9371948 64.0205568,46.946877 C64.1180145,47.3603469 64.1969419,47.7793687 64.2568654,48.2029294 C63.7318988,48.3792713 63.302374,48.8069084 63.1483025,49.3819111 C62.9054468,50.2882611 63.4383556,51.2197159 64.3400074,51.4712935 C64.2843773,52.0927643 64.1881754,52.7059783 64.0527845,53.3078682 C63.3971102,53.4032025 62.8288374,53.877338 62.6464729,54.5579317 C62.4856872,55.1579919 62.6649398,55.7690563 63.0661132,56.1865393 C62.8310994,56.6868576 62.5662105,57.1739028 62.2724539,57.6454403 L62.998086,58.0974918 C63.292818,57.6243886 63.5601648,57.136532 63.7992179,56.6359524 C63.8178218,56.6416143 63.836589,56.6469842 63.8555159,56.6520556 C64.7676603,56.896464 65.7052315,56.355157 65.9496398,55.4430126 C66.1787498,54.5879626 65.7174274,53.7105691 64.9074192,53.4027549 Z M58.7187827,44.323892 L62.2594711,35.6457343 C60.3155541,34.1183708 58.2559585,33.1695684 56.0806228,32.7992985 C53.905287,32.4290286 52.1233898,32.2438964 50.7348776,32.2438964 C45.2733963,32.2438964 40.8417948,33.8406615 37.4399399,37.0342395 C34.038085,40.2278175 32.3371831,44.6478483 32.3371831,50.2944646 C32.3371831,55.9410808 34.038085,60.2801163 37.4399399,63.3117012 C40.8417948,66.3432862 45.2733963,67.8590559 50.7348776,67.8590559 C52.1233898,67.8590559 53.905287,67.6739237 56.0806228,67.3036538 C58.2559585,66.9333839 60.3155541,65.9845815 62.2594711,64.457218 L58.7187827,55.7790603 C57.3765543,56.4733164 56.1963366,56.9477176 55.1780944,57.2022782 C54.1598521,57.4568387 53.0953421,57.5841171 51.9845323,57.5841171 C50.272034,57.5841171 48.7446935,56.959296 47.402465,55.709635 C46.0602366,54.459974 45.3891324,52.6549353 45.3891324,50.2944646 C45.3891324,47.8877101 46.0602366,45.9901053 47.402465,44.6015931 C48.7446935,43.2130809 50.272034,42.5188352 51.9845323,42.5188352 C53.1879095,42.5188352 54.2755611,42.6461136 55.2475196,42.9006741 C56.2194782,43.1552347 57.3765543,43.6296359 58.7187827,44.323892 Z" id="logo-copy" fill="#F03434"></path>
    </g>
</svg>