<?xml version="1.0" encoding="UTF-8"?>
<svg width="250px" height="600px" viewBox="0 0 250 600" version="1.1" xmlns="http://www.w3.org/2000/svg" xmlns:xlink="http://www.w3.org/1999/xlink">
    <!-- Generator: Sketch 62 (91390) - https://sketch.com -->
    <title>Marco</title>
    <desc>Created with Sketch.</desc>
    <g id="Marco" stroke="none" stroke-width="1" fill="none" fill-rule="evenodd">
        <g id="Group-3-Copy" transform="translate(32.000000, 51.000000)">
            <path d="M83.5308794,487.600679 C83.7828583,488.260286 83.5776951,500.287433 83.5776951,500.287433 C83.5776951,500.287433 48.1423013,501.289925 42.1801775,500.408614 C39.4662408,500.006515 45.0786234,495.38927 47.8021986,495.000942 C63.4317753,492.760483 65.2066431,489.473466 69.8124869,487.168286 C80.3969778,481.868024 83.2789004,486.939696 83.5308794,487.600679" id="Fill-7" fill="#69BAC9"></path>
            <path d="M112.745699,486.60824 C112.496474,487.269224 112.791138,499.293617 112.791138,499.293617 C112.791138,499.293617 148.232039,500.089552 154.188655,499.173814 C156.898461,498.757945 151.253032,494.173748 148.525326,493.797814 C132.88198,491.650994 131.082328,488.374994 126.461337,486.094601 C115.838292,480.856306 112.993547,485.947256 112.745699,486.60824" id="Fill-9" fill="#69BAC9"></path>
            <path d="M138.5208,208.567965 L140.350745,214.049997 L140.83818,219.668358 L144.733526,218.658981 L143.831634,215.736883 C144.029912,215.881473 144.436108,215.871833 144.543509,215.665276 C144.652287,215.429801 144.489808,214.907899 144.481547,214.654522 L144.436108,214.357079 C144.408569,213.139768 143.425438,212.257079 142.785164,211.255965 C142.406507,210.588096 142.317007,209.822456 142.279829,209.082981 C142.235768,207.919374 142.406507,206.746129 142.721825,205.61144 C142.966919,204.889866 143.587917,204.239899 143.587917,203.472883 C143.461239,202.995047 142.848503,202.806391 142.362445,202.824292 C140.747302,202.860096 139.169336,203.861211 138.692917,205.249276 C138.629578,205.520555 138.511161,205.871702 138.5566,206.178784 L138.5566,206.26003 L138.5208,208.567965 Z" id="Fill-219" fill="#E0B094"></path>
            <path d="M53.5207428,208.567965 L51.6894207,214.049997 L51.203363,219.668358 L47.308017,218.658981 L48.2099087,215.736883 C48.0116303,215.881473 47.5834038,216.081145 47.474626,215.873211 C47.3658483,215.639112 46.5314263,214.022456 49.2550016,211.255965 C49.6350353,210.588096 49.724536,209.822456 49.7603363,209.082981 C49.8057751,207.919374 49.6350353,206.746129 49.3183405,205.61144 C49.0746232,204.889866 48.453626,204.239899 48.453626,203.472883 C48.580304,202.995047 49.1916626,202.806391 49.6790972,202.824292 C51.2928637,202.860096 52.87083,203.861211 53.348626,205.249276 C53.411965,205.520555 53.5290044,205.871702 53.4849425,206.178784 L53.4849425,206.26003 L53.5207428,208.567965 Z" id="Fill-221" fill="#E0B094"></path>
            <path d="M96.5660372,258.516292 C96.5660372,258.524555 96.5577756,258.524555 96.5577756,258.524555 L96.5577756,258.543833 C96.5756757,258.524555 96.6018374,258.506653 96.6211145,258.488752 C96.6018374,258.498391 96.5839373,258.506653 96.5660372,258.516292" id="Fill-223" fill="#C7C7C7"></path>
            <path d="M51.1580619,255.035388 C51.1305232,255.513224 51.1043615,255.98142 51.0768228,256.460633 C51.0919691,255.98142 51.1222616,255.511847 51.1580619,255.035388" id="Fill-225" fill="#C7C7C7"></path>
            <path d="M98.5318857,258.543145 C97.6368786,257.875276 96.5697549,258.19062 96.0699279,259.13803 C96.1663132,258.78826 96.2654525,258.387538 96.6386016,258.245702 C96.6386016,258.236063 96.6468632,258.227801 96.6468632,258.218161 C97.2623526,257.931735 98.0540896,258.021243 98.5318857,258.543145" id="Fill-227" fill="#C7C7C7"></path>
            <path d="M98.847892,259.345414 C98.6950523,259.094791 98.5904054,258.831774 98.5325741,258.542594 C98.6578751,258.776692 98.7666529,259.057611 98.847892,259.345414" id="Fill-229" fill="#C7C7C7"></path>
            <path d="M142.244855,220.984955 C140.874806,216.214856 141.243824,202.130397 137.745035,199.767381 L56.5596359,200.037283 C54.954131,200.217676 55.0532702,201.859119 54.7283138,202.96902 C42.6732576,296.018988 40.4646556,398.368168 68.6229538,487.785479 C68.6325923,487.785479 82.3826542,487.964496 82.3826542,487.964496 C79.4167386,415.374725 77.7217329,337.202397 97.4132646,264.629152 C116.123042,337.301545 119.215636,412.75007 112.679331,486.98266 C112.570553,488.97525 126.817688,487.081807 127.763642,487.567906 C154.922286,403.56102 149.367734,308.481283 142.244855,220.984955" id="Fill-231" fill="#C7C7C7"></path>
            <path d="M84.0605858,96.6148302 C84.1955253,96.6148302 109.12216,96.5377154 109.498063,96.6148302 C109.873966,96.6919449 106.760718,100.127683 106.760718,100.127683 C106.760718,100.127683 92.9693481,101.470306 92.7807082,101.393191 C92.5934452,101.316076 83.7383833,97.1835515 83.7383833,97.1835515 L84.0605858,96.6148302 Z" id="Fill-233" fill="#883434"></path>
            <polygon id="Fill-235" fill="#E0B094" points="96.5667256 94.9385482 88.0297355 94.1164499 87.7736258 102.747794 96.6149183 103.649761 96.871028 103.648384 105.705436 102.688581 105.392872 94.0599909 96.8627664 94.9371712"></polygon>
            <path d="M53.8178851,224.898942 C53.6375068,226.441237 53.4571284,227.991794 53.2863886,229.534089 C53.3097965,229.395007 53.779331,225.038024 53.8178851,224.898942" id="Fill-237" fill="#C7C7C7"></path>
            <path d="M54.5035982,219.398181 C54.3232199,221.047886 54.1070412,222.744411 53.8729625,224.475361 C54.0671102,222.780214 54.2819118,221.085066 54.5035982,219.398181" id="Fill-239" fill="#C7C7C7"></path>
            <path d="M141.334564,229.163938 C140.428542,222.48525 139.419249,215.794168 138.133193,209.191217 C139.45918,215.801053 140.507027,222.475611 141.334564,229.163938" id="Fill-241" fill="#C7C7C7"></path>
            <path d="M142.334907,238.13624 C142.10909,235.818666 141.857111,233.49283 141.577593,231.183519 C141.866749,233.501092 142.10909,235.818666 142.334907,238.13624" id="Fill-243" fill="#C7C7C7"></path>
            <path d="M142.650913,232.554784 L144.391358,216.737997 C153.002702,215.213604 163.145197,201.751571 163.018519,173.904883 C162.938657,155.473079 148.070525,143.137473 135.762113,139.368489 C135.752474,139.530981 135.744213,139.701735 135.744213,139.864227 C135.689135,142.380096 141.334564,203.645014 141.937661,218.199047 C142.120794,222.593211 51.292726,223.121997 51.022847,218.730588 C49.9942774,202.148161 55.1977106,151.577407 55.1440102,150.361473 C55.4317893,146.518129 55.4496895,142.893735 55.3051114,139.35885 C42.5739806,141.38862 24.0184194,157.051178 22.7103322,173.482129 C20.5017303,201.246194 32.7275263,214.79085 41.3388709,216.323506 L43.0793154,232.140292 C-0.192209257,219.128555 -2.78910658,184.743637 1.45735755,161.559637 C6.44598906,134.364292 42.3949792,110.457342 46.8397218,107.493932 C47.1674321,107.274981 47.503404,107.078063 47.857276,106.904555 C61.0992493,100.440686 81.8331199,94.9035712 84.9078132,97.3822597 C88.7494588,100.475112 96.7921297,100.990129 96.7921297,100.990129 C96.7921297,100.990129 104.825162,100.421407 108.648907,97.3023909 C111.731862,94.7947843 128.467117,101.323374 141.189986,109.412161 C153.956917,116.103243 179.366855,135.238719 184.271494,161.975506 C188.517958,185.159506 185.922438,219.543047 142.650913,232.554784" id="Fill-245" fill="#FF3434"></path>
            <path d="M72.6404338,232.808299 C72.6404338,232.808299 66.7760723,245.492299 59.9574957,249.447184 L72.6404338,232.808299 Z" id="Fill-247" fill="#666666"></path>
            <path d="M120.083517,232.808299 C120.083517,232.808299 125.947879,245.492299 132.766455,249.447184 L120.083517,232.808299 Z" id="Fill-249" fill="#666666"></path>
            <path d="M51.0283547,218.778233 L51.5997823,221.904135 C55.438674,224.410365 138.374156,224.329119 141.780691,221.396004 C141.919761,221.276201 141.907652,218.30866 141.907652,218.30866 C141.907652,218.30866 80.8582507,220.207611 79.6300256,220.305381 C78.4031775,220.403152 51.0283547,218.778233 51.0283547,218.778233" id="Fill-251" fill="#883434"></path>
            <path d="M51.6335172,235.431853 C53.0104511,236.657427 54.2951304,238.494411 54.7577802,240.126214 C54.8844581,240.572378 54.6971951,242.48923 53.7250798,242.058214 C52.6648407,241.587263 51.9226733,240.347919 50.8954806,239.739263 C50.0417816,239.232509 49.1853287,238.735394 48.2930756,238.282345 C47.6555552,237.958738 46.9946269,237.680574 46.3598604,237.356968 C44.1512584,236.234673 37.9977408,233.046804 41.3615903,230.252771 L51.6335172,235.431853 Z" id="Fill-253" fill="#E0B094"></path>
            <path d="M42.1899538,227.059394 C41.6088876,227.58405 40.7634502,229.195197 41.2095768,229.790083 C42.4474404,231.441165 45.0870227,232.14346 46.9362449,232.965558 C49.3541408,234.041033 51.4842576,235.353361 53.7052519,236.671197 C54.7104137,237.266083 57.5124741,239.410148 58.3882041,238.385624 C60.11901,236.362738 55.6508595,231.563722 54.9995698,230.985361 L42.1899538,227.059394 Z" id="Fill-255" fill="#E0B094"></path>
            <path d="M51.677166,235.467519 C50.1666695,234.286011 46.7215809,232.69965 45.3845781,232.188765 C44.1659916,231.694404 42.7119494,230.854404 41.8169424,229.934535 C41.6930183,229.789945 41.5236554,229.649486 41.4740858,229.469092 C41.4135007,228.973355 41.6916414,228.494142 41.9601435,228.076896 C42.0923291,227.866207 42.2782152,227.688568 42.4434473,227.502666 C42.5783868,227.294732 42.4186625,227.017945 42.1529142,226.990404 C41.866512,226.96424 41.7054107,227.221748 41.5456864,227.392502 C41.2661688,227.734011 41.0348439,228.109945 40.8723657,228.507912 C40.7305415,228.870076 40.6314023,229.270797 40.7305415,229.650863 C40.7966343,229.920765 41.0086822,230.135584 41.1959452,230.34765 C42.8097117,232.024896 45.2923235,232.622535 47.4307019,233.580961 C48.2788931,233.961027 48.6740732,234.060174 50.8523826,235.121879 C51.3508327,235.365617 51.6468734,235.475781 51.677166,235.467519" id="Fill-257" fill="#CC957D"></path>
            <path d="M41.9101608,221.448332 C41.5356348,221.857315 41.1927782,222.478365 40.8939836,223.457447 C40.5648964,224.534299 40.9586995,225.919611 41.844068,226.904201 C42.634428,227.786889 45.0660933,227.950758 46.301203,228.223414 C49.2203028,228.867873 52.3032578,229.824922 54.8478317,231.084922 C55.4839751,231.397512 58.0822494,233.469971 59.3159822,231.477381 C60.297736,229.89102 56.4092747,226.380922 54.8106545,225.693774 L41.9101608,221.448332 Z" id="Fill-259" fill="#E0B094"></path>
            <path d="M55.4677273,231.454109 C54.9458694,231.228273 54.2987104,230.844076 53.9021535,230.61824 C52.9396767,230.194109 52.6188511,230.052273 51.5985431,229.668076 C49.5923504,228.929978 48.1135234,228.241453 45.9999298,227.807683 C44.8694671,227.59424 43.6687808,227.500601 42.6278187,227.024142 C42.1954615,226.835486 41.9310902,226.458174 41.705273,226.093256 C41.3183546,225.446043 41.102176,224.698306 41.1806612,223.961584 C41.2715388,223.355683 41.51801,222.764929 41.8126739,222.216863 C41.9696443,221.862961 42.6994193,221.339683 41.9861675,221.106961 C41.7121577,221.051879 41.5496795,221.283224 41.4174938,221.458109 C41.1696457,221.78447 40.9810058,222.146633 40.8254123,222.514306 C40.3228314,223.571879 40.2374615,224.767158 40.7290269,225.841256 L40.7813504,225.959683 C41.0168061,226.452666 41.3183546,226.941519 41.7507118,227.316076 C42.371709,227.79942 43.1978694,227.992207 43.9813448,228.160207 C45.559311,228.425978 47.142785,228.720666 48.6711816,229.168207 C51.1221239,229.873256 55.0023237,231.331552 55.4277962,231.448601 C55.4608426,231.454109 55.4649734,231.454109 55.4677273,231.454109" id="Fill-261" fill="#CC957D"></path>
            <path d="M141.588609,141.737427 C141.570708,141.650673 134.450583,125.528181 134.450583,125.528181 C134.450583,125.528181 135.729755,139.848115 135.742147,139.878411 C136.336983,139.939001 140.157974,141.090214 141.588609,141.737427" id="Fill-263" fill="#883434"></path>
            <path d="M49.0119727,141.196797 C49.0298729,141.11142 56.1499981,124.988929 56.1499981,124.988929 C56.1499981,124.988929 55.4945775,139.256535 55.3789151,139.257912 C54.7840796,139.319879 50.443984,140.550961 49.0119727,141.196797" id="Fill-265" fill="#883434"></path>
            <path d="M50.6680111,216.239919 C50.732727,216.385886 50.8249816,215.42746 50.6996806,215.460509 C49.6366876,215.737296 49.9671518,215.555525 48.879374,215.667066 C46.8773121,215.872247 44.0146666,215.844706 42.1255132,216.485033 C40.8656187,216.911919 39.922419,218.792968 40.3575301,219.948312 C40.7733642,221.054083 43.0067509,222.041427 44.1523599,222.331984 C47.8824739,223.275263 51.8081124,224.677099 55.4473487,225.890279 C56.7457974,226.32405 59.7364978,227.316902 60.1358086,227.023591 C63.7571448,224.374148 55.4377102,220.249886 52.2625006,219.547591 C51.3716244,219.35205 49.2690463,218.817755 48.9606131,217.994279 L50.6680111,216.239919 Z" id="Fill-267" fill="#E0B094"></path>
            <path d="M50.2934851,218.893906 C49.7785118,218.831938 49.5141405,218.694233 49.1437453,218.286627 C48.9275667,218.074561 48.5971026,217.679348 48.5764485,217.964397 C48.5736947,218.188856 48.7458114,218.389906 48.8945203,218.559283 C49.8859127,219.488791 49.8101813,219.096332 50.4931405,219.187217 C50.6872882,219.213381 50.962675,219.214758 51.1320379,219.271217 C51.1554457,219.121119 50.6363417,218.935217 50.2934851,218.893906" id="Fill-269" fill="#CC957D"></path>
            <path d="M43.4922578,221.754863 C42.7611059,221.478076 42.050608,221.129683 41.4406263,220.669748 C40.9779765,220.332371 40.5993197,219.860043 40.63512,219.302338 C40.6681664,218.427912 41.0000075,217.305617 41.7779751,216.764437 C42.1841706,216.493158 42.1648936,216.462863 42.7445827,216.303125 C42.5614505,216.246666 42.2750483,216.25906 41.6747051,216.520699 C40.4574955,217.228502 39.719459,218.434797 39.8998373,219.719584 C40.2137782,221.153092 41.9790075,221.902207 43.3352874,222.444765 C46.9029231,223.421092 52.8801931,225.420568 54.8450778,225.691847 C54.8271777,225.468765 47.9838162,222.981814 43.4922578,221.754863" id="Fill-271" fill="#CC957D"></path>
            <path d="M140.408025,235.431853 C139.031092,236.657427 137.746412,238.494411 137.283762,240.126214 C137.157085,240.572378 137.344348,242.48923 138.316463,242.058214 C139.376702,241.587263 140.118869,240.347919 141.144685,239.739263 C141.999761,239.232509 142.856214,238.735394 143.748467,238.282345 C144.384611,237.958738 145.046916,237.680574 145.681682,237.356968 C147.890284,236.234673 154.042425,233.046804 150.678575,230.252771 L140.408025,235.431853 Z" id="Fill-273" fill="#E0B094"></path>
            <path d="M149.851589,227.059394 C150.432655,227.58405 151.276715,229.195197 150.831966,229.790083 C149.594102,231.441165 146.95452,232.14346 145.105298,232.965558 C142.687402,234.041033 140.557285,235.353361 138.336291,236.671197 C137.331129,237.266083 134.529069,239.410148 133.651962,238.385624 C131.921156,236.362738 136.390683,231.563722 137.041973,230.985361 L149.851589,227.059394 Z" id="Fill-275" fill="#E0B094"></path>
            <path d="M140.363688,235.467519 C141.874185,234.286011 145.319273,232.69965 146.657653,232.188765 C147.87624,231.694404 149.330282,230.854404 150.223912,229.934535 C150.347836,229.789945 150.517199,229.649486 150.566768,229.469092 C150.627353,228.973355 150.349213,228.494142 150.080711,228.076896 C149.948525,227.866207 149.764016,227.688568 149.597407,227.502666 C149.462467,227.294732 149.622192,227.017945 149.889317,226.990404 C150.174342,226.96424 150.33682,227.221748 150.495168,227.392502 C150.774685,227.734011 151.007387,228.109945 151.168488,228.507912 C151.310313,228.870076 151.409452,229.270797 151.31169,229.650863 C151.24422,229.920765 151.033549,230.135584 150.846286,230.34765 C149.231143,232.024896 146.749908,232.622535 144.610152,233.580961 C143.763338,233.961027 143.366781,234.060174 141.189849,235.121879 C140.691398,235.365617 140.393981,235.475781 140.363688,235.467519" id="Fill-277" fill="#CC957D"></path>
            <path d="M150.131244,221.448332 C150.50577,221.857315 150.848627,222.478365 151.147421,223.457447 C151.476509,224.534299 151.082706,225.919611 150.197337,226.904201 C149.406977,227.786889 146.975312,227.950758 145.740202,228.223414 C142.821102,228.867873 139.73677,229.824922 137.193573,231.084922 C136.55743,231.397512 133.959156,233.469971 132.725423,231.477381 C131.743669,229.89102 135.63213,226.380922 137.229374,225.693774 L150.131244,221.448332 Z" id="Fill-279" fill="#E0B094"></path>
            <path d="M136.573127,231.454109 C137.094985,231.228273 137.743521,230.844076 138.138701,230.61824 C139.101178,230.194109 139.42338,230.052273 140.442311,229.668076 C142.449881,228.929978 143.927331,228.241453 146.040924,227.807683 C147.172764,227.59424 148.372073,227.500601 149.414412,227.024142 C149.845393,226.835486 150.109764,226.458174 150.336958,226.093256 C150.723877,225.446043 150.940055,224.698306 150.860193,223.961584 C150.769315,223.355683 150.522844,222.764929 150.22818,222.216863 C150.07121,221.862961 149.342812,221.339683 150.056064,221.106961 C150.328697,221.051879 150.492552,221.283224 150.62336,221.458109 C150.871208,221.78447 151.061225,222.146633 151.216819,222.514306 C151.718023,223.571879 151.80477,224.767158 151.313204,225.841256 L151.259504,225.959683 C151.024048,226.452666 150.7225,226.941519 150.290142,227.316076 C149.669145,227.79942 148.842985,227.992207 148.059509,228.160207 C146.481543,228.425978 144.898069,228.720666 143.369673,229.168207 C140.91873,229.873256 137.038531,231.331552 136.614435,231.448601 C136.580012,231.454109 136.575881,231.454109 136.573127,231.454109" id="Fill-281" fill="#CC957D"></path>
            <path d="M142.291946,216.26085 C142.227231,216.406817 142.134976,215.448391 142.260277,215.48144 C143.32327,215.758227 142.074391,215.555801 143.162169,215.667342 C145.164231,215.872522 148.026876,215.844981 149.914652,216.485309 C151.175924,216.912194 152.119124,218.791866 151.684013,219.948588 C151.268179,221.052981 149.034792,222.041702 147.889183,222.33226 C144.159069,223.275538 140.232053,224.677374 136.594194,225.890555 C135.295745,226.324325 132.305045,227.317178 131.904357,227.023866 C128.284398,224.374424 136.603833,220.248784 139.777665,219.547866 C140.668541,219.352325 142.772496,218.81803 143.079553,217.994555 L142.291946,216.26085 Z" id="Fill-283" fill="#E0B094"></path>
            <path d="M148.549285,221.754863 C149.280437,221.478076 149.990935,221.129683 150.599539,220.669748 C151.063566,220.332371 151.442223,219.860043 151.406423,219.302338 C151.373376,218.427912 151.041535,217.305617 150.263568,216.764437 C149.857372,216.493158 149.875272,216.462863 149.29696,216.303125 C149.480092,216.246666 149.766494,216.25906 150.366838,216.520699 C151.584047,217.228502 152.320707,218.434797 152.141705,219.719584 C151.827764,221.153092 150.062535,221.902207 148.704878,222.444765 C145.13862,223.421092 139.159973,225.420568 137.195088,225.691847 C137.214365,225.468765 144.057726,222.981814 148.549285,221.754863" id="Fill-285" fill="#CC957D"></path>
            <path d="M53.7069042,143.56367 C54.399502,143.78262 101.040384,152.959276 137.98352,144.000194" id="Stroke-287" stroke="#FFFFFF" stroke-width="3"></path>
            <path d="M53.7069042,156.862109 C54.399502,157.08106 101.040384,166.256338 137.98352,157.298633" id="Stroke-289" stroke="#FFFFFF" stroke-width="3"></path>
            <path d="M51.1433287,170.646647 C51.8717267,170.865597 100.922243,180.040876 139.775187,171.083171" id="Stroke-291" stroke="#FFFFFF" stroke-width="3"></path>
            <path d="M51.0283547,182.962148 C51.7567528,183.181099 102.71983,192.366017 141.572774,183.408312" id="Stroke-293" stroke="#FFFFFF" stroke-width="3"></path>
            <polygon id="Fill-295" fill="#AA5D48" points="88.0992706 92.1482335 87.9822312 95.7423318 105.379791 95.2920368 105.368776 92.13584"></polygon>
            <path d="M65.4068493,55.8782728 C65.4068493,60.1608958 62.7590054,63.6324368 59.4929182,63.6324368 C56.226831,63.6324368 53.5789871,60.1608958 53.5789871,55.8782728 C53.5789871,51.5956499 56.226831,48.1241089 59.4929182,48.1241089 C62.7590054,48.1241089 65.4068493,51.5956499 65.4068493,55.8782728" id="Fill-297" fill="#E0B094"></path>
            <path d="M127.448186,55.8782728 C127.448186,60.1608958 130.09603,63.6324368 133.362117,63.6324368 C136.628204,63.6324368 139.276048,60.1608958 139.276048,55.8782728 C139.276048,51.5956499 136.628204,48.1241089 133.362117,48.1241089 C130.09603,48.1241089 127.448186,51.5956499 127.448186,55.8782728" id="Fill-299" fill="#E0B094"></path>
            <path d="M96.4193937,0.0123515073 C111.936062,-0.318140296 109.310249,6.09064659 111.841053,6.4073679 C114.172202,6.69792528 117.876155,2.45799085 129.248252,11.31104 C140.609333,20.157204 133.149105,32.5795646 134.504008,32.6690728 C135.860288,32.7599581 139.020352,35.4273023 139.020352,43.287499 C139.020352,51.1476958 129.895411,55.6644171 129.895411,55.6644171 C129.895411,55.6644171 136.76218,74.0934663 126.101958,84.5741876 C115.443112,95.0535318 96.5625948,93.7894007 96.5625948,93.7894007 L96.2927158,93.7894007 C96.2927158,93.7894007 77.4121982,95.0535318 66.7533529,84.5741876 C56.0931307,74.0934663 62.9585231,55.6644171 62.9585231,55.6644171 C62.9585231,55.6644171 53.8349591,51.1476958 53.8349591,43.287499 C53.8349591,35.4273023 56.5846961,32.9857941 57.939599,32.8962859 C59.294502,32.8054007 52.2446004,20.157204 63.607059,11.31104 C74.979156,2.45799085 78.6844851,6.69792528 81.0142573,6.4073679 C83.5450618,6.09064659 80.9192488,-0.318140296 96.4359169,0.0123515073 L96.4193937,0.0123515073 Z" id="Fill-301" fill="#383838"></path>
            <path d="M96.4187052,68.1432368 C96.9336785,68.0798925 120.02486,72.21104 120.02486,60.0186466 C120.02486,53.7076302 119.509887,48.9733351 119.012814,45.8735974 C118.587341,43.2255318 118.828304,40.541663 119.589749,37.9610728 C120.502656,34.8682204 120.684411,30.7054007 115.686141,29.5555646 C109.945704,28.2335974 110.844842,29.986581 106.558446,34.4578597 C103.235905,37.9252695 89.6194057,37.9252695 86.2954872,34.4578597 C82.0104689,29.986581 82.9082298,28.2335974 77.1691694,29.5555646 C72.1708993,30.7054007 72.3512777,34.8682204 73.2655618,37.9610728 C74.0270062,40.541663 74.2679696,43.2255318 73.8424971,45.8735974 C73.3454239,48.9733351 72.8304507,53.7076302 72.8304507,60.0186466 C72.8304507,72.21104 95.9216321,68.0798925 96.4366054,68.1432368 L96.4187052,68.1432368 Z" id="Fill-303" fill="#E0B094"></path>
            <path d="M95.704765,59.2698072 L94.0579521,64.24784 C93.89272,64.7449548 94.2631152,65.2572171 94.7863501,65.2572171 L98.0813529,65.2572171 C98.6045878,65.2572171 98.974983,64.7449548 98.8097509,64.24784 L97.162938,59.2698072 C96.9302362,58.5675122 95.9374668,58.5675122 95.704765,59.2698072" id="Fill-305" fill="#DF715C"></path>
            <path d="M82.6024128,52.4699384 C82.6024128,54.9444958 81.4210035,56.9508564 79.9628305,56.9508564 C78.5046576,56.9508564 77.3246252,54.9444958 77.3246252,52.4699384 C77.3246252,49.995381 78.5046576,47.9903974 79.9628305,47.9903974 C81.4210035,47.9903974 82.6024128,49.995381 82.6024128,52.4699384" id="Fill-307" fill="#383838"></path>
            <path d="M86.1723893,55.2576368 C86.1723893,55.2576368 86.804402,57.5352761 83.8949407,59.1175056" id="Stroke-309" stroke="#383838" stroke-linecap="round"></path>
            <path d="M110.252622,52.4699384 C110.252622,54.9444958 111.434032,56.9508564 112.892205,56.9508564 C114.350378,56.9508564 115.531787,54.9444958 115.531787,52.4699384 C115.531787,49.995381 114.350378,47.9903974 112.892205,47.9903974 C111.434032,47.9903974 110.252622,49.995381 110.252622,52.4699384" id="Fill-311" fill="#383838"></path>
            <path d="M106.682508,55.2576368 C106.682508,55.2576368 106.050496,57.5352761 108.959957,59.1175056" id="Stroke-313" stroke="#383838" stroke-linecap="round"></path>
            <path d="M101.828954,76.8729023 C101.828954,79.160181 91.0475615,79.160181 91.0475615,76.8729023" id="Stroke-315" stroke="#DF715C"></path>
        </g>
    </g>
</svg>