<?xml version="1.0" encoding="UTF-8"?>
<svg width="500px" height="500px" viewBox="0 0 500 500" version="1.1" xmlns="http://www.w3.org/2000/svg" xmlns:xlink="http://www.w3.org/1999/xlink">
    <!-- Generator: Sketch 62 (91390) - https://sketch.com -->
    <title>No Backup</title>
    <desc>Created with Sketch.</desc>
    <defs>
        <polygon id="path-1" points="0 0.9036 266.700509 0.9036 266.700509 352.9996 0 352.9996"></polygon>
    </defs>
    <g id="No-Backup" stroke="none" stroke-width="1" fill="none" fill-rule="evenodd">
        <g id="Group-56" transform="translate(51.000000, 73.000000)">
            <g id="Group-4" transform="translate(49.000000, 301.097000)">
                <path d="M269.1725,0.873 L272.2465,9.749 C272.9175,11.671 271.0805,13.258 268.1565,13.258 L4.8625,13.258 C1.9395,13.258 0.1025,11.671 0.7735,9.749 L3.8555,0.852" id="Fill-1" fill="#EDEDED"></path>
                <path d="M269.1725,0.873 L272.2465,9.749 C272.9175,11.671 271.0805,13.258 268.1565,13.258 L4.8625,13.258 C1.9395,13.258 0.1025,11.671 0.7735,9.749 L3.8555,0.852" id="Stroke-3" stroke="#B5B5B5" stroke-width="2.855"></path>
            </g>
            <path d="M126.859,144.7542 C126.81,144.7022 126.762,144.6502 126.714,144.5982 C126.762,144.6502 126.81,144.7032 126.859,144.7542" id="Fill-5" fill="#5600B7"></path>
            <path d="M126.8687,144.764 C126.8647,144.761 126.8617,144.758 126.8587,144.754 C126.8617,144.758 126.8647,144.761 126.8687,144.764" id="Fill-7" fill="#5600B7"></path>
            <path d="M135.7047,146.3255 C135.6387,146.3595 135.5697,146.3915 135.5027,146.4225 C135.5697,146.3915 135.6387,146.3585 135.7047,146.3255" id="Fill-9" fill="#5600B7"></path>
            <path d="M124.9312,141.0365 C125.2002,142.3855 125.8262,143.6045 126.7072,144.5905 C125.7982,143.5755 125.1902,142.3545 124.9292,141.0365 L124.9312,141.0365 Z" id="Fill-11" fill="#5600B7"></path>
            <path d="M135.7066,146.3245 C135.7066,146.3245 135.7056,146.3245 135.7046,146.3255 C135.7056,146.3245 135.7066,146.3245 135.7066,146.3245" id="Fill-13" fill="#5600B7"></path>
            <path d="M126.7144,144.598 C126.7124,144.596 126.7104,144.593 126.7074,144.591 C126.7104,144.593 126.7124,144.596 126.7144,144.598" id="Fill-15" fill="#5600B7"></path>
            <path d="M135.4967,146.4251 C135.4967,146.4251 135.4957,146.4251 135.4947,146.4261 C135.4977,146.4251 135.4997,146.4241 135.5027,146.4231 C135.5007,146.4241 135.4987,146.4251 135.4967,146.4251" id="Fill-17" fill="#5600B7"></path>
            <path d="M136.3102,145.9896 C136.2442,146.0306 136.1762,146.0706 136.1092,146.1096 C136.1762,146.0706 136.2442,146.0306 136.3102,145.9896" id="Fill-19" fill="#5600B7"></path>
            <path d="M135.9254,146.2113 C135.9194,146.2143 135.9134,146.2173 135.9074,146.2203 C135.9134,146.2173 135.9194,146.2143 135.9254,146.2113" id="Fill-21" fill="#5600B7"></path>
            <path d="M136.109,146.1092 C136.048,146.1442 135.987,146.1782 135.925,146.2112 C135.987,146.1782 136.048,146.1442 136.109,146.1092" id="Fill-23" fill="#5600B7"></path>
            <path d="M135.9078,146.2205 C135.8418,146.2565 135.7738,146.2905 135.7068,146.3245 C135.7748,146.2905 135.8418,146.2565 135.9078,146.2205" id="Fill-25" fill="#5600B7"></path>
            <path d="M280.8053,201.6829 L90.2483,201.6829 C88.1463,201.6829 86.4253,199.9619 86.4253,197.8589 L86.4253,81.4449 C86.4253,79.3419 88.1463,77.6209 90.2483,77.6209 L280.8053,77.6209 C282.9093,77.6209 284.6293,79.3419 284.6293,81.4449 L284.6293,197.8589 C284.6293,199.9619 282.9093,201.6829 280.8053,201.6829 Z" id="Stroke-27" stroke="#B5B5B5" stroke-width="3.807"></path>
            <path d="M314.3277,305.4261 L56.7597,305.4261 C53.8997,305.4261 52.1017,303.8391 52.7597,301.9161 L86.1407,203.3991 C86.6187,202.4511 88.7267,201.6831 90.8297,201.6831 L280.2567,201.6831 C282.3597,201.6831 284.4687,202.4511 284.9467,203.3991 L318.3277,301.9161 C318.9847,303.8391 317.1867,305.4261 314.3277,305.4261" id="Fill-29" fill="#EDEDED"></path>
            <path d="M314.3277,305.4261 L56.7597,305.4261 C53.8997,305.4261 52.1017,303.8391 52.7597,301.9161 L86.1407,203.3991 C86.6187,202.4511 88.7267,201.6831 90.8297,201.6831 L280.2567,201.6831 C282.3597,201.6831 284.4687,202.4511 284.9467,203.3991 L318.3277,301.9161 C318.9847,303.8391 317.1867,305.4261 314.3277,305.4261 Z" id="Stroke-31" stroke="#B5B5B5" stroke-width="2.855"></path>
            <path d="M245.8072,294.0755 L125.2802,294.0755 C122.1822,294.0755 120.0252,292.4245 120.4822,290.4305 L127.5052,259.7715 C127.8652,258.2065 130.3622,256.9405 133.0602,256.9405 L238.0272,256.9405 C240.7252,256.9405 243.2222,258.2065 243.5802,259.7715 L250.6052,290.4305 C251.0612,292.4245 248.9052,294.0755 245.8072,294.0755" id="Fill-33" fill="#666666"></path>
            <path d="M283.7066,246.0286 L88.1106,246.0286 C85.5296,246.0286 83.7376,244.9416 84.1256,243.6226 L93.7876,210.7466 C94.1026,209.6746 96.2436,208.8026 98.5476,208.8026 L273.1506,208.8026 C275.4546,208.8026 277.5986,209.6746 277.9166,210.7466 L287.6846,243.6226 C288.0756,244.9416 286.2876,246.0286 283.7066,246.0286" id="Fill-35" fill="#D3D3D3"></path>
            <path d="M283.7066,246.0286 L88.1106,246.0286 C85.5296,246.0286 83.7376,244.9416 84.1256,243.6226 L93.7876,210.7466 C94.1026,209.6746 96.2436,208.8026 98.5476,208.8026 L273.1506,208.8026 C275.4546,208.8026 277.5986,209.6746 277.9166,210.7466 L287.6846,243.6226 C288.0756,244.9416 286.2876,246.0286 283.7066,246.0286 Z" id="Stroke-37" stroke="#B5B5B5" stroke-width="1.904"></path>
            <line x1="86.3902" y1="237.2464" x2="285.7892" y2="237.2464" id="Stroke-39" stroke="#B5B5B5" stroke-width="1.904"></line>
            <line x1="88.3082" y1="229.3919" x2="283.4562" y2="229.3919" id="Stroke-41" stroke="#B5B5B5" stroke-width="1.904"></line>
            <line x1="90.5094" y1="222.055" x2="281.2574" y2="222.055" id="Stroke-43" stroke="#B5B5B5" stroke-width="1.904"></line>
            <line x1="92.483" y1="215.1849" x2="279.236" y2="215.1849" id="Stroke-45" stroke="#B5B5B5" stroke-width="1.904"></line>
            <g id="Group-49" transform="translate(0.000000, 0.097000)">
                <mask id="mask-2" fill="white">
                    <use xlink:href="#path-1"></use>
                </mask>
                <g id="Clip-48"></g>
                <path d="M12.6353,198.6436 C1.4173,252.2646 26.8233,306.5896 74.7483,332.4636 C71.7733,324.2116 70.1473,315.4876 69.9823,306.6886 L69.9813,304.9746 C69.9693,272.9866 88.7323,244.1346 117.8783,231.1486 L118.1863,230.7986 L119.2333,230.3536 C132.3993,224.7486 140.9753,211.8836 141.0803,197.5776 L141.0803,169.8806 L165.5693,182.9106 C189.8403,195.7786 205.7293,219.7866 208.0893,247.1496 C208.3703,249.1186 208.3703,250.9986 208.3703,252.6646 L208.3703,254.2846 C208.3733,257.9346 208.1363,261.5486 207.6593,265.1166 L218.9193,249.4526 L228.4623,282.3406 C230.0053,287.6576 231.0013,293.1106 231.4373,298.6186 C247.2073,277.9636 256.0743,252.8426 256.6603,226.5946 C256.6613,226.1226 256.6713,225.6406 256.6823,225.1576 C256.6913,224.7256 256.70049,224.2936 256.70049,223.8736 L256.70049,223.8656 C256.7863,174.5426 227.6323,130.0936 182.3893,110.5146 L182.1003,110.5146 L181.1543,110.1076 C143.4273,93.8676 118.1533,58.1746 114.9953,17.6896 C81.9343,38.1896 60.4873,72.8876 57.1023,112.0056 C56.9003,114.2206 56.6703,117.0936 56.6703,119.8746 L56.6703,122.6546 C56.6313,147.0886 63.7843,170.7246 77.3573,191.0136 L92.3223,213.2416 L65.6183,216.6736 C63.0223,217.0196 60.2933,217.2036 57.5313,217.2146 L57.3323,217.2146 C40.4603,217.2156 24.3753,210.4176 12.6353,198.6436 L12.6353,198.6436 Z M96.6883,352.9996 L83.1713,347.4836 C19.7243,321.5876 -13.7367,252.4236 5.3373,186.6026 L8.2023,176.7176 L14.2023,185.0796 C24.1543,198.9486 40.2663,207.2146 57.3263,207.2146 L57.4943,207.2146 C59.8243,207.2056 62.1233,207.0516 64.3213,206.7586 L74.9803,205.3886 L69.0533,196.5866 C54.3653,174.6286 46.6283,149.0646 46.6703,122.6466 L46.6703,119.8746 C46.6703,116.6896 46.9223,113.5226 47.1413,111.1206 C51.0503,65.9376 77.2813,26.1916 117.3063,4.8236 L124.6493,0.9036 L124.6603,9.2266 C124.7173,48.8086 148.0403,84.5276 184.1743,100.5146 L184.3503,100.5146 L185.9723,101.1696 C235.1063,122.2506 266.7943,170.4186 266.700509,223.8826 C266.700509,224.3706 266.6903,224.8716 266.6793,225.3716 C266.6703,225.8026 266.6603,226.2346 266.6603,226.6546 L266.6593,226.7636 C265.9303,260.0426 252.8873,291.6496 229.9323,315.7616 L219.8393,326.3646 L221.3373,311.8026 C221.5723,309.5226 221.6913,307.2116 221.6913,304.9346 C221.6813,298.2336 220.7283,291.5676 218.8593,285.1276 L215.0423,271.9776 L207.0603,283.0816 C204.9433,286.0296 202.1033,288.4486 198.8473,290.0766 L186.2183,296.3936 L192.0583,283.5366 C196.2563,274.2956 198.3793,264.4556 198.3703,254.2896 L198.3703,252.6646 C198.3703,251.1696 198.3703,249.7586 198.1763,248.4686 L198.1383,248.1446 C196.1123,224.1226 182.1833,203.0376 160.8783,191.7426 L151.0803,186.5286 L151.0803,197.6146 C150.9483,215.5506 140.4443,231.6876 124.2183,239.0836 L123.9103,239.4336 L122.8713,239.8796 C96.8063,251.0556 79.9713,276.6066 79.9813,304.9726 L79.9813,306.5946 C80.2023,318.3646 83.4573,330.0706 89.3923,340.3556 L96.6883,352.9996 Z" id="Fill-47" fill="#FF3434" mask="url(#mask-2)"></path>
            </g>
            <path d="M261.6608,226.751 C260.9608,258.711 248.3498,289.261 226.3108,312.411 C226.5608,309.982 226.6908,307.522 226.6908,305.032 C226.6798,297.862 225.6608,290.721 223.6608,283.831 L216.9808,260.812 L203.0008,280.261 C201.3408,282.572 199.1508,284.431 196.6108,285.701 C201.0808,275.862 203.3808,265.181 203.3708,254.381 L203.3708,252.761 C203.3708,251.141 203.3708,249.482 203.1208,247.822 C200.9608,222.211 185.9298,199.461 163.2208,187.421 L146.0808,178.302 L146.0808,197.711 C145.9608,214.001 136.1798,228.671 121.1908,235.051 L120.9008,235.381 C93.0308,247.331 74.9708,274.751 74.9808,305.072 L74.9808,306.692 C75.2208,319.431 78.6908,331.911 85.0608,342.951 C24.1508,318.091 -8.1692,251.272 10.1398,188.091 C21.0908,203.352 38.7308,212.371 57.5108,212.312 C60.0108,212.301 62.5108,212.141 64.9808,211.812 L83.6508,209.411 L73.2008,193.891 C59.1208,172.841 51.6308,148.072 51.6708,122.751 L51.6708,119.971 C51.6708,117.231 51.8708,114.411 52.1208,111.671 C55.8708,68.331 81.2808,29.822 119.6608,9.331 C119.7208,51.211 144.6608,89.052 183.1308,105.612 L183.3808,105.612 L184.0008,105.862 C231.2208,126.121 261.7908,172.591 261.701195,223.971 C261.701195,224.881 261.6608,225.841 261.6608,226.751 Z" id="Fill-50" fill-opacity="0.55" fill="#FF3434"></path>
            <path d="M347.6734,255.0667 C360.7034,261.1407 369.0564,274.1967 369.0524,288.6497 L369.0524,289.3327 C369.0234,290.8967 368.8964,292.4517 368.6744,293.9857 C382.6464,283.6587 390.2234,266.6107 388.3534,249.1607 C383.4414,252.5637 377.5864,254.4537 371.4214,254.4327 C370.1194,254.4267 368.8424,254.3407 367.6164,254.1767 L351.7144,252.1327 L360.6564,238.8517 C366.0664,230.7647 368.9214,221.3297 368.9064,211.5787 L368.9064,210.3947 C368.9064,209.3397 368.8164,208.2077 368.7364,207.3387 C367.5174,193.2447 360.4434,180.5987 349.3974,172.2437 C346.5204,188.3967 335.7314,202.2777 320.3074,208.9177 L319.2504,209.3247 C301.4914,217.2617 290.0804,234.8537 290.114324,254.3527 L290.114324,254.3617 C290.114324,254.5197 290.1184,254.6817 290.1214,254.8447 C290.1264,255.0567 290.1304,255.2697 290.1314,255.4767 C290.3174,263.5837 292.4814,271.4197 296.3674,278.3687 C296.3764,278.3377 296.3864,278.3047 296.3954,278.2737 L302.0834,258.6727 L305.0264,262.7667 C306.4514,250.7127 313.6254,240.2087 324.4054,234.4927 L338.9934,226.7307 L338.9934,243.2597 C339.0294,248.1217 341.9664,252.5267 346.4744,254.4457 L347.5184,254.8897 L347.6734,255.0667 Z M348.1614,314.8077 L355.4594,302.1627 C357.7254,298.2367 358.9674,293.7677 359.0534,289.2377 L359.0524,288.6477 C359.0554,277.8097 352.6244,268.0497 342.6684,263.7817 L341.6334,263.3377 L341.4654,263.1467 C333.9364,259.4547 329.0874,251.8267 328.9944,243.3787 C320.9104,247.7087 315.6334,255.7297 314.8624,264.8647 L314.8234,265.1937 C314.7744,265.5237 314.7744,266.0137 314.7744,266.5327 L314.7744,267.2177 C314.7714,271.1037 315.5814,274.8617 317.1854,278.3907 L323.0234,291.2437 L310.3964,284.9297 C308.6484,284.0557 307.1164,282.7677 305.9594,281.1987 C305.2704,283.6197 304.9184,286.1217 304.9154,288.6367 C304.9154,289.4977 304.9604,290.3737 305.0504,291.2347 L306.5604,305.8107 L296.4554,295.1977 C286.2534,284.4827 280.4564,270.4367 280.1324,255.6467 L280.1314,255.5377 C280.1314,255.3787 280.1274,255.2167 280.1244,255.0537 C280.1194,254.8247 280.114306,254.5937 280.114306,254.3707 C280.0724,230.6107 294.1554,209.2047 315.9914,199.8357 L317.2684,199.3247 C331.1884,192.9117 340.1414,179.0037 340.1634,163.6137 L340.1754,155.2907 L347.5184,159.2107 C365.3034,168.7057 376.9584,186.3667 378.6974,206.4547 C378.7944,207.5117 378.9064,208.9367 378.9064,210.3947 L378.9064,211.5707 C378.9254,223.2487 375.5194,234.5567 369.0574,244.2797 C369.8404,244.3787 370.6414,244.4287 371.4604,244.4327 L371.5224,244.4327 C377.8004,244.4327 383.7354,241.3877 387.4014,236.2787 L393.4014,227.9167 L396.2664,237.8017 C404.7414,267.0497 389.8734,297.7837 361.6804,309.2907 L348.1614,314.8077 Z" id="Fill-52" fill="#FF3434"></path>
            <path d="M285.114716,254.3616 C285.114716,254.7466 285.1318,255.1526 285.1318,255.5376 C285.4268,269.0486 290.7588,281.9636 300.0768,291.7506 C299.9698,290.7226 299.9158,289.6826 299.9158,288.6306 C299.9198,285.5986 300.3508,282.5806 301.1968,279.6686 L304.0208,269.9356 L309.9308,278.1586 C310.6328,279.1346 311.5578,279.9216 312.6328,280.4586 C310.7428,276.2986 309.7698,271.7836 309.7738,267.2176 L309.7738,266.5326 C309.7738,265.8476 309.7738,265.1466 309.8808,264.4446 C310.7938,253.6176 317.1468,244.0006 326.7478,238.9106 L333.9938,235.0546 L333.9938,243.2596 C334.0448,250.1466 338.1788,256.3486 344.5158,259.0466 L344.6388,259.1856 C356.4218,264.2376 364.0558,275.8296 364.0528,288.6476 L364.0528,289.3326 C363.9508,294.7176 362.4838,299.9946 359.7908,304.6616 C385.5408,294.1516 399.2038,265.9026 391.4638,239.1936 C386.8348,245.6446 379.3768,249.4586 371.4368,249.4326 C370.3808,249.4276 369.3238,249.3606 368.2798,249.2206 L360.3858,248.2066 L364.8038,241.6446 C370.7568,232.7466 373.9238,222.2746 373.9068,211.5706 L373.9068,210.3946 C373.9068,209.2366 373.8218,208.0446 373.7168,206.8856 C372.1308,188.5636 361.3878,172.2836 345.1638,163.6216 C345.1378,181.3266 334.5938,197.3236 318.3308,204.3246 L318.2248,204.3246 L317.9638,204.4296 C298.0008,212.9956 285.0768,232.6406 285.114716,254.3616" id="Fill-54" fill-opacity="0.55" fill="#FF3434"></path>
        </g>
    </g>
</svg>