<?xml version="1.0" encoding="UTF-8"?>
<svg width="700px" height="500px" viewBox="0 0 700 500" version="1.1" xmlns="http://www.w3.org/2000/svg" xmlns:xlink="http://www.w3.org/1999/xlink">
    <!-- Generator: Sketch 62 (91390) - https://sketch.com -->
    <title>Use Case: Client Data Horizontal</title>
    <desc>Created with Sketch.</desc>
    <defs>
        <polygon id="path-1" points="0 0.2502 94.1802836 0.2502 94.1802836 107.703473 0 107.703473"></polygon>
        <polygon id="path-3" points="0.471583333 0.47045 58.85225 0.47045 58.85225 39.5 0.471583333 39.5"></polygon>
    </defs>
    <g id="Use-Case:-Client-Data-Horizontal" stroke="none" stroke-width="1" fill="none" fill-rule="evenodd">
        <g id="Group-243" transform="translate(23.000000, 81.000000)">
            <path d="M209.993923,143.332462 C272.133031,97.9138275 352.54277,86.5326941 422.881916,113.182973 C438.759804,119.199557 444.109618,139.081367 433.468679,152.889104 L425.199417,163.619714 C418.299586,172.571218 406.596209,176.070429 396.223137,172.377574 C372.44769,163.914719 346.715912,161.283881 320.740344,164.941941 C294.66696,168.615128 270.241409,178.356338 249.03929,193.242733 C239.812929,199.720736 227.67615,199.586092 218.988533,192.819136 L208.589879,184.719364 C195.208571,174.298887 195.973045,153.580474 209.993923,143.332462" id="Fill-1" fill="#EEA8A8"></path>
            <path d="M418.103299,266.353948 C354.139413,308.910236 273.328274,316.880981 204.149941,287.474844 C188.535193,280.837321 184.009985,260.855533 195.212394,247.575973 L203.918188,237.253278 C211.182297,228.643006 223.021274,225.653036 233.231959,229.753524 C256.639033,239.152292 282.240238,242.834455 308.342572,240.279362 C334.545733,237.712231 359.353861,229.044779 381.152206,215.130208 C390.639039,209.076534 402.759431,209.714555 411.161237,216.800498 L421.215413,225.281359 C434.154466,236.193922 432.535203,256.750531 418.103299,266.353948" id="Fill-3" fill="#9ADAE6"></path>
            <path d="M150.669194,198 C150.669194,198 151.266196,200.302238 150.85619,200.79182 C150.446184,201.284406 150.026482,200.748269 149.939217,200.748269 C149.853338,200.748269 148,199.228461 148,199.228461 L150.669194,198 Z" id="Fill-5" fill="#2B5165"></path>
            <path d="M136.351837,227.824362 C136.351837,227.824362 138.077221,228.428261 138.990419,227.396474 C139.903617,226.361653 140.165701,226.46028 139.903617,226.361653 C139.640168,226.264544 137.533944,224.897427 137.533944,224.897427 C137.533944,224.897427 136.485609,223.874744 136.467864,224.012822 C136.450118,224.149382 135.936871,226.127984 136.006487,226.244819 C136.077468,226.361653 136.351837,227.824362 136.351837,227.824362" id="Fill-7" fill="#2B5165"></path>
            <path d="M214.760677,162.987296 C215.672996,165.799286 216.877744,168.567738 217.180835,171.480317 C217.531141,174.832786 216.722391,176.254545 214.690615,181.785443 C217.139712,183.178677 219.710655,182.081205 222.601443,182.37997 C225.732875,182.704257 229.488766,184.663492 232.617153,185 C233.049705,185.046331 240.435073,177.341508 242.756232,172.529747 C243.887873,170.187672 248.338284,162.24714 244.411809,162.57443 C239.999475,162.942256 236.112599,158.867647 231.502265,158.732528 C229.653258,158.67848 227.804251,158.625933 225.955243,158.571886 C225.205893,158.549366 224.439788,158.523843 223.742222,158.280628 C223.091871,158.052425 222.542043,157.647067 221.967845,157.291251 C220.260483,156.232814 214.023511,152.473485 214.002188,154.684943 C213.976295,157.483422 214.177341,161.188703 214.760677,162.987296" id="Fill-9" fill="#F1D5C3"></path>
            <polygon id="Fill-11" fill="#FFFFFF" points="230.179631 176 217 165.800239 233.621214 129 251 131.530197"></polygon>
            <polygon id="Stroke-13" stroke="#919191" stroke-width="0.944" stroke-linecap="round" stroke-linejoin="round" points="230.179631 176 217 165.800239 233.621214 129 251 131.530197"></polygon>
            <polygon id="Fill-15" fill="#FFFFFF" points="229.069017 176 215 166.93332 232.464881 129 250 131.807863"></polygon>
            <polygon id="Stroke-17" stroke="#B5B5B5" stroke-width="0.734" stroke-linecap="round" stroke-linejoin="round" points="229.069017 176 215 166.93332 232.464881 129 250 131.807863"></polygon>
            <path d="M244.969454,161.100908 C245.088708,160.999154 245.218804,160.907722 245.325668,160.79417 C246.346297,159.72796 247.114479,158.409576 246.985933,156.98059 C246.913141,156.165079 246.645207,155.426253 245.960657,154.833423 C245.859988,154.744941 245.736088,154.669731 245.615285,154.590097 C245.921938,154.209624 246.188324,153.815878 246.302932,153.327752 C246.457807,152.658237 246.453161,152.482747 246.361785,151.892866 C246.276603,151.335429 246.199165,151.123072 245.859988,150.553837 C245.640065,150.198433 245.339607,149.91529 244.958613,149.701459 C244.620984,149.433063 244.521864,149.09978 244.06653,149.006874 C243.601904,148.880049 243.052096,150.547938 241.11925,150.730801 C239.688201,150.866473 232.520565,151.170262 231.724505,151.574331 C231.317182,151.764567 230.990395,152.02559 230.742594,152.355923 C230.432843,152.649389 230.223762,152.992994 230.116897,153.388215 C229.912462,154.165383 229.955827,155.036932 230.468465,155.725618 C230.95942,156.386285 231.665652,156.920127 232.560832,157.122161 C232.985191,157.216542 233.290296,157.159029 233.725496,157.209169 C234.160696,157.260783 239.508545,156.735789 239.948392,156.734314 C239.966977,156.734314 239.985562,156.731365 240.004147,156.72989 C240.004147,156.743163 240.001049,156.756435 240.001049,156.768233 C239.929807,156.806575 239.857015,156.841968 239.781126,156.875886 C239.085735,157.082344 236.335147,158.080718 235.607233,158.183947 C234.956756,158.247359 233.623278,158.360911 232.966606,158.365335 C232.065231,158.369759 231.667201,158.446444 231.029114,159.000932 C230.420453,159.528875 229.963571,160.391576 230.00229,161.148099 C230.044106,161.93264 230.341467,162.746676 231.029114,163.293791 C231.710566,163.836481 234.736832,163.528268 235.681573,163.52237 C236.276295,163.517946 236.867919,163.484027 237.456446,163.435362 C235.430675,164.087181 236.062566,163.778968 233.926834,164.037041 C233.12303,164.134371 232.223204,164.856975 231.834466,165.432109 C231.39462,166.082453 231.208769,167.04101 231.48135,167.769513 C231.75548,168.505389 232.280508,169.214721 233.090506,169.584871 C233.369282,169.686626 233.648058,169.789855 233.926834,169.891609 C234.547884,170.03613 235.167386,170.03613 235.786888,169.891609 C237.989217,169.626163 237.447153,169.950597 239.52713,169.239791 C241.771276,168.471471 243.959666,167.414109 245.469702,165.737373 C246.065972,165.073757 246.494977,164.469129 246.494977,163.590206 C246.494977,162.846956 246.113984,161.956236 245.469702,161.443039 C245.314826,161.319164 245.146012,161.205612 244.969454,161.100908" id="Fill-19" fill="#F1D5C3"></path>
            <path d="M225.16405,152.625763 C225.750344,154.235703 228.686467,155.573417 228.971859,156.081279 C229.255699,156.590606 227.326203,157.806842 226.162921,157.972227 C225.322256,158.090777 224.483142,157.808306 223.685907,157.531689 C220.797866,156.523281 217.911376,155.5178 215.023336,154.510856 C214.691412,152.073993 217.971867,148.05207 220.315492,147.203193 C223.577334,146.020619 224.310977,150.285496 225.16405,152.625763" id="Fill-21" fill="#F1D5C3"></path>
            <path d="M119.282768,163 C117.259256,194.836676 126.759394,213.779597 126.759394,213.779597 C126.826994,212.821775 142.684593,242.087218 177.650626,237.514634 C212.941143,232.899947 227.968005,194.648721 232.6685,185.473479 C235.672971,179.609263 217.324666,175.720837 215.113376,181.397097 C213.232577,186.229812 212.478455,187.703384 211.392338,189.268679 C206.209626,196.741795 193.23632,217.997321 174.353219,214.406617 C148.232348,209.441581 131.269105,176.39447 126.445427,170.247569" id="Fill-23" fill="#F1D5C3"></path>
            <path d="M127.350301,78 C127.350301,78 134.583168,163 125.148927,163 C123.389337,163 97,154.230636 97,154.230636 L97.502094,84.5762715 L127.350301,78 Z" id="Fill-25" fill="#FF3434"></path>
            <path d="M100.609482,146.572862 C99.2746164,146.394833 77.0685388,143 73.4421036,143 C69.817175,143 74.1020033,146.804607 74.6519198,146.918177 C75.2003296,147.030213 100.488952,155.219556 105.213714,154.995485 C109.938475,154.772948 112.421386,153.063254 112.972809,152.013496 C113.363023,151.269149 109.497036,150.894674 104.998267,149.290877 C101.531534,148.05695 99.5879934,147.426174 100.609482,146.572862" id="Fill-27" fill="#2B5165"></path>
            <path d="M76.2208573,126.351219 C76.2208573,126.351219 86.2203947,133.102672 93.3523955,135.163484 C97.7145997,136.420444 100.17614,137 113.882273,137 C127.388415,137 135.385037,116.155545 135.385037,116.155545 L137,75.4631707 L136.603026,64 L72,65.196746 L76.2208573,126.351219 Z" id="Fill-29" fill="#F1D5C3"></path>
            <path d="M123,94.5 C123,96.9857427 123.895522,99 125,99 C126.105899,99 127,96.9857427 127,94.5 C127,92.0157493 126.105899,90 125,90 C123.895522,90 123,92.0157493 123,94.5" id="Fill-31" fill="#000000"></path>
            <path d="M98,94.5 C98,96.9857427 98.8952043,99 100.00071,99 C101.104796,99 102,96.9857427 102,94.5 C102,92.0157493 101.104796,90 100.00071,90 C98.8952043,90 98,92.0157493 98,94.5" id="Fill-33" fill="#000000"></path>
            <path d="M112.470966,98 C112.470966,98 116.280193,110.774043 114.548726,111.6986 C112.81726,112.624673 111,111.121131 111,111.121131 L112.470966,98 Z" id="Fill-35" fill="#FF3434"></path>
            <polygon id="Fill-37" fill="#F1D5C3" points="104.532058 136.301084 105 162.413162 100.154106 164 81.1619798 161.224936 77 159.387064 77 125 104.373078 133.071116"></polygon>
            <path d="M129.500931,63.3697636 L126.929892,78.2736952 L101.83223,80.0797755 L98.4367174,64.0572199 L95.8341415,79.8536386 L78.0215895,81.2918695 C78.0215895,81.2918695 84.9477753,156.105505 75.7914537,156.483908 C66.636634,156.86231 45.8806032,154.934116 41.9849991,155.690921 C38.0878932,156.449233 20.6057317,175 20.6057317,175 C20.6057317,175 18.2254185,164.389655 22.9019455,151.833025 C25.5555817,144.708204 40.7325188,133.092303 39.190196,71.1428439 C38.7817132,54.6996736 62.7590512,24.4395366 88.8614007,25.0078941 C114.96375,25.5762515 141.32891,35.8564366 143.471943,55.1670232 C145.613474,74.4761023 140.549489,76.3696222 140.549489,76.3696222 L132.439905,78.0942932 L129.500931,63.3697636 Z" id="Fill-39" fill="#FF3434"></path>
            <path d="M103,116 C104.185648,116.587973 107.090938,121.8634 117,122" id="Stroke-41" stroke="#DF715C" stroke-width="0.5" stroke-linecap="round" stroke-linejoin="round"></path>
            <path d="M68.5109002,90.6985006 C68.3258561,90.4576128 58.9002628,87.0989049 59.0007985,97.6095414 C59.1013343,108.120178 65.6463591,106.720589 68.6595183,106.996543 C71.6697634,107.272497 68.6959443,90.9363392 68.5109002,90.6985006" id="Fill-43" fill="#F1D5C3"></path>
            <path d="M112.53201,151.658825 C126.847077,165.56935 137.213317,181.263507 150,197.329757 C137.747349,202.959347 136.322762,215.966005 135.692454,227.62138 C135.599186,229.32969 119.2909,213.063082 119.991911,211.418043 C112.572626,230.000058 141.10799,274.096754 127.919655,286.723787 C114.731319,299.352327 67.1814049,279.366304 47.2356834,285.648185 C43.8765465,266.626287 37.5418732,231.935842 38.0262629,217.758676 C38.5091482,203.581509 42.0563246,209.074013 43.1409362,198.997393 C43.1439448,183.187239 43.321454,168.020338 43.4177302,151.699499 C49.9359301,145.599898 70.5089512,143.249842 75.4701843,146.392288 C86.5915901,153.437938 98.376399,159.047944 112.53201,151.658825" id="Fill-45" fill="#69BAC9"></path>
            <g id="Group-49" transform="translate(0.000000, 183.000000)">
                <mask id="mask-2" fill="white">
                    <use xlink:href="#path-1"></use>
                </mask>
                <g id="Clip-48"></g>
                <path d="M22.1389206,0.2502 C22.1389206,0.2502 -23.7460794,71.6502 16.6002698,95.8077 C47.8688413,114.5322 87.609,106.2132 88.6042381,103.5732 C89.5979683,100.9332 95.281381,90.8817 93.9905873,91.1862 C92.5821746,91.5177 37.758127,94.0797 28.2324921,73.5432 C18.3600317,52.2687 44.4729683,18.7647 44.4729683,18.7647 L22.1389206,0.2502 Z" id="Fill-47" fill="#F1D5C3" mask="url(#mask-2)"></path>
            </g>
            <path d="M44.1115961,152 C32.6982162,160.733889 14.6314527,185.049351 5.01292492,202.790252 C4.30498915,205.319277 32.8922542,210.055918 38.2677152,215.133585 C44.6057868,221.122667 66,194.100123 66,194.100123 L44.1115961,152 Z" id="Fill-50" fill="#69BAC9"></path>
            <path d="M124,217 C123.02439,216.016111 121.559432,214.500307 120.525162,212.323453 C120.429454,212.125138 119,192 119,192 L122.749614,205.403948 L124,217 Z" id="Fill-52" fill="#2B5165"></path>
            <path d="M80,145 C79.6935419,145 72,145.313693 72,145.313693 C77.1520257,146.955187 77.941436,148.424066 79.5090253,149 L80,145 Z" id="Fill-54" fill="#2B5165"></path>
            <path d="M41,207 C40.8410505,207.392393 38.4028531,227 38.4028531,227 L38.0003756,220.583402 C37.9901678,217.385627 38.1870318,214.398331 38.7134608,211.741788 L41,207 Z" id="Fill-56" fill="#2B5165"></path>
            <path d="M63,185 L61.4746865,185.806684 C48.1270756,200.659704 41.444324,205.98139 41.5293121,206.470566 L41,209 C42.7489665,208.138625 52.2527279,202.716673 63,185" id="Fill-58" fill="#2B5165"></path>
            <path d="M104.867568,136.725035 C99.7220534,136.199875 81.1116002,131 81.1116002,131 L81,134.956733 L105,141 L104.867568,136.725035 Z" id="Fill-60" fill="#DF715C"></path>
            <polygon id="Fill-62" fill="#919191" points="136.6567 334 241 292.547891 200.504751 261 78 296.923752"></polygon>
            <g id="Group-66" transform="translate(78.000000, 297.000000)">
                <mask id="mask-4" fill="white">
                    <use xlink:href="#path-3"></use>
                </mask>
                <g id="Clip-65"></g>
                <path d="M0.52625,0.47045 C0.52625,0.47045 0.40325,1.68095 0.52625,2.19995 C0.68975,2.88845 58.85225,39.50045 58.85225,39.50045 L58.85225,37.20695 L0.52625,0.47045 Z" id="Fill-64" fill="#666666" mask="url(#mask-4)"></path>
            </g>
            <polygon id="Fill-67" fill="#666666" points="137 333.677812 245 293 244.927899 295.645897 137 336"></polygon>
            <polygon id="Fill-69" fill="#D3D3D3" points="142.667324 323 199 300.854942 177.136946 284 111 303.191285"></polygon>
            <polygon id="Fill-71" fill="#666666" points="115.714131 298 148 288.507225 137.214781 283 106 291.496019"></polygon>
            <polygon id="Fill-73" fill="#B5B5B5" points="137.613559 333 244.802999 292.863322 245 213 137 242.038604"></polygon>
            <polygon id="Stroke-75" stroke="#B5B5B5" stroke-width="0.583" points="137.613559 333 244.802999 292.863322 245 213 137 242.038604"></polygon>
            <path d="M102,292.346711 C103.446103,292.676454 111.767483,297.739506 124.997027,297.997305 C131.229922,298.120209 128.405803,293.999922 128.087572,293.715144 C127.76786,293.433364 115.971097,288.918884 106.228777,283 L102,292.346711 Z" id="Fill-77" fill="#F1D5C3"></path>
            <path d="M107,275 C107,275 120.761358,285.566497 127.900185,286.643367 C131.105466,287.12589 134.492434,288.283946 134.972393,290.881914 C135.721857,294.947365 120.962729,291.909765 120.962729,291.909765 L111.566427,288.309987 L107,275 Z" id="Fill-79" fill="#F1D5C3"></path>
            <path d="M122.020526,282.909875 C122.020526,282.909875 131.287841,282.649896 132.348984,282.379212 C133.411632,282.110058 136.071263,277.644542 131.00186,278.081918 C128.101402,278.331191 117.377085,276.818727 116.960154,276.606156 C116.960154,276.606156 110.969588,276.546514 106.949286,274.457509 C101.67518,271.717028 93.2191498,273.682161 93.2191498,273.682161 L84,286.745325 C85.061143,286.745325 92.6321345,289.955297 97.0919453,292.328749 C101.548746,294.702202 107.184092,299.898717 114.086789,302.058069 C119.21941,303.662291 122.363704,303.001639 122.407354,301.683394 C122.532283,297.973345 117.533622,297.731718 114.880013,296.136673 C112.096958,294.465163 106.270456,292.143706 104.122582,289.834483" id="Fill-81" fill="#F1D5C3"></path>
            <path d="M120.610707,284 C120.077428,283.932897 119.092321,283.435352 116.877751,282.564648 C112.969597,281.02946 107.088155,278.715221 104.000668,278.715221 C103.96071,278.715221 105.728062,278.306056 105.689642,278.307692 L107.349416,278 C111.260644,279.340426 111.780092,279.400982 115.791214,280.977087 C117.318821,281.579378 121.626551,283.394435 122,283.440262 L120.610707,284 Z" id="Fill-83" fill="#E5B79E"></path>
            <path d="M123.87471,291.869545 C123.274968,291.801352 121.911636,291.421847 119.565221,290.284812 C115.810648,288.462887 110.066724,286.443798 107.085015,286.443798 C107.055646,286.443798 107.027823,286.44528 107,286.44528 L109.267583,286.002029 C112.598626,285.932354 116.013139,287.666814 120.174238,289.684422 C121.67514,290.413784 124.615114,291.94515 125,292 L123.87471,291.869545 Z" id="Fill-85" fill="#E5B79E"></path>
            <path d="M119.441578,297.842438 C118.764642,297.766471 117.685961,297.324736 115.294614,296.368113 C112.594231,295.289097 108.488472,292.898945 106,292.319343 L107.093397,292 C109.693711,292.603517 112.341116,294.183353 115.08859,295.28347 C116.835377,295.981243 120.496713,297.945135 121,298 L119.441578,297.842438 Z" id="Fill-87" fill="#E5B79E"></path>
            <path d="M239.087131,139.664088 C238.92432,139.142758 238.606921,138.716844 238.162892,138.416768 C237.972123,138.288164 237.945811,138.030957 238.100399,137.780663 L238.286233,137.479205 C238.527983,137.087861 239.080553,136.881819 239.393018,137.071267 C240.82049,137.939689 241.353326,139.604626 240.762931,141.406463 C240.631367,141.80472 240.090309,142.088202 239.685748,141.974809 L239.374928,141.886308 C239.118377,141.815783 238.99668,141.594529 239.070685,141.344235 C239.240074,140.762061 239.249942,140.1868 239.087131,139.664088" id="Fill-89" fill="#EE3434"></path>
            <path d="M234.438939,138.357088 C233.903562,138.709756 233.430722,139.17119 233.043298,139.706784 C232.877042,139.937501 232.639097,140.047915 232.453011,139.980348 L232.234895,139.901245 C231.954241,139.800718 231.91916,139.347524 232.161681,138.99156 C233.267516,137.361708 234.91483,136.211418 236.556042,136.003773 C236.941941,135.955981 237.121925,136.369624 236.909909,136.826115 L236.746703,137.178782 C236.610953,137.472123 236.351653,137.68636 236.106081,137.714376 C235.552401,137.778647 234.983468,137.997828 234.438939,138.357088" id="Fill-91" fill="#EE3434"></path>
            <path d="M231.805104,140.727959 L232.012671,140.802562 C232.188879,140.864253 232.273996,141.062239 232.226211,141.291787 C232.121681,141.788185 232.117201,142.280279 232.220238,142.735071 C232.278476,142.996182 232.37106,143.241511 232.496496,143.462451 C232.547268,143.554271 232.604013,143.643221 232.668224,143.724997 C232.67569,143.73504 232.683157,143.743648 232.692116,143.752256 C232.89819,143.976065 233.310337,143.861291 233.489532,143.5141 L233.635874,143.235773 C233.732937,143.0507 233.735924,142.844106 233.640354,142.704943 C233.383508,142.331927 233.295404,141.826921 233.402921,141.293222 C233.452199,141.052196 233.540303,140.803997 233.671713,140.557233 C234.230202,139.504181 235.415872,138.825579 236.395468,139.039346 C236.404427,139.04078 236.4104,139.042215 236.417867,139.04365 C236.425333,139.046519 236.4328,139.047954 236.440266,139.049388 C236.447733,139.052258 236.455199,139.053692 236.462666,139.055127 C236.470132,139.057996 236.476105,139.059431 236.483572,139.0623 C236.491038,139.063735 236.498504,139.066605 236.505971,139.068039 C236.513437,139.070909 236.520904,139.072343 236.52837,139.075213 C236.534343,139.076647 236.54181,139.079517 236.549276,139.080951 C236.556743,139.083821 236.564209,139.085255 236.570182,139.08669 C236.577649,139.089559 236.585115,139.092429 236.592581,139.095298 C236.594075,139.095298 236.597061,139.096733 236.600048,139.098167 C237.560231,139.445359 237.857395,140.631836 237.260081,141.760926 C237.119712,142.026341 236.943504,142.264497 236.743403,142.47109 C236.304377,142.924448 235.751861,143.218557 235.214278,143.303202 C235.017164,143.333331 234.831996,143.475364 234.72896,143.664741 L234.576644,143.947372 C234.386997,144.298868 234.566191,144.66471 234.91562,144.66471 C234.930553,144.66471 234.945486,144.66471 234.960419,144.663275 C235.081375,144.656102 235.206811,144.637451 235.332247,144.613062 C235.636878,144.55424 235.945988,144.455247 236.250619,144.317518 C236.789695,144.073623 237.29144,143.719258 237.721506,143.277378 C237.921607,143.075089 238.208318,142.987574 238.433804,143.067916 L238.707076,143.164039 C239.060985,143.288856 239.101303,143.740779 238.789206,144.057842 C238.639878,144.208483 238.486069,144.351951 238.326287,144.488245 C238.167999,144.623104 238.005231,144.749356 237.837983,144.868434 C237.673721,144.986077 237.503486,145.093678 237.333252,145.194105 C237.163017,145.293098 236.991289,145.383483 236.818068,145.465259 C236.64634,145.545601 236.471625,145.617335 236.298404,145.68046 C236.125183,145.743586 235.951961,145.796669 235.77874,145.841144 C235.605519,145.885619 235.433791,145.920051 235.263556,145.94731 C235.093322,145.9717 234.92458,145.988916 234.758825,145.996089 C234.591577,146.003263 234.427316,146.000393 234.266041,145.988916 C234.104766,145.977438 233.946477,145.957353 233.791175,145.927225 C233.635874,145.898531 233.483558,145.85836 233.335723,145.809581 C233.158022,145.75076 232.987787,145.679026 232.825019,145.595815 C232.692116,145.52695 232.563694,145.450912 232.444231,145.364832 C232.326261,145.283055 232.212771,145.192671 232.108241,145.095113 C232.005205,145.000424 231.908141,144.897127 231.818544,144.789527 C231.728946,144.681926 231.646816,144.568587 231.572151,144.450943 C231.497487,144.3333 231.430289,144.209918 231.369064,144.082231 C231.309333,143.95598 231.257068,143.82399 231.212269,143.687696 C231.165977,143.552836 231.127152,143.413673 231.095793,143.270205 C231.065927,143.128172 231.042035,142.981835 231.025608,142.832629 C231.009182,142.683422 231.000223,142.531347 231.000223,142.376402 C230.998729,142.221457 231.004702,142.065077 231.019635,141.905828 C231.033075,141.745144 231.056967,141.584461 231.086833,141.420908 C231.097286,141.356347 231.110726,141.294656 231.124165,141.230096 C231.200323,140.887208 231.539299,140.63614 231.805104,140.727959" id="Fill-93" fill="#37AFCA"></path>
            <path d="M427.310169,149.294868 C426.483697,151.890888 425.392273,154.44611 425.116782,157.134305 C424.800646,160.227468 425.661742,163.489871 427.892764,165.856208 C425.67228,167.143641 422.824038,166.918491 420.203115,167.195017 C417.366917,167.492698 414.514159,170.688614 411.679467,171 C411.286554,171.043716 404.41886,157.398743 403.694757,156.422591 C402.272142,154.498997 400.545433,149.376466 404.102724,149.67868 C408.104111,150.018671 407.958086,145.491502 412.135607,145.367594 C413.811131,145.317729 415.486656,145.269374 417.163686,145.219509 C417.842627,145.198354 418.536623,145.175688 419.168896,144.950538 C419.759018,144.740499 420.257309,144.367265 420.778182,144.037851 C422.325747,143.061699 427.978572,139.590769 427.998143,141.632226 C428.020724,144.214647 427.840074,147.634201 427.310169,149.294868" id="Fill-95" fill="#E8C5A6"></path>
            <polygon id="Fill-97" fill="#FFFFFF" points="413.982783 162 426 152.668511 410.845046 119 395 121.31507"></polygon>
            <polygon id="Stroke-99" stroke="#919191" stroke-width="0.944" stroke-linecap="round" stroke-linejoin="round" points="413.982783 162 426 152.668511 410.845046 119 395 121.31507"></polygon>
            <polygon id="Fill-101" fill="#FFFFFF" points="415.136673 161 428 152.706035 412.032729 118 396 120.567861"></polygon>
            <polygon id="Stroke-103" stroke="#B5B5B5" stroke-width="0.734" stroke-linecap="round" stroke-linejoin="round" points="415.136673 161 428 152.706035 412.032729 118 396 120.567861"></polygon>
            <path d="M400.791691,147.523937 C400.687376,147.427449 400.572629,147.340149 400.477255,147.23294 C399.577166,146.215981 398.899118,144.961629 399.012375,143.598536 C399.076454,142.823565 399.313398,142.120576 399.916935,141.555429 C400.006348,141.472724 400.116623,141.399209 400.222429,141.322631 C399.95121,140.961182 399.715756,140.585948 399.615911,140.120353 C399.478812,139.484753 399.481792,139.317813 399.562264,138.752665 C399.639755,138.224275 399.705324,138.022109 400.006348,137.478403 C400.200075,137.141459 400.465334,136.871904 400.800632,136.666674 C401.100165,136.412434 401.186597,136.0954 401.587465,136.006569 C401.998764,135.885576 402.483084,137.473809 404.189379,137.646875 C405.451591,137.777058 411.776061,138.066524 412.477952,138.450947 C412.838583,138.631672 413.127685,138.879785 413.345256,139.196819 C413.617966,139.474032 413.802752,139.801787 413.898126,140.178552 C414.078442,140.91983 414.039696,141.749938 413.586671,142.405447 C413.154509,143.033389 412.531599,143.541869 411.740295,143.734846 C411.366252,143.825208 411.098013,143.770072 410.713538,143.81755 C410.329062,143.86656 405.609554,143.36727 405.223588,143.365739 C405.205705,143.365739 405.189313,143.362675 405.172921,143.361144 C405.172921,143.374928 405.174411,143.387181 405.174411,143.399433 C405.23998,143.433127 405.30406,143.469885 405.369629,143.500516 C405.983597,143.698088 409.157754,144.466934 409.798546,144.564954 C410.373769,144.624685 410.804441,144.914151 411.382644,144.918745 C412.178418,144.924872 412.528619,144.996855 413.09341,145.523713 C413.628397,146.026067 414.032245,146.850049 413.99797,147.568353 C413.962205,148.317288 413.699927,149.090728 413.09341,149.612992 C412.491363,150.130661 409.82239,149.8366 408.98787,149.830474 C408.461824,149.825879 407.940249,149.793716 407.420164,149.746238 C409.208421,150.369585 408.651081,150.075524 410.536202,150.320575 C411.245544,150.412469 412.039829,151.101673 412.381088,151.648441 C412.770034,152.268725 412.933957,153.181538 412.692542,153.875337 C412.451128,154.575262 411.987671,155.250682 411.273858,155.604473 C411.027973,155.702494 410.782088,155.798982 410.536202,155.895471 C409.987803,156.034843 409.440895,156.034843 408.893986,155.895471 C406.950746,155.644294 407.430596,155.95367 405.594651,155.275187 C403.614157,154.543099 401.684329,153.538392 400.350587,151.939439 C399.824541,151.308434 399.446027,150.732566 399.446027,149.8948 C399.446027,149.185685 399.782815,148.33873 400.350587,147.851692 C400.487687,147.733762 400.636708,147.623489 400.791691,147.523937" id="Fill-105" fill="#E8C5A6"></path>
            <path d="M419.287499,139.113397 C418.784444,140.577224 416.267721,141.792968 416.024167,142.255764 C415.780613,142.718559 417.43475,143.824045 418.430711,143.974925 C419.151224,144.082282 419.871738,143.825496 420.556008,143.573062 C423.030689,142.657627 425.50537,141.742191 427.980051,140.828207 C428.264197,138.612882 425.45173,134.956943 423.443861,134.185134 C420.647341,133.108663 420.01961,136.986569 419.287499,139.113397" id="Fill-107" fill="#E8C5A6"></path>
            <path d="M426.064998,162.750524 C426.064998,162.750524 428.280214,167.6522 430,173.9417 C426.906182,173.302416 424.409574,173.723192 421.658515,175.05196 C417.841758,176.898947 415.282286,180.572251 414.168691,185 C412.475847,180.950212 410.83539,176.658292 409.253307,172.102095 C406.91835,165.380008 421.372633,159.957159 426.064998,162.750524" id="Fill-109" fill="#FFFFFF"></path>
            <path d="M426.064998,162.750524 C426.064998,162.750524 428.280214,167.6522 430,173.9417 C426.906182,173.302416 424.409574,173.723192 421.658515,175.05196 C417.841758,176.898947 415.282286,180.572251 414.168691,185 C412.475847,180.950212 410.83539,176.658292 409.253307,172.102095 C406.91835,165.380008 421.372633,159.957159 426.064998,162.750524 Z" id="Stroke-111" stroke="#919191" stroke-width="0.865"></path>
            <path d="M513.689946,136 C515.549293,165.109511 508.43861,199.204298 508.43861,199.204298 C508.43861,199.204298 494.038085,232.916755 461.804394,227.387222 C429.569198,221.859189 412.579138,185.368471 411.079617,177.628925 C409.932392,171.709566 421.47389,168.821855 426.97063,167.788816 C428.542418,167.493447 429.650498,168.676419 430.648673,170.108281 C435.410708,176.943731 442.67044,201.682692 460.273256,200.202852 C486.71512,197.983842 499.736567,141.058743 504.978871,139.259546" id="Fill-113" fill="#2B5165"></path>
            <path d="M585.861055,135.573367 C589.500321,137.352574 612.874398,145.48717 611.974703,151.212297 C611.075008,156.938933 604.001905,207.922269 603.703506,210.09652 C600.74351,231.704842 587.702431,294.838054 585.726101,291.900854 C584.550499,290.15331 499,272.347667 499,272.347667 C499,272.347667 509.487445,178.634707 509.189046,177.428465 C508.889148,176.22373 500.595459,140.843138 504.393672,138.557309 C508.193384,136.271479 525.37156,131.325886 525.37156,131.325886 L533.963648,127 L585.861055,135.573367 Z" id="Fill-115" fill="#2B5165"></path>
            <path d="M536.162455,127.916905 C536.162455,127.916905 528.86087,181.397496 537.892177,226.992695 C537.78891,227.11417 535.465403,225.680462 535.465403,225.680462 C535.465403,225.680462 514.230366,143.33526 515.021573,142.759377 C515.783927,142.204491 526.698338,136.217712 526.698338,136.217712 C526.698338,136.217712 516.8576,133.936677 517.396714,133.800205 C517.949497,133.660733 538,125 538,125 L536.162455,127.916905 Z" id="Fill-117" fill="#A8A8A8"></path>
            <path d="M570,132 L549.000938,206.412325 L535.608227,225 C535.608227,225 532.171306,173.413828 533.188093,153.492986 C533.254274,152.18988 534.259029,137.122244 534.259029,137.122244 L570,132 Z" id="Fill-119" fill="#C1B9B2"></path>
            <path d="M494.919655,72.2752747 C494.919655,72.2752747 487.047278,98.4505257 497.156245,106.613716 C497.258386,106.694628 497.359025,106.775541 497.459664,106.856454 C510.78908,117.470998 528.366365,121.413244 544.974812,117.545917 C554.242616,115.388246 563.460852,110.82567 567.597568,101.490745 C577.38509,79.4030822 562.944138,80.3620473 562.944138,80.3620473 C562.944138,80.3620473 564.387633,68.996813 563.424803,67.2377114 C562.461972,65.4771115 559.092817,59.8746578 559.092817,59.8746578 C559.092817,59.8746578 561.820586,37.6266685 546.738248,36.5058781 C531.654408,35.3850876 502.933226,30.7430974 501.489732,37.945824 C500.044736,45.1485506 494.919655,72.2752747 494.919655,72.2752747" id="Fill-121" fill="#E8C5A6"></path>
            <path d="M533,76.5 C533,78.9853372 533.89492,81 535,81 C536.103688,81 537,78.9853372 537,76.5 C537,74.0146628 536.103688,72 535,72 C533.89492,72 533,74.0146628 533,76.5" id="Fill-123" fill="#000000"></path>
            <path d="M502,73.4992667 C502,75.985009 502.896312,78 504,78 C505.103688,78 506,75.985009 506,73.4992667 C506,71.014991 505.103688,69 504,69 C502.896312,69 502,71.014991 502,73.4992667" id="Fill-125" fill="#000000"></path>
            <path d="M527,99 C526.607752,99.2404822 527.260465,102.962976 513,101.761988" id="Fill-127" fill="#000000"></path>
            <path d="M519,77 C518.605182,77 515.45387,88.0531154 514.241938,88.2492339 C513.031452,88.4468846 516.756914,92 516.756914,92 L518.900211,91.9019408" id="Fill-129" fill="#C16363"></path>
            <path d="M529.020755,88.4173672 L543.39604,89.9905972 C544.248736,90.0820815 544.951476,89.4956821 544.952946,88.6813219 L545,65.6032827 C545.002932,64.715435 544.267848,63.9925591 543.373987,64 L528.353299,64.1110388 C527.581462,64.1170377 526.975754,64.7919219 527.000746,65.6077819 L527.638799,86.9011274 C527.660851,87.6554979 528.281261,88.3363811 529.020755,88.4173672 Z" id="Stroke-131" stroke="#000000"></path>
            <path d="M498.284316,84.4956914 L509.729497,85.9908912 C510.405165,86.0785726 510.961867,85.5232567 510.963392,84.7556593 L511,63.5167472 C511.001522,62.721461 510.435669,62.0646191 509.746274,62.0615426 L498.079938,62 C497.475955,61.9969352 496.992463,62.5999375 497,63.339846 L497.198366,83.0574078 C497.204467,83.7711656 497.692535,84.4187779 498.284316,84.4956914 Z" id="Stroke-133" stroke="#000000"></path>
            <path d="M527,79 C525.15334,78.4722899 519.10308,73.3797511 511,77.770955" id="Stroke-135" stroke="#000000" stroke-width="1.045"></path>
            <path d="M546,70.345 C547.222161,70.345 573,69.655 573,69.655" id="Stroke-137" stroke="#000000"></path>
            <path d="M561,82.5075677 C561,90.2387551 561.548743,97 567.463956,97 C573.379169,97 584,90.5148156 584,82.7851204 C584,75.0539331 578.63058,69 572.715367,69 C566.801629,69 561,74.7763803 561,82.5075677" id="Fill-139" fill="#E8C5A6"></path>
            <path d="M581.372539,73.713569 C581.372539,73.713569 590.441062,29.6378504 586.605538,26.8503997 L582.768508,24.062949 L588,19.882525 C588,19.882525 578.756793,22.1479868 578.407425,20.9265028 C578.059562,19.7080273 572.478701,9.08021321 572.478701,9.08021321 L570.908049,14.8296124 C570.908049,14.8296124 550.329942,-0.675112216 529.227782,0.0228786858 C508.125622,0.719365297 495.220069,14.8296124 495.220069,14.8296124 C495.220069,14.8296124 494.477661,67.3925393 495.720028,69.0728321 C496.9639,70.7516205 500.117252,36.3590214 504.288592,35.2127519 C509.837829,33.6889054 548.690018,34.65466 554.394363,39.999405 C560.612219,45.8240188 559.393947,58.387855 559.744821,59.4303285 C560.095695,60.4728019 558.351865,77.5465018 558.351865,77.5465018 L563.605945,80 L564.550144,72.5973853 C564.550144,72.5973853 573.698479,63.261757 581.372539,73.713569" id="Fill-141" fill="#000000"></path>
            <path d="M558.03322,113 L564,126.501511 C564,126.501511 551.445953,140 550.797196,140 C550.146951,140 541.705668,138.901567 541.705668,138.901567 C541.705668,138.901567 539.643334,119.39418 537.046818,118.28366 C535.848998,117.771461 558.03322,113 558.03322,113" id="Fill-143" fill="#E8C5A6"></path>
            <path d="M551.059305,139.108233 C551.059305,139.108233 551.000707,139.093331 550.891221,139.067997 C549.970615,138.850427 545.427727,137.834105 541.638902,138.023361 C537.399798,138.236461 538.033582,147.434027 538.033582,147.434027 C538.033582,147.434027 538.351245,148.965961 541.945771,149.682751 C545.541839,150.396561 554,149.682751 554,149.682751 C554,149.682751 553.788739,142.631086 553.683879,142.324103 C553.577477,142.01712 551.059305,139.108233 551.059305,139.108233" id="Fill-145" fill="#69BAC9"></path>
            <path d="M538.652898,124 C539.939305,128.932722 540.150263,132.74159 541,138.553517 L534.087039,154 C534.087039,154 534,128.420489 534,127.281346 C534,126.143731 538.652898,124 538.652898,124" id="Fill-147" fill="#C1B9B2"></path>
            <path d="M541.245108,150.826628 C539.818369,151.147424 533.423961,171.646922 533.17855,173.736596 C532.195381,182.074308 535.59303,223.777855 535.59303,223.777855 C536.132629,226.24529 545.583245,207.35877 545.048218,206.658714 C544.996392,206.591257 549.63634,153.526416 548.926019,151.147424 C548.214175,148.768433 541.245108,150.826628 541.245108,150.826628" id="Fill-149" fill="#69BAC9"></path>
            <path d="M568.533719,131.047042 C568.533719,131.047042 558.698013,184.10186 536,224.635615 C536.058492,224.782568 536.617919,225 536.617919,225 C536.617919,225 589.856413,154.546153 588.989527,154.198262 C588.122641,153.851871 574.237468,140.835964 574.237468,140.835964 C574.237468,140.835964 586.549348,135.415168 586.028917,135.242723 C585.508485,135.068777 566.862939,128 566.862939,128 L568.533719,131.047042 Z" id="Fill-151" fill="#A8A8A8"></path>
            <path d="M568.995942,131 C569.269769,132.595363 555.602097,155.144061 553.361156,155.731119 C553.296029,155.746056 553,156 553,156 C553,156 560.335605,145.304493 562.141384,142.551446 C563.244093,140.870937 568.995942,131 568.995942,131" id="Fill-153" fill="#A8A8A8"></path>
            <polygon id="Fill-155" fill="#A8A8A8" points="551.142216 150 552 156 550 150.034125"></polygon>
            <polyline id="Fill-157" fill="#A8A8A8" points="535 153 537.946822 146 538 147.134517"></polyline>
            <path d="M541,151.100133 C541.440487,151.252133 549,151.960133 549,151.960133 C549,151.960133 548.991277,150.552133 548.909867,150.394133 C548.828457,150.236133 541.840269,149.976133 541.606215,150.054133 C541.370707,150.130133 541,151.100133 541,151.100133" id="Fill-159" fill="#448A93"></path>
            <path d="M536,225 C535.465325,225.860872 528,279 528,279" id="Stroke-161" stroke="#1F3C49"></path>
            <path d="M533,225.5 C533,226.880965 534.566644,228 536.499208,228 C538.433356,228 540,226.880965 540,225.5 C540,224.119035 538.433356,223 536.499208,223 C534.566644,223 533,224.119035 533,225.5" id="Fill-163" fill="#353535"></path>
            <path d="M527.033179,259.407621 C526.769133,261.030967 528.110044,262.613444 530.023587,262.940402 C531.93872,263.26736 533.704333,262.21619 533.966789,260.592844 C534.230836,258.967863 532.891515,257.388656 530.976382,257.060063 C529.061248,256.73147 527.295635,257.784275 527.033179,259.407621" id="Fill-165" fill="#353535"></path>
            <path d="M567,264.863201 C585.668503,267.631201 586.712569,263.959201 594,264.105201" id="Stroke-167" stroke="#1F3C49"></path>
            <polygon id="Fill-169" fill="#919191" points="497.021509 319 401 280.953361 438.267015 252 551 284.970126"></polygon>
            <path d="M550.948896,285 C550.948896,285 551.06388,286.116466 550.948896,286.596245 C550.7976,287.231424 497,321 497,321 L497,318.886258 L550.948896,285 Z" id="Fill-171" fill="#666666"></path>
            <polygon id="Fill-173" fill="#666666" points="497 318.894126 398 282 398.067567 284.397479 497 321"></polygon>
            <polygon id="Fill-175" fill="#D3D3D3" points="491.851148 309 440 288.558517 460.122765 273 521 290.717159"></polygon>
            <polygon id="Fill-177" fill="#666666" points="516.210966 286 487 277.139886 496.757444 272 525 279.929682"></polygon>
            <polygon id="Fill-179" fill="#B5B5B5" points="496.437799 318 398.180385 281.207759 398 208 497 234.617716"></polygon>
            <polygon id="Stroke-181" stroke="#B5B5B5" stroke-width="0.583" points="496.437799 318 398.180385 281.207759 398 208 497 234.617716"></polygon>
            <path d="M535,283.477626 C533.815724,283.741419 527.005381,287.791238 516.177284,287.998076 C511.076721,288.094 513.648204,284.571767 513.648204,284.571767 C513.648204,284.571767 523.564621,280.734781 531.538038,276 L535,283.477626 Z" id="Fill-183" fill="#E8C5A6"></path>
            <path d="M531,269 C531,269 520.187072,277.218463 514.579101,278.055501 C512.059902,278.430828 509.397938,279.33191 509.021693,281.353014 C508.43279,284.514993 520.029436,282.151328 520.029436,282.151328 L527.411553,279.352761 L531,269 Z" id="Fill-185" fill="#E8C5A6"></path>
            <path d="M519.780041,276.611022 C519.780041,276.611022 511.170677,276.049095 510.321039,275.836312 C509.471401,275.626526 507.34128,272.126095 511.401164,272.467746 C513.722604,272.664046 522.309371,271.477256 522.642296,271.312424 C522.642296,271.312424 529.531294,269.517254 532.749071,267.879424 C536.971652,265.730615 552,268.195602 552,268.195602 L551.457678,284.25323 C550.606533,284.25323 542.120699,281.776256 538.550412,283.63586 C534.980124,285.496962 530.469812,289.56981 524.942646,291.261585 C520.833049,292.518803 518.315771,292.00183 518.281123,290.967885 C518.18019,288.05935 522.182829,287.872041 524.30843,286.622315 C526.53647,285.311152 531.201947,283.492007 532.920807,281.681852" id="Fill-187" fill="#E8C5A6"></path>
            <path d="M520,276 C521.138643,275.858637 529.426254,271.928732 533,272.000984" id="Stroke-189" stroke="#C49E82" stroke-width="0.75"></path>
            <path d="M518,283 C519.164022,282.868131 527.34982,277.933284 531,278.000684" id="Stroke-191" stroke="#C49E82" stroke-width="0.75"></path>
            <path d="M521,287 C522.211254,286.861272 528.220513,283.904817 532,283" id="Stroke-193" stroke="#C49E82" stroke-width="0.75"></path>
            <path d="M554.880987,265 C554.880987,265 560.35675,265.240458 566.884558,266.773571 C564.926668,269.798444 564.203198,272.743675 564.203198,276.457759 C564.203198,281.614593 566.435404,286.390063 570,290 C565.537095,289.652331 560.876744,289.113214 555.997844,288.368866 C548.802333,287.272254 550.240229,268.597684 554.880987,265" id="Fill-195" fill="#FFFFFF"></path>
            <path d="M554.880987,265 C554.880987,265 560.35675,265.240458 566.884558,266.773571 C564.926668,269.798444 564.203198,272.743675 564.203198,276.457759 C564.203198,281.614593 566.435404,286.390063 570,290 C565.537095,289.652331 560.876744,289.113214 555.997844,288.368866 C548.802333,287.272254 550.240229,268.597684 554.880987,265 Z" id="Stroke-197" stroke="#919191" stroke-width="0.942"></path>
            <path d="M551,138.477113 C551,138.477113 552.399487,156.304933 552.949863,155.996032 C558.272621,153.007484 570.435351,129.372014 569.987986,128.970142 C569.552394,128.580266 562.660916,120 562.660916,120 L551,138.477113 Z" id="Fill-199" fill="#C1B9B2"></path>
            <path d="M538,118.929017 C539.889361,118.872576 557.057125,113.661227 558.174984,113.002753 C558.314717,112.92171 559,114.656897 559,114.656897 L539.86855,125 L538,118.929017 Z" id="Fill-201" fill="#A87F60"></path>
            <polygon id="Fill-203" fill="#1F3C49" points="502 209 508 182 507.016737 201.051486"></polygon>
            <path d="M578,78.1544611 C577.728277,77.8492337 569.466144,71.5618755 568,82" id="Fill-205" fill="#A87F60"></path>
            <path d="M568,134 L552,157 L559.035728,148.474372 C562.446032,143.693915 564.418202,141.992115 565.757052,138.482718 L568,134 Z" id="Fill-207" fill="#A8A8A8"></path>
            <path d="M611.744019,149 C611.744019,149 660.895326,217.610477 654.41043,249.453451 C647.098866,285.359274 618.37702,298.837328 568.191999,290.714643 C560.82754,289.523054 562.143863,269.812889 566.893811,265.905203 C566.893811,265.905203 622.428758,273.45695 618.337727,240.515786 C614.245185,207.573116 597.249349,200.985486 597.249349,200.985486 L611.744019,149 Z" id="Fill-209" fill="#2B5165"></path>
            <path d="M611,149 C611,149 593.945908,159.748315 604.380051,207" id="Stroke-211" stroke="#1F3C49"></path>
            <line x1="514" y1="135" x2="507" y2="201" id="Stroke-213" stroke="#1F3C49"></line>
            <path d="M405.912593,127.664307 C406.07585,127.142477 406.395189,126.71868 406.838316,126.417045 C407.028484,126.287341 407.0536,126.032459 406.899313,125.780594 L406.714527,125.478959 C406.472332,125.086833 405.917975,124.881721 405.607607,125.071751 C404.179554,125.938953 403.646725,127.605488 404.236963,129.406251 C404.367927,129.805917 404.909727,130.087946 405.315179,129.974833 L405.625547,129.888867 C405.882094,129.816475 406.004089,129.596281 405.930533,129.344415 C405.7601,128.762259 405.75113,128.187644 405.912593,127.664307" id="Fill-215" fill="#EE3434"></path>
            <path d="M410.561783,126.767174 C411.095646,127.031342 411.569636,127.379075 411.957143,127.780719 C412.123456,127.953237 412.361282,128.035453 412.545889,127.985585 L412.765421,127.926281 C413.044826,127.850805 413.081414,127.511159 412.838598,127.244295 C411.732622,126.02184 410.084467,125.159248 408.444628,125.002904 C408.058784,124.966513 407.877503,125.277855 408.090383,125.618848 L408.253369,125.884365 C408.388082,126.104056 408.649192,126.264444 408.893671,126.286009 C409.447491,126.33453 410.016279,126.498961 410.561783,126.767174" id="Fill-217" fill="#EE3434"></path>
            <path d="M412.295961,129.728234 L412.113593,129.801773 C411.95972,129.864359 411.884209,130.06307 411.926951,130.289945 C412.01956,130.789069 412.022409,131.280371 411.93265,131.735685 C411.879934,131.995418 411.800149,132.241068 411.690443,132.461685 C411.644851,132.553999 411.59641,132.643184 411.53942,132.724547 C411.533721,132.735499 411.526597,132.744887 411.519473,132.75271 C411.339955,132.974891 410.978069,132.860671 410.821347,132.513318 L410.69312,132.237939 C410.609059,132.050181 410.604785,131.845211 410.69027,131.704392 C410.91538,131.332004 410.990892,130.826621 410.898283,130.291509 C410.855541,130.050553 410.778604,129.803337 410.6632,129.556122 C410.173087,128.504674 409.13587,127.82405 408.278172,128.039972 C408.272473,128.041537 408.265349,128.043101 408.25965,128.044666 C408.252526,128.046231 408.246828,128.047795 408.239704,128.04936 C408.23258,128.052489 408.226881,128.054054 408.221182,128.055619 C408.214058,128.057183 408.206935,128.060313 408.201236,128.061877 C408.195537,128.063442 408.188413,128.066571 408.182714,128.066571 C408.17559,128.068136 408.169891,128.071265 408.164192,128.07283 C408.157068,128.075959 408.151369,128.077524 408.144246,128.080653 C408.138547,128.082218 408.132848,128.085347 408.125724,128.086912 C408.120025,128.090041 408.112901,128.091606 408.107202,128.094735 C408.105777,128.0963 408.102928,128.0963 408.100078,128.097864 C407.259477,128.445217 407.000173,129.631225 407.523056,130.760906 C407.645584,131.026897 407.799457,131.264724 407.974701,131.471259 C408.359383,131.923444 408.842372,132.219163 409.312539,132.303655 C409.484933,132.333383 409.647355,132.475767 409.737114,132.66509 L409.869615,132.948292 C410.036311,133.298775 409.879589,133.664904 409.573268,133.664904 C409.560445,133.666468 409.547622,133.664904 409.536224,133.664904 C409.427943,133.65708 409.318238,133.63674 409.208532,133.611705 C408.942104,133.553813 408.671402,133.45524 408.406399,133.31755 C407.933383,133.073464 407.494561,132.718288 407.118427,132.27862 C406.944608,132.075215 406.692428,131.987594 406.494388,132.067392 L406.256455,132.1644 C405.94586,132.289573 405.911666,132.740193 406.185217,133.057818 C406.314869,133.209589 406.45022,133.351973 406.589846,133.488098 C406.728046,133.622658 406.870521,133.749395 407.01727,133.868309 C407.16117,133.985658 407.309343,134.093619 407.458942,134.193757 C407.607116,134.293895 407.756714,134.384645 407.909162,134.464442 C408.060186,134.545804 408.211209,134.617778 408.365082,134.681929 C408.516105,134.74295 408.667128,134.797713 408.819576,134.843088 C408.970599,134.885334 409.120198,134.919756 409.268372,134.946355 C409.41797,134.972955 409.566144,134.988601 409.711468,134.996424 C409.856793,135.002683 410.000692,135.001118 410.141742,134.988601 C410.282792,134.977648 410.422417,134.957308 410.557768,134.92758 C410.694544,134.897851 410.827046,134.85717 410.956698,134.81023 C411.110571,134.752338 411.261594,134.680364 411.404069,134.595873 C411.519473,134.527028 411.630604,134.451925 411.736035,134.365869 C411.840042,134.282942 411.938349,134.193757 412.029533,134.095184 C412.120717,133.99974 412.206202,133.898037 412.284563,133.790076 C412.361499,133.682115 412.434161,133.56946 412.4997,133.450546 C412.563813,133.333197 412.623653,133.211154 412.676369,133.082852 C412.729084,132.956115 412.774676,132.824684 412.814569,132.688559 C412.854462,132.553999 412.888656,132.41318 412.915726,132.270797 C412.942796,132.128413 412.962743,131.981336 412.97699,131.832694 C412.991238,131.684052 412.999786,131.530715 412.999786,131.377379 C413.001211,131.222479 412.995512,131.064448 412.982689,130.906418 C412.969867,130.745259 412.94992,130.5841 412.924275,130.421376 C412.914301,130.357225 412.902903,130.293074 412.890081,130.228923 C412.824542,129.887829 412.528195,129.634355 412.295961,129.728234" id="Fill-219" fill="#37AFCA"></path>
            <path d="M399.446183,141 C399.512081,141.089405 404,142.776099 404,142.776099 C404,142.776099 403.89978,143.026968 403.752883,142.997611 C403.605986,142.969588 399,141.353618 399,141.353618 L399.446183,141 Z" id="Fill-221" fill="#C49E82"></path>
            <path d="M400.775991,148 C400.775991,148 407.425509,149.750253 407.729904,149.797623 L407.819936,149.953093 L408,149.998034 C407.621293,150.061193 400,148.581798 400,148.581798 C400.220079,148.349808 400.468739,148.145753 400.775991,148" id="Fill-223" fill="#C49E82"></path>
            <path d="M403,154 C403.402654,154.060633 409.386386,156.498092 410.577092,156.021688 C410.646119,155.992237 410.926539,156.735428 410.999879,156.991821 C411.034392,157.109622 403.662942,155.916012 403.662942,155.916012 L403,154 Z" id="Fill-225" fill="#C49E82"></path>
            <path d="M240.295608,156.538999 L245.39763,154 C245.595631,154.146682 245.801999,154.382421 246,154.693248 L240,157 L240.295608,156.538999 Z" id="Fill-227" fill="#E5B79E"></path>
            <path d="M245.257224,161 L237.252574,163.575502 L237,164 L246,161.635164 C246,161.635164 245.544171,161.140971 245.257224,161" id="Fill-229" fill="#E5B79E"></path>
            <path d="M244.999857,166 C245.036803,166.249844 237.918479,169.611805 233.326359,170.378513 C233.304807,170.381636 233,171 233,171 C233,171 240.547825,170.923485 242.270447,169.318239 C243.311102,168.348532 244.999857,166 244.999857,166" id="Fill-231" fill="#E5B79E"></path>
            <path d="M276,53.0005667 C276.75067,51.6541455 277.562771,50.3319025 278.437804,49.0323266 C300.873988,15.6558911 350.12751,15.6558911 372.562196,49.0323266 C373.437229,50.3319025 374.24933,51.6541455 375,53.0005667 C374.24933,54.3454767 373.437229,55.6692308 372.562196,56.9688068 C350.12751,90.3437311 300.873988,90.3437311 278.437804,56.9688068 C277.562771,55.6692308 276.75067,54.3454767 276,53.0005667" id="Fill-233" fill="#FFFFFF"></path>
            <path d="M276,53.0005667 C276.75067,51.6541455 277.562771,50.3319025 278.437804,49.0323266 C300.873988,15.6558911 350.12751,15.6558911 372.562196,49.0323266 C373.437229,50.3319025 374.24933,51.6541455 375,53.0005667 C374.24933,54.3454767 373.437229,55.6692308 372.562196,56.9688068 C350.12751,90.3437311 300.873988,90.3437311 278.437804,56.9688068 C277.562771,55.6692308 276.75067,54.3454767 276,53.0005667 Z" id="Stroke-235" stroke="#CBCBCB" stroke-width="2"></path>
            <path d="M339,53.0007416 C339,45.2683689 332.731963,39 325,39 C317.268037,39 311,45.2683689 311,53.0007416 C311,60.7331144 317.268037,67 325,67 C332.731963,67 339,60.7331144 339,53.0007416 Z" id="Stroke-237" stroke="#CBCBCB" stroke-width="2"></path>
            <path d="M294.620383,84 C294.462897,84 294.303911,83.9393527 294.182422,83.818058 C293.939443,83.5739525 293.939443,83.1767124 294.180922,82.9310907 L355.939403,20.183839 C356.180882,19.9397335 356.573847,19.9382173 356.816825,20.1823228 C357.059803,20.4264284 357.061303,20.8236684 356.819825,21.0692901 L295.059843,83.8165418 C294.939854,83.9393527 294.779368,84 294.620383,84" id="Fill-239" fill="#F03434"></path>
            <path d="M356.620713,20 L356.620713,20 C356.250384,20 355.902729,20.1429034 355.641232,20.4046423 L293.401887,82.6563838 C292.863777,83.1933998 292.8668,84.0658629 293.406421,84.5998704 C293.666407,84.8586008 294.012551,85 294.379856,85 C294.750184,85 295.097839,84.8570966 295.359337,84.5953577 L357.598682,22.3436162 C358.13528,21.8050959 358.133768,20.9341371 357.594147,20.4001296 C357.334162,20.1413992 356.988018,20 356.620713,20 M356.620713,20.7521233 C356.779425,20.7521233 356.939649,20.8122932 357.062084,20.9326329 C357.306954,21.1748166 357.306954,21.5689292 357.063595,21.8126172 L294.82425,84.0658629 C294.701815,84.1877068 294.541591,84.2478767 294.379856,84.2478767 C294.221144,84.2478767 294.06092,84.1877068 293.939997,84.0673671 C293.695126,83.8251834 293.693615,83.4310708 293.936973,83.1873828 L356.176319,20.9341371 C356.298754,20.8122932 356.460489,20.7521233 356.620713,20.7521233" id="Fill-241" fill="#F03434"></path>
        </g>
    </g>
</svg>