<!-- by Tanja Rohlfs (http://tanjarohlfs.de/) - license: CC-BY-NC-ND (see: https://creativecommons.org/licenses/by-nc-nd/4.0/) -->
<svg width="300" height="300" xmlns="http://www.w3.org/2000/svg" xmlns:xlink="http://www.w3.org/1999/xlink"><defs><path id="a" d="M.49.126h26.466V43.85H.49z"/><path id="c" d="M0 .617h26.468v42.97H0z"/><path id="e" d="M0 272h181V0H0z"/></defs><g transform="translate(60 17)" fill="none" fill-rule="evenodd"><g transform="translate(154 112)"><mask id="b" fill="#fff"><use xlink:href="#a"/></mask><path d="M.49 23.55c0 11.32.645 20.3 8.344 20.3 7.698 0 18.016-10.542 18.016-21.862 0-11.32 1.44-21.862-6.258-21.862C12.893.126.49 12.23.49 23.55" fill="#F7DAD2" mask="url(#b)"/></g><path d="M163 148c.645-.34 2.439-32.287 7.678-28.722 2.304 1.569 3.71 5.105 3.227 6.806" fill="#E59993"/><g transform="translate(0 112)"><mask id="d" fill="#fff"><use xlink:href="#c"/></mask><path d="M26.468 23.636c0 11.125-.646 19.95-8.345 19.95-7.698 0-18.016-10.36-18.016-21.485C.107 10.977-1.333.617 6.365.617s20.103 11.895 20.103 23.02" fill="#F7DAD2" mask="url(#d)"/></g><path d="M159 137c0 56.333-30.892 102-69 102-38.108 0-69-45.667-69-102S51.892 35 90 35c38.108 0 69 45.667 69 102" fill="#F7DAD2"/><mask id="f" fill="#fff"><use xlink:href="#e"/></mask><path fill="#F7DAD2" mask="url(#f)" d="M72 272h37v-40H72z"/><path d="M72 244l.15 6.04c-.021 2.386 36.65 2.71 36.67.325L109 244H72z" fill="#C69C87" mask="url(#f)"/><path d="M17 147c-.66-.333-4.25-31.213-9.604-27.725-2.356 1.535-3.794 4.994-3.299 6.66" fill="#E59993" mask="url(#f)"/><path d="M32 118.347c1.277-1.251 2.64-2.317 4.05-3.333a52.685 52.685 0 012.18-1.429 40.103 40.103 0 012.316-1.26c3.163-1.553 6.913-2.501 10.64-2.298 3.716.218 7.177 1.375 10.302 2.92 3.117 1.59 5.972 3.564 8.512 6.053-3.499-.434-6.723-1.322-9.9-2.032-3.167-.72-6.224-1.343-9.188-1.524-2.96-.152-5.883.217-9.02.902-3.136.658-6.398 1.61-9.892 2.001" fill="#6B6867" mask="url(#f)"/><path d="M50.764 134c-2.152 0-4.553-.663-7.126-2.436-.114-.08-.198-.139-.251-.169a.749.749 0 01-.301-.998c.19-.354.616-.5.978-.32.079.04.224.133.425.272 4.166 2.871 8.315 2.905 12.336.095a.75.75 0 011.04.179.736.736 0 01-.181 1.03c-1.777 1.242-4.14 2.347-6.92 2.347" fill="#000" mask="url(#f)"/><path d="M104 167.713c0-1.049-8.175-35.452-8.457-36.173-.282-.72-11.804-.72-12.086 0-.282.721-8.457 34.65-8.457 36.173 0 5.716 29 5.716 29 0" fill="#E59993" mask="url(#f)"/><path d="M60 177s.671 9.39 1.404 9.095c.733-.294 8.831-1.41 9.857-.823 1.027.588 1.906 1.911 2.785 1.764.88-.146 3.08-.735 3.08-.735 2.345.735 4.837-.147 4.837-.147s1.026.736 2.052.882c1.026.147 4.985 1.272 4.985.883v-8.967L60 177zm55.489 0s4.469 9.308 1.483 8.93c-.773-.098-8.154-1.241-9.167-.659-1.013.583-1.882 1.895-2.75 1.75-.87-.147-3.04-.73-3.04-.73-2.316.73-4.777-.145-4.777-.145s-1.013.728-2.026.874c-1.014.146-5.212 1.336-5.212.874v-8.889L115.489 177z" fill="#D8D8D8" mask="url(#f)"/><path d="M21.55 123c-.07-1.303-.1-2-.1-2" stroke="#F1D5C3" stroke-width="2" mask="url(#f)"/><path d="M157.05 122.629c-2.717 11.471-14.093 62.014-23.043 81.507-.957 2.069-4.21 1.893-4.9-.267l-7.839-24.561c-.306-.97-1.248-1.657-2.343-1.71-1.684-.092-4.402-1.153-4.003.351.543 2.107 2.687 7.175 3.177 7.87 4.7 6.67 3.276 19.958 2.51 28.209a2.27 2.27 0 01-.283.908c-15.747 27.569-48.07 24.096-62.431-.183a2.16 2.16 0 01-.307-.939c-.765-8.25-2.182-21.524 2.511-28.187.49-.694 1.233-3.274 1.777-5.373.382-1.465-.835-2.855-2.443-2.855-.053 0-.1.008-.153.008-1.102.054-2.036.74-2.342 1.71l-7.84 24.561c-.689 2.16-3.95 2.336-4.9.267-9.064-19.722-19.62-68.83-21.32-79.66a2.288 2.288 0 00-.054-.244c.237-.405.52-1.305.919-2.962 16.26-67.822 114.773-95.581 132.871-.229.138.725.284 1.306.437 1.771v.008zm8.537-82.843c-3.79-11.945-43.722-35.11-81.28-35.774-37.56-.664-66.712 26.004-72.913 30.98-5.956 4.77-2.473 72.914-1.454 79.348.015.122 6.407 4.732 9.156 6.632.145 2.092.59 7.786.658 8.831 1.592 14.517 2.151 54.748 7.15 76.47.046.199.115.39.215.573 7.832 14.707 25.332 27.164 34.802 33.33 14.225 9.282 41.234 8.19 50.926 2.123 6.362-3.985 28.188-13.105 34.535-23.654 6.568-10.899 13.26-80.98 12.685-95.673a1.03 1.03 0 00-.046-.267c1.753-2.076 4.15-6 7.549-7.686 0 0 1.806-63.296-1.983-75.233z" fill="#D8D8D8" mask="url(#f)"/><path d="M65 190s5.334 11 24.5 11 24.5-10.667 24.5-10.667" fill="#CC7B71" mask="url(#f)"/><path d="M93.634 196a136.1 136.1 0 01-3.445-.044c-.315-.007-.54-.013-.66-.013-.178 0-.403.006-.719.013-13.55.329-22.396-1.24-25.577-4.545a.862.862 0 01-.016-1.162.732.732 0 011.086-.016c1.644 1.708 7.016 4.507 24.472 4.081.332-.008.57-.014.696-.014.185 0 .421.006.754.014 17.463.43 22.828-2.373 24.472-4.081a.732.732 0 011.086.016.862.862 0 01-.016 1.162c-2.903 3.016-10.523 4.589-22.133 4.589" fill="#823C37" mask="url(#f)"/><path d="M54.77 186a.78.78 0 01-.758-.92c.895-5.04 9.27-15.36 9.626-15.797a.762.762 0 011.083-.104.79.79 0 01.102 1.1c-.084.104-8.473 10.439-9.296 15.078a.773.773 0 01-.757.643m69.46 0a.773.773 0 01-.757-.643c-.823-4.64-9.212-14.974-9.296-15.078a.79.79 0 01.102-1.1.762.762 0 011.083.104c.357.437 8.731 10.757 9.626 15.798a.78.78 0 01-.758.919" fill="#D99380" mask="url(#f)"/><path d="M75 207c0 2.667 28 2.667 28 0" stroke="#DBD2D1" stroke-width="7" mask="url(#f)"/><path d="M59 127c0 3.314-3.582 6-8 6s-8-2.686-8-6 3.582-6 8-6 8 2.686 8 6" fill="#FFF" mask="url(#f)"/><path d="M56 126a5 5 0 11-9.999.001A5 5 0 0156 126" fill="#303349" mask="url(#f)"/><path d="M60.877 124.603a.756.756 0 01-1.044.212c-4.385-2.938-8.793-3.708-13.104-2.28-3.236 1.079-5.226 3.027-5.444 3.246a.767.767 0 01-.894.128.772.772 0 01-.375-.83l.901-4.093a.753.753 0 01.894-.581.76.76 0 01.57.906l-.435 1.993c2.944-2.061 9.364-5.157 17.331-.611a216.29 216.29 0 01-.218-1.85.753.753 0 01.654-.838.757.757 0 01.834.657c.127 1.072.345 2.824.382 3.209a.753.753 0 01-.052.732" fill="#000" mask="url(#f)"/><path d="M48.755 139c-.38 0-.708-.304-.75-.716-.046-.44.252-.839.668-.888 9.118-1.077 15.03-6.162 15.09-6.213a.727.727 0 011.064.11.838.838 0 01-.102 1.13c-.253.223-6.299 5.44-15.885 6.572a.759.759 0 01-.085.005" fill="#D99380" mask="url(#f)"/><path d="M146 118.347c-3.494-.391-6.756-1.343-9.892-2-3.137-.686-6.06-1.055-9.02-.903-2.964.181-6.02.804-9.188 1.524-3.177.71-6.401 1.598-9.9 2.032 2.54-2.489 5.395-4.464 8.512-6.054 3.125-1.544 6.586-2.7 10.303-2.919 3.726-.203 7.476.745 10.639 2.299.795.39 1.557.822 2.316 1.26.738.46 1.47.933 2.18 1.428 1.41 1.016 2.773 2.082 4.05 3.333" fill="#6B6867" mask="url(#f)"/><path d="M128.228 134c-2.777 0-5.137-1.105-6.912-2.346a.736.736 0 01-.18-1.03.748.748 0 011.038-.179c4.017 2.808 8.162 2.776 12.323-.095.201-.14.346-.232.425-.272a.747.747 0 011 .332.736.736 0 01-.326.987c-.054.03-.136.09-.249.168-2.57 1.773-4.97 2.435-7.119 2.435" fill="#000" mask="url(#f)"/><path d="M120 127c0 3.314 3.582 6 8 6s8-2.686 8-6-3.582-6-8-6-8 2.686-8 6" fill="#FFF" mask="url(#f)"/><path d="M123 126a5 5 0 109.999.001A5 5 0 00123 126" fill="#303349" mask="url(#f)"/><path d="M130.245 139a.759.759 0 01-.085-.005c-9.587-1.132-15.633-6.35-15.885-6.571a.838.838 0 01-.102-1.13.726.726 0 011.064-.111c.06.051 5.972 5.137 15.09 6.213.416.05.714.448.668.888-.042.412-.37.716-.75.716" fill="#D99380" mask="url(#f)"/><g mask="url(#f)"><path d="M51.804 34.737l-20.567 17.98c-.36.315-.038.904.418.762l12.388-3.829c.446-.138.772.427.431.75L30.477 63.688c-.324.308-.042.853.394.76L39.03 62.7c.405-.087.694.387.436.713l-7.544 9.523c-.275.348.069.843.486.701l19.075-6.52a.441.441 0 01.543.604c-1.73 3.726-7.928 17.189-6.502 15.75 1.458-1.473 14.232-10.998 17.223-13.222a.44.44 0 01.697.32l1.176 12.77a.44.44 0 00.706.314l16.43-12.598a.441.441 0 01.707.39l-1.139 14.363c-.033.426.49.651.771.33l10.83-12.416a.44.44 0 01.753.165l1.873 6.217a.44.44 0 00.728.191c2.333-2.271 11.793-11.387 12.372-10.51.545.825 1.763 5.277 2.175 6.818a.44.44 0 00.623.28l3.888-1.963a.44.44 0 01.476.053l9.822 8.06a.44.44 0 00.705-.235l2.304-9.017a.44.44 0 01.699-.238l6.47 5.114a.44.44 0 00.709-.288l.884-6.247" fill="#D8D8D8"/><path d="M51.804 34.737l-20.567 17.98c-.36.315-.038.904.418.762l12.388-3.829c.446-.138.772.427.431.75L30.477 63.688c-.324.308-.042.853.394.76L39.03 62.7c.405-.087.694.387.436.713l-7.544 9.523c-.275.348.069.843.486.701l19.075-6.52a.441.441 0 01.543.604c-1.73 3.726-7.928 17.189-6.502 15.75 1.458-1.473 14.232-10.998 17.223-13.222a.44.44 0 01.697.32l1.176 12.77a.44.44 0 00.706.314l16.43-12.598a.441.441 0 01.707.39l-1.139 14.363c-.033.426.49.651.771.33l10.83-12.416a.44.44 0 01.753.165l1.873 6.217a.44.44 0 00.728.191c2.333-2.271 11.793-11.387 12.372-10.51.545.825 1.763 5.277 2.175 6.818a.44.44 0 00.623.28l3.888-1.963a.44.44 0 01.476.053l9.822 8.06a.44.44 0 00.705-.235l2.304-9.017a.44.44 0 01.699-.238l6.47 5.114a.44.44 0 00.709-.288l.884-6.247" stroke="#AAA9A9"/></g><path d="M122 12.15L110.756 1.36l1.02 6.53-8.314-4.737.308 4.545L91.806.695l2.07 8.399L74.546 0l4.856 6.685-12.941-4.989 1.475 6.744-13.98-6.301 6.892 7.093-17.577-5.795s8.137 7.404 7.455 7.083c-.682-.321-17.39 2.526-16.707 2.846.682.322 14.327 2.634 14.327 2.634" fill="#D8D8D8" mask="url(#f)"/><path d="M146.205 132.619c0 3.897-3.594 7.07-8.014 7.07h-14.2c-18.39 0-19.927-9.658-19.927-18.708 0-4.73 1.484-5.7 3.709-5.708l30.977-.123h.038c2.126 0 4.16.809 5.574 2.226 1.186 1.194 1.843 2.727 1.843 4.313v10.93zm-92.189 7.07H39.81c-4.413 0-8.006-3.173-8.006-7.07v-10.93c0-1.586.65-3.119 1.842-4.313 1.407-1.417 3.441-2.226 5.575-2.226h.03l30.977.123c2.233.008 3.717.979 3.717 5.708 0 9.05-1.545 18.708-19.928 18.708zM167.96 112l-19.46 10.013v-.324c0-2.21-.896-4.32-2.524-5.946-1.835-1.848-4.458-2.903-7.188-2.903h-.046l-30.977.123c-5.995.023-5.995 6.038-5.995 8.018 0 .33 0 .685.008 1.055H76.23c.008-.37.008-.724.008-1.055 0-1.98 0-7.995-5.995-8.018l-30.985-.123h-.038c-2.738 0-5.353 1.055-7.196 2.903-1.62 1.625-2.515 3.744-2.515 5.946v.332L10.04 112 9 114.064l20.509 10.544v8.01c0 5.169 4.618 9.382 10.3 9.382h14.207c19.002 0 21.755-10.383 22.153-17.653h25.67c.397 7.27 3.15 17.653 22.152 17.653h14.2c5.682 0 10.308-4.213 10.308-9.381v-8.01L169 114.063 167.96 112z" fill="#8C8786" mask="url(#f)"/><path d="M138.613 125.91a.754.754 0 01-.894-.128c-.33-.333-8.095-7.975-18.555-.967a.746.746 0 01-1.037-.212.704.704 0 01-.097-.604c-.008-.008 0-.015 0-.015v-.038c.007-.128.248-2.114.39-3.284a.759.759 0 01.841-.657c.406.053.699.43.654.838-.068.551-.158 1.26-.226 1.872 7.983-4.583 14.418-1.48 17.362.59l-.436-1.994a.76.76 0 01.571-.906.75.75 0 01.894.581l.9 4.093a.757.757 0 01-.367.83" fill="#000" mask="url(#f)"/></g></svg>