<!-- by Tanja Rohlfs (http://tanjarohlfs.de/) - license: CC-BY-NC-ND (see: https://creativecommons.org/licenses/by-nc-nd/4.0/) -->
<svg width="300" height="300" xmlns="http://www.w3.org/2000/svg" xmlns:xlink="http://www.w3.org/1999/xlink"><defs><path id="a" d="M0 268h207V0H0z"/></defs><g transform="translate(47 20)" fill="none" fill-rule="evenodd"><path d="M10.33 84c-1.878 3.743 4.873 45 4.873 45l16.017-.544s7.796-33.515 6.669-33.515C36.762 94.941 10.33 84 10.33 84m182.34 0c1.879 3.743-4.873 45-4.873 45l-16.016-.544s-7.797-33.515-6.67-33.515C166.238 94.941 192.67 84 192.67 84" fill="#331709"/><mask id="b" fill="#fff"><use xlink:href="#a"/></mask><path fill="#E0B094" mask="url(#b)" d="M84 268h36v-29H84z"/><path d="M84 242.532v7.026c12.22 2.1 24.223 1.968 36-.805l-.012-6.753-35.988.532z" fill="#AA5D48" mask="url(#b)"/><path d="M30.332 128.773c-1.574-5.264-7.483-8.218-12.63-6.061-2.271.952-5.237 2.388-4.619 6.498 1.592 10.568 5.115 15.603 4.614 19.947-.501 4.344 3.85 19.124 14.939 19.8 11.09.678 6.363-6.99 6.363-6.99l-8.667-33.194zm141.336 0c1.574-5.264 7.483-8.218 12.63-6.061 2.271.952 5.237 2.388 4.619 6.498-1.592 10.568-5.116 15.603-4.614 19.947.501 4.344-3.85 19.124-14.94 19.8-11.088.678-6.363-6.99-6.363-6.99l8.668-33.194z" fill="#E0B094" mask="url(#b)"/><path d="M172 137c0 59.094-32.46 107-72.5 107S27 196.094 27 137C27 77.905 59.46 30 99.5 30S172 77.905 172 137" fill="#E0B094" mask="url(#b)"/><path d="M107.854 134c0 1.072 7.146 33.214 7.146 33.214S107.448 176 102.05 176h-.1c-5.4 0-12.95-8.786-12.95-8.786s7.146-32.142 7.146-33.214" fill="#CE6F65" mask="url(#b)"/><path d="M108.943 225.028c-2.366.308-5.008.511-7.964.586-2.567-.067-4.896-.225-7.008-.473-23.757-2.707-20.458-15.519-20.458-19.557 0-4.436 6.173-14.278 27.466-14.278 21.294 0 27.466 9.842 27.466 14.278 0 3.985 3.21 16.504-19.502 19.444zm62.671-100.489c-.186.714-8.642 40.023-8.642 40.023s-12.942 29.473-21.48 29.473c-7.822 0-12.584-15.466-23.585-15.466-4.471 0-12.636 1.203-16.928 1.888-4.291-.685-12.457-1.888-16.927-1.888-11.002 0-15.763 15.466-23.585 15.466-8.538 0-21.48-29.473-21.48-29.473S28.307 117.714 28.12 117L25 122.329s4.195 41.526 5.381 50.315c1.381 10.15 16.681 47.309 35.788 61.813 12.106 9.195 24.727 12.624 32.004 13.39 1.067.113 1.97.09 2.761.128 1.784.098 2.851-.127 2.851-.127 7.277-.767 20.428-3.534 32.004-13.391 17.107-14.55 34.02-51.203 34.4-61.444.38-10.248 5.811-50.373 5.811-50.373l-4.386 1.9z" fill="#331709" mask="url(#b)"/><path d="M51.635 67.425c-.09.07-.18.14-.26.21-.01-.09-.01-.18-.01-.27l.27.06" fill="#000" mask="url(#b)"/><path d="M51.635 67.425c-.09.07-.18.14-.26.21-.01-.09-.01-.18-.01-.27l.27.06" fill="#000" mask="url(#b)"/><path d="M51.635 67.425c-.09.07-.18.14-.26.21-.01-.09-.01-.18-.01-.27l.27.06" fill="#000" mask="url(#b)"/><path d="M160.926 67.253c-.07-.06-.15-.113-.23-.173.233-.093.273-.024.23.173m-117.538 0c-.043-.198-.002-.266.23-.173-.08.06-.159.112-.23.173m156.455 32.674c4.167-4.448 5.214-11.907 2.394-17.262 2.978-3.39 4.763-7.751 4.763-12.525 0-7.895-4.886-14.684-11.927-17.766 1.068-11.768-9.169-22.416-21.813-22.021-.765-12.125-14.04-21.226-27.511-18.202-2.206-3.622-8.211-5.989-13.765-5.308-4.26-10.748-21.86-6.768-29.827-2.008-7.97-4.778-25.56-8.725-29.825 2.008-5.551-.676-11.562 1.684-13.766 5.308-13.466-3.02-26.752 6.074-27.51 18.202-12.637-.396-22.892 10.256-21.814 22.02-11.991 4.639-4.701 23.24-8.65 34.649-6.18 17.856 38.168 21.469 35.706 20.331 7.22 3.335 14.919-2.497 18.809-13.13 2.406-6.577 7.113-6.794 13.818-3.82 4.918 2.183 12.547.729 15.413-2.746 6.739 6.444 28.904 6.444 35.64 0 3.047 3.73 12.42 4.594 17.8 2.17 6.106-2.752 9.022-2.848 11.215 3.159 4.147 11.36 14.611 18.98 22.055 16.666 2.068-.642.253 2.626 2.37 2.329 2.933-.412 24.906-2.476 26.425-12.054" fill="#331709" mask="url(#b)"/><path d="M122 198s-2.297 8.006-8.06 10.989c-2.716 1.406-20.652 1.289-22.88 0C83.895 204.845 83 198 83 198" fill="#CE6F65" mask="url(#b)"/><path d="M75 134.5c0 3.038-5.372 5.5-12 5.5-6.627 0-12-2.462-12-5.5s5.373-5.5 12-5.5c6.628 0 12 2.462 12 5.5" fill="#FFF" mask="url(#b)"/><path d="M69 134.5a5.5 5.5 0 11-11 0 5.5 5.5 0 0111 0" fill="#000" mask="url(#b)"/><path d="M51.585 133L50 131.278c2.447-2.66 7.288-4.258 12.95-4.278 5.676-.023 10.567 1.58 13.05 4.278L74.415 133c-2.04-2.216-6.444-3.58-11.459-3.564-4.93.017-9.393 1.416-11.37 3.564" fill="#000" mask="url(#b)"/><path d="M121 198H84s7.344 6 18.5 6c11.156 0 18.5-6 18.5-6" fill="#981709" mask="url(#b)"/><path d="M85.342 198.713c2.355 1.394 8.66 4.574 17.158 4.574 8.497 0 14.803-3.18 17.159-4.574H85.342zM102.5 204c-11.087 0-18.54-5.305-18.614-5.359L83 198h39l-.886.641c-.073.054-7.527 5.359-18.614 5.359z" fill="#84151E" mask="url(#b)"/><path d="M109 214.263v10.148c-2.37.31-5.017.514-7.979.589-2.572-.068-4.905-.226-7.021-.475v-10.262c0-1.244 1.01-2.263 2.243-2.263h10.514c1.234 0 2.243 1.019 2.243 2.263" fill="#331709" mask="url(#b)"/><path d="M129 134.5c0 3.038 5.372 5.5 12 5.5s12-2.462 12-5.5-5.372-5.5-12-5.5-12 2.462-12 5.5" fill="#FFF" mask="url(#b)"/><path d="M135 134.5a5.5 5.5 0 1011 0 5.5 5.5 0 00-11 0" fill="#000" mask="url(#b)"/><path d="M152.415 133c-4.375-4.77-18.455-4.77-22.83 0L128 131.272c5.225-5.696 20.777-5.695 26 0L152.415 133z" fill="#000" mask="url(#b)"/><path d="M125 126c2.491-2.535 5.34-4.538 8.462-6.155 3.133-1.553 6.64-2.712 10.37-2.83 3.725-.149 7.433.808 10.6 2.344a34.192 34.192 0 018.568 5.99c-3.5-.389-6.762-1.306-9.908-1.963-3.146-.677-6.102-1.065-9.069-.964-2.968.08-6.012.695-9.166 1.414-3.16.73-6.37 1.644-9.857 2.164m-43 0c-3.488-.52-6.696-1.434-9.857-2.164-3.154-.719-6.198-1.334-9.166-1.414-2.967-.1-5.922.287-9.068.964-3.147.657-6.409 1.574-9.909 1.963a34.182 34.182 0 018.568-5.99c3.167-1.536 6.875-2.493 10.6-2.344 3.73.118 7.236 1.277 10.37 2.83 3.122 1.617 5.97 3.62 8.462 6.155" fill="#331709" mask="url(#b)"/><path d="M158.963 145.269c0 .41-.335.746-.747.746h-35.948a.754.754 0 01-.748-.746V120.73c0-.41.344-.746.748-.746h35.948c.412 0 .747.336.747.746v24.538zm-77.21 0c0 .41-.344.746-.748.746H45.057a.75.75 0 01-.747-.746V120.73a.75.75 0 01.747-.746h35.948c.404 0 .748.336.748.746v24.538zM181 120.478l-19.047.194a3.738 3.738 0 00-3.737-3.672h-35.948a3.74 3.74 0 00-3.738 3.731v9.724H84.743v-9.724A3.74 3.74 0 0081.005 117H45.057a3.736 3.736 0 00-3.737 3.731v.06L24 121.971l1.073.837 16.247.976v21.485A3.736 3.736 0 0045.057 149h35.948a3.74 3.74 0 003.738-3.731V133.44h33.787v11.829a3.74 3.74 0 003.738 3.731h35.948a3.735 3.735 0 003.737-3.731v-21.612l18.903-1.738.144-1.441z" fill="#000" mask="url(#b)"/><path stroke="#CE6F65" stroke-width="2" mask="url(#b)" d="M83 197.498l39 .004"/><path d="M18 129s7.414 1.982 8.333 9.87c.943 8.088.61 18.13.61 18.13M186 129s-7.414 1.982-8.334 9.87c-.942 8.088-.609 18.13-.609 18.13" fill="#C98258" mask="url(#b)"/></g></svg>