<!-- by Tanja Rohlfs (http://tanjarohlfs.de/) - license: CC-BY-NC-ND (see: https://creativecommons.org/licenses/by-nc-nd/4.0/) -->
<svg width="300" height="300" xmlns="http://www.w3.org/2000/svg" xmlns:xlink="http://www.w3.org/1999/xlink"><defs><path id="a" d="M.737.122h28.51v45.66H.736z"/><path d="M81.41.146h-1.176C67.588.082-5.038-2.63.338 91.918l80.491-12.014 80.485 12.014c5.034-88.562-58.38-91.79-76.81-91.79-1.25 0-2.293.014-3.094.018" id="c"/><path d="M81.41.146h-1.176C67.588.082-5.038-2.63.338 91.918l80.491-12.014 80.485 12.014c5.034-88.562-58.38-91.79-76.81-91.79-1.25 0-2.293.014-3.094.018" id="e"/><path d="M81.41.146h-1.176C67.588.082-5.038-2.63.338 91.918l80.491-12.014 80.485 12.014c5.034-88.562-58.38-91.79-76.81-91.79-1.25 0-2.293.014-3.094.018" id="g"/><path d="M81.41.146h-1.176C67.588.082-5.038-2.63.338 91.918l80.491-12.014 80.485 12.014c5.034-88.562-58.38-91.79-76.81-91.79-1.25 0-2.293.014-3.094.018" id="i"/><path id="k" d="M0 279h184.355V.743H0z"/></defs><g fill="none" fill-rule="evenodd"><path fill="#F1D5C3" d="M130 289h39v-42h-39z"/><g transform="translate(213.11 133.082)"><mask id="b" fill="#fff"><use xlink:href="#a"/></mask><path d="M.737 24.583c0 11.821.695 21.2 8.988 21.2 8.292 0 19.406-11.01 19.406-22.83 0-11.822 1.551-22.83-6.74-22.83C14.097.122.736 12.762.736 24.582" fill="#F1D5C3" mask="url(#b)"/></g><path d="M86.51 157.665c0 11.82-.697 21.2-8.988 21.2-8.293 0-19.407-11.01-19.407-22.831s-1.55-22.83 6.741-22.83c8.293 0 21.654 12.64 21.654 24.46" fill="#F1D5C3"/><path d="M222.988 144.738c0 57.234-32.626 103.63-72.872 103.63-40.245 0-72.87-46.396-72.87-103.63 0-57.233 32.625-103.629 72.87-103.629 40.246 0 72.872 46.396 72.872 103.63" fill="#F1D5C3"/><path d="M151.354 252.94v.016s-.025 0-.065-.008c.016 0 .04-.008.065-.008m-.13 0c.024 0 .049.008.065.008-.04.008-.065.008-.065.008v-.016zm.081-29.004c-.032 0-.073 0-.121.008.016-.008.024-.008.04-.008h.081z" fill="#3F2E2B"/><path d="M121.406 198.65a.854.854 0 01.081-.098c.032-.048.065-.104.105-.153-.064.08-.121.161-.186.25" fill="#5B1813"/><path d="M92.162 127.452c7.388-1.81 28.686-.176 37.737-1.748 4.874-.848 1.348 3.42 1.348 3.42s-9.474 2.417-19.588 2.062c-12.898-.454-19.497-3.734-19.497-3.734m116.368-4.27c-10.371-3.003-22.003-5.502-37.96 1.943-4.483 2.09 1.617-5.811 1.617-5.811s6.9-3.841 17.015-3.486c12.898.453 19.327 7.354 19.327 7.354m-73.787 2.075c.032.033.063.067.092.103-.072-.095-.079-.102-.022-.02.036.067.122.16.13.237-.046-.113-.05-.122-.015-.028a2.762 2.762 0 01.132.537c-.017-.126-.02-.136-.008-.032.005.093.014.187.017.28a6.365 6.365 0 01-.032.845c.02-.206-.024.13-.032.167a3.084 3.084 0 01-.142.474c.05-.114.053-.124.01-.033-.044.078-.083.158-.133.234a1.79 1.79 0 01-.077.11c.074-.095.08-.105.014-.029-.062.057-.119.141-.193.183.213-.12-.054.019-.095.04-.42.226-.586.839-.326 1.241a.93.93 0 001.243.326c1.074-.58 1.486-1.773 1.567-2.92.075-1.067-.088-2.187-.845-2.997-.324-.348-.961-.352-1.285 0a.925.925 0 000 1.282m15.62 81.38s-10.673-.301-11.002.906c-.328 1.206-3.94 10.857-3.94 10.857l14.942 9.953v-21.716z" fill="#3F2E2B"/><path d="M160.016 146.495s6.2 26.09 5.66 27.435c-.54 1.344-11.995 4.976-15.23 4.976h-.538c-3.234 0-14.69-3.632-15.228-4.976-.54-1.345 5.66-27.435 5.66-27.435h19.676z" fill="#E5897C"/><path d="M149.993 206.637s10.674-.301 11.002.906c.328 1.206 3.941 10.857 3.941 10.857l-14.943 9.953v-21.716z" fill="#3F2E2B"/><path d="M181.6 197.73c-.513-1.65-3.953-3.288-3.684-.491-3.709 1.326-53.849 2.116-55.282.379 0 0 .008-.009.008-.017 1.133-1.96-1.717-2.474-2.674-.975-1.43.92-1.119 3.643.88 2.733 1.091.798 5.026 1.749 21.24 1.749 2.488 0 5.267-.016 8.369-.064 20.721-.331 27.176-1.048 29.228-1.863.939 1.029 2.656-.275 1.915-1.45" fill="#84312F"/><path d="M150.562 84.21c-.13-.008-.259-.008-.388-.016.13 0 .259-.008.388-.008v.024zm-.388-.016c-.13.008-.258.008-.388.016v-.024c.13 0 .259.008.388.008" fill="#FF6845"/><path d="M119.592 145.787c0 3.648-3.795 6.606-8.477 6.606s-8.477-2.958-8.477-6.606c0-3.649 3.795-6.606 8.477-6.606s8.477 2.957 8.477 6.606" fill="#FFFBFA"/><path d="M116.514 145.473a5.153 5.153 0 01-5.158 5.147 5.153 5.153 0 01-5.16-5.147 5.153 5.153 0 015.16-5.148 5.153 5.153 0 015.158 5.148" fill="#000"/><path d="M120.608 144.372c-.395 0-.793-.144-1.105-.436-5.41-5.064-10.762-5.316-15.906-.745a9.845 9.845 0 01-.366.315 1.614 1.614 0 01-2.005-2.529c.053-.041.127-.108.223-.195 6.421-5.704 13.618-5.42 20.265.802a1.613 1.613 0 01-1.106 2.788m-9.822 9.259c-2.08 0-3.982-.759-5.688-2.275a.402.402 0 01-.033-.569.405.405 0 01.57-.033c4.277 3.802 8.803 1.398 10.29.608l.16-.086a.403.403 0 11.376.714l-.156.083c-1.956 1.039-3.799 1.558-5.52 1.558" fill="#000"/><path d="M178.67 145.787c0 3.648 3.795 6.606 8.477 6.606 4.681 0 8.477-2.958 8.477-6.606 0-3.649-3.796-6.606-8.477-6.606-4.682 0-8.477 2.957-8.477 6.606" fill="#FFFBFA"/><path d="M182.145 145.473a5.153 5.153 0 005.159 5.147 5.152 5.152 0 005.158-5.147 5.153 5.153 0 00-5.158-5.148 5.153 5.153 0 00-5.16 5.148" fill="#000"/><path d="M177.653 144.372a1.612 1.612 0 01-1.106-2.788c6.648-6.222 13.845-6.505 20.266-.802.096.086.17.154.222.195a1.613 1.613 0 01-2.004 2.53 9.114 9.114 0 01-.367-.316c-5.144-4.569-10.495-4.32-15.906.745a1.61 1.61 0 01-1.105.436m9.824 9.259c-1.721 0-3.564-.52-5.52-1.558l-.156-.083a.403.403 0 11.374-.713l.162.084c1.487.79 6.013 3.195 10.29-.607a.403.403 0 11.537.602c-1.705 1.516-3.608 2.275-5.687 2.275" fill="#000"/><path d="M174.895 222.436l-25.319 1.758-25.318-1.758s-9.904-25.892-10.139-26.594c-.234-.709 9.194-4.474 11.553-4.707 2.359-.234 4.483.943 8.022 1.878 2.811.75 12.15-.58 15.882-1.153 3.74.572 13.08 1.903 15.891 1.153 3.53-.935 5.655-2.112 8.014-1.878 2.359.233 11.795 3.998 11.56 4.707-.242.702-10.146 26.594-10.146 26.594zm44.1-108.963l-3.06 20.943 1.179 7.061s.234 25.184.234 27.304c0 2.112-11.318 29.649-13.209 29.649-1.882 0-8.49 1.878-11.084 1.177-2.593-.71-7.31-16.235-11.552-16.945-4.25-.71-16.278-3.063-19.34-2.821-2.973.226-10.81 2.878-12.587 3.047-1.769-.17-9.613-2.821-12.578-3.047-3.07-.242-15.099 2.112-19.34 2.821-4.25.71-8.967 16.236-11.56 16.945-2.594.701-9.194-1.177-11.084-1.177-1.883 0-13.209-27.537-13.209-29.65 0-2.12.242-27.303.242-27.303l1.18-7.061-3.07-20.943h-8.256l.945 15.534 2.827 46.36 15.568 33.89 25.003 43.127h66.673l24.995-43.128 15.568-33.89 2.827-46.36.945-15.533h-8.256z" fill="#3F2E2B"/><path d="M231.002 108.817L150.33 96.815l-80.68 12.002c-5.39-94.446 67.407-91.735 80.082-91.67h1.18c12.643-.065 85.48-2.792 80.091 91.67" fill="#F43D28"/><g transform="translate(70 17)"><mask id="d" fill="#fff"><use xlink:href="#c"/></mask><path d="M108.89 2.272c9.57 1.802 9.973 9.277-1.557 10.234-4.483 9.206-15.44 7.206-14.36-1.53-7.017-2.431-3.796-8.053 3.793-9.05 3.573-4.534 10.942-4.597 12.124.346" fill="#FFE176" mask="url(#d)"/></g><g transform="translate(70 17)"><mask id="f" fill="#fff"><use xlink:href="#e"/></mask><path d="M103.507 4.79a2.313 2.313 0 010 3.268 2.306 2.306 0 01-3.263 0 2.313 2.313 0 010-3.268 2.306 2.306 0 013.263 0" fill="#F43D28" mask="url(#f)"/></g><g transform="translate(70 17)"><mask id="h" fill="#fff"><use xlink:href="#g"/></mask><path d="M53.583 6.908c6.779 3.42 5.614 8.638-1.509 7.027-2.448 3.875-7.765 1.21-8.1-3.407-4.137-2.744-3.377-6.55 1.258-6.142 2.09-3.848 7.797-2.56 8.35 2.522" fill="#FFE176" mask="url(#h)"/></g><g transform="translate(70 17)"><mask id="j" fill="#fff"><use xlink:href="#i"/></mask><path d="M51.068 7.705c.856 1.139.96 2.31-.257 2.725-1.175.4-3.704.14-4.449-.953-.724-1.061.437-2.622 1.502-3.067 1.1-.459 2.374.192 3.204 1.295" fill="#E89A34" mask="url(#j)"/></g><g transform="translate(58 10)"><path d="M167.685 117.908c-10.605-10.018-55.142-16.59-75.511-16.59-20.37 0-64.9 6.57-75.503 16.59-8.14 7.692-8.441-17.388 2.483-28.922 9.817-10.342 44.171-11.645 72.639-12.42.126-.008.254-.008.38-.016.129.008.256.008.383.017 28.475.774 62.829 2.077 72.639 12.419 10.932 11.534 10.63 36.616 2.49 28.922" fill="#C12708"/><path d="M29.744 133.137c-.29 0-.584-.062-.863-.194l-16.517-7.78a2.005 2.005 0 01-.962-2.676 2.023 2.023 0 012.69-.957l16.517 7.78c1.009.475.857 1.337.38 2.34-.345.726-.489 1.487-1.245 1.487m124.466.403c-.75 0-.394-.592-.743-1.309-.485-1-.16-2.403-.137-2.511l15.993-7.693a2.024 2.024 0 012.698.935c.484 1 .064 2.202-.94 2.685l-15.993 7.692a2.014 2.014 0 01-.877.2" fill="#000"/><path fill="#D39279" d="M71.98 241.978l.16 4.432 39.494-.787-.16-3.645zm-56.034-82.116c-.71-.353-2.5-33.15-8.259-29.452-2.532 1.626-4.078 5.294-3.545 7.058m165.219 20.739c.71-.352 1.498-31.325 7.362-27.797 3.646 2.192 3.682 4.785 3.15 6.55"/><path d="M82.696 48.954l5.256-1.158s2.639 7.616-2.273 12.042c-6.542 5.897-17.265 1.878-23.299 8.941-3.637 4.258 1.038-3.061 5.325-9.547a24.206 24.206 0 0114.99-10.278" fill="#E5897C"/><path d="M33.983 28.998c3.726 0 6.813 1.953 9.81 3.85 3.108 1.967 6.041 3.836 9.656 3.726 4.862-.13 7.479-4.98 8.1-6.299l-3.928-2.088a21.283 21.283 0 00-15.932-1.68c-4.257 1.22-6.825 2.006-8.37 2.512a9.92 9.92 0 01.664-.021m19.2 8.384c-3.73 0-6.826-1.96-9.823-3.855-3.466-2.194-6.74-4.263-10.943-3.601-1.482.234-1.97.27-2.075-.2-.112-.504-.169-.756 11.124-3.991a22.1 22.1 0 0116.536 1.743l4.576 2.433-.132.334c-.113.284-2.838 6.968-8.975 7.133a9.22 9.22 0 01-.288.004m35.139-8.384c3.725 0 6.812 1.953 9.81 3.85 3.108 1.967 6.04 3.836 9.656 3.726 4.861-.13 7.478-4.98 8.1-6.299l-3.929-2.088a21.283 21.283 0 00-15.931-1.68c-4.258 1.22-6.825 2.006-8.37 2.512.223-.015.445-.021.664-.021m19.2 8.384c-3.73 0-6.827-1.96-9.823-3.855-3.466-2.194-6.743-4.263-10.944-3.601-1.48.234-1.969.27-2.075-.2-.112-.504-.168-.756 11.125-3.991a22.092 22.092 0 0116.536 1.743l4.576 2.433-.133.334c-.112.284-2.838 6.968-8.974 7.133a9.305 9.305 0 01-.288.004m-40.348.649c1.39.449 6.737 1.863 10.157-1.578 2.54-2.557 3.185-5.959 3.867-9.561.697-3.679 1.416-7.473 4.353-10.227-1.428.777-3.758 2.105-7.563 4.364a21.109 21.109 0 00-9.66 12.721l-1.154 4.281zm4.204 1.498c-2.58 0-4.683-.806-4.84-.868l-.335-.13 1.344-4.989A21.905 21.905 0 0177.574 20.34c10.09-5.99 10.237-5.778 10.53-5.352.273.398-.087.727-1.271 1.644-3.36 2.6-4.08 6.393-4.84 10.41-.675 3.562-1.373 7.246-4.088 9.978-1.95 1.962-4.4 2.51-6.527 2.51zm56.766-1.498c1.39.449 6.736 1.863 10.157-1.578 2.514-2.53 2.427-5.005 2.343-7.4-.088-2.48-.177-5.036 2.657-7.39-.901.278-2.512.96-5.277 2.603l-.381.226c-4.636 2.75-6.963 4.13-8.346 9.258l-1.153 4.281zm4.205 1.498c-2.58 0-4.684-.806-4.84-.868l-.336-.13 1.344-4.989c1.467-5.444 4.04-6.97 8.712-9.74l.38-.227c4.134-2.454 6.322-3.156 7.134-2.595a.364.364 0 01-.001.617c-3.47 2.303-3.387 4.677-3.291 7.427.086 2.446.183 5.218-2.576 7.995-1.95 1.962-4.4 2.51-6.526 2.51z" fill="#DD3218"/><path d="M42.795 46.559l-5.065-1.817s-3.595 7.218.709 12.232c5.733 6.68 16.883 4.058 21.96 11.83 3.063 4.685-.635-3.17-4.055-10.146a24.168 24.168 0 00-13.55-12.1" fill="#E5897C"/><path d="M46.127 61.587l2.131-1.32s2.346 2.943.876 5.647c-1.96 3.602-7.3 3.488-8.855 7.525-.936 2.434-.02-1.506.855-5.02a11.234 11.234 0 014.993-6.832" fill="#E5897C"/><path d="M28.206 66.687l-2.51-.017s-.457 3.728 2.216 5.27c3.561 2.054 8.057-.82 11.5 1.816 2.076 1.588-.773-1.297-3.363-3.837a11.314 11.314 0 00-7.843-3.232m114.849-7.024l5.458 1.214s-.887 8.323-7.467 10.336c-8.765 2.68-17.076-5.802-25.879-1.8-5.306 2.412 2.332-2.426 9.235-6.65a25.248 25.248 0 0118.653-3.1" fill="#E5897C"/><path d="M106.077 40.098l-3.96-3.93s-6.577 5.217-4.747 11.82c2.438 8.798 14.091 11.217 15.43 20.757.807 5.75.803-3.26.673-11.324a24.97 24.97 0 00-7.396-17.323" fill="#E5897C"/><path d="M72.161 51.939c4.47 8.568-2.679 14.826-10.646 9.318-8.608 4.45-14.897-2.666-9.363-10.595-4.47-8.568 2.679-14.827 10.646-9.319 8.609-4.45 14.897 2.666 9.363 10.596" fill="#FFE176"/><path d="M66.357 51.568c-.15 2.309-2.15 4.06-4.47 3.913-2.32-.148-4.08-2.14-3.93-4.449.148-2.308 2.15-4.06 4.469-3.911 2.32.147 4.08 2.14 3.93 4.447" fill="#E89A34"/><path d="M42.696 60.294c5.668 1.785 5.295 7.58-.556 8.63-1.793 5.642-7.616 5.27-8.67-.553-5.67-1.785-5.296-7.58.555-8.63 1.793-5.642 7.616-5.27 8.67.553" fill="#FFE176"/><path d="M40.02 62.637a2.558 2.558 0 01-.234 3.623c-1.07.936-2.7.832-3.64-.232a2.559 2.559 0 01.233-3.623 2.588 2.588 0 013.64.232" fill="#FF6845"/><path d="M137.291 60.058c-1.82 14.831-16.449 16.598-21.781 2.63-14.902-1.81-16.677-16.37-2.644-21.677 1.821-14.832 16.449-16.598 21.782-2.631 14.902 1.812 16.677 16.37 2.643 21.678" fill="#FFE176"/><path d="M130.206 54.533c-2.22 2.818-6.313 3.312-9.144 1.104a6.462 6.462 0 01-1.11-9.1c2.218-2.819 6.312-3.313 9.144-1.105a6.462 6.462 0 011.11 9.1" fill="#FF6845"/><path d="M17.702 86.933c-.631-35.87 19.742-55.7 36.944-66.017 18.553-11.129 37.53-13.854 37.72-13.88l.333 2.39c-.185.025-18.736 2.7-36.868 13.596-24.183 14.53-36.196 36.02-35.705 63.869l-2.424.042z" fill="#C12708"/><mask id="l" fill="#fff"><use xlink:href="#k"/></mask><path fill="#C12708" mask="url(#l)" d="M90.435 74.257h2.424V8.269h-2.424z"/><path d="M170.758 63.377c-.484-2.194-9.194-4.498-9.354 2.826-.16 7.324-3.444 10.229 3.915 14.847 7.358 4.616 7.803 14.972 7.867 12.962.07-2.171 1.17-14.3-2.428-30.635" fill="#FFE176" mask="url(#l)"/><path d="M166.82 87.219l-2.424-.043c.491-27.876-11.545-49.417-35.774-64.023C110.488 12.22 92.004 9.51 91.82 9.484l.34-2.387c.19.026 19.166 2.808 37.719 13.992 17.2 10.37 37.573 30.26 36.942 66.13" fill="#C12708" mask="url(#l)"/><path d="M168.848 116.348c-10.768-10.195-55.99-16.885-76.674-16.885-20.682 0-65.9 6.687-76.666 16.885-8.266 7.83-8.571-17.697 2.52-29.436 9.97-10.525 44.853-11.851 73.759-12.64.129-.007.258-.007.387-.015.13.008.259.008.388.016 28.913.788 63.797 2.114 73.758 12.64 11.1 11.738 10.793 37.266 2.528 29.435" fill="#FF6845" mask="url(#l)"/><path d="M15.511 56.957c-.962 4.085 7.21-2.148 9.692-8.476 4.948-12.62-.164-10.305-1.465-10.38-1.167 1.778-6.467 11.387-8.227 18.856" fill="#FFE176" mask="url(#l)"/><path d="M83.255 4.487c0 2.067 3.758 3.743 8.392 3.743 4.635 0 8.392-1.676 8.392-3.743 0-2.068-3.757-3.744-8.392-3.744-4.634 0-8.392 1.676-8.392 3.744" fill="#F43D28" mask="url(#l)"/><path d="M152.998 144.33c0 .884-.719 1.608-1.616 1.608h-43.398a1.617 1.617 0 01-1.616-1.608v-16.443c0-.884.727-1.608 1.616-1.608h43.398c.897 0 1.616.724 1.616 1.608v16.443zm-75.01 0c0 .884-.727 1.608-1.616 1.608H32.966a1.617 1.617 0 01-1.616-1.608v-16.443c0-.884.727-1.608 1.616-1.608h43.406c.89 0 1.616.724 1.616 1.608v16.443zm73.394-19.659h-43.398c-1.777 0-3.231 1.447-3.231 3.216v8.917c-3.135-1.704-10.034-1.873-12.563-1.873-2.536 0-9.468.17-12.586 1.889v-8.933c0-1.769-1.454-3.216-3.232-3.216H32.966c-1.777 0-3.231 1.447-3.231 3.216v16.443c0 1.777 1.454 3.216 3.231 3.216h43.406c1.778 0 3.232-1.44 3.232-3.216v-5.17a.686.686 0 00.056-.29c0-.836 4.185-2.331 12.53-2.331 3.442 0 6.641.273 9.008.763 2.892.603 3.522 1.335 3.522 1.568 0 .073.008.145.033.21v5.25c0 1.777 1.454 3.216 3.231 3.216h43.398a3.223 3.223 0 003.232-3.216v-16.443a3.228 3.228 0 00-3.232-3.216z" fill="#000" mask="url(#l)"/></g></g></svg>