<!-- by Tanja Rohlfs (http://tanjarohlfs.de/) - license: CC-BY-NC-ND (see: https://creativecommons.org/licenses/by-nc-nd/4.0/) -->
<svg width="300" height="300" xmlns="http://www.w3.org/2000/svg" xmlns:xlink="http://www.w3.org/1999/xlink"><defs><path id="a" d="M0 .003h195.918V242.25H0z"/><path id="c" d="M0 242.247h195.918V0H0z"/></defs><g transform="translate(52 44)" fill="none" fill-rule="evenodd"><g transform="translate(0 -.003)"><mask id="b" fill="#fff"><use xlink:href="#a"/></mask><path d="M105.388.003c33.87 0 42.068 11.506 48.902 18.218 6.835 6.713 41.009 57.895 41.603 78.312.594 20.418-9.73 107.583-1.783 145.717H3.037C17.098 213.605-4.69 102.407.957 88.143 22.17 18.697 63.41.003 105.388.003" fill="#C1772D" mask="url(#b)"/></g><mask id="d" fill="#fff"><use xlink:href="#c"/></mask><path fill="#F1D5C3" mask="url(#d)" d="M84.45 242.125h34.944v-33.323H84.451z"/><path d="M84.459 215.468c11.091 2.617 22.755 2.458 34.935-.204l.039-6.62-34.974.878" fill="#DD885E" mask="url(#d)"/><path d="M158.357 166.394c-.105 1.782-20.99 44.402-57.48 47.053h-.102c-36.486-2.715-57.778-45.24-57.48-47.053.305-1.82-5.105-61.078-5.105-61.078 0-1.208 1.812-64.702 1.812-64.702h60.773s.023 3.882.047 10.486c.03-6.604.054-10.486.054-10.486h60.773s1.819 63.494 1.819 64.702c0 0-5.003 59.238-5.111 61.078" fill="#F1D5C3" mask="url(#d)"/><path d="M49.944 104.663c2.222-1.274 4.775-1.917 7.31-2.317.64-.118 1.276-.16 1.918-.23.642-.073 1.284-.12 1.925-.142 1.286-.061 2.566-.036 3.85-.008.638.025 1.28.046 1.925.046l1.93.063a14.66 14.66 0 013.762.697c2.424.818 4.78 1.926 6.807 3.845l-.133.43c-1.37.25-2.655.315-3.917.318a36.1 36.1 0 01-3.7-.192 19.286 19.286 0 01-3.554-.704l-1.75-.51a43.272 43.272 0 00-1.77-.415c-1.187-.22-2.381-.442-3.578-.58-.599-.1-1.197-.176-1.797-.226-.6-.055-1.207-.137-1.806-.145-2.41-.153-4.85-.089-7.254.488l-.168-.418z" fill="#A05E17" mask="url(#d)"/><path d="M83.006 181.114c0 10.479 36.477 10.479 36.477 0-11.957.988-24.125.942-36.477 0" fill="#DF715C" mask="url(#d)"/><path d="M41.628 112.54s-11.592-14.632-15.203-2.28c-3.61 12.352-6.461 44.278 16.532 48.838 0-6.271-1.33-46.557-1.33-46.557" fill="#F1D5C3" mask="url(#d)"/><path d="M100.798 138.224v.109a.354.354 0 00-.047-.055.354.354 0 01.047-.054m-.047 31.519a.114.114 0 01.047-.016v.032s-.015-.008-.047-.016" fill="#DF715C" mask="url(#d)"/><path d="M109.582 167.654c-2.102-.354-7.945 1.761-8.784 2.072a.101.101 0 00-.047.017c-.015-.009-.031-.009-.055-.017-.839-.31-6.682-2.426-8.784-2.072-2.25.38 4.753-27.704 8.784-32.487a.197.197 0 01.055-.06.321.321 0 01.047.06c4.031 4.783 11.035 32.867 8.784 32.487" fill="#E57055" mask="url(#d)"/><path d="M100.696 169.728c.023.007.04.007.055.015-.04.008-.055.016-.055.016v-.031zm.055-31.45a.19.19 0 00-.055.055v-.11l.055.055" fill="#DF715C" mask="url(#d)"/><path d="M121.224 3.772s-1.095 54.141 1.452 54.597c2.547.457 37.813 34.136 40.792 47.135 2.98 13 27.713-2.313 27.713-2.313s-21.2-67.137-27.482-70.67c-6.282-3.533-42.475-28.749-42.475-28.749" fill="#C1772D" mask="url(#d)"/><path d="M120.954 3.37l1.481 54.579C102.55 33.339 23.928 133.67 25.5 138.292c0 0-18.298-77.195 16.396-102.606C75.328 11.2 59.084 5.666 120.955 3.37" fill="#C1772D" mask="url(#d)"/><path d="M121.924 58.205c-.092-2.243-2.14-55.067-2.135-57.174l3 .008c-.004 1.634.732 39.376 1.507 58.352l-2.372-1.186z" fill="#A05E17" mask="url(#d)"/><path d="M78.53 116.024c-5.195-2.27-12.3-5.087-20.608-.966" stroke="#000" stroke-width=".75" mask="url(#d)"/><path d="M78.956 122.506c0 3.512-4.785 6.359-10.687 6.359-5.902 0-10.686-2.847-10.686-6.36 0-3.511 4.784-6.358 10.686-6.358s10.687 2.846 10.687 6.359" fill="#FFF" mask="url(#d)"/><path d="M79.156 118.4c-4.018-2.574-8.784-4.743-13.649-3.95-2.184.355-4.312 1.267-6.121 2.534-.452.316-.89.654-1.31 1.01-.247.207-.475.432-.718.642-.077.066-.636.456-.403.416.212-.036-.121-.113-.214-.178-.124-.087-.26-.159-.387-.242-.362-.24-.695-.515-1.03-.791-1.11-.913-2.711.67-1.591 1.591 1.277 1.05 2.842 2.577 4.495 1.392.934-.669 1.702-1.52 2.67-2.154a13.504 13.504 0 013.15-1.543c2.269-.751 4.595-.817 6.891-.143 2.51.738 4.885 1.952 7.082 3.358 1.223.783 2.353-1.163 1.135-1.943" fill="#000" mask="url(#d)"/><path d="M73.43 121.797a5.433 5.433 0 11-10.867 0 5.433 5.433 0 0110.867 0" fill="#2F2F47" mask="url(#d)"/><path d="M149.613 105.08c-2.404-.576-4.843-.64-7.254-.487-.6.008-1.205.09-1.805.145-.6.05-1.2.127-1.799.226-1.195.138-2.39.359-3.576.58-.592.13-1.183.261-1.77.415l-1.75.51a19.28 19.28 0 01-3.556.703c-1.21.123-2.44.195-3.699.193-1.261-.003-2.547-.067-3.916-.318l-.134-.43c2.026-1.92 4.383-3.027 6.808-3.845 1.216-.4 2.479-.624 3.762-.697l1.929-.063c.646 0 1.287-.021 1.927-.045 1.283-.029 2.562-.054 3.849.006.64.024 1.281.07 1.925.144.64.069 1.278.11 1.917.23 2.535.399 5.089 1.042 7.312 2.316l-.17.418z" fill="#A05E17" mask="url(#d)"/><path d="M121.196 116.024c5.195-2.27 12.3-5.087 20.607-.966" stroke="#000" stroke-width=".75" mask="url(#d)"/><path d="M120.77 122.506c0 3.512 4.785 6.359 10.686 6.359 5.902 0 10.686-2.847 10.686-6.36 0-3.511-4.784-6.358-10.686-6.358-5.901 0-10.686 2.846-10.686 6.359" fill="#FFF" mask="url(#d)"/><path d="M121.705 120.342c2.198-1.407 4.571-2.616 7.08-3.358 2.296-.678 4.625-.608 6.892.143 1.068.353 2.076.855 3.021 1.46 1.02.654 1.824 1.537 2.8 2.237 1.65 1.187 3.22-.342 4.495-1.392 1.119-.92-.48-2.505-1.59-1.591-.405.332-1.175 1.134-1.723 1.219.335-.052-.134-.267-.313-.424-.24-.212-.471-.434-.717-.642a17.781 17.781 0 00-1.185-.923c-1.839-1.313-4.012-2.257-6.246-2.62-4.866-.794-9.63 1.375-13.65 3.949-1.216.777-.089 2.726 1.136 1.942" fill="#000" mask="url(#d)"/><path d="M126.296 121.797a5.433 5.433 0 1010.867 0 5.433 5.433 0 00-10.867 0" fill="#2F2F47" mask="url(#d)"/><path d="M160.126 116.217s11.592-13.477 15.203-2.1c3.61 11.377 6.461 40.78-16.532 44.981 0-5.775 1.33-42.88 1.33-42.88" fill="#F1D5C3" mask="url(#d)"/><path d="M42.822 159.077c-.531-.143-1.096-.223-1.61-.394l.39-35.32 1.568-2.053-.348 37.767zm117.564-.333c-.115.066-.703.168-1.428.327l.21-35.209 1.57-2.054-.352 36.936z" fill="#DD885E" mask="url(#d)"/><path d="M172.692 121.287s-.722-4.332-2.526-3.069c-1.805 1.264-3.61 13.176-2.526 21.116M32.072 125.897s5.124 4.636 2.562 13.298" fill="#CE8E6E" mask="url(#d)"/><path d="M24.95 138.657c-.132-.21-.147-.38-.29-.727-.702-2.111-3.594-11.48-4.063-23.816-.484-12.76 1.68-31.145 14.745-46.28l2.27 1.96c-19.483 22.57-13.849 53.198-11.086 63.784a88.372 88.372 0 012.338-3.608c2.945-4.35 7.09-9.927 11.67-15.705 6.944-8.76 20.904-25.557 36.377-39.618 21.653-19.675 37.4-25.987 46.805-18.759l-1.828 2.378c-3.584-2.754-8.594-2.976-14.885-.66C94.409 62.24 76.446 77.28 56.42 99.954c-16.95 19.193-28.529 37.001-28.598 37.293-.092.048-.101.046-.193.114l-2.68 1.296z" fill="#A05E17" mask="url(#d)"/><path d="M119.943 182.742c-.157.037-.293-.053-.345-.195a5.409 5.409 0 00-.202-.48c-5.04 2.212-10.523 3.315-16.53 3.315-6.068 0-12.668-1.125-19.89-3.383-.053.113-.09.218-.128.33a.285.285 0 01-.345.195c-.15-.03-.24-.202-.195-.345a5.204 5.204 0 011.118-1.957c.105-.113.292-.105.397 0a.284.284 0 010 .397c-.187.21-.36.45-.51.698 14.108 4.387 25.793 4.41 35.7.09a4.96 4.96 0 00-.63-.788.289.289 0 010-.397c.105-.105.293-.113.398 0a6.271 6.271 0 011.357 2.175c.053.142-.06.307-.195.345" fill="#992E26" mask="url(#d)"/></g></svg>