<?xml version="1.0" encoding="UTF-8"?>
<svg width="500px" height="500px" viewBox="0 0 500 500" version="1.1" xmlns="http://www.w3.org/2000/svg" xmlns:xlink="http://www.w3.org/1999/xlink">
    <!-- Generator: Sketch 62 (91390) - https://sketch.com -->
    <title>04-how-to-1</title>
    <desc>Created with Sketch.</desc>
    <g id="04-how-to-1" stroke="none" stroke-width="1" fill="none" fill-rule="evenodd">
        <rect fill="#FFFFFF" x="0" y="0" width="500" height="500"></rect>
        <path d="M273.9462,330.9926 C272.9252,332.0346 271.4402,332.6876 270.2992,331.7386 L143.3492,225.8656 C140.3702,223.3316 141.7072,214.6226 145.0772,211.3886 L325.8082,38.9576 C327.7942,37.0516 331.9852,36.3416 335.1602,37.3776 L456.2942,73.3376 C460.7642,74.7966 462.8852,81.5636 461.0202,84.0336 L278.0332,326.4186 C276.0532,329.0406 274.8732,330.0466 273.9462,330.9926" id="Fill-1" fill="#FFFFFF"></path>
        <path d="M273.9462,330.9926 C272.9252,332.0346 271.4402,332.6876 270.2992,331.7386 L143.3492,225.8656 C140.3702,223.3316 141.7072,214.6226 145.0772,211.3886 L325.8082,38.9576 C327.7942,37.0516 331.9852,36.3416 335.1602,37.3776 L456.2942,73.3376 C460.7642,74.7966 462.8852,81.5636 461.0202,84.0336 L278.0332,326.4186 C276.0532,329.0406 274.8732,330.0466 273.9462,330.9926 Z" id="Stroke-3" stroke="#777777" stroke-width="5.645"></path>
        <polygon id="Fill-5" fill="#777777" points="270.23 329.996 273.73 329.996 273.73 327.148 270.23 327.148"></polygon>
        <path d="M273.5668,324.3217 C272.5558,325.3587 271.0918,326.0147 269.9798,325.0887 L144.9648,220.8967 C142.0608,218.4217 142.4598,213.7667 145.7948,210.5487 L326.8398,35.8567 C328.8048,33.9607 332.9258,33.2267 336.0348,34.2227 L454.5868,72.2217 C458.9638,73.6247 461.0788,76.7757 459.2288,79.2267 L277.6158,319.7777 C275.6508,322.3807 274.4848,323.3817 273.5668,324.3217" id="Fill-7" fill="#FFFFFF"></path>
        <path d="M273.5668,324.3217 C272.5558,325.3587 271.0918,326.0147 269.9798,325.0887 L144.9648,220.8967 C142.0608,218.4217 142.4598,213.7667 145.7948,210.5487 L326.8398,35.8567 C328.8048,33.9607 332.9258,33.2267 336.0348,34.2227 L454.5868,72.2217 C458.9638,73.6247 461.0788,76.7757 459.2288,79.2267 L277.6158,319.7777 C275.6508,322.3807 274.4848,323.3817 273.5668,324.3217 Z" id="Stroke-8" stroke="#B5B5B5" stroke-width="5.555"></path>
        <path d="M412.3471,68.7275 L357.1701,50.2865 C353.7851,49.1555 352.6601,46.5765 354.6271,44.5575 L354.9241,44.2535 C356.8761,42.2505 361.2021,41.4965 364.5811,42.5755 L419.5881,60.1425 C423.5701,61.4145 425.3211,64.3245 423.4261,66.6125 L423.1371,66.9605 C421.2261,69.2685 416.3471,70.0645 412.3471,68.7275" id="Fill-9" fill="#B5B5B5"></path>
        <path d="M412.3471,68.7275 L357.1701,50.2865 C353.7851,49.1555 352.6601,46.5765 354.6271,44.5575 L354.9241,44.2535 C356.8761,42.2505 361.2021,41.4965 364.5811,42.5755 L419.5881,60.1425 C423.5701,61.4145 425.3211,64.3245 423.4261,66.6125 L423.1371,66.9605 C421.2261,69.2685 416.3471,70.0645 412.3471,68.7275 Z" id="Stroke-10" stroke="#B5B5B5" stroke-width="0.59"></path>
        <polygon id="Fill-11" fill="#B5B5B5" points="272.3774 323.1332 141.7054 215.1732 151.1414 205.1262 282.3804 311.1352"></polygon>
        <polygon id="Stroke-12" stroke="#B5B5B5" stroke-width="0.59" points="272.3774 323.1332 141.7054 215.1732 151.1414 205.1262 282.3804 311.1352"></polygon>
        <path d="M294.7411,198.2236 C290.0111,203.5846 280.9691,204.8476 274.5091,201.0676 C269.8971,198.3696 267.8011,193.8966 268.4531,189.6046 C268.5111,189.2296 268.3261,188.8646 267.9721,188.6446 L258.5921,182.8326 C258.5921,182.8326 258.3371,180.9626 258.2791,180.5326 C258.2201,180.1036 257.9301,179.9246 257.9301,179.9246 C257.9301,179.9246 253.8071,177.3886 253.4271,177.1536 C253.0471,176.9196 252.7021,176.9676 252.7021,176.9676 L248.2641,177.0836 L248.4291,168.9796 L256.6061,168.2396 L275.9321,179.7676 C276.2911,179.9816 276.7651,180.0186 277.1791,179.8666 C281.7021,178.2086 287.1261,178.4876 291.4471,181.0086 C298.0871,184.8826 299.6781,192.6296 294.7411,198.2236" id="Fill-13" fill="#FFFFFF"></path>
        <path d="M294.7411,198.2236 C290.0111,203.5846 280.9691,204.8476 274.5091,201.0676 C269.8971,198.3696 267.8011,193.8966 268.4531,189.6046 C268.5111,189.2296 268.3261,188.8646 267.9721,188.6446 L258.5921,182.8326 C258.5921,182.8326 258.3371,180.9626 258.2791,180.5326 C258.2201,180.1036 257.9301,179.9246 257.9301,179.9246 C257.9301,179.9246 253.8071,177.3886 253.4271,177.1536 C253.0471,176.9196 252.7021,176.9676 252.7021,176.9676 L248.2641,177.0836 L248.4291,168.9796 L256.6061,168.2396 L275.9321,179.7676 C276.2911,179.9816 276.7651,180.0186 277.1791,179.8666 C281.7021,178.2086 287.1261,178.4876 291.4471,181.0086 C298.0871,184.8826 299.6781,192.6296 294.7411,198.2236 Z" id="Stroke-14" stroke="#263238" stroke-width="1.111"></path>
        <g id="Group-17" transform="translate(248.000000, 169.141000)">
            <path d="M0.5522,1.1201 C0.8232,1.3321 15.4642,10.2091 20.1322,13.0371 C20.8892,13.4961 21.9752,13.3471 22.5582,12.7031 C23.1412,12.0601 22.9972,11.1691 22.2402,10.7131 L5.9962,0.9281" id="Fill-15" fill="#FFFFFF"></path>
            <path d="M0.5522,1.1201 C0.8232,1.3321 15.4642,10.2091 20.1322,13.0371 C20.8892,13.4961 21.9752,13.3471 22.5582,12.7031 C23.1412,12.0601 22.9972,11.1691 22.2402,10.7131 L5.9962,0.9281" id="Stroke-16" stroke="#263238" stroke-width="1.111" stroke-linecap="round"></path>
        </g>
        <path d="M291.9433,196.2851 C290.1093,198.4161 286.5553,198.8811 284.0333,197.3251 C281.5333,195.7801 281.0143,192.8401 282.8463,190.7561 C284.6693,188.6831 288.1523,188.2161 290.6543,189.7141 C293.1773,191.2231 293.7673,194.1661 291.9433,196.2851" id="Fill-18" fill="#FFFFFF"></path>
        <path d="M291.9433,196.2851 C290.1093,198.4161 286.5553,198.8811 284.0333,197.3251 C281.5333,195.7801 281.0143,192.8401 282.8463,190.7561 C284.6693,188.6831 288.1523,188.2161 290.6543,189.7141 C293.1773,191.2231 293.7673,194.1661 291.9433,196.2851 Z" id="Stroke-19" stroke="#263238" stroke-width="1.111" stroke-linecap="round"></path>
        <path d="M402.1298,110.6225 L363.1958,158.9595 C361.6068,160.9325 358.0368,161.4295 355.2908,160.0635 L273.3518,119.3065 C271.2468,118.2585 270.8468,116.0905 272.4438,114.4865 L316.5908,70.1465 C317.9758,68.7555 320.8198,68.2765 322.9298,69.0805 L343.0048,76.7325 C343.2948,76.8435 343.4988,77.0265 343.5738,77.2375 C344.3268,79.3545 344.9678,82.4375 345.7508,84.4985 L399.6938,105.6025 C402.3958,106.6595 403.5028,108.9175 402.1298,110.6225 Z" id="Stroke-20" stroke="#F03434" stroke-width="3.889"></path>
        <g id="Group-23" transform="translate(335.000000, 97.141000)">
            <path d="M0.916,2.4126 C2.587,0.5986 6.573,0.2066 9.811,1.5446 L14.778,3.5966 C18.097,4.9676 19.482,7.6296 17.817,9.5106" id="Fill-21" fill="#FFFFFF"></path>
            <path d="M0.916,2.4126 C2.587,0.5986 6.573,0.2066 9.811,1.5446 L14.778,3.5966 C18.097,4.9676 19.482,7.6296 17.817,9.5106" id="Stroke-22" stroke="#37B1CC" stroke-width="2.222"></path>
        </g>
        <g id="Group-26" transform="translate(332.000000, 99.141000)">
            <line x1="3.9164" y1="0.4126" x2="0.5984" y2="4.0156" id="Fill-24" fill="#FFFFFF"></line>
            <line x1="3.9164" y1="0.4126" x2="0.5984" y2="4.0156" id="Stroke-25" stroke="#37B1CC" stroke-width="2.222"></line>
        </g>
        <g id="Group-29" transform="translate(349.000000, 106.141000)">
            <line x1="3.8168" y1="0.5108" x2="0.5088" y2="4.2478" id="Fill-27" fill="#FFFFFF"></line>
            <line x1="3.8168" y1="0.5108" x2="0.5088" y2="4.2478" id="Stroke-28" stroke="#37B1CC" stroke-width="2.222"></line>
        </g>
        <path d="M338.7006,131.3949 C337.2326,131.3949 335.8056,131.0889 334.5746,130.5109 L313.1026,120.4199 C311.5836,119.7069 310.5786,118.5979 310.3466,117.3769 C310.1536,116.3679 310.4906,115.3659 311.3226,114.4799 L320.5946,104.6119 C321.8266,103.2999 324.0546,102.4859 326.4086,102.4859 C327.6956,102.4859 328.9446,102.7289 330.0196,103.1879 L351.4426,112.3469 C353.2146,113.1049 354.4086,114.3099 354.7186,115.6519 C354.9416,116.6189 354.6706,117.5769 353.9366,118.4249 L344.7076,129.0839 C343.4726,130.5089 341.1716,131.3949 338.7006,131.3949" id="Fill-30" fill="#37B1CC"></path>
        <path d="M326.4081,101.3744 C323.8281,101.3744 321.2851,102.2534 319.7841,103.8514 L310.5121,113.7194 C308.1151,116.2724 309.0431,119.7404 312.6301,121.4254 L334.1021,131.5164 C335.5271,132.1864 337.1271,132.5054 338.7001,132.5054 C341.4081,132.5054 344.0351,131.5574 345.5471,129.8114 L354.7771,119.1524 C357.0741,116.4994 355.7441,112.9784 351.8791,111.3254 L330.4561,102.1664 C329.2011,101.6304 327.7991,101.3744 326.4081,101.3744 M326.4081,103.5964 L326.4081,103.5964 C327.5461,103.5964 328.6441,103.8094 329.5831,104.2094 L351.0061,113.3684 C352.4271,113.9764 353.4101,114.9234 353.6361,115.9014 C353.7781,116.5174 353.5961,117.1214 353.0971,117.6974 L343.8671,128.3564 C342.8381,129.5454 340.8581,130.2834 338.7001,130.2834 C337.3941,130.2834 336.1311,130.0144 335.0471,129.5054 L313.5751,119.4154 C312.3821,118.8534 311.6031,118.0354 311.4371,117.1684 C311.2821,116.3534 311.7291,115.6704 312.1321,115.2414 L321.4041,105.3724 C322.4331,104.2774 324.3511,103.5964 326.4081,103.5964" id="Fill-31" fill="#37B1CC"></path>
        <path d="M336.5463,115.5502 C335.6653,116.5312 333.8053,116.8162 332.4003,116.1872 C331.0013,115.5602 330.5873,114.2662 331.4683,113.2962 C332.3473,112.3292 334.1873,112.0442 335.5863,112.6602 C336.9913,113.2782 337.4243,114.5722 336.5463,115.5502" id="Fill-32" fill="#18343A"></path>
        <path d="M328.8207,120.1503 L328.8207,120.1503 C328.3547,119.9383 328.2177,119.4963 328.5147,119.1683 L332.0887,115.2193 C332.3817,114.8953 333.0007,114.8003 333.4657,115.0073 C333.9317,115.2143 334.0737,115.6503 333.7807,115.9753 L330.2077,119.9383 C329.9117,120.2673 329.2867,120.3623 328.8207,120.1503" id="Fill-33" fill="#18343A"></path>
        <path d="M329.6528,48.5795 C329.6438,48.5535 329.6368,48.5285 329.6298,48.5025 C329.6368,48.5285 329.6448,48.5545 329.6528,48.5795" id="Fill-34" fill="#5600B7"></path>
        <path d="M329.6542,48.5844 C329.6542,48.5834 329.6532,48.5814 329.6532,48.5794 C329.6532,48.5814 329.6542,48.5834 329.6542,48.5844" id="Fill-35" fill="#5600B7"></path>
        <path d="M333.7822,50.7104 C333.7362,50.7094 333.6892,50.7074 333.6422,50.7054 C333.6892,50.7074 333.7362,50.7094 333.7822,50.7104" id="Fill-36" fill="#5600B7"></path>
        <path d="M333.7836,50.7104 L333.7826,50.7104 L333.7836,50.7104 Z" id="Fill-37" fill="#5600B7"></path>
        <path d="M329.6293,48.5024 C329.6293,48.5014 329.6293,48.5004 329.6283,48.4984 C329.6293,48.5004 329.6293,48.5014 329.6293,48.5024" id="Fill-38" fill="#5600B7"></path>
        <path d="M333.6391,50.7055 C333.6391,50.7055 333.6381,50.7055 333.6381,50.7055 C333.6391,50.7055 333.6411,50.7055 333.6421,50.7055 L333.6391,50.7055 Z" id="Fill-39" fill="#5600B7"></path>
        <path d="M334.2143,50.7094 C334.1663,50.7104 334.1173,50.7114 334.0683,50.7124 C334.1173,50.7114 334.1653,50.7104 334.2143,50.7094" id="Fill-40" fill="#5600B7"></path>
        <path d="M333.937,50.7128 L333.925,50.7128 L333.937,50.7128 Z" id="Fill-41" fill="#5600B7"></path>
        <path d="M334.0683,50.7123 C334.0243,50.7123 333.9803,50.7123 333.9373,50.7123 C333.9803,50.7123 334.0243,50.7123 334.0683,50.7123" id="Fill-42" fill="#5600B7"></path>
        <path d="M333.9247,50.7128 C333.8777,50.7128 333.8307,50.7118 333.7837,50.7108 C333.8307,50.7118 333.8777,50.7128 333.9247,50.7128" id="Fill-43" fill="#5600B7"></path>
        <path d="M286.9623,247.8442 C285.0223,247.8442 283.1793,247.2702 281.6333,246.1822 L202.3223,190.4062 C201.1743,189.5992 200.4803,188.4232 200.3653,187.0962 C200.2303,185.5212 200.9113,183.8602 202.2353,182.5372 L204.0583,180.7172 C205.6053,179.1712 207.8773,178.2482 210.1353,178.2482 C211.5503,178.2482 212.8403,178.6082 213.8673,179.2872 L293.4903,232.0222 C295.3643,233.2622 296.6223,235.1532 296.9423,237.2072 C297.2363,239.0992 296.7273,240.9762 295.5083,242.4912 L293.6353,244.8222 C292.0903,246.7422 289.6583,247.8442 286.9623,247.8442 L198.5,179.5" id="Fill-44" fill="#37B1CC"></path>
        <path d="M210.1357,177.1371 C207.6747,177.1371 205.0957,178.1101 203.2727,179.9301 L201.4507,181.7511 C198.4237,184.7751 198.5027,189.0771 201.6837,191.3151 L280.9937,247.0911 C282.7807,248.3481 284.8867,248.9551 286.9617,248.9551 C289.8547,248.9551 292.6867,247.7741 294.5007,245.5181 L296.3747,243.1881 C299.4427,239.3721 298.3847,233.9291 294.1037,231.0951 L214.4807,178.3611 C213.2327,177.5341 211.7087,177.1371 210.1357,177.1371 M210.1367,179.3591 L210.1357,179.3591 C211.3317,179.3591 212.4097,179.6551 213.2547,180.2141 L292.8767,232.9481 C294.4907,234.0171 295.5737,235.6321 295.8447,237.3791 C296.0907,238.9581 295.6637,240.5261 294.6427,241.7951 L292.7697,244.1251 C291.4557,245.7581 289.2847,246.7341 286.9617,246.7341 C285.2517,246.7341 283.6307,246.2291 282.2727,245.2741 L202.9617,189.4971 C202.0747,188.8731 201.5597,188.0101 201.4727,187.0001 C201.3647,185.7541 201.9287,184.4131 203.0207,183.3231 L204.8437,181.5031 C206.1867,180.1601 208.1657,179.3591 210.1367,179.3591" id="Fill-45" fill="#37B1CC"></path>
        <path d="M132.5336,105.4306 L117.4666,154.7756 C117.0726,156.0686 115.2616,157.1086 113.4356,157.1116 L51.1786,157.237612 C49.3516,157.2416 47.5376,156.2096 47.1376,154.9176 L28.9496,96.2006 C28.0056,93.1546 29.5926,90.5766 32.5066,90.5716 L59.2996,90.5165956 C59.6746,90.5156 60.0536,90.6846 60.3506,90.9776 C63.2546,93.8416 66.8866,98.0576 69.4846,100.5406 L129.0666,100.4206 C131.8166,100.4146 133.3656,102.7066 132.5336,105.4306" id="Fill-46" fill="#F03434"></path>
        <path d="M132.5336,105.4306 L117.4666,154.7756 C117.0726,156.0686 115.2616,157.1086 113.4356,157.1116 L51.1786,157.237612 C49.3516,157.2416 47.5376,156.2096 47.1376,154.9176 L28.9496,96.2006 C28.0056,93.1546 29.5926,90.5766 32.5066,90.5716 L59.2996,90.5165956 C59.6746,90.5156 60.0536,90.6846 60.3506,90.9776 C63.2546,93.8416 66.8866,98.0576 69.4846,100.5406 L129.0666,100.4206 C131.8166,100.4146 133.3656,102.7066 132.5336,105.4306 Z" id="Stroke-47" stroke="#F03434" stroke-width="3.037"></path>
        <polygon id="Fill-48" fill="#FFFFFF" points="50.8124 72.1664 50.8124 124.6544 111.1094 124.6544 111.1094 53.5134 73.1834 53.5134"></polygon>
        <polygon id="Stroke-49" stroke="#37B1CC" stroke-width="3.037" stroke-linejoin="round" points="50.8124 72.1664 50.8124 124.6544 111.1094 124.6544 111.1094 53.5134 73.1834 53.5134"></polygon>
        <polyline id="Stroke-50" stroke="#37B1CC" stroke-width="3.037" stroke-linejoin="round" points="73.0532 53.5136 73.0532 71.9496 50.8122 71.9496"></polyline>
        <path d="M133.6786,114.3544 L118.2806,166.2384 C117.8766,167.5984 116.0266,168.6904 114.1596,168.6944 L50.5216,168.823411 C48.6556,168.8274 46.8006,167.7414 46.3916,166.3844 L27.7966,104.6434 C26.8316,101.4404 28.4536,98.7294 31.4326,98.7244 L58.8196,98.6683958 C59.2026,98.6674 59.5906,98.8444 59.8936,99.1534 C62.8626,102.1644 66.5746,106.5984 69.2306,109.2084 L130.1346,109.0854 C132.9456,109.0804 134.5286,111.4904 133.6786,114.3544" id="Fill-51" fill="#FFFFFF"></path>
        <path d="M133.6786,114.3544 L118.2806,166.2384 C117.8766,167.5984 116.0266,168.6904 114.1596,168.6944 L50.5216,168.823411 C48.6556,168.8274 46.8006,167.7414 46.3916,166.3844 L27.7966,104.6434 C26.8316,101.4404 28.4536,98.7294 31.4326,98.7244 L58.8196,98.6683958 C59.2026,98.6674 59.5906,98.8444 59.8936,99.1534 C62.8626,102.1644 66.5746,106.5984 69.2306,109.2084 L130.1346,109.0854 C132.9456,109.0804 134.5286,111.4904 133.6786,114.3544 Z" id="Stroke-52" stroke="#F03434" stroke-width="3.037"></path>
        <path d="M199.5419,113.9115 C199.5079,114.1355 199.2899,114.3015 199.0639,114.2735 L188.7949,113.0065 L179.0189,111.8015 C178.6759,111.7585 178.5839,111.3295 178.8719,111.1115 L190.4109,102.3635 L201.9499,93.6155 C202.2379,93.3975 202.6259,93.6005 202.5739,93.9425 L201.0949,103.6815 L199.5419,113.9115 Z" id="Fill-53" fill="#F03434"></path>
        <path d="M126.8105,80.6249 C148.6485,74.3659 172.4715,79.1389 198.2805,96.9659 C198.5485,97.1509 198.5725,97.5419 198.3235,97.7539 C194.0855,101.3539 185.3065,109.1449 184.7905,108.5039 C162.9435,81.4009 138.9815,80.1089 127.0115,81.5959 C126.4045,81.6709 126.2225,80.7939 126.8105,80.6249" id="Fill-54" fill="#F03434"></path>
        <polygon id="Fill-55" fill="#FFFFFF" points="318.183 423.097 449.47 423.097 449.47 355.462 318.183 355.462"></polygon>
        <path d="M450.0502,354.2953 L317.6012,354.2953 C317.2792,354.2953 317.0152,354.5593 317.0152,354.8813 L317.0152,423.6783 C317.0152,424.0003 317.2792,424.2643 317.6012,424.2643 L450.0502,424.2643 C450.3722,424.2643 450.6362,424.0003 450.6362,423.6783 L450.6362,354.8813 C450.6362,354.5593 450.3722,354.2953 450.0502,354.2953 L450.0502,354.2953 Z M319.3482,421.9313 L448.3022,421.9313 L448.3022,356.6293 L319.3482,356.6293 L319.3482,421.9313 Z" id="Fill-56" fill="#B5B5B5"></path>
        <g id="Group-59" transform="translate(292.000000, 462.141000)">
            <path d="M181.1391,0.9219 L182.3531,2.9639 C183.0941,4.2099 182.1171,5.7589 180.5141,5.7809 L180.4561,5.7809 L3.1721,5.7809 C1.5471,5.7749 0.4921,4.2759 1.2131,2.9979 L2.5731,0.5919" id="Fill-57" fill="#919191"></path>
            <path d="M181.1391,0.9219 L182.3531,2.9639 C183.0941,4.2099 182.1171,5.7589 180.5141,5.7809 L180.4561,5.7809 L3.1721,5.7809 C1.5471,5.7749 0.4921,4.2759 1.2131,2.9979 L2.5731,0.5919" id="Stroke-58" stroke="#919191" stroke-width="0.438"></path>
        </g>
        <path d="M470.5507,464.4194 L297.1227,464.4194 C295.1977,464.4194 293.9877,463.7964 294.4297,463.0424 L316.9057,424.3914 C317.2277,424.0204 318.6477,423.7184 320.0637,423.7184 L447.6097,423.7184 C449.0257,423.7184 450.4457,424.0204 450.7677,424.3914 L473.2437,463.0424 C473.6857,463.7964 472.4757,464.4194 470.5507,464.4194" id="Fill-60" fill="#B5B5B5"></path>
        <path d="M470.5507,464.4194 L297.1227,464.4194 C295.1977,464.4194 293.9877,463.7964 294.4297,463.0424 L316.9057,424.3914 C317.2277,424.0204 318.6477,423.7184 320.0637,423.7184 L447.6097,423.7184 C449.0257,423.7184 450.4457,424.0204 450.7677,424.3914 L473.2437,463.0424 C473.6857,463.7964 472.4757,464.4194 470.5507,464.4194 Z" id="Stroke-61" stroke="#B5B5B5" stroke-width="0.583"></path>
        <path d="M424.4135,461.391 L343.2595,461.391 C341.1735,461.391 339.7215,461.024 340.0295,460.581 L344.7585,453.768 C344.9995,453.42 346.6815,453.139 348.4985,453.139 L419.1755,453.139 C420.9915,453.139 422.6735,453.42 422.9145,453.768 L427.6445,460.581 C427.9525,461.024 426.4995,461.391 424.4135,461.391" id="Fill-62" fill="#666666"></path>
        <path d="M453.3168,449.9008 L314.8488,449.9008 C313.0218,449.9008 311.8618,449.2268 312.2668,448.4118 L321.8968,429.0158 C322.1968,428.4118 323.7088,427.9218 325.2598,427.9218 L442.8248,427.9218 C444.3768,427.9218 445.8908,428.4118 446.1918,429.0158 L455.8938,448.4118 C456.3018,449.2268 455.1438,449.9008 453.3168,449.9008" id="Fill-63" fill="#D3D3D3"></path>
        <path d="M453.3168,449.9008 L314.8488,449.9008 C313.0218,449.9008 311.8618,449.2268 312.2668,448.4118 L321.8968,429.0158 C322.1968,428.4118 323.7088,427.9218 325.2598,427.9218 L442.8248,427.9218 C444.3768,427.9218 445.8908,428.4118 446.1918,429.0158 L455.8938,448.4118 C456.3018,449.2268 455.1438,449.9008 453.3168,449.9008 Z" id="Stroke-64" stroke="#B5B5B5" stroke-width="0.583"></path>
        <line x1="317.0746" y1="444.7152" x2="451.3356" y2="444.7152" id="Stroke-65" stroke="#B5B5B5" stroke-width="0.583"></line>
        <line x1="318.3657" y1="440.0785" x2="449.7637" y2="440.0785" id="Stroke-66" stroke="#B5B5B5" stroke-width="0.583"></line>
        <line x1="319.8481" y1="435.7465" x2="448.2841" y2="435.7465" id="Stroke-67" stroke="#B5B5B5" stroke-width="0.583"></line>
        <line x1="321.1767" y1="431.6899" x2="446.9227" y2="431.6899" id="Stroke-68" stroke="#B5B5B5" stroke-width="0.583"></line>
        <path d="M404.3647,378.4486 L404.3647,405.7646 C404.3647,406.8016 403.3977,407.6486 402.2167,407.6486 L361.9317,407.6486 C360.7497,407.6486 359.7827,406.8016 359.7827,405.7646 L359.7827,374.9946 C359.7827,373.9586 360.7497,373.1106 361.9317,373.1106 L372.7977,373.1106 C372.9497,373.1106 373.0947,373.1656 373.2007,373.2616 C374.2537,374.2126 375.5937,375.6716 376.6137,376.5646 L402.2167,376.5646 C403.3977,376.5646 404.3647,377.4126 404.3647,378.4486 Z" id="Stroke-69" stroke="#F03434" stroke-width="1.826"></path>
        <g id="Group-72" transform="translate(378.000000, 383.141000)">
            <path d="M0.1264,2.752 C0.1264,1.558 1.4544,0.579 3.0764,0.579 L5.5354,0.579 C7.1584,0.579 8.4854,1.558 8.4854,2.752" id="Fill-70" fill="#FFFFFF"></path>
            <path d="M0.1264,2.752 C0.1264,1.558 1.4544,0.579 3.0764,0.579 L5.5354,0.579 C7.1584,0.579 8.4854,1.558 8.4854,2.752" id="Stroke-71" stroke="#37B1CC" stroke-width="1.044"></path>
        </g>
        <g id="Group-75" transform="translate(377.000000, 385.141000)">
            <line x1="1.1264" y1="0.752" x2="1.1264" y2="3.106" id="Fill-73" fill="#FFFFFF"></line>
            <line x1="1.1264" y1="0.752" x2="1.1264" y2="3.106" id="Stroke-74" stroke="#37B1CC" stroke-width="1.044"></line>
        </g>
        <g id="Group-78" transform="translate(385.000000, 385.141000)">
            <line x1="1.4853" y1="0.752" x2="1.4853" y2="3.106" id="Fill-76" fill="#FFFFFF"></line>
            <line x1="1.4853" y1="0.752" x2="1.4853" y2="3.106" id="Stroke-77" stroke="#37B1CC" stroke-width="1.044"></line>
        </g>
        <path d="M376.7993,399.9076 C375.3613,399.9076 374.1903,398.7366 374.1903,397.2986 L374.1903,391.3446 C374.1903,389.9056 375.3613,388.7346 376.7993,388.7346 L387.8133,388.7346 C389.2513,388.7346 390.4223,389.9056 390.4223,391.3446 L390.4223,397.2986 C390.4223,398.7366 389.2513,399.9076 387.8133,399.9076 L376.7993,399.9076 Z" id="Fill-79" fill="#37B1CC"></path>
        <path d="M387.8129,388.2133 L376.7989,388.2133 C375.0779,388.2133 373.6679,389.6213 373.6679,391.3443 L373.6679,397.2983 C373.6679,399.0203 375.0779,400.4293 376.7989,400.4293 L387.8129,400.4293 C389.5349,400.4293 390.9439,399.0203 390.9439,397.2983 L390.9439,391.3443 C390.9439,389.6213 389.5349,388.2133 387.8129,388.2133 M387.8129,389.2563 C388.9639,389.2563 389.8999,390.1923 389.8999,391.3443 L389.8999,397.2983 C389.8999,398.4483 388.9639,399.3853 387.8129,399.3853 L376.7989,399.3853 C375.6479,399.3853 374.7119,398.4483 374.7119,397.2983 L374.7119,391.3443 C374.7119,390.1923 375.6479,389.2563 376.7989,389.2563 L387.8129,389.2563" id="Fill-80" fill="#37B1CC"></path>
        <path d="M383.56,393.099 C383.56,393.706 382.998,394.199 382.306,394.199 C381.614,394.199 381.052,393.706 381.052,393.099 C381.052,392.492 381.614,391.999 382.306,391.999 C382.998,391.999 383.56,392.492 383.56,393.099" id="Fill-81" fill="#18343A"></path>
        <path d="M382.3325,396.642 L382.2795,396.642 C382.0645,396.642 381.8885,396.466 381.8885,396.25 L381.8885,393.857 C381.8885,393.642 382.0645,393.465 382.2795,393.465 L382.3325,393.465 C382.5475,393.465 382.7245,393.642 382.7245,393.857 L382.7245,396.25 C382.7245,396.466 382.5475,396.642 382.3325,396.642" id="Fill-82" fill="#18343A"></path>
        <path d="M49.663,466.766 C48.061,466.766 46.758,465.462 46.758,463.861 L46.758,358.477 C46.758,356.875 48.061,355.572 49.663,355.572 L201.882,355.572 C203.484,355.572 204.788,356.875 204.788,358.477 L204.788,463.861 C204.788,465.462 203.484,466.766 201.882,466.766 L49.663,466.766 Z" id="Fill-83" fill="#B5B5B5"></path>
        <path d="M201.8823,354.807 L49.6633,354.807 C47.6443,354.807 45.9933,356.458 45.9933,358.477 L45.9933,463.861 C45.9933,465.879 47.6443,467.531 49.6633,467.531 L201.8823,467.531 C203.9013,467.531 205.5523,465.879 205.5523,463.861 L205.5523,358.477 C205.5523,356.458 203.9013,354.807 201.8823,354.807 M201.8823,356.336 C203.0633,356.336 204.0233,357.296 204.0233,358.477 L204.0233,463.861 C204.0233,465.041 203.0633,466.001 201.8823,466.001 L49.6633,466.001 C48.4823,466.001 47.5223,465.041 47.5223,463.861 L47.5223,358.477 C47.5223,357.296 48.4823,356.336 49.6633,356.336 L201.8823,356.336" id="Fill-84" fill="#B5B5B5"></path>
        <polygon id="Fill-85" fill="#FFFFFF" points="56.499 460.386 190.258 460.386 190.258 362.348 56.499 362.348"></polygon>
        <path d="M198.1801,414.0492 C196.6801,414.0492 195.4611,412.8292 195.4611,411.3292 C195.4611,409.8302 196.6801,408.6112 198.1801,408.6112 C199.6801,408.6112 200.8991,409.8302 200.8991,411.3292 C200.8991,412.8292 199.6801,414.0492 198.1801,414.0492" id="Fill-86" fill="#B5B5B5"></path>
        <path d="M198.1801,407.8461 C196.2561,407.8461 194.6961,409.4061 194.6961,411.3291 C194.6961,413.2531 196.2561,414.8141 198.1801,414.8141 C200.1041,414.8141 201.6641,413.2531 201.6641,411.3291 C201.6641,409.4061 200.1041,407.8461 198.1801,407.8461 M198.1801,409.3751 C199.2581,409.3751 200.1351,410.2521 200.1351,411.3291 C200.1351,412.4081 199.2581,413.2841 198.1801,413.2841 C197.1021,413.2841 196.2251,412.4081 196.2251,411.3291 C196.2251,410.2521 197.1021,409.3751 198.1801,409.3751" id="Fill-87" fill="#FFFFFF"></path>
        <path d="M51.2626,410.2279 C51.9546,410.2279 52.5156,410.7889 52.5156,411.4809 C52.5156,412.1729 51.9546,412.7349 51.2626,412.7349 C50.5706,412.7349 50.0096,412.1729 50.0096,411.4809 C50.0096,410.7889 50.5706,410.2279 51.2626,410.2279" id="Fill-88" fill="#FFFFFF"></path>
        <path d="M144.9721,395.4369 L144.9721,428.2289 C144.9721,429.4719 143.9541,430.4909 142.7111,430.4909 L100.3081,430.4909 C99.0641,430.4909 98.0461,429.4719 98.0461,428.2289 L98.0461,391.2909 C98.0461,390.0469 99.0641,389.0299 100.3081,389.0299 L111.7451,389.0299 C111.9061,389.0299 112.0581,389.0959 112.1691,389.2099 C113.2781,390.3529 114.6891,392.1039 115.7621,393.1759 L142.7111,393.1759 C143.9541,393.1759 144.9721,394.1939 144.9721,395.4369 Z" id="Stroke-89" stroke="#F03434" stroke-width="2.053"></path>
        <g id="Group-92" transform="translate(117.000000, 401.141000)">
            <path d="M0.3544,3.2334 C0.3544,1.7984 1.7514,0.6254 3.4594,0.6254 L6.0474,0.6254 C7.7554,0.6254 9.1524,1.7984 9.1524,3.2334" id="Fill-90" fill="#FFFFFF"></path>
            <path d="M0.3544,3.2334 C0.3544,1.7984 1.7514,0.6254 3.4594,0.6254 L6.0474,0.6254 C7.7554,0.6254 9.1524,1.7984 9.1524,3.2334" id="Stroke-91" stroke="#37B1CC" stroke-width="1.173"></path>
        </g>
        <g id="Group-95" transform="translate(116.000000, 404.141000)">
            <line x1="1.3544" y1="0.2334" x2="1.3544" y2="3.0594" id="Fill-93" fill="#FFFFFF"></line>
            <line x1="1.3544" y1="0.2334" x2="1.3544" y2="3.0594" id="Stroke-94" stroke="#37B1CC" stroke-width="1.173"></line>
        </g>
        <g id="Group-98" transform="translate(125.000000, 404.141000)">
            <line x1="1.1533" y1="0.2334" x2="1.1533" y2="3.0594" id="Fill-96" fill="#FFFFFF"></line>
            <line x1="1.1533" y1="0.2334" x2="1.1533" y2="3.0594" id="Stroke-97" stroke="#37B1CC" stroke-width="1.173"></line>
        </g>
        <path d="M116.1816,421.2358 C114.5646,421.2358 113.2486,419.9208 113.2486,418.3028 L113.2486,410.6778 C113.2486,409.0608 114.5646,407.7458 116.1816,407.7458 L127.3266,407.7458 C128.9436,407.7458 130.2596,409.0608 130.2596,410.6778 L130.2596,418.3028 C130.2596,419.9208 128.9436,421.2358 127.3266,421.2358 L116.1816,421.2358 Z" id="Fill-99" fill="#37B1CC"></path>
        <path d="M127.3261,407.1586 L116.1811,407.1586 C114.2451,407.1586 112.6621,408.7426 112.6621,410.6786 L112.6621,418.3036 C112.6621,420.2396 114.2451,421.8226 116.1811,421.8226 L127.3261,421.8226 C129.2621,421.8226 130.8461,420.2396 130.8461,418.3036 L130.8461,410.6786 C130.8461,408.7426 129.2621,407.1586 127.3261,407.1586 M127.3261,408.3316 C128.6201,408.3316 129.6721,409.3846 129.6721,410.6786 L129.6721,418.3036 C129.6721,419.5966 128.6201,420.6496 127.3261,420.6496 L116.1811,420.6496 C114.8881,420.6496 113.8351,419.5966 113.8351,418.3036 L113.8351,410.6786 C113.8351,409.3846 114.8881,408.3316 116.1811,408.3316 L127.3261,408.3316" id="Fill-100" fill="#37B1CC"></path>
        <path d="M123.0737,413.0248 C123.0737,413.7538 122.4827,414.3438 121.7537,414.3438 C121.0247,414.3438 120.4337,413.7538 120.4337,413.0248 C120.4337,412.2958 121.0247,411.7048 121.7537,411.7048 C122.4827,411.7048 123.0737,412.2958 123.0737,413.0248" id="Fill-101" fill="#18343A"></path>
        <path d="M121.7538,417.2768 L121.7538,417.2768 C121.5118,417.2768 121.3138,417.0798 121.3138,416.8378 L121.3138,413.9048 C121.3138,413.6628 121.5118,413.4638 121.7538,413.4638 C121.9958,413.4638 122.1938,413.6628 122.1938,413.9048 L122.1938,416.8378 C122.1938,417.0798 121.9958,417.2768 121.7538,417.2768" id="Fill-102" fill="#18343A"></path>
        <path d="M395.4272,210.2997 C395.4272,210.2997 441.4972,235.8537 408.8332,327.2077" id="Stroke-103" stroke="#F03434" stroke-width="3.774" stroke-linecap="round" stroke-linejoin="round" stroke-dasharray="16.175,16.175"></path>
        <path d="M426.9814,319.476 L426.4394,318.429 C426.1094,317.791 425.3244,317.542 424.6874,317.872 L410.5644,325.201 C409.8944,325.548 409.0704,325.254 408.7734,324.561 L402.4954,309.938 C402.2114,309.278 401.4474,308.973 400.7884,309.257 L399.7044,309.723 C399.0454,310.006 398.7414,310.77 399.0244,311.429 L406.9074,329.779 C407.2044,330.472 408.0284,330.767 408.6984,330.419 L426.4254,321.226 C427.0624,320.896 427.3104,320.113 426.9814,319.476" id="Fill-104" fill="#F03434"></path>
        <path d="M124.5449,210.2997 C124.5449,210.2997 78.4749,235.8537 111.1399,327.2077" id="Stroke-105" stroke="#F03434" stroke-width="3.774" stroke-linecap="round" stroke-linejoin="round" stroke-dasharray="16.175,16.175"></path>
        <path d="M92.9911,319.476 L93.5331,318.429 C93.8631,317.791 94.6481,317.542 95.2851,317.872 L109.4081,325.201 C110.0781,325.548 110.9021,325.254 111.1991,324.561 L117.4771,309.938 C117.7611,309.278 118.5251,308.973 119.1841,309.257 L120.2681,309.723 C120.9261,310.006 121.2301,310.77 120.9481,311.429 L113.0651,329.779 C112.7671,330.472 111.9441,330.767 111.2741,330.419 L93.5471,321.226 C92.9101,320.896 92.6611,320.113 92.9911,319.476" id="Fill-106" fill="#F03434"></path>
        <text id="Lock" transform="translate(261.325359, 221.331134) rotate(36.000000) translate(-261.325359, -221.331134) " font-family="WorkSans-Bold, Work Sans" font-size="12" font-weight="bold" fill="#FFFFFF">
            <tspan x="226.325359" y="225.331134">LOCK</tspan>
        </text>
    </g>
</svg>