<?xml version="1.0" encoding="UTF-8"?>
<svg width="500px" height="500px" viewBox="0 0 500 500" version="1.1" xmlns="http://www.w3.org/2000/svg" xmlns:xlink="http://www.w3.org/1999/xlink">
    <!-- Generator: Sketch 62 (91390) - https://sketch.com -->
    <title>04-how-to-3</title>
    <desc>Created with Sketch.</desc>
    <defs>
        <path d="M1.338,36.05 C22.01,40.892 42.704,45.328 63.191,50.948 L63.191,50.948 C63.135,39.206 67.262,26.93 67.032,15.937 L67.032,15.937 C45.805,8.462 22.054,5.319 0.185,0.205 L0.185,0.205 C0.573,12.154 0.971,24.1 1.338,36.05" id="path-1"></path>
        <path d="M1.338,36.05 C22.01,40.892 42.704,45.328 63.191,50.948 L63.191,50.948 C63.135,39.206 67.262,26.93 67.032,15.937 L67.032,15.937 C45.805,8.462 22.054,5.319 0.185,0.205 L0.185,0.205 C0.573,12.154 0.971,24.1 1.338,36.05" id="path-3"></path>
        <path d="M1.338,36.05 C22.01,40.892 42.704,45.328 63.191,50.948 L63.191,50.948 C63.135,39.206 67.262,26.93 67.032,15.937 L67.032,15.937 C45.805,8.462 22.054,5.319 0.185,0.205 L0.185,0.205 C0.573,12.154 0.971,24.1 1.338,36.05" id="path-5"></path>
        <path d="M1.338,36.05 C22.01,40.892 42.704,45.328 63.191,50.948 L63.191,50.948 C63.135,39.206 67.262,26.93 67.032,15.937 L67.032,15.937 C45.805,8.462 22.054,5.319 0.185,0.205 L0.185,0.205 C0.573,12.154 0.971,24.1 1.338,36.05" id="path-7"></path>
        <path d="M1.338,36.05 C22.01,40.892 42.704,45.328 63.191,50.948 L63.191,50.948 C63.135,39.206 67.262,26.93 67.032,15.937 L67.032,15.937 C45.805,8.462 22.054,5.319 0.185,0.205 L0.185,0.205 C0.573,12.154 0.971,24.1 1.338,36.05" id="path-9"></path>
        <path d="M1.338,36.05 C22.01,40.892 42.704,45.328 63.191,50.948 L63.191,50.948 C63.135,39.206 67.262,26.93 67.032,15.937 L67.032,15.937 C45.805,8.462 22.054,5.319 0.185,0.205 L0.185,0.205 C0.573,12.154 0.971,24.1 1.338,36.05" id="path-11"></path>
        <polygon id="path-13" points="0.886207915 0.298945398 64.3884 0.298945398 64.3884 59 0.886207915 59"></polygon>
        <polygon id="path-15" points="0 0.33542359 121.676175 0.33542359 121.676175 156.9352 0 156.9352"></polygon>
        <path d="M0.486,16.338 C0.257,27.331 4.383,39.607 4.328,51.348 L4.328,51.348 C24.814,45.727 45.509,41.292 66.181,36.45 L66.181,36.45 C66.549,24.501 66.945,12.553 67.334,0.606 L67.334,0.606 C45.465,5.72 21.714,8.862 0.486,16.338" id="path-17"></path>
        <path d="M0.486,16.338 C0.257,27.331 4.383,39.607 4.328,51.348 L4.328,51.348 C24.814,45.727 45.509,41.292 66.181,36.45 L66.181,36.45 C66.549,24.501 66.945,12.553 67.334,0.606 L67.334,0.606 C45.465,5.72 21.714,8.862 0.486,16.338" id="path-19"></path>
        <path d="M0.486,16.338 C0.257,27.331 4.383,39.607 4.328,51.348 L4.328,51.348 C24.814,45.727 45.509,41.292 66.181,36.45 L66.181,36.45 C66.549,24.501 66.945,12.553 67.334,0.606 L67.334,0.606 C45.465,5.72 21.714,8.862 0.486,16.338" id="path-21"></path>
        <path d="M0.486,16.338 C0.257,27.331 4.383,39.607 4.328,51.348 L4.328,51.348 C24.814,45.727 45.509,41.292 66.181,36.45 L66.181,36.45 C66.549,24.501 66.945,12.553 67.334,0.606 L67.334,0.606 C45.465,5.72 21.714,8.862 0.486,16.338" id="path-23"></path>
        <path d="M0.486,16.338 C0.257,27.331 4.383,39.607 4.328,51.348 L4.328,51.348 C24.814,45.727 45.509,41.292 66.181,36.45 L66.181,36.45 C66.549,24.501 66.945,12.553 67.334,0.606 L67.334,0.606 C45.465,5.72 21.714,8.862 0.486,16.338" id="path-25"></path>
        <path d="M0.486,16.338 C0.257,27.331 4.383,39.607 4.328,51.348 L4.328,51.348 C24.814,45.727 45.509,41.292 66.181,36.45 L66.181,36.45 C66.549,24.501 66.945,12.553 67.334,0.606 L67.334,0.606 C45.465,5.72 21.714,8.862 0.486,16.338" id="path-27"></path>
    </defs>
    <g id="04-how-to-3" stroke="none" stroke-width="1" fill="none" fill-rule="evenodd">
        <rect fill="#FFFFFF" x="0" y="0" width="500" height="500"></rect>
        <g id="Group-148" transform="translate(16.000000, 89.000000)">
            <g id="Group-61" transform="translate(111.000000, -0.004000)">
                <g id="Group-4" transform="translate(53.000000, 78.000000)">
                    <path d="M0,9.9855 C0.085,4.3025 4.029,0.0535 8.92,0.6355 L16.673,1.5585 C22.033,2.1965 25.437,6.4315 25.39,12.6515" id="Fill-1" fill="#FFFFFF"></path>
                    <path d="M0,9.9855 C0.085,4.3025 4.029,0.0535 8.92,0.6355 L16.673,1.5585 C22.033,2.1965 25.437,6.4315 25.39,12.6515" id="Stroke-3" stroke="#37B1CC" stroke-width="2.806"></path>
                </g>
                <line x1="53" y1="87.9855" x2="52.836" y2="98.9505" id="Stroke-5" stroke="#37B1CC" stroke-width="2.806"></line>
                <line x1="78.3965" y1="90.3976" x2="78.3965" y2="104.0866" id="Stroke-7" stroke="#37B1CC" stroke-width="2.806"></line>
                <path d="M81.2344,161.3214 C80.3804,161.3214 79.4984,161.1364 78.6074,160.7734 L47.5074,148.0694 C43.6614,146.4974 40.5874,140.6494 40.6554,135.0334 L40.6554,106.9864 C40.7164,101.9704 43.3984,98.0284 46.7604,98.0284 C47.0884,98.0284 47.4214,98.0664 47.7544,98.1414 L80.9224,105.6374 C86.2504,106.8424 88.1904,114.1204 87.7494,120.7994 L87.7464,153.4184 C87.4344,158.1084 84.8164,161.3214 81.2344,161.3214" id="Fill-9" fill="#37B1CC"></path>
                <path d="M46.7608,96.6256 C42.6858,96.6256 39.3248,100.9996 39.2518,106.9856 L39.2518,135.0166 C39.1768,141.1756 42.6008,147.5796 46.9778,149.3686 L78.0768,162.0726 C79.1578,162.5136 80.2208,162.7246 81.2348,162.7246 C85.4198,162.7246 88.7728,159.1346 89.1498,153.4176 L89.1498,120.8916 C89.6588,113.1666 87.1888,105.6156 81.2328,104.2696 L48.0638,96.7726 C47.6228,96.6736 47.1878,96.6256 46.7608,96.6256 M46.7608,99.4316 L46.7608,99.4316 C46.9838,99.4316 47.2138,99.4586 47.4458,99.5106 L80.6148,107.0066 C85.1088,108.0226 86.7378,114.8206 86.3498,120.7076 L86.3428,120.7996 L86.3428,120.8916 L86.3428,153.3206 C86.0558,157.2706 84.0098,159.9176 81.2348,159.9176 C80.5648,159.9176 79.8598,159.7686 79.1388,159.4746 L48.0388,146.7706 C44.3938,145.2816 42.0038,139.5086 42.0588,135.0166 L42.0588,107.0206 C42.1098,102.8356 44.2188,99.4316 46.7608,99.4316" id="Fill-11" fill="#37B1CC"></path>
                <path d="M66.1455,124.8629 C66.0475,127.6319 64.2815,129.3579 62.2265,128.7459 C60.2025,128.1429 58.6385,125.4819 58.7085,122.7789 C58.7775,120.0559 60.4765,118.2659 62.5295,118.8039 C64.6125,119.3499 66.2445,122.0739 66.1455,124.8629" id="Fill-13" fill="#18343A"></path>
                <path d="M61.9688,139.5216 L61.8318,139.4756 C61.2038,139.2646 60.7128,138.4186 60.7368,137.5936 L61.0508,126.6556 C61.0748,125.8056 61.6168,125.2566 62.2568,125.4396 L62.3968,125.4796 C63.0398,125.6646 63.5458,126.5186 63.5188,127.3756 L63.1658,138.3996 C63.1388,139.2296 62.5998,139.7336 61.9688,139.5216" id="Fill-15" fill="#18343A"></path>
                <g id="Group-20" transform="translate(180.000000, 79.000000)">
                    <path d="M25.5869,10.1418 C25.4129,4.7398 21.5839,0.5538 16.9089,0.8978 L9.4419,1.4478 C4.2439,1.8308 0.0829,7.1168 0.4049,13.1228" id="Fill-17" fill="#FFFFFF"></path>
                    <path d="M25.5869,10.1418 C25.4129,4.7398 21.5839,0.5538 16.9089,0.8978 L9.4419,1.4478 C4.2439,1.8308 0.0829,7.1168 0.4049,13.1228" id="Stroke-19" stroke="#37B1CC" stroke-width="2.806"></path>
                </g>
                <line x1="205.5869" y1="89.1418" x2="205.9239" y2="99.6408" id="Stroke-21" stroke="#37B1CC" stroke-width="2.806"></line>
                <line x1="180.4053" y1="92.1227" x2="181.0303" y2="103.7757" id="Stroke-23" stroke="#37B1CC" stroke-width="2.806"></line>
                <path d="M178.6182,161.0138 C174.6302,161.0128 170.2982,157.9068 169.9532,152.7068 L169.9562,119.7838 C169.4902,112.7318 173.5582,105.9928 178.8372,104.9758 L211.0412,98.2548 C211.2322,98.2178 211.4422,98.1968 211.6452,98.1968 C214.3982,98.1968 216.6202,102.3568 216.8132,107.8728 L216.8122,134.7628 C216.9962,140.0228 215.8902,146.1318 212.2442,147.6498 L181.5012,160.4478 C180.5992,160.8238 179.6292,161.0138 178.6182,161.0138" id="Fill-25" fill="#37B1CC"></path>
                <path d="M211.6455,96.7936 C211.3555,96.7936 211.0595,96.8216 210.7535,96.8806 L178.5715,103.5976 C172.6565,104.7386 168.0405,112.0726 168.5525,119.7836 L168.5525,152.7996 C168.9445,158.7026 173.8025,162.4176 178.6175,162.4176 C179.7825,162.4176 180.9445,162.1996 182.0405,161.7436 L212.7835,148.9456 C217.0015,147.1896 218.4285,140.8516 218.2155,134.7626 L218.2155,107.8236 C218.0085,101.9176 215.5285,96.7936 211.6455,96.7936 M211.6455,99.6006 C213.3175,99.6006 215.2245,102.9226 215.4095,107.8746 L215.4095,134.7626 L215.4095,134.8116 L215.4115,134.8606 C215.6165,140.7276 214.1265,145.3466 211.7055,146.3546 L180.9615,159.1526 C180.2315,159.4566 179.4435,159.6106 178.6175,159.6106 C175.2965,159.6106 171.6915,157.0276 171.3585,152.7006 L171.3585,119.7836 L171.3585,119.6896 L171.3525,119.5976 C170.9415,113.4176 174.5635,107.2286 179.1445,106.3456 L211.2855,99.6366 C211.4115,99.6126 211.5325,99.6006 211.6455,99.6006" id="Fill-27" fill="#37B1CC"></path>
                <path d="M193.3516,124.5778 C193.4786,127.3258 195.2386,129.0728 197.2486,128.5008 C199.2266,127.9388 200.7176,125.3378 200.6116,122.6708 C200.5036,119.9918 198.8236,118.1938 196.8256,118.6758 C194.7926,119.1658 193.2226,121.8168 193.3516,124.5778" id="Fill-29" fill="#18343A"></path>
                <path d="M197.6445,139.2443 L197.7795,139.2003 C198.3945,138.9963 198.8675,138.1563 198.8315,137.3323 L198.3745,126.4513 C198.3385,125.6103 197.8015,125.0573 197.1765,125.2263 L197.0405,125.2633 C196.4125,125.4323 195.9255,126.2683 195.9625,127.1183 L196.4495,138.1053 C196.4865,138.9383 197.0255,139.4493 197.6445,139.2443" id="Fill-31" fill="#18343A"></path>
                <polyline id="Stroke-33" stroke="#FF3434" stroke-width="5.498" stroke-linecap="round" stroke-linejoin="round" points="164.335 57.423 255.221 37.394 120.87 17.548 30.569 30.308"></polyline>
                <path d="M163.8779,57.5236 L156.7739,45.7086 C155.9419,44.2906 154.0009,43.4976 152.0569,43.7826 L136.1539,46.1076 C134.1009,46.4086 132.6109,47.8236 132.6109,49.4736 L132.6109,64.4146 L132.6109,223.0836 L236.7009,163.5466 L255.2219,37.3946" id="Stroke-35" stroke="#FF3434" stroke-width="5.498" stroke-linecap="round" stroke-linejoin="round"></path>
                <path d="M132.6113,64.1852 L32.6403,41.7612 C32.6403,41.7612 29.9653,29.2932 28.7443,26.0232 C28.4613,25.2632 27.6503,24.6712 26.6123,24.4642 L3.5733,19.8722 C2.2423,19.6062 0.9293,20.3392 0.9293,21.3492 L14.1483,163.5472 L132.6113,223.0832 L132.6113,64.1852" id="Stroke-37" stroke="#FF3434" stroke-width="5.498" stroke-linecap="round" stroke-linejoin="round"></path>
                <path d="M219.6318,31.111 L232.3778,17.326 C232.7648,16.908 233.3328,16.71 233.8958,16.796 L253.8828,20.217 C254.6238,20.332 255.1718,20.97 255.1718,21.72 L255.1718,37.629" id="Stroke-39" stroke="#FF3434" stroke-width="5.498" stroke-linecap="round" stroke-linejoin="round"></path>
                <path d="M83.8047,22.7301 L96.0537,2.4271 C96.4407,2.0091 97.0087,1.8111 97.5717,1.8971 L118.9767,0.7531 C119.7177,0.8681 120.2657,1.5061 120.2657,2.2561 L120.1057,16.5211" id="Stroke-41" stroke="#FF3434" stroke-width="5.498" stroke-linecap="round" stroke-linejoin="round"></path>
                <path d="M297.71,285.2941 C321.371,276.1391 333.176,264.9561 333.688,261.4611 C335.608,248.3931 340.98,209.1801 340.98,209.1801 C326.644,204.5831 305.133,197.6871 297.963,195.3881 C290.774,197.6461 282.324,201.5581 270.233,209.7601 C268.587,211.4531 264.087,214.2751 262.654,218.8361 C261.071,223.8791 261.634,230.7771 257.107,239.3441 C253.106,246.9181 256.623,256.1711 256.942,265.4791 C257.362,277.6811 260.087,282.4461 268.923,282.4461 C270.349,282.4461 272.424,282.4311 273.712,282.4311 C286.439,282.4311 291.555,291.5131 291.555,279.5291 C291.555,277.8691 297.71,285.2941 297.71,285.2941" id="Fill-43" fill="#E0B094"></path>
                <polyline id="Fill-45" fill="#E0B094" points="302.0049 280.8136 314.4469 278.0726 314.7569 306.2796 301.8699 309.2856 301.4959 309.2836 288.6349 306.2036 289.2589 272.3746 302.4539 280.5926"></polyline>
                <path d="M309.6523,262.298 C309.6523,262.298 309.8383,276.599 304.3323,283.103 C298.8263,289.607 288.8213,293.84 288.8213,293.84 C288.8213,293.84 287.3213,284.682 289.0263,285.799 C290.7303,286.917 304.3863,263.559 304.3863,263.559 L309.6523,262.298 Z" id="Fill-47" fill="#AA5D48"></path>
                <path d="M273.7314,230.020597 C272.4774,230.0176 271.4514,232.3576 271.4404,235.2446 C271.4304,238.1316 272.4394,240.4786 273.6924,240.482605 C274.9464,240.4866 275.9724,238.1446 275.9834,235.2566 C275.9944,232.3706 274.9854,230.0246 273.7314,230.020597" id="Fill-49" fill="#383838"></path>
                <path d="M256.9395,252.1349 C257.4285,250.7139 257.2375,240.2809 257.2535,239.2329 C256.6035,240.1109 251.1475,248.4329 250.6235,249.6159 C250.2685,250.4189 256.7875,252.5769 256.9395,252.1349" id="Fill-51" fill="#DF715C"></path>
                <path d="M303.0439,230.0587 C303.2059,229.8187 311.3919,226.5067 311.2379,237.0457 C311.0829,247.5857 305.4229,246.1437 302.8129,246.4027 C300.2009,246.6607 302.8819,230.2977 303.0439,230.0587" id="Fill-53" fill="#F1D5C3"></path>
                <path d="M289.1074,281.0363 C289.2254,280.7463 294.9814,280.3283 296.6734,278.9453 L296.9104,283.5753 L289.0264,285.7993 L289.1074,281.0363 Z" id="Fill-55" fill="#DF715C"></path>
                <path d="M226.5029,291.422 C226.5029,291.422 221.8629,276.978 214.4679,274.193 C206.4719,271.181 198.1049,260.521 198.118882,256.879 C198.1309,254.024 200.7879,252.489 203.3359,253.075 C206.9719,253.911 208.9999,262.97 214.8649,262.21 C216.1679,262.041 217.3989,261.309 218.3319,260.185 C222.4199,255.253 216.4489,248.337 210.7459,251.256 C208.0299,252.647 204.9719,253.64 203.0279,252.493 C198.8469,250.027 199.8999,245.844 203.2709,245.108 C206.6409,244.37 211.1639,239.244 219.3409,241.301 C227.1829,243.273 212.2889,224.533 210.7829,221.576 C209.9719,219.982 211.8749,217.285 213.2129,217.217 C215.5519,217.098 217.7829,219.277 219.1199,220.343 C220.8069,221.688 230.3609,240.786 230.3609,240.786 L221.4849,223.927 C218.3189,219.562 222.3629,215.313 225.0419,218.104 C226.2829,219.397 235.8899,239.938 235.8899,239.938 C235.2319,238.177 229.3099,224.23 229.4729,222.114 C229.7049,221.486 230.4869,221.033 231.2299,220.979 C233.0219,220.846 234.0509,222.217 234.5829,223.934 C235.4959,226.88 241.2279,241.149 241.3929,242.519 C241.5589,243.89 241.2239,246.225 240.2429,254.633 C240.2809,267.637 241.5129,284.705 241.5129,284.705" id="Fill-57" fill="#E0B094"></path>
                <path d="M222.0996,301.0773 C221.9626,301.1663 217.6486,300.0453 215.1896,300.2543 C212.7306,300.4643 212.8856,305.8233 212.8856,305.8233 L219.2896,307.6203 L224.7326,305.8993 L222.0996,301.0773 Z" id="Fill-59" fill="#F1D5C3"></path>
            </g>
            <g id="Group-81" transform="translate(266.000000, 273.996000)">
                <g id="Group-64">
                    <mask id="mask-2" fill="white">
                        <use xlink:href="#path-1"></use>
                    </mask>
                    <g id="Clip-63"></g>
                    <path d="M49.0674,12.507 C43.0544,11.042 39.0114,12.829 35.4914,17.543 C35.1084,18.056 34.8864,18.315 34.1534,18.145 C25.4334,16.129 16.5124,14.294 7.7474,12.252 C5.6964,13.954 3.6534,15.66 1.6034,17.362 C1.7674,17.78 1.9304,18.284 2.3284,18.534 C2.3654,18.558 2.3504,18.506 2.4364,18.529 C2.5224,18.553 2.7804,18.609 2.8974,18.639 C4.2024,17.744 5.4954,16.843 6.7954,15.949 C6.7734,15.859 6.7644,15.842 6.7594,15.73 C6.7544,15.617 6.8074,15.323 6.9944,15.366 C14.4184,17.097 21.9454,18.66 29.3304,20.382 C30.0584,20.552 30.3634,20.887 30.7864,21.426 C31.2094,21.964 31.4334,22.775 31.4234,23.437 C31.4154,24.098 31.2964,24.755 30.7944,25.167 C30.2924,25.579 30.1264,25.726 29.3294,25.563 C26.7754,25.038 24.1124,24.383 21.4164,23.768 C15.3164,22.376 9.0464,20.939 2.9184,19.5 C4.6784,22.381 6.4544,25.266 8.2074,28.154 C9.4754,27.369 10.4974,26.659 11.8164,25.718 C11.8704,25.68 12.1244,25.411 12.7634,25.589 C14.4424,26.057 16.8254,26.472 18.8544,27.032 C18.8844,27.04 19.5054,27.305 19.8004,27.84 C20.0954,28.374 21.3504,29.912 21.8104,30.62 C25.9924,31.682 30.2134,32.485 34.3594,33.429 C35.0794,33.593 35.3764,34.025 35.6994,34.614 C38.6694,40.052 42.3684,44.059 48.3184,46.09 C48.5324,46.162 48.6694,46.207 48.8844,46.224 C57.8224,46.945 61.6614,41.507 62.7274,33.118 C63.1314,29.937 63.2534,27.312 62.3034,23.919 C60.7074,18.21 54.7534,13.893 49.0674,12.507 M59.8554,32.111 C59.8174,32.127 59.7044,32.077 59.6394,32.069 C59.7054,32.077 59.8174,32.127 59.8554,32.111 C59.6324,33.771 59.1124,35.434 57.8974,36.527 C56.6834,37.618 55.4214,37.906 53.7884,37.493 C52.1554,37.081 50.7414,35.965 49.7044,34.471 C48.6674,32.977 47.9834,30.97 48.0084,29.12 C48.0334,27.272 48.6464,25.745 50.1444,24.695 C51.6424,23.645 53.4284,23.572 55.1494,24.041 C56.8704,24.51 58.2224,25.605 59.0574,27.142 C59.8934,28.679 60.0794,30.452 59.8554,32.111" id="Fill-62" fill="#FFFFFF" mask="url(#mask-2)"></path>
                </g>
                <g id="Group-68">
                    <mask id="mask-4" fill="white">
                        <use xlink:href="#path-3"></use>
                    </mask>
                    <g id="Clip-66"></g>
                    <path d="M49.0957,11.6554 C42.9067,10.1344 38.7607,12.0404 35.1217,16.8884 C34.8687,17.2274 34.6917,17.4114 34.1607,17.2884 C25.3767,15.2374 16.4067,13.4184 7.5777,11.3554 C5.2977,13.2494 3.0237,15.1444 0.7447,17.0384 C3.2257,21.0804 5.7047,25.1224 8.1727,29.1714 C9.4867,28.2784 10.6567,27.4414 12.0547,26.5254 C12.0917,26.5014 12.3617,26.3334 12.7477,26.4444 C14.1337,26.8424 17.5087,27.4754 18.5847,27.8134 C19.6607,28.1524 18.9577,27.9434 19.4477,28.4434 C20.2777,29.2924 20.8887,30.5304 21.6997,31.4654 C25.8847,32.5034 30.1917,33.3614 34.3767,34.2704 C34.8987,34.3844 35.1197,34.6884 35.3287,35.0714 C38.4057,40.7064 42.1927,44.8444 48.3347,46.9614 C48.5517,47.0364 48.6847,47.0764 48.9037,47.0934 C58.2367,47.8384 62.1647,41.9754 63.1987,33.2574 C63.5967,29.8964 63.7847,27.0404 62.7467,23.4794 C61.0407,17.6264 54.9527,13.0944 49.0957,11.6554 M48.3187,46.0904 C42.3667,44.0594 38.6697,40.0514 35.6987,34.6154 C35.3757,34.0244 35.0797,33.5924 34.3597,33.4284 C30.2127,32.4844 25.9927,31.6814 21.8107,30.6204 C21.3507,29.9124 20.0967,28.3744 19.8007,27.8404 C19.5057,27.3044 18.8837,27.0404 18.8547,27.0324 C16.8247,26.4714 14.4417,26.0564 12.7637,25.5894 C12.1237,25.4114 11.8697,25.6794 11.8167,25.7184 C10.4967,26.6594 9.4747,27.3694 8.2067,28.1544 C6.4527,25.2654 4.6807,22.3824 2.9157,19.5004 C2.7497,19.4544 2.6177,19.4394 2.4447,19.3844 C2.2697,19.3304 2.1877,19.0714 2.1837,18.9084 C2.1807,18.7464 2.2037,18.6324 2.3247,18.5354 C2.0847,18.1464 1.8457,17.7524 1.6037,17.3624 C3.6527,15.6604 5.6967,13.9534 7.7467,12.2524 C16.5137,14.2944 25.4327,16.1294 34.1537,18.1444 C34.8867,18.3144 35.1077,18.0554 35.4917,17.5434 C39.0137,12.8294 43.0527,11.0424 49.0677,12.5074 C54.7557,13.8924 60.7037,18.2114 62.3037,23.9194 C63.2547,27.3114 63.1297,29.9364 62.7267,33.1184 C61.6637,41.5074 57.8207,46.9454 48.8847,46.2234 C48.6687,46.2074 48.5327,46.1624 48.3187,46.0904" id="Fill-65" fill="#263238" mask="url(#mask-4)"></path>
                    <path d="M49.0957,11.6554 C42.9067,10.1344 38.7607,12.0404 35.1217,16.8884 C34.8687,17.2274 34.6917,17.4114 34.1607,17.2884 C25.3767,15.2374 16.4067,13.4184 7.5777,11.3554 C5.2977,13.2494 3.0237,15.1444 0.7447,17.0384 C3.2257,21.0804 5.7047,25.1224 8.1727,29.1714 C9.4867,28.2784 10.6567,27.4414 12.0547,26.5254 C12.0917,26.5014 12.3617,26.3334 12.7477,26.4444 C14.1337,26.8424 17.5087,27.4754 18.5847,27.8134 C19.6607,28.1524 18.9577,27.9434 19.4477,28.4434 C20.2777,29.2924 20.8887,30.5304 21.6997,31.4654 C25.8847,32.5034 30.1917,33.3614 34.3767,34.2704 C34.8987,34.3844 35.1197,34.6884 35.3287,35.0714 C38.4057,40.7064 42.1927,44.8444 48.3347,46.9614 C48.5517,47.0364 48.6847,47.0764 48.9037,47.0934 C58.2367,47.8384 62.1647,41.9754 63.1987,33.2574 C63.5967,29.8964 63.7847,27.0404 62.7467,23.4794 C61.0407,17.6264 54.9527,13.0944 49.0957,11.6554 M48.3187,46.0904 C42.3667,44.0594 38.6697,40.0514 35.6987,34.6154 C35.3757,34.0244 35.0797,33.5924 34.3597,33.4284 C30.2127,32.4844 25.9927,31.6814 21.8107,30.6204 C21.3507,29.9124 20.0967,28.3744 19.8007,27.8404 C19.5057,27.3044 18.8837,27.0404 18.8547,27.0324 C16.8247,26.4714 14.4417,26.0564 12.7637,25.5894 C12.1237,25.4114 11.8697,25.6794 11.8167,25.7184 C10.4967,26.6594 9.4747,27.3694 8.2067,28.1544 C6.4527,25.2654 4.6807,22.3824 2.9157,19.5004 C2.7497,19.4544 2.6177,19.4394 2.4447,19.3844 C2.2697,19.3304 2.1877,19.0714 2.1837,18.9084 C2.1807,18.7464 2.2037,18.6324 2.3247,18.5354 C2.0847,18.1464 1.8457,17.7524 1.6037,17.3624 C3.6527,15.6604 5.6967,13.9534 7.7467,12.2524 C16.5137,14.2944 25.4327,16.1294 34.1537,18.1444 C34.8867,18.3144 35.1077,18.0554 35.4917,17.5434 C39.0137,12.8294 43.0527,11.0424 49.0677,12.5074 C54.7557,13.8924 60.7037,18.2114 62.3037,23.9194 C63.2547,27.3114 63.1297,29.9364 62.7267,33.1184 C61.6637,41.5074 57.8207,46.9454 48.8847,46.2234 C48.6687,46.2074 48.5327,46.1624 48.3187,46.0904" id="Stroke-67" stroke="#263238" stroke-width="0.878" mask="url(#mask-4)"></path>
                </g>
                <g id="Group-71">
                    <mask id="mask-6" fill="white">
                        <use xlink:href="#path-5"></use>
                    </mask>
                    <g id="Clip-70"></g>
                    <path d="M6.7949,15.9484 C6.8409,16.0604 6.8959,16.2004 7.0259,16.2304 C14.4609,17.9874 21.8859,19.6074 29.3699,21.2604 C29.3909,21.2644 29.2309,21.2174 29.4439,21.2804 C29.6569,21.3444 30.3159,21.7084 30.5129,22.0704 C30.7099,22.4324 30.9749,22.8994 30.9289,23.3294 C30.8829,23.7584 30.8809,24.1144 30.4969,24.3974 C30.1119,24.6804 29.9859,24.8374 29.3239,24.6924 C26.7609,24.1364 24.1069,23.5064 21.4049,22.8914 C15.3039,21.5074 9.0319,20.0784 2.9029,18.6394 C4.1949,17.7424 5.4989,16.8444 6.7949,15.9484" id="Fill-69" fill="#FFFFFF" mask="url(#mask-6)"></path>
                </g>
                <g id="Group-74">
                    <mask id="mask-8" fill="white">
                        <use xlink:href="#path-7"></use>
                    </mask>
                    <g id="Clip-73"></g>
                    <path d="M6.9707,15.3605 C14.4497,17.0995 21.9297,18.6625 29.3307,20.3815 C30.0607,20.5515 30.3617,20.8865 30.7847,21.4255 C31.2087,21.9645 31.4327,22.7745 31.423961,23.4365 C31.4157,24.0985 31.2937,24.7555 30.7947,25.1675 C30.2947,25.5805 30.1187,25.7245 29.3287,25.5625 C26.7987,25.0435 24.0767,24.3755 21.4197,23.7685 C15.4067,22.3965 8.8657,20.8975 3.0327,19.5265 C2.3007,19.3545 2.8277,19.4825 2.4797,19.3935 C2.1317,19.3045 2.2447,19.0725 2.1977,18.9145 C2.1497,18.7565 2.1967,18.5905 2.3307,18.5515 C2.4657,18.5115 2.1817,18.4865 2.4727,18.5425 C2.7637,18.5965 2.2827,18.4965 3.0257,18.6705 C8.8347,20.0305 15.4037,21.5305 21.4087,22.8925 C24.0677,23.4965 26.7897,24.1415 29.3237,24.6925 C29.9777,24.8355 30.1257,24.6835 30.4937,24.3965 C30.8627,24.1095 30.9217,23.7675 30.9197,23.3265 C30.9177,22.8855 30.8287,22.4645 30.4817,22.0625 C30.1337,21.6615 30.1357,21.4645 29.1307,21.2065 C29.0967,21.1975 31.3717,21.7005 28.3567,21.0355 C25.3397,20.3715 12.1257,17.4785 7.1267,16.2535 C7.0387,16.2315 6.7427,16.0345 6.7807,15.9485 C6.8167,15.8625 6.7717,15.8445 6.7457,15.7265 C6.7217,15.6085 6.9087,15.3455 6.9707,15.3605" id="Fill-72" fill="#263238" mask="url(#mask-8)"></path>
                </g>
                <g id="Group-77">
                    <mask id="mask-10" fill="white">
                        <use xlink:href="#path-9"></use>
                    </mask>
                    <g id="Clip-76"></g>
                    <path d="M54.9824,24.8156 C55.0004,24.8196 54.8524,24.7726 55.0424,24.8366 C55.2314,24.8986 54.4674,24.6376 55.2344,24.9006 C56.0024,25.1626 58.1284,26.3596 58.6734,27.6996 C59.2184,29.0386 59.6444,30.5306 59.3894,31.9906 C59.1344,33.4506 58.7224,34.7616 57.6314,35.7746 C56.5424,36.7876 55.2744,36.9136 53.8214,36.6806 C53.8054,36.6776 53.9594,36.7256 53.7654,36.6626 C53.5714,36.5986 54.3564,36.8646 53.5734,36.6006 C52.7914,36.3376 50.7104,35.1686 49.9794,33.8556 C49.2494,32.5446 48.4234,30.8696 48.5194,29.2466 C48.6154,27.6236 49.0794,26.4206 50.4204,25.4506 C51.7614,24.4796 53.3754,24.4856 54.9824,24.8156" id="Fill-75" fill="#FFFFFF" mask="url(#mask-10)"></path>
                </g>
                <g id="Group-80">
                    <mask id="mask-12" fill="white">
                        <use xlink:href="#path-11"></use>
                    </mask>
                    <g id="Clip-79"></g>
                    <path d="M55.1494,24.0412 C53.4284,23.5722 51.6424,23.6452 50.1444,24.6942 C48.6464,25.7452 48.0334,27.2712 48.0084,29.1202 C47.9834,30.9702 48.6674,32.9772 49.7044,34.4712 C50.7414,35.9652 52.1554,37.0812 53.7884,37.4932 C55.4204,37.9062 56.6834,37.6182 57.8974,36.5262 C59.1124,35.4342 59.6324,33.7702 59.8564,32.1112 C59.8134,32.1242 59.7114,32.0822 59.6364,32.0662 C59.5634,32.0512 59.4754,32.0232 59.3994,32.0072 C59.4754,32.0232 59.5634,32.0502 59.6364,32.0662 C59.7114,32.0822 59.8134,32.1242 59.8564,32.1112 C60.0794,30.4522 59.8924,28.6792 59.0574,27.1422 C58.2224,25.6042 56.8704,24.5102 55.1494,24.0412 M54.9494,24.8112 C55.1414,24.8502 54.9924,24.8192 55.0094,24.8252 C56.5914,25.3592 57.8564,26.2702 58.6344,27.6852 C59.4134,29.1002 59.5134,30.4952 59.3884,31.9872 C59.2634,33.4792 58.5394,34.7292 57.6674,35.7792 C56.7954,36.8292 54.7304,36.8252 54.0294,36.7162 C53.3274,36.6052 54.0294,36.7132 53.8544,36.6852 C53.6794,36.6562 53.8194,36.6812 53.8014,36.6762 C52.1854,36.1362 50.9914,35.2602 50.0194,33.8702 C49.0484,32.4792 48.5614,30.9082 48.5194,29.2482 C48.4774,27.5882 49.2784,26.4652 50.3804,25.4432 C51.4834,24.4212 53.9744,24.6082 54.7534,24.7672 C55.5334,24.9252 54.7564,24.7712 54.9494,24.8112" id="Fill-78" fill="#263238" mask="url(#mask-12)"></path>
                </g>
            </g>
            <g id="Group-114" transform="translate(0.000000, 166.996000)">
                <g id="Group-84" transform="translate(299.000000, 130.000000)">
                    <mask id="mask-14" fill="white">
                        <use xlink:href="#path-13"></use>
                    </mask>
                    <g id="Clip-83"></g>
                    <path d="M43.0234,59.0001 C39.8734,32.4991 26.3854,40.9341 7.6814,34.7171 C5.2754,33.0511 5.6614,31.0531 5.6684,28.4911 C5.8554,25.9281 4.0934,24.7911 3.8994,22.3321 C4.8144,19.8961 6.6304,19.1251 5.0574,16.4701 C4.3684,15.5091 8.0274,11.8251 7.5794,10.7821 C6.9454,9.3081 1.3984,6.7721 1.0694,5.5321 C-0.0606,1.2781 4.3154,-0.5939 6.5784,0.7051 C10.4154,2.9081 16.8834,5.9971 20.7434,6.9861 C26.5664,8.4791 36.4814,10.0841 32.7104,7.1971 C31.2444,6.0741 32.4604,3.9751 33.3724,4.0771 C44.5874,5.3471 55.2704,29.7331 64.3884,55.9921" id="Fill-82" fill="#E0B094" mask="url(#mask-14)"></path>
                </g>
                <path d="M447.7627,96.2296 C445.9947,96.9856 442.3737,104.0936 440.8617,105.1686 C439.5297,106.1176 425.2887,128.2556 425.1397,121.7676 L424.4217,106.1606 C424.5067,100.7076 423.5517,95.2886 421.5837,90.2016 C416.8387,77.9306 408.1857,51.7236 405.4577,43.7176 C404.4987,40.8836 401.7717,38.9026 398.6177,38.6786 C398.3727,38.5406 398.1167,38.4026 397.8507,38.2636 C396.7107,37.6886 395.2617,37.9126 393.6207,38.6476 C386.6327,41.7576 377.0227,52.8476 373.6567,51.8356 C349.2467,44.5006 366.0347,-1.6434 402.7607,0.2306 C410.4987,0.6256 414.7417,8.6786 421.1787,5.9676 C438.1817,-1.1914 462.9587,15.1916 463.1907,33.1816 C463.3147,42.8506 459.0727,41.7486 460.9427,45.5446 C470.2147,64.3706 471.2517,86.1796 447.7627,96.2296" id="Fill-85" fill="#383838"></path>
                <path d="M421.374,88.4953 L421.118,90.8493 C421.118,90.8493 421.065,123.6743 384.608,123.651312 C350.77,123.6313 366.32,90.5783 366.956,89.2973 C366.964,89.2813 381.088,93.8143 395.069,89.6413 C400.558,88.0023 398.788,55.3413 400.248,52.7633 C401.665,50.2803 405.936,42.9733 398.618,38.6793 C401.771,38.9023 404.499,40.8843 405.458,43.7183 C409.026,54.1903 416.782,77.4693 421.374,88.4953" id="Fill-87" fill="#383838"></path>
                <path d="M405.0312,74.5617 C405.0312,79.5867 406.9872,83.6607 409.3992,83.6607 C411.8122,83.6607 413.7672,79.5867 413.7672,74.5617 C413.7672,69.5367 411.8122,65.4627 409.3992,65.4627 C406.9872,65.4627 405.0312,69.5367 405.0312,74.5617" id="Fill-89" fill="#E0B094"></path>
                <path d="M365.3877,98.2179 C365.3877,98.2179 370.3497,101.1259 375.1307,98.5189" id="Stroke-91" stroke="#DF715C" stroke-width="1.319"></path>
                <path d="M380.085,73.1583 C380.085,73.1583 382.022,77.4883 385.896,77.7113" id="Stroke-93" stroke="#383838" stroke-width="1.238" stroke-linecap="round"></path>
                <path d="M169.419,132.4777 C169.556,132.5667 173.871,131.4457 176.329,131.6547 C178.788,131.8647 178.633,137.2237 178.633,137.2237 L172.229,139.0207 L166.787,137.2987 L169.419,132.4777 Z" id="Fill-95" fill="#F1D5C3"></path>
                <path d="M89.8945,115.6339 C60.7425,110.7249 53.6225,99.1879 53.1605,95.6139 C51.4285,82.2529 50.8825,37.8159 50.8825,37.8159 C63.8085,33.1159 83.2025,26.0659 89.6665,23.7139 C96.1475,26.0229 103.7655,30.0229 114.6665,38.4089 C119.2135,41.9059 121.3785,51.8319 125.7725,68.8619 C127.9075,77.1329 126.9375,85.8589 126.6495,95.3749 C126.2715,107.8499 123.8145,112.7229 115.8475,112.7229 C114.5625,112.7229 112.6925,112.7069 111.5305,112.7069 C100.0555,112.7069 82.9025,110.0769 82.9025,97.8259 C82.9025,96.1289 89.8945,115.6339 89.8945,115.6339" id="Fill-97" fill="#F1D5C3"></path>
                <path d="M111.5127,59.123195 C112.6437,59.1192 113.5687,61.5122 113.5777,64.4642 C113.5877,67.4152 112.6777,69.8152 111.5477,69.8192028 C110.4177,69.8222 109.4917,67.4292 109.4827,64.4772 C109.4727,61.5252 110.3827,59.1272 111.5127,59.123195" id="Fill-99" fill="#000000"></path>
                <path d="M126.6426,84.0431 C126.1286,82.3551 126.1786,79.6831 126.0476,77.4241 C125.9136,75.0831 125.8186,70.1121 125.7536,68.8801 C126.3896,69.9381 127.9306,73.6741 129.0356,75.9811 C129.9856,77.9671 131.7656,79.9341 132.2996,81.3461 C132.6616,82.3021 126.8026,84.5681 126.6426,84.0431" id="Fill-101" fill="#FF3434"></path>
                <polyline id="Fill-103" fill="#F1D5C3" points="86.0264 111.881 74.8084 108.805 74.5374 140.426 86.1564 143.8 86.4944 143.799 98.0894 140.349 97.5164 102.425 86.1344 96.129"></polyline>
                <g id="Group-107" transform="translate(0.000000, 1.000000)">
                    <mask id="mask-16" fill="white">
                        <use xlink:href="#path-15"></use>
                    </mask>
                    <g id="Clip-106"></g>
                    <path d="M121.6748,46.8322 C120.6988,46.8322 108.4558,46.9282 108.6658,46.9142 C107.9078,43.0522 106.8428,38.2192 106.0008,34.5692 C105.5368,38.2672 105.1068,43.0912 104.7598,46.9552 L90.1848,46.8552 C92.7418,79.6652 92.1098,124.6842 84.8928,156.9352 L-0.0002,156.9352 C35.0208,125.7092 8.1478,88.8322 22.9218,27.4862 C29.4068,0.5592 93.5458,-9.6378 115.4048,12.1812 C119.5408,16.3092 121.5548,21.7962 121.5708,27.3362 C121.5918,34.0692 121.6888,46.6452 121.6748,46.8322" id="Fill-105" fill="#FF3434" mask="url(#mask-16)"></path>
                </g>
                <path d="M113.5742,91.339 C115.3302,93.584 120.5942,94.503 126.2762,94.417" id="Stroke-108" stroke="#DF715C" stroke-width="0.878" stroke-linecap="round" stroke-linejoin="round"></path>
                <path d="M85.085,59.1622 C84.939,58.9162 77.56,55.5302 77.697,66.3062 C77.837,77.0812 82.94,75.6062 85.294,75.8722 C87.648,76.1362 85.231,59.4062 85.085,59.1622" id="Fill-110" fill="#F1D5C3"></path>
                <path d="M97.6504,111.2804 C97.5444,110.9844 92.3544,110.5564 90.8284,109.1434 L90.6154,113.8764 L97.7234,116.1494 L97.6504,111.2804 Z" id="Fill-112" fill="#DF715C"></path>
            </g>
            <g id="Group-134" transform="translate(169.000000, 271.996000)">
                <g id="Group-117">
                    <mask id="mask-18" fill="white">
                        <use xlink:href="#path-17"></use>
                    </mask>
                    <g id="Clip-116"></g>
                    <path d="M18.4512,12.9074 C12.7652,14.2934 6.8122,18.6104 5.2152,24.3194 C4.2652,27.7124 4.3872,30.3374 4.7912,33.5184 C5.8572,41.9074 9.6962,47.3454 18.6342,46.6244 C18.8492,46.6064 18.9862,46.5624 19.2002,46.4904 C25.1512,44.4594 28.8492,40.4524 31.8202,35.0144 C32.1422,34.4254 32.4392,33.9924 33.1592,33.8284 C37.3052,32.8854 41.5262,32.0824 45.7092,31.0204 C46.1682,30.3124 47.4232,28.7744 47.7182,28.2394 C48.0132,27.7054 48.6352,27.4404 48.6642,27.4314 C50.6942,26.8724 53.0772,26.4574 54.7562,25.9894 C55.3942,25.8114 55.6482,26.0794 55.7022,26.1184 C57.0212,27.0594 58.0442,27.7694 59.3122,28.5534 C61.0642,25.6664 62.8402,22.7814 64.6002,19.9004 C58.4722,21.3394 52.2022,22.7764 46.1022,24.1684 C43.4062,24.7824 40.7432,25.4384 38.1902,25.9634 C37.3932,26.1264 37.2262,25.9794 36.7242,25.5674 C36.2222,25.1554 36.1032,24.4984 36.0952,23.8364 C36.0862,23.1754 36.3102,22.3644 36.7322,21.8254 C37.1562,21.2874 37.4602,20.9514 38.1882,20.7824 C45.5732,19.0604 53.1002,17.4974 60.5242,15.7664 C60.7112,15.7224 60.7642,16.0174 60.7592,16.1304 C60.7542,16.2414 60.7452,16.2584 60.7232,16.3494 C62.0232,17.2424 63.3162,18.1434 64.6212,19.0394 C64.7382,19.0094 64.9972,18.9534 65.0832,18.9294 C65.1692,18.9064 65.1532,18.9584 65.1902,18.9334 C65.5882,18.6834 65.7522,18.1794 65.9152,17.7624 C63.8652,16.0604 61.8222,14.3544 59.7712,12.6524 C51.0062,14.6944 42.0862,16.5284 33.3662,18.5454 C32.6322,18.7154 32.4102,18.4564 32.0272,17.9434 C28.5072,13.2284 24.4642,11.4414 18.4512,12.9074 M7.6632,32.5114 C7.4402,30.8524 7.6262,29.0794 8.4612,27.5424 C9.2972,26.0054 10.6482,24.9104 12.3692,24.4414 C14.0902,23.9724 15.8762,24.0444 17.3742,25.0954 C18.8732,26.1454 19.4852,27.6724 19.5112,29.5204 C19.5352,31.3694 18.8512,33.3764 17.8142,34.8704 C16.7772,36.3644 15.3632,37.4814 13.7302,37.8934 C12.0972,38.3064 10.8362,38.0174 9.6212,36.9264 C8.4062,35.8344 7.8862,34.1714 7.6632,32.5114 C7.7022,32.5274 7.8142,32.4764 7.8802,32.4684 C7.8142,32.4764 7.7012,32.5274 7.6632,32.5114" id="Fill-115" fill="#FFFFFF" mask="url(#mask-18)"></path>
                </g>
                <g id="Group-121">
                    <mask id="mask-20" fill="white">
                        <use xlink:href="#path-19"></use>
                    </mask>
                    <g id="Clip-119"></g>
                    <path d="M18.4229,12.0558 C12.5669,13.4948 6.4779,18.0268 4.7719,23.8798 C3.7349,27.4398 3.9219,30.2968 4.3199,33.6578 C5.3539,42.3748 9.2819,48.2378 18.6149,47.4938 C18.8349,47.4768 18.9669,47.4358 19.1839,47.3618 C25.3259,45.2448 29.1129,41.1058 32.1899,35.4718 C32.3989,35.0878 32.6209,34.7848 33.1419,34.6708 C37.3269,33.7618 41.6339,32.9038 45.8189,31.8648 C46.6299,30.9298 47.2409,29.6918 48.0709,28.8428 C48.5609,28.3428 47.8579,28.5528 48.9339,28.2138 C50.0099,27.8748 53.3849,27.2428 54.7709,26.8448 C55.1569,26.7338 55.4269,26.9008 55.4649,26.9258 C56.8619,27.8418 58.0319,28.6788 59.3459,29.5718 C61.8139,25.5228 64.2929,21.4798 66.7749,17.4378 C64.4949,15.5448 62.2209,13.6488 59.9409,11.7558 C51.1119,13.8178 42.1419,15.6378 33.3579,17.6878 C32.8269,17.8118 32.6509,17.6268 32.3969,17.2888 C28.7589,12.4408 24.6119,10.5348 18.4229,12.0558 M19.1999,46.4908 C18.9859,46.5628 18.8499,46.6068 18.6339,46.6238 C9.6979,47.3458 5.8559,41.9068 4.7919,33.5188 C4.3889,30.3368 4.2639,27.7108 5.2149,24.3198 C6.8149,18.6108 12.7639,14.2918 18.4509,12.9078 C24.4659,11.4428 28.5049,13.2288 32.0269,17.9438 C32.4109,18.4558 32.6319,18.7148 33.3649,18.5448 C42.0859,16.5288 51.0059,14.6948 59.7719,12.6528 C61.8219,14.3538 63.8659,16.0608 65.9149,17.7628 C65.6729,18.1528 65.4339,18.5458 65.1939,18.9358 C65.3149,19.0328 65.3389,19.1458 65.3349,19.3088 C65.3309,19.4718 65.2489,19.7308 65.0739,19.7848 C64.9009,19.8388 64.7699,19.8548 64.6029,19.9008 C62.8389,22.7828 61.0659,25.6648 59.3129,28.5538 C58.0439,27.7698 57.0219,27.0598 55.7019,26.1188 C55.6489,26.0788 55.3949,25.8118 54.7559,25.9898 C53.0769,26.4568 50.6939,26.8718 48.6639,27.4318 C48.6349,27.4408 48.0139,27.7048 47.7179,28.2398 C47.4229,28.7748 46.1679,30.3128 45.7089,31.0208 C41.5259,32.0818 37.3059,32.8848 33.1589,33.8278 C32.4389,33.9928 32.1439,34.4248 31.8199,35.0148 C28.8489,40.4518 25.1519,44.4588 19.1999,46.4908" id="Fill-118" fill="#263238" mask="url(#mask-20)"></path>
                    <path d="M18.4229,12.0558 C12.5669,13.4948 6.4779,18.0268 4.7719,23.8798 C3.7349,27.4398 3.9219,30.2968 4.3199,33.6578 C5.3539,42.3748 9.2819,48.2378 18.6149,47.4938 C18.8349,47.4768 18.9669,47.4358 19.1839,47.3618 C25.3259,45.2448 29.1129,41.1058 32.1899,35.4718 C32.3989,35.0878 32.6209,34.7848 33.1419,34.6708 C37.3269,33.7618 41.6339,32.9038 45.8189,31.8648 C46.6299,30.9298 47.2409,29.6918 48.0709,28.8428 C48.5609,28.3428 47.8579,28.5528 48.9339,28.2138 C50.0099,27.8748 53.3849,27.2428 54.7709,26.8448 C55.1569,26.7338 55.4269,26.9008 55.4649,26.9258 C56.8619,27.8418 58.0319,28.6788 59.3459,29.5718 C61.8139,25.5228 64.2929,21.4798 66.7749,17.4378 C64.4949,15.5448 62.2209,13.6488 59.9409,11.7558 C51.1119,13.8178 42.1419,15.6378 33.3579,17.6878 C32.8269,17.8118 32.6509,17.6268 32.3969,17.2888 C28.7589,12.4408 24.6119,10.5348 18.4229,12.0558 M19.1999,46.4908 C18.9859,46.5628 18.8499,46.6068 18.6339,46.6238 C9.6979,47.3458 5.8559,41.9068 4.7919,33.5188 C4.3889,30.3368 4.2639,27.7108 5.2149,24.3198 C6.8149,18.6108 12.7639,14.2918 18.4509,12.9078 C24.4659,11.4428 28.5049,13.2288 32.0269,17.9438 C32.4109,18.4558 32.6319,18.7148 33.3649,18.5448 C42.0859,16.5288 51.0059,14.6948 59.7719,12.6528 C61.8219,14.3538 63.8659,16.0608 65.9149,17.7628 C65.6729,18.1528 65.4339,18.5458 65.1939,18.9358 C65.3149,19.0328 65.3389,19.1458 65.3349,19.3088 C65.3309,19.4718 65.2489,19.7308 65.0739,19.7848 C64.9009,19.8388 64.7699,19.8548 64.6029,19.9008 C62.8389,22.7828 61.0659,25.6648 59.3129,28.5538 C58.0439,27.7698 57.0219,27.0598 55.7019,26.1188 C55.6489,26.0788 55.3949,25.8118 54.7559,25.9898 C53.0769,26.4568 50.6939,26.8718 48.6639,27.4318 C48.6349,27.4408 48.0139,27.7048 47.7179,28.2398 C47.4229,28.7748 46.1679,30.3128 45.7089,31.0208 C41.5259,32.0818 37.3059,32.8848 33.1589,33.8278 C32.4389,33.9928 32.1439,34.4248 31.8199,35.0148 C28.8489,40.4518 25.1519,44.4588 19.1999,46.4908" id="Stroke-120" stroke="#263238" stroke-width="0.878" mask="url(#mask-20)"></path>
                </g>
                <g id="Group-124">
                    <mask id="mask-22" fill="white">
                        <use xlink:href="#path-21"></use>
                    </mask>
                    <g id="Clip-123"></g>
                    <path d="M60.7236,16.3488 C60.6776,16.4598 60.6226,16.6008 60.4936,16.6308 C53.0576,18.3878 45.6326,20.0078 38.1486,21.6608 C38.1276,21.6648 38.2876,21.6178 38.0756,21.6808 C37.8616,21.7448 37.2026,22.1088 37.0056,22.4708 C36.8086,22.8328 36.5436,23.2998 36.5896,23.7288 C36.6356,24.1588 36.6376,24.5148 37.0226,24.7978 C37.4066,25.0798 37.5326,25.2368 38.1946,25.0928 C40.7576,24.5358 43.4116,23.9058 46.1146,23.2918 C52.2146,21.9068 58.4876,20.4778 64.6156,19.0398 C63.3236,18.1418 62.0196,17.2448 60.7236,16.3488" id="Fill-122" fill="#FFFFFF" mask="url(#mask-22)"></path>
                </g>
                <g id="Group-127">
                    <mask id="mask-24" fill="white">
                        <use xlink:href="#path-23"></use>
                    </mask>
                    <g id="Clip-126"></g>
                    <path d="M60.5479,15.7609 C53.0689,17.4999 45.5889,19.0629 38.1889,20.7819 C37.4579,20.9519 37.1569,21.2869 36.7339,21.8249 C36.3099,22.3649 36.0859,23.1749 36.094639,23.8359 C36.1029,24.4979 36.2249,25.1549 36.7239,25.5679 C37.2239,25.9809 37.4009,26.1249 38.1899,25.9629 C40.7199,25.4439 43.4419,24.7749 46.0999,24.1689 C52.1129,22.7969 58.6529,21.2979 64.4859,19.9269 C65.2179,19.7549 64.6909,19.8829 65.0389,19.7939 C65.3869,19.7049 65.2739,19.4729 65.3209,19.3149 C65.3689,19.1569 65.3229,18.9909 65.1879,18.9509 C65.0529,18.9119 65.3379,18.8869 65.0469,18.9429 C64.7559,18.9969 65.2359,18.8959 64.4929,19.0709 C58.6839,20.4309 52.1159,21.9299 46.1109,23.2929 C43.4509,23.8969 40.7289,24.5419 38.1959,25.0929 C37.5419,25.2349 37.3929,25.0839 37.0249,24.7969 C36.6569,24.5099 36.5979,24.1679 36.5989,23.7269 C36.6009,23.2849 36.6899,22.8639 37.0369,22.4629 C37.3849,22.0619 37.3839,21.8649 38.3879,21.6069 C38.4219,21.5979 36.1469,22.1009 39.1629,21.4359 C42.1789,20.7709 55.3939,17.8789 60.3929,16.6539 C60.4799,16.6319 60.7759,16.4349 60.7389,16.3489 C60.7019,16.2629 60.7469,16.2449 60.7729,16.1269 C60.7979,16.0089 60.6109,15.7459 60.5479,15.7609" id="Fill-125" fill="#263238" mask="url(#mask-24)"></path>
                </g>
                <g id="Group-130">
                    <mask id="mask-26" fill="white">
                        <use xlink:href="#path-25"></use>
                    </mask>
                    <g id="Clip-129"></g>
                    <path d="M12.5361,25.216 C12.5191,25.219 12.6661,25.173 12.4761,25.236 C12.2871,25.299 13.0511,25.038 12.2841,25.3 C11.5161,25.563 9.3901,26.76 8.8451,28.099 C8.3011,29.439 7.8741,30.93 8.1291,32.39 C8.3841,33.85 8.7971,35.161 9.8871,36.174 C10.9761,37.188 12.2441,37.313 13.6971,37.08 C13.7131,37.078 13.5601,37.126 13.7541,37.063 C13.9471,36.998 13.1621,37.265 13.9451,37.001 C14.7281,36.738 16.8081,35.568 17.5391,34.256 C18.2691,32.945 19.0951,31.27 18.9991,29.647 C18.9031,28.023 18.4391,26.821 17.0981,25.851 C15.7571,24.88 14.1431,24.886 12.5361,25.216" id="Fill-128" fill="#FFFFFF" mask="url(#mask-26)"></path>
                </g>
                <g id="Group-133">
                    <mask id="mask-28" fill="white">
                        <use xlink:href="#path-27"></use>
                    </mask>
                    <g id="Clip-132"></g>
                    <path d="M12.3692,24.4415 C10.6482,24.9105 9.2962,26.0045 8.4612,27.5425 C7.6262,29.0795 7.4392,30.8525 7.6632,32.5115 C7.7062,32.5235 7.8082,32.4815 7.8822,32.4655 C7.9552,32.4505 8.0442,32.4235 8.1192,32.4075 C8.0432,32.4235 7.9562,32.4505 7.8822,32.4655 C7.8072,32.4815 7.7062,32.5245 7.6632,32.5115 C7.8862,34.1705 8.4062,35.8345 9.6212,36.9255 C10.8352,38.0185 12.0982,38.3065 13.7302,37.8935 C15.3632,37.4815 16.7772,36.3645 17.8142,34.8715 C18.8512,33.3775 19.5352,31.3695 19.5112,29.5205 C19.4852,27.6715 18.8732,26.1455 17.3742,25.0945 C15.8762,24.0445 14.0902,23.9725 12.3692,24.4415 M12.5692,25.2105 C12.7622,25.1715 11.9852,25.3255 12.7652,25.1675 C13.5442,25.0085 16.0352,24.8215 17.1382,25.8425 C18.2402,26.8655 19.0412,27.9875 18.9992,29.6485 C18.9572,31.3085 18.4712,32.8795 17.4992,34.2695 C16.5282,35.6605 15.3332,36.5365 13.7172,37.0755 C13.6992,37.0815 13.8402,37.0555 13.6652,37.0855 C13.4902,37.1135 14.1912,37.0055 13.4892,37.1155 C12.7882,37.2255 10.7232,37.2295 9.8512,36.1785 C8.9792,35.1295 8.2552,33.8795 8.1302,32.3875 C8.0052,30.8955 8.1052,29.5005 8.8842,28.0855 C9.6622,26.6705 10.9272,25.7595 12.5102,25.2255 C12.5262,25.2195 12.3772,25.2495 12.5692,25.2105" id="Fill-131" fill="#263238" mask="url(#mask-28)"></path>
                </g>
            </g>
            <g id="Group-147" transform="translate(137.000000, 224.996000)">
                <path d="M15.2432,74.4777 C15.2432,74.4777 19.8832,60.0337 27.2792,57.2487 C35.2742,54.2367 43.6412,43.5767 43.6272175,39.9347 C43.6152,37.0797 40.9582,35.5447 38.4102,36.1307 C34.7742,36.9667 32.7462,46.0257 26.8812,45.2657 C25.5782,45.0967 24.3472,44.3647 23.4152,43.2407 C19.3262,38.3097 25.2982,31.3927 31.0002,34.3127 C33.7162,35.7037 36.7742,36.6957 38.7182,35.5487 C42.9002,33.0827 41.8462,28.8997 38.4752,28.1637 C35.1052,27.4257 30.7092,22.8967 22.4052,24.3567 C14.1232,25.8127 27.6232,6.5457 30.1152,4.7577 C32.3142,3.1807 29.8712,0.3407 28.5332,0.2727 C26.1952,0.1537 23.9632,2.3327 22.6272,3.3987 C20.9402,4.7437 11.3852,23.8417 11.3852,23.8417 L20.2612,6.9827 C23.4272,2.6177 19.3832,-1.6313 16.7042,1.1597 C15.4632,2.4527 5.8562,22.9947 5.8562,22.9947 C6.5142,21.2327 12.4362,7.2857 12.2742,5.1697 C12.0422,4.5417 11.2602,4.0887 10.5172,4.0347 C8.7242,3.9017 7.6952,5.2737 7.1632,6.9907 C6.2512,9.9357 0.5182,24.2047 0.3532,25.5747 C0.1882,26.9457 0.5222,29.2807 1.5042,37.6887 C1.4652,50.6927 0.2332,67.7607 0.2332,67.7607" id="Fill-135" fill="#F1D5C3"></path>
                <path d="M23.4951,129.4005 C26.6461,102.8995 40.1331,111.3345 58.8371,105.1165 C61.2441,103.4515 60.8581,101.4535 60.8501,98.8915 C60.6631,96.3285 62.4251,95.1905 62.6191,92.7325 C61.7041,90.2965 59.8881,89.5255 61.4611,86.8695 C62.1501,85.9095 58.4921,82.2255 58.9401,81.1825 C59.5731,79.7085 65.1201,77.1715 65.4491,75.9325 C66.5801,71.6785 62.2041,69.8065 59.9401,71.1055 C56.1031,73.3075 49.6351,76.3965 45.7751,77.3865 C39.9521,78.8795 30.0371,80.4845 33.8081,77.5965 C35.2741,76.4745 34.0581,74.3745 33.1471,74.4775 C21.9311,75.7465 11.2491,100.1335 2.1301,126.3925" id="Fill-137" fill="#F1D5C3"></path>
                <path d="M58.9404,81.1828 C58.9404,81.1828 52.7554,82.8808 50.0744,83.5728" id="Stroke-139" stroke="#E5B79E" stroke-width="0.878"></path>
                <path d="M12.1035,23.6447 C12.6045,20.1817 17.4145,10.2857 20.6155,5.7037" id="Stroke-141" stroke="#E5B79E" stroke-width="0.734"></path>
                <path d="M4.6035,24.6847 C4.6035,24.6847 3.2265,24.7997 3.4775,26.8207" id="Stroke-143" stroke="#E5B79E" stroke-width="0.891"></path>
                <path d="M11.9883,24.9054 C11.9883,24.9054 10.6113,25.0204 10.8623,27.0414" id="Stroke-145" stroke="#E5B79E" stroke-width="0.891"></path>
            </g>
        </g>
    </g>
</svg>