<?xml version="1.0" encoding="UTF-8"?>
<svg width="500px" height="500px" viewBox="0 0 500 500" version="1.1" xmlns="http://www.w3.org/2000/svg" xmlns:xlink="http://www.w3.org/1999/xlink">
    <!-- Generator: Sketch 62 (91390) - https://sketch.com -->
    <title>clouds</title>
    <desc>Created with Sketch.</desc>
    <defs>
        <polygon id="path-1" points="0.0952 0.498 289.1992 0.498 289.1992 165.5395 0.0952 165.5395"></polygon>
    </defs>
    <g id="clouds" stroke="none" stroke-width="1" fill="none" fill-rule="evenodd">
        <rect fill="#FFFFFF" x="0" y="0" width="500" height="500"></rect>
        <g id="Group-29" transform="translate(29.000000, 138.000000)">
            <g id="Group-3" transform="translate(73.000000, 0.502000)">
                <mask id="mask-2" fill="white">
                    <use xlink:href="#path-1"></use>
                </mask>
                <g id="Clip-2"></g>
                <path d="M175.8952,0.4975 C209.6022,0.4975 237.2262,27.0285 238.9812,60.3045 C266.8862,61.5775 289.1992,84.6795 289.1992,112.8945 C289.1992,141.9225 265.5822,165.5395 236.5542,165.5395 L42.9112,165.5395 C19.3012,165.5395 0.0952,146.3315 0.0952,122.7235 C0.0952,99.1145 19.3012,79.9075 42.9112,79.9075 C45.8152,79.9075 48.6892,80.1995 51.4952,80.7735 C51.4942,80.6095 51.4922,80.4475 51.4922,80.2845 C51.4922,53.1915 73.5342,31.1505 100.6272,31.1505 C107.2192,31.1505 113.6552,32.4545 119.6332,34.9685 C130.2852,14.0175 151.8442,0.4975 175.8952,0.4975" id="Fill-1" fill="#CBCBCB" mask="url(#mask-2)"></path>
            </g>
            <path d="M236.4773,99.0869 L256.8193,95.4999 L277.1613,91.9139 C275.2263,100.7599 268.1413,107.5629 259.2233,109.1349 C250.3053,110.7079 241.3203,106.7389 236.4773,99.0869" id="Fill-4" fill="#FFFFFF"></path>
            <path d="M180.406,91.9693 L200.748,95.5563 L221.091,99.1433 C216.247,106.7943 207.262,110.7633 198.344,109.1913 C189.426,107.6183 182.341,100.8163 180.406,91.9693" id="Fill-6" fill="#FFFFFF"></path>
            <g id="Group-12" transform="translate(0.000000, 112.502000)">
                <path d="M97.6838,0.6191 C122.1988,0.6191 142.1418,20.5631 142.1418,45.0781 C142.1418,46.1531 142.1018,47.2271 142.0218,48.3001 C145.2958,47.2051 148.7468,46.6351 152.2438,46.6351 C170.0998,46.6351 184.6258,61.1611 184.6258,79.0151 C184.6258,96.8721 170.0998,111.3971 152.2438,111.3971 L39.0218,111.3971 C17.8378,111.3971 0.6018,94.1621 0.6018,72.9771 C0.6018,51.7931 17.8378,34.5571 39.0218,34.5571 C44.1758,34.5571 49.1948,35.5781 53.8628,37.5511 C57.4488,16.6071 75.7338,0.6191 97.6838,0.6191" id="Fill-8" fill="#CBCBCB"></path>
                <path d="M97.6838,0.6191 C122.1988,0.6191 142.1418,20.5631 142.1418,45.0781 C142.1418,46.1531 142.1018,47.2271 142.0218,48.3001 C145.2958,47.2051 148.7468,46.6351 152.2438,46.6351 C170.0998,46.6351 184.6258,61.1611 184.6258,79.0151 C184.6258,96.8721 170.0998,111.3971 152.2438,111.3971 L39.0218,111.3971 C17.8378,111.3971 0.6018,94.1621 0.6018,72.9771 C0.6018,51.7931 17.8378,34.5571 39.0218,34.5571 C44.1758,34.5571 49.1948,35.5781 53.8628,37.5511 C57.4488,16.6071 75.7338,0.6191 97.6838,0.6191 Z" id="Stroke-10" stroke="#FFFFFF" stroke-width="3.205"></path>
            </g>
            <path d="M91.6379,204.9287 C80.4459,204.8487 70.5119,201.3057 61.7509,194.4077 C60.9349,193.7657 60.1669,193.0627 59.3799,192.3847 C59.2559,192.2777 59.0919,192.1717 59.0449,192.0327 C58.9719,191.8177 58.8829,191.4747 58.9879,191.3667 C59.1289,191.2217 59.5039,191.1327 59.6799,191.2197 C60.5449,191.6457 61.3699,192.1507 62.2219,192.6047 C67.7849,195.5707 73.6679,197.6417 79.8499,198.8677 C83.4459,199.5817 87.0709,199.9847 90.7389,200.0967 C94.1009,200.1997 97.4339,199.9847 100.7609,199.5407 C106.4959,198.7777 112.0119,197.2327 117.3289,194.9637 C117.4929,194.8937 117.6739,194.8427 117.8509,194.8207 C118.3129,194.7637 118.6759,194.9307 118.8869,195.3607 C119.1039,195.8027 118.9119,196.1667 118.5769,196.4187 C117.7909,197.0097 116.9999,197.5997 116.1669,198.1187 C111.5079,201.0217 106.4349,202.8677 101.0669,203.9367 C100.0339,204.1417 98.9969,204.3637 97.9509,204.4617 C95.8499,204.6597 93.7429,204.7777 91.6379,204.9287" id="Fill-13" fill="#FFFFFF"></path>
            <path d="M87.2243,181.2188 C87.5313,179.9348 87.8393,178.6508 88.1423,177.3658 C88.9473,173.9638 89.7493,170.5628 90.5553,167.1608 C90.8053,166.1068 91.0233,165.9338 92.0863,165.9258 C92.5973,165.9218 93.1083,165.9158 93.6193,165.9278 C94.4983,165.9478 94.7443,166.1248 94.9513,166.9898 C95.8653,170.8158 96.7643,174.6438 97.6693,178.4698 C97.9023,179.4538 98.1363,180.4368 98.4923,181.4288 C98.6573,180.8088 98.8253,180.1888 98.9863,179.5668 C100.0503,175.4608 101.1133,171.3548 102.1783,167.2488 C102.4803,166.0848 102.6863,165.9268 103.8793,165.9248 C104.4083,165.9238 104.9373,165.9148 105.4663,165.9288 C105.9953,165.9438 106.1503,166.1248 106.0953,166.6498 C106.0743,166.8468 106.0213,167.0428 105.9613,167.2338 C104.1913,172.8788 102.4183,178.5238 100.6443,184.1678 C100.3193,185.2028 100.1273,185.3408 99.0413,185.3448 C98.5313,185.3468 98.0193,185.3528 97.5093,185.3428 C96.6183,185.3248 96.3543,185.1218 96.1403,184.2448 C95.2963,180.7968 94.4613,177.3458 93.6223,173.8968 C93.3343,172.7148 93.0443,171.5318 92.7163,170.1908 C92.6213,170.5018 92.5653,170.6568 92.5263,170.8168 C91.4643,175.2418 90.4043,179.6678 89.3433,184.0938 C89.0893,185.1508 88.8503,185.3388 87.7593,185.3448 C87.3213,185.3478 86.8833,185.3468 86.4453,185.3448 C85.3053,185.3418 85.1003,185.1948 84.7713,184.1108 C83.4133,179.6528 82.0583,175.1938 80.7033,170.7348 C80.3273,169.4978 79.9433,168.2638 79.5883,167.0218 C79.3343,166.1288 79.4983,165.9268 80.4003,165.9248 C80.9113,165.9238 81.4213,165.9228 81.9323,165.9248 C82.9883,165.9298 83.2243,166.1008 83.4953,167.1398 C83.9943,169.0598 84.4773,170.9848 84.9683,172.9068 C85.6743,175.6748 86.3803,178.4418 87.0863,181.2088 C87.1323,181.2118 87.1783,181.2148 87.2243,181.2188" id="Fill-15" fill="#FFFFFF"></path>
            <path d="M73.7922,177.8877 C73.7502,181.4067 70.8682,183.6647 67.4382,182.8597 C66.4072,182.6177 65.7392,181.9887 65.4742,180.9517 C64.8662,178.5757 66.1142,176.7837 68.5842,176.5197 C70.2122,176.3457 71.8202,176.5397 73.4172,176.8617 C73.6942,176.9167 73.8302,177.0447 73.7962,177.3417 C73.7752,177.5217 73.7922,177.7047 73.7922,177.8877 M78.3592,183.1967 C77.5192,181.8377 77.3602,180.3507 77.3772,178.7867 C77.4052,176.2367 77.4222,173.6807 77.2832,171.1347 C77.1152,168.0547 75.2512,166.1017 72.2142,165.5667 C69.4012,165.0717 66.7072,165.4787 64.0762,166.5497 C63.1702,166.9187 62.7862,167.4537 62.8402,168.4537 C62.9172,169.8777 63.0002,169.9797 64.3132,169.4507 C66.1792,168.7017 68.0922,168.2497 70.1252,168.4077 C72.0632,168.5577 73.2392,169.3467 73.5542,170.9647 C73.7702,172.0787 73.7762,173.2337 73.8872,174.4947 C73.5302,174.4367 73.3532,174.4147 73.1792,174.3787 C71.1882,173.9607 69.1902,173.7057 67.1522,173.9937 C64.1052,174.4257 62.0082,176.3977 61.5962,179.2477 C61.1432,182.3817 62.9022,185.0907 65.8642,185.6577 C68.7112,186.2017 71.2562,185.5317 73.3722,183.4767 C73.5762,183.2797 73.7682,183.0697 74.0022,182.8267 C74.1852,183.1757 74.3162,183.4767 74.4932,183.7477 C74.7812,184.1887 75.0792,184.6257 75.4122,185.0337 C75.7622,185.4607 76.2152,185.5147 76.6832,185.2217 C77.1622,184.9217 77.6312,184.6067 78.0962,184.2837 C78.4992,184.0047 78.6272,183.6297 78.3592,183.1967" id="Fill-17" fill="#FFFFFF"></path>
            <path d="M113.8889,185.912132 C112.4569,185.8851 110.6639,185.5991 108.9559,184.8981 C107.7179,184.3911 107.2369,183.2651 107.6719,182.0001 C107.7959,181.6411 108.0759,181.5891 108.3789,181.6791 C108.7259,181.7831 109.0569,181.9431 109.3969,182.0721 C111.5889,182.9031 113.8349,183.2661 116.1519,182.7361 C117.2059,182.4951 118.0929,181.9731 118.3949,180.8161 C118.6689,179.7681 118.3319,178.8081 117.3949,178.2731 C116.7519,177.9071 116.0449,177.6391 115.3439,177.3931 C114.2089,176.9971 113.0449,176.6841 111.9119,176.2841 C110.2069,175.6831 108.8669,174.6511 108.1969,172.9031 C107.3379,170.6601 108.1069,168.2411 110.1659,166.7811 C111.9029,165.5501 113.8879,165.1951 115.9479,165.4131 C117.2039,165.5461 118.4589,165.8541 119.6679,166.2331 C120.9349,166.6311 121.4059,167.7921 120.9579,169.0471 C120.7959,169.5011 120.4509,169.4231 120.0949,169.3081 C119.2139,169.0221 118.3439,168.6761 117.4419,168.4831 C116.1129,168.1991 114.7589,168.1831 113.4289,168.5311 C112.1229,168.8731 111.4789,169.6441 111.4659,170.8181 C111.4559,171.6591 111.8109,172.3291 112.5319,172.7241 C113.2139,173.0981 113.9429,173.3981 114.6769,173.6621 C115.7729,174.0571 116.8919,174.3861 117.9989,174.7521 C118.2929,174.8491 118.5779,174.9731 118.8629,175.0941 C123.0589,176.8781 122.8919,181.9821 119.9119,184.2661 C118.5209,185.3331 116.5869,185.9171 113.8889,185.912132" id="Fill-19" fill="#FFFFFF"></path>
            <path d="M118.4616,192.4893 C116.7326,192.6543 115.1226,192.8083 113.5116,192.9623 C113.3676,192.9753 113.2156,193.0103 113.0786,192.9823 C112.9316,192.9513 112.7306,192.8883 112.6776,192.7803 C112.6286,192.6763 112.7006,192.4643 112.7896,192.3563 C112.9246,192.1923 113.1086,192.0593 113.2916,191.9443 C114.9576,190.8863 116.8086,190.4213 118.7506,190.2133 C120.3026,190.0473 121.8436,190.0863 123.3606,190.4413 C124.8186,190.7833 125.1176,190.8883 124.9766,192.6753 C124.7526,195.5193 123.8166,198.1423 122.0576,200.4243 C121.6386,200.9683 121.1286,201.4493 120.6136,201.9073 C120.4496,202.0533 120.1356,202.0313 119.8906,202.0863 C119.8896,201.8503 119.8256,201.5953 119.8966,201.3853 C120.4986,199.5763 121.1606,197.7873 121.7256,195.9683 C121.9196,195.3423 121.9406,194.6453 121.9466,193.9803 C121.9516,193.3563 121.5396,192.9683 120.9416,192.8583 C120.0866,192.7013 119.2226,192.5993 118.4616,192.4893" id="Fill-21" fill="#FFFFFF"></path>
            <path d="M360.7585,99.3379 C379.1305,99.3379 394.4355,112.7199 397.4365,130.2479 C401.3435,128.5979 405.5435,127.7439 409.8575,127.7439 C427.5875,127.7439 442.0135,142.1689 442.0135,159.9009 C442.0135,177.6309 427.5875,192.0569 409.8575,192.0569 L315.0935,192.0569 C300.1495,192.0569 287.9905,179.8989 287.9905,164.9539 C287.9905,150.0099 300.1495,137.8519 315.0935,137.8519 C318.0215,137.8519 320.9085,138.3289 323.6505,139.2449 C323.5825,138.3479 323.5485,137.4489 323.5485,136.5489 C323.5485,116.0309 340.2405,99.3379 360.7585,99.3379" id="Fill-23" fill="#CBCBCB"></path>
            <path d="M360.7585,99.3379 C379.1305,99.3379 394.4355,112.7199 397.4365,130.2479 C401.3435,128.5979 405.5435,127.7439 409.8575,127.7439 C427.5875,127.7439 442.0135,142.1689 442.0135,159.9009 C442.0135,177.6309 427.5875,192.0569 409.8575,192.0569 L315.0935,192.0569 C300.1495,192.0569 287.9905,179.8989 287.9905,164.9539 C287.9905,150.0099 300.1495,137.8519 315.0935,137.8519 C318.0215,137.8519 320.9085,138.3289 323.6505,139.2449 C323.5825,138.3479 323.5485,137.4489 323.5485,136.5489 C323.5485,116.0309 340.2405,99.3379 360.7585,99.3379 Z" id="Stroke-25" stroke="#FFFFFF" stroke-width="3.205"></path>
            <path d="M381.8415,168.7491 C381.5615,168.8091 381.4535,169.0221 381.4495,169.2741 C381.3525,169.3421 381.2585,169.3821 381.1975,169.4511 C380.6005,170.1451 380.0005,170.8391 379.4145,171.5431 C378.9205,172.1371 378.3245,172.6361 377.7375,173.1131 C376.8635,173.8221 375.9005,174.4311 374.9305,175.0071 C373.6305,175.7781 372.2495,176.3991 370.7985,176.8311 C369.8715,177.1061 368.9235,177.3141 367.9775,177.5181 C367.4455,177.6311 366.8965,177.6641 366.3575,177.7491 C365.2615,177.9221 364.1545,177.9351 363.0555,177.8841 C362.0165,177.8371 360.9735,177.7291 359.9505,177.5481 C358.9395,177.3671 357.9435,177.0881 356.9535,176.8031 C355.7475,176.4551 354.5845,175.9821 353.4855,175.3741 C352.6805,174.9291 351.8985,174.4401 351.1135,173.9591 C350.7415,173.7311 350.3765,173.4881 350.0285,173.2281 C349.5705,172.8861 349.0945,172.5561 348.6935,172.1541 C347.9485,171.4091 347.2335,170.6331 346.5435,169.8361 C346.0315,169.2441 345.5515,168.6181 345.1115,167.9721 C344.6845,167.3471 344.3205,166.6781 343.9405,166.0221 C343.2155,164.7741 342.6945,163.4341 342.2475,162.0711 C341.7605,160.5851 341.4565,159.0491 341.3415,157.4861 C341.2635,156.4311 341.2245,155.3681 341.2345,154.3101 C341.2455,153.0551 341.4215,151.8121 341.6875,150.5851 C341.7855,150.1341 341.9055,149.6881 342.0015,149.2381 C342.0385,149.0661 342.0335,148.8861 342.0445,148.7471 C342.1825,148.4211 342.3145,148.1171 342.4385,147.8111 C342.8575,146.7781 343.2385,145.7291 343.7035,144.7181 C343.9795,144.1191 344.3835,143.5781 344.7325,143.0131 C345.4475,141.8501 346.2885,140.7771 347.2025,139.7681 C347.7165,139.1991 348.2955,138.6881 348.8675,138.1771 C349.3225,137.7701 349.8415,137.4321 350.2795,137.0091 C350.7665,136.5381 351.3845,136.2771 351.9225,135.8891 C352.4595,135.5011 353.0575,135.1771 353.6675,134.9181 C354.9855,134.3581 356.3045,133.7841 357.6665,133.3561 C358.8915,132.9731 360.1655,132.7321 361.4565,132.6391 C362.1105,132.5911 362.7625,132.5101 363.4165,132.4901 C364.0195,132.4731 364.6235,132.5041 365.2255,132.5391 C365.8085,132.5741 366.3935,132.6151 366.9695,132.7011 C368.3725,132.9121 369.7635,133.1911 371.0955,133.6921 C371.9585,134.0171 372.8185,134.3581 373.6595,134.7341 C374.2325,134.9901 374.7715,135.3201 375.3265,135.6121 C375.4205,135.6621 375.5265,135.6871 375.6265,135.7211 C375.6505,135.7281 375.6905,135.7131 375.7025,135.7261 C376.2605,136.3171 377.0145,136.6431 377.6345,137.1471 C378.0095,137.4541 378.3805,137.7661 378.7525,138.0761 C378.8945,138.1941 378.8235,138.3001 378.7245,138.3991 C378.2005,138.9211 377.6725,139.4381 377.1545,139.9651 C376.6035,140.5221 376.0685,141.0971 375.5125,141.6481 C374.9435,142.2151 374.3525,142.7591 373.7785,143.3201 C373.3355,143.7551 372.8955,144.1911 372.4745,144.6461 C372.3085,144.8271 372.1955,144.8121 372.0155,144.6821 C371.7895,144.5191 371.5295,144.4041 371.2995,144.2471 C371.0465,144.0741 370.8265,143.8501 370.5655,143.6941 C369.4065,143.0031 368.1785,142.4951 366.8555,142.1951 C365.6195,141.9161 364.3765,141.8161 363.1205,141.8821 C361.5545,141.9631 360.0515,142.3271 358.6035,142.9411 C357.4375,143.4371 356.3735,144.0901 355.4085,144.8961 C354.5045,145.6531 353.6785,146.4941 353.0075,147.4711 C352.2865,148.5181 351.7265,149.6411 351.2975,150.8461 C350.7685,152.3331 350.5485,153.8541 350.5705,155.4181 C350.5835,156.4881 350.7005,157.5541 350.9785,158.5931 C351.0715,158.9441 351.1915,159.2911 351.3235,159.6311 C351.3685,159.7471 351.4875,159.8351 351.5495,159.9091 C351.5495,160.0401 351.5085,160.1881 351.5565,160.2991 C352.1435,161.6571 352.8965,162.9061 353.8955,164.0131 C354.6395,164.8381 355.4365,165.6001 356.3555,166.2161 C357.1185,166.7281 357.9025,167.2251 358.7925,167.5081 C359.6085,167.7681 360.4075,168.1011 361.2405,168.2721 C362.1845,168.4671 363.1475,168.6051 364.1255,168.5151 C364.6895,168.4621 365.2665,168.5231 365.8225,168.4361 C366.7035,168.2971 367.5775,168.0981 368.4445,167.8821 C368.9205,167.7641 369.3815,167.5741 369.8385,167.3911 C370.0335,167.3121 370.2025,167.1681 370.3455,167.0771 C370.4785,167.0511 370.6025,167.0601 370.6845,167.0061 C371.3195,166.5911 371.9665,166.1931 372.5675,165.7331 C373.3425,165.1411 373.9745,164.3961 374.4945,163.5731 C375.1555,162.5271 375.6575,161.4061 375.9355,160.1901 C375.9915,159.9441 375.9165,159.8861 375.6855,159.8861 C372.8575,159.8901 370.0285,159.8871 367.2005,159.8871 C366.2125,159.8871 365.2235,159.8831 364.2355,159.8921 C363.9925,159.8941 363.8905,159.8181 363.8965,159.5611 C363.9095,158.9041 363.8995,158.2461 363.8995,157.5891 C363.8995,156.6301 363.9045,155.6711 363.8985,154.7121 C363.8895,153.6521 363.8655,152.5941 363.8565,151.5341 C363.8515,151.0631 363.8855,151.0361 364.3495,151.0361 L384.5315,151.0361 C385.0845,151.0361 385.0915,151.0491 385.1755,151.6101 C385.2855,152.3521 385.4135,153.0911 385.5165,153.8331 C385.5555,154.1121 385.5435,154.3981 385.5545,154.6821 C385.6235,156.5061 385.4655,158.3131 385.1385,160.1071 C385.0175,160.7721 384.8905,161.4371 384.7295,162.0941 C384.6145,162.5621 384.4495,163.0201 384.2895,163.4761 C384.1205,163.9551 383.9335,164.4291 383.7515,164.9031 C383.3395,165.9821 382.7775,166.9861 382.1915,167.9781 C382.0795,168.1661 381.9525,168.3451 381.8455,168.5341 C381.8195,168.5801 381.8415,168.6531 381.8415,168.7491" id="Fill-27" fill="#FFFFFF"></path>
        </g>
    </g>
</svg>