<?xml version="1.0" encoding="UTF-8"?>
<svg width="500px" height="780px" viewBox="0 0 500 780" version="1.1" xmlns="http://www.w3.org/2000/svg" xmlns:xlink="http://www.w3.org/1999/xlink">
    <!-- Generator: Sketch 62 (91390) - https://sketch.com -->
    <title>empowerment</title>
    <desc>Created with Sketch.</desc>
    <defs>
        <polygon id="path-1" points="0.586906539 0.72044375 42.6615741 0.72044375 42.6615741 12.9996527 0.586906539 12.9996527"></polygon>
    </defs>
    <g id="empowerment" stroke="none" stroke-width="1" fill="none" fill-rule="evenodd">
        <rect fill="#FFFFFF" x="0" y="0" width="500" height="780"></rect>
        <g id="Group-234" transform="translate(100.000000, 20.000000)">
            <path d="M37.5644432,383 C41.5377175,383.068814 58.1918043,384.228396 58.1918043,384.228396 L65,387.056343 C65,387.056343 51.6920756,391.324982 50.5881708,390.980182 C49.4850489,390.636846 36.2405403,386.508762 36.0189765,386.027067 C35.7989784,385.546103 37.5644432,383 37.5644432,383" id="Fill-1" fill="#883434"></path>
            <path d="M178.10572,161.412609 C178.320074,162.460036 179.841532,165.635023 179.841532,165.635023 L180.921511,170 L184,169.182353 C184,169.182353 183.721796,167.035505 183.820307,166.881201 C183.934326,166.690836 183.77014,166.287463 183.754633,166.097937 L183.721796,165.87235 C183.688959,164.93562 182.755834,164.247119 182.15017,163.488175 C181.789873,162.966558 181.70778,162.3854 181.674943,161.815982 C181.625687,160.914474 181.789873,160.012965 182.100914,159.147517 C182.329863,158.58984 182.919108,158.091704 182.919108,157.498805 C182.788672,157.130655 182.214933,156.988929 181.740617,157.00067 C180.217335,157.024151 178.711384,157.794836 178.269906,158.862389 C178.031836,159.536633 177.891366,160.365182 178.10572,161.412609" id="Fill-3" fill="#F1D5C3"></path>
            <path d="M122.894017,162.412609 C122.679639,163.460875 121.158926,166.635861 121.158926,166.635861 L120.077915,171 L117,170.182353 C117,170.182353 117.278235,168.035505 117.179712,167.881201 C117.064769,167.690836 117.228974,167.287463 117.245394,167.097937 L117.278235,166.87235 C117.310163,165.93562 118.244303,165.247958 118.850033,164.489014 C119.209458,163.966558 119.29156,163.3854 119.324401,162.815982 C119.373662,161.914474 119.209458,161.012965 118.899295,160.147517 C118.669409,159.58984 118.080098,159.091704 118.080098,158.498805 C118.211462,158.130655 118.784352,157.988929 119.259631,158.00067 C120.782169,158.024151 122.288286,158.794836 122.730725,159.862389 C122.968821,160.536633 123.108394,161.365182 122.894017,162.412609" id="Fill-5" fill="#F1D5C3"></path>
            <path d="M192.003484,330 C191.921853,330.386006 193.299577,344 193.542803,344 C193.786029,344 198,342.841172 198,342.841172 C198,342.841172 197.918369,333.282669 196.946299,332.510658 C195.974229,331.737836 192.003484,330 192.003484,330" id="Fill-7" fill="#D6948B"></path>
            <path d="M106.996586,329 C107.077384,329.330946 105.699644,341 105.456415,341 C105.21402,341 101,340.007161 101,340.007161 C101,340.007161 101.080799,331.814321 102.053713,331.151577 C103.025795,330.489685 106.996586,329 106.996586,329" id="Fill-9" fill="#E0B094"></path>
            <path d="M236.085803,383 C235.329121,383.525532 239.826107,390.171679 239.826107,390.171679 C239.826107,390.171679 242.106528,395.02124 251.141207,393.803961 C251.994469,393.689078 264,386.430217 264,386.430217 L261.865648,383.391094 L246.953119,388.75478 L236.085803,383 Z" id="Fill-11" fill="#92E0EA"></path>
            <path d="M259.303523,369.950174 L260,385.483281 C249.04811,389.776808 240.338874,387.27581 240.338874,387.27581 L239,366 L259.303523,369.950174 Z" id="Fill-13" fill="#F4D9CE"></path>
            <polygon id="Fill-15" fill="#D6948B" points="260 374.779164 246.749899 377 240.355556 375.782198 240 370 259.88202 372.010789"></polygon>
            <path d="M273.977111,366 C275.146014,364.794093 285,346.52362 285,346.52362 L273,343 L273.977111,366 Z" id="Fill-17" fill="#2B5165"></path>
            <path d="M225,379.812341 C225,379.812341 209.379615,382.661626 209.283243,381.856743 C207.72522,368.978619 155.022282,214.47252 152.624212,205.144733 C150.271918,195.994021 150.121738,195.618141 147.873045,205.084367 C145.646839,214.454812 93.2747804,368.978619 91.7167574,381.856743 C91.6203848,382.661626 76,379.812341 76,379.812341 L121.487043,159 L150.615647,160.864108 L178.753221,159.188343 L225,379.812341 Z" id="Fill-19" fill="#2B5165"></path>
            <path d="M211.643701,713.044085 C211.643701,713.044085 214.560882,723.20792 213.903523,722.996755 C213.245368,722.784744 172.204519,722.996755 172.204519,722.996755 C172.204519,722.996755 171.239544,721.297292 173.50175,720.282006 C175.762367,719.26841 197.401178,711 197.401178,711 L211.643701,713.044085 Z" id="Fill-21" fill="#383838"></path>
            <path d="M190.712343,331.055448 C189.792702,333.919447 190.139882,335.606007 191.044093,339.705765 C191.417504,341.399418 191.69602,345.447949 192.075603,347.140813 C192.480646,348.951106 191.833349,351.471488 191.300234,353.474081 C190.691512,355.764334 188.10695,359.256458 188.001253,361.106945 C187.916387,362.598053 192.173585,363.531965 191.540946,364.625077 C190.797209,365.909699 194.978028,368.737445 195.271974,370 C197.056479,369.267056 197.456893,365.324132 197.949889,363.35464 C198.742231,360.192735 200.539852,358.80487 202.107563,356.018106 C204.36809,351.999523 206.266779,347.767362 208.162382,343.54387 C209.434604,340.706667 210.728428,337.789865 211,334.684704 C210.658992,334.365518 210.303325,333.988013 209.925285,334.254395 C209.258699,334.724109 207.946359,335.615464 207.678645,336.028435 C206.355503,338.066492 204.801679,340.861137 202.504119,341.291446 C197.480039,342.232452 194.054529,340.120312 194.046043,334.965272 C194.0445,333.790197 193.553818,328.175687 192.495305,327.36472 C190.473175,325.81608 191.176793,329.610839 190.712343,331.055448" id="Fill-23" fill="#F4D9CE"></path>
            <path d="M236.775273,384.775593 C236.775273,384.775593 267.694614,438 209.634563,438 C147.216769,438 188.22019,358 188.22019,358 L199.345714,367.331783 C199.345714,367.331783 180.174203,423.766544 204.376955,417.854608 C213.77234,415.559072 223.571663,402.719276 223.571663,402.719276" id="Fill-25" fill="#E58585"></path>
            <path d="M296.911738,729.97758 C291.561977,729.672809 281.435354,727.387834 281.435354,727.387834 C281.435354,727.387834 255.348206,690.318143 245.980072,624.743609 C243.026809,604.083392 238.887401,569.604248 235.877656,545.014901 C215.777722,573.678546 203.99695,709.044673 211.904592,712.951347 L194.830541,711.948813 C180.064231,714.378955 177.732284,527.954983 204.852267,494.277867 C216.173104,480.219134 243.688469,494.062121 245.068272,494.775123 C262.16653,495.512988 284.662963,496.40404 284.662963,496.40404 C266.669044,497.445874 283.484886,693.25276 297.47657,727.387834 C298.670785,730.29839 297.533053,730.009661 296.911738,729.97758" id="Fill-27" fill="#69BAC9"></path>
            <path d="M280.418799,482.075117 C280.418799,482.075117 285.573972,520.040245 265.177727,537.892026 C244.781481,555.74301 232.988031,490.871866 232.988031,490.871866 C232.988031,490.871866 230.764961,480.137202 232.988031,480.005669 C235.211893,479.874136 280.418799,482.075117 280.418799,482.075117" id="Fill-29" fill="#69BAC9"></path>
            <path d="M263.812714,382.589859 C264.428487,381.035068 292,382 292,404.062805 C292,471.390062 283.774689,500.715504 282.154065,501.882399 C280.532637,503.049293 208.0298,495.179166 206,493.877629 C211.71479,475.680965 217.120087,409.735387 219.510829,406.08804 C222.567989,401.42527 225.814864,382.589859 236.419663,382 C240.059637,382 237.536254,391.249403 245.112833,392.206321 C258.838298,393.939032 262.060254,387.016204 263.812714,382.589859" id="Fill-31" fill="#E58585"></path>
            <path d="M231,554 C232.635562,550.452967 234.284696,547.159748 236,545.036143 L233.327791,514 L231,554 Z" id="Fill-33" fill="#2B5165"></path>
            <path d="M183.414,361.646 C183.414,361.651 183.414,361.656 183.414,361.661 C183.474,361.554 183.523,361.445 183.586,361.339 C183.524,361.446 183.469,361.546 183.414,361.646" id="Fill-35" fill="#E0B094"></path>
            <g id="Group-39" transform="translate(257.000000, 726.000000)">
                <mask id="mask-2" fill="white">
                    <use xlink:href="#path-1"></use>
                </mask>
                <g id="Clip-38"></g>
                <path d="M40.3013519,3.42281875 C40.3013519,3.42281875 43.2237593,13.2004438 42.5652222,12.9965063 C41.9058889,12.7933813 0.791518519,12.9965063 0.791518519,12.9965063 C0.791518519,12.9965063 -0.174388889,11.3617563 2.09107407,10.3859438 C4.35653704,9.41094375 24.5434444,0.72044375 24.5434444,0.72044375 L40.3013519,3.42281875 Z" id="Fill-37" fill="#383838" mask="url(#mask-2)"></path>
            </g>
            <path d="M88.3557505,713.044085 C88.3557505,713.044085 85.4385342,723.20792 86.0966964,722.996755 C86.7540636,722.784744 127.795401,722.996755 127.795401,722.996755 C127.795401,722.996755 128.760388,721.297292 126.498949,720.282006 C124.23751,719.26841 102.598443,711 102.598443,711 L88.3557505,713.044085 Z" id="Fill-40" fill="#69BAC9"></path>
            <path d="M111.05324,329.575519 C112.007937,332.46009 110.779326,335.35895 109.840647,339.488157 C109.453001,341.194769 109.163869,345.271588 108.769816,346.976612 C108.349333,348.799909 109.021305,351.338395 109.57394,353.355373 C110.206667,355.662077 112.889751,359.179286 112.998676,361.043859 C113.087578,362.545677 108.668099,363.485504 109.324854,364.586468 C110.09614,365.880318 105.756754,368.728376 105.451603,370 C103.598274,369.261791 103.183397,365.291338 102.671609,363.306906 C101.849063,360.122288 99.9829191,358.725247 98.3554489,355.917672 C96.0087522,351.870223 92.4422539,347.286184 90.4751934,343.032354 C89.1536749,340.174771 87.281924,340.754225 87,337.625966 C87.0985132,337.009204 87.5262047,335.139075 87.9987477,335.197814 C89.202531,335.346249 91.032634,337.12827 92.1178811,337.929187 C94.110571,339.400842 95.558635,340.651828 97.9429749,341.085229 C103.159369,342.032994 107.375414,337.893467 107.384224,332.702191 C107.385826,331.518676 108.262834,327.064815 109.635611,327.002107 C110.929899,326.943368 110.571086,328.120533 111.05324,329.575519" id="Fill-42" fill="#E0B094"></path>
            <path d="M61.8863768,386.867191 C61.8863768,386.867191 35.8242314,446 93.3783671,446 C155.252274,446 112.787208,360 112.787208,360 L101.143331,368.576612 C101.143331,368.576612 118.914021,430.734624 98.4632964,424.547256 C81.8835568,419.530883 79.7831392,398.283985 79.7831392,398.283985" id="Fill-44" fill="#FF3434"></path>
            <path d="M104.336343,711.91679 L87.2343986,712.921082 C95.1630412,709.008363 83.3630226,573.396911 63.2302511,544.690251 C60.2155888,569.323506 56.0694179,603.86309 53.111331,624.559523 C43.7278916,690.248203 17.5981243,727.382875 17.5981243,727.382875 C17.5981243,727.382875 7.45495761,729.672659 2.0883738,729.97716 C1.47412625,730.010101 0.326453206,730.299337 1.52261948,727.382875 C15.5371621,693.187964 32.3885586,497.038641 14.3652425,495.994178 C14.3652425,495.994178 36.8984287,495.102368 54.0165379,494.363209 C55.3096907,493.703591 82.2072674,480.222789 93.1667367,494.612274 C117.267871,526.251464 119.716779,713.12194 104.336343,711.91679" id="Fill-46" fill="#C7C7C7"></path>
            <path d="M18.5812013,482.075117 C18.5812013,482.075117 13.4260279,520.040245 33.8222732,537.892026 C54.2185186,555.74301 66.0119692,490.871866 66.0119692,490.871866 C66.0119692,490.871866 68.2350386,480.137202 66.0119692,480.005669 C63.7881067,479.874136 18.5812013,482.075117 18.5812013,482.075117" id="Fill-48" fill="#C7C7C7"></path>
            <path d="M42.3184,377.448135 C42.3184,377.448135 42,384.154619 42,386 L58,386 C58,386 57.2,374.128438 57.2,375.051128 C57.2,375.974647 42.3184,377.448135 42.3184,377.448135" id="Fill-50" fill="#E0B094"></path>
            <path d="M197.563877,121.731787 C197.563877,121.731787 196.575991,121.905006 196.381057,121.996804 C196.094163,122.130909 196,118 196,118 L198,121.625621 L197.563877,121.731787 Z" id="Fill-52" fill="#2B5165"></path>
            <path d="M203.97078,98.6325737 C203.97078,98.6325737 207.243864,98.1412172 207.674996,98.0055252 C208.308496,97.8074656 207.820661,103 207.820661,103 L203,98.8078776 L203.97078,98.6325737 Z" id="Fill-54" fill="#2B5165"></path>
            <path d="M182.332049,136.669016 L151.032044,136.771102 L119.763996,136.872392 C119.763996,136.872392 117.501403,125.342973 116.386085,125.352544 C115.270767,125.362912 113.073686,136.933006 113.073686,136.933006 L106.316266,137 C106.316266,137 105.692296,128.388826 106.197225,100.65075 C106.45688,86.4256042 117.986358,81.4680182 116.159985,56.1369549 C112.804444,9.59657934 131.219972,2.47603109 141.567022,0.63847025 C146.225631,-0.188591638 154.974005,-0.216505974 159.639006,0.580248921 C169.99804,2.3500178 188.459906,9.35093319 185.408761,55.9120451 C185.169878,59.56005 185.204232,62.7853521 185.440718,65.6732895 C186.843654,82.8525692 195.360336,88.1834098 195.660737,100.359643 C196.347025,128.093732 195.779779,136.708096 195.779779,136.708096 L189.022358,136.685764 C189.022358,136.685764 186.74858,125.130027 185.63486,125.126837 C184.519542,125.124444 182.332049,136.669016 182.332049,136.669016" id="Fill-56" fill="#FF3434"></path>
            <path d="M182.332049,136.669016 L151.032044,136.771102 L119.763996,136.872392 C119.763996,136.872392 117.501403,125.342973 116.386085,125.352544 C115.270767,125.362912 113.073686,136.933006 113.073686,136.933006 L106.316266,137 C106.316266,137 105.692296,128.388826 106.197225,100.65075 C106.45688,86.4256042 117.986358,81.4680182 116.159985,56.1369549 C112.804444,9.59657934 131.219972,2.47603109 141.567022,0.63847025 C146.225631,-0.188591638 154.974005,-0.216505974 159.639006,0.580248921 C169.99804,2.3500178 188.459906,9.35093319 185.408761,55.9120451 C185.169878,59.56005 185.204232,62.7853521 185.440718,65.6732895 C186.843654,82.8525692 195.360336,88.1834098 195.660737,100.359643 C196.347025,128.093732 195.779779,136.708096 195.779779,136.708096 L189.022358,136.685764 C189.022358,136.685764 186.74858,125.130027 185.63486,125.126837 C184.519542,125.124444 182.332049,136.669016 182.332049,136.669016 Z" id="Stroke-58" stroke="#FF3434" stroke-linecap="round" stroke-linejoin="round"></path>
            <path d="M140.262607,71.0288352 C140.371628,71.0288352 160.668726,70.963956 160.974305,71.0288352 C161.280679,71.0928826 158.746128,73.9459023 158.746128,73.9459023 C158.746128,73.9459023 147.516118,75.0621567 147.363328,74.9972776 C147.209743,74.9332302 140,71.5004568 140,71.5004568 L140.262607,71.0288352 Z" id="Fill-60" fill="#2B5165"></path>
            <path d="M102.394206,121.614355 C102.394206,121.614355 103.720117,121.902753 103.896215,121.99661 C104.155758,122.134836 103.846724,118 103.846724,118 L102,121.50514 L102.394206,121.614355 Z" id="Fill-62" fill="#2B5165"></path>
            <path d="M97.2234687,100.63183 C97.2234687,100.63183 94.605878,100.139855 94.2604585,100.005508 C93.753372,99.8077716 94.1429628,105 94.1429628,105 L98,100.807805 L97.2234687,100.63183 Z" id="Fill-64" fill="#2B5165"></path>
            <path d="M193.845711,116.161052 C183.463899,101.132015 202.263701,100 202.263701,100 C202.263701,100 212.753539,108.569131 218.527303,124.02227 C225.647365,143.073831 225.181401,170.427644 184,179 L185.372901,166.723599 C192.593734,165.487574 210.751022,156.308897 204.531447,135.495616 C201.522028,125.424388 199.055965,123.70379 193.845711,116.161052" id="Fill-66" fill="#F1D5C3"></path>
            <path d="M126.00701,31.3575541 C125.888511,31.2306367 119.896598,29.4845841 120.001358,35.0561816 C120.106976,40.6285301 124.253572,39.8625199 126.164149,39.9984492 C128.076444,40.1328764 126.125509,31.4837204 126.00701,31.3575541" id="Fill-68" fill="#F1D5C3"></path>
            <path d="M173.94707,31.3696999 C174.065087,31.242226 180.062394,29.4643396 179.999509,35.0282016 C179.934901,40.5928134 175.769866,39.8519649 173.853174,39.998185 C171.937344,40.1436553 173.829915,31.496424 173.94707,31.3696999" id="Fill-70" fill="#F1D5C3"></path>
            <path d="M149.598497,62 C133.458722,59.3298363 129.516446,53.0541617 129.261561,51.1107881 C128.302324,43.8428869 128,19.6707957 128,19.6707957 C135.156884,17.1143904 145.893416,13.2789926 149.47226,12 C153.059949,13.2560829 163.826231,17.0227517 171,19.5325476 C171,19.5325476 170.856878,43.7062188 169.947493,50.9804399 C169.706277,52.9119636 165.858075,59.1386589 150.017409,61.9415408 C149.905645,61.9612905 149.598497,62 149.598497,62" id="Fill-72" fill="#F1D5C3"></path>
            <path d="M138.988981,32 C140.092727,31.9967473 140.994456,33.3376815 141,34.9930754 C141.006393,36.6492839 140.114765,37.9967354 139.011019,38 C137.907273,38.0032527 137.005544,36.6606892 137,35.0052953 C136.993607,33.3490868 137.885235,32.0032646 138.988981,32" id="Fill-74" fill="#000000"></path>
            <path d="M161.989438,30 C163.092933,29.9967473 163.994457,31.3376815 164,32.99389 C164.006392,34.6492839 163.114966,35.9967354 162.011471,36 C160.907976,36.0032527 160.006452,34.6615038 160,33.0052953 C159.994517,31.3490868 160.885943,30.0032646 161.989438,30" id="Fill-76" fill="#000000"></path>
            <path d="M148.98528,44 C148.394382,43.8868278 147.215844,43.6604834 147.055084,43.1448379 C146.831325,42.4298295 147.341844,40.8439198 147.644897,39.7099494 C147.964242,38.5197677 148.7474,36.6183249 148.968987,36 C149.194919,36.6168259 149.996542,38.5152708 150.327836,39.7039535 C150.641751,40.836425 151.165304,42.4200862 150.949148,43.1358441 C150.79382,43.6529886 149.616368,43.8845794 149.028729,44" id="Fill-78" fill="#FF3434"></path>
            <path d="M104.78668,117.132057 C114.995996,102.019105 96.3141489,101 96.3141489,101 C96.3141489,101 85.9558969,109.64624 80.3275609,125.15569 C73.3860267,144.279651 74.0370207,171.668697 115,180 L113.550677,167.715023 C106.369725,166.522299 88.27161,157.442415 94.3059164,136.561265 C97.2261812,126.456623 99.6628046,124.719623 104.78668,117.132057" id="Fill-80" fill="#F1D5C3"></path>
            <polyline id="Fill-82" fill="#F1D5C3" points="149.328737 61.6213355 142.184751 60.0472313 142 76.2728013 149.398223 78 149.613221 77.9991857 157 76.2247557 156.708158 60 149.576435 61.6205212"></polyline>
            <path d="M182.189,172 C182.288,172.63315 182.387,173.2663 182.472,173.89945 C182.486,173.944226 182.5,173.989002 182.5,174.032993 C182.613,174.688924 182.712,175.344069 182.811,176 C182.627,174.666929 182.415,173.333071 182.189,172" id="Fill-84" fill="#2B5165"></path>
            <path d="M182.6625,178 C182.5495,177.329799 182.4505,176.660304 182.3375,176 C182.4085,176.360551 182.4645,176.719689 182.5215,177.08024 C182.5785,177.38989 182.6205,177.700247 182.6625,178" id="Fill-86" fill="#2B5165"></path>
            <path d="M119.589457,180.927163 C120.640662,181.855746 121.620288,183.249408 121.973186,184.486204 C122.069734,184.825948 121.927409,186.279519 121.184991,185.952387 C120.375988,185.594512 119.810019,184.654894 119.026818,184.192967 C118.374288,183.80908 117.720927,183.432286 117.0401,183.088601 C116.554864,182.843448 116.049654,182.632192 115.565251,182.387828 C113.879828,181.535708 109.184781,179.118871 111.751618,177" id="Fill-88" fill="#F1D5C3"></path>
            <path d="M112.812092,175 C112.385129,175.406505 111.764309,176.658284 112.091942,177.118829 C113.001142,178.400451 114.9397,178.945684 116.298293,179.582865 C118.074237,180.416847 119.638701,181.43553 121.269654,182.458246 C122.007427,182.918791 124.066144,184.582721 124.709393,183.788261 C125.980671,182.218698 122.697938,178.495624 122.219707,178.045565" id="Fill-90" fill="#F1D5C3"></path>
            <path d="M119,181.999639 C117.900114,181.024689 115.392216,179.71417 114.41701,179.293636 C113.530748,178.885118 112.471364,178.191668 111.820168,177.432133 C111.73043,177.313697 111.607338,177.196978 111.571602,177.046787 C111.52713,176.638269 111.729636,176.242625 111.9242,175.898474 C112.020292,175.724253 112.15609,175.577496 112.276799,175.423872 C112.374479,175.253084 112.258534,175.023936 112.064763,175.001622 C111.856698,174.979308 111.739165,175.19215 111.622427,175.3329 C111.419921,175.615258 111.249974,175.925937 111.132441,176.25464 C111.029203,176.553304 110.956936,176.883723 111.029203,177.197836 C111.076852,177.420976 111.231709,177.59863 111.368301,177.772851 C112.543631,179.158036 114.350302,179.650661 115.907614,180.44195 C116.524661,180.756062 116.813729,180.838452 118.398835,181.714706 C118.761758,181.915533 118.977764,182.006505 119,181.999639" id="Fill-92" fill="#E5B79E"></path>
            <path d="M111.846953,170 C111.565953,170.300271 111.310275,170.756408 111.086455,171.477669 C110.839762,172.268459 111.134649,173.286171 111.797124,174.010488 C112.390166,174.659165 114.211768,174.778357 115.136456,174.979301 C117.321562,175.453775 119.631647,176.157464 121.536569,177.082726 C122.013616,177.312704 123.959381,178.836216 124.882435,177.371536 C125.618428,176.205599 122.705498,173.625408 121.509613,173.120372" id="Fill-94" fill="#F1D5C3"></path>
            <path d="M122,178 C121.618561,177.825733 121.146341,177.529398 120.857276,177.353525 C120.154122,177.026673 119.920003,176.916652 119.17544,176.620317 C117.710205,176.050134 116.63039,175.517695 115.087115,175.18201 C114.262124,175.018182 113.386168,174.945905 112.625679,174.578097 C112.310335,174.431937 112.116829,174.140421 111.951193,173.859345 C111.668498,173.358226 111.511623,172.780012 111.568162,172.211435 C111.635849,171.743242 111.815022,171.287095 112.030029,170.863072 C112.1447,170.590026 112.676644,170.186079 112.156645,170.006191 C111.957564,169.964431 111.838115,170.142713 111.74176,170.27763 C111.560995,170.528993 111.422434,170.810069 111.309356,171.093554 C110.943048,171.910282 110.880138,172.833818 111.23928,173.663395 L111.277503,173.754945 C111.449509,174.135603 111.669295,174.513048 111.984639,174.802958 C112.438543,175.176388 113.042156,175.324957 113.613917,175.455858 C114.766197,175.660642 115.921662,175.888716 117.038108,176.234038 C118.827447,176.778523 121.65997,177.905237 121.970536,177.995182 C121.995222,177.999197 121.998407,178 122,178" id="Fill-96" fill="#E5B79E"></path>
            <path d="M119.73038,166 C119.777616,166.111735 119.568199,166.016641 119.478449,166.041207 C118.710849,166.251999 118.014892,166.217131 117.228397,166.301923 C115.783735,166.458036 113.717907,166.437432 112.354334,166.924789 C111.445024,167.251278 110.764025,168.684819 111.077363,169.566023 C111.378105,170.407605 112.989671,171.162017 113.816317,171.382318 C116.509609,172.101862 119.343824,173.170876 121.970197,174.094872 C122.907063,174.425324 125.066577,175.182906 125.35551,174.959435 C127.968499,172.939481 121.941855,169.921833 119.650077,169.387722 C119.007655,169.237949 117.511032,168.703838 117.288231,168.076218" id="Fill-98" fill="#F1D5C3"></path>
            <path d="M113.659895,171.042276 C113.122263,170.834579 112.600656,170.573006 112.153564,170.227886 C111.813038,169.974122 111.535007,169.618851 111.561448,169.200335 C111.585485,168.544451 111.916398,167.869827 112.487681,167.463804 C112.854649,167.256107 112.937177,167.131958 112.288974,167 C111.39479,167.532515 110.889208,168.548355 111.020611,169.514222 C111.251369,170.590965 112.548576,171.153932 113.544517,171.560736 C116.165372,172.294702 120.556967,173.796207 122,174 C121.98718,173.832125 116.959401,171.964417 113.659895,171.042276" id="Fill-100" fill="#E5B79E"></path>
            <g id="Group-105" transform="translate(127.000000, 11.000000)">
                <path d="M24.09936,13.6322941 C23.59136,13.6339412 12.89856,13.6940588 12.89856,13.6940588 C12.89856,13.6940588 12.11936,4.47876471 11.64736,4.48288235 C11.17536,4.487 10.06416,13.7146471 10.06416,13.7146471 L0.68176,13.6397059 C0.68176,13.6397059 0.64096,8.98758824 0.62176,4.77029412 L0.60816,0.548882353 L24.05696,0.249941176 L24.05696,0.250764706 L47.50736,0.392411765 L47.52096,4.61464706 C47.52816,8.83111765 47.51696,13.4840588 47.51696,13.4840588 L38.13456,13.6224118 C38.13456,13.6224118 36.96496,4.40135294 36.49296,4.40052941 C36.02096,4.40052941 35.30016,13.6199412 35.30016,13.6199412 C35.30016,13.6199412 24.60736,13.6322941 24.09936,13.6331176" id="Fill-102" fill="#FF3434"></path>
                <path d="M24.09936,13.6322941 C23.59136,13.6339412 12.89856,13.6940588 12.89856,13.6940588 C12.89856,13.6940588 12.11936,4.47876471 11.64736,4.48288235 C11.17536,4.487 10.06416,13.7146471 10.06416,13.7146471 L0.68176,13.6397059 C0.68176,13.6397059 0.64096,8.98758824 0.62176,4.77029412 L0.60816,0.548882353 L24.05696,0.249941176 L24.05696,0.250764706 L47.50736,0.392411765 L47.52096,4.61464706 C47.52816,8.83111765 47.51696,13.4840588 47.51696,13.4840588 L38.13456,13.6224118 C38.13456,13.6224118 36.96496,4.40135294 36.49296,4.40052941 C36.02096,4.40052941 35.30016,13.6199412 35.30016,13.6199412 C35.30016,13.6199412 24.60736,13.6322941 24.09936,13.6331176" id="Stroke-104" stroke="#FF3434" stroke-linecap="round" stroke-linejoin="round"></path>
            </g>
            <path d="M142,48.0744987 C144.170094,50.9445158 156.253487,50.3421665 158,48" id="Stroke-106" stroke="#DF715C" stroke-width="0.5" stroke-linecap="round" stroke-linejoin="round"></path>
            <path d="M143.11417,61.0176018 C143.11417,61.0176018 143.001359,63.6121012 143.000581,64.0952695 C142.998247,64.6954895 143.003694,65 143.003694,65 L157,63.4774477 L156.99222,61 L143.11417,61.0176018 Z" id="Fill-108" fill="#DF715C"></path>
            <path d="M180.410543,177.927163 C179.359338,178.856533 178.379712,180.249407 178.026814,181.486992 C177.930266,181.825948 178.072591,183.279518 178.815009,182.952386 C179.62318,182.5953 180.189149,181.654893 180.973182,181.193755 C181.624879,180.809079 182.279073,180.433074 182.9599,180.089388 C183.445136,179.844236 183.949514,179.63298 184.434749,179.387828 C186.120172,178.535707 190.815219,176.118871 188.248382,174" id="Fill-110" fill="#F1D5C3"></path>
            <path d="M188.188196,171 C188.615168,171.406505 189.235198,172.657478 188.908361,173.118829 C187.999143,174.400451 186.060547,174.945684 184.701928,175.582865 C182.92595,176.416847 181.361455,177.43553 179.730471,178.458246 C178.992683,178.918791 176.933926,180.582721 176.290665,179.788261 C175.019362,178.218698 178.301357,174.495624 178.780399,174.045565" id="Fill-112" fill="#F1D5C3"></path>
            <path d="M181,177.999639 C182.099888,177.024689 184.607792,175.71417 185.582206,175.292778 C186.469264,174.885118 187.528651,174.191668 188.179848,173.432133 C188.269586,173.313697 188.392678,173.196978 188.428415,173.046787 C188.472887,172.638269 188.27038,172.242625 188.075021,171.898474 C187.979724,171.724253 187.843925,171.577496 187.723216,171.423872 C187.625536,171.253084 187.741481,171.023936 187.935252,171.001622 C188.143317,170.979308 188.26085,171.19215 188.376795,171.3329 C188.580096,171.6144 188.749248,171.925937 188.866782,172.25464 C188.970814,172.553304 189.043081,172.883723 188.970814,173.197836 C188.922372,173.420976 188.768308,173.59863 188.631715,173.772851 C187.456384,175.158036 185.648914,175.650661 184.092393,176.44195 C183.47455,176.756062 183.186276,176.837594 181.601166,177.714706 C181.238243,177.915533 181.022236,178.006505 181,177.999639" id="Fill-114" fill="#E5B79E"></path>
            <path d="M188.15306,168 C188.434056,168.301016 188.68973,168.756361 188.913547,169.477577 C189.160235,170.269082 188.865353,171.285967 188.202888,172.011004 C187.609855,172.658876 185.788281,172.778824 184.863607,172.979756 C182.678535,173.453437 180.368484,174.157081 178.463591,175.082286 C177.986551,175.313014 176.040816,176.836432 175.117776,175.371079 C174.380978,174.205214 177.29468,171.625947 178.490547,171.120943" id="Fill-116" fill="#F1D5C3"></path>
            <path d="M178,175 C178.381423,174.825733 178.853622,174.529398 179.142675,174.353525 C179.845799,174.026673 180.080704,173.916652 180.824438,173.619514 C182.290407,173.050134 183.369379,172.517695 184.912587,172.18201 C185.738339,172.018182 186.614257,171.945905 187.374714,171.578097 C187.690044,171.431937 187.882746,171.140421 188.048374,170.858542 C188.331057,170.358226 188.488722,169.780012 188.43139,169.211435 C188.364501,168.743242 188.18454,168.287095 187.969542,167.863072 C187.854876,167.590026 187.322955,167.186079 187.842932,167.006191 C188.0428,166.964431 188.162244,167.142713 188.257799,167.27763 C188.438556,167.528993 188.577111,167.810069 188.69098,168.093554 C189.057273,168.910282 189.119384,169.833818 188.761053,170.663395 L188.722035,170.754945 C188.550833,171.135603 188.330261,171.513048 188.01493,171.802958 C187.561045,172.176388 186.958254,172.324957 186.385722,172.455858 C185.233492,172.660642 184.078076,172.888716 182.961679,173.234038 C181.172416,173.778523 178.340016,174.905237 178.029463,174.995182 C178.004778,174.999197 178.001593,175 178,175" id="Fill-118" fill="#E5B79E"></path>
            <path d="M182.038224,162.060157 C181.990986,162.173626 182.235838,161.977268 182.326378,162.002215 C183.094001,162.217083 182.985353,162.081081 183.771084,162.166384 C185.216577,162.325723 187.28168,162.303995 188.645294,162.799719 C189.555419,163.131274 190.236439,164.586254 189.922304,165.481132 C189.62234,166.336576 188.010725,167.10189 187.184054,167.325609 C184.490681,168.056318 181.656381,169.14192 179.029929,170.081059 C178.093035,170.416638 175.933455,171.18517 175.644514,170.959037 C173.031446,168.907739 179.058272,165.843267 181.349331,165.300064 C181.99256,165.147967 183.489228,164.606373 183.711249,163.969014" id="Fill-120" fill="#F1D5C3"></path>
            <path d="M181,164.825258 C181.015647,164.819763 181.951104,164.596116 182.120425,164.543914 C182.361274,164.47028 182.519419,164.438959 182.709975,164.223554 C182.820061,164.110906 182.989941,163.902096 183,164.052659 C182.951942,164.175198 182.836267,164.284549 182.65577,164.477973 C182.475831,164.671398 181.116792,164.959337 181.035205,165 C181.02347,164.920322 181.008382,164.887352 181,164.825258" id="Fill-122" fill="#E5B79E"></path>
            <path d="M181,164.825258 C181.015647,164.819763 181.951104,164.596116 182.120425,164.543914 C182.361274,164.47028 182.519419,164.438959 182.709975,164.223554 C182.820061,164.110906 182.989941,163.902096 183,164.052659 C182.951942,164.175198 182.836267,164.284549 182.65577,164.477973 C182.475831,164.671398 181.116792,164.959337 181.035205,165 C181.02347,164.920322 181.008382,164.887352 181,164.825258 Z" id="Stroke-124" stroke="#E5B79E" stroke-width="0.5"></path>
            <path d="M119,168.825258 C118.984353,168.819763 118.048896,168.596116 117.879575,168.543914 C117.638726,168.47028 117.480581,168.438409 117.290584,168.223554 C117.179939,168.110906 117.010059,167.902096 117,168.052659 C117.048058,168.175198 117.164292,168.284549 117.34423,168.477973 C117.524728,168.671398 118.883208,168.959337 118.964795,169 C118.97653,168.920322 118.991618,168.887352 119,168.825258" id="Fill-126" fill="#E5B79E"></path>
            <path d="M119,168.825258 C118.984353,168.819763 118.048896,168.596116 117.879575,168.543914 C117.638726,168.47028 117.480581,168.438409 117.290584,168.223554 C117.179939,168.110906 117.010059,167.902096 117,168.052659 C117.048058,168.175198 117.164292,168.284549 117.34423,168.477973 C117.524728,168.671398 118.883208,168.959337 118.964795,169 C118.97653,168.920322 118.991618,168.887352 119,168.825258 Z" id="Stroke-128" stroke="#E5B79E" stroke-width="0.5"></path>
            <path d="M189.396405,164.237151 C189.406018,164.302302 189.434857,164.59418 189.43726,164.6602 C189.463695,165.125814 189.185721,165.521066 188.846063,165.802519 C188.39826,166.186477 187.876758,166.478355 187.339234,166.709425 C184.04039,167.734472 179.013618,169.812364 179,170 C180.443545,169.773273 184.834259,168.101926 187.453788,167.286231 C188.45033,166.833647 189.747277,166.207326 189.977988,165.009411 C190.01644,164.694947 190.005225,164.314464 189.938735,164 C189.740068,164.090343 189.582255,164.11901 189.396405,164.237151" id="Fill-130" fill="#E5B79E"></path>
            <path d="M29.6446921,326.545688 C30.511319,329.344986 30.8550916,332.270104 30.5305063,335.189613 C30.1411638,338.613204 29.7965917,343.859184 30.0412299,350.825774 C31.3115897,362.224921 54.8688094,356.651168 55.6291065,356.544581 L55.6291065,356.645558 C56.3766122,356.544581 71.4394499,357.811598 70.990147,346.456529 C70.7583004,340.53657 70.2026679,336.128857 69.7133915,333.241404 C69.296867,330.769879 69.3760146,328.247866 69.8453042,325.820418 C70.4073325,322.926555 70.3873457,319.05498 66.6034483,317.926605 C62.1192141,316.589866 62.8923028,318.280024 59.6512464,322.585959 C57.0713527,326.015961 45.3223232,326.224325 42.1540187,322.655681 C37.9599925,317.933017 38.7474717,316.105018 33.2367164,317.409701 C28.2552111,318.594975 28.592588,323.159763 29.6446921,326.545688" id="Fill-132" fill="#E0B094"></path>
            <path d="M58.1752355,346.256828 L60.9822908,351.842587 C61.04652,352.027954 60.92837,352.259099 60.7515413,352.287617 L56.3958478,352.994561 C56.1175212,353.039589 55.9232475,352.797937 56.0295033,352.532271 L57.6011371,346.169774 C57.7073929,345.903356 58.0737374,345.964144 58.1752355,346.256828" id="Fill-134" fill="#DF715C"></path>
            <path d="M43.9848156,336 C45.0883537,335.997755 45.9918979,337.56305 45.9999334,339.494754 C46.0088617,341.426458 45.1196028,342.997748 44.0160647,343 C42.9116337,343.002993 42.0089824,341.436199 42.0000541,339.504495 C41.9920186,337.57279 42.8803847,336.003 43.9848156,336" id="Fill-136" fill="#383838"></path>
            <path d="M48,343 C48,343 46.3339662,344.902946 43,345" id="Stroke-138" stroke="#383838" stroke-width="1.238" stroke-linecap="round"></path>
            <path d="M64.0155178,336 C62.911093,335.99694 62.0089242,337.562708 62.0000534,339.494638 C61.9920696,341.425802 62.880932,342.997697 63.9844698,343 C65.0888946,343.00306 65.9919504,341.436526 65.9999342,339.504596 C66.0088051,337.572666 65.1190556,336.002303 64.0155178,336" id="Fill-140" fill="#383838"></path>
            <path d="M61,343 C61,343 62.6663432,344.902569 66,345" id="Stroke-142" stroke="#383838" stroke-width="1.238" stroke-linecap="round"></path>
            <path d="M33.4523748,317.895829 C39.0213496,316.587994 38.2234744,318.422172 42.4615806,323.150437 C45.662772,326.723313 57.5299538,326.513899 60.1375842,323.07662 C63.4106491,318.767986 62.6313479,317.075022 67.1569475,318.410939 C70.9815799,319.543861 70.9993464,323.422434 70.4356653,326.315718 C69.9616241,328.744439 69.8784448,331.270246 70.2975715,333.744701 C70.7950322,336.637985 71.3587132,341.048517 71.5929073,346.977101 C72.041914,358.347241 56.8289865,356.982439 56.0739123,357.084338 L56.0739123,357.078721 C55.3067247,357.186237 31.5101787,362.76339 30.2277639,351.353935 C29.9822639,344.378281 30.3295172,339.123673 30.718764,335.69843 C31.0482509,332.776261 30.7009976,329.843662 29.8255961,327.040242 C28.765262,323.654314 28.422854,319.084916 33.4523748,317.895829 M9.75192909,347.328532 C14.7806423,352.639304 18.5035214,353.562812 20.1033095,353.68156 C19.4685627,354.400468 18.7134885,355.000628 17.8857334,355.476423 C17.1548862,362.877324 21.4228723,368.556376 28.5254149,374.286779 C39.9678169,383.492973 68.8116502,378.175782 75.1833456,367.265391 C78.2642097,361.981898 74.31925,345.907565 74.1819638,342.549719 C74.0261036,338.625412 76.7831337,337.108164 79.0612773,335.69843 C79.8405784,335.216216 81.9919342,333.370805 81.9983947,328.269447 C82.0040476,326.71208 82.0702681,322.720376 80.2774716,321.168625 C75.5184854,317.034905 84.671438,310.370563 76.6216205,301.984373 C67.9903556,292.993209 65.3173123,296.656752 63.4825224,296.186573 C61.4749135,295.665846 63.3024352,289.811079 50.4992846,288.429427 L50.4936316,288.429427 C36.2336319,286.22055 39.0027756,293.248357 36.5816929,293.321372 C34.3156628,293.383955 29.1965022,287.070242 18.7667879,296.92233 C13.3181404,302.069423 11.6642453,306.962169 11.5439179,310.981956 C9.43455567,313.202066 7.37849274,316.825491 5.61638383,322.498926 C0.772603221,338.058951 2.94253295,340.137045 9.75192909,347.328532" id="Fill-144" fill="#383838"></path>
            <path d="M51,362.597778 C54.5602072,366.74294 63.2224434,365.075222 62.99563,361" id="Stroke-146" stroke="#DF715C" stroke-width="1.5"></path>
            <path d="M24,347.5 C24,351.642484 21.5373134,355 18.4995916,355 C15.4618698,355 13,351.642484 13,347.5 C13,343.358316 15.4618698,340 18.4995916,340 C21.5373134,340 24,343.358316 24,347.5" id="Fill-148" fill="#E0B094"></path>
            <path d="M43.855777,382.766523 C34.9487069,380.489922 9.29811987,375.744456 7.68694061,404.535014 C3.85464142,473.020488 17.294313,501.749908 17.5694317,502.721687 C18.1148284,504.647546 91.9628304,495.994048 94,494.687617 C88.2636532,476.422518 81.6043274,395.482508 78.1254065,392.684621 C74.7110297,389.939024 58.873549,383.299071 58.873549,383.299071 C58.873549,383.299071 63.6143048,385.79207 57.8351976,385.79207 C52.0552836,385.79207 43.855777,382.766523 43.855777,382.766523" id="Fill-150" fill="#FF3434"></path>
            <path d="M68,554 C66.3652867,550.452967 64.7153037,547.159748 63,545.036143 L65.672209,514 L68,554 Z" id="Fill-152" fill="#666666"></path>
            <path d="M115.586,361.646 C115.586,361.651 115.586,361.656 115.586,361.661 C115.526,361.554 115.477,361.445 115.414,361.339 C115.476,361.446 115.531,361.546 115.586,361.646" id="Fill-154" fill="#E0B094"></path>
            <path d="M76.4585859,379 C75.6757918,379.211407 65.1945466,387.630609 65.1945466,387.630609 C65.1945466,387.630609 62.5068167,392.182957 65.1945466,392.309171 C67.8306368,392.432228 72.1798576,393.796119 75.9421877,392.315481 C80.9438736,390.346557 92.6603761,380.412798 90.8021621,380.412798 C88.9431284,380.412798 76.4585859,379 76.4585859,379" id="Fill-156" fill="#E26666"></path>
            <path d="M224.386872,378 C225.05402,378.19579 233.982687,386.014882 233.982687,386.014882 C233.982687,386.014882 236.271641,390.240607 233.982687,390.358081 C231.736622,390.473055 228.031566,391.73944 224.826872,390.363913 C220.56586,388.535987 210.58564,379.312208 212.168529,379.312208 C213.751418,379.312208 224.386872,378 224.386872,378" id="Fill-158" fill="#E26666"></path>
            <path d="M76.5994829,374.855492 C77.4085227,376.416539 80.1164403,378.645456 80.9309099,380.203284 C81.8020046,381.870546 81.1721481,386.169861 81.1853347,388.288539 C81.2000727,390.71138 81.5118983,392.504974 81.8989652,394.353286 C82.2107908,395.844327 85.5159861,395.937668 85.1925253,397.189723 C84.8116638,398.661452 87.3915932,400.841285 88.0098145,402 C89.5448958,400.780935 90.7821139,398.620415 91.4445492,396.661864 C92.4870703,393.574372 92.4862946,390.943928 93.2681855,387.763899 C94.396032,383.178124 94.6225321,378.661549 95.3415924,373.9768 C95.8248444,370.830567 99.5869184,362.354245 97.2303863,361.007239 C96.1056425,360.868837 93.898042,362.709101 93.0618532,367.040603 C92.6158341,369.348377 91.8277378,370.719523 89.7163222,371.785702 C85.0986673,374.117616 79.7635035,374.186012 78.3936431,369.118244 C78.0818176,367.962747 74.6408774,371.075989 76.5994829,374.855492" id="Fill-160" fill="#E0B094"></path>
            <path d="M5,419 C5.62315195,419.208611 54.773762,430.333109 88,421.757922" id="Stroke-162" stroke="#FFFFFF" stroke-width="3"></path>
            <path d="M6,433 C6.62255619,433.234852 54.8063271,443.530941 88,433.878058" id="Stroke-164" stroke="#FFFFFF" stroke-width="3"></path>
            <path d="M5,446 C5.66118165,446.198936 50.7353639,454.595505 86,446.452055" id="Stroke-166" stroke="#FFFFFF" stroke-width="3"></path>
            <path d="M3,456 C3.66067762,456.222067 55.762247,466.297236 91,457.206926" id="Stroke-168" stroke="#FFFFFF" stroke-width="3"></path>
            <path d="M12,415.002035 C12,415.002035 14.5113334,468 59.408801,468 C102.134197,466.549856 95.4024504,388.388714 95.8622495,388.47397 L80.3903286,385 C79.5593375,390.669105 86.1242471,444.333977 58.243338,444.463852 C29.9010332,443.846346 36.0476533,403.02879 36.0476533,403.02879" id="Fill-170" fill="#FF3434"></path>
            <path d="M94,422.214482 C93.5491097,422.820382 90.8333193,468 58.0147725,468 C25.3312517,468 11.2242516,431.262107 12.0328001,416" id="Stroke-172" stroke="#883434"></path>
            <path d="M35.3796582,403 C35.3796582,403 30.4355962,446 56.2303155,446 C81.0007862,446 78.495989,414.112091 80,405.456961" id="Stroke-174" stroke="#883434"></path>
            <path d="M2.35575481,729.640927 C2.35575481,729.640927 -0.561466819,739.196225 0.096696535,738.996925 C0.754065006,738.798419 41.7954784,738.996925 41.7954784,738.996925 C41.7954784,738.996925 42.7604667,737.399347 40.4982289,736.445722 C38.2375809,735.492892 18.0864949,727 18.0864949,727 L2.35575481,729.640927 Z" id="Fill-176" fill="#69BAC9"></path>
            <path d="M202.161248,365.592164 C201.548605,368.602535 202.781827,370.397828 204.174558,374.445676 C204.749903,376.118015 205.49666,380.185953 206.07756,381.855078 C206.698933,383.641531 206.325157,386.270985 206.009312,388.363619 C205.649028,390.7552 205.685532,392.574602 205.789491,394.461508 C205.87361,395.981962 209.197913,396.614414 208.676532,397.795739 C208.063889,399.185203 210.331937,401.755188 210.776342,403 C212.517454,402.046903 214.102231,400.118209 215.075159,398.293181 C216.608354,395.418623 216.060784,392.672644 217.344002,389.66388 C219.195422,385.325121 220.652433,380.813583 222.107063,376.310884 C223.083165,373.286048 224.072758,370.178439 223.995781,367.000111 C223.610895,366.716432 223.203789,366.377303 222.848266,366.69152 C222.220545,367.24602 220.980974,368.304391 220.754011,368.753616 C219.635064,370.974829 218.366131,373.990022 216.067133,374.69721 C211.040603,376.244184 210.343047,375.230012 208.112297,370.271659 C207.621865,369.181143 204.984802,360.911865 203.810305,360.215928 C201.566857,358.885932 202.470744,364.073317 202.161248,365.592164" id="Fill-178" fill="#F4D9CE"></path>
            <path d="M288,415.002035 C288,415.002035 285.490581,468 240.641596,468 C197.664907,466.650251 204.548865,388.435725 204.227512,388.47397 L219.683523,385 C220.513617,390.669105 213.955796,444.333977 241.806598,444.463852 C270.118297,443.846346 263.977517,403.02879 263.977517,403.02879" id="Fill-180" fill="#E58585"></path>
            <path d="M205,418.054161 C205.469862,418.636827 209.219925,468 242.015503,468 C274.677752,468 288.775224,431.26154 287.967222,416" id="Stroke-182" stroke="#883434"></path>
            <path d="M222,423.791949 C222,423.791949 223.553998,447.118543 243.892477,446.999546 C261.556303,446.896142 264,402 264,402" id="Stroke-184" stroke="#883434"></path>
            <path d="M248.190543,324.575434 L273,326.420667 C273,326.420667 272.862045,362.435635 272.931022,365.489343 C273.134747,365.906889 264.615218,374.644044 246.258369,372.724937 C231.486749,369.154114 227.205328,364.760243 227.37697,364.481611 C227.549414,364.202176 227,323 227,323 L248.190543,324.575434 Z" id="Fill-186" fill="#F4D9CE"></path>
            <path d="M238.992193,338.228113 C238.894966,340.447501 237.916328,342.131687 236.813202,341.99189 C235.717346,341.85292 234.912265,339.964414 235.007675,337.773151 C235.103994,335.581061 236.065367,333.893565 237.162132,334.005238 C238.267074,334.11691 239.089421,336.007898 238.992193,338.228113" id="Fill-188" fill="#383838"></path>
            <path d="M262.991336,341.246694 C262.876793,343.46638 261.657584,345.141846 260.277237,344.990503 C258.907568,344.84069 257.89512,342.944326 258.008693,340.754449 C258.121295,338.564573 259.317207,336.88605 260.688817,337.006054 C262.071105,337.127586 263.10588,339.027008 262.991336,341.246694" id="Fill-190" fill="#383838"></path>
            <g id="Group-195" transform="translate(239.000000, 360.000000)">
                <path d="M0.62672,0.9412 C0.79552,3.4362 16.01952,5.0572 15.84352,2.4302" id="Fill-192" fill="#E58585"></path>
                <path d="M0.62672,0.9412 C0.79552,3.4362 16.01952,5.0572 15.84352,2.4302" id="Stroke-194" stroke="#E58585" stroke-linecap="round" stroke-linejoin="round"></path>
            </g>
            <path d="M247.182785,348.428567 C247.470976,347.800122 248.10849,347.876524 248.329728,348.567889 L249.12929,351.068186 L249.932732,353.581967 C250.156881,354.281571 249.791063,355.067314 249.275811,354.995406 L247.430222,354.737736 L245.605009,354.483062 C245.101402,354.413402 244.830677,353.551256 245.115957,352.93105 L246.14646,350.685427 L247.182785,348.428567 Z" id="Fill-196" fill="#E58585"></path>
            <path d="M247.182785,348.428567 C247.470976,347.800122 248.10849,347.876524 248.329728,348.567889 L249.12929,351.068186 L249.932732,353.581967 C250.156881,354.281571 249.791063,355.067314 249.275811,354.995406 L247.430222,354.737736 L245.605009,354.483062 C245.101402,354.413402 244.830677,353.551256 245.115957,352.93105 L246.14646,350.685427 L247.182785,348.428567 Z" id="Stroke-198" stroke="#E58585" stroke-linecap="round" stroke-linejoin="round"></path>
            <path d="M218.056449,305.698527 C218.056449,305.698527 212.334631,322.317658 227.523179,323.440572 C244.651014,324.706838 270.823786,326.641276 270.823786,326.641276 L270.098654,344.261474 L284.985464,346 L284.985464,315.366739 C285.247184,309.033025 281.944073,303.75692 277.555665,299.54639 C273.332133,295.493546 260.482255,291.629446 250.451267,292.028439 C232.742367,292.732451 227.183824,302.05901 226.075317,304.335102 C225.748767,305.005665 225.351786,305.630833 224.848356,306.121412 C223.617393,307.322372 221.292329,308.533686 218.056449,305.698527" id="Fill-200" fill="#2B5165"></path>
            <polygon id="Fill-202" fill="#2B5165" points="224.961288 315 230 315.20345 229.017519 338 224 337.395861"></polygon>
            <path d="M229.993554,342.245038 C229.875963,345.44965 229.747278,350.32855 227.778549,349.982557 C225.841621,349.641336 222.890006,344.357584 223.003159,341.242851 C223.117053,338.128117 224.741144,335.785704 226.658103,336.015571 C228.605385,336.248619 230.111145,339.03963 229.993554,342.245038" id="Fill-204" fill="#F4D9CE"></path>
            <path d="M270.092012,344.158446 C269.937439,347.868542 269.629911,353.496582 272.560332,353.967907 C275.546595,354.448787 280.831227,349.425827 280.992274,345.587549 C281.153322,341.748476 278.776452,338.360028 275.735158,338.026438 C272.750514,337.699217 270.246586,340.447554 270.092012,344.158446" id="Fill-206" fill="#F4D9CE"></path>
            <polygon id="Fill-208" fill="#883434" points="78.3157895 420 76 398 80 404.825612"></polygon>
            <path d="M222.255308,431 C222.844227,429.891113 226.704821,405.564185 225.886693,406.005944 C225.068565,406.447702 221.035644,420.868952 220.071123,423.127554 C219.529887,424.39567 222.255308,431 222.255308,431" id="Fill-210" fill="#883434"></path>
            <path d="M242.337909,506.787461 C271.717217,512.462481 281.245006,508.89079 281.245006,508.89079 L284,498.569397 C284,498.569397 273.992377,501.165619 244.61388,495.4906 L243.693117,495.312809 C214.313809,489.637789 207.502108,483 207.502108,483 L205,494.106371 C205,494.106371 212.038649,500.93465 241.417146,506.60967 L242.337909,506.787461 Z" id="Fill-212" fill="#2B5165"></path>
            <path d="M238.569027,507.98762 L230.533423,506.431142 C230.175263,506.361786 229.941966,506.020651 230.012612,505.668226 L232.653633,492.524455 C232.724279,492.172836 233.072582,491.942993 233.430742,492.012349 L241.466347,493.568827 C241.824507,493.63899 242.058626,493.980125 241.987158,494.331743 L239.346137,507.475514 C239.27549,507.82794 238.928009,508.056976 238.569027,507.98762" id="Fill-214" fill="#C7C7C7"></path>
            <path d="M122.692656,159.50489 C121.934364,147.446153 124.912794,110.577509 124.912794,110.577509 C124.912794,110.577509 104.455008,125.415583 105.024934,121.02724 C105.718828,115.690305 98.4739991,102.839072 94.0860478,99.6306667 C91.7846072,97.9472145 136.363648,68.0725419 142.149851,72.5361318 C142.915388,73.126901 146.326093,76.0855503 150.825936,76.0855503 C155.32578,76.0855503 156.854439,74.7463132 159.675092,72.4792963 C165.371942,67.9028358 210.206162,97.5637749 207.915187,99.2616361 C203.549775,102.498859 196.181784,116.389141 197.206525,121.673244 C197.335322,122.333657 177.162499,110.407803 177.162499,110.407803 C177.162499,110.407803 180.89761,147.640675 180.218206,159.704215 C180.038696,162.895809 122.893097,162.694884 122.692656,159.50489" id="Fill-216" fill="#69BAC9"></path>
            <path d="M265,382.732676 L261.000503,392.277519 L252.00243,403 L252.378975,391.271979 L252.429128,389.62886 L246.429086,391.695666 L246,388.930637 L246.399631,388.567593 L254.2211,385.316593 C254.571375,385.236281 254.899359,385.112535 255.209033,384.957648 C256.017849,384.559365 256.688943,383.910313 257.126786,383.102275 L257.794696,381.882023 L258.233335,381.073166 L259.909079,378 L265,382.732676 Z" id="Fill-218" fill="#69BAC9"></path>
            <path d="M235,383.125168 L236.610544,399 L239.545128,389.386677 L239.95915,388.039567 L246.477505,391.122438 L247,388.485677 L245.830803,387.622186 C245.830803,387.622186 241.043058,384.888063 240.932929,384.580015 C240.838532,384.316658 240.600055,380 240.600055,380 L238.929892,381.146799 L235,383.125168 Z" id="Fill-220" fill="#69BAC9"></path>
            <line x1="253" y1="390" x2="257" y2="384" id="Stroke-222" stroke="#92E0EA"></line>
            <line x1="240" y1="388" x2="239" y2="381" id="Stroke-224" stroke="#92E0EA"></line>
            <path d="M117.003881,114.994928 C117.189604,114.817268 124,101 124,101 L123.360728,110.623685 C123.360728,110.623685 116.818157,115.172589 117.003881,114.994928" id="Fill-226" fill="#2B5165"></path>
            <path d="M182.995702,113.993868 C182.800422,113.818391 176,101 176,101 L176.667135,110.520206 C176.667135,110.520206 183.190981,114.169345 182.995702,113.993868" id="Fill-228" fill="#2B5165"></path>
            <path d="M226,390.734976 C226.263822,390.867741 229.782195,391.553572 235,390" id="Stroke-230" stroke="#883434"></path>
            <path d="M64,392.360557 C64.2846538,392.478998 72.7431691,393.941512 77,392" id="Stroke-232" stroke="#883434"></path>
        </g>
    </g>
</svg>