<!-- by Tanja Rohlfs (http://tanjarohlfs.de/) - license: CC-BY-NC-SA (see: https://creativecommons.org/licenses/by-nc-sa/4.0/) -->
<svg width="500" height="780" xmlns="http://www.w3.org/2000/svg" xmlns:xlink="http://www.w3.org/1999/xlink"><defs><path id="a" d="M.587.72h42.075V13H.587z"/></defs><g fill="none" fill-rule="evenodd"><path fill="#FFF" d="M0 0h500v780H0z"/><path d="M137.564 403c3.974.069 20.628 1.228 20.628 1.228l6.808 2.828s-13.308 4.269-14.412 3.924c-1.103-.343-14.347-4.471-14.569-4.953-.22-.48 1.545-3.027 1.545-3.027" fill="#883434"/><path d="M278.106 181.413c.214 1.047 1.736 4.222 1.736 4.222l1.08 4.365 3.078-.818s-.278-2.146-.18-2.3c.114-.191-.05-.595-.065-.784l-.033-.226c-.033-.936-.966-1.625-1.572-2.384-.36-.521-.442-1.103-.475-1.672-.05-.902.115-1.803.426-2.668.229-.558.818-1.056.818-1.65-.13-.367-.704-.51-1.178-.497-1.524.023-3.03.794-3.471 1.861a4.623 4.623 0 00-.164 2.55m-55.212 1.001c-.214 1.048-1.735 4.223-1.735 4.223L220.078 191l-3.078-.818s.278-2.146.18-2.3c-.115-.191.049-.595.065-.784l.033-.226c.032-.936.966-1.624 1.572-2.383.36-.522.442-1.104.474-1.673.05-.902-.115-1.803-.425-2.668-.23-.558-.819-1.056-.819-1.65.131-.367.704-.51 1.18-.497 1.522.023 3.028.794 3.47 1.861.239.675.378 1.503.164 2.55" fill="#F1D5C3"/><path d="M292.003 350c-.081.386 1.297 14 1.54 14 .243 0 4.457-1.159 4.457-1.159s-.082-9.558-1.054-10.33c-.972-.773-4.943-2.511-4.943-2.511" fill="#D6948B"/><path d="M206.997 349c.08.33-1.297 12-1.54 12-.243 0-4.457-.993-4.457-.993s.08-8.193 1.054-8.855c.972-.662 4.943-2.152 4.943-2.152" fill="#E0B094"/><path d="M336.086 403c-.757.526 3.74 7.172 3.74 7.172s2.28 4.85 11.315 3.632c.853-.115 12.859-7.374 12.859-7.374l-2.134-3.039-14.913 5.364L336.086 403z" fill="#92E0EA"/><path d="M359.304 389.95l.696 15.533c-10.952 4.294-19.661 1.793-19.661 1.793L339 386l20.304 3.95z" fill="#F4D9CE"/><path fill="#D6948B" d="M360 394.78L346.75 397l-6.394-1.218L340 390l19.882 2.01z"/><path d="M373.977 386c1.169-1.206 11.023-19.476 11.023-19.476L373 363l.977 23zM325 399.812s-15.62 2.85-15.717 2.045c-1.558-12.878-54.26-167.384-56.659-176.712-2.352-9.151-2.502-9.527-4.751-.06-2.226 9.37-54.598 163.894-56.156 176.772-.097.805-15.717-2.045-15.717-2.045L221.487 179l29.129 1.864 28.137-1.676L325 399.812z" fill="#2B5165"/><path d="M311.644 733.044s2.917 10.164 2.26 9.953c-.659-.212-41.7 0-41.7 0s-.964-1.7 1.298-2.715c2.26-1.014 23.9-9.282 23.9-9.282l14.242 2.044z" fill="#383838"/><path d="M290.712 351.055c-.92 2.864-.572 4.551.332 8.65.374 1.694.652 5.743 1.032 7.436.405 1.81-.243 4.33-.776 6.333-.608 2.29-3.193 5.782-3.299 7.633-.085 1.491 4.173 2.425 3.54 3.518-.744 1.285 3.437 4.112 3.731 5.375 1.784-.733 2.185-4.676 2.678-6.645.792-3.162 2.59-4.55 4.158-7.337 2.26-4.018 4.159-8.25 6.054-12.474 1.273-2.837 2.566-5.754 2.838-8.86-.341-.318-.697-.696-1.075-.43-.666.47-1.979 1.361-2.246 1.774-1.323 2.038-2.877 4.833-5.175 5.263-5.024.941-8.45-1.17-8.458-6.326-.001-1.175-.492-6.79-1.55-7.6-2.023-1.549-1.32 2.246-1.784 3.69" fill="#F4D9CE"/><path d="M336.775 404.776S367.695 458 309.635 458c-62.418 0-21.415-80-21.415-80l11.126 9.332s-19.172 56.435 5.031 50.523c9.395-2.296 19.195-15.136 19.195-15.136" fill="#E58585"/><path d="M396.912 749.978c-5.35-.305-15.477-2.59-15.477-2.59s-26.087-37.07-35.455-102.644c-2.953-20.66-7.093-55.14-10.102-79.73-20.1 28.665-31.881 164.03-23.973 167.937l-17.074-1.002c-14.767 2.43-17.099-183.994 10.021-217.671 11.321-14.059 38.836-.216 40.216.497 17.099.738 39.595 1.629 39.595 1.629-17.994 1.042-1.178 196.849 12.814 230.984 1.194 2.91.056 2.622-.565 2.59" fill="#69BAC9"/><path d="M380.419 502.075s5.155 37.965-15.241 55.817c-20.397 17.851-32.19-47.02-32.19-47.02s-2.223-10.735 0-10.866c2.224-.132 47.43 2.07 47.43 2.07" fill="#69BAC9"/><path d="M363.813 402.59c.615-1.555 28.187-.59 28.187 21.473 0 67.327-8.225 96.653-9.846 97.82-1.621 1.166-74.124-6.704-76.154-8.005 5.715-18.197 11.12-84.143 13.51-87.79 3.058-4.663 6.305-23.498 16.91-24.088 3.64 0 1.116 9.25 8.693 10.206 13.725 1.733 16.947-5.19 18.7-9.616" fill="#E58585"/><path d="M331 574c1.636-3.547 3.285-6.84 5-8.964L333.328 534 331 574z" fill="#2B5165"/><path d="M283.414 381.646v.015c.06-.107.109-.216.172-.322-.062.107-.117.207-.172.307" fill="#E0B094"/><g transform="translate(357 746)"><mask id="b" fill="#fff"><use xlink:href="#a"/></mask><path d="M40.301 3.423s2.923 9.777 2.264 9.574c-.66-.204-41.773 0-41.773 0s-.966-1.635 1.3-2.611L24.542.72 40.3 3.423z" fill="#383838" mask="url(#b)"/></g><path d="M188.356 733.044s-2.917 10.164-2.26 9.953c.658-.212 41.7 0 41.7 0s.964-1.7-1.297-2.715c-2.261-1.014-23.9-9.282-23.9-9.282l-14.243 2.044z" fill="#69BAC9"/><path d="M211.053 349.576c.955 2.884-.274 5.783-1.212 9.912-.388 1.707-.677 5.784-1.071 7.489-.42 1.823.251 4.361.804 6.378.633 2.307 3.316 5.824 3.425 7.689.089 1.502-4.33 2.442-3.674 3.542.771 1.294-3.568 4.142-3.873 5.414-1.854-.738-2.269-4.709-2.78-6.693-.823-3.185-2.69-4.582-4.317-7.39-2.346-4.047-5.913-8.63-7.88-12.885-1.321-2.857-3.193-2.278-3.475-5.406.099-.617.526-2.487.999-2.428 1.204.148 3.034 1.93 4.119 2.731 1.993 1.472 3.44 2.723 5.825 3.156 5.216.948 9.432-3.192 9.441-8.383.002-1.183.879-5.637 2.252-5.7 1.294-.059.935 1.119 1.417 2.574" fill="#E0B094"/><path d="M161.886 406.867S135.824 466 193.378 466c61.874 0 19.41-86 19.41-86l-11.645 8.577s17.771 62.158-2.68 55.97c-16.58-5.016-18.68-26.263-18.68-26.263" fill="#FF3434"/><path d="M204.336 731.917l-17.102 1.004c7.929-3.913-3.871-139.524-24.004-168.23-3.014 24.633-7.16 59.172-10.119 79.869-9.383 65.688-35.513 102.823-35.513 102.823s-10.143 2.29-15.51 2.594c-.614.033-1.762.322-.565-2.594 14.014-34.195 30.866-230.344 12.842-231.389 0 0 22.533-.892 39.652-1.63 1.293-.66 28.19-14.141 39.15.248 24.1 31.64 26.55 218.51 11.17 217.305" fill="#C7C7C7"/><path d="M118.581 502.075s-5.155 37.965 15.241 55.817c20.397 17.851 32.19-47.02 32.19-47.02s2.223-10.735 0-10.866c-2.224-.132-47.43 2.07-47.43 2.07" fill="#C7C7C7"/><path d="M142.318 397.448S142 404.155 142 406h16s-.8-11.872-.8-10.949c0 .924-14.882 2.397-14.882 2.397" fill="#E0B094"/><path d="M297.564 141.732s-.988.173-1.183.265C296.094 142.13 296 138 296 138l2 3.626-.436.106zm6.406-23.099s3.274-.492 3.705-.627c.633-.199.146 4.994.146 4.994L303 118.808l.97-.175z" fill="#2B5165"/><path d="M282.332 156.669l-31.3.102-31.268.101s-2.263-11.529-3.378-11.52c-1.115.01-3.312 11.581-3.312 11.581l-6.758.067s-.624-8.611-.119-36.35c.26-14.224 11.79-19.182 9.963-44.513-3.356-46.54 15.06-53.661 25.407-55.499 4.659-.827 13.407-.855 18.072-.058 10.359 1.77 28.82 8.77 25.77 55.332-.24 3.648-.205 6.873.032 9.761 1.403 17.18 9.92 22.51 10.22 34.687.686 27.734.119 36.348.119 36.348l-6.758-.022s-2.273-11.556-3.387-11.56c-1.115-.002-3.303 11.543-3.303 11.543" fill="#FF3434"/><path d="M282.332 156.669l-31.3.102-31.268.101s-2.263-11.529-3.378-11.52c-1.115.01-3.312 11.581-3.312 11.581l-6.758.067s-.624-8.611-.119-36.35c.26-14.224 11.79-19.182 9.963-44.513-3.356-46.54 15.06-53.661 25.407-55.499 4.659-.827 13.407-.855 18.072-.058 10.359 1.77 28.82 8.77 25.77 55.332-.24 3.648-.205 6.873.032 9.761 1.403 17.18 9.92 22.51 10.22 34.687.686 27.734.119 36.348.119 36.348l-6.758-.022s-2.273-11.556-3.387-11.56c-1.115-.002-3.303 11.543-3.303 11.543z" stroke="#FF3434" stroke-linecap="round" stroke-linejoin="round"/><path d="M240.263 91.029c.109 0 20.406-.065 20.711 0 .307.064-2.228 2.917-2.228 2.917s-11.23 1.116-11.383 1.051A2757.57 2757.57 0 01240 91.5l.263-.471zm-37.869 50.585s1.326.289 1.502.383c.26.138-.05-3.997-.05-3.997L202 141.505l.394.11zm-5.171-20.982s-2.617-.492-2.963-.626c-.507-.198-.117 4.994-.117 4.994l3.857-4.192-.777-.176z" fill="#2B5165"/><path d="M293.846 136.161C283.464 121.132 302.264 120 302.264 120s10.49 8.57 16.263 24.022c7.12 19.052 6.654 46.406-34.527 54.978l1.373-12.276c7.22-1.236 25.378-10.415 19.158-31.228-3.009-10.072-5.475-11.792-10.685-19.335m-67.839-84.803c-.118-.127-6.11-1.873-6.006 3.698.106 5.573 4.253 4.807 6.163 4.942 1.912.135-.038-8.514-.157-8.64m47.94.012c.118-.128 6.115-1.906 6.053 3.658-.065 5.565-4.23 4.824-6.147 4.97-1.916.146-.023-8.502.094-8.628M249.598 82c-16.14-2.67-20.082-8.946-20.336-10.89-.96-7.267-1.262-31.44-1.262-31.44L249.472 32 271 39.533s-.143 24.173-1.053 31.447c-.24 1.932-4.089 8.159-19.93 10.962-.111.02-.419.058-.419.058" fill="#F1D5C3"/><path d="M238.989 52c1.104-.003 2.005 1.338 2.011 2.993.006 1.656-.885 3.004-1.989 3.007-1.104.003-2.005-1.34-2.011-2.995-.006-1.656.885-3.002 1.989-3.005m23.001-2c1.103-.003 2.004 1.338 2.01 2.994.006 1.655-.885 3.003-1.989 3.006-1.103.003-2.005-1.338-2.011-2.995-.005-1.656.886-3.002 1.99-3.005" fill="#000"/><path d="M248.985 64c-.59-.113-1.77-.34-1.93-.855-.224-.715.287-2.301.59-3.435.32-1.19 1.102-3.092 1.324-3.71.226.617 1.028 2.515 1.359 3.704.314 1.132.837 2.716.621 3.432-.155.517-1.333.749-1.92.864" fill="#FF3434"/><path d="M204.787 137.132C214.996 122.02 196.314 121 196.314 121s-10.358 8.646-15.986 24.156C173.386 164.28 174.037 191.669 215 200l-1.45-12.285c-7.18-1.193-25.278-10.273-19.244-31.154 2.92-10.104 5.357-11.841 10.48-19.429m44.543-55.511l-7.144-1.574L242 96.273 249.398 98h.215L257 96.224 256.708 80l-7.132 1.62" fill="#F1D5C3"/><path d="M282.189 192c.099.633.198 1.266.283 1.9a.452.452 0 01.028.133 95.6 95.6 0 01.311 1.967 131.625 131.625 0 00-.622-4m.474 6c-.113-.67-.212-1.34-.325-2 .07.36.126.72.184 1.08.057.31.099.62.14.92" fill="#2B5165"/><path d="M219.59 200.927c1.05.929 2.03 2.322 2.383 3.56.097.339-.046 1.793-.788 1.465-.809-.357-1.375-1.297-2.158-1.759a35.238 35.238 0 00-1.987-1.104c-.485-.246-.99-.457-1.475-.701-1.685-.852-6.38-3.27-3.813-5.388" fill="#F1D5C3"/><path d="M212.812 195c-.427.407-1.048 1.658-.72 2.119.91 1.281 2.848 1.827 4.206 2.464 1.776.834 3.34 1.853 4.972 2.875.737.46 2.796 2.125 3.44 1.33 1.27-1.57-2.012-5.292-2.49-5.742" fill="#F1D5C3"/><path d="M219 202c-1.1-.975-3.608-2.286-4.583-2.706-.886-.409-1.946-1.102-2.597-1.862-.09-.118-.213-.235-.248-.385-.045-.409.158-.804.352-1.149.096-.174.232-.32.353-.474a.289.289 0 00-.212-.422c-.208-.023-.326.19-.443.33a3.771 3.771 0 00-.49.923c-.103.298-.175.629-.103.943.048.223.203.4.34.575 1.175 1.385 2.981 1.878 4.539 2.669.617.314.906.396 2.49 1.273.364.2.58.292.602.285" fill="#E5B79E"/><path d="M211.847 190c-.281.3-.537.756-.76 1.478-.247.79.048 1.808.71 2.532.593.65 2.415.768 3.34.97 2.185.474 4.495 1.177 6.4 2.103.477.23 2.422 1.753 3.345.289.736-1.166-2.177-3.747-3.372-4.252" fill="#F1D5C3"/><path d="M222 198c-.381-.174-.854-.47-1.143-.646-.703-.327-.937-.437-1.682-.734-1.465-.57-2.545-1.102-4.088-1.438-.825-.164-1.7-.236-2.461-.604-.316-.146-.51-.438-.675-.719-.283-.5-.44-1.079-.383-1.648.068-.468.247-.924.462-1.348.115-.273.647-.677.127-.857-.2-.042-.319.137-.415.272a3.78 3.78 0 00-.433.816c-.366.816-.429 1.74-.07 2.57l.039.09c.172.382.391.759.707 1.049.454.373 1.057.522 1.629.653 1.152.205 2.308.433 3.424.778 1.79.545 4.622 1.671 4.933 1.761L222 198" fill="#E5B79E"/><path d="M219.73 186c.048.112-.162.017-.252.041-.767.211-1.463.176-2.25.26-1.444.157-3.51.136-4.874.624-.909.326-1.59 1.76-1.277 2.641.301.842 1.913 1.596 2.74 1.816 2.693.72 5.527 1.789 8.153 2.713.937.33 3.097 1.088 3.386.864 2.612-2.02-3.414-5.037-5.706-5.571-.642-.15-2.139-.684-2.362-1.312" fill="#F1D5C3"/><path d="M213.66 191.042c-.538-.207-1.06-.469-1.506-.814-.341-.254-.619-.61-.593-1.028a2.26 2.26 0 01.927-1.736c.367-.208.45-.332-.199-.464-.894.533-1.4 1.548-1.268 2.514.23 1.077 1.528 1.64 2.524 2.047 2.62.734 7.012 2.235 8.455 2.439-.013-.168-5.04-2.036-8.34-2.958" fill="#E5B79E"/><path d="M251.1 44.632l-11.201.062s-.78-9.215-1.252-9.211c-.472.004-1.583 9.232-1.583 9.232l-9.382-.075s-.041-4.652-.06-8.87l-.014-4.221 23.449-.3v.002l23.45.141.014 4.223c.007 4.216-.004 8.87-.004 8.87l-9.382.137s-1.17-9.22-1.642-9.221c-.472 0-1.193 9.219-1.193 9.219l-11.2.013" fill="#FF3434"/><path d="M251.1 44.632l-11.201.062s-.78-9.215-1.252-9.211c-.472.004-1.583 9.232-1.583 9.232l-9.382-.075s-.041-4.652-.06-8.87l-.014-4.221 23.449-.3v.002l23.45.141.014 4.223c.007 4.216-.004 8.87-.004 8.87l-9.382.137s-1.17-9.22-1.642-9.221c-.472 0-1.193 9.219-1.193 9.219l-11.2.013" stroke="#FF3434" stroke-linecap="round" stroke-linejoin="round"/><path d="M242 68.074c2.17 2.87 14.253 2.268 16-.074" stroke="#DF715C" stroke-width=".5" stroke-linecap="round" stroke-linejoin="round"/><path d="M243.114 81.018s-.113 2.594-.113 3.077c-.003.6.003.905.003.905L257 83.477 256.992 81l-13.878.018z" fill="#DF715C"/><path d="M280.41 197.927c-1.05.93-2.03 2.322-2.383 3.56-.097.339.046 1.793.788 1.465.808-.357 1.374-1.297 2.158-1.758.652-.385 1.306-.76 1.987-1.105.485-.245.99-.456 1.475-.701 1.685-.852 6.38-3.27 3.813-5.388" fill="#F1D5C3"/><path d="M288.188 191c.427.407 1.047 1.657.72 2.119-.909 1.281-2.847 1.827-4.206 2.464-1.776.834-3.34 1.853-4.972 2.875-.737.46-2.796 2.125-3.44 1.33-1.27-1.57 2.011-5.292 2.49-5.742" fill="#F1D5C3"/><path d="M281 198c1.1-.975 3.608-2.286 4.582-2.707.887-.408 1.947-1.101 2.598-1.86.09-.12.213-.236.248-.386.045-.409-.158-.804-.353-1.149-.095-.174-.231-.32-.352-.474a.289.289 0 01.212-.422c.208-.023.326.19.442.33.203.282.372.594.49.923.104.298.176.629.104.943-.049.223-.203.4-.34.575-1.175 1.385-2.982 1.878-4.539 2.669-.617.314-.906.396-2.49 1.273-.364.2-.58.292-.602.285" fill="#E5B79E"/><path d="M288.153 188c.281.301.537.756.76 1.478.247.791-.048 1.808-.71 2.533-.593.648-2.415.768-3.34.969-2.184.473-4.495 1.177-6.4 2.102-.476.231-2.422 1.754-3.345.29-.737-1.167 2.177-3.746 3.373-4.251" fill="#F1D5C3"/><path d="M278 195c.381-.174.854-.47 1.143-.646.703-.327.938-.437 1.681-.734 1.466-.57 2.545-1.102 4.089-1.438.825-.164 1.701-.236 2.462-.604.315-.146.508-.438.673-.72.283-.5.44-1.078.383-1.647-.066-.468-.246-.924-.461-1.348-.115-.273-.647-.677-.127-.857.2-.042.32.137.415.272.18.251.32.532.433.816.366.816.428 1.74.07 2.57l-.039.09c-.171.382-.392.759-.707 1.049-.454.373-1.057.522-1.63.653-1.152.205-2.307.433-3.423.778-1.79.545-4.622 1.671-4.933 1.761L278 195" fill="#E5B79E"/><path d="M282.038 182.06c-.047.114.198-.083.288-.058.768.215.66.08 1.445.164 1.446.16 3.51.138 4.874.634.91.331 1.591 1.786 1.277 2.681-.3.856-1.911 1.62-2.738 1.845-2.693.73-5.528 1.816-8.154 2.755-.937.336-3.097 1.104-3.385.878-2.614-2.051 3.413-5.116 5.704-5.659.644-.152 2.14-.694 2.362-1.331" fill="#F1D5C3"/><path d="M281 184.825c.016-.005.951-.229 1.12-.281.241-.074.4-.105.59-.32.11-.113.28-.322.29-.171-.048.122-.164.232-.344.425-.18.193-1.54.481-1.62.522-.013-.08-.028-.113-.036-.175" fill="#E5B79E"/><path d="M281 184.825c.016-.005.951-.229 1.12-.281.241-.074.4-.105.59-.32.11-.113.28-.322.29-.171-.048.122-.164.232-.344.425-.18.193-1.54.481-1.62.522-.013-.08-.028-.113-.036-.175z" stroke="#E5B79E" stroke-width=".5"/><path d="M219 188.825c-.016-.005-.951-.229-1.12-.281-.241-.074-.4-.106-.59-.32-.11-.113-.28-.322-.29-.171.048.122.164.232.344.425.18.193 1.54.481 1.62.522.013-.08.028-.113.036-.175" fill="#E5B79E"/><path d="M219 188.825c-.016-.005-.951-.229-1.12-.281-.241-.074-.4-.106-.59-.32-.11-.113-.28-.322-.29-.171.048.122.164.232.344.425.18.193 1.54.481 1.62.522.013-.08.028-.113.036-.175z" stroke="#E5B79E" stroke-width=".5"/><path d="M289.396 184.237c.01.065.039.357.041.423.027.466-.251.861-.59 1.143-.449.383-.97.675-1.508.906-3.299 1.025-8.325 3.103-8.339 3.291 1.444-.227 5.834-1.898 8.454-2.714.996-.452 2.293-1.079 2.524-2.277a3.263 3.263 0 00-.04-1.009c-.198.09-.356.119-.542.237" fill="#E5B79E"/><path d="M129.645 346.546c.866 2.799 1.21 5.724.886 8.644-.39 3.423-.734 8.67-.49 15.636 1.27 11.399 24.828 5.825 25.588 5.719v.1c.748-.1 15.81 1.167 15.361-10.188-.232-5.92-.787-10.328-1.277-13.216-.416-2.471-.337-4.993.132-7.42.562-2.894.542-6.766-3.242-7.894-4.484-1.337-3.71.353-6.952 4.659-2.58 3.43-14.329 3.638-17.497.07-4.194-4.723-3.407-6.551-8.917-5.246-4.982 1.185-4.644 5.75-3.592 9.136" fill="#E0B094"/><path d="M158.175 366.257l2.807 5.586c.065.185-.054.416-.23.445l-4.356.707c-.278.045-.473-.197-.366-.463l1.571-6.362c.106-.267.473-.206.574.087" fill="#DF715C"/><path d="M143.985 356c1.103-.002 2.007 1.563 2.015 3.495.009 1.931-.88 3.503-1.984 3.505-1.104.003-2.007-1.564-2.016-3.496-.008-1.931.88-3.501 1.985-3.504" fill="#383838"/><path d="M148 363s-1.666 1.903-5 2" stroke="#383838" stroke-width="1.238" stroke-linecap="round"/><path d="M164.016 356c-1.105-.003-2.007 1.563-2.016 3.495-.008 1.93.88 3.503 1.984 3.505 1.105.003 2.008-1.563 2.016-3.495.009-1.932-.88-3.503-1.984-3.505" fill="#383838"/><path d="M161 363s1.666 1.903 5 2" stroke="#383838" stroke-width="1.238" stroke-linecap="round"/><path d="M133.452 337.896c5.57-1.308 4.771.526 9.01 5.254 3.2 3.573 15.068 3.364 17.676-.073 3.273-4.309 2.493-6.002 7.019-4.666 3.825 1.133 3.842 5.011 3.279 7.905-.474 2.428-.558 4.954-.138 7.429.497 2.893 1.06 7.304 1.295 13.232.449 11.37-14.764 10.005-15.52 10.107v-.005c-.766.107-24.563 5.684-25.845-5.725-.246-6.976.102-12.23.49-15.656.33-2.922-.017-5.854-.892-8.658-1.06-3.386-1.403-7.955 3.626-9.144m-23.7 29.433c5.029 5.31 8.752 6.234 10.351 6.353a8.799 8.799 0 01-2.217 1.794c-.731 7.401 3.537 13.08 10.64 18.81 11.442 9.207 40.286 3.89 46.657-7.02 3.081-5.284-.864-21.358-1.001-24.716-.156-3.925 2.601-5.442 4.88-6.852.779-.482 2.93-2.327 2.936-7.429.006-1.557.072-5.549-1.72-7.1-4.76-4.134 4.393-10.798-3.656-19.185-8.632-8.99-11.305-5.327-13.14-5.797-2.007-.521-.18-6.376-12.983-7.758h-.005c-14.26-2.208-11.491 4.82-13.912 4.892-2.266.063-7.385-6.25-17.815 3.601-5.449 5.147-7.103 10.04-7.223 14.06-2.11 2.22-4.166 5.843-5.928 11.517-4.843 15.56-2.673 17.638 4.136 24.83" fill="#383838"/><path d="M151 382.598c3.56 4.145 12.222 2.477 11.996-1.598" stroke="#DF715C" stroke-width="1.5"/><path d="M124 367.5c0 4.142-2.463 7.5-5.5 7.5-3.038 0-5.5-3.358-5.5-7.5 0-4.142 2.462-7.5 5.5-7.5 3.037 0 5.5 3.358 5.5 7.5" fill="#E0B094"/><path d="M143.856 402.767c-8.907-2.277-34.558-7.023-36.17 21.768-3.831 68.485 9.608 97.215 9.883 98.187.546 1.926 74.394-6.728 76.431-8.034-5.736-18.265-12.396-99.205-15.875-102.003-3.414-2.746-19.251-9.386-19.251-9.386s4.74 2.493-1.039 2.493c-5.78 0-13.98-3.025-13.98-3.025" fill="#FF3434"/><path d="M168 574c-1.635-3.547-3.285-6.84-5-8.964L165.672 534 168 574z" fill="#666"/><path d="M215.586 381.646v.015c-.06-.107-.109-.216-.172-.322.062.107.117.207.172.307" fill="#E0B094"/><path d="M176.459 399c-.783.211-11.264 8.63-11.264 8.63s-2.688 4.553 0 4.68c2.636.122 6.985 1.486 10.747.005 5.002-1.968 16.718-11.902 14.86-11.902-1.859 0-14.343-1.413-14.343-1.413m147.928-1c.667.196 9.596 8.015 9.596 8.015s2.289 4.226 0 4.343c-2.246.115-5.951 1.381-9.156.006-4.261-1.828-14.241-11.052-12.658-11.052 1.582 0 12.218-1.312 12.218-1.312" fill="#E26666"/><path d="M176.6 394.855c.809 1.562 3.516 3.79 4.33 5.348.872 1.668.242 5.967.255 8.086.015 2.422.327 4.216.714 6.064.312 1.491 3.617 1.585 3.294 2.837-.381 1.471 2.199 3.651 2.817 4.81 1.535-1.22 2.772-3.38 3.435-5.338 1.042-3.088 1.041-5.718 1.823-8.898 1.128-4.586 1.355-9.102 2.074-13.787.483-3.146 4.245-11.623 1.888-12.97-1.124-.138-3.332 1.702-4.168 6.034-.446 2.307-1.234 3.679-3.346 4.745-4.617 2.332-9.952 2.4-11.322-2.668-.312-1.155-3.753 1.958-1.795 5.737" fill="#E0B094"/><path d="M105 439c.623.209 49.774 11.333 83 2.758M106 453c.623.235 48.806 10.53 82 .878M105 466c.661.199 45.735 8.596 81 .452M103 476c.66.222 52.762 10.297 88 1.207" stroke="#FFF" stroke-width="3"/><path d="M112 435.002S114.511 488 159.409 488c42.725-1.45 35.993-79.611 36.453-79.526L180.39 405c-.83 5.67 5.734 59.334-22.147 59.464-28.342-.618-22.195-41.435-22.195-41.435" fill="#FF3434"/><path d="M194 442.214c-.45.606-3.167 45.786-35.985 45.786-32.684 0-46.79-36.738-45.982-52" stroke="#883434"/><path d="M135.38 423s-4.944 43 20.85 43c24.77 0 22.266-31.888 23.77-40.543" stroke="#883434"/><path d="M102.356 749.64s-2.917 9.556-2.26 9.357c.658-.199 41.7 0 41.7 0s.964-1.598-1.298-2.551L118.086 747l-15.73 2.64z" fill="#69BAC9"/><path d="M302.161 385.592c-.612 3.01.62 4.806 2.014 8.854.575 1.672 1.322 5.74 1.903 7.41.62 1.786.247 4.415-.069 6.508-.36 2.391-.323 4.21-.22 6.098.085 1.52 3.409 2.152 2.888 3.334-.613 1.39 1.655 3.96 2.1 5.204 1.74-.953 3.325-2.882 4.298-4.707 1.533-2.874.986-5.62 2.269-8.63 1.851-4.338 3.308-8.85 4.763-13.352.976-3.025 1.966-6.133 1.889-9.31-.385-.285-.792-.624-1.148-.31-.627.555-1.867 1.613-2.094 2.063-1.119 2.22-2.388 5.236-4.687 5.943-5.026 1.547-5.724.533-7.955-4.425-.49-1.09-3.127-9.36-4.302-10.056-2.243-1.33-1.34 3.857-1.649 5.376" fill="#F4D9CE"/><path d="M388 435.002S385.49 488 340.642 488c-42.977-1.35-36.093-79.564-36.414-79.526L319.684 405c.83 5.67-5.728 59.334 22.123 59.464 28.311-.618 22.17-41.435 22.17-41.435" fill="#E58585"/><path d="M305 438.054c.47.583 4.22 49.946 37.016 49.946 32.662 0 46.76-36.738 45.951-52" stroke="#883434"/><path d="M322 443.792s1.554 23.327 21.892 23.208c17.664-.104 20.108-45 20.108-45" stroke="#883434"/><path d="M348.19 344.575l24.81 1.846s-.138 36.015-.069 39.068c.204.418-8.316 9.155-26.673 7.236-14.771-3.57-19.053-7.965-18.881-8.243.172-.28-.377-41.482-.377-41.482l21.19 1.575z" fill="#F4D9CE"/><path d="M338.992 358.228c-.097 2.22-1.076 3.904-2.179 3.764-1.096-.14-1.9-2.028-1.805-4.219.096-2.192 1.057-3.88 2.154-3.768 1.105.112 1.927 2.003 1.83 4.223m23.999 3.019c-.114 2.22-1.333 3.895-2.714 3.744-1.37-.15-2.382-2.047-2.268-4.237.112-2.19 1.308-3.868 2.68-3.748 1.382.122 2.417 2.021 2.302 4.24" fill="#383838"/><path d="M339.627 380.941c.169 2.495 15.393 4.116 15.217 1.49" fill="#E58585"/><path d="M339.627 380.941c.169 2.495 15.393 4.116 15.217 1.49" stroke="#E58585" stroke-linecap="round" stroke-linejoin="round"/><path d="M347.183 368.429c.288-.629.925-.552 1.147.139l.8 2.5.803 2.514c.224.7-.142 1.485-.657 1.413l-1.846-.257-1.825-.255c-.504-.07-.774-.932-.489-1.552l1.03-2.246 1.037-2.256z" fill="#E58585"/><path d="M347.183 368.429c.288-.629.925-.552 1.147.139l.8 2.5.803 2.514c.224.7-.142 1.485-.657 1.413l-1.846-.257-1.825-.255c-.504-.07-.774-.932-.489-1.552l1.03-2.246 1.037-2.256z" stroke="#E58585" stroke-linecap="round" stroke-linejoin="round"/><path d="M318.056 325.699s-5.721 16.619 9.467 17.742l43.3 3.2-.724 17.62L384.985 366v-30.633c.262-6.334-3.04-11.61-7.43-15.82-4.223-4.053-17.073-7.918-27.104-7.519-17.709.704-23.267 10.031-24.376 12.307-.326.67-.723 1.296-1.227 1.786-1.23 1.201-3.556 2.413-6.792-.422" fill="#2B5165"/><path fill="#2B5165" d="M324.961 335l5.039.203-.982 22.797-5.018-.604z"/><path d="M329.994 362.245c-.118 3.205-.247 8.084-2.215 7.738-1.937-.342-4.889-5.625-4.776-8.74.114-3.115 1.738-5.457 3.655-5.227 1.947.233 3.453 3.024 3.336 6.229m40.098 1.913c-.155 3.71-.462 9.339 2.468 9.81 2.987.48 8.271-4.542 8.432-8.38.161-3.84-2.216-7.228-5.257-7.562-2.984-.327-5.488 2.422-5.643 6.132" fill="#F4D9CE"/><path fill="#883434" d="M178.316 440L176 418l4 6.826zm143.939 11c.59-1.109 4.45-25.436 3.632-24.994-.818.442-4.851 14.863-5.816 17.122-.541 1.268 2.184 7.872 2.184 7.872"/><path d="M342.338 526.787c29.38 5.675 38.907 2.104 38.907 2.104L384 518.569s-10.008 2.597-39.386-3.078l-.92-.178C314.313 509.638 307.501 503 307.501 503L305 514.106s7.039 6.829 36.417 12.504l.92.177z" fill="#2B5165"/><path d="M338.569 527.988l-8.036-1.557a.65.65 0 01-.52-.763l2.64-13.144a.662.662 0 01.778-.512l8.035 1.557a.65.65 0 01.521.763l-2.64 13.144a.66.66 0 01-.778.512" fill="#C7C7C7"/><path d="M222.693 179.505c-.759-12.059 2.22-48.927 2.22-48.927s-20.458 14.838-19.888 10.45c.694-5.338-6.551-18.189-10.939-21.397-2.301-1.684 42.278-31.558 48.064-27.095.765.59 4.176 3.55 8.676 3.55s6.028-1.34 8.85-3.607c5.696-4.576 50.53 25.085 48.24 26.783-4.366 3.237-11.734 17.127-10.71 22.411.13.66-20.044-11.265-20.044-11.265s3.736 37.233 3.056 49.296c-.18 3.192-57.325 2.99-57.525-.2M365 402.733l-4 9.545L352.003 423l.377-11.728.05-1.643-6 2.067-.429-2.765.4-.363 7.821-3.251c.35-.08.678-.204.988-.36a4.4 4.4 0 001.918-1.855l.668-1.22.438-.809L359.91 398l5.091 4.733z" fill="#69BAC9"/><path d="M335 403.125L336.61 419l2.935-9.613.414-1.347 6.519 3.082.522-2.636-1.17-.864s-4.787-2.734-4.897-3.042c-.094-.263-.333-4.58-.333-4.58l-1.67 1.147-3.93 1.978z" fill="#69BAC9"/><path stroke="#92E0EA" d="M353 410l4-6m-17 4l-1-7"/><path d="M217.004 134.995C217.19 134.817 224 121 224 121l-.64 9.624s-6.542 4.549-6.356 4.37m65.992-1C282.8 133.818 276 121 276 121l.667 9.52s6.524 3.65 6.329 3.474" fill="#2B5165"/><path d="M326 410.735c.264.133 3.782.819 9-.735m-171 2.36c.285.119 8.743 1.582 13-.36" stroke="#883434"/></g></svg>