<?xml version="1.0" encoding="UTF-8"?>
<svg width="500px" height="500px" viewBox="0 0 500 500" version="1.1" xmlns="http://www.w3.org/2000/svg" xmlns:xlink="http://www.w3.org/1999/xlink">
    <!-- Generator: Sketch 62 (91390) - https://sketch.com -->
    <title>forget-passwords</title>
    <desc>Created with Sketch.</desc>
    <defs>
        <polygon id="path-1" points="0.6984 0.226 192.560562 0.226 192.560562 255 0.6984 255"></polygon>
    </defs>
    <g id="forget-passwords" stroke="none" stroke-width="1" fill="none" fill-rule="evenodd">
        <rect fill="#FFFFFF" x="0" y="0" width="500" height="500"></rect>
        <g id="Group-110" transform="translate(20.000000, 122.000000)">
            <path d="M441.239,134.4999 L18.907,134.4999 C8.685,134.4999 0.323,126.1379 0.323,115.9169 L0.323,108.5829 C0.323,98.3629 8.685,89.9999 18.907,89.9999 L441.239,89.9999 C451.461,89.9999 459.823,98.3629 459.823,108.5829 L459.823,115.9169 C459.823,126.1379 451.461,134.4999 441.239,134.4999 Z" id="Stroke-1" stroke="#595959" stroke-width="4.646"></path>
            <path d="M27.113,114.7895 C27.653,114.5165 28.13,114.1535 28.543,113.6995 L28.543,109.4995 C28.13,109.0465 27.653,108.6835 27.113,108.4095 C26.573,108.1365 25.996,107.9995 25.383,107.9995 C24.396,107.9995 23.603,108.3125 23.003,108.9395 C22.403,109.5665 22.103,110.4535 22.103,111.5995 C22.103,112.7465 22.403,113.6335 23.003,114.2595 C23.603,114.8865 24.396,115.1995 25.383,115.1995 C25.996,115.1995 26.573,115.0625 27.113,114.7895 M22.773,116.2695 C22.033,115.8495 21.433,115.2365 20.973,114.4295 C20.513,113.6225 20.283,112.6795 20.283,111.5995 C20.283,110.5195 20.513,109.5765 20.973,108.7695 C21.433,107.9635 22.033,107.3495 22.773,106.9295 C23.513,106.5095 24.296,106.2995 25.123,106.2995 C26.429,106.2995 27.569,106.8065 28.543,107.8195 L28.543,102.9195 C28.543,102.6535 28.633,102.4335 28.813,102.2595 C28.993,102.0865 29.21,101.9995 29.463,101.9995 C29.717,101.9995 29.929,102.0895 30.103,102.2695 C30.276,102.4495 30.363,102.6665 30.363,102.9195 L30.363,115.8995 C30.363,116.1535 30.276,116.3665 30.103,116.5395 C29.929,116.7125 29.717,116.7995 29.463,116.7995 C29.21,116.7995 28.993,116.7125 28.813,116.5395 C28.633,116.3665 28.543,116.1535 28.543,115.8995 L28.543,115.3795 C27.569,116.3935 26.429,116.8995 25.123,116.8995 C24.296,116.8995 23.513,116.6895 22.773,116.2695" id="Fill-3" fill="#000000"></path>
            <path d="M33.9431,116.5395 C33.7691,116.3665 33.6831,116.1535 33.6831,115.8995 L33.6831,103.5595 C33.6831,103.3065 33.7691,103.0895 33.9431,102.9095 C34.1161,102.7295 34.3301,102.6395 34.5831,102.6395 C34.8361,102.6395 35.0521,102.7295 35.2331,102.9095 C35.4131,103.0895 35.5031,103.3065 35.5031,103.5595 L35.5031,115.8995 C35.5031,116.1535 35.4131,116.3665 35.2331,116.5395 C35.0521,116.7125 34.8361,116.7995 34.5831,116.7995 C34.3301,116.7995 34.1161,116.7125 33.9431,116.5395" id="Fill-5" fill="#000000"></path>
            <path d="M48.3435,114.4794 C49.1295,113.9994 49.7295,113.3464 50.1435,112.5194 C50.5565,111.6934 50.7635,110.7594 50.7635,109.7194 C50.7635,108.6794 50.5565,107.7464 50.1435,106.9194 C49.7295,106.0934 49.1295,105.4394 48.3435,104.9594 C47.5565,104.4794 46.6295,104.2394 45.5635,104.2394 C44.4835,104.2394 43.5535,104.4794 42.7735,104.9594 C41.9925,105.4394 41.3965,106.0934 40.9835,106.9194 C40.5705,107.7464 40.3635,108.6794 40.3635,109.7194 C40.3635,110.7594 40.5705,111.6934 40.9835,112.5194 C41.3965,113.3464 41.9925,113.9994 42.7735,114.4794 C43.5535,114.9594 44.4835,115.1994 45.5635,115.1994 C46.6295,115.1994 47.5565,114.9594 48.3435,114.4794 M41.8835,115.9794 C40.8295,115.3664 40.0165,114.5194 39.4435,113.4394 C38.8695,112.3594 38.5705,111.1194 38.5425,109.7194 C38.5705,108.3194 38.8695,107.0794 39.4435,105.9994 C40.0165,104.9194 40.8295,104.0734 41.8835,103.4594 C42.9365,102.8464 44.1625,102.5394 45.5635,102.5394 C46.9625,102.5394 48.1865,102.8464 49.2335,103.4594 C50.2805,104.0734 51.0935,104.9234 51.6735,106.0094 C52.2525,107.0964 52.5565,108.3334 52.5825,109.7194 C52.5565,111.1064 52.2525,112.3434 51.6735,113.4294 C51.0935,114.5164 50.2805,115.3664 49.2335,115.9794 C48.1865,116.5934 46.9625,116.8994 45.5635,116.8994 C44.1625,116.8994 42.9365,116.5934 41.8835,115.9794" id="Fill-7" fill="#000000"></path>
            <path d="M56.6237,116.4594 C56.4637,116.2994 56.3837,116.0994 56.3837,115.8594 C56.3837,115.6194 56.4637,115.4164 56.6237,115.2494 C56.7827,115.0834 56.9827,114.9994 57.2237,114.9994 L59.6027,114.9994 L59.6027,104.8594 L57.5627,105.8594 C57.3767,105.9394 57.2237,105.9794 57.1027,105.9794 C56.8507,105.9794 56.6437,105.8994 56.4827,105.7394 C56.3227,105.5794 56.2427,105.3734 56.2427,105.1194 C56.2427,104.7464 56.4167,104.4734 56.7637,104.2994 L59.4827,102.8794 C59.6697,102.7864 59.8557,102.7394 60.0437,102.7394 L60.4637,102.7394 C60.7297,102.7394 60.9567,102.8334 61.1437,103.0194 C61.3297,103.2064 61.4237,103.4334 61.4237,103.6994 L61.4237,114.9994 L63.4027,114.9994 C63.6437,114.9994 63.8467,115.0834 64.0137,115.2494 C64.1797,115.4164 64.2637,115.6194 64.2637,115.8594 C64.2637,116.0994 64.1797,116.2994 64.0137,116.4594 C63.8467,116.6194 63.6437,116.6994 63.4027,116.6994 L57.2237,116.6994 C56.9827,116.6994 56.7827,116.6194 56.6237,116.4594" id="Fill-9" fill="#000000"></path>
            <path d="M73.6228,109.5395 C74.7688,109.5395 75.6798,109.3125 76.3528,108.8595 C77.0258,108.4065 77.3628,107.7665 77.3628,106.9395 C77.3628,106.1395 77.0728,105.5265 76.4928,105.0995 C75.9128,104.6735 74.9228,104.4595 73.5228,104.4595 L70.0028,104.4595 L70.0028,109.5395 L73.6228,109.5395 Z M68.4428,116.5395 C68.2688,116.3665 68.1838,116.1535 68.1838,115.8995 L68.1838,103.6595 C68.1838,103.4065 68.2688,103.1895 68.4428,103.0095 C68.6158,102.8295 68.8298,102.7395 69.0828,102.7395 L73.7428,102.7395 C75.5568,102.7395 76.9158,103.1135 77.8228,103.8595 C78.7288,104.6065 79.1838,105.5865 79.1838,106.7995 C79.1838,107.5995 78.9598,108.3295 78.5128,108.9895 C78.0658,109.6495 77.4158,110.1265 76.5628,110.4195 C77.5228,110.6735 78.1798,111.2695 78.5328,112.2095 C78.8868,113.1495 79.0628,114.0735 79.0628,114.9795 L79.0628,115.8995 C79.0628,116.1535 78.9768,116.3665 78.8028,116.5395 C78.6298,116.7125 78.4158,116.7995 78.1628,116.7995 C77.8828,116.7995 77.6598,116.7165 77.4928,116.5495 C77.3258,116.3835 77.2428,116.1665 77.2428,115.8995 L77.2428,115.2995 C77.2428,114.6335 77.1838,114.0165 77.0628,113.4495 C76.9428,112.8835 76.6558,112.3765 76.2028,111.9295 C75.7498,111.4825 75.0628,111.2595 74.1438,111.2595 L70.0028,111.2595 L70.0028,115.8995 C70.0028,116.1535 69.9128,116.3665 69.7328,116.5395 C69.5528,116.7125 69.3358,116.7995 69.0828,116.7995 C68.8298,116.7995 68.6158,116.7125 68.4428,116.5395 L68.4428,116.5395 Z" id="Fill-11" fill="#000000"></path>
            <path d="M82.823,112.6796 C82.703,112.5736 82.636,112.4326 82.623,112.2596 L82.263,105.6596 L82.263,103.6796 C82.263,103.3866 82.363,103.1396 82.563,102.9396 C82.763,102.7396 83.01,102.6396 83.303,102.6396 C83.596,102.6396 83.84,102.7396 84.033,102.9396 C84.226,103.1396 84.323,103.3866 84.323,103.6796 L84.323,105.6596 L83.964,112.2596 C83.95,112.4326 83.886,112.5736 83.773,112.6796 C83.66,112.7866 83.503,112.8396 83.303,112.8396 C83.103,112.8396 82.943,112.7866 82.823,112.6796 M82.473,116.4296 C82.24,116.1966 82.123,115.9126 82.123,115.5796 C82.123,115.2596 82.24,114.9826 82.473,114.7496 C82.706,114.5166 82.983,114.3996 83.303,114.3996 C83.636,114.3996 83.92,114.5166 84.153,114.7496 C84.386,114.9826 84.503,115.2596 84.503,115.5796 C84.503,115.9126 84.386,116.1966 84.153,116.4296 C83.92,116.6626 83.636,116.7796 83.303,116.7796 C82.983,116.7796 82.706,116.6626 82.473,116.4296" id="Fill-13" fill="#000000"></path>
            <path d="M95.6433,107.9199 C95.2833,105.4669 94.0633,104.2399 91.9833,104.2399 C91.3703,104.2399 90.8263,104.3699 90.3533,104.6299 C89.8793,104.8899 89.5163,105.2399 89.2633,105.6799 C89.0093,106.1199 88.8833,106.5999 88.8833,107.1199 C88.8833,108.0259 89.1363,108.7529 89.6433,109.2999 C90.1503,109.8469 90.8893,110.1199 91.8633,110.1199 C93.5963,110.1199 94.8563,109.3869 95.6433,107.9199 M89.7233,116.6599 C89.1633,116.4999 88.6363,116.2929 88.1433,116.0399 C88.0233,115.9729 87.9233,115.8729 87.8433,115.7399 C87.7633,115.6069 87.7233,115.4669 87.7233,115.3199 C87.7233,115.1069 87.7993,114.9169 87.9533,114.7499 C88.1063,114.5829 88.3033,114.4999 88.5433,114.4999 C88.6633,114.4999 88.7763,114.5199 88.8833,114.5599 C89.7093,114.9469 90.5963,115.1399 91.5433,115.1399 C93.0493,115.1399 94.1103,114.6129 94.7233,113.5599 C95.3363,112.5059 95.6763,111.3269 95.7433,110.0199 C95.3433,110.5259 94.8103,110.9469 94.1433,111.2799 C93.4763,111.6129 92.6433,111.7799 91.6433,111.7799 C90.7363,111.7799 89.9403,111.5869 89.2533,111.1999 C88.5663,110.8129 88.0303,110.2669 87.6433,109.5599 C87.2563,108.8529 87.0633,108.0259 87.0633,107.0799 C87.0633,106.2399 87.2633,105.4729 87.6633,104.7799 C88.0633,104.0869 88.6363,103.5399 89.3833,103.1399 C90.1293,102.7399 91.0033,102.5399 92.0033,102.5399 C95.6563,102.5399 97.4833,104.9269 97.4833,109.6999 C97.4833,110.8599 97.2933,111.9869 96.9133,113.0799 C96.5333,114.1729 95.9103,115.0829 95.0433,115.8099 C94.1763,116.5369 93.0563,116.8999 91.6833,116.8999 C90.9363,116.8999 90.2833,116.8199 89.7233,116.6599" id="Fill-15" fill="#000000"></path>
            <path d="M100.3532,112.8696 C100.1992,112.7166 100.1232,112.5336 100.1232,112.3196 C100.1232,112.0936 100.1992,111.9066 100.3532,111.7596 C100.5052,111.6136 100.6892,111.5396 100.9032,111.5396 L110.6632,111.5396 C110.8892,111.5396 111.0762,111.6136 111.2222,111.7596 C111.3702,111.9066 111.4432,112.0936 111.4432,112.3196 C111.4432,112.5336 111.3702,112.7166 111.2222,112.8696 C111.0762,113.0226 110.8892,113.0996 110.6632,113.0996 L100.9032,113.0996 C100.6892,113.0996 100.5052,113.0226 100.3532,112.8696 M100.3532,108.3896 C100.1992,108.2366 100.1232,108.0536 100.1232,107.8396 C100.1232,107.6136 100.1992,107.4266 100.3532,107.2796 C100.5052,107.1336 100.6892,107.0596 100.9032,107.0596 L110.6632,107.0596 C110.8892,107.0596 111.0762,107.1336 111.2222,107.2796 C111.3702,107.4266 111.4432,107.6136 111.4432,107.8396 C111.4432,108.0536 111.3702,108.2366 111.2222,108.3896 C111.0762,108.5426 110.8892,108.6196 110.6632,108.6196 L100.9032,108.6196 C100.6892,108.6196 100.5052,108.5426 100.3532,108.3896" id="Fill-17" fill="#000000"></path>
            <path d="M120.6931,114.7895 C121.2331,114.5165 121.7101,114.1535 122.1231,113.6995 L122.1231,109.4995 C121.7101,109.0465 121.2331,108.6835 120.6931,108.4095 C120.1531,108.1365 119.5761,107.9995 118.9631,107.9995 C117.9761,107.9995 117.1831,108.3125 116.5831,108.9395 C115.9831,109.5665 115.6831,110.4535 115.6831,111.5995 C115.6831,112.7465 115.9831,113.6335 116.5831,114.2595 C117.1831,114.8865 117.9761,115.1995 118.9631,115.1995 C119.5761,115.1995 120.1531,115.0625 120.6931,114.7895 M116.3531,116.2695 C115.6131,115.8495 115.0131,115.2365 114.5531,114.4295 C114.0931,113.6225 113.8631,112.6795 113.8631,111.5995 C113.8631,110.5195 114.0931,109.5765 114.5531,108.7695 C115.0131,107.9635 115.6131,107.3495 116.3531,106.9295 C117.0931,106.5095 117.8761,106.2995 118.7031,106.2995 C120.0091,106.2995 121.1491,106.8065 122.1231,107.8195 L122.1231,102.9195 C122.1231,102.6535 122.2131,102.4335 122.3931,102.2595 C122.5731,102.0865 122.7901,101.9995 123.0431,101.9995 C123.2971,101.9995 123.5091,102.0895 123.6831,102.2695 C123.8561,102.4495 123.9431,102.6665 123.9431,102.9195 L123.9431,115.8995 C123.9431,116.1535 123.8561,116.3665 123.6831,116.5395 C123.5091,116.7125 123.2971,116.7995 123.0431,116.7995 C122.7901,116.7995 122.5731,116.7125 122.3931,116.5395 C122.2131,116.3665 122.1231,116.1535 122.1231,115.8995 L122.1231,115.3795 C121.1491,116.3935 120.0091,116.8995 118.7031,116.8995 C117.8761,116.8995 117.0931,116.6895 116.3531,116.2695" id="Fill-19" fill="#000000"></path>
            <path d="M127.363,116.5395 C127.19,116.3665 127.103,116.1535 127.103,115.8995 L127.103,107.3195 C127.103,107.0665 127.19,106.8495 127.363,106.6695 C127.536,106.4895 127.75,106.3995 128.004,106.3995 C128.257,106.3995 128.473,106.4895 128.653,106.6695 C128.833,106.8495 128.924,107.0665 128.924,107.3195 L128.924,108.1395 C129.429,107.5795 129.976,107.1335 130.563,106.7995 C131.15,106.4665 131.843,106.2995 132.643,106.2995 C133.377,106.2995 134.013,106.4735 134.553,106.8195 C135.093,107.1665 135.507,107.6395 135.793,108.2395 C136.08,108.8395 136.223,109.4995 136.223,110.2195 L136.223,115.8995 C136.223,116.1535 136.134,116.3665 135.953,116.5395 C135.773,116.7125 135.556,116.7995 135.303,116.7995 C135.05,116.7995 134.837,116.7125 134.663,116.5395 C134.49,116.3665 134.403,116.1535 134.403,115.8995 L134.403,110.4195 C134.403,108.7925 133.67,107.9795 132.203,107.9795 C131.536,107.9795 130.94,108.1535 130.413,108.4995 C129.886,108.8465 129.389,109.3125 128.924,109.8995 L128.924,115.8995 C128.924,116.1535 128.833,116.3665 128.653,116.5395 C128.473,116.7125 128.257,116.7995 128.004,116.7995 C127.75,116.7995 127.536,116.7125 127.363,116.5395" id="Fill-21" fill="#000000"></path>
            <path d="M144.2624,114.8696 C144.8094,114.5826 145.2694,114.2266 145.6434,113.7996 L145.6434,112.1196 L143.4624,112.1196 C141.4494,112.1196 140.4434,112.6466 140.4434,113.6996 C140.4434,114.1796 140.6064,114.5666 140.9334,114.8596 C141.2594,115.1536 141.8024,115.2996 142.5634,115.2996 C143.1494,115.2996 143.7154,115.1566 144.2624,114.8696 M140.2524,116.5396 C139.7524,116.2996 139.3564,115.9496 139.0634,115.4896 C138.7694,115.0296 138.6224,114.4996 138.6224,113.8996 C138.6224,112.9126 139.0124,112.1266 139.7924,111.5396 C140.5734,110.9526 141.7154,110.6596 143.2224,110.6596 L145.6434,110.6596 L145.6434,110.4996 C145.6434,109.6196 145.4254,108.9866 144.9924,108.5996 C144.5594,108.2136 143.8824,108.0196 142.9624,108.0196 C142.4554,108.0196 142.0054,108.0596 141.6134,108.1396 C141.2194,108.2196 140.7834,108.3396 140.3024,108.4996 C140.1964,108.5266 140.1094,108.5396 140.0424,108.5396 C139.8424,108.5396 139.6694,108.4666 139.5234,108.3196 C139.3754,108.1736 139.3024,107.9936 139.3024,107.7796 C139.3024,107.4196 139.4764,107.1666 139.8234,107.0196 C140.9554,106.5396 142.1094,106.2996 143.2834,106.2996 C144.2024,106.2996 144.9794,106.4866 145.6134,106.8596 C146.2454,107.2326 146.7124,107.7166 147.0124,108.3096 C147.3134,108.9036 147.4624,109.5466 147.4624,110.2396 L147.4624,115.8996 C147.4624,116.1536 147.3724,116.3666 147.1934,116.5396 C147.0124,116.7126 146.7954,116.7996 146.5424,116.7996 C146.2894,116.7996 146.0754,116.7126 145.9034,116.5396 C145.7294,116.3666 145.6434,116.1536 145.6434,115.8996 L145.6434,115.3796 C144.6564,116.3926 143.4034,116.8996 141.8824,116.8996 C141.2954,116.8996 140.7524,116.7796 140.2524,116.5396" id="Fill-23" fill="#000000"></path>
            <path d="M156.7331,114.7895 C157.2731,114.5165 157.7501,114.1535 158.1631,113.6995 L158.1631,109.4995 C157.7501,109.0465 157.2731,108.6835 156.7331,108.4095 C156.1931,108.1365 155.6161,107.9995 155.0031,107.9995 C154.0161,107.9995 153.2231,108.3125 152.6231,108.9395 C152.0231,109.5665 151.7231,110.4535 151.7231,111.5995 C151.7231,112.7465 152.0231,113.6335 152.6231,114.2595 C153.2231,114.8865 154.0161,115.1995 155.0031,115.1995 C155.6161,115.1995 156.1931,115.0625 156.7331,114.7895 M152.3931,116.2695 C151.6531,115.8495 151.0531,115.2365 150.5931,114.4295 C150.1331,113.6225 149.9031,112.6795 149.9031,111.5995 C149.9031,110.5195 150.1331,109.5765 150.5931,108.7695 C151.0531,107.9635 151.6531,107.3495 152.3931,106.9295 C153.1331,106.5095 153.9161,106.2995 154.7431,106.2995 C156.0491,106.2995 157.1891,106.8065 158.1631,107.8195 L158.1631,102.9195 C158.1631,102.6535 158.2531,102.4335 158.4331,102.2595 C158.6131,102.0865 158.8301,101.9995 159.0831,101.9995 C159.3371,101.9995 159.5491,102.0895 159.7231,102.2695 C159.8961,102.4495 159.9831,102.6665 159.9831,102.9195 L159.9831,115.8995 C159.9831,116.1535 159.8961,116.3665 159.7231,116.5395 C159.5491,116.7125 159.3371,116.7995 159.0831,116.7995 C158.8301,116.7995 158.6131,116.7125 158.4331,116.5395 C158.2531,116.3665 158.1631,116.1535 158.1631,115.8995 L158.1631,115.3795 C157.1891,116.3935 156.0491,116.8995 154.7431,116.8995 C153.9161,116.8995 153.1331,116.6895 152.3931,116.2695" id="Fill-25" fill="#000000"></path>
            <path d="M163.403,116.5395 C163.23,116.3665 163.143,116.1535 163.143,115.8995 L163.143,102.9195 C163.143,102.6665 163.23,102.4495 163.403,102.2695 C163.576,102.0895 163.79,101.9995 164.044,101.9995 C164.297,101.9995 164.513,102.0895 164.693,102.2695 C164.873,102.4495 164.964,102.6665 164.964,102.9195 L164.964,111.0995 L169.723,106.6995 C169.924,106.5265 170.123,106.4395 170.323,106.4395 C170.63,106.4395 170.853,106.5265 170.993,106.6995 C171.133,106.8725 171.203,107.0795 171.203,107.3195 C171.203,107.5465 171.09,107.7725 170.863,107.9995 L167.983,110.5795 L171.603,115.3795 C171.736,115.5535 171.803,115.7325 171.803,115.9195 C171.803,116.1865 171.716,116.3995 171.544,116.5595 C171.37,116.7195 171.15,116.7995 170.883,116.7995 C170.75,116.7995 170.616,116.7665 170.483,116.6995 C170.349,116.6335 170.236,116.5395 170.143,116.4195 L166.703,111.7395 L164.964,113.3195 L164.964,115.8995 C164.964,116.1535 164.873,116.3665 164.693,116.5395 C164.513,116.7125 164.297,116.7995 164.044,116.7995 C163.79,116.7995 163.576,116.7125 163.403,116.5395" id="Fill-27" fill="#000000"></path>
            <path d="M173.6042,115.9994 C173.3762,115.8394 173.2642,115.6194 173.2642,115.3394 C173.2642,115.1264 173.3362,114.9394 173.4842,114.7794 C173.6302,114.6194 173.8172,114.5394 174.0432,114.5394 C174.1642,114.5394 174.2842,114.5664 174.4042,114.6194 C174.8312,114.8064 175.2572,114.9534 175.6842,115.0594 C176.1102,115.1664 176.5902,115.2194 177.1242,115.2194 C178.6042,115.2194 179.3442,114.7464 179.3442,113.7994 C179.3442,113.4934 179.1732,113.2594 178.8332,113.0994 C178.4942,112.9394 177.9372,112.7594 177.1642,112.5594 C176.3762,112.3734 175.7272,112.1794 175.2132,111.9794 C174.7012,111.7794 174.2602,111.4764 173.8942,111.0694 C173.5272,110.6634 173.3442,110.1264 173.3442,109.4594 C173.3442,108.5264 173.6802,107.7664 174.3542,107.1794 C175.0272,106.5934 175.9912,106.2994 177.2442,106.2994 C178.2702,106.2994 179.2372,106.4664 180.1442,106.7994 C180.3312,106.8534 180.4742,106.9534 180.5742,107.0994 C180.6732,107.2464 180.7242,107.3994 180.7242,107.5594 C180.7242,107.7724 180.6472,107.9594 180.4942,108.1194 C180.3402,108.2794 180.1502,108.3594 179.9232,108.3594 C179.8572,108.3594 179.7702,108.3464 179.6642,108.3194 C178.8902,108.0794 178.1302,107.9594 177.3832,107.9594 C176.6642,107.9594 176.1002,108.0894 175.6942,108.3494 C175.2872,108.6094 175.0832,108.9464 175.0832,109.3594 C175.0832,109.7594 175.2702,110.0534 175.6442,110.2394 C176.0172,110.4264 176.5972,110.6064 177.3832,110.7794 C178.1702,110.9794 178.8102,111.1764 179.3042,111.3694 C179.7972,111.5624 180.2202,111.8664 180.5742,112.2794 C180.9272,112.6934 181.1042,113.2464 181.1042,113.9394 C181.1042,114.7924 180.7672,115.4994 180.0942,116.0594 C179.4202,116.6194 178.4702,116.8994 177.2442,116.8994 C175.9112,116.8994 174.6972,116.5994 173.6042,115.9994" id="Fill-29" fill="#000000"></path>
            <path d="M183.8034,116.5395 C183.6304,116.3665 183.5434,116.1535 183.5434,115.8995 L183.5434,102.9195 C183.5434,102.6665 183.6304,102.4495 183.8034,102.2695 C183.9764,102.0895 184.1904,101.9995 184.4444,101.9995 C184.7094,101.9995 184.9304,102.0865 185.1034,102.2595 C185.2774,102.4335 185.3644,102.6535 185.3644,102.9195 L185.3644,115.8995 C185.3644,116.1535 185.2734,116.3665 185.0934,116.5395 C184.9134,116.7125 184.6974,116.7995 184.4444,116.7995 C184.1904,116.7995 183.9764,116.7125 183.8034,116.5395" id="Fill-31" fill="#000000"></path>
            <path d="M213.6433,114.4794 C214.4293,113.9994 215.0293,113.3464 215.4433,112.5194 C215.8563,111.6934 216.0633,110.7594 216.0633,109.7194 C216.0633,108.6794 215.8563,107.7464 215.4433,106.9194 C215.0293,106.0934 214.4293,105.4394 213.6433,104.9594 C212.8563,104.4794 211.9293,104.2394 210.8633,104.2394 C209.7833,104.2394 208.8533,104.4794 208.0733,104.9594 C207.2923,105.4394 206.6963,106.0934 206.2833,106.9194 C205.8703,107.7464 205.6633,108.6794 205.6633,109.7194 C205.6633,110.7594 205.8703,111.6934 206.2833,112.5194 C206.6963,113.3464 207.2923,113.9994 208.0733,114.4794 C208.8533,114.9594 209.7833,115.1994 210.8633,115.1994 C211.9293,115.1994 212.8563,114.9594 213.6433,114.4794 M214.2433,119.4194 L212.0633,116.8194 C211.7293,116.8734 211.3303,116.8994 210.8633,116.8994 C209.4623,116.8994 208.2363,116.5934 207.1833,115.9794 C206.1293,115.3664 205.3163,114.5194 204.7433,113.4394 C204.1693,112.3594 203.8703,111.1194 203.8423,109.7194 C203.8703,108.3194 204.1693,107.0794 204.7433,105.9994 C205.3163,104.9194 206.1293,104.0734 207.1833,103.4594 C208.2363,102.8464 209.4623,102.5394 210.8633,102.5394 C212.2623,102.5394 213.4863,102.8464 214.5333,103.4594 C215.5803,104.0734 216.3933,104.9234 216.9733,106.0094 C217.5523,107.0964 217.8563,108.3334 217.8823,109.7194 C217.8563,111.2794 217.4793,112.6434 216.7523,113.8094 C216.0263,114.9764 215.0233,115.8264 213.7433,116.3594 L215.5023,118.2994 C215.6633,118.4594 215.7433,118.6524 215.7433,118.8794 C215.7553,119.1064 215.6763,119.3064 215.5023,119.4794 C215.3303,119.6524 215.1223,119.7394 214.8823,119.7394 C214.6293,119.7394 214.4153,119.6324 214.2433,119.4194" id="Fill-33" fill="#000000"></path>
            <path d="M222.8835,116.5595 C222.6695,116.3995 222.5235,116.1995 222.4435,115.9595 L219.6035,107.6395 C219.5635,107.5195 219.5425,107.4065 219.5425,107.2995 C219.5425,107.0465 219.6295,106.8325 219.8035,106.6595 C219.9765,106.4865 220.1905,106.3995 220.4435,106.3995 C220.6295,106.3995 220.7995,106.4495 220.9525,106.5495 C221.1065,106.6495 221.2095,106.7795 221.2635,106.9395 L223.6035,114.6395 L225.9235,107.1195 C225.9895,106.9065 226.1125,106.7325 226.2925,106.5995 C226.4735,106.4665 226.6765,106.3995 226.9035,106.3995 C227.1295,106.3995 227.3325,106.4665 227.5135,106.5995 C227.6935,106.7325 227.8165,106.9065 227.8835,107.1195 L230.2025,114.6395 L232.5425,106.9395 C232.5965,106.7795 232.6995,106.6495 232.8535,106.5495 C233.0065,106.4495 233.1765,106.3995 233.3625,106.3995 C233.6155,106.3995 233.8295,106.4865 234.0025,106.6595 C234.1765,106.8325 234.2635,107.0465 234.2635,107.2995 C234.2635,107.4065 234.2425,107.5195 234.2025,107.6395 L231.3625,115.9595 C231.2825,116.1995 231.1365,116.3995 230.9235,116.5595 C230.7095,116.7195 230.4695,116.7995 230.2025,116.7995 C229.9365,116.7995 229.6955,116.7195 229.4835,116.5595 C229.2695,116.3995 229.1155,116.1935 229.0235,115.9395 L226.9035,109.3195 L224.7825,115.9395 C224.6905,116.1935 224.5355,116.3995 224.3225,116.5595 C224.1105,116.7195 223.8695,116.7995 223.6035,116.7995 C223.3365,116.7995 223.0965,116.7195 222.8835,116.5595" id="Fill-35" fill="#000000"></path>
            <path d="M236.5231,116.0995 C236.3631,116.0335 236.2361,115.9365 236.1431,115.8095 C236.0491,115.6825 236.0021,115.5265 236.0021,115.3395 C236.0021,115.1135 236.0801,114.9165 236.2331,114.7495 C236.3861,114.5825 236.5761,114.4995 236.8031,114.4995 C236.9221,114.4995 237.0491,114.5265 237.1831,114.5795 C238.1431,114.9665 239.2031,115.1595 240.3631,115.1595 C241.4031,115.1595 242.2801,114.9895 242.9931,114.6495 C243.7061,114.3095 244.0631,113.7395 244.0631,112.9395 C244.0631,111.2595 242.5891,110.4195 239.6431,110.4195 L239.3231,110.4195 C239.0961,110.4195 238.8991,110.3365 238.7331,110.1695 C238.5661,110.0025 238.4831,109.8065 238.4831,109.5795 C238.4831,109.3525 238.5661,109.1565 238.7331,108.9895 C238.8991,108.8235 239.0961,108.7395 239.3231,108.7395 L239.4431,108.7395 C240.7761,108.7395 241.7951,108.5365 242.5021,108.1295 C243.2101,107.7235 243.5631,107.1195 243.5631,106.3195 C243.5631,105.6795 243.2951,105.1735 242.7631,104.7995 C242.2291,104.4265 241.4431,104.2395 240.4031,104.2395 C239.2831,104.2395 238.2501,104.4595 237.3031,104.8995 C237.1691,104.9535 237.0491,104.9795 236.9431,104.9795 C236.7431,104.9795 236.5691,104.9095 236.4221,104.7695 C236.2761,104.6295 236.2031,104.4535 236.2031,104.2395 C236.2031,103.9325 236.3361,103.7065 236.6031,103.5595 C237.8821,102.8795 239.2031,102.5395 240.5631,102.5395 C242.0961,102.5395 243.2831,102.8525 244.1231,103.4795 C244.9621,104.1065 245.3821,104.9935 245.3821,106.1395 C245.3821,107.0595 245.1531,107.7835 244.6931,108.3095 C244.2331,108.8365 243.6561,109.2265 242.9621,109.4795 C243.7231,109.6535 244.3991,110.0165 244.9931,110.5695 C245.5861,111.1225 245.8821,111.9465 245.8821,113.0395 C245.8821,114.2665 245.3991,115.2165 244.4331,115.8895 C243.4661,116.5625 242.2231,116.8995 240.7031,116.8995 C239.2231,116.8995 237.8301,116.6335 236.5231,116.0995" id="Fill-37" fill="#000000"></path>
            <path d="M249.2224,116.5395 C249.0494,116.3665 248.9624,116.1535 248.9624,115.8995 L248.9624,107.3195 C248.9624,107.0665 249.0494,106.8495 249.2224,106.6695 C249.3954,106.4895 249.6094,106.3995 249.8634,106.3995 C250.1164,106.3995 250.3324,106.4895 250.5124,106.6695 C250.6924,106.8495 250.7834,107.0665 250.7834,107.3195 L250.7834,108.1795 C251.7154,106.9265 252.7624,106.2995 253.9224,106.2995 L254.0224,106.2995 C254.2764,106.2995 254.4864,106.3865 254.6524,106.5595 C254.8194,106.7325 254.9024,106.9465 254.9024,107.1995 C254.9024,107.4535 254.8164,107.6595 254.6424,107.8195 C254.4694,107.9795 254.2484,108.0595 253.9824,108.0595 L253.8824,108.0595 C253.2434,108.0595 252.6564,108.2165 252.1224,108.5295 C251.5894,108.8435 251.1424,109.2725 250.7834,109.8195 L250.7834,115.8995 C250.7834,116.1535 250.6924,116.3665 250.5124,116.5395 C250.3324,116.7125 250.1164,116.7995 249.8634,116.7995 C249.6094,116.7995 249.3954,116.7125 249.2224,116.5395" id="Fill-39" fill="#000000"></path>
            <path d="M257.2224,114.2597 L257.2224,108.0597 L255.8024,108.0597 C255.6964,108.0597 255.6064,108.0227 255.5334,107.9497 C255.4594,107.8767 255.4224,107.7867 255.4224,107.6797 C255.4224,107.5467 255.4834,107.4327 255.6024,107.3397 L258.3234,104.6797 C258.4434,104.5597 258.5554,104.4997 258.6624,104.4997 C258.7694,104.4997 258.8594,104.5397 258.9324,104.6197 C259.0054,104.6997 259.0424,104.7927 259.0424,104.8997 L259.0424,106.4997 L261.3024,106.4997 C261.5294,106.4997 261.7154,106.5727 261.8634,106.7197 C262.0094,106.8667 262.0824,107.0527 262.0824,107.2797 C262.0824,107.4927 262.0094,107.6767 261.8634,107.8297 C261.7154,107.9827 261.5294,108.0597 261.3024,108.0597 L259.0424,108.0597 L259.0424,114.0997 C259.0424,114.6197 259.1654,114.9497 259.4124,115.0897 C259.6594,115.2297 259.9694,115.2997 260.3424,115.2997 C260.6094,115.2997 260.8754,115.2597 261.1424,115.1797 C261.1964,115.1667 261.2524,115.1537 261.3124,115.1397 C261.3724,115.1267 261.4494,115.1197 261.5424,115.1197 C261.7294,115.1197 261.8964,115.1897 262.0424,115.3297 C262.1894,115.4697 262.2624,115.6397 262.2624,115.8397 C262.2624,116.1467 262.1094,116.3797 261.8024,116.5397 C261.2834,116.7797 260.7294,116.8997 260.1424,116.8997 C258.1964,116.8997 257.2224,116.0197 257.2224,114.2597" id="Fill-41" fill="#000000"></path>
            <path d="M265.8327,121.1396 C265.6657,120.9666 265.5827,120.7596 265.5827,120.5196 C265.5827,120.4126 265.6027,120.3066 265.6427,120.1996 L266.9427,116.8596 L263.1827,107.6996 C263.1297,107.5666 263.1027,107.4396 263.1027,107.3196 C263.1027,107.0666 263.1887,106.8496 263.3627,106.6696 C263.5357,106.4896 263.7497,106.3996 264.0027,106.3996 C264.1887,106.3996 264.3587,106.4526 264.5127,106.5596 C264.6657,106.6666 264.7757,106.7996 264.8427,106.9596 L267.9227,114.5996 L271.0627,106.9996 C271.2357,106.5996 271.5167,106.3996 271.9027,106.3996 C272.1557,106.3996 272.3687,106.4896 272.5427,106.6696 C272.7157,106.8496 272.8027,107.0666 272.8027,107.3196 C272.8027,107.4396 272.7827,107.5536 272.7427,107.6596 L267.2827,120.7796 C267.0957,121.1926 266.8157,121.3996 266.4427,121.3996 C266.2027,121.3996 265.9997,121.3126 265.8327,121.1396" id="Fill-43" fill="#000000"></path>
            <path d="M275.6618,112.6796 C275.5418,112.5736 275.4748,112.4326 275.4618,112.2596 L275.1018,105.6596 L275.1018,103.6796 C275.1018,103.3866 275.2018,103.1396 275.4018,102.9396 C275.6018,102.7396 275.8488,102.6396 276.1418,102.6396 C276.4348,102.6396 276.6788,102.7396 276.8718,102.9396 C277.0648,103.1396 277.1618,103.3866 277.1618,103.6796 L277.1618,105.6596 L276.8028,112.2596 C276.7888,112.4326 276.7248,112.5736 276.6118,112.6796 C276.4988,112.7866 276.3418,112.8396 276.1418,112.8396 C275.9418,112.8396 275.7818,112.7866 275.6618,112.6796 M275.3118,116.4296 C275.0788,116.1966 274.9618,115.9126 274.9618,115.5796 C274.9618,115.2596 275.0788,114.9826 275.3118,114.7496 C275.5448,114.5166 275.8218,114.3996 276.1418,114.3996 C276.4748,114.3996 276.7588,114.5166 276.9918,114.7496 C277.2248,114.9826 277.3418,115.2596 277.3418,115.5796 C277.3418,115.9126 277.2248,116.1966 276.9918,116.4296 C276.7588,116.6626 276.4748,116.7796 276.1418,116.7796 C275.8218,116.7796 275.5448,116.6626 275.3118,116.4296" id="Fill-45" fill="#000000"></path>
            <path d="M280.2517,115.3095 C280.0987,115.1565 280.0227,114.9665 280.0227,114.7395 C280.0227,114.5795 280.0717,114.4295 280.1727,114.2895 C280.2727,114.1495 280.4017,114.0465 280.5627,113.9795 L287.7627,110.7795 L280.5627,107.5795 C280.4017,107.5135 280.2727,107.4095 280.1727,107.2695 C280.0717,107.1295 280.0227,106.9795 280.0227,106.8195 C280.0227,106.5935 280.0987,106.4035 280.2517,106.2495 C280.4047,106.0965 280.5957,106.0195 280.8217,106.0195 C280.9417,106.0195 281.0487,106.0395 281.1427,106.0795 L289.1217,109.6595 C289.3487,109.7665 289.5247,109.9095 289.6517,110.0895 C289.7787,110.2695 289.8427,110.4735 289.8427,110.6995 L289.8427,110.8595 C289.8427,111.0865 289.7787,111.2895 289.6517,111.4695 C289.5247,111.6495 289.3487,111.7925 289.1217,111.8995 L281.1427,115.4795 C281.0487,115.5195 280.9417,115.5395 280.8217,115.5395 C280.5957,115.5395 280.4047,115.4635 280.2517,115.3095" id="Fill-47" fill="#000000"></path>
            <path d="M298.3318,114.7895 C298.8718,114.5165 299.3488,114.1535 299.7618,113.6995 L299.7618,109.4995 C299.3488,109.0465 298.8718,108.6835 298.3318,108.4095 C297.7918,108.1365 297.2148,107.9995 296.6018,107.9995 C295.6148,107.9995 294.8218,108.3125 294.2218,108.9395 C293.6218,109.5665 293.3218,110.4535 293.3218,111.5995 C293.3218,112.7465 293.6218,113.6335 294.2218,114.2595 C294.8218,114.8865 295.6148,115.1995 296.6018,115.1995 C297.2148,115.1995 297.7918,115.0625 298.3318,114.7895 M293.9918,116.2695 C293.2518,115.8495 292.6518,115.2365 292.1918,114.4295 C291.7318,113.6225 291.5018,112.6795 291.5018,111.5995 C291.5018,110.5195 291.7318,109.5765 292.1918,108.7695 C292.6518,107.9635 293.2518,107.3495 293.9918,106.9295 C294.7318,106.5095 295.5148,106.2995 296.3418,106.2995 C297.6478,106.2995 298.7878,106.8065 299.7618,107.8195 L299.7618,102.9195 C299.7618,102.6535 299.8518,102.4335 300.0318,102.2595 C300.2118,102.0865 300.4288,101.9995 300.6818,101.9995 C300.9358,101.9995 301.1478,102.0895 301.3218,102.2695 C301.4948,102.4495 301.5818,102.6665 301.5818,102.9195 L301.5818,115.8995 C301.5818,116.1535 301.4948,116.3665 301.3218,116.5395 C301.1478,116.7125 300.9358,116.7995 300.6818,116.7995 C300.4288,116.7995 300.2118,116.7125 300.0318,116.5395 C299.8518,116.3665 299.7618,116.1535 299.7618,115.8995 L299.7618,115.3795 C298.7878,116.3935 297.6478,116.8995 296.3418,116.8995 C295.5148,116.8995 294.7318,116.6895 293.9918,116.2695" id="Fill-49" fill="#000000"></path>
            <path d="M305.5017,112.6796 C305.3817,112.5736 305.3147,112.4326 305.3017,112.2596 L304.9417,105.6596 L304.9417,103.6796 C304.9417,103.3866 305.0417,103.1396 305.2417,102.9396 C305.4417,102.7396 305.6887,102.6396 305.9817,102.6396 C306.2747,102.6396 306.5187,102.7396 306.7117,102.9396 C306.9047,103.1396 307.0017,103.3866 307.0017,103.6796 L307.0017,105.6596 L306.6427,112.2596 C306.6287,112.4326 306.5647,112.5736 306.4517,112.6796 C306.3387,112.7866 306.1817,112.8396 305.9817,112.8396 C305.7817,112.8396 305.6217,112.7866 305.5017,112.6796 M305.1517,116.4296 C304.9187,116.1966 304.8017,115.9126 304.8017,115.5796 C304.8017,115.2596 304.9187,114.9826 305.1517,114.7496 C305.3847,114.5166 305.6617,114.3996 305.9817,114.3996 C306.3147,114.3996 306.5987,114.5166 306.8317,114.7496 C307.0647,114.9826 307.1817,115.2596 307.1817,115.5796 C307.1817,115.9126 307.0647,116.1966 306.8317,116.4296 C306.5987,116.6626 306.3147,116.7796 305.9817,116.7796 C305.6617,116.7796 305.3847,116.6626 305.1517,116.4296" id="Fill-51" fill="#000000"></path>
            <path d="M310.9821,116.5395 C310.8081,116.3665 310.7221,116.1535 310.7221,115.8995 L310.7221,103.5595 C310.7221,103.3065 310.8081,103.0895 310.9821,102.9095 C311.1551,102.7295 311.3691,102.6395 311.6221,102.6395 C311.8751,102.6395 312.0911,102.7295 312.2721,102.9095 C312.4521,103.0895 312.5421,103.3065 312.5421,103.5595 L312.5421,115.8995 C312.5421,116.1535 312.4521,116.3665 312.2721,116.5395 C312.0911,116.7125 311.8751,116.7995 311.6221,116.7995 C311.3691,116.7995 311.1551,116.7125 310.9821,116.5395" id="Fill-53" fill="#000000"></path>
            <path d="M319.322,116.2997 C318.442,115.8997 317.722,115.2897 317.162,114.4697 C316.602,113.6497 316.322,112.6467 316.322,111.4597 L316.322,103.5597 C316.322,103.3067 316.409,103.0897 316.582,102.9097 C316.756,102.7297 316.968,102.6397 317.222,102.6397 C317.475,102.6397 317.692,102.7297 317.872,102.9097 C318.052,103.0897 318.142,103.3067 318.142,103.5597 L318.142,111.5197 C318.142,112.3197 318.325,112.9997 318.692,113.5597 C319.058,114.1197 319.542,114.5397 320.142,114.8197 C320.742,115.0997 321.383,115.2397 322.062,115.2397 C322.742,115.2397 323.383,115.0997 323.982,114.8197 C324.582,114.5397 325.065,114.1197 325.432,113.5597 C325.799,112.9997 325.982,112.3197 325.982,111.5197 L325.982,103.5597 C325.982,103.3067 326.069,103.0897 326.242,102.9097 C326.416,102.7297 326.629,102.6397 326.883,102.6397 C327.135,102.6397 327.352,102.7297 327.532,102.9097 C327.713,103.0897 327.802,103.3067 327.802,103.5597 L327.802,111.4597 C327.802,112.6467 327.522,113.6497 326.963,114.4697 C326.402,115.2897 325.682,115.8997 324.802,116.2997 C323.923,116.6997 323.009,116.8997 322.062,116.8997 C321.115,116.8997 320.202,116.6997 319.322,116.2997" id="Fill-55" fill="#000000"></path>
            <path d="M339.1823,107.9199 C338.8223,105.4669 337.6023,104.2399 335.5223,104.2399 C334.9093,104.2399 334.3653,104.3699 333.8923,104.6299 C333.4183,104.8899 333.0553,105.2399 332.8023,105.6799 C332.5483,106.1199 332.4223,106.5999 332.4223,107.1199 C332.4223,108.0259 332.6753,108.7529 333.1823,109.2999 C333.6893,109.8469 334.4283,110.1199 335.4023,110.1199 C337.1353,110.1199 338.3953,109.3869 339.1823,107.9199 M333.2623,116.6599 C332.7023,116.4999 332.1753,116.2929 331.6823,116.0399 C331.5623,115.9729 331.4623,115.8729 331.3823,115.7399 C331.3023,115.6069 331.2623,115.4669 331.2623,115.3199 C331.2623,115.1069 331.3383,114.9169 331.4923,114.7499 C331.6453,114.5829 331.8423,114.4999 332.0823,114.4999 C332.2023,114.4999 332.3153,114.5199 332.4223,114.5599 C333.2483,114.9469 334.1353,115.1399 335.0823,115.1399 C336.5883,115.1399 337.6493,114.6129 338.2623,113.5599 C338.8753,112.5059 339.2153,111.3269 339.2823,110.0199 C338.8823,110.5259 338.3493,110.9469 337.6823,111.2799 C337.0153,111.6129 336.1823,111.7799 335.1823,111.7799 C334.2753,111.7799 333.4793,111.5869 332.7923,111.1999 C332.1053,110.8129 331.5693,110.2669 331.1823,109.5599 C330.7953,108.8529 330.6023,108.0259 330.6023,107.0799 C330.6023,106.2399 330.8023,105.4729 331.2023,104.7799 C331.6023,104.0869 332.1753,103.5399 332.9223,103.1399 C333.6683,102.7399 334.5423,102.5399 335.5423,102.5399 C339.1953,102.5399 341.0223,104.9269 341.0223,109.6999 C341.0223,110.8599 340.8323,111.9869 340.4523,113.0799 C340.0723,114.1729 339.4493,115.0829 338.5823,115.8099 C337.7153,116.5369 336.5953,116.8999 335.2223,116.8999 C334.4753,116.8999 333.8223,116.8199 333.2623,116.6599" id="Fill-57" fill="#000000"></path>
            <path d="M351.1521,113.7597 C351.7721,112.7867 352.0821,111.4397 352.0821,109.7197 C352.0821,108.0127 351.7721,106.6737 351.1521,105.6997 C350.5321,104.7267 349.6421,104.2397 348.4821,104.2397 C347.3221,104.2397 346.4321,104.7267 345.8121,105.6997 C345.1921,106.6737 344.8811,108.0127 344.8811,109.7197 C344.8811,111.4397 345.1921,112.7867 345.8121,113.7597 C346.4321,114.7327 347.3221,115.2197 348.4821,115.2197 C349.6421,115.2197 350.5321,114.7327 351.1521,113.7597 M344.4521,114.9597 C343.5251,113.6667 343.0621,111.9197 343.0621,109.7197 C343.0621,107.5197 343.5251,105.7727 344.4521,104.4797 C345.3791,103.1867 346.7211,102.5397 348.4821,102.5397 C350.2281,102.5397 351.5681,103.1867 352.5021,104.4797 C353.4351,105.7727 353.9021,107.5197 353.9021,109.7197 C353.9021,111.9197 353.4351,113.6667 352.5021,114.9597 C351.5681,116.2527 350.2281,116.8997 348.4821,116.8997 C346.7211,116.8997 345.3791,116.2527 344.4521,114.9597" id="Fill-59" fill="#000000"></path>
            <path d="M357.071,116.3295 C356.825,116.0825 356.702,115.7865 356.702,115.4395 L356.702,103.5595 C356.702,103.3065 356.788,103.0895 356.962,102.9095 C357.134,102.7295 357.348,102.6395 357.601,102.6395 C357.854,102.6395 358.071,102.7295 358.252,102.9095 C358.431,103.0895 358.521,103.3065 358.521,103.5595 L358.521,114.8795 L365.061,114.8795 C365.314,114.8795 365.531,114.9695 365.712,115.1495 C365.891,115.3295 365.981,115.5465 365.981,115.7995 C365.981,116.0535 365.891,116.2665 365.712,116.4395 C365.531,116.6135 365.314,116.6995 365.061,116.6995 L357.962,116.6995 C357.615,116.6995 357.318,116.5765 357.071,116.3295" id="Fill-61" fill="#000000"></path>
            <path d="M367.5212,119.4496 C367.3872,119.3226 367.3212,119.1666 367.3212,118.9796 C367.3212,118.8056 367.3872,118.6526 367.5212,118.5196 C367.6542,118.3866 367.8072,118.3196 367.9812,118.3196 L377.8402,118.3196 C378.0272,118.3196 378.1842,118.3866 378.3112,118.5196 C378.4372,118.6526 378.5002,118.8056 378.5002,118.9796 C378.5002,119.1666 378.4372,119.3226 378.3112,119.4496 C378.1842,119.5756 378.0272,119.6396 377.8402,119.6396 L367.9812,119.6396 C367.8072,119.6396 367.6542,119.5756 367.5212,119.4496" id="Fill-63" fill="#000000"></path>
            <path d="M381.8503,116.3295 C381.6043,116.0825 381.4813,115.7865 381.4813,115.4395 L381.4813,103.5595 C381.4813,103.3065 381.5673,103.0895 381.7413,102.9095 C381.9133,102.7295 382.1273,102.6395 382.3803,102.6395 C382.6333,102.6395 382.8503,102.7295 383.0313,102.9095 C383.2103,103.0895 383.3003,103.3065 383.3003,103.5595 L383.3003,114.8795 L389.8403,114.8795 C390.0933,114.8795 390.3103,114.9695 390.4913,115.1495 C390.6703,115.3295 390.7603,115.5465 390.7603,115.7995 C390.7603,116.0535 390.6703,116.2665 390.4913,116.4395 C390.3103,116.6135 390.0933,116.6995 389.8403,116.6995 L382.7413,116.6995 C382.3943,116.6995 382.0973,116.5765 381.8503,116.3295" id="Fill-65" fill="#000000"></path>
            <path d="M398.1003,104.8998 C397.9003,104.6998 397.8003,104.4598 397.8003,104.1798 C397.8003,103.8998 397.9003,103.6598 398.1003,103.4598 C398.3003,103.2598 398.5403,103.1598 398.8203,103.1598 C399.1003,103.1598 399.3403,103.2598 399.5403,103.4598 C399.7403,103.6598 399.8403,103.8998 399.8403,104.1798 C399.8403,104.4598 399.7403,104.6998 399.5403,104.8998 C399.3403,105.0998 399.1003,105.1998 398.8203,105.1998 C398.5403,105.1998 398.3003,105.0998 398.1003,104.8998 M394.7403,104.8998 C394.5403,104.6998 394.4403,104.4598 394.4403,104.1798 C394.4403,103.8998 394.5403,103.6598 394.7403,103.4598 C394.9403,103.2598 395.1803,103.1598 395.4603,103.1598 C395.7403,103.1598 395.9803,103.2598 396.1803,103.4598 C396.3803,103.6598 396.4803,103.8998 396.4803,104.1798 C396.4803,104.4598 396.3803,104.6998 396.1803,104.8998 C395.9803,105.0998 395.7403,105.1998 395.4603,105.1998 C395.1803,105.1998 394.9403,105.0998 394.7403,104.8998 M398.7103,114.8598 C399.2103,114.6068 399.6233,114.2068 399.9503,113.6598 C400.2773,113.1128 400.4403,112.4198 400.4403,111.5798 C400.4403,110.7528 400.2773,110.0668 399.9503,109.5198 C399.6233,108.9728 399.2103,108.5768 398.7103,108.3298 C398.2103,108.0828 397.6873,107.9598 397.1403,107.9598 C396.5793,107.9598 396.0503,108.0828 395.5503,108.3298 C395.0503,108.5768 394.6403,108.9728 394.3203,109.5198 C394.0003,110.0668 393.8403,110.7528 393.8403,111.5798 C393.8403,112.4198 394.0003,113.1128 394.3203,113.6598 C394.6403,114.2068 395.0503,114.6068 395.5503,114.8598 C396.0503,115.1128 396.5793,115.2398 397.1403,115.2398 C397.6873,115.2398 398.2103,115.1128 398.7103,114.8598 M394.4403,116.2398 C393.6663,115.7998 393.0703,115.1768 392.6503,114.3698 C392.2303,113.5628 392.0203,112.6398 392.0203,111.5998 C392.0203,110.5598 392.2303,109.6368 392.6503,108.8298 C393.0703,108.0228 393.6663,107.3998 394.4403,106.9598 C395.2133,106.5198 396.1133,106.2998 397.1403,106.2998 C398.1533,106.2998 399.0463,106.5198 399.8203,106.9598 C400.5933,107.3998 401.1933,108.0228 401.6203,108.8298 C402.0463,109.6368 402.2603,110.5598 402.2603,111.5998 C402.2603,112.6398 402.0463,113.5628 401.6203,114.3698 C401.1933,115.1768 400.5933,115.7998 399.8203,116.2398 C399.0463,116.6798 398.1533,116.8998 397.1403,116.8998 C396.1133,116.8998 395.2133,116.6798 394.4403,116.2398" id="Fill-67" fill="#000000"></path>
            <path d="M412.7605,107.9199 C412.4005,105.4669 411.1805,104.2399 409.1005,104.2399 C408.4875,104.2399 407.9435,104.3699 407.4705,104.6299 C406.9965,104.8899 406.6335,105.2399 406.3805,105.6799 C406.1265,106.1199 406.0005,106.5999 406.0005,107.1199 C406.0005,108.0259 406.2535,108.7529 406.7605,109.2999 C407.2675,109.8469 408.0065,110.1199 408.9805,110.1199 C410.7135,110.1199 411.9735,109.3869 412.7605,107.9199 M406.8405,116.6599 C406.2805,116.4999 405.7535,116.2929 405.2605,116.0399 C405.1405,115.9729 405.0405,115.8729 404.9605,115.7399 C404.8805,115.6069 404.8405,115.4669 404.8405,115.3199 C404.8405,115.1069 404.9165,114.9169 405.0705,114.7499 C405.2235,114.5829 405.4205,114.4999 405.6605,114.4999 C405.7805,114.4999 405.8935,114.5199 406.0005,114.5599 C406.8265,114.9469 407.7135,115.1399 408.6605,115.1399 C410.1665,115.1399 411.2275,114.6129 411.8405,113.5599 C412.4535,112.5059 412.7935,111.3269 412.8605,110.0199 C412.4605,110.5259 411.9275,110.9469 411.2605,111.2799 C410.5935,111.6129 409.7605,111.7799 408.7605,111.7799 C407.8535,111.7799 407.0575,111.5869 406.3705,111.1999 C405.6835,110.8129 405.1475,110.2669 404.7605,109.5599 C404.3735,108.8529 404.1805,108.0259 404.1805,107.0799 C404.1805,106.2399 404.3805,105.4729 404.7805,104.7799 C405.1805,104.0869 405.7535,103.5399 406.5005,103.1399 C407.2465,102.7399 408.1205,102.5399 409.1205,102.5399 C412.7735,102.5399 414.6005,104.9269 414.6005,109.6999 C414.6005,110.8599 414.4105,111.9869 414.0305,113.0799 C413.6505,114.1729 413.0275,115.0829 412.1605,115.8099 C411.2935,116.5369 410.1735,116.8999 408.8005,116.8999 C408.0535,116.8999 407.4005,116.8199 406.8405,116.6599" id="Fill-69" fill="#000000"></path>
            <path d="M423.57,114.7895 C424.11,114.5165 424.587,114.1535 425,113.6995 L425,109.4995 C424.587,109.0465 424.11,108.6835 423.57,108.4095 C423.03,108.1365 422.453,107.9995 421.84,107.9995 C420.853,107.9995 420.06,108.3125 419.46,108.9395 C418.86,109.5665 418.56,110.4535 418.56,111.5995 C418.56,112.7465 418.86,113.6335 419.46,114.2595 C420.06,114.8865 420.853,115.1995 421.84,115.1995 C422.453,115.1995 423.03,115.0625 423.57,114.7895 M419.23,116.2695 C418.49,115.8495 417.89,115.2365 417.43,114.4295 C416.97,113.6225 416.74,112.6795 416.74,111.5995 C416.74,110.5195 416.97,109.5765 417.43,108.7695 C417.89,107.9635 418.49,107.3495 419.23,106.9295 C419.97,106.5095 420.753,106.2995 421.58,106.2995 C422.886,106.2995 424.026,106.8065 425,107.8195 L425,102.9195 C425,102.6535 425.09,102.4335 425.27,102.2595 C425.45,102.0865 425.667,101.9995 425.92,101.9995 C426.174,101.9995 426.386,102.0895 426.56,102.2695 C426.733,102.4495 426.82,102.6665 426.82,102.9195 L426.82,115.8995 C426.82,116.1535 426.733,116.3665 426.56,116.5395 C426.386,116.7125 426.174,116.7995 425.92,116.7995 C425.667,116.7995 425.45,116.7125 425.27,116.5395 C425.09,116.3665 425,116.1535 425,115.8995 L425,115.3795 C424.026,116.3935 422.886,116.8995 421.58,116.8995 C420.753,116.8995 419.97,116.6895 419.23,116.2695" id="Fill-71" fill="#000000"></path>
            <path d="M430.24,116.5395 C430.067,116.3665 429.98,116.1535 429.98,115.8995 L429.98,107.3195 C429.98,107.0665 430.067,106.8495 430.24,106.6695 C430.413,106.4895 430.627,106.3995 430.881,106.3995 C431.134,106.3995 431.35,106.4895 431.53,106.6695 C431.71,106.8495 431.801,107.0665 431.801,107.3195 L431.801,108.1395 C432.306,107.5795 432.853,107.1335 433.44,106.7995 C434.027,106.4665 434.72,106.2995 435.52,106.2995 C436.254,106.2995 436.89,106.4735 437.43,106.8195 C437.97,107.1665 438.384,107.6395 438.67,108.2395 C438.957,108.8395 439.1,109.4995 439.1,110.2195 L439.1,115.8995 C439.1,116.1535 439.011,116.3665 438.83,116.5395 C438.65,116.7125 438.433,116.7995 438.18,116.7995 C437.927,116.7995 437.714,116.7125 437.54,116.5395 C437.367,116.3665 437.28,116.1535 437.28,115.8995 L437.28,110.4195 C437.28,108.7925 436.547,107.9795 435.08,107.9795 C434.413,107.9795 433.817,108.1535 433.29,108.4995 C432.763,108.8465 432.266,109.3125 431.801,109.8995 L431.801,115.8995 C431.801,116.1535 431.71,116.3665 431.53,116.5395 C431.35,116.7125 431.134,116.7995 430.881,116.7995 C430.627,116.7995 430.413,116.7125 430.24,116.5395" id="Fill-73" fill="#000000"></path>
            <path d="M442.4196,116.5395 C442.2466,116.3665 442.1596,116.1535 442.1596,115.8995 L442.1596,107.3195 C442.1596,107.0665 442.2466,106.8495 442.4196,106.6695 C442.5926,106.4895 442.8066,106.3995 443.0606,106.3995 C443.3256,106.3995 443.5466,106.4865 443.7196,106.6595 C443.8936,106.8325 443.9806,107.0535 443.9806,107.3195 L443.9806,115.8995 C443.9806,116.1535 443.8896,116.3665 443.7096,116.5395 C443.5296,116.7125 443.3136,116.7995 443.0606,116.7995 C442.8066,116.7995 442.5926,116.7125 442.4196,116.5395 M442.2996,104.1195 C442.0996,103.9195 441.9996,103.6795 441.9996,103.3995 L441.9996,103.3195 C441.9996,103.0395 442.0996,102.7995 442.2996,102.5995 C442.4996,102.3995 442.7396,102.2995 443.0206,102.2995 L443.1396,102.2995 C443.4196,102.2995 443.6596,102.3995 443.8596,102.5995 C444.0606,102.7995 444.1596,103.0395 444.1596,103.3195 L444.1596,103.3995 C444.1596,103.6795 444.0606,103.9195 443.8596,104.1195 C443.6596,104.3195 443.4196,104.4195 443.1396,104.4195 L443.0206,104.4195 C442.7396,104.4195 442.4996,104.3195 442.2996,104.1195" id="Fill-75" fill="#000000"></path>
            <path d="M182.2448,76.558 C183.3228,78 193.9868,111.785 193.9868,111.785 L200.3228,125 L192.3228,128 L194.3228,161" id="Stroke-77" stroke="#FFFFFF" stroke-width="17"></path>
            <g id="Group-81" transform="translate(4.000000, 0.774000)">
                <mask id="mask-2" fill="white">
                    <use xlink:href="#path-1"></use>
                </mask>
                <g id="Clip-80"></g>
                <path d="M188.1394,75.8724 C186.6364,75.8724 167.7774,76.0284 168.1004,76.0064 C166.9314,69.7214 165.2894,61.8584 163.9934,55.9214 C163.2794,61.9374 162.6154,69.7854 162.0804,76.0724 L139.6294,75.9104 C142.8724,119.8724 147.1934,162.4124 130.5274,222.5944 C127.4974,233.5354 124.0454,242.0374 124.0454,254.0744 L0.6984,255.0004 C54.6474,204.1974 13.2494,144.2024 36.0094,44.3984 C46.0004,0.5894 144.8074,-15.9996 178.4824,19.4974 C184.8524,26.2124 192.5354,33.9614 192.560562,42.9754 C192.5914,53.9284 188.1614,75.5694 188.1394,75.8724" id="Fill-79" fill="#FFFFFF" mask="url(#mask-2)"></path>
            </g>
            <path d="M140.7536,173.1845 C99.3096,166.2055 89.1866,149.8035 88.5296,144.7245 C86.0676,125.7295 85.2926,62.5545 85.2926,62.5545 C103.6686,55.8735 131.2376,45.8495 140.4296,42.5075 C149.6426,45.7885 160.4736,51.4755 175.9716,63.3975 C182.4346,68.3705 185.5136,82.4815 191.7596,106.6895 C194.7936,118.4505 193.4156,130.8545 193.0056,144.3835 C192.4686,162.1195 188.9756,169.0455 177.6496,169.0455 C175.8226,169.0455 173.1636,169.0235 171.5116,169.0235 C155.1986,169.0235 130.8126,165.2865 130.8126,147.8695 C130.8126,145.4555 140.7536,173.1845 140.7536,173.1845" id="Fill-82" fill="#F1D5C3"></path>
            <path d="M170.6325,92.9827945 C172.2385,92.9778 173.5545,96.3788 173.5685,100.5748 C173.5815,104.7718 172.2885,108.1838 170.6825,108.188806 C169.0745,108.1938 167.7595,104.7908 167.7455,100.5938 C167.7325,96.3978 169.0265,92.9878 170.6325,92.9827945" id="Fill-84" fill="#000000"></path>
            <path d="M192.1413,128.4091 C191.4123,126.0091 191.4823,122.2111 191.2963,119.0001 C191.1043,115.6721 190.9703,108.6051 190.8783,106.8531 C191.7833,108.3561 193.9723,113.6681 195.5423,116.9501 C196.8933,119.7721 199.4243,122.5681 200.1833,124.5751 C200.6983,125.9341 192.3693,129.1571 192.1413,128.4091" id="Fill-86" fill="#FF3434"></path>
            <polyline id="Fill-88" fill="#F1D5C3" points="134.4001 167.9863 118.4511 163.6123 118.0661 208.5663 134.5851 213.3633 135.0641 213.3613 151.5481 208.4583 150.7351 154.5433 134.5541 145.5923"></polyline>
            <path d="M185.0798,80.6381 C183.6908,80.6381 166.2868,80.7821 166.5858,80.7621 C165.5078,74.9621 163.9928,67.7061 162.7958,62.2261 C162.1368,67.7791 161.5238,75.0201 161.0308,80.8231 L140.3108,80.6741 C143.3058,121.2431 147.2918,160.5021 131.9118,216.0401 C129.1158,226.1371 125.9308,233.9831 125.9308,245.0911 L12.1008,245.9451 C61.8868,199.0631 23.6838,143.6961 44.6868,51.5931 C53.9068,11.1641 145.0908,-4.1449 176.1668,28.6141 C182.0458,34.8101 189.1358,41.9611 189.158954,50.2791 C189.1878,60.3881 185.0998,80.3581 185.0798,80.6381" id="Fill-90" fill="#FF3434"></path>
            <path d="M172.4978,145.5488 C178.4778,141.2768 183.5428,143.2798 191.6208,143.1588" id="Stroke-92" stroke="#DF715C" stroke-width="1.248" stroke-linecap="round" stroke-linejoin="round"></path>
            <path d="M133.0612,93.0375 C132.8542,92.6875 122.3622,87.8745 122.5582,103.1935 C122.7572,118.5135 130.0122,116.4155 133.3582,116.7935 C136.7062,117.1685 133.2692,93.3845 133.0612,93.0375" id="Fill-94" fill="#F1D5C3"></path>
            <path d="M150.9245,167.1318 C150.7735,166.7108 143.3965,166.1028 141.2265,164.0938 L140.9235,170.8218 L151.0285,174.0548 L150.9245,167.1318 Z" id="Fill-96" fill="#DF715C"></path>
            <path d="M159.5437,166.7724 C159.7587,166.8584 165.4597,164.0884 168.9447,163.6924 C172.4317,163.2954 173.7137,170.8104 173.7137,170.8104 L165.2897,175.1064 L157.2237,174.2304 L159.5437,166.7724 Z" id="Fill-98" fill="#F1D5C3"></path>
            <path d="M154.1276,248.5087 C161.8166,215.1857 177.1886,216.8417 201.5196,202.9427 C204.4086,199.9477 203.3126,197.2717 202.5856,193.7027 C201.6066,190.1827 203.7436,188.1047 203.3276,184.6227 C201.3706,181.4837 198.6216,180.9167 200.0716,176.7757 C200.7646,175.2427 194.6346,171.1327 194.9676,169.5537 C195.4386,167.3207 202.4596,162.2347 202.5716,160.4137 C202.9566,154.1687 196.3336,152.7837 193.5436,155.2277 C188.8116,159.3707 180.6586,165.4867 175.5556,167.9457 C167.8576,171.6557 158.3986,173.3187 158.9346,171.5867 C160.1016,167.8077 152.2436,166.0787 151.3226,166.9997 C141.9246,176.3987 132.9076,199.9947 128.4936,233.1287 C127.8326,238.0927 126.6296,240.8437 125.9306,245.9457" id="Fill-100" fill="#F1D5C3"></path>
            <path d="M194.9675,169.5536 C194.9675,169.5536 186.8225,173.6506 183.2785,175.3656" id="Stroke-102" stroke="#E5B79E" stroke-width="2"></path>
            <path d="M192.3845,158.0527 C190.0575,158.8957 168.7065,170.8427 162.2445,171.1827 C159.6415,171.3197 161.4935,169.5077 158.8265,168.6187 C153.6995,166.9097 151.2845,166.9347 150.2815,167.7647 C150.2815,167.7647 134.0475,189.9797 125.5035,246.3727" id="Stroke-104" stroke="#E5B79E" stroke-width="3"></path>
            <path d="M201.0495,45.7626 C200.2365,45.8886 199.8635,45.2446 200.3785,44.6026 L210.4575,32.0396 L211.2365,31.0706 C215.8845,25.2756 225.0595,23.8516 227.7515,28.5076 L228.2015,29.2866 L228.6535,30.0656 C231.3455,34.7206 225.5335,41.9636 218.1945,43.1026 L216.9655,43.2926 L201.0495,45.7626 Z" id="Fill-106" fill="#37B1CC"></path>
            <path d="M199.8405,55.7021 C199.4225,55.4791 199.4445,54.9681 199.8805,54.7821 L208.4165,51.1471 L209.0755,50.8661 C213.0125,49.1901 217.7305,51.7101 217.5685,55.4021 L217.5405,56.0201 L217.5135,56.6391 C217.3515,60.3311 212.4295,62.4271 208.6555,60.4101 L208.0245,60.0731 L199.8405,55.7021 Z" id="Fill-108" fill="#37B1CC"></path>
        </g>
    </g>
</svg>