<!-- by Tanja Rohlfs (http://tanjarohlfs.de/) - license: CC-BY-NC-SA (see: https://creativecommons.org/licenses/by-nc-sa/4.0/) -->
<svg width="780" height="500" xmlns="http://www.w3.org/2000/svg" xmlns:xlink="http://www.w3.org/1999/xlink"><defs><path id="a" d="M0 .28h23.898v20.33H0z"/><path id="c" d="M.418.144h202.979V72.5H.417z"/><path id="e" d="M.173.463h32.865v11.108H.173z"/><path id="g" d="M0 451.276h760.038V0H0z"/></defs><g fill="none" fill-rule="evenodd"><path fill="#FFF" d="M0 0h780v500H0z"/><g transform="translate(10 25)"><g transform="translate(0 372.776)"><mask id="b" fill="#fff"><use xlink:href="#a"/></mask><path d="M23.897 5.873s-2.624-8.669-9.386-4.423c-.469.292-9.79 9.968-12.382 13.952-.317.49-2.728 3.466-1.99 4.19 2.195 2.145 4.236.36 6.128-.437 2.77-1.17 17.787-11.563 17.63-13.282" fill="#E26666" mask="url(#b)"/></g><path d="M56.665 354.495s1.538-8.926-6.41-8.159c-.551.052-13.218 4.526-17.32 6.928-.503.295-3.991 1.877-3.655 2.855 1 2.9 3.624 2.22 5.674 2.354 3 .194 21.082-2.37 21.711-3.978" fill="#E26666"/><path d="M229.94 410.375s-48.125 13.315-101.597-1.146c-53.472-14.461-79.491-52.39-79.491-52.39l7.97-3.632s30.885 28.987 85.379 34.615c54.494 5.627 73.478-10.331 73.478-10.331l14.26 32.884z" fill="#2B5165"/><path d="M147.181 413.301c5.268-1.498 6.472-.828 17.196-2.614l18.958-7.05-19.123 11.69c-8.129-.683-10.12-.637-17.03-2.026" fill="#152F38"/><g transform="translate(17 378.776)"><mask id="d" fill="#fff"><use xlink:href="#c"/></mask><path d="M203.397 55.988s-44.125 22.917-99.114 14.755C50.135 62.705 1.314 17.829.418 5.81L6.69.144s44.652 49.962 99.159 43.893c54.036-6.017 71.6-19.85 71.6-19.85l25.947 31.801z" fill="#2B5165" mask="url(#d)"/></g><path d="M339.22 313.582c-41.635 53.571-90.24 30.316-97.263 27.53l-9.527 22.703s58.433 35.7 113.907-43.87c3.407-4.887-7.116-6.363-7.116-6.363" fill="#F1D5C3"/><path d="M296.09 342l6.805-1.081 5.891 20.705-46.95 14.894s2.023-33.826 4.9-32.194c2.875 1.632 29.353-2.323 29.353-2.323" fill="#69BAC9"/><path d="M278.178 371.334l-7.873-1.2 1.88-7.314s9.553.588 9.602.735c.049.147 8.7 3.874 8.7 3.874l-12.31 3.905z" fill="#2B5165"/><path d="M366.228 300.897s-.204.729-.349 1.19c-1.444 4.576-12.587 12.944-15.416 14.004-2.834 1.06-6.574 7.511-6.574 7.511l-6.98-7.344s6.855-6.657 6.375-9.518c-.48-2.862 4.372-7.324 2.205-12.59-2.166-5.262 1.247-3.742 1.247-3.742s3.117 2.5 2.263 6.654c-.28 1.374.11 2.215.284 2.956.294 1.283 2.624.518 3.568-.048 3.395-2.036 2.245-.921 3.535-2.35 1.136-1.26 2.53-3.312 3.085-4.15.004-.007.004-.012.004-.012 1.04-2.269-.421-1.907.307-3.02.38-.575.452-.763 1.194-.48.297.111.534.324.723.606.218-.087.472-.107.765-.04.648.151 1.16.809 1.56 1.633.091.016.18.047.274.088 1.172.512.149 2.458 2.002 3.862 1.179.892-.072 4.79-.072 4.79" fill="#F1D5C3"/><path d="M356.857 300.78l-.349-.357c1.759-1.718 4.551-4.788 4.556-5.712.002-.284-.005-.617-.01-.969-.035-1.866-.025-3.115.404-3.466l.316.387c-.273.224-.24 2.075-.22 3.07.005.356.012.693.01.981-.008 1.436-4.226 5.597-4.707 6.066m2.644 1.672l-.377-.329c.034-.04 3.455-3.965 4.043-4.953.4-.673.23-2.342.128-3.34-.043-.417-.076-.747-.067-.938.017-.325.116-.55.294-.67a.518.518 0 01.439-.059l-.155.475c-.018.008-.067.077-.078.28-.008.152.025.481.065.861.115 1.129.288 2.832-.196 3.647-.61 1.026-3.954 4.863-4.096 5.026m2.998.725l-.362-.346c.014-.014 1.38-1.445 1.963-2.427.391-.656.649-1.856.727-3.378.036-.715.747-1.525.777-1.56l.374.332c-.173.197-.629.806-.652 1.253-.057 1.134-.243 2.68-.796 3.61-.613 1.03-1.974 2.456-2.031 2.516m-13.895 3.12l-.327-.378c2.411-2.092 1.746-3.754 1.389-4.647-.144-.36-.248-.62-.08-.822l.385.319a.12.12 0 00.03-.066c-.001.056.071.238.13.383.374.937 1.153 2.886-1.526 5.211" fill="#DF715C"/><path d="M458.167 292.641s-19.265 4.153-24.184 1.005c-4.795-3.07-3.994-.392-3.994-.392s-.192 3.262 4.057 3.534c1.404.09 3.02 1.888 3.305 2.594.59 1.461-.61 2.607-1.466 3.305-.898.732-.106.387-1.895 1.099-2.017.803-7.736 2.665-7.736 2.665s4.017 7.823 8.81 8.087c4.794.264 15.308-6.663 17.287-8.949 1.978-2.286 7.074-1.694 7.074-1.694" fill="#E0B094"/><path d="M429.46 306.911c.051-1.333-1.4-3.861-2.735-3.96-.686-.052-1.317.139-1.548.9-.594 1.959 3.63 5.231 3.63 5.231l.653-2.17z" fill="#E0B094"/><path d="M355.254 344.043c-44.04 51.613-90.431 24.399-97.32 21.296l-10.555 22.243c2.15-4.723 67.413 35.324 117.42-37.446.32-.465-9.545-6.093-9.545-6.093" fill="#F1D5C3"/><path d="M385.097 332.967c-1.879 4.419-12.731 10.8-15.655 11.567-2.928.767-4.645 5.604-4.645 5.604l-9.542-6.098s12.224-15.458 11.568-21.258c-.642-5.656 1.409-3.76 1.409-3.76s3.015 1.269 1.383 5.204c-.54 1.296.364 3.54.868 4.108 1.053 1.175 2.61.6 3.613.14 1.053-.481.397.08 1.822-1.212.84-.763 2.383-2.299 3.668-3.597-.866-.975-1.56-2.423-1.21-3.293.254-.64.706-1.12 1.492-.993.914.152 1.636 1.31 2.151 2.531 1.079 1.58 4.677 7.281 3.078 11.057" fill="#F1D5C3"/><path d="M427.16 268.606s-7.45-.33-9.87 1.48c-2.42 1.815-15.476 6.675-20.11 5.425-.376-.1-.72-.235-1.036-.395 0 0-.005 0-.01-.005-.245-.06-4.105-1.045-4.215-2.47-.18-2.32-2.375-2.51-2.17-3.77.015-.1.04-.195.075-.28-.48-.78-.76-1.57-.535-2.195.1-.285.255-.48.445-.615-.14-.315-.19-.635-.125-.945.17-.775.365-.735 1.05-.745 1.33-.01.24 1.025 2.7 1.37.99-.015 3.5-.075 5.185-.355 1.9-.315.335.055 3.88-1.705.99-.49 2.89-2.04 1.97-2.98-.535-.545-1.025-1.33-2.34-1.835-3.955-1.52-4.375-5.495-4.375-5.495s.56-3.695 3.825.97 9.635 2.99 11.785 4.94c2.15 1.95 11.44-.29 11.44-.29l2.43 9.895z" fill="#E0B094"/><path d="M733.448 206.602c.408-.219 8.221-1.079 8.221-1.079s3.58 22.892 3.5 26.83c-.035 1.793-3.492-1.464-3.97-3.197-2.743-9.95-5.021-10.828-6.897-13.624-4.312-6.424-1.261-8.712-.854-8.93" fill="#69BAC9"/><g transform="translate(727 171.776)"><mask id="f" fill="#fff"><use xlink:href="#e"/></mask><path d="M.183 9.197c-.171-.518 1.87-8.043 1.87-8.043S27.943-.108 32.504.78c2.076.403-2.414 3.763-4.527 3.968-12.121 1.177-13.609 3.647-17.24 5.263C2.392 13.723.355 9.713.184 9.197" fill="#69BAC9" mask="url(#f)"/></g><mask id="h" fill="#fff"><use xlink:href="#g"/></mask><path fill="#050505" mask="url(#h)" d="M591.871 134.766h1.5V0h-1.5z"/><path d="M630.913 139.482s41.3 46.972 60.722 46.972c19.422 0 37.419-13.524 37.419-13.524l10.1 8.142s-26.696 23.261-47.505 22.568c-20.81-.694-42.79-7.706-42.79-7.706l-29.315-59.37 11.37 2.918z" fill="#C7C7C7" mask="url(#h)"/><path d="M644.907 154.588s22.14 44.965 26.917 46.59l-8.408-1.147s-13.472-20.638-13.09-21.211c.382-.573-5.419-24.232-5.419-24.232" fill="#7B7C7C" mask="url(#h)"/><path d="M574.993 143.29c38.32-27.228 66.945-6.698 75.236 24.278 11.647 43.516 42.137 76.522 82.703 39.161.442-.407 4.01 13.55 4.647 13.067-24.13 18.35-26.388 19.59-39.793 20.536-42.223 2.984-76.035-69.643-81.681-70.024-5.332-.36-8.573-1.118-11.747 3.102-10.644 14.154-34.76-26.287-29.365-30.12" fill="#C7C7C7" mask="url(#h)"/><path d="M423.744 258.363c63.995-16.101 70.254-61.927 71.82-68.347l19.744-2.387s8.68 68.348-87.441 81.366c-5.904.8-4.123-10.632-4.123-10.632" fill="#FF3434" mask="url(#h)"/><path d="M552.687 222.384c2.476 1.018 43.121-34.753 48.967-50.559 4.92-13.303-13.707-34.94-10.671-37.765-28.995 14.19-71.23 32.105-68.587 38.234 11.114 25.775-16.669 42.585-16.669 42.585l27.215 9.892 19.745-2.387z" fill="#FF3434" mask="url(#h)"/><path d="M519.365 198.744c-.667 2.26-.93 4.622-.682 6.978.3 2.764.566 7 .378 12.624-.978 9.203-19.104 4.703-19.69 4.617v.082c-.575-.082-12.165.941-11.819-8.226.178-4.78.606-8.338.982-10.669.321-1.995.26-4.031-.101-5.992-.433-2.336-.418-5.461 2.494-6.372 3.451-1.08 2.856.285 5.35 3.762 1.985 2.768 11.025 2.936 13.463.055 3.227-3.812 2.621-5.288 6.862-4.234 3.832.957 3.573 4.642 2.764 7.375" fill="#E0B094" mask="url(#h)"/><path d="M262.517 364.861s14.58 3.75 20.514 1.071c3.944-1.78 4.777-2.982 11.36-9.473 3.888-3.835-1.541-14-1.541-14l-12.225-22.185-3.13-6.569-36.108 24.79 21.13 26.366z" fill="#F1D5C3" mask="url(#h)"/><path d="M279.358 335.453c.927 1.339 2.214 2.07 2.875 1.632.662-.436.446-1.876-.48-3.214-.928-1.338-2.215-2.07-2.876-1.632-.662.437-.446 1.876.48 3.214m-12.697 8.921c.985 1.422 2.353 2.198 3.055 1.734.703-.464.474-1.994-.511-3.415-.985-1.422-2.353-2.2-3.056-1.735-.702.465-.473 1.994.512 3.416" fill="#000" mask="url(#h)"/><path d="M276.83 341.163s6.768 5.4 6.163 6.515c-.604 1.115-2.147.973-2.147.973l-4.017-7.488z" fill="#FF3434" mask="url(#h)"/><path d="M499.446 214.855l-2.29 4.816c-.053.16.044.36.188.384l3.554.61c.227.038.385-.17.299-.4l-1.283-5.485c-.086-.229-.385-.177-.468.075" fill="#DF715C" mask="url(#h)"/><path d="M510.167 205.782c-.8-.002-1.454 1.35-1.46 3.018-.007 1.668.637 3.024 1.437 3.027.8.002 1.455-1.35 1.461-3.019.007-1.668-.638-3.024-1.438-3.026m.428 8.474h-.015c-2.42-.117-3.617-2.311-3.666-2.404a.31.31 0 01.545-.292c.011.02 1.087 1.978 3.15 2.077a.31.31 0 01-.014.619m-16.582-8.72c.805-.002 1.464 1.32 1.47 2.952.006 1.631-.643 2.958-1.448 2.96-.805.003-1.464-1.32-1.47-2.952-.006-1.632.643-2.958 1.448-2.96m-.967 8.317a.309.309 0 01-.014-.62c2.014-.096 3.065-2.008 3.075-2.027a.31.31 0 01.546.291c-.049.092-1.221 2.241-3.592 2.356h-.015" fill="#383838" mask="url(#h)"/><path d="M519.365 198.742c-.666 2.26-.93 4.625-.68 6.982.297 2.762.562 7 .375 12.624-.977 9.2-19.104 4.703-19.688 4.617v.004c-.576-.082-12.164 1.018-11.822-8.15.178-4.78.608-8.337.986-10.67.32-1.996.257-4.032-.104-5.991-.43-2.333-.416-5.46 2.497-6.374 3.447-1.078 2.854.287 5.347 3.762 1.986 2.772 11.026 2.94 13.464.06 3.228-3.813 2.621-5.292 6.864-4.238 3.83.96 3.57 4.644 2.761 7.374m18.442-3.662c-1.342-4.575-2.909-7.497-4.515-9.287-.091-3.241-1.352-7.187-5.502-11.337-7.945-7.945-11.844-2.854-13.57-2.904-1.845-.06.264-5.726-10.598-3.945h-.005c-9.752 1.114-8.36 5.835-9.889 6.255-1.397.38-3.434-2.575-10.009 4.676-6.132 6.762.84 12.136-2.785 15.469-1.366 1.251-1.315 4.47-1.31 5.726.004 4.114 1.643 5.603 2.237 5.99 1.735 1.137 3.836 2.361 3.716 5.525-.104 2.708-3.109 15.67-.762 19.93 4.853 8.799 26.825 13.087 35.541 5.662 5.411-4.62 8.662-9.2 8.105-15.168a6.797 6.797 0 01-1.689-1.447c1.218-.096 4.054-.84 7.885-5.123 5.187-5.799 6.84-7.474 3.15-20.022" fill="#383838" mask="url(#h)"/><path d="M500.073 229.986c-1.143 0-2.262-.218-3.16-.623-1.255-.565-1.91-1.42-1.847-2.405l.748.049c-.056.877.858 1.425 1.408 1.673 2.018.91 5.424.76 7.089-.913l.531.53c-1.16 1.165-2.994 1.69-4.769 1.69" fill="#DF715C" mask="url(#h)"/><path d="M458.012 292.08c66.672-12.58 70.001-64.453 70.73-71.973l24.549 1.89s3.8 70.45-92.321 83.468c-5.905.8-2.958-13.386-2.958-13.386" fill="#FF3434" mask="url(#h)"/><path d="M524.865 215.705c0 3.349 1.854 6.064 4.142 6.064 2.288 0 4.142-2.715 4.142-6.064 0-3.35-1.855-6.064-4.142-6.064-2.288 0-4.142 2.715-4.142 6.064" fill="#E0B094" mask="url(#h)"/><path d="M621.287 178.363c0 5.888-4.774 10.662-10.662 10.662-5.89 0-10.663-4.774-10.663-10.662 0-5.889 4.773-10.663 10.663-10.663 5.888 0 10.662 4.774 10.662 10.663" fill="#FFF" mask="url(#h)"/><path d="M610.625 168.45c-5.466 0-9.913 4.447-9.913 9.913 0 5.465 4.447 9.912 9.913 9.912 5.465 0 9.912-4.447 9.912-9.912 0-5.466-4.447-9.913-9.912-9.913m0 21.325c-6.293 0-11.413-5.12-11.413-11.412 0-6.293 5.12-11.413 11.413-11.413 6.292 0 11.412 5.12 11.412 11.413s-5.12 11.412-11.412 11.412" fill="#050505" mask="url(#h)"/><path fill="#050505" mask="url(#h)" d="M609.837 178.783h1.5V25.273h-1.5z"/><path fill="#050505" mask="url(#h)" d="M610.163 26.139L592.171.88l1.221-.87 17.993 25.258z"/><path d="M568.47 144.15s2.322 24.511 23.851 42.474m-32.895-38.571s2.829 29.323 25.707 48.258m-7.951 7.344s-19.36-10.045-27.74-51.374m19.342 59.124s-19.25-10.835-28.086-54.398" stroke="#FFF" stroke-width="1.5" mask="url(#h)"/><path d="M394.699 268.14c-.623 0-1.125-.068-1.398-.24a44.382 44.382 0 01-.819-.539c-.828-.553-2.377-1.582-2.705-1.47l-.155-.476c.528-.173 1.585.494 3.138 1.53.292.195.569.38.809.532.78.496 4.872-.2 7.267-.753l.113.487c-.508.117-4.098.929-6.25.929m-.112 2.936l-.1-.001c-.947-.032-2.288-1.098-3.175-1.803-.3-.239-.558-.444-.69-.52-.204-.117-.275-.09-.275-.09l-.486-.12a.51.51 0 01.286-.339c.197-.085.44-.047.722.114.166.096.426.302.754.563.785.624 2.1 1.669 2.88 1.695 1.141.033 6.301-.724 6.353-.731l.073.494c-.208.031-4.992.738-6.342.738m2.307 2.532c-.064 0-.126 0-.187-.003-1.082-.036-2.483-.715-3.468-1.277-.39-.225-1.148-.168-1.407-.127l-.077-.494c.045-.007 1.11-.168 1.732.186 1.323.757 2.472 1.187 3.237 1.212 1.145.04 3.082-.34 3.102-.342l.096.49c-.078.015-1.826.355-3.028.355m11.24-10.063c-1.988 0-2.837-1.189-3.297-1.833-.092-.127-.205-.286-.252-.316a.118.118 0 00.07.011l-.061-.496c.264-.03.424.195.649.51.56.783 1.6 2.238 4.663 1.34l.141.479c-.734.215-1.366.305-1.913.305" fill="#AA5D48" mask="url(#h)"/><path d="M298.117 374.415l1.102 22.11-52.59 1.942s5.873-31.255 10.082-30.543c8.896 1.505 41.406 6.49 41.406 6.49" fill="#69BAC9" mask="url(#h)"/><path d="M196.457 384.578s-15.386 46.378 23.94 50.186c9.64.933 44.247-36.962 44.247-36.962l1.744-28.24-18.266-3.092-51.665 18.108z" fill="#69BAC9" mask="url(#h)"/><path d="M272.111 365.334l-1.807 4.8s-22.764-3.625-22.182-3.664c.58-.039 9.485-3.448 11.103-3.316 1.618.131 12.886 2.18 12.886 2.18" fill="#F1D5C3" mask="url(#h)"/><path d="M253.666 363.15s.982 3.36 6.225 5.312c5.243 1.952-7.453.855-7.482.855-.03 0-5.424-2.235-5.424-2.235l6.68-3.932z" fill="#69BAC9" mask="url(#h)"/><path d="M248.915 372.998l-.633-.774c3.145-2.573 6.785-3.352 8.959-3.817.704-.15 1.5-.32 1.658-.452 0 0-.025.021-.046.067l.909.419c-.231.499-.926.648-2.312.944-2.086.446-5.576 1.193-8.535 3.613" fill="#2B5165" mask="url(#h)"/><path d="M279.679 355.654c-.401 0-.768-.06-1.075-.201a.25.25 0 01-.123-.332.249.249 0 01.332-.123c.98.452 3.176-.09 5.734-1.415 2.687-1.39 4.852-3.183 5.036-4.169a.25.25 0 11.491.091c-.251 1.354-2.922 3.293-5.297 4.523-.837.432-3.306 1.626-5.098 1.626" fill="#DF715C" mask="url(#h)"/><path d="M284.029 319.293l-3.732 3.73-6.698-6.367 3.815 8.402-12.774 9.765-7.389-6.859 4.108 8.857-9.018 7.012c.05.051.095.111.138.164.708.848 6.699 3.677 8.226 10.125 3.34 14.11-38.053 37.593-47.074 40.264-15.498 4.588-52.287 7.412-52.591 0-.06-1.465.521-4.66.819-6.729.114-.792 6.85-1.834 6.85-1.834s-6.38-1.762-6.243-2.421c1.07-5.137 2.639-10.45 4.165-14.404.254-.659 6.054-1.608 6.054-1.608s-4.803-1.357-4.564-1.837c.723-1.45 1.389-2.427 1.928-2.733 12.176-6.919 42.993-1.636 53.12-19.907 5.662-10.214 4.709-21.685 18.849-30.616 14.135-8.922 28.323-13.64 36.188-4.691 7.872 8.945 5.823 11.687 5.823 11.687" fill="#FF3434" mask="url(#h)"/><path d="M251.366 349.812c-.196-.055-6.925 1.811-3.03 7.313 3.896 5.5 7.207 2.238 9.067 1.22 1.858-1.016-5.842-8.478-6.037-8.533" fill="#F1D5C3" mask="url(#h)"/><path d="M259.121 361.61c-.098-.099 11.29 4.798 12.535 4.934l-.785 2.085-11.75-7.018zm118.537-31.779l-.345-.362c1.897-1.809 4.753-4.555 5.095-4.944.012-.3-.196-1.764-.427-2.012l.365-.34c.39.417.62 2.276.534 2.534-.024.074-.07.214-5.222 5.124m1.646 1.669l-.352-.355c5.154-5.09 5.28-5.123 5.364-5.145l.125.484-.062-.242.127.214c-.247.174-3.246 3.112-5.202 5.044m1.353 2.08a.283.283 0 01-.243-.129l.42-.268c-.06-.095-.166-.112-.208-.099.481-.138 4.215-3.434 4.439-3.919l.126.058.363.02c-.03.56-4.269 4.184-4.8 4.325a.403.403 0 01-.097.012" fill="#DF715C" mask="url(#h)"/><path d="M428.024 308.51c-.022 0-.032-.003-.041-.005-.286-.073-1.26-1.093-1.474-1.604l.462-.193c.167.4.909 1.143 1.128 1.3.557-.087 4.377-.982 6.908-1.588l.116.487c-6.104 1.46-6.936 1.603-7.1 1.603m1.027 2.215l-.055-.189-.185-.243c.07-.052.173-.131 7.359-1.04l.062.496c-2.728.345-6.891.89-7.18.976m2.793 2.378c-.243 0-.414-.022-.483-.07l.287-.41-.144.205.105-.225c.476.128 4.677-.562 5.051-.832-.036.026-.088.117-.051.221l.472-.165c.034.097.02.237-.12.343-.387.292-3.798.933-5.118.933" fill="#AA5D48" mask="url(#h)"/></g></g></svg>