<!-- by Tanja Rohlfs (http://tanjarohlfs.de/) - license: CC-BY-NC-SA (see: https://creativecommons.org/licenses/by-nc-sa/4.0/) -->
<svg width="780" height="500" xmlns="http://www.w3.org/2000/svg" xmlns:xlink="http://www.w3.org/1999/xlink"><defs><path id="a" d="M0 .28h24.894v20.33H0z"/><path id="c" d="M.427.147h207.467V74H.427z"/><path id="e" d="M.176.463H33.53v11.108H.176z"/><path id="g" d="M.37.229h.5v137.76h-.5z"/></defs><g fill="none" fill-rule="evenodd"><path fill="#FFF" d="M0 0h780v500H0z"/><g transform="translate(3 389)"><mask id="b" fill="#fff"><use xlink:href="#a"/></mask><path d="M24.893 5.873S22.16-2.796 15.116 1.45c-.489.292-10.198 9.968-12.898 13.952-.33.49-2.841 3.466-2.073 4.19 2.286 2.145 4.412.36 6.384-.437 2.884-1.17 18.528-11.563 18.364-13.282" fill="#E26666" mask="url(#b)"/></g><path d="M60.878 370.075s1.565-8.784-6.52-8.029c-.56.05-13.444 4.454-17.617 6.817-.511.29-4.06 1.848-3.718 2.81 1.018 2.854 3.687 2.184 5.771 2.317 3.052.191 21.444-2.333 22.084-3.915" fill="#E26666"/><path d="M238 427.297s-49.164 13.578-103.791-1.168C79.582 411.382 53 372.704 53 372.704L61.143 369s31.552 29.56 87.223 35.299c55.67 5.738 75.065-10.536 75.065-10.536L238 427.297z" fill="#2B5165"/><path d="M153 429.921c5.391-1.538 6.623-.85 17.598-2.684L190 420l-19.57 12c-8.32-.7-10.358-.653-17.43-2.079" fill="#152F38"/><g transform="translate(20 395)"><mask id="d" fill="#fff"><use xlink:href="#c"/></mask><path d="M207.894 57.146s-45.1 23.392-101.305 15.06C51.244 64.002 1.343 18.197.427 5.931L6.839.147s45.64 50.995 101.351 44.801c55.232-6.14 73.184-20.26 73.184-20.26l26.52 32.458z" fill="#2B5165" mask="url(#d)"/></g><path d="M350.04 328c-42.512 55.21-92.14 31.243-99.312 28.373L241 379.77s59.664 36.792 116.307-45.213c3.479-5.037-7.267-6.558-7.267-6.558" fill="#F1D5C3"/><path d="M306.02 357.094l6.957-1.094L319 376.939 271 392s2.069-34.207 5.009-32.556c2.94 1.65 30.01-2.35 30.01-2.35" fill="#69BAC9"/><path d="M287.192 387L279 385.732l1.956-7.732s9.941.621 9.992.776c.05.156 9.052 4.096 9.052 4.096L287.192 387z" fill="#2B5165"/><path d="M377.4 315.471s-.21.755-.36 1.233c-1.499 4.742-13.052 13.413-15.986 14.512-2.938 1.098-6.816 7.784-6.816 7.784L347 331.389s7.107-6.899 6.61-9.863c-.498-2.966 4.533-7.59 2.287-13.047-2.246-5.453 1.292-3.878 1.292-3.878s3.233 2.59 2.347 6.895c-.29 1.425.114 2.296.295 3.064.304 1.33 2.72.537 3.7-.05 3.52-2.11 2.327-.955 3.664-2.436 1.178-1.304 2.624-3.432 3.2-4.3.004-.007.003-.012.003-.012 1.08-2.351-.436-1.977.32-3.13.393-.596.468-.79 1.237-.497.308.115.554.335.75.628.225-.09.49-.111.793-.042.672.157 1.203.839 1.617 1.693.095.017.187.049.285.091 1.214.53.154 2.547 2.076 4.002 1.222.925-.075 4.964-.075 4.964" fill="#F1D5C3"/><path d="M372 305c-.47.375-.298 2.833-.306 4.188C371.686 310.543 367 315 367 315m8-8.989s-.401-.131-.437.511c-.036.642.559 3.409-.105 4.438S370 316 370 316m7-7s-.785.836-.823 1.526c-.037.69-.179 2.687-.877 3.792S373 317 373 317m-12.544-2c-.332.4 2.191 2.828-1.456 6" stroke="#DF715C"/><path d="M470.71 306.482s-19.746 4.27-24.787 1.033c-4.915-3.155-4.094-.403-4.094-.403s-.197 3.354 4.158 3.634c1.439.093 3.096 1.94 3.388 2.666.603 1.502-.626 2.68-1.503 3.397-.92.753-.11.398-1.942 1.13-2.068.825-7.93 2.74-7.93 2.74s4.117 8.042 9.03 8.313c4.914.272 15.69-6.85 17.719-9.2 2.028-2.35 7.251-1.741 7.251-1.741" fill="#E0B094"/><path d="M441.999 320.878c.047-1.303-1.29-3.774-2.52-3.87-.632-.05-1.214.136-1.426.88-.547 1.913 3.345 5.112 3.345 5.112l.6-2.122z" fill="#E0B094"/><path d="M366.239 359c-45.005 52.287-92.413 24.717-99.453 21.574L256 403.107c2.197-4.784 68.89 35.785 119.992-37.934.327-.471-9.753-6.173-9.753-6.173" fill="#F1D5C3"/><path d="M442.6 322.994c-2.61-.11-3.35-1.388-3.6-1.994l.218.068c.083.12 2.123 2.775 7.598.462l.184.523c-1.796.76-3.248.99-4.4.94m-1.6 1.223c.463.207 2.625.991 7-.216l-.024.46c-2.014.324-4.038.682-6.167.482l-.809-.726zm3 3.204c.418.187 3.377.148 4-.42l-.024.62c-1.06.317-2.082.44-3.16.352a9.09 9.09 0 01-.816-.552" fill="#AA5D48"/><path d="M396.587 347.513c-1.926 4.5-13.05 10.999-16.046 11.78-3.001.781-4.761 5.707-4.761 5.707l-9.78-6.21s12.529-15.743 11.857-21.65c-.659-5.76 1.443-3.83 1.443-3.83s3.09 1.293 1.418 5.3c-.553 1.321.373 3.606.89 4.185 1.079 1.196 2.676.611 3.703.143 1.08-.49.406.08 1.868-1.235.861-.777 2.441-2.341 3.76-3.663-.889-.994-1.6-2.468-1.242-3.354.26-.651.724-1.14 1.53-1.012.936.155 1.677 1.336 2.205 2.579 1.105 1.61 4.793 7.415 3.155 11.26" fill="#F1D5C3"/><path d="M440 282.6s-7.656-.344-10.143 1.54c-2.487 1.89-15.904 6.95-20.667 5.649a5.43 5.43 0 01-1.064-.412s-.005 0-.01-.005c-.252-.062-4.219-1.088-4.332-2.572-.185-2.415-2.44-2.613-2.23-3.925.015-.104.041-.203.077-.291-.493-.812-.781-1.635-.55-2.286.103-.296.262-.5.457-.64-.143-.328-.195-.661-.128-.984.175-.807.375-.765 1.08-.775 1.366-.01.246 1.067 2.774 1.426 1.017-.016 3.597-.078 5.328-.37 1.953-.328.345.057 3.988-1.775 1.017-.51 2.97-2.124 2.024-3.103-.55-.567-1.053-1.384-2.404-1.91-4.065-1.583-4.496-5.721-4.496-5.721s.575-3.847 3.93 1.01c3.356 4.857 9.902 3.113 12.112 5.143 2.21 2.03 11.757-.302 11.757-.302L440 282.6z" fill="#E0B094"/><path d="M752.41 219.104c.403-.224 8.128-1.104 8.128-1.104s3.539 23.434 3.46 27.465c-.035 1.835-3.453-1.499-3.925-3.273-2.712-10.185-4.964-11.084-6.818-13.946-4.263-6.577-1.247-8.918-.844-9.142" fill="#69BAC9"/><g transform="translate(746 183)"><mask id="f" fill="#fff"><use xlink:href="#e"/></mask><path d="M.186 9.197c-.174-.518 1.899-8.043 1.899-8.043S28.359-.108 32.988.78c2.107.403-2.45 3.763-4.595 3.968-12.302 1.177-13.811 3.647-17.496 5.263C2.427 13.723.36 9.713.187 9.197" fill="#69BAC9" mask="url(#f)"/></g><g transform="translate(608 7)"><mask id="h" fill="#fff"><use xlink:href="#g"/></mask><path stroke="#050505" stroke-width="3" mask="url(#h)" d="M.621 137.989V.229"/></g><path d="M647.596 150.002s42.125 48.308 61.936 48.308c19.81 0 38.167-13.91 38.167-13.91L758 192.775s-27.229 23.924-48.454 23.21c-21.226-.713-43.645-7.924-43.645-7.924L636 147l11.596 3.002z" fill="#C7C7C7"/><path d="M662 165s23.03 46.326 28 48l-8.746-1.181s-14.014-21.263-13.617-21.854C668.035 189.375 662 165 662 165" fill="#7B7C7C"/><path d="M590.794 153.946c39.173-27.766 68.436-6.83 76.911 24.759 11.907 44.377 43.075 78.036 84.545 39.936.451-.415 4.099 13.818 4.75 13.325-24.667 18.714-26.976 19.977-40.679 20.943-43.164 3.042-77.728-71.021-83.5-71.41-5.45-.367-8.763-1.14-12.008 3.163-10.881 14.434-35.535-26.807-30.02-30.716" fill="#C7C7C7"/><path d="M436.258 271.119c65.372-16.417 71.766-63.14 73.365-69.685l20.17-2.434s8.866 69.686-89.324 82.96c-6.031.814-4.211-10.841-4.211-10.841" fill="#FF3434"/><path d="M568.047 234.553c2.534 1.044 44.12-35.63 50.101-51.835 5.035-13.64-14.025-35.821-10.918-38.718-29.667 14.547-72.88 32.915-70.176 39.198 11.372 26.426-17.054 43.66-17.054 43.66L547.845 237l20.202-2.447z" fill="#FF3434"/><path d="M533.493 210.916c-.68 2.321-.95 4.747-.696 7.168.306 2.839.577 7.19.385 12.967-.998 9.452-19.507 4.83-20.105 4.742v.084c-.588-.084-12.423.967-12.07-8.45.183-4.91.62-8.564 1.004-10.958.327-2.05.265-4.141-.104-6.155-.442-2.4-.426-5.61 2.547-6.546 3.524-1.108 2.916.293 5.463 3.865 2.027 2.844 11.258 3.016 13.748.057 3.295-3.916 2.676-5.433 7.007-4.35 3.913.983 3.648 4.768 2.821 7.576" fill="#E0B094"/><path d="M270.749 379.933s15.008 3.807 21.115 1.088c4.06-1.809 4.917-3.028 11.692-9.617 4.003-3.894-1.586-14.214-1.586-14.214l-12.582-22.521-3.223-6.669L249 353.167l21.749 26.766z" fill="#F1D5C3"/><path d="M288.839 350.276c.899 1.312 2.148 2.028 2.789 1.6.642-.428.433-1.84-.467-3.152-.899-1.312-2.148-2.028-2.789-1.6-.642.429-.433 1.84.467 3.152m-13 9.654c.899 1.576 2.148 2.435 2.789 1.921.642-.514.433-2.208-.467-3.782-.9-1.574-2.148-2.434-2.79-1.92-.64.514-.431 2.207.468 3.782" fill="#000"/><path d="M286 356s6.548 5.765 5.963 6.955c-.585 1.19-2.077 1.039-2.077 1.039L286 356z" fill="#FF3434"/><path d="M513.26 227.22l-2.246 4.788c-.052.16.044.357.185.381l3.484.606c.223.04.378-.168.293-.396l-1.257-5.454c-.085-.228-.378-.176-.46.075" fill="#DF715C"/><path d="M524.512 218c-.828-.002-1.505 1.34-1.512 2.995-.006 1.656.66 3.003 1.488 3.005.828.002 1.505-1.34 1.512-2.996.007-1.656-.66-3.002-1.488-3.004" fill="#383838"/><path d="M521 224s1 1.903 3 2" stroke="#383838" stroke-width="1.238" stroke-linecap="round"/><path d="M507.489 218c.828-.003 1.505 1.34 1.511 2.995.007 1.656-.66 3.002-1.488 3.005-.828.003-1.505-1.34-1.512-2.996-.006-1.656.661-3.001 1.489-3.004" fill="#383838"/><path d="M510 224s-1 1.902-3 2" stroke="#383838" stroke-width="1.238" stroke-linecap="round"/><path d="M533.286 210.176c-.676 2.31-.944 4.727-.69 7.136.301 2.823.57 7.154.38 12.903-.99 9.403-19.365 4.807-19.957 4.718v.005c-.584-.084-12.33 1.04-11.983-8.33.18-4.887.616-8.522 1-10.907.323-2.039.26-4.12-.107-6.122-.435-2.385-.42-5.581 2.532-6.515 3.494-1.101 2.892.294 5.42 3.845 2.013 2.833 11.177 3.006 13.648.061 3.273-3.896 2.657-5.408 6.957-4.33 3.883.98 3.619 4.745 2.8 7.536m18.694-3.743c-1.36-4.676-2.949-7.662-4.577-9.492-.093-3.313-1.37-7.345-5.577-11.587-8.054-8.12-12.007-2.917-13.756-2.968-1.87-.06.268-5.852-10.742-4.032h-.005c-9.886 1.138-8.474 5.964-10.025 6.393-1.416.388-3.48-2.632-10.145 4.779-6.216 6.911.851 12.404-2.824 15.81-1.384 1.28-1.333 4.57-1.328 5.852.004 4.205 1.666 5.727 2.268 6.124 1.759 1.161 3.888 2.412 3.767 5.646-.106 2.767-3.152 16.016-.773 20.37 4.92 8.993 27.192 13.375 36.027 5.787 5.485-4.723 8.78-9.403 8.215-15.503a6.906 6.906 0 01-1.711-1.48c1.235-.097 4.109-.858 7.992-5.235 5.258-5.927 6.934-7.64 3.194-20.464" fill="#383838"/><path d="M518 240.198c-2.67 3.11-9.167 1.858-8.997-1.198" stroke="#DF715C" stroke-width="1.5"/><path d="M470.75 306.329c68.037-12.816 71.434-65.667 72.178-73.329l25.051 1.926s3.877 71.777-94.21 85.04c-6.026.816-3.019-13.637-3.019-13.637" fill="#FF3434"/><path d="M539 228c0 3.314 1.79 6 4 6s4-2.686 4-6-1.79-6-4-6-4 2.686-4 6" fill="#E0B094"/><path d="M638 190c0 6.075-4.925 11-11 11-6.076 0-11-4.925-11-11s4.924-11 11-11c6.075 0 11 4.925 11 11" fill="#FFF"/><path d="M638 190c0 6.075-4.925 11-11 11-6.076 0-11-4.925-11-11s4.924-11 11-11c6.075 0 11 4.925 11 11zm-11.5 0V33m.5 1L609 8" stroke="#050505" stroke-width="3"/><path d="M584 155s2.337 24.814 24 43m-33-39s2.86 29.774 26 49m-8 8s-19.541-10.362-28-53m19 61s-19.876-11.155-29-56" stroke="#FFF" stroke-width="3"/><path d="M401 279.014c.56-.165 2.53 1.152 3.671 1.802 1.14.651 7.329-.638 7.329-.638m-10 1.978s.09-.313.654-.052c.563.262 2.616 1.862 3.824 1.895 1.207.032 6.522-.607 6.522-.607m-10 2.636s1.006-.11 1.553.108c.548.219 2.147.835 3.32.862 1.172.027 3.127-.24 3.127-.24M417 275c.442-.054 1.023 2.896 5 1.725" stroke="#AA5D48"/><path d="M393.387 340.244c1.174-2.511.377-3.75-.052-4.244l-.044.236c.068.128 1.481 3.18-3.291 7.368l.385.396c1.566-1.375 2.484-2.647 3.002-3.756m2.064-.244c.058.157.067 2.059-3.451 5.762l.587.238a26.428 26.428 0 003.413-4.966l-.549-1.034zm1.256 3c.106.454-1.682 3.416-2.707 3.74l.74.26c.985-.847 1.739-1.806 2.26-2.855l-.293-1.145z" fill="#DF715C"/><path d="M307.868 390.598L309 413.03 255 415s6.03-31.71 10.353-30.988c9.134 1.527 42.515 6.586 42.515 6.586" fill="#69BAC9"/><path d="M204.01 400.556s-15.62 47.525 24.302 51.427c9.786.956 44.918-37.877 44.918-37.877l1.77-28.939L256.457 382l-52.447 18.556z" fill="#69BAC9"/><path d="M281 381.189L279.118 386s-23.712-3.633-23.107-3.672c.606-.04 9.881-3.456 11.566-3.324 1.686.132 13.423 2.185 13.423 2.185" fill="#F1D5C3"/><path d="M262.598 379s.97 3.632 6.149 5.743c5.178 2.111-7.361.925-7.39.925-.03 0-5.357-2.417-5.357-2.417l6.598-4.251z" fill="#69BAC9"/><path d="M268 384c-.382.735-6.265.556-11 4" stroke="#2B5165" stroke-width="2"/><path d="M288 370.82c2.475 1.162 10.595-3.603 11-5.82" stroke="#DF715C" stroke-linecap="round" stroke-linejoin="round"/><path d="M292.754 333.807l-3.815 3.802-6.849-6.49 3.901 8.564-13.06 9.953-7.555-6.99 4.2 9.027-9.22 7.148c.05.052.097.113.14.167.725.864 6.85 3.748 8.41 10.32 3.415 14.383-38.906 38.32-48.13 41.043-15.846 4.677-53.46 7.555-53.772 0-.06-1.493.534-4.75.838-6.859.116-.808 7.004-1.87 7.004-1.87s-6.524-1.795-6.383-2.468c1.093-5.236 2.698-10.65 4.258-14.681.26-.672 6.19-1.64 6.19-1.64s-4.91-1.383-4.666-1.872c.74-1.48 1.42-2.474 1.97-2.786 12.45-7.053 43.96-1.668 54.314-20.292 5.788-10.411 4.814-22.104 19.271-31.208 14.453-9.094 28.96-13.903 37-4.782 8.05 9.119 5.954 11.914 5.954 11.914" fill="#FF3434"/><path d="M259.415 365.001c-.204-.058-7.209 1.911-3.154 7.717 4.056 5.805 7.502 2.362 9.438 1.288 1.935-1.073-6.08-8.947-6.284-9.005" fill="#F1D5C3"/><path d="M268 377.001c-.101-.099 11.709 4.785 13 4.92l-.814 2.079L268 377.001z" fill="#DF715C"/></g></svg>