<?xml version="1.0" encoding="UTF-8"?>
<svg width="250px" height="600px" viewBox="0 0 250 600" version="1.1" xmlns="http://www.w3.org/2000/svg" xmlns:xlink="http://www.w3.org/1999/xlink">
    <!-- Generator: Sketch 62 (91390) - https://sketch.com -->
    <title>martina</title>
    <desc>Created with Sketch.</desc>
    <defs>
        <polygon id="path-1" points="0.411302589 0.59312682 38.076451 0.59312682 38.076451 16.5245902 0.411302589 16.5245902"></polygon>
        <polygon id="path-3" points="0 0.532367213 46.1921391 0.532367213 46.1921391 95.782859 0 95.782859"></polygon>
    </defs>
    <g id="martina" stroke="none" stroke-width="1" fill="none" fill-rule="evenodd">
        <rect fill="#FFFFFF" x="0" y="0" width="250" height="600"></rect>
        <g id="Group-2-Copy" transform="translate(36.000000, 61.000000)">
            <path d="M51.6096855,197.46033 C51.3811145,198.676265 49.7577094,202.362625 49.7577094,202.362625 L48.6038388,207.430166 L45.3198515,206.480002 C45.3198515,206.480002 45.6158923,203.987543 45.5112453,203.808527 C45.3886982,203.588199 45.5635688,203.120002 45.5814689,202.899674 L45.6158923,202.638035 C45.6516925,201.550166 46.6472158,200.751478 47.2943747,199.870166 C47.6785392,199.264265 47.7652861,198.589511 47.8010864,197.928527 C47.8534098,196.88197 47.6785392,195.835412 47.3466982,194.830166 C47.1016039,194.182953 46.4723451,193.604592 46.4723451,192.916068 C46.6127924,192.489183 47.2241511,192.323937 47.7308627,192.337707 C49.3556447,192.365248 50.9639035,193.26033 51.4361918,194.499674 C51.6895477,195.281838 51.8396335,196.244396 51.6096855,197.46033" id="Fill-3" fill="#F1D5C3"></path>
            <path d="M125.483428,197.73395 C125.713376,198.949884 127.335404,202.636245 127.335404,202.636245 L128.489275,207.703786 L131.774639,206.753622 C131.774639,206.753622 131.477222,204.261163 131.581868,204.082147 C131.704416,203.861819 131.529545,203.393622 131.511645,203.173294 L131.477222,202.911655 C131.442798,201.823786 130.445898,201.025097 129.800116,200.143786 C129.414575,199.537884 129.327828,198.86313 129.293404,198.202147 C129.241081,197.155589 129.414575,196.109032 129.747793,195.103786 C129.99151,194.456573 130.620769,193.878212 130.620769,193.189688 C130.481698,192.762802 129.87034,192.597556 129.362251,192.611327 C127.737469,192.638868 126.130587,193.53395 125.658299,194.773294 C125.404943,195.555458 125.254857,196.518015 125.483428,197.73395" id="Fill-5" fill="#F1D5C3"></path>
            <path d="M147.49826,148.345117 C147.49826,148.345117 144.33682,148.748592 143.916855,148.880789 C143.299989,149.073576 144.13028,142.982888 144.13028,142.982888 L148.437329,148.192265 L147.49826,148.345117 Z" id="Fill-17" fill="#2B5165"></path>
            <path d="M153.996975,121.877819 C153.996975,121.877819 156.881652,121.372442 157.261686,121.23336 C157.820721,121.029556 157.392494,126.372507 157.392494,126.372507 L153.140523,122.058212 L153.996975,121.877819 Z" id="Fill-19" fill="#2B5165"></path>
            <path d="M126.865044,166.835032 L88.7253518,166.958966 L50.6255909,167.082901 C50.6255909,167.082901 47.8689692,153.008081 46.5099354,153.020474 C45.1509017,153.032868 42.4727653,167.157261 42.4727653,167.157261 L34.2400775,167.238507 C34.2400775,167.238507 33.48001,156.727491 34.0941225,122.865852 C34.4108173,105.501261 48.4596738,99.4491302 46.2345487,68.5274909 C42.145055,11.7159499 64.5849467,3.0226384 77.1935304,0.779425281 C82.8692519,-0.229951768 93.5294741,-0.264377998 99.2134572,0.707818723 C111.837187,2.86840889 134.332156,11.4143761 130.614435,68.2534581 C130.322525,72.7068351 130.36521,76.6424417 130.652989,80.1676876 C132.363141,101.140147 142.739715,107.648081 143.105979,122.510573 C143.941778,156.366704 143.250557,166.883229 143.250557,166.883229 L135.016492,166.855688 C135.016492,166.855688 132.247478,152.749196 130.889822,152.745065 C129.530788,152.742311 126.865044,166.835032 126.865044,166.835032" id="Fill-21" fill="#FF3434"></path>
            <path d="M126.865044,166.835032 L88.7253518,166.958966 L50.6255909,167.082901 C50.6255909,167.082901 47.8689692,153.008081 46.5099354,153.020474 C45.1509017,153.032868 42.4727653,167.157261 42.4727653,167.157261 L34.2400775,167.238507 C34.2400775,167.238507 33.48001,156.727491 34.0941225,122.865852 C34.4108173,105.501261 48.4596738,99.4491302 46.2345487,68.5274909 C42.145055,11.7159499 64.5849467,3.0226384 77.1935304,0.779425281 C82.8692519,-0.229951768 93.5294741,-0.264377998 99.2134572,0.707818723 C111.837187,2.86840889 134.332156,11.4143761 130.614435,68.2534581 C130.322525,72.7068351 130.36521,76.6424417 130.652989,80.1676876 C132.363141,101.140147 142.739715,107.648081 143.105979,122.510573 C143.941778,156.366704 143.250557,166.883229 143.250557,166.883229 L135.016492,166.855688 C135.016492,166.855688 132.247478,152.749196 130.889822,152.745065 C129.530788,152.742311 126.865044,166.835032 126.865044,166.835032 Z" id="Stroke-23" stroke="#FF3434" stroke-linecap="round" stroke-linejoin="round"></path>
            <path d="M75.6308481,88.4635827 C75.7644107,88.4635827 100.59466,88.387845 100.969186,88.4635827 C101.343712,88.5393204 98.2428565,91.8786646 98.2428565,91.8786646 C98.2428565,91.8786646 84.5051871,93.1841072 84.3179241,93.1097466 C84.130661,93.0340089 75.3100225,89.0157794 75.3100225,89.0157794 L75.6308481,88.4635827 Z" id="Fill-25" fill="#2B5165"></path>
            <path d="M29.0907578,148.252992 C29.0907578,148.252992 32.5565004,148.693648 33.0177733,148.836861 C33.6938478,149.04755 32.8883415,142.740665 32.8883415,142.740665 L28.0608113,148.084992 L29.0907578,148.252992 Z" id="Fill-27" fill="#2B5165"></path>
            <path d="M22.9892883,122.080245 C22.9892883,122.080245 20.1032349,121.574868 19.7232011,121.435786 C19.1655429,121.23336 19.5937693,126.576311 19.5937693,126.576311 L23.8457412,122.260638 L22.9892883,122.080245 Z" id="Fill-29" fill="#2B5165"></path>
            <g id="Group-33" transform="translate(38.554149, 474.412599)">
                <mask id="mask-2" fill="white">
                    <use xlink:href="#path-1"></use>
                </mask>
                <g id="Clip-32"></g>
                <path d="M37.9641329,3.40558033 C38.1899501,4.06380984 38.0054409,16.0427607 38.0054409,16.0427607 C38.0054409,16.0427607 6.37864627,17.0411213 1.05541983,16.163941 C-1.36522996,15.7645967 3.64267862,11.1638754 6.07296695,10.7769246 C20.0240612,8.54610492 21.6089121,5.27148197 25.7190598,2.97456393 C35.1675802,-2.30504262 37.7383158,2.74597377 37.9641329,3.40558033" id="Fill-31" fill="#E26666" mask="url(#mask-2)"></path>
            </g>
            <path d="M102.594656,476.829183 C102.371593,477.488789 102.635964,489.466363 102.635964,489.466363 C102.635964,489.466363 134.269643,490.258166 139.585985,489.345183 C142.005258,488.932068 136.96568,484.365773 134.531261,483.992592 C120.567774,481.852658 118.960892,478.589052 114.836975,476.318297 C105.354032,471.099281 102.814966,476.169576 102.594656,476.829183" id="Fill-34" fill="#E26666"></path>
            <path d="M143.438784,141.935229 C130.901801,123.787097 153.604687,122.421065 153.604687,122.421065 C153.604687,122.421065 166.271102,132.768212 173.243895,151.427229 C181.84147,174.433589 181.278304,207.462114 131.54896,217.813392 L133.208165,202.989458 C141.926911,201.496737 163.853206,190.414245 156.343408,165.28172 C152.708303,153.120999 149.731372,151.043032 143.438784,141.935229" id="Fill-36" fill="#F1D5C3"></path>
            <path d="M59.1209976,38.6087564 C58.987435,38.4435105 52.1936432,36.1796417 52.3134364,43.4036417 C52.4332297,50.6276417 57.1327051,49.6347892 59.299999,49.8110515 C61.467293,49.9845597 59.2559371,38.7726253 59.1209976,38.6087564" id="Fill-38" fill="#F1D5C3"></path>
            <path d="M118.403785,38.4151433 C118.535971,38.2498974 125.314616,35.941963 125.243016,43.165963 C125.170038,50.389963 120.463678,49.4274056 118.296384,49.6174384 C116.131844,49.8060941 118.270222,38.5803892 118.403785,38.4151433" id="Fill-40" fill="#F1D5C3"></path>
            <path d="M88.1515834,76.4722384 C68.6101376,73.1810909 63.8376847,65.4475827 63.5278745,63.0515171 C62.3671193,54.0951892 62.0008549,24.3054843 62.0008549,24.3054843 C70.6658999,21.1547958 83.6655328,16.4273859 87.9987437,14.8520417 C92.3415932,16.399845 105.378403,21.0418777 114.062725,24.1361072 C114.062725,24.1361072 113.889232,53.9271892 112.789062,62.8917794 C112.497152,65.2713204 107.837607,72.9456154 88.6582951,76.4006318 C88.5233556,76.4240417 88.1515834,76.4722384 88.1515834,76.4722384" id="Fill-42" fill="#F1D5C3"></path>
            <path d="M74.4146024,38.6840731 C75.5849962,38.6799499 76.5392114,40.2828351 76.5461335,42.2616548 C76.5529807,44.2404745 75.6084041,45.850245 74.4380103,45.8543796 C73.2676165,45.8571302 72.3120243,44.254245 72.3051157,42.2754253 C72.2996319,40.2966056 73.2442086,38.6882122 74.4146024,38.6840731" id="Fill-44" fill="#000000"></path>
            <path d="M103.500954,38.5891944 C104.671348,38.5850712 105.625563,40.1879564 105.632485,42.1667761 C105.639332,44.1455958 104.694756,45.7553663 103.524362,45.759501 C102.353968,45.7622515 101.398376,44.1593663 101.391454,42.1805466 C101.384607,40.2017269 102.33056,38.5919564 103.500954,38.5891944" id="Fill-46" fill="#000000"></path>
            <path d="M88.271239,55.2819302 C87.7411194,55.1345859 86.6850111,54.8412745 86.5404331,54.1706515 C86.3407776,53.2425204 86.7979197,51.1810777 87.0691757,49.7090122 C87.3555779,48.1625859 88.0578142,45.6935368 88.2560927,44.88934 C88.458502,45.6921597 89.1772615,48.1570777 89.4746792,49.7007499 C89.7555737,51.1728154 90.2251082,53.2287499 90.0309605,54.1596351 C89.8918902,54.8302581 88.8371588,55.1318318 88.3097931,55.2819302 L88.271239,55.2819302 Z" id="Fill-48" fill="#FF3434"></path>
            <path d="M45.1594387,208.995733 C43.6585807,208.472455 42.1164148,207.976717 40.7807889,207.591143 C40.13363,207.329504 39.5002404,206.999012 38.9494668,206.572127 C38.5363866,206.255406 38.1921532,205.81475 38.2334612,205.291471 C38.2609999,204.479012 38.6603107,203.639012 39.362547,203.129504 C39.8031658,202.867865 41.1800997,202.289504 41.7033346,202.206881 C42.7084963,202.509832 43.6172727,202.716389 44.4296637,202.854094 L44.5122797,203.556389 L44.5535878,203.85934 L44.5535878,203.873111 L45.1594387,208.995733 Z" id="Fill-50" fill="#F1D5C3"></path>
            <path d="M39.5689494,207.37054 C39.4037173,207.287917 39.2522546,207.191524 39.1007918,207.09513 C39.1834079,207.012507 39.2935626,206.957425 39.431256,206.984966 C39.7204121,207.08136 39.7479508,207.232835 39.6653347,207.411852 L39.6653347,207.425622 C39.6240267,207.411852 39.596488,207.398081 39.5689494,207.37054" id="Fill-52" fill="#F1D5C3"></path>
            <path d="M45.2010221,209.312455 L43.8929349,208.858029 C44.3197844,208.995733 44.7604032,209.133438 45.1872527,209.284914 L45.2010221,209.312455 Z" id="Fill-54" fill="#F1D5C3"></path>
            <path d="M40.6433709,208.237943 C41.9514581,208.609747 43.6175481,209.133025 45.2423301,209.656304 L45.765565,214.104173 C44.911866,213.773681 44.0443976,213.47073 43.0254665,213.250402 C42.0065354,213.057615 40.932527,212.974992 40.0099813,212.520566 C39.6244398,212.34155 39.390361,211.997288 39.183821,211.653025 C38.8395875,211.047124 38.6468167,210.344829 38.7156634,209.656304 C38.7982795,209.091714 39.0185889,208.540894 39.2802063,208.017615 C39.3215143,207.921222 39.4041304,207.811058 39.4867464,207.700894 C39.8722879,207.907452 40.2715987,208.072697 40.6433709,208.237943" id="Fill-56" fill="#F1D5C3"></path>
            <g id="Group-60" transform="translate(0.000000, 121.888009)">
                <mask id="mask-4" fill="white">
                    <use xlink:href="#path-3"></use>
                </mask>
                <g id="Clip-59"></g>
                <path d="M46.1921391,95.782859 C44.236893,95.3835148 42.3642629,94.9566295 40.5604795,94.4884328 C40.4916328,94.4746623 40.4090167,94.4608918 40.34017,94.4333508 C40.2024767,94.4058098 40.0647833,94.3644984 39.9270899,94.3231869 L39.9133205,94.3231869 C39.6103951,94.2543344 39.3350083,94.1717115 39.0320828,94.0890885 C38.8806201,94.047777 38.7291574,94.0064656 38.5776947,93.9651541 C-3.65286793,82.2051541 -3.94202405,51.4694164 4.04419255,29.6569574 C8.46415035,17.5802361 15.2799731,8.9599082 19.5622376,4.36056393 C20.4021672,3.45171148 21.1594809,2.69433443 21.7653318,2.10220328 C22.8393402,1.06941639 23.4864992,0.532367213 23.4864992,0.532367213 C23.4864992,0.532367213 23.5553459,0.532367213 23.6655006,0.546137705 C24.739509,0.628760656 30.3160913,1.17958033 34.0475821,3.94744918 C37.6826876,6.63269508 39.5828564,11.3972852 33.8685807,19.8523672 C33.8410421,19.8936787 33.8135034,19.9349902 33.7859647,19.9763016 C33.4968086,20.4031869 33.2214218,20.8163016 32.9322657,21.2018754 C32.780803,21.4497443 32.6155709,21.6838426 32.4503388,21.9041705 C31.2661757,23.597941 30.2059366,25.0438426 29.2420828,26.3795803 L29.2283135,26.3795803 C25.8410561,31.0890885 23.5966539,34.6281049 21.0355568,43.3999082 C14.5364288,65.7218754 31.0734049,76.8622033 41.0010983,80.1120393 C40.946021,80.0982689 40.8909436,80.0982689 40.8220969,80.1120393 C40.2437847,80.2222033 39.6654724,80.3599082 39.1284682,80.607777 C38.0406904,81.2687607 37.4073008,82.5907279 37.5725329,83.7887607 C37.7239956,84.5185967 38.2609999,85.0556459 38.9081588,85.4825311 C38.6878494,85.7717115 38.5226173,86.0884328 38.3986932,86.4189246 C37.9580744,87.3966295 37.8754584,88.5258098 38.3160772,89.5310557 L38.3573852,89.6412197 C38.5776947,90.0818754 38.8255428,90.5363016 39.1973149,90.8805639 C39.2799309,90.7841705 39.3763163,90.7015475 39.486471,90.7015475 C39.5140097,90.687777 39.5415484,90.687777 39.5690871,90.687777 C39.5828564,90.687777 39.5828564,90.687777 39.5966257,90.7015475 C39.6103951,90.687777 39.6103951,90.687777 39.6241644,90.6740066 L42.5294949,91.6104 L42.5432643,91.6104 C42.8186511,91.665482 43.0802685,91.7067934 43.2868086,91.7618754 C44.1129689,91.9546623 44.9528986,92.1749902 45.7928283,92.422859 L45.8203669,92.6707279 L45.8341363,92.7808918 L46.1921391,95.782859 Z" id="Fill-58" fill="#F1D5C3" mask="url(#mask-4)"></path>
            </g>
            <polygon id="Fill-61" fill="#F1D5C3" points="88.0527195 75.7762777 79.544645 73.8938515 79.3257125 93.2937204 88.1367125 95.3579171 88.3928222 95.35654 97.187299 93.2345072 96.8403117 73.8373925 88.3473834 75.7749007"></polygon>
            <path d="M88.6947838,197.087701 C88.6947838,197.087701 51.9650722,197.712881 51.7227318,193.832356 C50.8056938,179.165406 56.9000032,135.307766 56.9000032,135.307766 C56.9000032,135.307766 32.159255,153.353996 32.8477219,148.016553 C33.6876516,141.525143 24.9248443,125.897012 19.619518,121.993078 C16.8367346,119.946783 70.8208049,83.5197007 77.7454055,89.0416679 C81.1753478,91.7751105 88.3519273,92.2336679 88.3519273,92.2336679 C88.3519273,92.2336679 95.5285068,91.7282909 98.9405489,88.9714384 C105.827972,83.4054056 160.048875,119.479963 157.278484,121.54416 C151.99932,125.481143 143.445806,141.471438 144.327044,147.95734 C145.051311,153.289274 120.0875,135.101209 120.0875,135.101209 C120.0875,135.101209 125.24274,178.688947 124.422088,193.361406 C124.204532,197.243307 88.6947838,197.087701 88.6947838,197.087701" id="Fill-63" fill="#69BAC9"></path>
            <path d="M124.911312,191.094094 C123.09789,191.693111 47.1420858,187.706553 50.8184993,194.288848 C42.2952785,240.846881 44.1679086,288.630488 44.5259114,335.753111 C46.3021561,383.288848 47.9820155,432.642291 62.7565162,477.892127 L63.2246737,478.002291 L75.4931547,478.181307 C76.2917764,478.112455 76.7874726,477.534094 76.7461646,476.735406 C70.2057286,403.090815 72.8494416,328.027865 88.9044909,255.719012 C105.606699,328.110488 108.360567,403.311143 102.536136,477.203602 C102.439751,479.186553 115.148851,477.299996 116.00255,477.795733 C134.467233,422.576061 133.062761,360.37475 133.957768,302.029176 C132.484449,265.496061 135.458626,225.69934 124.911312,191.094094" id="Fill-65" fill="#2B5165"></path>
            <path d="M48.0476952,220.398802 C49.2772972,221.545884 50.4229062,223.267196 50.8359864,224.794343 C50.9488949,225.214343 50.780909,227.008638 49.9134406,226.605163 C48.9674871,226.164507 48.3051819,225.003655 47.3895208,224.432179 C46.6266994,223.958474 45.8625011,223.493032 45.0652564,223.067524 C44.4979596,222.76595 43.907255,222.504311 43.3413352,222.202737 C41.3695658,221.150671 35.8769765,218.165229 38.8800693,215.548835 L48.0476952,220.398802 Z" id="Fill-67" fill="#F1D5C3"></path>
            <path d="M54.0819703,223.16557 C53.297118,224.129504 50.7910983,222.119012 49.8960913,221.554422 C49.2902404,221.182619 48.6843895,220.797045 48.0785385,220.425242 C48.0234612,220.397701 47.9683838,220.356389 47.9133065,220.328848 C47.8031518,220.259996 47.692997,220.191143 47.569073,220.10852 C47.4313796,220.025897 47.2799169,219.943274 47.1284541,219.846881 C46.0819844,219.227209 45.0079759,218.621307 43.8513515,218.084258 C43.5346567,217.932783 43.1904232,217.795078 42.8324204,217.643602 C41.8547973,217.244258 40.7945582,216.817373 39.9270899,216.211471 L39.9133205,216.211471 C39.7343191,216.087537 39.5690871,215.963602 39.4176243,215.839668 C39.1560069,215.61934 38.9356975,215.371471 38.7429267,215.109832 C38.4124626,214.655406 38.8806201,213.526225 39.3487776,212.879012 C39.4176243,212.782619 39.486471,212.699996 39.5553177,212.631143 C39.5690871,212.617373 39.5828564,212.603602 39.5966257,212.589832 C39.6103951,212.576061 39.6103951,212.576061 39.6241644,212.562291 L42.5294949,213.498684 L42.5432643,213.498684 L45.8203669,214.559012 L47.6792277,215.151143 L50.1714781,215.949832 C50.1852474,215.963602 50.1990167,215.963602 50.2127861,215.977373 L51.0527158,216.239012 C51.1353318,216.307865 51.2730252,216.45934 51.4657959,216.665897 L51.4657959,216.679668 C51.4795653,216.679668 51.4795653,216.693438 51.4933346,216.693438 C52.6499591,218.001635 55.4038269,221.540652 54.0819703,223.16557" id="Fill-69" fill="#F1D5C3"></path>
            <path d="M39.6657478,207.42576 C39.6244398,207.411989 39.5969011,207.398219 39.5693624,207.370678 L39.6657478,207.411989 L39.6657478,207.42576 Z" id="Fill-71" fill="#F1D5C3"></path>
            <path d="M39.6241644,212.562015 L42.5294949,213.498409 C41.6620266,213.346933 40.5742488,213.181688 39.8582432,212.809884 L39.8444738,212.809884 C39.7343191,212.754802 39.6379338,212.69972 39.5553177,212.630868 C39.527779,212.617097 39.5140097,212.603327 39.486471,212.589556 C39.5140097,212.575786 39.5415484,212.575786 39.5690871,212.575786 C39.5828564,212.575786 39.5828564,212.575786 39.5966257,212.589556 C39.6103951,212.575786 39.6103951,212.575786 39.6241644,212.562015" id="Fill-73" fill="#F1D5C3"></path>
            <path d="M54.9082684,216.693163 C54.0408,218.166606 52.416018,217.271524 51.4934723,216.693163 C51.479703,216.693163 51.479703,216.679392 51.4659336,216.679392 L51.4659336,216.665622 C51.2180855,216.514147 51.0253148,216.390212 50.9151601,216.32136 C50.6810813,216.197425 50.4470025,216.087261 50.2129238,215.977097 C50.1991544,215.963327 50.1853851,215.963327 50.1716158,215.949556 C49.3867634,215.591524 48.5606031,215.247261 47.7069041,214.944311 C47.0735145,214.723983 46.4401249,214.503655 45.792966,214.310868 L45.7654273,214.104311 C44.9117283,213.773819 44.0442599,213.470868 43.0253288,213.25054 C42.0063977,213.057753 40.9323893,212.97513 40.0098436,212.520704 C39.6243021,212.341688 39.3902233,211.997425 39.1836833,211.653163 C38.8394498,211.047261 38.646679,210.344966 38.7155257,209.656442 C38.7981418,209.091852 39.0184512,208.541032 39.2800686,208.017753 C39.3213767,207.92136 39.4039927,207.811196 39.4866087,207.701032 C39.8721502,207.907589 40.271461,208.072835 40.6432332,208.238081 C41.9513204,208.609884 43.6174104,209.133163 45.2421924,209.656442 L45.2008844,209.312179 L48.2852163,210.386278 L50.8600827,211.267589 C50.873852,211.28136 50.8876214,211.28136 50.8876214,211.28136 C52.3058633,211.914802 55.7757367,215.20595 54.9082684,216.693163" id="Fill-75" fill="#F1D5C3"></path>
            <path d="M39.5689494,207.37054 C39.4037173,207.287917 39.2522546,207.191524 39.1007918,207.09513 C39.1834079,207.012507 39.2935626,206.957425 39.431256,206.984966 C39.7204121,207.08136 39.7479508,207.232835 39.6653347,207.411852 L39.6653347,207.425622 C39.6240267,207.411852 39.596488,207.398081 39.5689494,207.37054" id="Fill-77" fill="#E5B79E"></path>
            <path d="M39.6657478,207.412265 L39.6657478,207.426035 C39.6244398,207.412265 39.5969011,207.398494 39.5693624,207.370953 C39.4041304,207.28833 39.2526677,207.191937 39.1012049,207.095543 C39.183821,207.01292 39.2939757,206.957838 39.4316691,206.985379 C39.7208252,207.081773 39.7483639,207.233248 39.6657478,207.412265" id="Fill-79" fill="#F1D5C3"></path>
            <path d="M48.6017734,201.586658 L48.6843895,201.517806 C48.7119281,201.572888 48.6706201,201.586658 48.6017734,201.586658" id="Fill-81" fill="#F1D5C3"></path>
            <path d="M55.6383187,212.521117 C55.2803159,212.796527 52.6090641,211.873904 51.4524397,211.460789 C51.2734383,211.405707 51.0944368,211.336855 50.9154354,211.281773 L50.9154354,211.268002 C50.0465902,210.965052 49.1804987,210.662101 48.2854917,210.345379 C47.2665606,209.987347 46.2200909,209.615543 45.1873904,209.285052 L45.1598518,208.995871 C43.6589938,208.472592 42.1168278,207.976855 40.781202,207.591281 C40.134043,207.329642 39.5006534,206.99915 38.9498799,206.572265 C38.5367997,206.255543 38.1925662,205.814888 38.2338743,205.291609 C38.2614129,204.47915 38.6607238,203.63915 39.3629601,203.129642 C39.8035789,202.868002 41.1805128,202.289642 41.7037477,202.207019 L41.6899783,202.193248 C43.0256042,202.041773 44.4576155,202.014232 45.5867013,201.890297 C45.655548,201.876527 45.738164,201.876527 45.8070107,201.876527 C46.7020177,201.780133 47.48687,201.807674 48.3681077,201.573576 C48.4231851,201.546035 48.5333398,201.573576 48.6021865,201.587347 L45.6693173,204.066035 C45.7243947,204.231281 45.8483187,204.382756 46.0273201,204.520461 C46.1374748,204.630625 46.2600219,204.713248 46.4128616,204.795871 C47.0875592,205.236527 48.0651823,205.553248 48.5884172,205.677183 C48.6848025,205.704724 48.7949572,205.732265 48.9188813,205.759806 C48.9326506,205.773576 48.9601893,205.773576 48.9739586,205.773576 C52.0307519,206.654888 58.73642,210.152592 55.6383187,212.521117" id="Fill-83" fill="#F1D5C3"></path>
            <path d="M39.6657478,207.412265 L39.6657478,207.426035 C39.6244398,207.412265 39.5969011,207.398494 39.5693624,207.370953 C39.4041304,207.28833 39.2526677,207.191937 39.1012049,207.095543 C39.183821,207.01292 39.2939757,206.957838 39.4316691,206.985379 C39.7208252,207.081773 39.7483639,207.233248 39.6657478,207.412265" id="Fill-85" fill="#E5B79E"></path>
            <path d="M47.7069041,220.218547 C47.8032895,220.287399 47.8859055,220.342481 47.9685215,220.425104 C47.9272135,220.425104 47.6655961,220.328711 47.2525159,220.108383 C47.1974385,220.080842 47.1561305,220.067071 47.1148225,220.03953 C45.3248084,219.130678 44.9668056,219.020514 44.2370307,218.676252 C42.4745553,217.850022 40.4504624,217.326743 39.0322205,215.977235 C38.9220658,215.894612 38.8256805,215.798219 38.7292951,215.688055 C38.564063,215.495268 38.3712923,215.288711 38.3162149,215.040842 C38.2335989,214.682809 38.3162149,214.311006 38.440139,213.980514 C38.5778323,213.608711 38.7843724,213.264448 39.0322205,212.947727 C39.0872979,212.892645 39.1423752,212.823792 39.1974526,212.768711 C38.8256805,212.424448 38.5778323,211.970022 38.3575229,211.529366 L38.3162149,211.419202 C37.8755961,210.413956 37.9582121,209.284776 38.3988309,208.307071 C38.522755,207.976579 38.6879871,207.659858 38.9082965,207.370678 C38.2611376,206.943792 37.7241333,206.406743 37.5726706,205.676907 C37.4074385,204.478874 38.0408281,203.156907 39.1286059,202.495924 C39.6656101,202.248055 40.2439224,202.11035 40.8222346,202.000186 C40.8910813,201.986415 40.9461586,201.986415 41.001236,202.000186 C41.042544,202.013956 41.0700827,202.027727 41.0976214,202.027727 C41.1802374,202.041497 41.2490841,202.069038 41.3041615,202.082809 C41.4280855,202.12412 41.5520096,202.165432 41.6621643,202.192973 L41.689703,202.192973 L41.7034723,202.206743 C41.1802374,202.289366 39.8033035,202.867727 39.3626847,203.129366 C38.6604484,203.638874 38.2611376,204.478874 38.2335989,205.291333 C38.1922909,205.814612 38.5365243,206.255268 38.9496045,206.571989 C39.5003781,206.998874 40.1337677,207.329366 40.7809266,207.591006 C42.1165525,207.976579 43.6587184,208.472317 45.1595764,208.995596 C46.2886622,209.39494 47.3902093,209.794284 48.312755,210.152317 C49.7860743,210.716907 50.832544,211.157563 50.9151601,211.267727 L50.9151601,211.281497 L50.8876214,211.281497 C50.8876214,211.281497 50.873852,211.281497 50.8600827,211.267727 C50.2817705,211.171333 49.3592248,210.923465 48.2576776,210.606743 C47.3489013,210.331333 46.3024315,210.000842 45.2421924,209.656579 C43.6174104,209.133301 41.9513204,208.610022 40.6432332,208.238219 C40.271461,208.072973 39.8721502,207.907727 39.4866087,207.70117 C39.4039927,207.811333 39.3213767,207.921497 39.2800686,208.017891 C39.0184512,208.54117 38.7981418,209.091989 38.7155257,209.656579 C38.646679,210.345104 38.8394498,211.047399 39.1836833,211.653301 C39.3902233,211.997563 39.6243021,212.341825 40.0098436,212.520842 C40.9323893,212.975268 42.0063977,213.057891 43.0253288,213.250678 C44.0442599,213.471006 44.9117283,213.773956 45.7654273,214.104448 C46.3850475,214.338547 47.0046678,214.600186 47.7069041,214.875596 C47.8032895,214.916907 47.9134442,214.958219 48.0235989,214.99953 C48.9323752,215.357563 49.207762,215.495268 50.0752304,215.894612 C50.1027691,215.908383 50.1440771,215.935924 50.1716158,215.949694 C50.1853851,215.963465 50.1991544,215.963465 50.2129238,215.977235 C50.5433879,216.170022 50.9840068,216.445432 51.3695482,216.638219 C50.9564681,216.500514 49.3179167,215.867071 47.6655961,215.288711 C47.0322065,215.054612 46.4125862,214.848055 45.834274,214.669038 C45.6828113,214.613956 45.5451179,214.572645 45.4074245,214.531333 C44.0442599,214.118219 42.626018,213.842809 41.2215454,213.59494 C40.7258492,213.484776 40.2163837,213.360842 39.7619955,213.126743 C39.6243021,213.278219 39.5003781,213.415924 39.4039927,213.58117 C39.1699139,213.966743 38.9220658,214.407399 38.9771432,214.875596 C39.0184512,215.040842 39.1699139,215.164776 39.2800686,215.302481 C39.6243021,215.688055 40.0786903,216.046088 40.5606172,216.376579 C40.7396186,216.500514 40.9323893,216.624448 41.1251601,216.734612 C41.1389294,216.748383 41.1526987,216.748383 41.1664681,216.762153 C41.4418549,216.927399 41.731011,217.078874 42.0201671,217.216579 C42.0477058,217.216579 42.0614751,217.23035 42.0890138,217.24412 C42.1991685,217.299202 42.3230925,217.354284 42.4332473,217.395596 C43.397101,217.78117 45.6277339,218.841497 47.1285918,219.819202 C47.2800546,219.915596 47.4315173,220.011989 47.5692107,220.108383 C47.6105187,220.149694 47.6518267,220.177235 47.6931347,220.204776 C47.7069041,220.204776 47.7069041,220.218547 47.7069041,220.218547" id="Fill-87" fill="#E5B79E"></path>
            <g id="Group-92" transform="translate(59.208158, 14.478173)">
                <path d="M29.3576076,15.8487344 C28.7393643,15.8501115 15.727339,15.9230951 15.727339,15.9230951 C15.727339,15.9230951 14.7786315,5.02788197 14.2044501,5.03201311 C13.6302686,5.03614426 12.2781195,15.9465049 12.2781195,15.9465049 L0.860583685,15.8583738 C0.860583685,15.8583738 0.811014065,10.3584393 0.787606188,5.37214426 L0.771082982,0.381718033 L29.3052841,0.0278163934 L29.3052841,0.0291934426 L57.8422391,0.197193443 L57.8587623,5.18899672 C57.8684008,10.1739148 57.8532546,15.6738492 57.8532546,15.6738492 L46.4370956,15.837718 C46.4370956,15.837718 45.013346,4.93561967 44.4391646,4.93561967 C43.8649831,4.93561967 42.9878762,15.8349639 42.9878762,15.8349639 C42.9878762,15.8349639 29.9758509,15.8487344 29.3576076,15.8501115" id="Fill-89" fill="#FF3434"></path>
                <path d="M29.3576076,15.8487344 C28.7393643,15.8501115 15.727339,15.9230951 15.727339,15.9230951 C15.727339,15.9230951 14.7786315,5.02788197 14.2044501,5.03201311 C13.6302686,5.03614426 12.2781195,15.9465049 12.2781195,15.9465049 L0.860583685,15.8583738 C0.860583685,15.8583738 0.811014065,10.3584393 0.787606188,5.37214426 L0.771082982,0.381718033 L29.3052841,0.0278163934 L29.3052841,0.0291934426 L57.8422391,0.197193443 L57.8587623,5.18899672 C57.8684008,10.1739148 57.8532546,15.6738492 57.8532546,15.6738492 L46.4370956,15.837718 C46.4370956,15.837718 45.013346,4.93561967 44.4391646,4.93561967 C43.8649831,4.93561967 42.9878762,15.8349639 42.9878762,15.8349639 C42.9878762,15.8349639 29.9758509,15.8487344 29.3576076,15.8501115" id="Stroke-91" stroke="#FF3434" stroke-linecap="round" stroke-linejoin="round"></path>
            </g>
            <path d="M78.0188646,60.190422 C80.8112865,63.2653728 96.3637549,62.6195368 98.6122879,60.1105531" id="Stroke-93" stroke="#DF715C" stroke-width="0.5" stroke-linecap="round" stroke-linejoin="round"></path>
            <path d="M79.3918053,77.813622 C79.3890515,78.4773597 79.3945592,78.8147368 79.3945592,78.8147368 L96.8995198,77.1306056 L96.8513271,74.4384745 L79.5377603,74.4935564" id="Fill-95" fill="#DF715C"></path>
            <path d="M49.1362992,140.706763 C49.3634932,140.487812 57.6815509,123.45096 57.6815509,123.45096 L56.8994525,135.316992 C56.8994525,135.316992 48.9091051,140.925714 49.1362992,140.706763" id="Fill-97" fill="#2B5165"></path>
            <path d="M127.858088,140.505714 C127.630894,140.286763 119.312837,123.249911 119.312837,123.249911 L120.094935,135.115943 C120.094935,135.115943 128.085283,140.724665 127.858088,140.505714" id="Fill-99" fill="#2B5165"></path>
            <path d="M129.214231,220.398802 C127.984629,221.545884 126.83902,223.267196 126.42594,224.794343 C126.313031,225.214343 126.47964,227.008638 127.348485,226.605163 C128.294439,226.164507 128.956744,225.003655 129.872405,224.432179 C130.635226,223.958474 131.399425,223.493032 132.196669,223.067524 C132.763966,222.76595 133.354671,222.504311 133.920591,222.202737 C135.89236,221.150671 141.384949,218.165229 138.381857,215.548835 L129.214231,220.398802 Z" id="Fill-101" fill="#F1D5C3"></path>
            <path d="M137.643269,212.556645 C138.160996,213.048252 138.915556,214.557497 138.518999,215.113825 C137.413321,216.660252 135.057387,217.318481 133.406444,218.088252 C131.248788,219.096252 129.347242,220.325956 127.365835,221.559792 C126.468074,222.11612 123.966185,224.123858 123.185463,223.165432 C121.639167,221.270612 125.628144,216.775924 126.210587,216.233366 L137.643269,212.556645 Z" id="Fill-103" fill="#F1D5C3"></path>
            <path d="M137.89332,207.301963 C138.227915,207.684783 138.532218,208.265897 138.799343,209.184389 C139.094007,210.192389 138.741512,211.48957 137.952529,212.412192 C137.246161,213.238422 135.076114,213.391274 133.97319,213.646029 C131.368031,214.250553 128.61554,215.148389 126.344976,216.327143 C125.776302,216.620455 123.458922,218.562094 122.357375,216.694815 C121.480268,215.208979 124.951519,211.921963 126.378022,211.278881 L137.89332,207.301963 Z" id="Fill-105" fill="#F1D5C3"></path>
            <path d="M129.530237,201.758789 C129.472406,201.895117 129.775331,201.658265 129.886863,201.68856 C130.83557,201.948822 130.702008,201.783576 131.672746,201.886855 C133.460006,202.079642 136.014219,202.053478 137.699586,202.652494 C138.824541,203.053215 139.667224,204.814461 139.278929,205.896822 C138.908534,206.932363 136.914733,207.85774 135.893049,208.129019 C132.562245,209.013084 129.057949,210.326789 125.809762,211.461478 C124.65176,211.867707 121.981885,212.798592 121.623883,212.523183 C118.393596,210.043117 125.845562,206.334724 128.679292,205.677871 C129.473783,205.493347 131.324382,204.837871 131.599769,204.068101 L129.530237,201.758789 Z" id="Fill-107" fill="#F1D5C3"></path>
            <path d="M129.932302,204.94597 C129.958463,204.93633 130.104418,204.947347 130.410098,204.908789 C130.869994,204.850953 131.105449,204.722888 131.43729,204.341445 C131.628684,204.141773 131.924725,203.771347 131.942625,204.038494 C131.858632,204.256068 131.656223,204.448855 131.342282,204.79174 C131.028341,205.134625 130.119565,205.178691 129.976364,205.251674 C129.95571,205.111215 129.946071,205.056133 129.932302,204.94597" id="Fill-109" fill="#E5B79E"></path>
            <path d="M138.901236,211.529229 C138.708465,211.956114 138.446848,212.39677 138.102614,212.727261 C138.130153,212.768573 138.171461,212.823655 138.212769,212.864966 C138.460617,213.181688 138.680927,213.53972 138.81862,213.911524 C138.942544,214.255786 139.038929,214.627589 138.942544,214.985622 C138.887467,215.233491 138.694696,215.440048 138.529464,215.632835 C137.083683,217.202671 134.880589,217.767261 132.966651,218.662343 C132.209337,219.020376 131.851334,219.11677 129.909858,220.108245 C129.496777,220.328573 129.23516,220.424966 129.193852,220.424966 C130.543247,219.309556 133.600041,217.836114 134.797973,217.367917 C135.885751,216.89972 137.180069,216.114802 137.97869,215.247261 C138.088845,215.109556 138.240308,214.985622 138.281616,214.820376 C138.336693,214.352179 138.088845,213.897753 137.854766,213.512179 C137.758381,213.374474 137.648226,213.23677 137.538071,213.112835 C137.069914,213.346933 136.546679,213.470868 136.037214,213.594802 C134.632741,213.842671 133.228268,214.118081 131.851334,214.531196 C129.813472,215.150868 126.632755,216.390212 125.930519,216.624311 C126.357368,216.403983 126.880603,216.087261 127.183529,215.894474 C128.050997,215.49513 128.340153,215.357425 129.248929,214.999392 C131.038943,214.310868 132.3608,213.663655 134.247199,213.25054 C135.252361,213.057753 136.32637,212.97513 137.248915,212.520704 C137.634457,212.341688 137.868536,211.997425 138.075076,211.653163 C138.419309,211.047261 138.61208,210.344966 138.543233,209.656442 C138.460617,209.091852 138.240308,208.541032 137.97869,208.017753 C137.937382,207.92136 137.854766,207.811196 137.77215,207.701032 C137.386609,207.907589 136.987298,208.072835 136.615526,208.238081 C133.434808,209.146933 128.106074,211.01972 126.343599,211.28136 C126.357368,211.061032 132.470955,208.733819 136.477832,207.590868 C137.138761,207.329229 137.77215,206.998737 138.309154,206.571852 C138.722235,206.25513 139.066468,205.814474 139.02516,205.291196 C138.997621,204.478737 138.598311,203.638737 137.909844,203.129229 C137.455455,202.867589 136.078522,202.289229 135.569056,202.206606 C135.720519,202.151524 135.871981,202.096442 135.954597,202.082671 C136.064752,202.05513 136.257523,201.958737 136.436524,202.000048 C137.028606,202.110212 137.593149,202.247917 138.130153,202.495786 C139.217931,203.15677 139.85132,204.478737 139.686088,205.67677 C139.534626,206.406606 139.011391,206.943655 138.364232,207.35677 C138.570772,207.64595 138.722235,207.976442 138.859928,208.306933 C139.314316,209.284638 139.383163,210.413819 138.942544,211.419065 L138.901236,211.529229 Z" id="Fill-111" fill="#E5B79E"></path>
            <path d="M46.4442557,204.557366 C46.416717,204.547727 46.272139,204.558743 45.9650827,204.520186 C45.5065637,204.46235 45.2697311,204.334284 44.9392669,203.952842 C44.7478731,203.75317 44.4518323,203.382743 44.4339322,203.649891 C44.5179252,203.867465 44.7203345,204.060252 45.0342754,204.403137 C45.3482163,204.746022 46.2569927,204.790088 46.4001938,204.863071 C46.4208478,204.722612 46.4304864,204.66753 46.4442557,204.557366" id="Fill-394" fill="#E5B79E"></path>
        </g>
    </g>
</svg>