<?xml version="1.0" encoding="UTF-8"?>
<svg width="500px" height="780px" viewBox="0 0 500 780" version="1.1" xmlns="http://www.w3.org/2000/svg" xmlns:xlink="http://www.w3.org/1999/xlink">
    <!-- Generator: Sketch 62 (91390) - https://sketch.com -->
    <title>privacy-by-design</title>
    <desc>Created with Sketch.</desc>
    <defs>
        <polygon id="path-1" points="0.301070336 0.235595156 38.5588685 0.235595156 38.5588685 29.0222418 0.301070336 29.0222418"></polygon>
    </defs>
    <g id="privacy-by-design" stroke="none" stroke-width="1" fill="none" fill-rule="evenodd">
        <rect fill="#FFFFFF" x="0" y="0" width="500" height="780"></rect>
        <g id="Group-210" transform="translate(-12.000000, 16.000000)">
            <line x1="340" y1="341" x2="417" y2="479" id="Stroke-1" stroke="#FF3434" stroke-width="4" stroke-linecap="round"></line>
            <g id="Group-209">
                <path d="M310.436927,394.239104 C310.099006,394.525509 309.631116,394.659929 309.160168,394.548422 C258.137232,382.359012 239.114297,407.684878 233.40711,448.647709 C233.299312,449.41833 232.657875,449.855193 232.004969,449.878541 C231.467508,449.898727 230.928517,449.63447 230.692278,449.050967 C199.38341,371.189206 208.810015,305.267872 298.146407,262.764562 C295.993502,267.453971 252.090596,326.328971 310.436927,394.239104" id="Fill-2" fill="#FFFFFF"></path>
                <path d="M310.436927,394.239104 C310.099006,394.525509 309.631116,394.659929 309.160168,394.548422 C258.137232,382.359012 239.114297,407.684878 233.40711,448.647709 C233.299312,449.41833 232.657875,449.855193 232.004969,449.878541 C231.467508,449.898727 230.928517,449.63447 230.692278,449.050967 C199.38341,371.189206 208.810015,305.267872 298.146407,262.764562 C295.993502,267.453971 252.090596,326.328971 310.436927,394.239104 Z" id="Stroke-4" stroke="#FF3434" stroke-width="3"></path>
                <path d="M397.312156,350.313544 C396.932187,350.359369 396.541514,350.266955 396.226529,350.002699 C379.925306,336.033758 360.959709,332.856568 341.119495,340.343585 C340.210474,340.687271 339.28922,341.054633 338.37867,341.444145 L338.420719,341.523574 C318.734174,352.975967 309.12026,370.685743 310.937538,393.073473 C310.971942,393.539358 310.768578,393.960947 310.436774,394.238951 C253.28922,327.719603 294.23341,269.874898 297.965061,263.121079 C298.020107,263.021029 298.117966,262.837729 298.146254,262.764409 C298.179128,262.775102 298.56445,262.86446 298.595795,262.867515 C306.280046,263.874898 376.981881,265.187016 397.312156,350.313544" id="Fill-6" fill="#EDEDED"></path>
                <path d="M397.312156,350.313544 C396.932187,350.359369 396.541514,350.266955 396.226529,350.002699 C379.925306,336.033758 360.959709,332.856568 341.119495,340.343585 C340.210474,340.687271 339.28922,341.054633 338.37867,341.444145 L338.420719,341.523574 C318.734174,352.975967 309.12026,370.685743 310.937538,393.073473 C310.971942,393.539358 310.768578,393.960947 310.436774,394.238951 C253.28922,327.719603 294.23341,269.874898 297.965061,263.121079 C298.020107,263.021029 298.117966,262.837729 298.146254,262.764409 C298.179128,262.775102 298.56445,262.86446 298.595795,262.867515 C306.280046,263.874898 376.981881,265.187016 397.312156,350.313544 Z" id="Stroke-8" stroke="#FF3434" stroke-width="3" stroke-linecap="round" stroke-linejoin="round"></path>
                <path d="M397.312156,350.313544 C396.932187,350.359369 396.541514,350.266955 396.226529,350.002699 C379.925306,336.033758 360.959709,332.856568 341.119495,340.343585 C340.210474,340.687271 339.28922,341.054633 338.37867,341.444145 L338.420719,341.523574 C318.734174,352.975967 309.12026,370.685743 310.937538,393.073473 C310.971942,393.539358 310.768578,393.960947 310.436774,394.238951 C253.28922,327.719603 294.23341,269.874898 297.965061,263.121079 C298.020107,263.021029 298.117966,262.837729 298.146254,262.764409 C298.179128,262.775102 298.56445,262.86446 298.595795,262.867515 C306.280046,263.874898 376.981881,265.187016 397.312156,350.313544 Z" id="Stroke-10" stroke="#FF3434" stroke-width="3" stroke-linecap="round" stroke-linejoin="round"></path>
                <path d="M489.280734,320.367388 C488.861009,320.788213 488.193578,320.982205 487.559021,320.639282 C450.873242,301.022429 419.046024,301.310362 398.832722,349.376044 C398.624771,349.875535 398.16682,350.18638 397.6737,350.248243 C376.917584,263.352877 303.26315,263.799669 298.16682,262.746461 C385.481804,216.283885 444.65841,247.653284 489.48792,318.703182 C489.856422,319.299669 489.693111,319.947327 489.280734,320.367388" id="Fill-12" fill="#FFFFFF"></path>
                <path d="M489.280734,320.367388 C488.861009,320.788213 488.193578,320.982205 487.559021,320.639282 C450.873242,301.022429 419.046024,301.310362 398.832722,349.376044 C398.624771,349.875535 398.16682,350.18638 397.6737,350.248243 C376.917584,263.352877 303.26315,263.799669 298.16682,262.746461 C385.481804,216.283885 444.65841,247.653284 489.48792,318.703182 C489.856422,319.299669 489.693111,319.947327 489.280734,320.367388 Z" id="Stroke-14" stroke="#FF3434" stroke-width="3"></path>
                <path d="M371.066667,388.248422 C371.066667,388.248422 389.46422,440.524644 383.264679,441.96278 C382.107951,442.231619 363.356422,440.746894 363.356422,440.746894 L352.505505,396.927648 L371.066667,388.248422 Z" id="Fill-16" fill="#D33434"></path>
                <path d="M429.351376,502.771818 C422.132722,509.128488 416.120489,512.247632 403.422477,510.081645 C388.730581,507.576553 395.412538,481.098192 385.914832,472.162347 C376.416361,463.226502 366.82844,470.375178 358.381957,469.532001 C356.540214,488.062805 379.459939,516.230575 398.880428,522.25196 C407.86208,525.03582 414.271865,523.18526 430.247401,514.359394" id="Fill-18" fill="#F1D5C3"></path>
                <polygon id="Fill-23" fill="#FFFFFF" points="389.521713 419.712755 389.525535 419.724975 389.521713 419.704353"></polygon>
                <path d="M347.072171,422.000255 C347.072171,422.000255 354.744954,424.706212 359.774771,424.907077 C362.850459,425.030041 364.565291,425.016293 373.598165,422.921334 C382.498777,420.856925 384.426911,406.563391 384.426911,406.563391 L378.970489,380.799898 L376.870336,373.672607 L334.488073,384.297862 L347.072171,422.000255 Z" id="Fill-25" fill="#F1D5C3"></path>
                <path d="M372.264602,394.8097 C372.666743,396.382256 373.617049,397.511074 374.386927,397.333121 C375.156804,397.153641 375.455734,395.734598 375.053593,394.162805 C374.652217,392.591013 373.701911,391.460667 372.932034,391.640148 C372.161391,391.818101 371.863226,393.237144 372.264602,394.8097" id="Fill-27" fill="#000000"></path>
                <path d="M356.167355,398.543355 C356.569495,400.115911 357.519801,401.24473 358.289679,401.066777 C359.059557,400.887296 359.358486,399.468254 358.956346,397.896461 C358.554969,396.324669 357.604664,395.194323 356.834786,395.373803 C356.064144,395.551757 355.765979,396.970799 356.167355,398.543355" id="Fill-29" fill="#000000"></path>
                <path d="M366.706498,399.094552 C366.706498,399.094552 371.159862,406.489919 370.207263,407.320876 C369.254664,408.152597 367.860168,407.484318 367.860168,407.484318 L366.706498,399.094552 Z" id="Fill-31" fill="#FF3434"></path>
                <polygon id="Fill-33" fill="#F1D5C3" points="367.375459 424.376578 371.825765 440.506161 368.875459 442.232994 355.887691 443.422149 352.845642 442.918839 347.392278 421.584318 366.758486 422.396945"></polygon>
                <path d="M351.539526,441.008172 C350.545642,441.282357 349.330046,441.55807 347.98448,441.848294 C349.398853,427.75639 348.924847,418.782357 345.476835,406.86026 C349.880505,420.516828 355.400382,439.953437 351.539526,441.008172" id="Fill-35" fill="#FF3434"></path>
                <path d="M381.447477,380.939129 L376.371024,383.260922 L372.074388,374.485463 L372.762462,384.215606 L356.493349,389.187602 L351.692125,379.671309 L352.502523,389.958987 L340.973471,393.586787 C341.004052,393.655524 341.026988,393.731899 341.049924,393.800636 C341.439832,394.900433 343.328211,400.193203 345.476529,406.859954 C348.924541,418.782816 349.398547,427.756848 347.984174,441.847989 C341.225765,443.276197 331.149312,444.796054 329.108028,445.689638 C326.653899,446.758885 318.091208,461.0486 318.091208,461.0486 C318.091208,461.0486 314.819037,454.770596 315.897018,446.192948 C316.470413,441.618865 327.494878,432.461533 319.734939,399.35308 C319.734939,399.337805 319.727294,399.322531 319.727294,399.307256 C319.230352,397.20695 318.664602,395.014995 318.014755,392.716115 C315.117202,382.489537 325.040749,362.181492 342.357263,358.538416 C359.666131,354.902979 375.476529,355.452877 379.979587,367.214588 C384.490291,378.976298 381.447477,380.939129 381.447477,380.939129" id="Fill-37" fill="#FF3434"></path>
                <path d="M362.749465,412.633198 C363.871024,412.627851 367.694419,414.909929 375.744878,412.017617" id="Stroke-39" stroke="#DF715C" stroke-linecap="round" stroke-linejoin="round"></path>
                <path d="M327.76789,451.242693 C328.124924,450.896716 328.469725,450.562958 328.803823,450.242184" id="Fill-41" fill="#F1D5C3"></path>
                <path d="M389.172248,489.706772 L391.045336,519.149236 C391.045336,519.149236 344.004052,545.413747 345.563685,533.477138 C348.193654,513.375305 326.519343,449.678768 326.519343,449.678768 C336.060627,443.6528 338.147783,438.870978 352.505581,437.060896 C352.505581,437.060896 370.601911,447.570825 370.984174,437.466446 C370.984174,437.466446 371.030046,437.481721 371.114144,437.50387 C372.131728,437.843737 376.07974,440.968228 381.29763,448.929532 C384.264755,453.457026 386.277752,458.558096 387.163073,463.895927 C389.425306,477.545621 389.172248,489.706772 389.172248,489.706772" id="Fill-43" fill="#69BAC9"></path>
                <path d="M371.114067,437.504175 C371.029969,437.482026 370.984098,437.465988 370.984098,437.465988 C370.984098,437.404888 371.029969,437.4278 371.114067,437.504175" id="Fill-45" fill="#69BAC9"></path>
                <path d="M441.952599,508.217261 L432.259939,514.206568 C431.970948,514.384521 431.58945,514.297454 431.408257,514.011813 L417.75,492.007485 C417.568807,491.721079 417.655963,491.345316 417.94419,491.167363 L427.63685,485.178055 C427.925841,485.000102 428.307339,485.087169 428.488532,485.372811 L442.146789,507.376375 C442.328746,507.66278 442.240826,508.039308 441.952599,508.217261" id="Fill-47" fill="#FFFFFF"></path>
                <path d="M441.952599,508.217261 L432.259939,514.206568 C431.970948,514.384521 431.58945,514.297454 431.408257,514.011813 L417.75,492.007485 C417.568807,491.721079 417.655963,491.345316 417.94419,491.167363 L427.63685,485.178055 C427.925841,485.000102 428.307339,485.087169 428.488532,485.372811 L442.146789,507.376375 C442.328746,507.66278 442.240826,508.039308 441.952599,508.217261 Z" id="Stroke-49" stroke="#B5B5B5"></path>
                <path d="M427.963379,482.794246 C427.42133,482.794246 426.891514,482.944705 426.431269,483.228819 L416.737844,489.218126 C416.072706,489.629022 415.610168,490.274389 415.435092,491.034318 C415.26078,491.793483 415.394572,492.57556 415.812768,493.23391 L429.459557,515.219145 C430.007722,516.08447 430.928976,516.590071 431.933563,516.590071 C432.475612,516.590071 433.005428,516.439613 433.465673,516.155499 L443.159098,510.166191 C443.824235,509.755295 444.286774,509.109929 444.46185,508.35 C444.636162,507.590835 444.50237,506.808758 444.084174,506.150407 L430.437385,484.165173 C429.88922,483.299847 428.967966,482.794246 427.963379,482.794246 M427.963379,485.085489 C428.169037,485.085489 428.370872,485.187831 428.488609,485.372658 L442.146865,507.376986 C442.328823,507.663391 442.240902,508.039155 441.952676,508.217108 L432.260015,514.206415 C432.158333,514.269043 432.045183,514.298829 431.933563,514.298829 C431.727905,514.298829 431.52607,514.197251 431.408333,514.01166 L417.750076,492.007332 C417.568119,491.72169 417.65604,491.345163 417.944266,491.16721 L427.636927,485.177902 C427.738609,485.115275 427.851758,485.085489 427.963379,485.085489" id="Fill-51" fill="#FF3434"></path>
                <path d="M428.359862,501.545621 C428.331575,501.537984 428.303287,501.530346 428.275765,501.522709 C428.303287,501.530346 428.331575,501.537984 428.359862,501.545621" id="Fill-53" fill="#5600B7"></path>
                <path d="M428.365061,501.547149 C428.363532,501.546385 428.362003,501.545621 428.359709,501.545621 C428.362003,501.545621 428.363532,501.546385 428.365061,501.547149" id="Fill-55" fill="#5600B7"></path>
                <path d="M431.767737,500.190428 C431.751682,500.216395 431.735627,500.241599 431.718807,500.267566 C431.735627,500.241599 431.751682,500.216395 431.767737,500.190428" id="Fill-57" fill="#5600B7"></path>
                <path d="M426.882645,500.682663 C427.268731,501.087449 427.751911,501.371563 428.271789,501.522021 C427.735856,501.367744 427.258792,501.079812 426.881881,500.683427 L426.882645,500.682663 Z" id="Fill-59" fill="#5600B7"></path>
                <path d="M431.768119,500.189664 C431.768119,500.189664 431.768119,500.190428 431.768119,500.190428 C431.768119,500.190428 431.768119,500.189664 431.768119,500.189664" id="Fill-61" fill="#5600B7"></path>
                <path d="M428.275841,501.52248 C428.274312,501.52248 428.273547,501.521716 428.272018,501.521716 C428.273547,501.521716 428.274312,501.52248 428.275841,501.52248" id="Fill-63" fill="#5600B7"></path>
                <path d="M431.717355,500.269476 C431.717355,500.269476 431.717355,500.269476 431.71659,500.270239 C431.717355,500.268712 431.717355,500.267948 431.718119,500.267184 L431.717355,500.269476 Z" id="Fill-65" fill="#5600B7"></path>
                <path d="M431.903976,499.945799 C431.88945,499.974058 431.874924,500.001553 431.860398,500.029812 C431.874924,500.001553 431.88945,499.974058 431.903976,499.945799" id="Fill-67" fill="#5600B7"></path>
                <path d="M428.439755,501.56502 C428.414526,501.559674 428.390061,501.5528 428.364832,501.547454 C428.743272,501.643686 429.139297,501.669654 429.530734,501.619246 C429.880122,501.575713 430.062844,501.186202 429.875535,500.890631 L429.731804,500.663798 C429.636239,500.51334 429.464985,500.423982 429.286086,500.437729 C428.806728,500.475916 428.322783,500.330804 427.944343,500.026069 C427.774618,499.890122 427.6263,499.722098 427.508563,499.524287 C427.015443,498.694857 427.248624,497.617974 428.042966,497.066548 C428.929817,496.451731 430.151529,496.706059 430.721101,497.603462 C430.833486,497.781415 430.912232,497.970825 430.958104,498.164053 C431.06896,498.629939 430.992508,499.118737 430.752446,499.526578 C430.661468,499.682383 430.660703,499.874847 430.757798,500.02836 L430.902294,500.255957 C431.089602,500.550764 431.523853,500.559929 431.716514,500.270468 C431.476453,500.632485 431.156881,500.944094 430.773853,501.180092 C430.073547,501.612373 429.244801,501.749084 428.439755,501.56502" id="Fill-69" fill="#37AFCA"></path>
                <path d="M431.818884,500.103895 C431.818119,500.106186 431.81659,500.108478 431.815061,500.110769 C431.81659,500.108478 431.818119,500.106186 431.818884,500.103895" id="Fill-71" fill="#5600B7"></path>
                <path d="M431.860321,500.030041 C431.84656,500.054481 431.832798,500.078921 431.819037,500.104124 C431.832798,500.078921 431.84656,500.054481 431.860321,500.030041" id="Fill-73" fill="#5600B7"></path>
                <path d="M431.815138,500.110616 C431.799847,500.137347 431.783792,500.163315 431.767737,500.190046 C431.783792,500.163315 431.799847,500.137347 431.815138,500.110616" id="Fill-75" fill="#5600B7"></path>
                <path d="M426.11292,497.897658 C426.224541,497.414206 426.448547,496.975051 426.764297,496.607688 C426.901147,496.448065 426.918731,496.219705 426.805581,496.041752 L426.671024,495.82943 C426.497477,495.556772 426.109098,495.526986 425.893502,495.767566 C424.936315,496.839868 424.590749,498.330703 424.978364,499.712322 C425.06552,500.022403 425.42867,500.165224 425.704664,499.994908 L425.919495,499.862016 C426.098394,499.752037 426.182492,499.538187 426.12974,499.336558 C426.008945,498.869908 426.0013,498.379582 426.11292,497.897658" id="Fill-77" fill="#EE3434"></path>
                <path d="M429.817202,495.609394 C430.304969,495.720901 430.748394,495.942388 431.120719,496.253233 C431.282798,496.388416 431.51292,496.405983 431.692584,496.294476 L431.906651,496.163111 C432.182645,495.992032 432.211697,495.607103 431.967049,495.394781 C430.880657,494.449262 429.37607,494.104812 427.984633,494.480575 C427.669648,494.565351 427.526682,494.925076 427.700229,495.197734 L427.834786,495.410056 C427.947171,495.588009 428.162003,495.672021 428.367661,495.62085 C428.836315,495.503997 429.330963,495.497887 429.817202,495.609394" id="Fill-79" fill="#EE3434"></path>
                <path d="M431.418731,502.19748 C429.767355,503.217846 427.683257,502.992541 426.288761,501.778946 C426.044113,501.566624 426.074694,501.181696 426.349924,501.01138 L426.563991,500.879252 C426.743654,500.768508 426.975306,500.786838 427.136621,500.922021 C427.51659,501.23974 427.972248,501.463518 428.472248,501.572734 C429.28341,501.74916 430.136621,501.593355 430.829281,501.145036 C431.296407,500.843355 431.663379,500.430932 431.904205,499.945952 C431.912615,499.929913 431.92026,499.913875 431.927905,499.897836 C431.943196,499.865759 431.957722,499.833681 431.971483,499.80084 C431.978364,499.785565 431.985245,499.768763 431.992125,499.752724 C431.998242,499.735922 432.005887,499.719883 432.012003,499.70308 C432.019648,499.683223 432.027294,499.663366 432.034939,499.641981 C432.035703,499.640453 432.036468,499.638926 432.036468,499.636634 C432.044878,499.614486 432.053287,499.592337 432.060933,499.569425 C432.069343,499.542693 432.077752,499.516726 432.086162,499.490759 C432.091514,499.471665 432.09763,499.452571 432.102982,499.433478 C432.104511,499.428131 432.10604,499.422785 432.107569,499.416675 C432.120566,499.37085 432.132798,499.323498 432.143502,499.276909 C432.163379,499.192897 432.17867,499.108885 432.190902,499.025636 L432.191667,499.021054 C432.195489,498.996614 432.203135,498.928641 432.206193,498.904201 C432.206193,498.901146 432.206957,498.897327 432.206957,498.894272 C432.211544,498.85303 432.214602,498.811787 432.216896,498.771309 C432.217661,498.752215 432.21919,498.733885 432.219954,498.714791 C432.220719,498.695698 432.220719,498.677368 432.221483,498.658274 C432.222248,498.624669 432.223012,498.5903 432.222248,498.556696 L432.221483,498.519272 C432.221483,498.515453 432.221483,498.511634 432.220719,498.508579 C432.220719,498.491777 432.219954,498.475738 432.21919,498.458936 C432.21919,498.44137 432.217661,498.424567 432.216896,498.407001 C432.216131,498.406237 432.216131,498.40471 432.216131,498.403946 C432.213073,498.351247 432.208486,498.298549 432.20237,498.24585 C432.198547,498.210718 432.19396,498.174822 432.187844,498.140453 C432.180199,498.086991 432.17026,498.034292 432.159557,497.98083 C432.155734,497.963264 432.151911,497.946461 432.148089,497.928131 C432.145031,497.91362 432.141208,497.898345 432.137385,497.88307 C432.135092,497.872378 432.132798,497.861685 432.12974,497.851757 C432.127446,497.841828 432.125153,497.832663 432.122095,497.822734 C432.118272,497.805932 432.11292,497.788366 432.107569,497.770799 L432.106804,497.768508 C432.061697,497.610412 432.127446,497.441624 432.268119,497.354557 L432.677141,497.10252 C432.883563,496.974975 433.156498,497.074262 433.230657,497.30415 C433.816284,499.11194 433.119037,501.146563 431.418731,502.19748" id="Fill-81" fill="#37AFCA"></path>
                <path d="M420.16919,492.015962 C420.102676,492.339027 419.786927,492.544476 419.463532,492.474975 C419.140138,492.40471 418.932187,492.086227 418.9987,491.763162 C419.06445,491.440097 419.380199,491.234649 419.703593,491.30415 C420.026988,491.374414 420.235703,491.692897 420.16919,492.015962" id="Fill-83" fill="#000000"></path>
                <line x1="429.586544" y1="511.097658" x2="440.325076" y2="504.46222" id="Stroke-85" stroke="#B5B5B5" stroke-width="0.75"></line>
                <path d="M436.774465,508.957103 C436.931193,509.203793 436.855505,509.528386 436.606269,509.682663 C436.357034,509.836176 436.028287,509.761329 435.87156,509.513875 C435.715596,509.267948 435.79052,508.942592 436.039755,508.789078 C436.288991,508.634801 436.617737,508.710412 436.774465,508.957103 Z" id="Stroke-87" stroke="#2B2B2B" stroke-width="0.75"></path>
                <path d="M429.847095,517.021207 C428.714832,519.174211 425.886086,517.457307 425.332569,516.817286 C424.102446,515.376858 419.169725,510.372021 419.966361,508.456543 C420.715596,506.693814 422.850917,504.414027 423.762997,502.720036 C424.21789,501.653844 424.54052,499.153335 425.744648,498.549211 C426.296636,498.276553 426.869266,498.983783 427.19419,499.406135 C428.019113,500.478437 428.211009,501.218508 428.318807,502.118203 C428.453364,503.178284 427.896024,504.204761 427.417431,505.167082 C427.204893,505.626858 426.897554,506.096563 426.889144,506.590708 C426.883792,506.615148 426.892202,506.647225 426.899083,506.66861 L426.900612,506.673956 C426.904434,506.689995 426.921254,506.702215 426.931957,506.716726 C427.724006,507.259751 430.355505,516.05583 429.847095,517.021207" id="Fill-89" fill="#F1D5C3"></path>
                <path d="M438.017202,492.718534 C437.682339,493.8 436.186927,494.992974 434.823012,495.314511 C434.072248,495.407688 433.775612,495.551273 433.059251,495.698676 C432.194572,496.169908 430.701453,495.78498 430.20604,495.002902 C429.72133,494.162016 430.210627,493.395214 430.674694,492.788798 C431.625765,491.614155 432.929281,490.651069 434.534021,490.003411 C434.635703,489.961405 434.759557,489.94002 434.890291,489.95224 C434.994266,489.919399 435.118119,489.881212 435.232798,489.870519 C435.816896,489.765122 436.527905,490.032434 436.998853,490.429582 C437.459862,490.80611 437.807722,491.270468 437.998089,491.731772 C438.130352,492.07164 438.115061,492.415326 438.017202,492.718534" id="Fill-91" fill="#F1D5C3"></path>
                <path d="M439.383104,496.038315 C438.831116,496.73027 437.927446,497.180881 437.23708,497.785769 C436.597171,498.372327 436.331116,498.397531 435.211086,498.704557 C434.823471,498.811482 434.100994,499.058936 433.77607,498.806899 C433.34182,498.504455 432.973318,498.125636 432.798242,497.722378 C432.444266,496.92197 432.878517,496.219323 433.409862,495.693865 C434.302829,494.813264 435.582645,494.232816 436.734021,493.556135 C437.09182,493.322429 437.435092,493.06581 437.76919,492.814537 C437.991667,492.648803 438.204205,492.380728 438.623165,492.515148 C439.545183,492.725942 440.269954,493.339995 440.272248,494.051808 C440.290596,494.817082 439.83341,495.451757 439.383104,496.038315" id="Fill-93" fill="#F1D5C3"></path>
                <path d="M439.920719,500.122531 C439.436774,500.627368 438.875612,501.077215 438.289985,501.499567 C437.559098,501.993712 436.611086,502.358019 435.7013,501.232256 C434.75711,499.557357 436.773165,498.065759 437.440596,497.093508 C438.175306,496.615402 438.663073,495.92803 439.332034,495.397225 C438.988761,494.931339 439.519343,494.463926 440.081269,494.764842 C440.470413,494.9764 440.660015,495.366675 440.802217,495.686685 C440.929128,495.950178 441.021636,496.213671 441.051453,496.468763 C441.199006,496.872785 441.335856,497.237093 441.275459,497.611329 C441.155428,498.607256 440.577446,499.413773 439.920719,500.122531" id="Fill-95" fill="#F1D5C3"></path>
                <path d="M441.295948,502.150509 C440.995489,502.746232 440.507722,503.328208 439.837997,503.488595 C439.200382,503.674185 438.504664,503.210591 438.405275,502.55835 C438.234021,501.706008 438.512309,500.841446 438.834174,500.05555 C439.056651,499.478921 439.323471,498.906874 439.669037,498.392872 C439.873165,498.111813 440.110933,497.822352 440.451911,497.707026 C440.378517,497.235031 440.989373,497.248014 441.26078,497.455754 C441.590291,497.665784 441.809709,498.019399 441.90604,498.394399 C442.093349,499.047403 442.04289,499.746996 441.899924,500.404582 C441.776835,501.005652 441.588761,501.609012 441.295948,502.150509" id="Fill-97" fill="#F1D5C3"></path>
                <g id="Group-101" transform="translate(461.009174, 720.977597)">
                    <mask id="mask-2" fill="white">
                        <use xlink:href="#path-1"></use>
                    </mask>
                    <g id="Clip-100"></g>
                    <path d="M0.301070336,19.6627546 C0.301070336,19.6627546 3.08165138,33.2162169 13.9730887,27.7034878 C14.7284404,27.3239053 30.275841,13.9125 34.7796636,8.2134165 C35.3316514,7.51458758 39.4180428,3.32314155 38.3958716,2.11871181 C35.3553517,-1.45104379 31.9975535,0.978436864 29.0044343,1.92624745 C24.6244648,3.31932281 0.301834862,17.0270621 0.301070336,19.6627546" id="Fill-99" fill="#E26666" mask="url(#mask-2)"></path>
                </g>
                <path d="M276.859021,691.139969 C276.859021,691.139969 272.847554,677.898116 262.507339,684.383859 C261.790214,684.830652 247.53792,699.609165 243.574618,705.696232 C243.089908,706.442413 239.404128,710.989766 240.532569,712.095672 C243.887309,715.372149 247.008869,712.64557 249.902599,711.427393 C254.136544,709.640988 277.099847,693.764969 276.859021,691.139969" id="Fill-102" fill="#E26666"></path>
                <path d="M468.397783,735.065148 C465.952829,736.927164 461.369495,740.745901 461.240291,740.687018 C433.351911,526.93251 337.835092,622.233681 345.445948,530.625229 C353.896254,528.14305 377.215826,518.320494 388.563685,518.230191 C391.043807,518.210514 391.160015,519.822021 391.967355,523.955423 C396.014755,539.516777 397.41919,546.8014 410.382492,557.88414 C462.749465,601.005321 478.788456,663.696003 473.61185,731.609954" id="Fill-104" fill="#2B5165"></path>
                <path d="M411.716131,605.017744 C400.017355,594.262653 387.98448,588.533019 377.481422,583.383834 C392.980657,589.288366 403.412615,596.494323 411.716131,605.017744" id="Fill-106" fill="#2B5165"></path>
                <path d="M333.426835,662.388315 C332.12026,663.604964 332.087385,665.296665 328.127141,666.211634 C329.921483,664.980474 331.686009,663.705779 333.426835,662.388315" id="Fill-108" fill="#666666"></path>
                <path d="M391.044037,555.861965 C390.923242,555.837525 390.735168,555.784827 390.631193,555.758859 C390.527217,555.733656 390.475229,555.72831 390.397248,555.70387 C390.319266,555.680193 390.27263,555.674084 390.2,555.650407 C390.128135,555.625204 390.024159,555.629786 389.956116,555.59389 C389.888073,555.558758 389.636544,555.564104 389.622018,555.503768 C389.49893,554.983656 389.447706,554.427648 389.372783,553.894552 C389.931651,554.549084 390.488991,555.207434 391.044037,555.861965" id="Fill-110" fill="#666666"></path>
                <path d="M389.373471,553.892184 C389.437691,554.464995 389.517966,554.920952 389.60818,555.538824 C389.635703,555.727469 389.705275,556.669934 389.767202,556.734852 C389.795489,556.763875 389.897936,555.788569 389.959098,555.59305 C389.965979,555.567846 389.98815,555.308172 390.030199,555.245545 C390.073012,555.182918 389.901758,554.956848 390.109709,554.939282 C390.317661,554.92248 390.349006,555.55028 390.401758,555.675535 C390.454511,555.801553 390.537844,555.699211 390.632645,555.754201 C390.727446,555.80919 390.930046,555.814537 391.04396,555.863416 C390.490443,555.203539 389.93081,554.552826 389.373471,553.892184" id="Fill-112" fill="#666666"></path>
                <path d="M389.377217,553.900356 C389.433792,554.456365 389.520183,554.924542 389.608104,555.539358 C389.635627,555.72724 389.705199,556.667413 389.767125,556.736151 C389.795413,556.767464 389.89633,555.773829 389.96208,555.605804 C389.968196,555.589002 390.199847,555.70891 390.183028,555.620316 C390.166208,555.532485 390.12263,555.453055 390.005657,555.201782 C389.888685,554.950509 389.555352,554.229532 389.377217,553.900356 M390.649388,555.763136 C390.649388,555.7639 391.01789,555.858605 391.018654,555.857077 C391.019419,555.854022 390.650153,555.763136 390.649388,555.763136" id="Fill-114" fill="#666666"></path>
                <path d="M388.671254,554.244959 C388.668196,554.238086 388.671254,554.244959 388.655199,554.181568 C388.617737,554.128106 388.789755,554.377088 388.671254,554.244959 M390.197248,555.654073 C389.444954,556.374287 389.904434,557.287729 389.373089,553.892108 C389.931193,554.551986 390.489297,555.205754 391.044343,555.861813 C390.96789,555.85112 390.850153,555.807587 390.392966,555.703717 C338.438073,536.244196 408.37844,667.045112 273.120795,684.798422 C273.067278,685.870723 272.558104,690.065988 274.48318,694.496487 C343.405199,712.897454 416.755352,625.449898 390.197248,555.654073" id="Fill-116" fill="#2B5165"></path>
                <path d="M208.811697,0.219195519 C234.58081,0.219195519 255.700841,20.4821792 257.042584,45.8966395 C278.376682,46.86889 295.434786,64.5129837 295.434786,86.0621181 C295.434786,108.232179 277.378976,126.268839 255.18708,126.268839 L107.141208,126.268839 C89.0915138,126.268839 74.4080275,111.599542 74.4080275,93.5689919 C74.4080275,75.5376782 89.0915138,60.8683809 107.141208,60.8683809 C109.362156,60.8683809 111.558639,61.0913951 113.704664,61.5297862 C113.703135,61.4045316 113.70237,61.2808045 113.70237,61.1563136 C113.70237,40.4641039 130.554052,23.6303462 151.26659,23.6303462 C156.30711,23.6303462 161.227599,24.6262729 165.797936,26.546334 C173.940902,10.5450611 190.424083,0.219195519 208.811697,0.219195519" id="Fill-118" fill="#CBCBCB"></path>
                <path d="M199.317431,75.1332739 L214.869419,72.3937118 L230.421407,69.6541497 C228.942813,76.4110234 223.525382,81.6067974 216.707339,82.8074084 C209.889297,84.0087831 203.020031,80.9767057 199.317431,75.1332739" id="Fill-120" fill="#FFFFFF"></path>
                <path d="M156.449924,69.6971487 L172.001911,72.435947 L187.553899,75.1755092 C183.850535,81.0197047 176.981269,84.0510183 170.163226,82.8504073 C163.345948,81.6490326 157.928517,76.4532587 156.449924,69.6971487" id="Fill-122" fill="#FFFFFF"></path>
                <g id="Group-128" transform="translate(18.348624, 85.539715)">
                    <path d="M74.8580275,0.311685336 C93.5996177,0.311685336 108.847324,15.5446283 108.847324,34.2671334 C108.847324,35.0889257 108.816743,35.9091904 108.754817,36.7279277 C111.258639,35.892388 113.896254,35.4562882 116.570566,35.4562882 C130.221942,35.4562882 141.326682,46.5504837 141.326682,60.1871945 C141.326682,73.824669 130.221942,84.9188646 116.570566,84.9188646 L30.0094037,84.9188646 C13.8129205,84.9188646 0.636314985,71.7549134 0.636314985,55.5756874 C0.636314985,39.3956976 13.8129205,26.2325102 30.0094037,26.2325102 C33.9490061,26.2325102 37.7861621,27.0122963 41.3557339,28.5184063 C44.0965596,12.5224796 58.076682,0.311685336 74.8580275,0.311685336" id="Fill-124" fill="#CBCBCB"></path>
                    <path d="M74.8580275,0.311685336 C93.5996177,0.311685336 108.847324,15.5446283 108.847324,34.2671334 C108.847324,35.0889257 108.816743,35.9091904 108.754817,36.7279277 C111.258639,35.892388 113.896254,35.4562882 116.570566,35.4562882 C130.221942,35.4562882 141.326682,46.5504837 141.326682,60.1871945 C141.326682,73.824669 130.221942,84.9188646 116.570566,84.9188646 L30.0094037,84.9188646 C13.8129205,84.9188646 0.636314985,71.7549134 0.636314985,55.5756874 C0.636314985,39.3956976 13.8129205,26.2325102 30.0094037,26.2325102 C33.9490061,26.2325102 37.7861621,27.0122963 41.3557339,28.5184063 C44.0965596,12.5224796 58.076682,0.311685336 74.8580275,0.311685336 Z" id="Stroke-126" stroke="#FFFFFF" stroke-width="3.205"></path>
                </g>
                <path d="M294.334098,75.3248982 C308.379969,75.3248982 320.080275,85.5453666 322.374618,98.932332 C325.361621,97.6721487 328.573394,97.0199084 331.870795,97.0199084 C345.426606,97.0199084 356.454893,108.036965 356.454893,121.578971 C356.454893,135.120978 345.426606,146.138035 331.870795,146.138035 L259.422018,146.138035 C247.996942,146.138035 238.70107,136.853157 238.70107,125.438951 C238.70107,114.025509 247.996942,104.739868 259.422018,104.739868 C261.66055,104.739868 263.867737,105.104939 265.963303,105.803768 C265.911315,105.118686 265.886086,104.432077 265.886086,103.743941 C265.886086,88.0741344 278.647554,75.3248982 294.334098,75.3248982" id="Fill-129" fill="#CBCBCB"></path>
                <path d="M294.334098,75.3248982 C308.379969,75.3248982 320.080275,85.5453666 322.374618,98.932332 C325.361621,97.6721487 328.573394,97.0199084 331.870795,97.0199084 C345.426606,97.0199084 356.454893,108.036965 356.454893,121.578971 C356.454893,135.120978 345.426606,146.138035 331.870795,146.138035 L259.422018,146.138035 C247.996942,146.138035 238.70107,136.853157 238.70107,125.438951 C238.70107,114.025509 247.996942,104.739868 259.422018,104.739868 C261.66055,104.739868 263.867737,105.104939 265.963303,105.803768 C265.911315,105.118686 265.886086,104.432077 265.886086,103.743941 C265.886086,88.0741344 278.647554,75.3248982 294.334098,75.3248982 Z" id="Stroke-131" stroke="#FFFFFF" stroke-width="3.205"></path>
                <line x1="153.339526" y1="180.657587" x2="217.135398" y2="295.638238" id="Stroke-133" stroke="#2B5165" stroke-width="3"></line>
                <line x1="208.505581" y1="202.573931" x2="227.036927" y2="235.973371" id="Stroke-135" stroke="#2B5165" stroke-width="3"></line>
                <line x1="133.524159" y1="222.23554" x2="188.749694" y2="321.988595" id="Stroke-137" stroke="#2B5165" stroke-width="3"></line>
                <line x1="288.034174" y1="190.889053" x2="306.56552" y2="224.289257" id="Stroke-139" stroke="#2B5165" stroke-width="3"></line>
                <line x1="367.610627" y1="179.290402" x2="386.141972" y2="212.689842" id="Stroke-141" stroke="#2B5165" stroke-width="3"></line>
                <line x1="220.159786" y1="146.138264" x2="282.932722" y2="259.204964" id="Stroke-143" stroke="#2B5165" stroke-width="3"></line>
                <line x1="311.667355" y1="155.972963" x2="348.73081" y2="222.772607" id="Stroke-145" stroke="#2B5165" stroke-width="3"></line>
                <path d="M198.958716,286.271334 C194.89526,286.271334 190.996942,285.284572 187.372324,283.339308 C186.776758,283.019297 186.193425,282.674084 185.637615,282.313595 L183.833333,281.14277 L183.899083,278.994348 C183.919725,278.332943 183.968654,277.657026 184.045872,276.984929 C185.471713,264.525153 196.060398,255.130295 208.675076,255.130295 C212.738532,255.130295 216.63685,256.116293 220.261468,258.062322 C220.85474,258.380804 221.438073,258.726018 221.996177,259.087271 L223.800459,260.258096 L223.734709,262.406517 C223.714067,263.068686 223.665138,263.744603 223.58792,264.416701 C222.16208,276.875713 211.573394,286.271334 198.958716,286.271334" id="Fill-147" fill="#FFFFFF"></path>
                <path d="M208.675459,251.311253 L208.675459,251.311253 C194.11659,251.311253 181.894878,262.162576 180.248089,276.550815 C180.158639,277.327546 180.102064,278.111151 180.078364,278.877953 L179.94763,283.172505 L183.553135,285.514155 C184.196865,285.932688 184.873471,286.332128 185.563073,286.702546 C189.690749,288.918941 194.323012,290.089766 198.959098,290.089766 C213.517202,290.089766 225.738914,279.239206 227.386468,264.850967 C227.475153,264.073473 227.532492,263.290631 227.555428,262.523065 L227.686162,258.229277 L224.080657,255.886864 C223.436927,255.46833 222.760321,255.06889 222.070719,254.698473 C217.943043,252.482841 213.31078,251.311253 208.675459,251.311253 M208.675459,258.948727 C211.949159,258.948727 215.292431,259.730041 218.452217,261.426324 C218.955275,261.69669 219.443043,261.984623 219.913991,262.290122 C219.896407,262.850713 219.855122,263.415122 219.790138,263.982587 C218.530963,274.985896 209.078364,282.452291 198.959098,282.452291 C195.684633,282.452291 192.341361,281.670978 189.181575,279.975458 C188.678517,279.705092 188.190749,279.416395 187.719801,279.110896 C187.737385,278.550305 187.77867,277.985896 187.843654,277.418432 C189.102829,266.415886 198.555428,258.948727 208.675459,258.948727" id="Fill-149" fill="#FFFFFF"></path>
                <path d="M208.675459,256.657485 L208.675459,256.657485 C196.838303,256.657485 186.902523,265.47113 185.564602,277.157994 C185.492737,277.788086 185.446865,278.421996 185.427752,279.041395 L185.388761,280.329837 L186.469801,281.032485 C186.990443,281.370061 187.53708,281.693126 188.096713,281.993279 C191.495795,283.818635 195.150994,284.743534 198.959098,284.743534 C210.795489,284.743534 220.731269,275.930652 222.06919,264.243024 C222.141055,263.612933 222.186927,262.979786 222.20604,262.360387 L222.245795,261.071945 L221.163991,260.369297 C220.644113,260.030957 220.096713,259.707892 219.537844,259.407739 C216.137997,257.582383 212.483563,256.657485 208.675459,256.657485 M208.675459,258.948727 C211.949159,258.948727 215.292431,259.730041 218.452217,261.426324 C218.955275,261.69669 219.443043,261.984623 219.913991,262.290122 C219.896407,262.850713 219.855122,263.415122 219.790138,263.982587 C218.530963,274.985896 209.078364,282.452291 198.959098,282.452291 C195.684633,282.452291 192.341361,281.670978 189.181575,279.975458 C188.678517,279.705092 188.190749,279.416395 187.719801,279.110896 C187.737385,278.550305 187.77867,277.985896 187.843654,277.418432 C189.102829,266.415886 198.555428,258.948727 208.675459,258.948727" id="Fill-151" fill="#37B1CC"></path>
                <path d="M208.32867,268.270341 C206.999924,265.733172 203.863838,264.751757 201.324083,266.07915 C198.784327,267.405779 197.801911,270.538671 199.130657,273.07584 C200.458639,275.613773 203.594725,276.594425 206.13448,275.267795 C208.675,273.940402 209.656651,270.80751 208.32867,268.270341 Z" id="Stroke-153" stroke="#37B1CC" stroke-width="3"></path>
                <path d="M248.372936,220.493279 C244.30948,220.493279 240.411162,219.506517 236.786544,217.561253 C236.190979,217.241242 235.607645,216.896029 235.051835,216.53554 L233.247554,215.364715 L233.313303,213.216293 C233.333945,212.554888 233.382875,211.878971 233.460092,211.206874 C234.885933,198.747098 245.474618,189.35224 258.089297,189.35224 C262.152752,189.35224 266.05107,190.338238 269.675688,192.284267 C270.271254,192.604277 270.854587,192.949491 271.410398,193.309216 L273.214679,194.480041 L273.14893,196.628462 C273.128287,197.289868 273.079358,197.965784 273.002141,198.638646 C271.5763,211.097658 260.987615,220.493279 248.372936,220.493279" id="Fill-155" fill="#FFFFFF"></path>
                <path d="M258.089679,185.533121 L258.089679,185.533121 C243.53081,185.533121 231.309098,196.384445 229.662309,210.772683 C229.572859,211.549414 229.516284,212.332256 229.492584,213.099822 L229.36185,217.394374 L232.967355,219.736023 C233.611086,220.154557 234.287691,220.553997 234.977294,220.924414 C239.104969,223.14081 243.737232,224.311634 248.373318,224.311634 C262.931422,224.311634 275.153135,213.461074 276.800688,199.072836 C276.889373,198.296105 276.945948,197.513264 276.969648,196.744934 L277.101147,192.451146 L273.494878,190.108732 C272.851147,189.690199 272.174541,189.290759 271.484939,188.921105 C267.357263,186.70471 262.725,185.533121 258.089679,185.533121 M258.089679,193.170596 C261.363379,193.170596 264.706651,193.951909 267.866437,195.648192 C268.369495,195.918559 268.857263,196.206492 269.328211,196.511991 C269.310627,197.072581 269.269343,197.636991 269.204358,198.204455 C267.945183,209.207765 258.492584,216.67416 248.373318,216.67416 C245.098853,216.67416 241.755581,215.892846 238.595795,214.197327 C238.092737,213.92696 237.604969,213.638264 237.134021,213.332765 C237.151606,212.772938 237.19289,212.207765 237.257875,211.641064 C238.517049,200.637755 247.969648,193.170596 258.089679,193.170596" id="Fill-157" fill="#FFFFFF"></path>
                <path d="M258.089679,190.879353 L258.089679,190.879353 C246.252523,190.879353 236.316743,199.692999 234.978823,211.379863 C234.906957,212.009954 234.861086,212.643865 234.841972,213.263264 L234.802982,214.551706 L235.884021,215.254353 C236.404664,215.59193 236.952064,215.914995 237.510933,216.215148 C240.910015,218.040504 244.565214,218.965402 248.373318,218.965402 C260.209709,218.965402 270.145489,210.15252 271.48341,198.464893 C271.555275,197.834801 271.601147,197.201655 271.62026,196.582256 L271.660015,195.293814 L270.578211,194.591166 C270.057569,194.252826 269.510168,193.929761 268.952064,193.629608 C265.552217,191.804252 261.897783,190.879353 258.089679,190.879353 M258.089679,193.170596 C261.363379,193.170596 264.706651,193.951909 267.866437,195.648192 C268.369495,195.918559 268.857263,196.206492 269.328211,196.511991 C269.310627,197.072581 269.269343,197.636991 269.204358,198.204455 C267.945183,209.207765 258.492584,216.67416 248.373318,216.67416 C245.098853,216.67416 241.755581,215.892846 238.595795,214.197327 C238.092737,213.92696 237.604969,213.638264 237.134021,213.332765 C237.151606,212.772938 237.19289,212.207765 237.257875,211.641064 C238.517049,200.637755 247.969648,193.170596 258.089679,193.170596" id="Fill-159" fill="#37B1CC"></path>
                <path d="M257.742508,202.49221 C256.414526,199.955041 253.27844,198.973625 250.73792,200.301018 C248.198165,201.627648 247.215749,204.76054 248.544495,207.297709 C249.873242,209.835642 253.009327,210.816293 255.549083,209.489664 C258.088838,208.162271 259.071254,205.029379 257.742508,202.49221 Z" id="Stroke-161" stroke="#37B1CC" stroke-width="3"></path>
                <path d="M328.520107,211.037398 C324.456651,211.037398 320.558333,210.050636 316.933716,208.105372 C316.340443,207.786889 315.75711,207.441675 315.199006,207.079659 L313.394725,205.908834 L313.460474,203.760412 C313.481116,203.099007 313.530046,202.423091 313.607263,201.750993 C315.033104,189.291217 325.621789,179.896359 338.236468,179.896359 C342.299924,179.896359 346.198242,180.882357 349.822859,182.828386 C350.418425,183.148396 351.001758,183.49361 351.557569,183.853335 L353.36185,185.02416 L353.296101,187.172581 C353.275459,187.833987 353.226529,188.509903 353.149312,189.182765 C351.723471,201.641777 341.134786,211.037398 328.520107,211.037398" id="Fill-163" fill="#FFFFFF"></path>
                <path d="M338.23685,176.077317 L338.23685,176.077317 C323.677982,176.077317 311.456269,186.928641 309.808716,201.316879 C309.720031,202.09361 309.662691,202.876451 309.639755,203.644017 L309.509021,207.938569 L313.113761,210.280219 C313.758257,210.698753 314.434098,211.098192 315.1237,211.46861 C319.252141,213.685005 323.884404,214.85583 328.520489,214.85583 C343.078593,214.85583 355.300306,204.00527 356.947095,189.617032 C357.036544,188.839537 357.093119,188.056696 357.11682,187.289129 L357.247554,182.995341 L353.642049,180.652928 C352.998318,180.234394 352.321713,179.834954 351.63211,179.4653 C347.504434,177.248905 342.872171,176.077317 338.23685,176.077317 M338.236086,183.714791 C341.51055,183.714791 344.853823,184.496105 348.013609,186.192388 C348.516667,186.462755 349.004434,186.750687 349.475382,187.056186 C349.457798,187.616777 349.416514,188.181186 349.351529,188.748651 C348.092355,199.75196 338.639755,207.218355 328.520489,207.218355 C325.246024,207.218355 321.902752,206.437042 318.742966,204.741522 C318.239908,204.471156 317.752141,204.182459 317.281193,203.87696 C317.298777,203.31637 317.340061,202.75196 317.405046,202.18526 C318.66422,191.18195 328.11682,183.714791 338.236086,183.714791" id="Fill-165" fill="#FFFFFF"></path>
                <path d="M338.23685,181.423549 L338.23685,181.423549 C326.399694,181.423549 316.463914,190.237195 315.125994,201.924058 C315.054128,202.55415 315.008257,203.18806 314.989144,203.807459 L314.950153,205.095901 L316.031193,205.798549 C316.55107,206.135362 317.098471,206.45919 317.657339,206.759343 C321.057187,208.5847 324.711621,209.509598 328.520489,209.509598 C340.356881,209.509598 350.292661,200.696716 351.630581,189.009089 C351.702446,188.378997 351.748318,187.74585 351.767431,187.126451 L351.807187,185.838009 L350.725382,185.135362 C350.20474,184.797021 349.657339,184.473956 349.099235,184.173803 C345.699388,182.348447 342.044954,181.423549 338.23685,181.423549 M338.236086,183.714791 C341.51055,183.714791 344.853823,184.496105 348.013609,186.192388 C348.516667,186.462755 349.004434,186.750687 349.475382,187.056186 C349.457798,187.616777 349.416514,188.181186 349.351529,188.748651 C348.092355,199.75196 338.639755,207.218355 328.520489,207.218355 C325.246024,207.218355 321.902752,206.437042 318.742966,204.741522 C318.239908,204.471156 317.752141,204.182459 317.281193,203.87696 C317.298777,203.31637 317.340061,202.75196 317.405046,202.18526 C318.66422,191.18195 328.11682,183.714791 338.236086,183.714791" id="Fill-167" fill="#37B1CC"></path>
                <path d="M337.889679,193.036405 C336.561697,190.499236 333.425612,189.517821 330.885092,190.845214 C328.345336,192.171843 327.36292,195.304735 328.691667,197.841904 C330.020413,200.379837 333.156498,201.360489 335.696254,200.033859 C338.236009,198.706466 339.218425,195.573574 337.889679,193.036405 Z" id="Stroke-169" stroke="#37B1CC" stroke-width="3"></path>
                <polygon id="Fill-171" fill="#152F38" points="366.679969 578.70947 395.527064 593.0389 395.434557 594.342617 366.037003 583.65779"></polygon>
                <path d="M367.339985,424.28111 C363.833104,424.75998 350.63815,424.50336 350.63815,424.50336 L351.173318,426.903819 L368.086162,426.835081 L367.339985,424.28111 Z" id="Fill-173" fill="#DF715C"></path>
                <path d="M347.939373,540.14473 C317.34763,533.594832 323.461544,511.941064 340.547171,493.103233 L342.694725,491.614689 C341.956193,490.892184 341.473777,489.884801 341.436315,488.834649 C341.164908,481.189537 345.351453,472.639384 351.490596,467.668152 C332.507416,473.392439 316.60604,488.344323 311.790291,508.943355 C306.184021,532.922734 321.224541,547.650076 342.466131,547.660772 C353.723777,547.666115 355.674847,541.800535 347.939373,540.14473" id="Fill-175" fill="#F1D5C3"></path>
                <polygon id="Fill-177" fill="#69BAC9" points="329.559786 445.698803 313.523853 485.84748 343.075076 495.656288 355.695872 452.216624"></polygon>
                <path d="M372.147783,437.926375 L382.186009,491.80723 L398.082034,485.049593 L389.516284,449.749949 C387.66919,446.141242 378.210474,440.714053 374.524694,439.019297 L372.147783,437.926375 Z" id="Fill-179" fill="#69BAC9"></path>
                <polygon id="Fill-181" fill="#2B5165" points="339.818502 494.569705 351.948471 468.587016 341.269572 500.249695"></polygon>
                <path d="M352.90581,437.106645 C354.174924,455.410616 319.161927,495.684547 318.320948,495.348498 C317.694037,495.096461 309.68945,492.087296 308.267431,491.147887 C307.724618,490.788926 310.033486,482.395341 310.033486,482.395341 C310.033486,482.395341 304.521254,489.344679 303.351529,488.680983 C292.976911,482.807765 282.77737,472.558274 280.11682,460.468152 C307.227676,451.91418 308.336239,447.064384 314.054893,435.49361 C322.258257,418.912653 320.606881,403.943203 319.735321,399.35308 C319.735321,399.337805 319.727676,399.322531 319.727676,399.307256 L340.973853,393.586787 C341.004434,393.655524 341.02737,393.731899 341.050306,393.800636 C342.877523,398.673345 344.337003,402.927419 345.476911,406.859954 C348.924159,418.782816 351.926453,422.978844 352.90581,437.106645" id="Fill-183" fill="#FF3434"></path>
                <path d="M359.470719,530.258478 C360.65344,530.347836 361.421024,531.595036 361.397324,532.799465 C361.372859,534.003895 360.757416,535.149516 360.100688,536.198142 C359.554817,537.068814 358.96919,537.915046 358.345336,538.733019 C357.778058,539.476909 357.167966,540.207816 356.404969,540.742439 C355.030352,541.703997 350.882034,543.273498 349.284939,543.045901 C347.884327,542.846563 346.665673,540.850127 347.466896,539.447123 C348.407263,537.800484 350.550229,537.512551 352.169495,536.557867 C353.372859,535.847581 356.44396,534.950178 357.349924,533.873294 C357.576223,533.605219 359.593043,530.268406 359.470719,530.258478" id="Fill-185" fill="#F1D5C3"></path>
                <path d="M201.019725,448.888824 C201.01208,448.797174 201.01208,448.713926 201.004434,448.621512" id="Stroke-187" stroke="#000000"></path>
                <path d="M286.539526,404.607128 C286.493654,404.52999 286.447783,404.462016 286.401911,404.385642" id="Stroke-189" stroke="#000000"></path>
                <path d="M473.810321,356.055474 C473.795031,356.040199 473.787385,356.017286 473.772095,356.002011" id="Stroke-191" stroke="#000000"></path>
                <path d="M356.081116,537.666981 C357.28448,537.195748 358.379281,536.383121 359.600994,535.988264 C360.823471,535.592643 362.329587,535.770596 362.825765,536.869628 C362.963379,537.466879 363.101758,538.065657 363.165214,538.684292 C363.263073,539.634394 363.184327,540.613518 363.104817,541.587296 C363.071177,541.998956 363.032951,542.427419 362.823471,542.802419 C362.653746,543.107154 362.379281,543.358427 362.254664,543.680728 C362.133104,543.996156 362.172095,544.331441 362.143043,544.658325 C362.065826,545.543508 361.498547,546.350789 360.954205,547.100789 C360.088761,548.291471 359.223318,549.482918 358.357875,550.674364 C358.199618,550.892032 358.036009,551.115046 357.818884,551.27085 C357.575,551.446512 357.285245,551.523651 357.00237,551.584751 C354.991667,552.021614 352.927446,551.899414 351.101758,551.23419 C349.931269,550.808019 348.868578,550.167999 347.812768,549.531797 C346.692737,548.857408 345.511544,548.110463 345.047477,546.857918 C344.562768,545.547327 344.979434,543.97248 345.597171,542.589333 C346.439679,540.702113 347.847936,537.782307 349.947324,537.734954 C352.12393,537.684547 353.782951,538.568203 356.081116,537.666981" id="Fill-193" fill="#F1D5C3"></path>
                <path d="M336.546177,401.141166 C336.382569,401.022021 329.440673,400.429353 331.17156,406.921207 C332.903976,413.41306 337.134098,411.51362 339.226606,411.210412 C341.318349,410.904913 336.709786,401.260311 336.546177,401.141166" id="Fill-195" fill="#F1D5C3"></path>
                <polygon id="Fill-197" fill="#2B5165" points="339.818502 494.569705 338.78792 494.204633 337.643425 496.197251"></polygon>
                <polygon id="Fill-199" fill="#2B5165" points="389.160703 488.778971 386.571254 466.425611 391.697401 487.77388"></polygon>
                <path d="M439.416361,499.442337 C439.443884,499.403386 440.371254,497.785769 440.611315,497.628437 C440.646483,497.605524 439.375841,499.889893 439.375841,499.889893 L439.416361,499.442337 Z" id="Fill-201" fill="#DF715C"></path>
                <path d="M433.165367,495.951018 C433.177599,495.92887 433.608028,495.322454 434.293807,494.866497 C434.939832,494.437271 436.234939,493.732332 436.234939,493.732332 L433.165367,495.951018 Z" id="Fill-203" fill="#DF715C"></path>
                <path d="M436.370566,498.359343 C436.609098,498.21194 438.130505,496.893712 438.304052,496.596614 C438.477599,496.299516 438.29182,496.39804 438.252829,496.420188 C438.214602,496.442337 435.900382,498.515148 435.900382,498.515148 C436.057875,498.472378 436.215367,498.42197 436.370566,498.359343" id="Fill-205" fill="#DF715C"></path>
                <path d="M439.37607,499.889817 C439.379893,499.727902 439.390596,499.574389 439.41659,499.442261" id="Fill-207" fill="#DF715C"></path>
            </g>
        </g>
    </g>
</svg>