<?xml version="1.0" encoding="UTF-8"?>
<svg width="250px" height="600px" viewBox="0 0 250 600" version="1.1" xmlns="http://www.w3.org/2000/svg" xmlns:xlink="http://www.w3.org/1999/xlink">
    <!-- Generator: Sketch 62 (91390) - https://sketch.com -->
    <title>tony</title>
    <desc>Created with Sketch.</desc>
    <defs>
        <polygon id="path-1" points="0.165597445 0.944655738 74.5176641 0.944655738 74.5176641 55.1173574 0.165597445 55.1173574"></polygon>
    </defs>
    <g id="tony" stroke="none" stroke-width="1" fill="none" fill-rule="evenodd">
        <rect fill="#FFFFFF" x="0" y="0" width="250" height="600"></rect>
        <g id="Group-4-Copy" transform="translate(33.000000, 48.000000)">
            <path d="M107.210913,85 L107.210913,109 L105.250375,109 C105.960896,108.164324 106.40167,107.1232 106.510125,106.019608 L106.681151,104.349644 L106.788215,103.246052 C104.71227,104.870206 101.48364,106.522124 96.9271283,106.522124 C92.3859113,106.522124 89.3296973,105.436578 86.9575858,104.341315 L87.1091451,105.830817 L87.127221,106.019608 C87.2356762,107.1232 87.6847923,108.164324 88.3953134,109 L86.2109129,109 L86.2109129,85 L107.210913,85 Z" id="Fill-1" fill="#F4D9CE"></path>
            <path d="M82.4692674,489.080361 C82.7184924,489.731705 82.5147062,501.606 82.5147062,501.606 C82.5147062,501.606 47.5295698,502.594721 41.6431774,501.725803 C38.963664,501.329213 44.504446,496.769803 47.1935979,496.385607 C62.6248961,494.174066 64.376356,490.929738 68.9243686,488.652098 C79.3752969,483.419311 82.2200423,488.426262 82.4692674,489.080361" id="Fill-11" fill="#383838"></path>
            <path d="M111.313692,488.099351 C111.067221,488.753449 111.359131,500.62499 111.359131,500.62499 C111.359131,500.62499 146.351152,501.409908 152.232036,500.505187 C154.907419,500.094826 149.33359,495.568466 146.640308,495.199416 C131.193863,493.078761 129.417619,489.844072 124.85446,487.592597 C114.366354,482.4204 111.557409,487.44663 111.313692,488.099351" id="Fill-13" fill="#383838"></path>
            <path d="M95.3397439,262.899344 C95.3397439,262.907607 95.3314823,262.907607 95.3314823,262.907607 L95.3314823,262.926885 C95.3480055,262.907607 95.3755442,262.891082 95.3934443,262.871803 C95.3755442,262.881443 95.357644,262.891082 95.3397439,262.899344" id="Fill-317" fill="#C7C7C7"></path>
            <path d="M50.507327,259.46278 C50.4797883,259.935108 50.4536266,260.397797 50.4274648,260.868748 C50.4426111,260.397797 50.4715267,259.933731 50.507327,259.46278" id="Fill-319" fill="#C7C7C7"></path>
            <path d="M97.2801191,262.926197 C96.3961276,262.26659 95.3427731,262.577803 94.8498308,263.514197 C94.9448392,263.16718 95.0426016,262.773344 95.4116198,262.632885 C95.4116198,262.623246 95.4198814,262.613607 95.4198814,262.605344 C96.0271093,262.321672 96.8092077,262.409803 97.2801191,262.926197" id="Fill-321" fill="#C7C7C7"></path>
            <path d="M97.5921324,263.718275 C97.4420466,263.470407 97.3387765,263.211521 97.2795684,262.926472 C97.4048693,263.157816 97.5122702,263.433226 97.5921324,263.718275" id="Fill-323" fill="#C7C7C7"></path>
            <path d="M140.439011,225.844741 C139.086861,221.135233 139.451749,207.227036 135.997022,204.895692 L55.840192,205.161462 C54.2553411,205.340479 54.3531034,206.961266 54.0322778,208.05602 C42.1300612,299.927233 39.9489979,400.977856 67.7506702,489.261856 C67.7603087,489.261856 81.3368769,489.439495 81.3368769,489.439495 C78.4067616,417.769593 76.7337869,340.588741 96.1760935,268.935364 C114.649039,340.685134 117.703078,415.179364 111.248012,488.468675 C111.141988,490.437856 125.207368,488.567823 126.142306,489.048413 C152.95534,406.105987 147.472389,312.231167 140.439011,225.844741" id="Fill-325" fill="#69BAC9"></path>
            <path d="M53.133553,229.708328 C52.9559286,231.229967 52.7769271,232.762623 52.6089412,234.284262 C52.6323491,234.147934 53.0949989,229.844656 53.133553,229.708328" id="Fill-327" fill="#C7C7C7"></path>
            <path d="M53.809903,224.277384 C53.6322785,225.906433 53.4188537,227.580925 53.1861519,229.289843 C53.3789226,227.615351 53.5923474,225.942236 53.809903,224.277384" id="Fill-329" fill="#C7C7C7"></path>
            <path d="M139.540148,233.919482 C138.646518,227.32617 137.648241,220.719089 136.380085,214.198761 C137.688172,220.725974 138.723626,227.316531 139.540148,233.919482" id="Fill-331" fill="#C7C7C7"></path>
            <path d="M140.528511,242.778177 C140.305448,240.489521 140.056223,238.192603 139.780836,235.913587 C140.065861,238.202243 140.305448,240.489521 140.528511,242.778177" id="Fill-333" fill="#C7C7C7"></path>
            <path d="M149.416757,234.195856 C149.283195,234.249561 149.149632,234.311528 149.007808,234.365233 C148.793006,234.453364 148.57132,234.542872 148.348257,234.640643 L148.339995,234.640643 C146.141032,235.531593 143.808505,236.3592 141.342417,237.116577 C141.182693,237.170282 141.011953,237.214348 140.843967,237.268052 L141.137254,234.570413 L141.199216,234.026479 L141.217116,233.910807 L141.244655,233.661561 L141.262555,233.430216 L141.778905,228.782675 L141.822967,228.409495 L141.822967,228.381954 L141.858767,228.08038 L142.339317,223.690348 L142.500418,222.238938 L142.561003,221.652315 C143.389918,221.509102 144.235355,221.241954 145.082169,220.867397 C152.923808,217.42202 161.069749,204.174807 160.954086,179.361757 C160.882486,163.977364 150.377857,152.883856 139.783728,147.586348 C137.853266,146.615528 135.920051,145.841626 134.041913,145.261889 C134.033652,145.423003 134.024013,145.59238 134.024013,145.752118 L134.024013,145.77002 C134.00749,147.925102 137.38924,185.167397 139.151715,208.190282 C139.641904,214.636249 140.015053,219.959921 140.140354,223.094085 C140.149992,223.209757 140.086653,223.317167 139.970991,223.4232 C139.783728,223.600839 139.454641,223.761954 139.001629,223.921692 C138.760666,224.001561 138.475641,224.082807 138.164453,224.162675 C138.154815,224.162675 138.136915,224.170938 138.119015,224.170938 C126.527985,227.064118 68.3786897,227.49238 53.7336208,224.918675 C53.2351707,224.838807 52.7986827,224.750675 52.4076335,224.651528 C52.2740709,224.625364 52.1405083,224.589561 52.0248459,224.553757 C51.8816447,224.517954 51.7480821,224.482151 51.6241581,224.438085 C51.6145196,224.429823 51.6062579,224.429823 51.5966194,224.429823 C51.1422312,224.28661 50.814521,224.135134 50.6093578,223.975397 C50.4661567,223.859725 50.3862945,223.744052 50.3780329,223.618741 C50.1453311,219.897954 50.2348318,214.439331 50.501957,208.208184 C51.4272565,187.053954 54.4909345,157.041167 54.4454956,156.11579 C54.730521,152.32202 54.7484211,148.743069 54.6065969,145.253626 C53.875445,145.369298 53.1374084,145.529036 52.3718332,145.743856 C52.3539331,145.743856 52.3442945,145.743856 52.3263944,145.752118 C51.8375828,145.87743 51.3391328,146.028905 50.8406827,146.196905 C50.6630582,146.260249 50.4840568,146.313954 50.3064324,146.375921 C38.2348529,150.648905 23.5718838,164.493757 22.423521,178.943134 C20.2424577,206.356052 32.3154141,219.728577 40.8166039,221.241954 L40.8606658,221.624774 L40.878566,221.820315 L40.8964661,221.989692 L41.3233156,225.819266 L41.3329542,225.951462 L41.3687544,226.254413 L41.377016,226.299856 L41.377016,226.308118 L41.4128163,226.681298 L41.4307165,226.816249 L41.9732284,231.747462 L41.9911286,231.952643 L42.0172903,232.157823 L42.0627291,232.548905 L42.3918163,235.6032 L42.4179781,235.798741 L42.4372551,235.97638 L42.4895786,236.422544 L42.5336405,236.857692 C41.6716799,236.600184 40.8345041,236.333036 40.0069668,236.047987 C-0.286249786,222.649298 -2.67247623,189.600118 1.44042532,167.173495 C6.36434093,140.321036 41.857566,116.718413 46.2472312,113.78943 C46.5680568,113.575987 46.8957671,113.380446 47.2441314,113.211069 C54.0448079,109.889626 62.4620048,105.695134 69.769393,103.851266 C71.8086321,103.334872 74.1026039,104.049561 75.8375407,103.756249 C79.4079302,103.132446 82.1686827,103.008511 83.4409696,103.586872 C83.5924324,103.640577 83.7259949,103.720446 83.8333958,103.809954 C84.5535322,104.396577 85.4347699,104.886807 86.3793466,105.30543 C86.6629949,105.429364 86.9672973,105.546413 87.2688459,105.662085 L87.286746,105.847987 C87.3941468,106.942741 87.8388965,107.975528 88.5425097,108.804511 C88.8082579,109.123987 89.1125603,109.418675 89.4595477,109.676184 L96.7765744,115.125167 L96.7765744,117.617626 L96.973476,117.617626 L96.9899992,117.617626 L96.9899992,115.125167 L104.318041,109.676184 C104.665029,109.418675 104.966577,109.123987 105.233702,108.804511 C105.937316,107.975528 106.373804,106.942741 106.479828,105.847987 L106.64919,104.192774 C106.836453,104.067462 107.005816,103.933889 107.175179,103.809954 C107.210979,103.782413 107.237141,103.756249 107.272941,103.728708 C107.860892,103.257757 108.937655,103.106282 110.388943,103.239856 C112.284981,103.409233 114.80477,104.049561 117.697708,105.038282 C118.934195,105.465167 121.005103,104.822085 122.358629,105.374282 C128.028843,107.672577 133.738988,112.090151 139.402317,115.685626 C152.00677,122.292708 177.094505,141.185823 181.937182,167.582479 C185.82702,188.834479 183.896559,219.612905 149.416757,234.195856" id="Fill-335" fill="#E58585"></path>
            <path d="M71.7167906,237.517436 C71.7167906,237.517436 65.9267835,250.040321 59.1949537,253.945633 L71.7167906,237.517436 Z" id="Fill-337" fill="#666666"></path>
            <path d="M118.558705,237.517436 C118.558705,237.517436 124.348712,250.040321 131.080542,253.945633 L118.558705,237.517436 Z" id="Fill-339" fill="#666666"></path>
            <path d="M139.791576,147.601082 C139.773676,147.515705 132.744429,131.598393 132.744429,131.598393 C132.744429,131.598393 134.0057,145.736557 134.019469,145.765475 C134.606043,145.826066 138.378842,146.963508 139.791576,147.601082" id="Fill-341" fill="#883434"></path>
            <path d="M48.3882257,147.067889 C48.4061259,146.982511 55.4353734,131.0652 55.4353734,131.0652 C55.4353734,131.0652 54.7868376,145.152413 54.673929,145.15379 C54.0873551,145.21438 49.8009599,146.430315 48.3882257,147.067889" id="Fill-343" fill="#883434"></path>
            <path d="M95.8070752,232.7724 C130.856928,232.7724 140.971884,226.84558 140.971884,226.84558 L139.605966,214.322695 C139.605966,214.322695 130.856928,219.919023 95.8070752,219.919023 L94.708282,219.919023 C59.6598066,219.919023 50.3007869,214.091351 50.3007869,214.091351 L49.9964845,226.783613 C49.9964845,226.783613 59.6598066,232.7724 94.708282,232.7724 L95.8070752,232.7724 Z" id="Fill-345" fill="#2B5165"></path>
            <path d="M101.359148,234.203154 L92.5894561,234.203154 C91.9780975,234.203154 91.4810243,233.707416 91.4810243,233.09463 L91.4810243,219.167154 C91.4810243,218.554367 91.9780975,218.057252 92.5894561,218.057252 L101.359148,218.057252 C101.971884,218.057252 102.46758,218.554367 102.46758,219.167154 L102.46758,233.09463 C102.46758,233.707416 101.971884,234.203154 101.359148,234.203154" id="Fill-347" fill="#C7C7C7"></path>
            <path d="M96.9741644,37.1190492 L124.174117,37.1190492 C124.174117,37.1190492 123.95243,83.3011475 124.174117,83.6715738 C124.39718,84.042 115.655027,89.6011475 96.9741644,89.6011475 C78.2933023,89.6011475 69.5511489,84.042 69.7742122,83.6715738 C69.9958986,83.3011475 69.7742122,37.1190492 69.7742122,37.1190492 L96.9741644,37.1190492 Z" id="Fill-349" fill="#F4D9CE"></path>
            <path d="M85.5782464,53.2301115 C85.5782464,55.653718 84.5634461,57.6201443 83.3118132,57.6201443 C82.0588034,57.6201443 81.04538,55.653718 81.04538,53.2301115 C81.04538,50.8065049 82.0588034,48.8400787 83.3118132,48.8400787 C84.5634461,48.8400787 85.5782464,50.8065049 85.5782464,53.2301115" id="Fill-351" fill="#383838"></path>
            <path d="M112.825703,53.2301115 C112.825703,55.653718 111.810903,57.6201443 110.55927,57.6201443 C109.307637,57.6201443 108.292836,55.653718 108.292836,53.2301115 C108.292836,50.8065049 109.307637,48.8400787 110.55927,48.8400787 C111.810903,48.8400787 112.825703,50.8065049 112.825703,53.2301115" id="Fill-353" fill="#383838"></path>
            <g id="Group-358" transform="translate(87.825540, 78.114754)">
                <path d="M0.189879184,0.196793443 C0.189879184,2.44551475 18.1313278,2.44551475 18.1313278,0.196793443" id="Fill-355" fill="#E58585"></path>
                <path d="M0.189879184,0.196793443 C0.189879184,2.44551475 18.1313278,2.44551475 18.1313278,0.196793443" id="Stroke-357" stroke="#E58585" stroke-linecap="round" stroke-linejoin="round"></path>
            </g>
            <path d="M96.4081069,63.2978557 C96.6600858,62.5267082 97.2893446,62.5267082 97.5413235,63.2978557 L98.447346,66.078118 L99.3561224,68.8570033 C99.6067243,69.6281508 99.2927834,70.5907082 98.7888256,70.5907082 L96.9740267,70.5907082 L95.1592279,70.5907082 C94.656647,70.5907082 94.3413291,69.6281508 94.593308,68.8570033 L95.5007075,66.078118 L96.4081069,63.2978557 Z" id="Fill-359" fill="#E58585"></path>
            <path d="M96.4081069,63.2978557 C96.6600858,62.5267082 97.2893446,62.5267082 97.5413235,63.2978557 L98.447346,66.078118 L99.3561224,68.8570033 C99.6067243,69.6281508 99.2927834,70.5907082 98.7888256,70.5907082 L96.9740267,70.5907082 L95.1592279,70.5907082 C94.656647,70.5907082 94.3413291,69.6281508 94.593308,68.8570033 L95.5007075,66.078118 L96.4081069,63.2978557 Z" id="Stroke-361" stroke="#E58585" stroke-linecap="round" stroke-linejoin="round"></path>
            <g id="Group-365" transform="translate(53.025259, 0.000000)">
                <mask id="mask-2" fill="white">
                    <use xlink:href="#path-1"></use>
                </mask>
                <g id="Clip-364"></g>
                <path d="M1.46168242,16.1978164 C1.46168242,16.1978164 -6.29045541,37.1193246 16.1232745,37.1193246 L68.0295516,37.1193246 L68.0295516,55.1173574 L74.5176641,55.1173574 L74.5176641,25.8536852 C74.5176641,19.5247672 72.0240368,13.3831279 67.3823927,9.07984918 C62.7875643,4.81788197 55.4471297,0.944242623 43.9483547,0.944242623 C21.592456,0.944242623 14.4709539,11.7843738 13.0403195,14.4944066 C12.6176008,15.2958492 12.0902352,16.046341 11.4031451,16.6384721 C9.71089339,18.0981443 6.41451364,19.6101443 1.46168242,16.1978164" id="Fill-363" fill="#2B5165" mask="url(#mask-2)"></path>
            </g>
            <polygon id="Fill-366" fill="#2B5165" points="65.1915008 55.1177705 71.8269453 55.1177705 71.8269453 27.5946885 65.1915008 27.5946885"></polygon>
            <path d="M71.1486677,55.6991607 C71.1486677,59.4860459 71.2230221,65.2448656 68.2543526,65.2448656 C65.2856831,65.2448656 60.3975678,59.4860459 60.3975678,55.6991607 C60.3975678,51.9122754 62.8030713,48.8414557 65.7731177,48.8414557 C68.7417872,48.8414557 71.1486677,51.9122754 71.1486677,55.6991607" id="Fill-368" fill="#F4D9CE"></path>
            <path d="M121.593605,55.6991607 C121.593605,59.4860459 121.51925,65.2448656 124.48792,65.2448656 C127.456589,65.2448656 132.344705,59.4860459 132.344705,55.6991607 C132.344705,51.9122754 129.939201,48.8414557 126.969155,48.8414557 C124.000485,48.8414557 121.593605,51.9122754 121.593605,55.6991607" id="Fill-369" fill="#F4D9CE"></path>
            <path d="M106.756591,103.097056 L106.64919,104.19181 L106.479828,105.8484 C106.373804,106.943154 105.937316,107.975941 105.233702,108.804925 C104.966577,109.1244 104.663652,109.417711 104.318041,109.676597 L96.9899992,115.12558 L96.9899992,117.618039 L96.973476,117.618039 L96.7765744,117.618039 L96.7765744,115.12558 L89.4581707,109.676597 C89.1125603,109.417711 88.8082579,109.1244 88.5411328,108.804925 C87.8388965,107.975941 87.3927699,106.943154 87.286746,105.8484 L87.2688459,105.661121 L87.1173831,104.183548 C89.4678093,105.270039 92.49431,106.346892 96.9899992,106.346892 C101.503588,106.346892 104.699452,104.708203 106.756591,103.097056" id="Fill-370" fill="#F4D9CE"></path>
            <path d="M89.4588592,109.676459 L96.7758859,115.125443 L96.7758859,117.617902 C96.6258001,117.617902 96.4743374,117.617902 96.3228747,117.609639 C93.5097987,117.582098 90.9996482,117.360393 88.7469844,116.995475 C84.6340828,116.327607 81.402419,115.18741 78.8647298,113.853049 C72.6864274,110.601836 70.6306651,106.248984 70.1404767,104.984852 C70.0523529,104.753508 70.0165526,104.619934 70.0165526,104.619934 C70.2919394,104.530426 75.2957172,102.652131 79.0437312,102.055869 C79.9869309,101.912656 80.8585301,101.842426 81.5538817,101.904393 C82.1225554,101.958098 82.6747059,102.117836 83.2626567,102.340918 C84.2072333,102.705836 85.2123951,103.248393 86.3786581,103.826754 C86.6182446,103.942426 86.859208,104.067738 87.1180716,104.18341 L87.2695343,105.660984 L87.2860575,105.848262 C87.3934584,106.943016 87.838208,107.975803 88.5418212,108.804787 C88.8089464,109.124262 89.1118719,109.418951 89.4588592,109.676459" id="Fill-371" fill="#92E0EA"></path>
            <path d="M121.712572,105.991062 C121.712572,105.991062 121.685033,106.178341 121.605171,106.507456 C121.240284,107.797751 119.878496,111.252767 114.964219,113.968308 C112.587631,115.286144 109.373867,116.424964 105.046164,117.066669 C102.821039,117.395784 100.302627,117.600964 97.444112,117.617489 L96.9897238,117.617489 L96.9897238,115.12503 L104.317766,109.676046 C104.664753,109.418538 104.966302,109.123849 105.233427,108.804374 C105.93704,107.97539 106.373528,106.942603 106.479552,105.847849 L106.650292,104.192636 L106.756316,103.096505 C106.907779,102.980833 107.041341,102.865161 107.174904,102.759128 C108.857517,101.343521 109.640992,100.043587 109.640992,100.043587 L109.685054,100.061489 L110.157343,100.292833 L117.972819,104.14857 L121.712572,105.991062 Z" id="Fill-372" fill="#92E0EA"></path>
            <path d="M117.973095,104.14802 L117.697708,105.037593 L114.964494,113.967757 L110.050217,130.037921 L105.046439,117.066118 L104.344203,115.24979 L97.4443873,117.618315 L96.973476,117.618315 L96.9899992,115.125856 L104.318041,109.676872 C104.663652,109.417987 104.966577,109.124675 105.233702,108.803823 C105.937316,107.976216 106.373804,106.94343 106.479828,105.848675 L106.64919,104.192085 L106.756591,103.097331 L107.175179,98.9303803 L109.641268,100.044413 L109.68533,100.060938 L110.139718,100.27438 L112.17758,101.192872 L117.973095,104.14802 Z" id="Fill-373" fill="#69BAC9"></path>
            <path d="M104.343652,115.24979 C104.343652,115.24979 116.11506,98.9303803 107.174628,98.9303803" id="Stroke-374" stroke="#92E0EA"></path>
            <path d="M96.9902745,115.125443 L96.9723744,117.617902 L96.3224616,117.609639 L89.4226459,115.249377 L88.7465713,116.995475 L83.7166318,130.038885 L78.8643167,113.853049 L75.837816,103.756525 L75.6698301,103.194689 L79.0433181,102.055869 L81.5892689,101.192459 L83.6271311,100.275344 L86.378245,99.0291148 L86.5916698,98.9299672 L87.1176585,104.18341 L87.2691212,105.660984 L87.2870214,105.848262 C87.3930453,106.943016 87.8391719,107.975803 88.5414082,108.804787 C88.8085333,109.124262 89.1114588,109.417574 89.4584461,109.676459 L96.9902745,115.125443 Z" id="Fill-375" fill="#69BAC9"></path>
            <path d="M89.4259505,115.24979 C89.4259505,115.24979 77.6559196,98.9303803 86.5949744,98.9303803" id="Stroke-376" stroke="#92E0EA"></path>
            <path d="M50.9760353,240.108079 C52.336446,241.317128 53.6046021,243.132079 54.0603672,244.741849 C54.1856682,245.183882 54.0011591,247.077325 53.0414361,246.650439 C51.9949664,246.184997 51.2624376,244.962177 50.2490142,244.360407 C49.4035768,243.860538 48.5595163,243.370308 47.6782786,242.922767 C47.0490198,242.603292 46.3963532,242.327882 45.7698482,242.009784 C43.588785,240.901259 37.5137526,237.753325 40.8349172,234.995095 L50.9760353,240.108079 Z" id="Fill-377" fill="#F4D9CE"></path>
            <path d="M41.6528159,231.841102 C41.0786345,232.358872 40.2455895,233.950741 40.6834544,234.537364 C41.9075487,236.16779 44.5127076,236.861823 46.3385219,237.672905 C48.7261253,238.73461 50.8300803,240.030413 53.0221591,241.331725 C54.0135515,241.918348 56.7811886,244.034872 57.6459031,243.024118 C59.3546781,241.02602 54.9429819,236.28897 54.2999537,235.716118 L41.6528159,231.841102 Z" id="Fill-378" fill="#F4D9CE"></path>
            <path d="M44.8059945,236.906164 C43.630093,236.428328 41.9075487,235.814164 41.0194263,234.928721 C40.8252786,234.965902 40.8349172,234.99482 40.6793236,235.12977 C42.27519,236.720262 44.7522941,237.350951 46.8273335,238.280459 C47.6645093,238.655016 48.0541816,238.754164 50.2049523,239.802098 C50.6965177,240.041705 50.9898046,240.150492 51.0200972,240.143607 C49.5288778,238.977246 46.1264741,237.410164 44.8059945,236.906164" id="Fill-379" fill="#E2C3B5"></path>
            <path d="M41.3764653,226.30137 C41.00607,226.704846 40.6687212,227.317633 40.3726805,228.285698 C40.049101,229.34878 40.4373963,230.71619 41.3103724,231.688387 C42.0924709,232.560059 44.4924667,232.721174 45.7124301,232.989698 C48.5929758,233.627272 51.6387536,234.573305 54.150281,235.815403 C54.7781629,236.125239 57.3433907,238.171534 58.5606003,236.203731 C59.5313387,234.636649 55.69107,231.171993 54.1131038,230.493108 L41.3764653,226.30137 Z" id="Fill-380" fill="#F4D9CE"></path>
            <path d="M53.2168575,235.354367 C52.2667731,234.937121 51.9487014,234.796662 50.9421627,234.416597 C48.9607549,233.689515 47.5012049,233.007875 45.4137731,232.579613 C44.2970798,232.370302 43.1335706,232.382695 42.0513006,232.05358 C41.8034525,231.977843 41.6161895,231.922761 41.5735045,231.917252 C41.5666198,231.936531 41.5817661,231.869056 41.4344342,232.074236 C41.4605959,232.1004 41.5803892,232.173384 41.6093048,232.19817 C42.2220404,232.67463 42.6488899,232.762761 43.4213498,232.929384 C44.980039,233.191023 46.5428589,233.482957 48.0533554,233.923613 C50.4726283,234.6204 54.3032584,236.059416 54.7218463,236.175089 C54.7562696,236.17922 54.7604004,236.180597 54.7631543,236.180597 C54.2468041,235.957515 53.6079068,235.578826 53.2168575,235.354367" id="Fill-381" fill="#E2C3B5"></path>
            <path d="M50.1275686,221.317554 C50.1275686,220.736439 50.1771383,220.385292 50.1495996,220.38803 C49.0673295,220.459652 49.3317008,220.484439 48.2563155,220.593226 C46.2804153,220.795652 43.454947,220.769489 41.5892016,221.401554 C40.3458302,221.822931 39.413646,223.679193 39.8432494,224.820767 C40.2535757,225.91139 42.4580468,226.887718 43.5885096,227.174144 C47.2731847,228.10503 51.1492536,229.490341 54.7430511,230.686997 C56.0235996,231.115259 58.9771228,232.095718 59.3723028,231.806538 C62.9468232,229.190144 50.0628527,225.418407 50.0628527,224.004177 C50.0628527,223.012702 50.1275686,221.317554 50.1275686,221.317554" id="Fill-382" fill="#F4D9CE"></path>
            <path d="M42.9383214,226.603908 C42.5403875,226.45381 41.7403889,226.455187 41.3686167,226.254138 C41.2722314,226.424892 41.2749852,226.394597 41.1772229,226.543318 C41.7045886,226.833875 42.2732623,227.081744 42.7841048,227.285548 C46.3049248,228.249482 52.2078404,230.22417 54.1479402,230.491318 C54.1300401,230.27099 47.3734255,227.815711 42.9383214,226.603908" id="Fill-383" fill="#E2C3B5"></path>
            <path d="M50.3547627,224.440839 C50.1909076,224.440839 49.2380693,223.958872 48.2838542,223.643528 C46.9000356,223.187725 44.4380778,222.657561 43.600902,222.871003 L43.9864435,222.638282 C44.9916052,222.37802 46.6962494,222.46202 48.9778288,223.215266 C49.4680173,223.377757 49.7117346,223.646282 49.9513211,223.898282 L50.2253309,224.315528 C50.2129385,224.316905 50.3671551,224.440839 50.3547627,224.440839" id="Fill-384" fill="#E2C3B5"></path>
            <path d="M139.419804,239.061934 C138.059393,240.270984 136.792614,242.085934 136.335472,243.695705 C136.210171,244.137738 136.396057,246.03118 137.354403,245.604295 C138.40225,245.138852 139.133402,243.916033 140.146825,243.314262 C140.992263,242.814393 141.8377,242.324164 142.717561,241.876623 C143.34682,241.557148 143.999486,241.281738 144.625991,240.963639 C146.807054,239.855115 152.882087,236.70718 149.560922,233.948951 L139.419804,239.061934 Z" id="Fill-385" fill="#F4D9CE"></path>
            <path d="M148.743712,230.79482 C149.317893,231.31259 150.150938,232.904459 149.711696,233.491082 C148.488979,235.121508 145.88382,235.815541 144.058006,236.626623 C141.670403,237.688328 139.566448,238.984131 137.374369,240.285443 C136.381599,240.872066 133.615339,242.98859 132.750625,241.977836 C131.040473,239.979738 135.453546,235.242689 136.096574,234.669836 L148.743712,230.79482 Z" id="Fill-386" fill="#F4D9CE"></path>
            <path d="M145.589845,235.86002 C146.765746,235.382184 148.488291,234.76802 149.376413,233.882577 C149.570561,233.919757 149.560922,233.948675 149.716516,234.083626 C148.120649,235.674118 145.643545,236.304807 143.569883,237.234315 C142.732707,237.608872 142.341658,237.70802 140.190887,238.755954 C139.699322,238.995561 139.406035,239.104348 139.375742,239.097462 C140.866962,237.931102 144.269365,236.36402 145.589845,235.86002" id="Fill-387" fill="#E2C3B5"></path>
            <path d="M149.020063,225.255089 C149.390458,225.658564 149.727807,226.271351 150.02247,227.239416 C150.347427,228.302498 149.959132,229.669908 149.086155,230.642105 C148.304057,231.513777 145.902684,231.674892 144.684098,231.943416 C141.802175,232.58099 138.757774,233.527023 136.246247,234.769121 C135.616988,235.078957 133.053137,237.125252 131.835928,235.157449 C130.863812,233.590367 134.705458,230.125711 136.282047,229.446826 L149.020063,225.255089 Z" id="Fill-388" fill="#F4D9CE"></path>
            <path d="M137.178982,234.308085 C138.130443,233.890839 138.447138,233.75038 139.453677,233.370315 C141.435085,232.643233 142.894634,231.961593 144.982066,231.533331 C146.09876,231.32402 147.262269,231.336413 148.344539,231.007298 C148.592387,230.931561 148.77965,230.876479 148.822335,230.87097 C148.82922,230.890249 148.814073,230.822774 148.961405,231.027954 C148.935243,231.054118 148.81545,231.127102 148.786535,231.151889 C148.173799,231.628348 147.74695,231.716479 146.97449,231.883102 C145.4158,232.144741 143.85298,232.436675 142.343861,232.877331 C139.924588,233.574118 136.092581,235.013134 135.673993,235.128807 C135.640947,235.132938 135.636816,235.134315 135.634062,235.134315 C136.149035,234.911233 136.787933,234.532544 137.178982,234.308085" id="Fill-389" fill="#E2C3B5"></path>
            <path d="M140.416153,220.26659 C140.416153,219.685475 140.321145,219.346721 140.348684,219.348094 C141.430954,219.421082 141.064689,219.437607 142.138698,219.54777 C144.115975,219.750197 146.941443,219.722656 148.805812,220.354721 C150.05056,220.777475 150.981367,222.633738 150.553141,223.773934 C150.141438,224.864557 147.936966,225.840885 146.806504,226.127311 C143.123205,227.058197 139.247137,228.443508 135.654716,229.641541 C134.372791,230.068426 131.419267,231.050262 131.024087,230.761082 C127.449567,228.144689 140.023727,224.372951 140.350061,222.995902 C140.592401,221.975508 140.416153,220.26659 140.416153,220.26659" id="Fill-390" fill="#F4D9CE"></path>
            <path d="M147.457518,225.557626 C147.855452,225.407528 148.65545,225.408905 149.0286,225.207856 C149.124985,225.37861 149.120854,225.348315 149.218616,225.497036 C148.691251,225.787593 148.122577,226.035462 147.611735,226.239266 C144.090915,227.2032 138.187999,229.177889 136.247899,229.445036 C136.265799,229.224708 143.022414,226.76943 147.457518,225.557626" id="Fill-391" fill="#E2C3B5"></path>
            <path d="M140.041077,223.394557 C140.204932,223.394557 141.15777,222.91259 142.111985,222.597246 C143.497181,222.141443 145.959139,221.611279 146.796314,221.824721 L146.410773,221.592 C145.404234,221.331738 143.69959,221.415738 141.418011,222.168984 C140.927822,222.331475 140.685482,222.6 140.444518,222.852 L140.170508,223.269246 C140.182901,223.270623 140.028684,223.394557 140.041077,223.394557" id="Fill-392" fill="#E2C3B5"></path>
            <polygon id="Fill-393" fill="#D6948B" points="86.3789335 88.9487016 86.3348716 92.8650295 107.174766 91.815718 107.174766 88.9982754"></polygon>
        </g>
    </g>
</svg>