<?xml version="1.0" encoding="UTF-8"?>
<svg width="500px" height="500px" viewBox="0 0 500 500" version="1.1" xmlns="http://www.w3.org/2000/svg" xmlns:xlink="http://www.w3.org/1999/xlink">
    <!-- Generator: Sketch 62 (91390) - https://sketch.com -->
    <title>use-case-travel</title>
    <desc>Created with Sketch.</desc>
    <defs>
        <polygon id="path-1" points="0.5994 0.6682 192.942 0.6682 192.942 122.5902 0.5994 122.5902"></polygon>
        <polygon id="path-3" points="0.803613298 0.5931 18.6385254 0.5931 18.6385254 16 0.803613298 16"></polygon>
        <polygon id="path-5" points="1 0.5 1.5 0.5 1.5 1 1 1"></polygon>
        <path d="M0.568,32.258 C0.568,49.9 14.869,64.203 32.513,64.203 L32.513,64.203 C50.155,64.203 64.458,49.9 64.458,32.258 L64.458,32.258 C64.458,14.614 50.155,0.312 32.513,0.312 L32.513,0.312 C14.869,0.312 0.568,14.614 0.568,32.258" id="path-7"></path>
        <path d="M0.568,32.258 C0.568,49.9 14.869,64.203 32.513,64.203 L32.513,64.203 C50.155,64.203 64.458,49.9 64.458,32.258 L64.458,32.258 C64.458,14.614 50.155,0.312 32.513,0.312 L32.513,0.312 C14.869,0.312 0.568,14.614 0.568,32.258 L0.568,32.258 Z" id="path-9"></path>
        <path d="M0.568,32.258 C0.568,49.9 14.869,64.203 32.513,64.203 L32.513,64.203 C50.155,64.203 64.458,49.9 64.458,32.258 L64.458,32.258 C64.458,14.614 50.155,0.312 32.513,0.312 L32.513,0.312 C14.869,0.312 0.568,14.614 0.568,32.258" id="path-11"></path>
        <path d="M0.568,32.258 C0.568,49.9 14.869,64.203 32.513,64.203 L32.513,64.203 C50.155,64.203 64.458,49.9 64.458,32.258 L64.458,32.258 C64.458,14.614 50.155,0.312 32.513,0.312 L32.513,0.312 C14.869,0.312 0.568,14.614 0.568,32.258" id="path-13"></path>
        <path d="M0.568,32.258 C0.568,49.9 14.869,64.203 32.513,64.203 L32.513,64.203 C50.155,64.203 64.458,49.9 64.458,32.258 L64.458,32.258 C64.458,14.614 50.155,0.312 32.513,0.312 L32.513,0.312 C14.869,0.312 0.568,14.614 0.568,32.258 L0.568,32.258 Z" id="path-15"></path>
        <path d="M0.568,32.258 C0.568,49.9 14.869,64.203 32.513,64.203 L32.513,64.203 C50.155,64.203 64.458,49.9 64.458,32.258 L64.458,32.258 C64.458,14.614 50.155,0.312 32.513,0.312 L32.513,0.312 C14.869,0.312 0.568,14.614 0.568,32.258 L0.568,32.258 Z" id="path-17"></path>
        <path d="M0.568,32.258 C0.568,49.9 14.869,64.203 32.513,64.203 L32.513,64.203 C50.155,64.203 64.458,49.9 64.458,32.258 L64.458,32.258 C64.458,14.614 50.155,0.312 32.513,0.312 L32.513,0.312 C14.869,0.312 0.568,14.614 0.568,32.258" id="path-19"></path>
        <path d="M0.568,32.258 C0.568,49.9 14.869,64.203 32.513,64.203 L32.513,64.203 C50.155,64.203 64.458,49.9 64.458,32.258 L64.458,32.258 C64.458,14.614 50.155,0.312 32.513,0.312 L32.513,0.312 C14.869,0.312 0.568,14.614 0.568,32.258" id="path-21"></path>
        <path d="M0.568,32.258 C0.568,49.9 14.869,64.203 32.513,64.203 L32.513,64.203 C50.155,64.203 64.458,49.9 64.458,32.258 L64.458,32.258 C64.458,14.614 50.155,0.312 32.513,0.312 L32.513,0.312 C14.869,0.312 0.568,14.614 0.568,32.258" id="path-23"></path>
        <path d="M0.568,32.258 C0.568,49.9 14.869,64.203 32.513,64.203 L32.513,64.203 C50.155,64.203 64.458,49.9 64.458,32.258 L64.458,32.258 C64.458,14.614 50.155,0.312 32.513,0.312 L32.513,0.312 C14.869,0.312 0.568,14.614 0.568,32.258" id="path-25"></path>
        <path d="M0.568,32.258 C0.568,49.9 14.869,64.203 32.513,64.203 L32.513,64.203 C50.155,64.203 64.458,49.9 64.458,32.258 L64.458,32.258 C64.458,14.614 50.155,0.312 32.513,0.312 L32.513,0.312 C14.869,0.312 0.568,14.614 0.568,32.258" id="path-27"></path>
        <path d="M0.568,32.258 C0.568,49.9 14.869,64.203 32.513,64.203 L32.513,64.203 C50.155,64.203 64.458,49.9 64.458,32.258 L64.458,32.258 C64.458,14.614 50.155,0.312 32.513,0.312 L32.513,0.312 C14.869,0.312 0.568,14.614 0.568,32.258" id="path-29"></path>
        <path d="M0.974,32.258 C0.974,49.858 15.243,64.127 32.843,64.127 L32.843,64.127 C50.444,64.127 64.713,49.858 64.713,32.258 L64.713,32.258 C64.713,14.656 50.444,0.388 32.843,0.388 L32.843,0.388 C15.243,0.388 0.974,14.656 0.974,32.258 L0.974,32.258 Z" id="path-31"></path>
    </defs>
    <g id="use-case-travel" stroke="none" stroke-width="1" fill="none" fill-rule="evenodd">
        <rect fill="#FFFFFF" x="0" y="0" width="500" height="500"></rect>
        <g id="Group-202" transform="translate(34.000000, 19.000000)">
            <g id="Group-144" transform="translate(0.000000, 0.332000)">
                <g id="Group-4" transform="translate(16.000000, 4.000000)">
                    <path d="M376.8817,156.5803 C303.9917,99.3903 235.3897,0.7623 235.3897,0.7623 L214.9367,0.7623 L191.0577,0.7623 L171.6607,0.7623 C171.6607,0.7623 44.1727,153.9623 0.3287,188.3633" id="Fill-1" fill="#FFFFFF"></path>
                    <path d="M376.8817,156.5803 C303.9917,99.3903 235.3897,0.7623 235.3897,0.7623 L214.9367,0.7623 L191.0577,0.7623 L171.6607,0.7623 C171.6607,0.7623 44.1727,153.9623 0.3287,188.3633" id="Stroke-3" stroke="#CBCBCB" stroke-width="2.863"></path>
                </g>
                <path d="M309.3905,57.8327 C315.1155,62.3187 319.8675,70.9337 319.8675,77.1137 C319.8675,91.5667 301.1215,103.3247 278.0805,103.3247 C277.7215,103.3247 277.3635,103.3217 277.0045,103.3167 C268.7685,103.1857 260.9855,106.5817 255.1225,112.3697 C246.5375,120.8447 231.4385,126.4787 214.2795,126.4787 C187.6175,126.4787 165.9265,112.8727 165.9265,96.1477 L165.9265,96.1257 C165.9275,95.0327 164.9935,94.1727 163.9135,94.3517 C161.0035,94.8357 157.9885,95.0857 154.9395,95.0857 C135.5195,95.0857 127.9955,88.4977 125.3315,77.4727" id="Stroke-5" stroke="#CBCBCB" stroke-width="2.89"></path>
                <path d="M284.246,113.4514 C264.667,113.4514 248.739,97.5234 248.739,77.9444 C248.739,58.3664 264.667,42.4374 284.246,42.4374 C289.002,42.4374 293.615,43.3674 297.958,45.2014 L299.621,45.9044 L299.926,44.1244 C303.33,24.2404 320.455,9.8074 340.645,9.8074 C363.425,9.8074 381.957,28.3404 381.957,51.1204 C381.957,52.1184 381.92,53.1244 381.846,54.1114 L381.685,56.2584 L383.727,55.5754 C386.759,54.5624 389.912,54.0484 393.101,54.0484 C409.479,54.0484 422.803,67.3724 422.803,83.7494 C422.803,100.1274 409.479,113.4514 393.101,113.4514 L284.246,113.4514 Z" id="Fill-7" fill="#FFFFFF"></path>
                <path d="M340.6454,8.3762 C319.5414,8.3762 301.9614,23.7482 298.5144,43.8832 C294.0264,41.9872 289.2004,41.0062 284.2464,41.0062 C263.8774,41.0062 247.3074,57.5772 247.3074,77.9442 C247.3074,98.3122 263.8774,114.8822 284.2464,114.8822 L393.1014,114.8822 C410.2684,114.8822 424.2344,100.9172 424.2344,83.7502 C424.2344,66.5832 410.2684,52.6172 393.1014,52.6172 C389.7394,52.6172 386.4214,53.1662 383.2734,54.2182 C383.3504,53.1872 383.3884,52.1542 383.3884,51.1202 C383.3884,27.5512 364.2144,8.3762 340.6454,8.3762 M340.6454,11.2382 C362.6354,11.2382 380.5264,29.1292 380.5264,51.1202 C380.5264,52.0832 380.4904,53.0522 380.4184,54.0032 L380.0964,58.2982 L384.1804,56.9332 C387.0654,55.9692 390.0674,55.4802 393.1014,55.4802 C408.6894,55.4802 421.3724,68.1622 421.3724,83.7502 C421.3724,99.3382 408.6894,112.0202 393.1014,112.0202 L284.2464,112.0202 C265.4574,112.0202 250.1694,96.7332 250.1694,77.9442 C250.1694,59.1552 265.4574,43.8692 284.2464,43.8692 C288.8094,43.8692 293.2354,44.7612 297.4004,46.5202 L300.7264,47.9252 L301.3354,44.3662 C302.9024,35.2132 307.6904,26.8292 314.8154,20.7572 C322.0194,14.6192 331.1934,11.2382 340.6454,11.2382" id="Fill-9" fill="#CBCBCB"></path>
                <g id="Group-13" transform="translate(239.000000, 0.000000)">
                    <mask id="mask-2" fill="white">
                        <use xlink:href="#path-1"></use>
                    </mask>
                    <g id="Clip-12"></g>
                    <path d="M101.6454,0.6682 C89.6824,0.6682 78.0754,4.9452 68.9594,12.7122 C62.1834,18.4852 57.0804,25.9202 54.1224,34.1842 C51.2214,33.5952 48.2554,33.2982 45.2464,33.2982 C20.6274,33.2982 0.5994,53.3262 0.5994,77.9442 C0.5994,102.5622 20.6274,122.5902 45.2464,122.5902 L154.1014,122.5902 C175.5184,122.5902 192.9424,105.1672 192.9424,83.7502 C192.9424,62.3332 175.5184,44.9102 154.1014,44.9102 C153.3074,44.9102 152.5154,44.9342 151.7254,44.9822 C148.6884,20.0462 127.3874,0.6682 101.6454,0.6682 M101.6454,8.3762 C125.2144,8.3762 144.3884,27.5512 144.3884,51.1202 C144.3884,52.1542 144.3504,53.1872 144.2734,54.2182 C147.4214,53.1662 150.7394,52.6172 154.1014,52.6172 C171.2684,52.6172 185.2344,66.5832 185.2344,83.7502 C185.2344,100.9172 171.2684,114.8822 154.1014,114.8822 L45.2464,114.8822 C24.8774,114.8822 8.3074,98.3122 8.3074,77.9442 C8.3074,57.5772 24.8774,41.0062 45.2464,41.0062 C50.2004,41.0062 55.0264,41.9872 59.5144,43.8832 C62.9614,23.7482 80.5414,8.3762 101.6454,8.3762" id="Fill-11" fill="#FFFFFF" mask="url(#mask-2)"></path>
                </g>
                <path d="M24.0682,151.9055 C15.8562,151.9055 9.1752,145.2245 9.1752,137.0125 C9.1752,128.8015 15.8562,122.1205 24.0682,122.1205 C25.6662,122.1205 27.2482,122.3785 28.7682,122.8855 L30.8112,123.5695 L30.6482,121.4205 C30.6102,120.9155 30.5922,120.4105 30.5922,119.9045 C30.5922,108.3355 40.0042,98.9235 51.5722,98.9235 C61.8262,98.9235 70.5232,106.2525 72.2522,116.3515 L72.5562,118.1305 L74.2192,117.4275 C76.4122,116.5025 78.7422,116.0325 81.1442,116.0325 C91.0352,116.0325 99.0812,124.0785 99.0812,133.9685 C99.0812,143.8595 91.0352,151.9055 81.1442,151.9055 L24.0682,151.9055 Z" id="Fill-14" fill="#FFFFFF"></path>
                <path d="M51.5721,97.4919 C39.2151,97.4919 29.1611,107.5459 29.1611,119.9039 C29.1611,120.4469 29.1801,120.9879 29.2211,121.5289 C27.5711,120.9769 25.8311,120.6889 24.0681,120.6889 C15.0671,120.6889 7.7441,128.0119 7.7441,137.0129 C7.7441,146.0139 15.0671,153.3369 24.0681,153.3369 L81.1441,153.3369 C91.8241,153.3369 100.5121,144.6479 100.5121,133.9689 C100.5121,123.2899 91.8241,114.6009 81.1441,114.6009 C78.5471,114.6009 76.0161,115.1159 73.6631,116.1099 C71.8551,105.5519 62.6371,97.4919 51.5721,97.4919 M51.5721,100.3549 C61.1271,100.3549 69.2311,107.1839 70.8421,116.5929 L71.4511,120.1509 L74.7771,118.7459 C76.7931,117.8949 78.9341,117.4639 81.1441,117.4639 C90.2461,117.4639 97.6501,124.8679 97.6501,133.9689 C97.6501,143.0699 90.2461,150.4739 81.1441,150.4739 L24.0681,150.4739 C16.6451,150.4739 10.6061,144.4349 10.6061,137.0129 C10.6061,129.5909 16.6451,123.5519 24.0681,123.5519 C25.5121,123.5519 26.9401,123.7839 28.3141,124.2429 L32.3981,125.6089 L32.0761,121.3139 C32.0411,120.8489 32.0231,120.3749 32.0231,119.9039 C32.0231,109.1249 40.7931,100.3549 51.5721,100.3549" id="Fill-16" fill="#CBCBCB"></path>
                <path d="M51.5721,90.7478 C37.5291,90.7478 25.7721,100.7278 23.0241,113.9688 C10.7871,114.5168 1.0001,124.6438 1.0001,137.0128 C1.0001,149.7328 11.3481,160.0808 24.0681,160.0808 L81.1441,160.0808 C95.5431,160.0808 107.2571,148.3678 107.2571,133.9688 C107.2571,119.5708 95.5431,107.8568 81.1441,107.8568 C80.1591,107.8568 79.1801,107.9118 78.2131,108.0198 C73.6311,97.6948 63.3401,90.7478 51.5721,90.7478 M51.5721,97.4918 C62.6371,97.4918 71.8551,105.5518 73.6631,116.1098 C76.0161,115.1158 78.5471,114.6018 81.1441,114.6018 C91.8241,114.6018 100.5121,123.2898 100.5121,133.9688 C100.5121,144.6478 91.8241,153.3368 81.1441,153.3368 L24.0681,153.3368 C15.0671,153.3368 7.7441,146.0138 7.7441,137.0128 C7.7441,128.0118 15.0671,120.6888 24.0681,120.6888 C25.8311,120.6888 27.5711,120.9768 29.2211,121.5288 C29.1801,120.9878 29.1611,120.4468 29.1611,119.9038 C29.1611,107.5458 39.2151,97.4918 51.5721,97.4918" id="Fill-18" fill="#FFFFFF"></path>
                <path d="M294.8339,350.0544 C294.8339,350.0544 291.3929,351.6774 290.8339,352.0884 C290.0139,352.6944 288.1239,342.2374 288.1239,342.2374 L298.4139,347.1754 L294.8339,350.0544 Z" id="Fill-20" fill="#2B5165"></path>
                <path d="M304.5917,314.7634 C304.5917,314.7634 308.5917,314.0624 309.1177,313.8704 C309.8927,313.5884 309.2977,320.9934 309.2977,320.9934 L302.1537,316.2054 L304.5917,314.7634 Z" id="Fill-22" fill="#2B5165"></path>
                <path d="M266.9833,377.0749 L214.1173,377.2479 L161.3043,377.4199 C161.3043,377.4199 157.4833,357.9119 155.5993,357.9289 C153.7153,357.9449 150.0043,377.5209 150.0043,377.5209 L138.5903,377.6349 C138.5903,377.6349 137.5383,363.0659 138.3903,316.1339 C138.8293,292.0649 158.3023,283.6779 155.2173,240.8189 C149.5493,162.0749 180.6543,150.0269 198.1303,146.9179 C205.9993,145.5179 220.7753,145.4699 228.6553,146.8189 C246.1523,149.8129 277.3343,161.6579 272.1793,240.4369 C271.7763,246.6109 271.8343,252.0669 272.2333,256.9529 C274.6033,286.0209 288.9883,295.0399 289.4963,315.6409 C290.6553,362.5659 289.6973,377.1409 289.6973,377.1409 L278.2833,377.1029 C278.2833,377.1029 274.4443,357.5519 272.5613,357.5469 C270.6773,357.5429 266.9833,377.0749 266.9833,377.0749" id="Fill-24" fill="#FF3434"></path>
                <path d="M266.9833,377.0749 L214.1173,377.2479 L161.3043,377.4199 C161.3043,377.4199 157.4833,357.9119 155.5993,357.9289 C153.7153,357.9449 150.0043,377.5209 150.0043,377.5209 L138.5903,377.6349 C138.5903,377.6349 137.5383,363.0659 138.3903,316.1339 C138.8293,292.0649 158.3023,283.6779 155.2173,240.8189 C149.5493,162.0749 180.6543,150.0269 198.1303,146.9179 C205.9993,145.5179 220.7753,145.4699 228.6553,146.8189 C246.1523,149.8129 277.3343,161.6579 272.1793,240.4369 C271.7763,246.6109 271.8343,252.0669 272.2333,256.9529 C274.6033,286.0209 288.9883,295.0399 289.4963,315.6409 C290.6553,362.5659 289.6973,377.1409 289.6973,377.1409 L278.2833,377.1029 C278.2833,377.1029 274.4443,357.5519 272.5613,357.5469 C270.6773,357.5429 266.9833,377.0749 266.9833,377.0749 Z" id="Stroke-26" stroke="#FF3434" stroke-linecap="round" stroke-linejoin="round"></path>
                <path d="M195.9657,268.4509 C196.1507,268.4509 230.5697,268.3469 231.0877,268.4509 C231.6067,268.5549 227.3087,273.1839 227.3087,273.1839 C227.3087,273.1839 208.2657,274.9939 208.0067,274.8889 C207.7467,274.7849 195.5207,269.2169 195.5207,269.2169 L195.9657,268.4509 Z" id="Fill-28" fill="#2B5165"></path>
                <path d="M132.494,351.3649 C132.494,351.3649 136.439,351.9419 136.963,352.1299 C137.734,352.4049 136.816,344.1469 136.816,344.1469 L131.322,351.1459 L132.494,351.3649 Z" id="Fill-30" fill="#2B5165"></path>
                <path d="M122.996,315.0446 C122.996,315.0446 118.996,314.3436 118.47,314.1516 C117.695,313.8696 118.29,321.2746 118.29,321.2746 L124.183,315.2946 L122.996,315.0446 Z" id="Fill-32" fill="#2B5165"></path>
                <path d="M300.7274,310.8796 C281.2214,297.5986 280.9314,301.9186 270.1454,319.2566 C291.3014,337.9006 281.4434,339.7836 311.7274,355.1796 C349.0664,374.1606 393.2594,355.4076 404.0684,308.9876 C399.2744,309.2796 393.1584,307.3786 387.5914,306.5926 C370.6144,332.8566 360.4104,343.4586 330.4924,332.9696 C316.0144,327.8936 310.5174,317.5466 300.7274,310.8796 C299.8304,309.8606 300.0384,310.1256 300.7274,310.8796" id="Fill-34" fill="#F1D5C3"></path>
                <path d="M173.08,199.3498 C172.894,199.1208 163.478,195.9838 163.642,205.9958 C163.809,216.0088 170.324,214.6318 173.328,214.8758 C176.333,215.1178 173.267,199.5768 173.08,199.3498" id="Fill-36" fill="#F1D5C3"></path>
                <path d="M213.3202,251.8298 C186.2332,247.2688 179.6172,236.5488 179.1882,233.2288 C177.5792,220.8148 177.0722,179.5248 177.0722,179.5248 C189.0832,175.1588 207.1012,168.6068 213.1082,166.4228 C219.1302,168.5678 237.1992,175.0018 249.2372,179.2898 C249.2372,179.2898 248.9982,220.5818 247.4712,233.0068 C247.0662,236.3058 240.6072,246.9428 214.0222,251.7298 C213.8362,251.7638 213.3202,251.8298 213.3202,251.8298" id="Fill-38" fill="#F1D5C3"></path>
                <path d="M194.2792,199.454292 C195.9012,199.4493 197.2252,201.6703 197.234246,204.4123 C197.2432,207.1563 195.9332,209.3873 194.3112,209.392312 C192.6892,209.3983 191.3652,207.1743 191.355154,204.4323 C191.3462,201.6893 192.6562,199.4593 194.2792,199.454292" id="Fill-40" fill="#000000"></path>
                <path d="M234.5966,199.322992 C236.2186,199.318 237.5426,201.539 237.551657,204.281 C237.5616,207.024 236.2506,209.256 234.6286,209.260012 C233.0066,209.266 231.6826,207.044 231.673554,204.301 C231.6646,201.558 232.9746,199.328 234.5966,199.322992" id="Fill-42" fill="#000000"></path>
                <path d="M213.4862,222.4597 C212.7532,222.2557 211.2872,221.8487 211.0882,220.9197 C210.8102,219.6317 211.4442,216.7757 211.8212,214.7347 C212.2162,212.5927 213.1902,209.1687 213.4652,208.0547 C213.7462,209.1667 214.7422,212.5837 215.1542,214.7247 C215.5442,216.7637 216.1952,219.6137 215.9252,220.9037 C215.7322,221.8337 214.2702,222.2507 213.5402,222.4587" id="Fill-44" fill="#FF3434"></path>
                <path d="M137.955,342.4724 C155.159,317.2174 123.676,315.5154 123.676,315.5154 C123.676,315.5154 106.221,329.9634 96.734,355.8804 C85.036,387.8374 86.135,433.6064 155.167,447.5284 L152.725,426.9984 C140.623,425.0064 110.124,409.8334 120.292,374.9394 C125.213,358.0544 129.32,355.1504 137.955,342.4724" id="Fill-46" fill="#F1D5C3"></path>
                <polyline id="Fill-48" fill="#F1D5C3" points="213.1835 250.8649 201.3915 248.2569 201.0855 275.1439 213.2985 278.0059 213.6545 278.0049 225.8465 275.0629 225.3655 248.1779 213.5915 250.8639"></polyline>
                <path d="M214.0741,419.0065 C214.0741,419.0065 166.3441,419.4155 166.0071,414.0385 C164.7361,393.7095 170.0011,333.3775 170.0011,333.3775 C170.0011,333.3775 135.7071,358.3905 136.6631,350.9925 C137.8261,341.9955 125.6801,320.3335 118.3251,314.9235 C114.4681,312.0865 189.2981,261.5975 198.8961,269.2505 C203.6511,273.0405 213.5991,273.6765 213.5991,273.6765 C213.5991,273.6765 223.5461,272.9765 228.2751,269.1545 C237.8241,261.4395 312.9811,311.4395 309.1411,314.3015 C301.8231,319.7585 289.9671,341.9215 291.1881,350.9105 C292.1921,358.3015 257.5891,333.0915 257.5891,333.0915 C257.5891,333.0915 263.2451,393.3885 262.1071,413.7255 C261.8051,419.1055 214.0741,419.0065 214.0741,419.0065" id="Fill-50" fill="#69BAC9"></path>
                <g id="Group-54" transform="translate(143.000000, 444.000000)">
                    <mask id="mask-4" fill="white">
                        <use xlink:href="#path-3"></use>
                    </mask>
                    <g id="Clip-53"></g>
                    <path d="M14.7303,7.3161 C16.4343,8.9061 18.0233,11.2921 18.5953,13.4101 C18.7513,13.9901 18.5203,16.4781 17.3183,15.9191 C16.0063,15.3071 15.0883,13.6981 13.8183,12.9071 C12.7603,12.2501 11.7013,11.6051 10.5973,11.0161 C9.8103,10.5971 8.9923,10.2361 8.2063,9.8161 C5.4733,8.3581 -2.1397,4.2201 2.0223,0.5931" id="Fill-52" fill="#F1D5C3" mask="url(#mask-4)"></path>
                </g>
                <path d="M146.0468,440.448 C145.3278,441.129 144.2828,443.221 144.8328,443.993 C146.3658,446.136 149.6308,447.049 151.9188,448.115 C154.9108,449.511 157.5468,451.215 160.2938,452.926 C161.5368,453.697 165.0048,456.48 166.0888,455.151 C168.2308,452.524 162.7008,446.296 161.8948,445.543" id="Fill-55" fill="#F1D5C3"></path>
                <path d="M157.785,451.362 C155.916,449.829 151.654,447.768 149.999,447.106 C148.492,446.465 146.692,445.374 145.586,444.18 C145.432,443.993 145.223,443.811 145.162,443.576 C145.087,442.933 145.431,442.31 145.763,441.768 C145.926,441.496 146.155,441.264 146.361,441.023 C146.527,440.754 146.33,440.393 146,440.359 C145.646,440.324 145.447,440.659 145.25,440.88 C144.904,441.323 144.617,441.812 144.417,442.329 C144.241,442.799 144.118,443.317 144.241,443.811 C144.323,444.163 144.585,444.442 144.816,444.716 C146.813,446.894 149.885,447.669 152.531,448.913 C153.58,449.406 154.07,449.536 156.764,450.915 C157.381,451.23 157.747,451.373 157.785,451.362" id="Fill-57" fill="#E5B79E"></path>
                <path d="M145.7001,433.1638 C145.2361,433.6938 144.8131,434.4998 144.4441,435.7728 C144.0371,437.1708 144.5231,438.9678 145.6181,440.2468 C146.5971,441.3928 149.6061,441.6038 151.1351,441.9578 C154.7441,442.7958 158.5601,444.0388 161.7081,445.6728 C162.4951,446.0798 165.7091,448.7698 167.2351,446.1838 C168.4511,444.1228 163.6381,439.5668 161.6621,438.6758" id="Fill-59" fill="#F1D5C3"></path>
                <path d="M162.4745,446.153 C161.8285,445.86 161.0285,445.361 160.5385,445.067 C159.3465,444.517 158.9495,444.333 157.6885,443.834 C155.2045,442.877 153.3755,441.981 150.7605,441.418 C149.3625,441.142 147.8765,441.021 146.5885,440.402 C146.0545,440.157 145.7275,439.667 145.4475,439.195 C144.9675,438.353 144.7015,437.382 144.7975,436.425 C144.9125,435.639 145.2155,434.874 145.5795,434.161 C145.7745,433.702 146.6765,433.022 145.7945,432.72 C145.4565,432.65 145.2535,432.95 145.0915,433.176 C144.7855,433.599 144.5505,434.071 144.3585,434.549 C143.7375,435.92 143.6305,437.472 144.2395,438.866 L144.3045,439.02 C144.5955,439.659 144.9685,440.294 145.5035,440.781 C146.2725,441.408 147.2945,441.659 148.2635,441.878 C150.2155,442.221 152.1745,442.605 154.0665,443.186 C157.0985,444.1 161.8995,445.994 162.4245,446.145 C162.4665,446.151 162.4715,446.153 162.4745,446.153" id="Fill-61" fill="#E5B79E"></path>
                <path d="M158.6102,425.1452 C158.6912,425.3342 158.3332,425.1732 158.1782,425.2142 C156.8622,425.5742 155.6702,425.5152 154.3222,425.6592 C151.8452,425.9252 148.3052,425.8892 145.9672,426.7202 C144.4092,427.2762 143.2412,429.7162 143.7792,431.2172 C144.2942,432.6512 147.0562,433.9342 148.4732,434.3102 C153.0892,435.5352 157.9472,437.3562 162.4502,438.9302 C164.0542,439.4922 167.7562,440.7822 168.2512,440.4022 C172.7302,436.9622 162.4002,431.8242 158.4722,430.9142 C157.3712,430.6592 154.8062,429.7492 154.4242,428.6812" id="Fill-63" fill="#F1D5C3"></path>
                <path d="M161.705,438.6735 C161.683,438.3825 153.215,435.1545 147.658,433.5615 C146.753,433.2015 145.874,432.7495 145.12,432.1525 C144.548,431.7145 144.079,431.1025 144.124,430.3775 C144.164,429.2435 144.722,428.0775 145.684,427.3765 C146.302,427.0185 148.209,426.2215 148.93,426.1005 C148.704,426.0275 148.505,425.9575 148.385,425.9275 C148.234,425.8895 147.975,425.7655 147.719,425.8235 C146.907,425.9645 146.109,426.1585 145.366,426.4975 C143.86,427.4185 142.991,429.2515 143.213,430.9205 C143.601,432.7805 145.786,433.7545 147.465,434.4575" id="Fill-65" fill="#E5B79E"></path>
                <g id="Group-70" transform="translate(174.000000, 165.000000)">
                    <path d="M39.8944,22.8713 C39.0374,22.8743 21.0004,22.9733 21.0004,22.9733 C21.0004,22.9733 19.6864,7.8723 18.8904,7.8793 C18.0944,7.8853 16.2194,23.0063 16.2194,23.0063 L0.3934,22.8843 C0.3934,22.8843 0.3244,15.2613 0.2914,8.3503 L0.2694,1.4333 L39.8234,0.9433 L39.8234,0.9453 L79.3784,1.1773 L79.4014,8.0963 C79.4144,15.0053 79.3944,22.6283 79.3944,22.6283 L63.5694,22.8553 C63.5694,22.8553 61.5954,7.7453 60.7994,7.7443 C60.0034,7.7453 58.7884,22.8513 58.7884,22.8513 C58.7884,22.8513 40.7504,22.8713 39.8944,22.8733" id="Fill-67" fill="#FF3434"></path>
                    <path d="M39.8944,22.8713 C39.0374,22.8743 21.0004,22.9733 21.0004,22.9733 C21.0004,22.9733 19.6864,7.8723 18.8904,7.8793 C18.0944,7.8853 16.2194,23.0063 16.2194,23.0063 L0.3934,22.8843 C0.3934,22.8843 0.3244,15.2613 0.2914,8.3503 L0.2694,1.4333 L39.8234,0.9433 L39.8234,0.9453 L79.3784,1.1773 L79.4014,8.0963 C79.4144,15.0053 79.3944,22.6283 79.3944,22.6283 L63.5694,22.8553 C63.5694,22.8553 61.5954,7.7453 60.7994,7.7443 C60.0034,7.7453 58.7884,22.8513 58.7884,22.8513 C58.7884,22.8513 40.7504,22.8713 39.8944,22.8733" id="Stroke-69" stroke="#FF3434" stroke-linecap="round" stroke-linejoin="round"></path>
                </g>
                <path d="M199.2753,229.2624 C203.1473,233.5254 224.7043,232.6304 227.8213,229.1524" id="Stroke-71" stroke="#DF715C" stroke-width="0.5" stroke-linecap="round" stroke-linejoin="round"></path>
                <path d="M201.3749,248.9694 C201.3749,248.9694 201.1799,252.9484 201.1779,253.6894 C201.1739,254.6084 201.1829,255.0764 201.1829,255.0764 L225.4589,252.7404 L225.4459,248.9434 L201.3749,248.9694 Z" id="Fill-73" fill="#DF715C"></path>
                <path d="M159.2401,340.861 C159.5541,340.558 171.0841,316.944 171.0841,316.944 L170.0011,333.391 C170.0011,333.391 158.9251,341.165 159.2401,340.861" id="Fill-75" fill="#2B5165"></path>
                <path d="M268.3602,340.5817 C268.0462,340.2787 256.5152,316.6647 256.5152,316.6647 L257.5992,333.1117 C257.5992,333.1117 268.6742,340.8857 268.3602,340.5817" id="Fill-77" fill="#2B5165"></path>
                <path d="M271.2343,429.8991 C271.2713,429.8851 271.4733,429.9011 271.8973,429.8471 C272.5343,429.7661 272.8613,429.5881 273.3203,429.0601 C273.5873,428.7841 273.9973,428.2711 274.0213,428.6411 C273.9053,428.9421 273.6253,429.2101 273.1903,429.6851 C272.7553,430.1601 271.4943,430.2211 271.2963,430.3211 C271.2673,430.1271 271.2553,430.0501 271.2343,429.8991" id="Fill-79" fill="#E5B79E"></path>
                <path d="M82.8192,261.3884 C83.9282,279.0834 93.7462,295.0464 108.8082,303.6534 C112.2082,305.5954 116.5112,303.6364 117.3882,299.7244 L118.0702,296.6834 C118.6372,294.1464 117.5352,291.5534 115.3552,290.2494 C110.3612,287.2604 106.1092,283.0714 102.9352,277.9164 C99.7492,272.7434 97.8782,266.9744 97.3912,261.0264 C97.1792,258.4384 95.3702,256.2994 92.8952,255.7454 L89.9332,255.0814 C86.1212,254.2284 82.5692,257.3964 82.8192,261.3884" id="Fill-81" fill="#69BAC9"></path>
                <path d="M372.203,203.7605 C387.64,209.7545 399.068,223.0095 402.467,238.8515 C403.233,242.4265 400.272,245.7025 396.542,245.3755 L393.642,245.1215 C391.224,244.9095 389.228,243.1945 388.684,240.8855 C387.437,235.5945 384.911,230.6245 381.223,226.3415 C377.519,222.0405 372.914,218.7435 367.758,216.6275 C365.514,215.7065 364.123,213.4905 364.33,211.1315 L364.577,208.3075 C364.895,204.6725 368.721,202.4075 372.203,203.7605" id="Fill-83" fill="#EEA8A8"></path>
                <path d="M407.2059,311.7634 L380.4479,311.7634 C379.8219,311.7634 379.3099,311.2514 379.3099,310.6254 L379.3099,252.5464 C379.3099,251.9204 379.8219,251.4094 380.4479,251.4094 L407.2059,251.4094 C407.8309,251.4094 408.3439,251.9204 408.3439,252.5464 L408.3439,310.6254 C408.3439,311.2514 407.8309,311.7634 407.2059,311.7634" id="Fill-85" fill="#FFFFFF"></path>
                <path d="M407.2059,311.7634 L380.4479,311.7634 C379.8219,311.7634 379.3099,311.2514 379.3099,310.6254 L379.3099,252.5464 C379.3099,251.9204 379.8219,251.4094 380.4479,251.4094 L407.2059,251.4094 C407.8309,251.4094 408.3439,251.9204 408.3439,252.5464 L408.3439,310.6254 C408.3439,311.2514 407.8309,311.7634 407.2059,311.7634 Z" id="Stroke-87" stroke="#666666" stroke-width="0.948"></path>
                <path d="M400.2137,254.1394 L387.3697,254.1394 C386.7437,254.1394 386.2327,253.6264 386.2327,253.0004 L386.2327,252.2034 C386.2327,251.5774 386.7437,251.0664 387.3697,251.0664 L400.2137,251.0664 C400.8397,251.0664 401.3517,251.5774 401.3517,252.2034 L401.3517,253.0004 C401.3517,253.6264 400.8397,254.1394 400.2137,254.1394" id="Fill-89" fill="#666666"></path>
                <path d="M382.3192,256.4226 C382.3132,256.4156 382.3062,256.4076 382.3002,256.4016 C382.3062,256.4076 382.3132,256.4156 382.3192,256.4226" id="Fill-91" fill="#5600B7"></path>
                <path d="M382.3202,256.4235 C382.3202,256.4225 382.3202,256.4225 382.3192,256.4225 C382.3202,256.4225 382.3202,256.4225 382.3202,256.4235" id="Fill-93" fill="#5600B7"></path>
                <path d="M383.495,256.6306 C383.485,256.6356 383.476,256.6396 383.468,256.6446 C383.476,256.6396 383.486,256.6356 383.495,256.6306" id="Fill-95" fill="#5600B7"></path>
                <g id="Group-99" transform="translate(0.000000, 459.000000)">
                    <mask id="mask-6" fill="white">
                        <use xlink:href="#path-5"></use>
                    </mask>
                    <g id="Clip-98"></g>
                    <path d="" id="Fill-97" fill="#5600B7" mask="url(#mask-6)"></path>
                </g>
                <path d="M382.3007,256.4011 C382.2997,256.4011 382.2997,256.4011 382.2997,256.4001 C382.2997,256.4011 382.2997,256.4011 382.3007,256.4011" id="Fill-100" fill="#5600B7"></path>
                <polygon id="Fill-102" fill="#5600B7" points="383.4667 256.6442 383.4667 256.6442 383.4677 256.6442"></polygon>
                <path d="M383.5751,256.5866 C383.5661,256.5916 383.5571,256.5976 383.5491,256.6026 C383.5571,256.5976 383.5661,256.5916 383.5751,256.5866" id="Fill-104" fill="#5600B7"></path>
                <path d="M383.5243,256.6159 C383.5233,256.6159 383.5223,256.6169 383.5213,256.6169 C383.5223,256.6169 383.5233,256.6159 383.5243,256.6159" id="Fill-106" fill="#5600B7"></path>
                <path d="M383.5487,256.6022 C383.5397,256.6072 383.5317,256.6112 383.5247,256.6162 C383.5317,256.6112 383.5397,256.6072 383.5487,256.6022" id="Fill-108" fill="#5600B7"></path>
                <path d="M383.5214,256.6169 C383.5124,256.6219 383.5034,256.6269 383.4954,256.6309 C383.5034,256.6269 383.5124,256.6219 383.5214,256.6169" id="Fill-110" fill="#5600B7"></path>
                <path d="M378.6952,283.8649 C378.6952,283.8649 371.7202,289.6179 374.6692,292.9969 C377.6172,296.3769 383.5122,295.9449 385.0222,294.7949 C386.5332,293.6439 387.8362,290.2949 386.3152,289.8769 C385.1792,289.5639 378.8192,289.3499 378.7672,287.7479 C378.7332,286.7189 378.6952,283.8649 378.6952,283.8649" id="Fill-112" fill="#F1D5C3"></path>
                <path d="M147.7186,425.8239 C153.9486,422.5399 157.6266,425.4089 160.4916,425.1449 C162.3736,424.9709 163.8306,424.8719 165.0526,424.4129 C166.3206,423.9349 167.7386,424.8039 167.7006,426.1579 C167.7006,426.1689 167.7006,426.1799 167.6996,426.1909 C167.6646,427.3089 167.3156,428.4599 166.5216,429.2479 C165.7446,430.0179 164.6506,430.3549 163.6016,430.6659 C160.6506,431.5399 157.4686,432.4129 154.5526,431.4269" id="Fill-114" fill="#F1D5C3"></path>
                <path d="M160.3973,431.5124 C157.0303,431.0534 151.4133,428.4234 148.7473,426.9284 C148.1953,426.6184 147.6723,425.9554 147.5623,425.9124 L147.8463,425.7574 C147.9753,425.6664 148.3173,425.5734 149.2233,426.0804 C151.6323,427.4324 157.7103,430.0104 160.3973,431.5124" id="Fill-116" fill="#E5B79E"></path>
                <path d="M389.6317,263.9636 C390.2317,263.3636 390.9517,262.9276 391.7387,262.6776 C392.0797,262.5686 392.3137,262.2536 392.3137,261.8956 L392.3137,261.4676 C392.3137,260.9166 391.7817,260.5256 391.2547,260.6836 C388.9057,261.3796 387.0547,263.2296 386.3547,265.5756 C386.1957,266.1036 386.5877,266.6356 387.1387,266.6356 L387.5667,266.6356 C387.9237,266.6356 388.2387,266.4026 388.3477,266.0626 C388.5987,265.2786 389.0327,264.5626 389.6317,263.9636" id="Fill-118" fill="#EE3434"></path>
                <path d="M397.0243,263.9636 C397.6223,264.5626 398.0573,265.2786 398.3073,266.0626 C398.4173,266.4026 398.7313,266.6356 399.0883,266.6356 L399.5173,266.6356 C400.0683,266.6356 400.4593,266.1036 400.3013,265.5756 C399.6033,263.2356 397.7603,261.3916 395.4223,260.6896 C394.8943,260.5306 394.3633,260.9226 394.3633,261.4736 L394.3633,261.9016 C394.3633,262.2596 394.5943,262.5736 394.9343,262.6836 C395.7143,262.9346 396.4283,263.3676 397.0243,263.9636" id="Fill-120" fill="#EE3434"></path>
                <path d="M399.5155,268.6853 L399.0885,268.6853 C398.7305,268.6853 398.4155,268.9183 398.3065,269.2603 C398.0665,270.0093 397.6565,270.7003 397.0965,271.2823 C396.7755,271.6143 396.4115,271.9053 396.0165,272.1443 C395.8535,272.2423 395.6835,272.3353 395.5085,272.4123 C395.4875,272.4213 395.4665,272.4293 395.4455,272.4373 C394.9205,272.6293 394.3515,272.2373 394.3515,271.6643 L394.3515,271.2073 C394.3515,270.9043 394.5155,270.6223 394.7855,270.4823 C395.5055,270.1083 396.0675,269.4633 396.3335,268.6853 C396.4525,268.3353 396.5135,267.9593 396.5015,267.5673 C396.4545,265.9253 395.1405,264.5753 393.4985,264.4883 C393.4875,264.4873 393.4745,264.4873 393.4625,264.4863 C393.4505,264.4863 393.4385,264.4853 393.4255,264.4853 C393.4135,264.4843 393.4015,264.4843 393.3895,264.4843 L393.3525,264.4843 L393.3165,264.4843 L393.2795,264.4843 L393.2435,264.4843 C393.2305,264.4853 393.2185,264.4853 393.2055,264.4853 C393.1945,264.4863 393.1815,264.4863 393.1685,264.4873 C393.1645,264.4873 393.1605,264.4883 393.1555,264.4883 C391.5145,264.5753 390.2005,265.9253 390.1535,267.5673 C390.1415,267.9593 390.2025,268.3353 390.3215,268.6853 C390.5875,269.4633 391.1485,270.1083 391.8695,270.4823 C392.1395,270.6223 392.3035,270.9043 392.3035,271.2073 L392.3035,271.6643 C392.3035,272.2373 391.7335,272.6293 391.2085,272.4373 C391.1875,272.4293 391.1665,272.4213 391.1465,272.4123 C390.9715,272.3353 390.8025,272.2423 390.6395,272.1443 C390.2435,271.9053 389.8795,271.6143 389.5585,271.2823 C388.9975,270.7003 388.5875,270.0093 388.3485,269.2603 C388.2395,268.9183 387.9245,268.6853 387.5665,268.6853 L387.1385,268.6853 C386.5885,268.6853 386.1965,269.2143 386.3535,269.7413 C386.4285,269.9943 386.5175,270.2423 386.6195,270.4843 C386.7215,270.7253 386.8355,270.9613 386.9635,271.1913 C387.0895,271.4183 387.2295,271.6393 387.3785,271.8523 C387.5295,272.0643 387.6905,272.2683 387.8615,272.4633 C388.0325,272.6583 388.2135,272.8433 388.4055,273.0193 C388.5955,273.1953 388.7965,273.3603 389.0045,273.5143 C389.2135,273.6693 389.4315,273.8133 389.6565,273.9443 C389.8815,274.0773 390.1155,274.1973 390.3545,274.3033 C390.5945,274.4123 390.8415,274.5063 391.0925,274.5873 C391.3475,274.6693 391.6065,274.7373 391.8685,274.7903 C392.1345,274.8453 392.4045,274.8843 392.6745,274.9083 C393.0045,274.9383 393.3375,274.9453 393.6685,274.9293 C393.9425,274.9163 394.2145,274.8883 394.4845,274.8453 C394.7495,274.8033 395.0125,274.7463 395.2715,274.6743 C395.5265,274.6043 395.7775,274.5193 396.0235,274.4213 C396.2665,274.3243 396.5045,274.2133 396.7365,274.0903 C396.9655,273.9683 397.1895,273.8333 397.4055,273.6883 C397.6195,273.5423 397.8265,273.3853 398.0245,273.2183 C398.2215,273.0503 398.4115,272.8723 398.5895,272.6863 C398.7685,272.4983 398.9375,272.3013 399.0955,272.0963 C399.2535,271.8913 399.4015,271.6763 399.5365,271.4563 C399.6725,271.2333 399.7975,271.0023 399.9095,270.7673 C400.0215,270.5293 400.1205,270.2853 400.2065,270.0373 C400.2405,269.9393 400.2725,269.8403 400.3015,269.7413 C400.4585,269.2143 400.0665,268.6853 399.5155,268.6853" id="Fill-122" fill="#37AFCA"></path>
                <path d="M407.0897,301.403 C406.0477,302.993 405.0767,305.379 404.7277,307.496 C404.6307,308.077 404.7737,310.565 405.5077,310.005 C406.3107,309.393 406.8707,307.785 407.6477,306.994 C408.2947,306.337 408.9427,305.692 409.6167,305.103 C410.0987,304.684 410.5987,304.322 411.0787,303.903 C412.7497,302.445 417.4037,298.306 414.8607,294.679" id="Fill-124" fill="#F1D5C3"></path>
                <path d="M414.2333,290.5339 C414.6733,291.2149 415.3123,293.3069 414.9753,294.0789 C414.0393,296.2219 412.0433,297.1349 410.6433,298.2009 C408.8143,299.5969 407.2023,301.3009 405.5233,303.0119 C404.7623,303.7829 402.6423,306.5659 401.9803,305.2369 C400.6703,302.6099 404.0513,296.3829 404.5443,295.6299" id="Fill-126" fill="#F1D5C3"></path>
                <path d="M414.9882,293.9704 C414.9832,293.9194 414.9672,293.8704 414.9682,293.8194 C414.8882,293.8074 414.8122,293.7894 414.7382,293.7684 C414.6852,293.9514 414.5932,294.1114 414.5152,294.2674 C413.8392,295.4604 412.7392,296.5504 411.8172,297.1934 C410.8052,297.8554 408.1992,299.9154 407.0562,301.4494 C407.0802,301.4594 407.3042,301.3164 407.6812,301.0004 C409.3282,299.6224 409.6282,299.4924 410.2692,298.9994 C411.8692,297.7694 413.7202,296.9924 414.9422,294.8694 C414.9282,294.7604 414.9152,294.6504 414.9012,294.5404 C414.8952,294.3804 414.9342,294.2324 414.9942,294.0914 C414.9892,294.0504 414.9912,294.0104 414.9882,293.9704" id="Fill-128" fill="#E5B79E"></path>
                <path d="M414.4452,283.2497 C414.7292,283.7807 414.9882,284.5857 415.2142,285.8587 C415.4632,287.2567 415.1652,289.0537 414.4962,290.3337 C413.8972,291.4787 412.0572,291.6897 411.1232,292.0447 C408.9162,292.8827 406.5832,294.1247 404.6582,295.7597 C404.1762,296.1657 402.2122,298.8567 401.2792,296.2707 C400.5352,294.2097 403.4772,289.6537 404.6862,288.7627" id="Fill-130" fill="#F1D5C3"></path>
                <path d="M414.038,290.3356 C413.993,290.3876 413.954,290.4496 413.902,290.4886 C413.114,291.1066 412.207,291.2296 411.351,291.5046 C409.753,292.0676 408.635,292.9626 407.116,293.9206 C406.345,294.4186 406.102,294.6036 405.373,295.1526 C405.074,295.4476 404.584,295.9466 404.189,296.2386 C404.191,296.2386 404.194,296.2376 404.22,296.2316 C404.542,296.0806 407.476,294.1876 409.33,293.2726 C410.487,292.6906 411.684,292.3086 412.878,291.9636 C413.471,291.7446 414.096,291.4946 414.565,290.8666 C414.609,290.8016 414.642,290.7216 414.677,290.6446 C414.437,290.5746 414.225,290.4706 414.038,290.3356" id="Fill-132" fill="#E5B79E"></path>
                <path d="M408.9227,275.7077 C409.7927,275.7077 411.1527,275.7647 411.9777,275.9087 C413.4907,276.1747 412.8527,276.0627 414.2817,276.8937 C415.2347,277.4487 415.9487,279.8897 415.6197,281.3907 C415.3057,282.8237 413.6157,284.1077 412.7497,284.4837 C409.9277,285.7087 406.9577,287.5287 404.2047,289.1037 C403.2237,289.6657 400.9597,290.9547 400.6577,290.5747 C397.9187,287.1357 404.2357,281.9967 406.6367,281.0867 C407.3107,280.8317 408.7197,279.9257 408.9527,278.8567" id="Fill-134" fill="#F1D5C3"></path>
                <path d="M414.245,282.8073 C413.928,283.1293 413.598,283.4213 413.249,283.6483 C409.85,285.2413 404.674,288.4693 404.66,288.7593 C406.146,288.4073 410.669,285.8113 413.367,284.5433 C413.841,284.2193 414.365,283.8133 414.83,283.3103 C414.625,283.1533 414.43,282.9863 414.245,282.8073" id="Fill-136" fill="#E5B79E"></path>
                <g id="Group-141" transform="translate(388.000000, 296.000000)">
                    <polyline id="Fill-138" fill="#FFFFFF" points="10.9374 0.239 3.9104 7.265 0.7164 4.072"></polyline>
                    <polyline id="Stroke-140" stroke="#37B1CC" stroke-width="2" stroke-linecap="round" stroke-linejoin="round" points="10.9374 0.239 3.9104 7.265 0.7164 4.072"></polyline>
                </g>
                <path d="M132.4579,215.2575 C132.4579,232.9005 118.1549,247.2025 100.5129,247.2025 C82.8689,247.2025 68.5669,232.9005 68.5669,215.2575 C68.5669,197.6135 82.8689,183.3115 100.5129,183.3115 C118.1549,183.3115 132.4579,197.6135 132.4579,215.2575" id="Fill-142" fill="#69BAC9"></path>
            </g>
            <g id="Group-181" transform="translate(68.000000, 183.332000)">
                <g id="Group-147">
                    <mask id="mask-8" fill="white">
                        <use xlink:href="#path-7"></use>
                    </mask>
                    <g id="Clip-146"></g>
                    <polyline id="Fill-145" fill="#E0B094" mask="url(#mask-8)" points="32.12 55.8962 27.594 55.4602 27.458 60.0362 32.145 60.5142 32.281 60.5142 36.965 60.0042 36.799 55.4302 32.276 55.8962"></polyline>
                </g>
                <g id="Group-150">
                    <mask id="mask-10" fill="white">
                        <use xlink:href="#path-9"></use>
                    </mask>
                    <g id="Clip-149"></g>
                    <polygon id="Fill-148" fill="#AA5D48" mask="url(#mask-10)" points="27.6307 54.4177 27.5687 56.3227 36.7917 56.0837 36.7867 54.4097"></polygon>
                </g>
                <g id="Group-153">
                    <mask id="mask-12" fill="white">
                        <use xlink:href="#path-11"></use>
                    </mask>
                    <g id="Clip-152"></g>
                    <path d="M15.6005,35.1901 C15.6005,37.4611 14.1965,39.3001 12.4645,39.3001 C10.7335,39.3001 9.3295,37.4611 9.3295,35.1901 C9.3295,32.9191 10.7335,31.0791 12.4645,31.0791 C14.1965,31.0791 15.6005,32.9191 15.6005,35.1901" id="Fill-151" fill="#E0B094" mask="url(#mask-12)"></path>
                </g>
                <g id="Group-156">
                    <mask id="mask-14" fill="white">
                        <use xlink:href="#path-13"></use>
                    </mask>
                    <g id="Clip-155"></g>
                    <path d="M48.4921,35.1901 C48.4921,37.4611 49.8951,39.3001 51.6281,39.3001 C53.3591,39.3001 54.7631,37.4611 54.7631,35.1901 C54.7631,32.9191 53.3591,31.0791 51.6281,31.0791 C49.8951,31.0791 48.4921,32.9191 48.4921,35.1901" id="Fill-154" fill="#E0B094" mask="url(#mask-14)"></path>
                </g>
                <g id="Group-159">
                    <mask id="mask-16" fill="white">
                        <use xlink:href="#path-15"></use>
                    </mask>
                    <g id="Clip-158"></g>
                    <path d="M32.0419,5.5744 C40.2689,5.3994 38.8759,8.7964 40.2179,8.9644 C41.4529,9.1184 43.4179,6.8704 49.4459,11.5644 C55.4699,16.2534 51.5149,22.8384 52.2329,22.8864 C52.9509,22.9344 54.6269,24.3484 54.6269,28.5154 C54.6269,32.6814 49.7899,35.0754 49.7899,35.0754 C49.7899,35.0754 53.4299,44.8464 47.7779,50.4024 C42.1269,55.9564 32.1179,55.2864 32.1179,55.2864 L31.9749,55.2864 C31.9749,55.2864 21.9649,55.9564 16.3129,50.4024 C10.6619,44.8464 14.3029,35.0754 14.3029,35.0754 C14.3029,35.0754 9.4649,32.6814 9.4649,28.5154 C9.4649,24.3484 10.9229,23.0544 11.6409,23.0064 C12.3589,22.9584 8.6219,16.2534 14.6459,11.5644 C20.6749,6.8704 22.6389,9.1184 23.8749,8.9644 C25.2169,8.7964 23.8239,5.3994 32.0509,5.5744 L32.0419,5.5744 Z" id="Fill-157" fill="#383838" mask="url(#mask-16)"></path>
                </g>
                <g id="Group-162">
                    <mask id="mask-18" fill="white">
                        <use xlink:href="#path-17"></use>
                    </mask>
                    <g id="Clip-161"></g>
                    <path d="M32.0419,41.6921 C32.3139,41.6581 44.5569,43.8481 44.5569,37.3841 C44.5569,34.0401 44.2829,31.5291 44.0199,29.8861 C43.7949,28.4821 43.9219,27.0591 44.3259,25.6921 C44.8109,24.0521 44.9059,21.8451 42.2569,21.2361 C39.2129,20.5351 39.6889,21.4631 37.4179,23.8351 C35.6549,25.6721 28.4369,25.6721 26.6749,23.8351 C24.4029,21.4631 24.8789,20.5351 21.8359,21.2361 C19.1869,21.8451 19.2819,24.0521 19.7669,25.6921 C20.1699,27.0591 20.2979,28.4821 20.0719,29.8861 C19.8089,31.5291 19.5359,34.0401 19.5359,37.3841 C19.5359,43.8481 31.7769,41.6581 32.0509,41.6921 L32.0419,41.6921 Z" id="Fill-160" fill="#E0B094" mask="url(#mask-18)"></path>
                </g>
                <g id="Group-165">
                    <mask id="mask-20" fill="white">
                        <use xlink:href="#path-19"></use>
                    </mask>
                    <g id="Clip-164"></g>
                    <path d="M31.7977,36.5788 L30.7277,39.8138 C30.6707,39.9848 30.7987,40.1618 30.9787,40.1618 L33.1197,40.1618 C33.2997,40.1618 33.4277,39.9848 33.3707,39.8138 L32.3007,36.5788 C32.2207,36.3378 31.8777,36.3378 31.7977,36.5788" id="Fill-163" fill="#DF715C" mask="url(#mask-20)"></path>
                </g>
                <g id="Group-168">
                    <mask id="mask-22" fill="white">
                        <use xlink:href="#path-21"></use>
                    </mask>
                    <g id="Clip-167"></g>
                    <path d="M24.7167,33.3835 C24.7167,34.6955 24.0897,35.7585 23.3177,35.7585 C22.5447,35.7585 21.9177,34.6955 21.9177,33.3835 C21.9177,32.0715 22.5447,31.0075 23.3177,31.0075 C24.0897,31.0075 24.7167,32.0715 24.7167,33.3835" id="Fill-166" fill="#383838" mask="url(#mask-22)"></path>
                </g>
                <g id="Group-171">
                    <mask id="mask-24" fill="white">
                        <use xlink:href="#path-23"></use>
                    </mask>
                    <g id="Clip-170"></g>
                    <path d="M26.6093,34.861 C26.6093,34.861 26.9443,36.068 25.4023,36.907" id="Stroke-169" stroke="#383838" stroke-width="0.475" stroke-linecap="round" mask="url(#mask-24)"></path>
                </g>
                <g id="Group-174">
                    <mask id="mask-26" fill="white">
                        <use xlink:href="#path-25"></use>
                    </mask>
                    <g id="Clip-173"></g>
                    <path d="M39.3759,33.3835 C39.3759,34.6955 40.0019,35.7585 40.7749,35.7585 C41.5479,35.7585 42.1749,34.6955 42.1749,33.3835 C42.1749,32.0715 41.5479,31.0075 40.7749,31.0075 C40.0019,31.0075 39.3759,32.0715 39.3759,33.3835" id="Fill-172" fill="#383838" mask="url(#mask-26)"></path>
                </g>
                <g id="Group-177">
                    <mask id="mask-28" fill="white">
                        <use xlink:href="#path-27"></use>
                    </mask>
                    <g id="Clip-176"></g>
                    <path d="M37.4833,34.861 C37.4833,34.861 37.1473,36.068 38.6903,36.907" id="Stroke-175" stroke="#383838" stroke-width="0.475" stroke-linecap="round" mask="url(#mask-28)"></path>
                </g>
                <g id="Group-180">
                    <mask id="mask-30" fill="white">
                        <use xlink:href="#path-29"></use>
                    </mask>
                    <g id="Clip-179"></g>
                    <path d="M34.91,46.319 C34.91,47.532 29.193,47.532 29.193,46.319" id="Stroke-178" stroke="#DF715C" stroke-width="0.475" mask="url(#mask-30)"></path>
                </g>
            </g>
            <path d="M358.7128,215.5895 C358.7128,233.1905 344.4438,247.4585 326.8438,247.4585 C309.2428,247.4585 294.9748,233.1905 294.9748,215.5895 C294.9748,197.9875 309.2428,183.7195 326.8438,183.7195 C344.4438,183.7195 358.7128,197.9875 358.7128,215.5895" id="Fill-182" fill="#FF3434"></path>
            <g id="Group-199" transform="translate(294.000000, 183.332000)">
                <mask id="mask-32" fill="white">
                    <use xlink:href="#path-31"></use>
                </mask>
                <g id="Clip-185"></g>
                <polygon id="Fill-184" fill="#F9E6DC" mask="url(#mask-32)" points="27.515 61.357 39.252 61.357 39.252 52.377 27.515 52.377"></polygon>
                <path d="M33.495,25.3571 L48.847,25.3571 C48.847,25.3571 48.721,51.4191 48.847,51.6281 C48.972,51.8371 44.038,54.9751 33.495,54.9751 C22.951,54.9751 18.018,51.8371 18.143,51.6281 C18.269,51.4191 18.143,25.3571 18.143,25.3571 L33.495,25.3571 Z" id="Fill-186" fill="#F9E6DC" mask="url(#mask-32)"></path>
                <path d="M27.0634,34.4489 C27.0634,35.8169 26.4904,36.9269 25.7844,36.9269 C25.0774,36.9269 24.5044,35.8169 24.5044,34.4489 C24.5044,33.0809 25.0774,31.9719 25.7844,31.9719 C26.4904,31.9719 27.0634,33.0809 27.0634,34.4489" id="Fill-187" fill="#383838" mask="url(#mask-32)"></path>
                <path d="M42.4413,34.4489 C42.4413,35.8169 41.8683,36.9269 41.1623,36.9269 C40.4553,36.9269 39.8823,35.8169 39.8823,34.4489 C39.8823,33.0809 40.4553,31.9719 41.1623,31.9719 C41.8683,31.9719 42.4413,33.0809 42.4413,34.4489" id="Fill-188" fill="#383838" mask="url(#mask-32)"></path>
                <g id="Group-191" mask="url(#mask-32)">
                    <g transform="translate(28.000000, 48.000000)">
                        <path d="M0.4384,0.6032 C0.4384,1.8722 10.5644,1.8722 10.5644,0.6032" id="Fill-189" stroke="none" fill="#E58585" fill-rule="evenodd"></path>
                        <path d="M0.4384,0.6032 C0.4384,1.8722 10.5644,1.8722 10.5644,0.6032" id="Stroke-190" stroke="#E58585" stroke-width="0.454" fill="none" stroke-linecap="round" stroke-linejoin="round"></path>
                    </g>
                </g>
                <path d="M33.1757,40.1306 C33.3177,39.6956 33.6727,39.6956 33.8147,40.1306 L34.3267,41.6986 L34.8387,43.2676 C34.9807,43.7026 34.8037,44.2466 34.5197,44.2466 L33.4947,44.2466 L32.4707,44.2466 C32.1867,44.2466 32.0087,43.7026 32.1517,43.2676 L32.6627,41.6986 L33.1757,40.1306 Z" id="Fill-192" fill="#E58585" mask="url(#mask-32)"></path>
                <path d="M33.1757,40.1306 C33.3177,39.6956 33.6727,39.6956 33.8147,40.1306 L34.3267,41.6986 L34.8387,43.2676 C34.9807,43.7026 34.8037,44.2466 34.5197,44.2466 L33.4947,44.2466 L32.4707,44.2466 C32.1867,44.2466 32.0087,43.7026 32.1517,43.2676 L32.6627,41.6986 L33.1757,40.1306 Z" id="Stroke-193" stroke="#E58585" stroke-width="0.454" stroke-linecap="round" stroke-linejoin="round" mask="url(#mask-32)"></path>
                <path d="M9.5155,13.5505 C9.5155,13.5505 5.1405,25.3575 17.7905,25.3575 L47.0855,25.3575 L47.0855,35.5135 L50.7465,35.5135 L50.7465,18.9995 C50.7465,15.4275 49.3395,11.9615 46.7205,9.5335 C44.1265,7.1285 39.9845,4.9425 33.4945,4.9425 C20.8765,4.9425 16.8585,11.0595 16.0505,12.5895 C15.8115,13.0415 15.5135,13.4655 15.1255,13.7995 C14.1715,14.6235 12.3105,15.4755 9.5155,13.5505" id="Fill-194" fill="#2B5165" mask="url(#mask-32)"></path>
                <polygon id="Fill-195" fill="#2B5165" mask="url(#mask-32)" points="15.557 35.514 19.302 35.514 19.302 19.982 15.557 19.982"></polygon>
                <path d="M18.9188,35.8425 C18.9188,37.9805 18.9608,41.2295 17.2858,41.2295 C15.6098,41.2295 12.8518,37.9805 12.8518,35.8425 C12.8518,33.7045 14.2098,31.9725 15.8858,31.9725 C17.5608,31.9725 18.9188,33.7045 18.9188,35.8425" id="Fill-196" fill="#F9E6DC" mask="url(#mask-32)"></path>
                <path d="M47.3895,35.8425 C47.3895,37.9805 47.3475,41.2295 49.0235,41.2295 C50.6995,41.2295 53.4575,37.9805 53.4575,35.8425 C53.4575,33.7045 52.0995,31.9725 50.4235,31.9725 C48.7475,31.9725 47.3895,33.7045 47.3895,35.8425" id="Fill-197" fill="#F9E6DC" mask="url(#mask-32)"></path>
                <polygon id="Fill-198" fill="#D6948B" mask="url(#mask-32)" points="27.5145 54.6062 27.4905 56.8162 39.2515 56.2242 39.2515 54.6342"></polygon>
            </g>
            <path d="M358.7128,215.5895 C358.7128,233.1905 344.4438,247.4585 326.8438,247.4585 C309.2428,247.4585 294.9748,233.1905 294.9748,215.5895 C294.9748,197.9875 309.2428,183.7195 326.8438,183.7195 C344.4438,183.7195 358.7128,197.9875 358.7128,215.5895 Z" id="Stroke-200" stroke="#FF3434" stroke-linecap="round" stroke-linejoin="round"></path>
        </g>
    </g>
</svg>