<!-- by Tanja Rohlfs (http://tanjarohlfs.de/) - license: CC-BY-NC-SA (see: https://creativecommons.org/licenses/by-nc-sa/4.0/) -->
<svg width="700" height="500" xmlns="http://www.w3.org/2000/svg" xmlns:xlink="http://www.w3.org/1999/xlink"><defs><path id="a" d="M0 .25h94.18v107.453H0z"/><path id="c" d="M.472.47h58.38V39.5H.472z"/></defs><g fill="none" fill-rule="evenodd"><path fill="#FFF" d="M0 0h700v500H0z"/><path d="M232.994 224.332c62.139-45.418 142.549-56.8 212.888-30.149 15.878 6.017 21.228 25.898 10.587 39.706l-8.27 10.73c-6.9 8.952-18.603 12.451-28.976 8.759-23.775-8.463-49.507-11.094-75.483-7.436-26.073 3.673-50.499 13.414-71.7 28.3-9.227 6.479-21.364 6.344-30.051-.423l-10.4-8.1c-13.38-10.42-12.616-31.139 1.405-41.387" fill="#EEA8A8"/><path d="M441.103 347.354c-63.964 42.556-144.775 50.527-213.953 21.12-15.615-6.637-20.14-26.618-8.938-39.898l8.706-10.323c7.264-8.61 19.103-11.6 29.314-7.5 23.407 9.4 49.008 13.081 75.11 10.526 26.204-2.567 51.012-11.234 72.81-25.149 9.487-6.053 21.607-5.415 30.01 1.67l10.053 8.481c12.94 10.913 11.32 31.47-3.112 41.073" fill="#9ADAE6"/><path d="M173.67 279s.596 2.302.186 2.792c-.41.492-.83-.044-.917-.044-.086 0-1.939-1.52-1.939-1.52l2.67-1.228zm-14.318 29.824s1.725.604 2.638-.428c.914-1.034 1.176-.936.914-1.034-.264-.097-2.37-1.465-2.37-1.465s-1.048-1.022-1.066-.884c-.018.136-.531 2.115-.462 2.232.071.117.346 1.58.346 1.58" fill="#2B5165"/><path d="M237.76 243.987c.913 2.812 2.118 5.58 2.42 8.493.351 3.353-.458 4.775-2.49 10.305 2.45 1.394 5.02.296 7.911.595 3.132.324 6.888 2.283 10.016 2.62.433.046 7.818-7.658 10.14-12.47 1.13-2.342 5.581-10.283 1.655-9.956-4.413.368-8.3-3.706-12.91-3.841-1.849-.055-3.698-.107-5.547-.161-.75-.023-1.515-.048-2.213-.291-.65-.229-1.2-.634-1.774-.99-1.708-1.058-7.944-4.818-7.966-2.606-.026 2.798.175 6.504.759 8.302" fill="#F1D5C3"/><path fill="#FFF" d="M253.18 257L240 246.8l16.621-36.8L274 212.53z"/><path stroke="#919191" stroke-width=".944" stroke-linecap="round" stroke-linejoin="round" d="M253.18 257L240 246.8l16.621-36.8L274 212.53z"/><path fill="#FFF" d="M252.069 257L238 247.933 255.465 210 273 212.808z"/><path stroke="#B5B5B5" stroke-width=".734" stroke-linecap="round" stroke-linejoin="round" d="M252.069 257L238 247.933 255.465 210 273 212.808z"/><path d="M267.97 242.1c.119-.1.249-.192.356-.306 1.02-1.066 1.788-2.384 1.66-3.813-.073-.816-.34-1.555-1.025-2.148-.101-.088-.225-.163-.346-.243.307-.38.573-.774.688-1.262.155-.67.15-.845.059-1.435-.085-.558-.163-.77-.502-1.34a2.442 2.442 0 00-.901-.852c-.338-.268-.437-.601-.892-.694-.465-.127-1.015 1.54-2.948 1.724-1.43.135-8.598.44-9.394.843a2.55 2.55 0 00-.982.782c-.31.293-.52.637-.626 1.032-.205.777-.161 1.649.351 2.338.491.66 1.198 1.194 2.093 1.396.424.095.73.037 1.164.087.436.052 5.784-.473 6.223-.475.019 0 .038-.003.056-.004 0 .013-.003.026-.003.038a3.323 3.323 0 01-.22.108c-.695.206-3.446 1.205-4.174 1.308-.65.063-1.984.177-2.64.181-.902.005-1.3.081-1.938.636-.609.528-1.065 1.39-1.027 2.147.042.785.34 1.599 1.027 2.146.682.542 3.708.234 4.653.228a23.666 23.666 0 001.774-.087c-2.025.652-1.393.344-3.53.602-.803.097-1.703.82-2.092 1.395-.44.65-.625 1.609-.353 2.338.274.735.8 1.445 1.61 1.815l.836.307c.62.144 1.24.144 1.86 0 2.202-.266 1.66.059 3.74-.652 2.244-.769 4.433-1.826 5.943-3.503.596-.663 1.025-1.268 1.025-2.147 0-.743-.381-1.634-1.025-2.147a4.368 4.368 0 00-.5-.342m-19.806-8.475c.586 1.61 3.522 2.947 3.808 3.455.284.51-1.646 1.726-2.81 1.891-.84.119-1.679-.164-2.476-.44-2.888-1.009-5.775-2.014-8.663-3.021-.332-2.437 2.949-6.459 5.292-7.308 3.262-1.182 3.996 3.082 4.85 5.423M142.283 244c-2.024 31.837 7.476 50.78 7.476 50.78.068-.958 15.926 28.307 50.892 23.735 35.29-4.615 50.317-42.866 55.017-52.042 3.005-5.864-15.343-9.752-17.555-4.076-1.88 4.833-2.635 6.306-3.72 7.872-5.183 7.473-18.157 28.728-37.04 25.138-26.12-4.965-43.084-38.013-47.908-44.16" fill="#F1D5C3"/><path d="M150.35 159s7.233 85-2.201 85c-1.76 0-28.149-8.77-28.149-8.77l.502-69.654L150.35 159z" fill="#FF3434"/><path d="M123.61 227.573c-1.335-.178-23.541-3.573-27.168-3.573-3.625 0 .66 3.805 1.21 3.918.548.112 25.837 8.302 30.562 8.077 4.724-.222 7.207-1.932 7.759-2.982.39-.744-3.476-1.118-7.975-2.722-3.466-1.234-5.41-1.865-4.389-2.718" fill="#2B5165"/><path d="M99.22 207.351s10 6.752 17.132 8.812c4.363 1.257 6.824 1.837 20.53 1.837 13.506 0 21.503-20.844 21.503-20.844L160 156.463 159.603 145 95 146.197l4.22 61.154z" fill="#F1D5C3"/><path d="M146 175.5c0 2.486.896 4.5 2 4.5 1.106 0 2-2.014 2-4.5 0-2.484-.894-4.5-2-4.5-1.104 0-2 2.016-2 4.5m-25 0c0 2.486.895 4.5 2 4.5s2-2.014 2-4.5c0-2.484-.895-4.5-2-4.5s-2 2.016-2 4.5" fill="#000"/><path d="M135.471 179s3.81 12.774 2.078 13.699c-1.732.926-3.549-.578-3.549-.578L135.471 179z" fill="#FF3434"/><path fill="#F1D5C3" d="M127.532 217.301l.468 26.112-4.846 1.587-18.992-2.775-4.162-1.838V206l27.373 8.071z"/><path d="M152.5 144.37l-2.57 14.904-25.098 1.806-3.395-16.023-2.603 15.797-17.812 1.438s6.926 74.814-2.23 75.192c-9.155.378-29.911-1.55-33.807-.793-3.897.758-21.38 19.309-21.38 19.309s-2.38-10.61 2.297-23.167c2.654-7.125 17.83-18.74 16.288-80.69-.408-16.443 23.57-46.703 49.671-46.135 26.103.568 52.468 10.848 54.61 30.159 2.142 19.31-2.922 21.203-2.922 21.203l-8.11 1.724-2.938-14.724z" fill="#FF3434"/><path d="M126 197c1.186.588 4.09 5.863 14 6" stroke="#DF715C" stroke-width=".5" stroke-linecap="round" stroke-linejoin="round"/><path d="M91.51 171.699c-.184-.241-9.61-3.6-9.51 6.91.101 10.511 6.646 9.112 9.66 9.388 3.01.275.036-16.06-.15-16.298" fill="#F1D5C3"/><path d="M135.532 232.659c14.315 13.91 24.681 29.605 37.468 45.67-12.253 5.63-13.677 18.637-14.308 30.292-.093 1.709-16.401-14.558-15.7-16.203-7.42 18.582 21.116 62.679 7.928 75.306-13.189 12.628-60.739-7.358-80.684-1.076-3.36-19.022-9.694-53.712-9.21-67.89.483-14.176 4.03-8.684 5.115-18.76.003-15.81.18-30.978.277-47.299 6.518-6.1 27.091-8.45 32.052-5.307 11.122 7.046 22.906 12.656 37.062 5.267" fill="#69BAC9"/><g transform="translate(23 264)"><mask id="b" fill="#fff"><use xlink:href="#a"/></mask><path d="M22.139.25s-45.885 71.4-5.539 95.558c31.269 18.724 71.009 10.405 72.004 7.765.994-2.64 6.677-12.691 5.387-12.387-1.409.332-56.233 2.894-65.759-17.643C18.36 52.27 44.473 18.765 44.473 18.765L22.139.25z" fill="#F1D5C3" mask="url(#b)"/></g><path d="M67.112 233c-11.414 8.734-29.48 33.05-39.1 50.79-.707 2.53 27.88 7.266 33.256 12.344C67.606 302.123 89 275.1 89 275.1L67.112 233z" fill="#69BAC9"/><path d="M147 298c-.976-.984-2.44-2.5-3.475-4.677C143.43 293.125 142 273 142 273l3.75 13.404L147 298zm-44-72c-.306 0-8 .314-8 .314 5.152 1.641 5.941 3.11 7.509 3.686l.491-4zm-39 62c-.159.392-2.597 20-2.597 20L61 301.583c-.01-3.197.187-6.185.713-8.841L64 288zm22-22l-1.525.807c-13.348 14.853-20.03 20.174-19.946 20.664L64 290c1.749-.861 11.253-6.283 22-24" fill="#2B5165"/><path d="M127.868 217.725c-5.146-.525-23.756-5.725-23.756-5.725l-.112 3.957L128 222l-.132-4.275z" fill="#DF715C"/><path fill="#919191" d="M159.657 415L264 373.548 223.505 342 101 377.924z"/><g transform="translate(101 378)"><mask id="d" fill="#fff"><use xlink:href="#c"/></mask><path d="M.526.47s-.123 1.211 0 1.73c.164.688 58.326 37.3 58.326 37.3v-2.293L.526.47z" fill="#666" mask="url(#d)"/></g><path fill="#666" d="M160 414.678L268 374l-.072 2.646L160 417z"/><path fill="#D3D3D3" d="M165.667 404L222 381.855 200.137 365 134 384.191z"/><path fill="#666" d="M138.714 379L171 369.507 160.215 364 129 372.496z"/><path fill="#B5B5B5" d="M160.614 414l107.189-40.137L268 294l-108 29.039z"/><path stroke="#B5B5B5" stroke-width=".583" d="M160.614 414l107.189-40.137L268 294l-108 29.039z"/><path d="M125 373.347c1.446.33 9.767 5.393 22.997 5.65 6.233.123 3.409-3.997 3.09-4.282-.32-.282-12.116-4.796-21.858-10.715L125 373.347z" fill="#F1D5C3"/><path d="M130 356s13.761 10.566 20.9 11.643c3.205.483 6.592 1.64 7.072 4.239.75 4.065-14.01 1.028-14.01 1.028l-9.396-3.6L130 356z" fill="#F1D5C3"/><path d="M145.02 363.91s9.268-.26 10.329-.53c1.063-.27 3.722-4.735-1.347-4.298-2.9.25-13.625-1.263-14.042-1.476 0 0-5.99-.06-10.01-2.148-5.275-2.741-13.73-.776-13.73-.776L107 367.745c1.061 0 8.632 3.21 13.092 5.584 4.457 2.373 10.092 7.57 16.995 9.73 5.132 1.603 8.277.943 8.32-.376.125-3.71-4.873-3.951-7.527-5.546-2.783-1.672-8.61-3.993-10.757-6.303" fill="#F1D5C3"/><path d="M143.61 365c-.533-.067-1.518-.565-3.732-1.435-3.908-1.536-9.79-3.85-12.877-3.85-.04 0 1.727-.409 1.689-.407l1.66-.308c3.91 1.34 4.43 1.401 8.441 2.977 1.528.602 5.836 2.417 6.209 2.463l-1.39.56zm3.265 7.87c-.6-.069-1.963-.448-4.31-1.585-3.754-1.822-9.498-3.841-12.48-3.841l-.085.001 2.268-.443c3.33-.07 6.745 1.665 10.906 3.682 1.501.73 4.441 2.261 4.826 2.316l-1.125-.13zm-4.433 5.972c-.677-.076-1.756-.517-4.147-1.474-2.7-1.079-6.807-3.47-9.295-4.049l1.093-.319c2.6.604 5.248 2.183 7.996 3.283 1.746.698 5.408 2.662 5.911 2.717l-1.558-.158z" fill="#E5B79E"/><path d="M262.087 220.664a2.313 2.313 0 00-.924-1.247c-.19-.129-.217-.386-.063-.636l.186-.302c.242-.391.795-.597 1.107-.408 1.427.869 1.96 2.534 1.37 4.335-.132.399-.673.682-1.077.569l-.311-.089c-.257-.07-.378-.291-.304-.542.17-.582.179-1.157.016-1.68m-4.648-1.307a5.405 5.405 0 00-1.396 1.35c-.166.23-.404.34-.59.273l-.218-.079c-.28-.1-.316-.553-.073-.91 1.106-1.63 2.753-2.78 4.394-2.987.386-.048.566.366.354.822l-.163.353c-.136.293-.395.507-.64.535-.555.065-1.124.284-1.668.643" fill="#EE3434"/><path d="M254.805 221.728l.208.075c.176.061.261.26.213.489a3.385 3.385 0 00-.006 1.443c.058.261.151.507.276.727a1.962 1.962 0 00.196.29c.206.224.618.11.798-.238l.146-.278c.097-.185.1-.392.004-.531-.256-.373-.345-.878-.237-1.412.05-.24.137-.489.269-.736.558-1.053 1.744-1.731 2.723-1.518l.023.005a.128.128 0 00.022.005.098.098 0 00.023.006l.02.007.023.006.022.007.021.006.021.006.023.008.007.003c.96.347 1.257 1.534.66 2.663-.14.265-.316.503-.517.71-.439.453-.991.748-1.529.832a.698.698 0 00-.485.362l-.152.282c-.19.352-.01.718.339.718.015 0 .03 0 .044-.002a2.88 2.88 0 00.372-.05c.305-.059.614-.158.919-.295a4.858 4.858 0 001.47-1.04c.2-.203.487-.29.713-.21l.273.096c.354.125.394.577.082.894a7.113 7.113 0 01-1.456 1.136 6.402 6.402 0 01-1.035.486 5.538 5.538 0 01-1.034.267 4.324 4.324 0 01-1.472-.02 3.465 3.465 0 01-.967-.331 3.052 3.052 0 01-.38-.231 3.175 3.175 0 01-.872-.914 3.42 3.42 0 01-.36-.763 3.753 3.753 0 01-.187-.855 4.557 4.557 0 01-.006-.927c.013-.16.037-.322.067-.485.01-.065.024-.126.037-.19.076-.344.415-.595.681-.503" fill="#37AFCA"/><path d="M450.31 230.295c-.826 2.596-1.918 5.151-2.193 7.84-.316 3.092.545 6.355 2.776 8.721-2.22 1.288-5.069 1.062-7.69 1.339-2.836.298-5.689 3.494-8.524 3.805-.392.044-7.26-13.601-7.984-14.577-1.423-1.924-3.15-7.047.408-6.744 4.001.34 3.855-4.187 8.033-4.311l5.028-.148c.679-.022 1.373-.044 2.005-.27.59-.21 1.088-.583 1.61-.912 1.547-.976 7.2-4.447 7.22-2.406.022 2.583-.159 6.002-.689 7.663" fill="#E8C5A6"/><path fill="#FFF" d="M436.983 243L449 233.669 433.845 200 418 202.315z"/><path stroke="#919191" stroke-width=".944" stroke-linecap="round" stroke-linejoin="round" d="M436.983 243L449 233.669 433.845 200 418 202.315z"/><path fill="#FFF" d="M438.137 242L451 233.706 435.033 199 419 201.568z"/><path stroke="#B5B5B5" stroke-width=".734" stroke-linecap="round" stroke-linejoin="round" d="M438.137 242L451 233.706 435.033 199 419 201.568z"/><path d="M423.792 228.524c-.105-.097-.22-.184-.315-.291-.9-1.017-1.578-2.271-1.465-3.634.064-.775.301-1.478.905-2.044.09-.082.2-.156.305-.232-.27-.362-.506-.737-.606-1.203-.137-.635-.134-.802-.054-1.367.078-.529.143-.73.444-1.275a2.26 2.26 0 01.795-.811c.3-.255.386-.572.786-.66.412-.121.896 1.467 2.602 1.64 1.263.13 7.587.42 8.289.804.36.18.65.429.867.746.273.277.458.605.553.982.18.74.142 1.57-.311 2.226-.432.628-1.055 1.137-1.847 1.33-.374.09-.642.035-1.026.083-.385.049-5.104-.45-5.49-.452-.018 0-.035-.003-.051-.005l.001.038c.066.034.13.07.196.102.614.197 3.788.966 4.429 1.064.575.06 1.005.35 1.584.354.795.006 1.146.078 1.71.605.535.502.94 1.326.905 2.044-.036.75-.298 1.523-.905 2.045-.602.518-3.27.224-4.105.217a19.053 19.053 0 01-1.568-.084c1.788.624 1.231.33 3.116.575.71.091 1.504.78 1.845 1.327.389.62.553 1.534.312 2.227-.242.7-.705 1.376-1.42 1.73-.245.097-.49.194-.737.29-.548.14-1.095.14-1.642 0-1.943-.25-1.463.059-3.3-.62-1.98-.732-3.91-1.737-5.243-3.336-.526-.63-.905-1.206-.905-2.044 0-.71.337-1.556.905-2.043.137-.118.286-.229.44-.328m18.496-8.411c-.503 1.464-3.02 2.68-3.263 3.143-.243.463 1.41 1.568 2.407 1.719.72.107 1.44-.15 2.125-.402l7.424-2.745c.284-2.215-2.528-5.871-4.536-6.643-2.797-1.076-3.424 2.802-4.157 4.928" fill="#E8C5A6"/><path d="M449.065 243.75s2.215 4.902 3.935 11.192c-3.094-.64-5.59-.219-8.341 1.11-3.817 1.847-6.377 5.52-7.49 9.948a223.667 223.667 0 01-4.916-12.898c-2.335-6.722 12.12-12.145 16.812-9.351" fill="#FFF"/><path d="M449.065 243.75s2.215 4.902 3.935 11.192c-3.094-.64-5.59-.219-8.341 1.11-3.817 1.847-6.377 5.52-7.49 9.948a223.667 223.667 0 01-4.916-12.898c-2.335-6.722 12.12-12.145 16.812-9.351z" stroke="#919191" stroke-width=".865"/><path d="M536.69 217c1.86 29.11-5.251 63.204-5.251 63.204s-14.4 33.713-46.635 28.183c-32.235-5.528-49.225-42.019-50.724-49.758-1.148-5.92 10.394-8.807 15.89-9.84 1.572-.296 2.68.887 3.679 2.32 4.762 6.835 12.021 31.574 29.624 30.094 26.442-2.22 39.464-59.144 44.706-60.943" fill="#2B5165"/><path d="M608.861 216.573c3.64 1.78 27.013 9.914 26.114 15.64-.9 5.726-7.973 56.71-8.271 58.884-2.96 21.608-16.002 84.741-17.978 81.804C607.55 371.153 522 353.348 522 353.348s10.487-93.713 10.189-94.92c-.3-1.204-8.594-36.585-4.795-38.87 3.8-2.287 20.978-7.232 20.978-7.232l8.592-4.326 51.897 8.573z" fill="#2B5165"/><path d="M559.162 208.917s-7.301 53.48 1.73 99.076c-.103.121-2.427-1.313-2.427-1.313s-21.235-82.345-20.443-82.92c.762-.556 11.676-6.542 11.676-6.542s-9.84-2.281-9.301-2.418c.552-.14 20.603-8.8 20.603-8.8l-1.838 2.917z" fill="#A8A8A8"/><path d="M593 213l-21 74.412L558.609 306s-3.437-51.586-2.42-71.507c.066-1.303 1.071-16.37 1.071-16.37L593 213z" fill="#C1B9B2"/><path d="M517.92 153.275s-7.873 26.176 2.236 34.339l.304.242c13.33 10.615 30.906 14.557 47.515 10.69 9.268-2.158 18.486-6.72 22.623-16.055 9.787-22.088-4.654-21.129-4.654-21.129s1.444-11.365.48-13.124c-.962-1.76-4.331-7.363-4.331-7.363s2.728-22.248-12.355-23.37c-15.084-1.12-43.805-5.762-45.248 1.44-1.445 7.204-6.57 34.33-6.57 34.33" fill="#E8C5A6"/><path d="M556 157.5c0 2.485.895 4.5 2 4.5 1.104 0 2-2.015 2-4.5s-.896-4.5-2-4.5c-1.105 0-2 2.015-2 4.5m-31-3c0 2.485.896 4.5 2 4.5s2-2.015 2-4.5-.896-4.5-2-4.5-2 2.015-2 4.5m25 25.5c-.392.24.26 3.963-14 2.762" fill="#000"/><path d="M542 158c-.395 0-3.546 11.053-4.758 11.25-1.21.197 2.515 3.75 2.515 3.75l2.143-.098" fill="#C16363"/><path d="M552.02 169.417l14.376 1.574c.853.091 1.555-.495 1.557-1.31l.047-23.078a1.61 1.61 0 00-1.626-1.603l-15.02.111c-.773.006-1.378.68-1.353 1.497l.638 21.293c.022.754.642 1.435 1.382 1.516zm-30.736-3.921l11.445 1.495c.676.088 1.233-.468 1.234-1.235l.037-21.24c.002-.795-.564-1.451-1.254-1.454L521.08 143c-.604-.003-1.088.6-1.08 1.34l.198 19.717c.006.714.495 1.362 1.086 1.439z" stroke="#000"/><path d="M550 160c-1.847-.528-7.897-5.62-16-1.229" stroke="#000" stroke-width="1.045"/><path d="M569 151.345c1.222 0 27-.69 27-.69" stroke="#000"/><path d="M584 163.508c0 7.73.549 14.492 6.464 14.492S607 171.515 607 163.785c0-7.731-5.37-13.785-11.285-13.785-5.913 0-11.715 5.776-11.715 13.508" fill="#E8C5A6"/><path d="M604.373 154.714s9.068-44.076 5.233-46.864l-3.837-2.787 5.231-4.18s-9.243 2.265-9.593 1.044c-.347-1.219-5.928-11.847-5.928-11.847l-1.571 5.75s-20.578-15.505-41.68-14.807c-21.102.696-34.008 14.807-34.008 14.807s-.742 52.563.5 54.243c1.244 1.679 4.397-32.714 8.569-33.86 5.549-1.524 44.401-.558 50.105 4.786 6.218 5.825 5 18.389 5.35 19.431.352 1.043-1.392 18.117-1.392 18.117l5.254 2.453.944-7.403s9.148-9.335 16.823 1.117" fill="#000"/><path d="M581.033 194L587 207.502S574.446 221 573.797 221c-.65 0-9.091-1.098-9.091-1.098s-2.063-19.508-4.66-20.618c-1.197-.513 20.987-5.284 20.987-5.284" fill="#E8C5A6"/><path d="M574.06 220.108l-.169-.04c-.92-.218-5.463-1.234-9.252-1.045-4.24.213-3.605 9.411-3.605 9.411s.317 1.532 3.912 2.249c3.596.714 12.054 0 12.054 0s-.211-7.052-.316-7.359c-.107-.307-2.625-3.216-2.625-3.216" fill="#69BAC9"/><path d="M561.653 205c1.286 4.933 1.497 8.742 2.347 14.554L557.087 235S557 209.42 557 208.281c0-1.137 4.653-3.281 4.653-3.281" fill="#C1B9B2"/><path d="M564.245 231.827c-1.427.32-7.821 20.82-8.066 22.91-.984 8.337 2.414 50.04 2.414 50.04.54 2.468 9.99-16.418 9.455-17.118-.052-.068 4.588-53.133 3.878-55.512-.712-2.379-7.68-.32-7.68-.32" fill="#69BAC9"/><path d="M591.534 212.047s-9.836 53.055-32.534 93.589c.058.147.618.364.618.364s53.238-70.454 52.372-70.802c-.867-.346-14.753-13.362-14.753-13.362s12.312-5.42 11.792-5.593c-.52-.174-19.166-7.243-19.166-7.243l1.67 3.047z" fill="#A8A8A8"/><path d="M591.996 212c.274 1.595-13.394 24.144-15.635 24.731-.065.015-.361.269-.361.269s7.336-10.696 9.141-13.449c1.103-1.68 6.855-11.551 6.855-11.551m-17.854 19l.858 6-2-5.966zM558 234l2.947-7 .053 1.135" fill="#A8A8A8"/><path d="M564 232.1c.44.152 8 .86 8 .86s-.009-1.408-.09-1.566c-.082-.158-7.07-.418-7.304-.34-.235.076-.606 1.046-.606 1.046" fill="#448A93"/><path d="M559 306c-.535.86-8 54-8 54" stroke="#1F3C49"/><path d="M556 306.5c0 1.381 1.567 2.5 3.5 2.5s3.5-1.119 3.5-2.5-1.567-2.5-3.5-2.5-3.5 1.119-3.5 2.5m-5.967 33.908c-.264 1.623 1.077 3.205 2.99 3.532 1.916.327 3.681-.724 3.944-2.347.264-1.625-1.075-3.204-2.99-3.533-1.916-.329-3.681.724-3.944 2.348" fill="#353535"/><path d="M590 345.863c18.669 2.768 19.713-.904 27-.758" stroke="#1F3C49"/><path fill="#919191" d="M520.022 400L424 361.953 461.267 333 574 365.97z"/><path d="M573.949 366s.115 1.116 0 1.596C573.798 368.231 520 402 520 402v-2.114L573.949 366zM520 399.894L421 363l.068 2.397L520 402z" fill="#666"/><path fill="#D3D3D3" d="M514.851 390L463 369.559 483.123 354 544 371.717z"/><path fill="#666" d="M539.211 367L510 358.14l9.757-5.14L548 360.93z"/><path fill="#B5B5B5" d="M519.438 399l-98.258-36.792L421 289l99 26.618z"/><path stroke="#B5B5B5" stroke-width=".583" d="M519.438 399l-98.258-36.792L421 289l99 26.618z"/><path d="M558 364.478c-1.184.263-7.995 4.313-18.823 4.52-5.1.096-2.529-3.426-2.529-3.426s9.917-3.837 17.89-8.572l3.462 7.478z" fill="#E8C5A6"/><path d="M554 350s-10.813 8.218-16.42 9.056c-2.52.375-5.182 1.276-5.558 3.297-.59 3.162 11.007.798 11.007.798l7.383-2.798L554 350z" fill="#E8C5A6"/><path d="M542.78 357.611s-8.61-.562-9.459-.775c-.85-.21-2.98-3.71 1.08-3.368 2.322.196 10.908-.99 11.241-1.156 0 0 6.89-1.795 10.107-3.433 4.223-2.148 19.251.317 19.251.317l-.542 16.057c-.851 0-9.337-2.477-12.908-.617-3.57 1.861-8.08 5.934-13.607 7.626-4.11 1.257-6.627.74-6.662-.294-.1-2.909 3.902-3.096 6.027-4.346 2.228-1.31 6.894-3.13 8.613-4.94" fill="#E8C5A6"/><path d="M543 357c1.139-.141 9.426-4.071 13-3.999M541 364c1.164-.132 9.35-5.067 13-5m-10 9c1.211-.139 7.22-3.095 11-4" stroke="#C49E82" stroke-width=".75"/><path d="M577.881 346s5.476.24 12.004 1.774c-1.958 3.024-2.682 5.97-2.682 9.684 0 5.157 2.232 9.932 5.797 13.542a191.463 191.463 0 01-14.002-1.631c-7.196-1.097-5.758-19.771-1.117-23.369" fill="#FFF"/><path d="M577.881 346s5.476.24 12.004 1.774c-1.958 3.024-2.682 5.97-2.682 9.684 0 5.157 2.232 9.932 5.797 13.542a191.463 191.463 0 01-14.002-1.631c-7.196-1.097-5.758-19.771-1.117-23.369z" stroke="#919191" stroke-width=".942"/><path d="M574 219.477s1.4 17.828 1.95 17.519c5.323-2.989 17.485-26.624 17.038-27.026-.436-.39-7.327-8.97-7.327-8.97L574 219.477z" fill="#C1B9B2"/><path d="M561 199.929c1.89-.056 19.057-5.268 20.175-5.926.14-.081.825 1.654.825 1.654L562.869 206 561 199.929z" fill="#A87F60"/><path fill="#1F3C49" d="M525 290l6-27-.983 19.051z"/><path d="M601 159.154c-.272-.305-8.534-6.592-10 3.846" fill="#A87F60"/><path d="M591 215l-16 23 7.036-8.526c3.41-4.78 5.382-6.482 6.721-9.991L591 215z" fill="#A8A8A8"/><path d="M634.744 230s49.151 68.61 42.666 100.453c-7.311 35.906-36.033 49.384-86.218 41.262-7.364-1.192-6.048-20.902-1.298-24.81 0 0 55.535 7.552 51.444-25.39-4.093-32.942-21.089-39.53-21.089-39.53L634.744 230z" fill="#2B5165"/><path d="M634 230s-17.054 10.748-6.62 58M537 216l-7 66" stroke="#1F3C49"/><path d="M428.913 208.664c.163-.522.482-.945.925-1.247.19-.13.216-.385.061-.636l-.184-.302c-.243-.392-.797-.597-1.107-.407-1.428.867-1.961 2.533-1.371 4.334.13.4.673.682 1.078.569l.31-.086c.257-.073.38-.293.306-.545-.17-.582-.18-1.156-.018-1.68m4.649-.897a5.062 5.062 0 011.395 1.014c.166.172.404.254.589.205l.22-.06c.279-.075.315-.415.073-.682-1.106-1.222-2.755-2.085-4.394-2.241-.386-.036-.567.275-.355.616l.163.265c.135.22.396.38.64.402a4.746 4.746 0 011.669.481" fill="#EE3434"/><path d="M435.296 210.728l-.182.074c-.154.062-.23.261-.187.488.093.5.095.99.006 1.446a2.95 2.95 0 01-.243.726 2 2 0 01-.17.29c-.18.223-.542.109-.699-.239l-.128-.275c-.084-.188-.088-.393-.003-.534.225-.372.3-.877.208-1.412a2.962 2.962 0 00-.235-.736c-.49-1.051-1.527-1.732-2.385-1.516l-.018.005-.02.004a.124.124 0 01-.019.007c-.007.001-.014.004-.02.006-.005.001-.013.005-.018.005-.007.001-.013.004-.019.006l-.02.008-.018.006-.019.008-.007.003c-.84.347-1.1 1.533-.577 2.663.123.266.276.504.452.71.384.452.867.748 1.338.833.172.03.334.172.424.361l.133.283c.166.35.01.717-.297.717h-.037a3.239 3.239 0 01-1.13-.347 4.322 4.322 0 01-1.288-1.04c-.173-.203-.426-.29-.624-.21l-.238.096c-.31.126-.344.576-.07.894a6.47 6.47 0 001.273 1.136c.148.1.298.19.45.27a4.86 4.86 0 00.911.379c.15.042.3.077.448.103a3.278 3.278 0 001.29-.019 2.843 2.843 0 001.472-.832 2.954 2.954 0 00.47-.644 3.697 3.697 0 00.315-.762 4.308 4.308 0 00.162-.856 5.244 5.244 0 00.006-.926 6.345 6.345 0 00-.093-.678c-.065-.341-.362-.595-.594-.5" fill="#37AFCA"/><path d="M422.446 222c.066.09 4.554 1.776 4.554 1.776s-.1.251-.247.222c-.147-.028-4.753-1.644-4.753-1.644l.446-.354zm1.33 7s6.65 1.75 6.954 1.798l.09.155.18.045c-.379.063-8-1.416-8-1.416.22-.232.469-.436.776-.582m2.224 6c.403.06 6.386 2.498 7.577 2.022.07-.03.35.713.423.97.034.118-7.337-1.076-7.337-1.076L426 235z" fill="#C49E82"/><path d="M263.296 237.539l5.102-2.539c.198.147.404.382.602.693L263 238l.296-.461zm4.961 4.461l-8.004 2.576L260 245l9-2.365s-.456-.494-.743-.635m-.257 5c.037.25-7.082 3.612-11.674 4.379-.021.003-.326.621-.326.621s7.548-.077 9.27-1.682c1.041-.97 2.73-3.318 2.73-3.318" fill="#E5B79E"/><path d="M299 134a55.431 55.431 0 012.438-3.968c22.436-33.376 71.69-33.376 94.124 0a55.431 55.431 0 012.438 3.969 55.77 55.77 0 01-2.438 3.968c-22.434 33.375-71.688 33.375-94.124 0A55.77 55.77 0 01299 134" fill="#FFF"/><path d="M299 134a55.431 55.431 0 012.438-3.968c22.436-33.376 71.69-33.376 94.124 0a55.431 55.431 0 012.438 3.969 55.77 55.77 0 01-2.438 3.968c-22.434 33.375-71.688 33.375-94.124 0A55.77 55.77 0 01299 134z" stroke="#CBCBCB" stroke-width="2"/><path d="M362 134c0-7.732-6.268-14-14-14s-14 6.268-14 14c0 7.733 6.268 14 14 14s14-6.267 14-14z" stroke="#CBCBCB" stroke-width="2"/><path d="M317.62 165a.62.62 0 01-.438-.182.632.632 0 01-.001-.887l61.758-62.747a.617.617 0 01.878-.002.632.632 0 01.003.887l-61.76 62.748a.613.613 0 01-.44.183" fill="#F03434"/><path d="M379.62 101c-.37 0-.717.143-.979.405l-62.24 62.251a1.37 1.37 0 00.005 1.944c.26.259.607.4.974.4.37 0 .718-.143.98-.405l62.239-62.251a1.372 1.372 0 00-.978-2.344m0 .752a.62.62 0 01.443 1.06l-62.24 62.254a.626.626 0 01-.884.001.62.62 0 01-.003-.88l62.24-62.253a.629.629 0 01.444-.182" fill="#F03434"/></g></svg>